<?xml version="1.0" encoding="UTF-8" standalone="no"?>
<!DOCTYPE svg PUBLIC "-//W3C//DTD SVG 1.1//EN"
 "http://www.w3.org/Graphics/SVG/1.1/DTD/svg11.dtd">
<!-- Generated by graphviz version 2.40.1 (20161225.0304)
 -->
<!-- Title: archived_messages Pages: 1 -->
<svg width="381pt" height="284pt"
 viewBox="0.00 0.00 381.00 284.00" xmlns="http://www.w3.org/2000/svg" xmlns:xlink="http://www.w3.org/1999/xlink">
<g id="graph0" class="graph" transform="scale(1 1) rotate(0) translate(4 280)">
<title>archived_messages</title>
<polygon fill="#ffffff" stroke="transparent" points="-4,4 -4,-280 377,-280 377,4 -4,4"/>
<!-- archived_messages -->
<g id="node1" class="node">
<title>archived_messages</title>
<polygon fill="#efefef" stroke="transparent" points="46.5,-196 46.5,-230 327.5,-230 327.5,-196 46.5,-196"/>
<polygon fill="none" stroke="#000000" points="46.5,-196 46.5,-230 327.5,-230 327.5,-196 46.5,-196"/>
<text text-anchor="start" x="53.458" y="-209.6" font-family="Arial Bold" font-size="18.00" fill="#000000">archived_messages</text>
<text text-anchor="start" x="224.5723" y="-209.6" font-family="Arial" font-size="14.00" fill="#000000"> </text>
<text text-anchor="start" x="228.4619" y="-209.6" font-family="Arial" font-size="14.00" fill="#666666">[BASE TABLE]</text>
<polygon fill="none" stroke="#000000" points="46.5,-166 46.5,-196 327.5,-196 327.5,-166 46.5,-166"/>
<text text-anchor="start" x="53.5" y="-178.8" font-family="Arial" font-size="14.00" fill="#000000">id </text>
<text text-anchor="start" x="68.2861" y="-178.8" font-family="Arial" font-size="14.00" fill="#666666">[char(36)]</text>
<polygon fill="none" stroke="#000000" points="46.5,-136 46.5,-166 327.5,-166 327.5,-136 46.5,-136"/>
<text text-anchor="start" x="53.5" y="-148.8" font-family="Arial" font-size="14.00" fill="#000000">message_id </text>
<text text-anchor="start" x="132.8789" y="-148.8" font-family="Arial" font-size="14.00" fill="#666666">[char(36)]</text>
<polygon fill="none" stroke="#000000" points="46.5,-106 46.5,-136 327.5,-136 327.5,-106 46.5,-106"/>
<text text-anchor="start" x="53.5" y="-118.8" font-family="Arial" font-size="14.00" fill="#000000">user_id </text>
<text text-anchor="start" x="103.3066" y="-118.8" font-family="Arial" font-size="14.00" fill="#666666">[char(36)]</text>
<polygon fill="none" stroke="#000000" points="46.5,-76 46.5,-106 327.5,-106 327.5,-76 46.5,-76"/>
<text text-anchor="start" x="53.5" y="-88.8" font-family="Arial" font-size="14.00" fill="#000000">text </text>
<text text-anchor="start" x="79.9551" y="-88.8" font-family="Arial" font-size="14.00" fill="#666666">[text]</text>
<polygon fill="none" stroke="#000000" points="46.5,-46 46.5,-76 327.5,-76 327.5,-46 46.5,-46"/>
<text text-anchor="start" x="53.5" y="-58.8" font-family="Arial" font-size="14.00" fill="#000000">date_time </text>
<text text-anchor="start" x="118.8721" y="-58.8" font-family="Arial" font-size="14.00" fill="#666666">[timestamp(6)]</text>
<polygon fill="none" stroke="#000000" stroke-width="3" points="44.5,-44.5 44.5,-231.5 328.5,-231.5 328.5,-44.5 44.5,-44.5"/>
</g>
</g>
</svg>
