<?xml version="1.0" encoding="UTF-8" standalone="no"?>
<!DOCTYPE svg PUBLIC "-//W3C//DTD SVG 1.1//EN"
        "http://www.w3.org/Graphics/SVG/1.1/DTD/svg11.dtd">
<!-- Generated by graphviz version 2.40.1 (20161225.0304)
 -->
<!-- Title: bot_join_channels Pages: 1 -->
<svg width="367pt" height="194pt"
     viewBox="0.00 0.00 367.00 194.00" xmlns="http://www.w3.org/2000/svg">
    <g id="graph0" class="graph" transform="scale(1 1) rotate(0) translate(4 190)">
        <title>bot_join_channels</title>
        <polygon fill="#ffffff" stroke="transparent" points="-4,4 -4,-190 363,-190 363,4 -4,4"/>
        <!-- bot_join_channels -->
        <g id="node1" class="node">
            <title>bot_join_channels</title>
            <polygon fill="#efefef" stroke="transparent" points="46.5,-106 46.5,-140 313.5,-140 313.5,-106 46.5,-106"/>
            <polygon fill="none" stroke="#000000" points="46.5,-106 46.5,-140 313.5,-140 313.5,-106 46.5,-106"/>
            <text text-anchor="start" x="53.0015" y="-119.6" font-family="Arial Bold" font-size="18.00" fill="#000000">
                bot_join_channels
            </text>
            <text text-anchor="start" x="211.0288" y="-119.6" font-family="Arial" font-size="14.00"
                  fill="#000000"></text>
            <text text-anchor="start" x="214.9185" y="-119.6" font-family="Arial" font-size="14.00" fill="#666666">[BASE
                TABLE]
            </text>
            <polygon fill="none" stroke="#000000" points="46.5,-76 46.5,-106 313.5,-106 313.5,-76 46.5,-76"/>
            <text text-anchor="start" x="53.5" y="-88.8" font-family="Arial" font-size="14.00" fill="#000000">
                channel_id
            </text>
            <text text-anchor="start" x="125.1133" y="-88.8" font-family="Arial" font-size="14.00" fill="#666666">
                [char(36)]
            </text>
            <polygon fill="none" stroke="#000000" points="46.5,-46 46.5,-76 313.5,-76 313.5,-46 46.5,-46"/>
            <text text-anchor="start" x="53.5" y="-58.8" font-family="Arial" font-size="14.00" fill="#000000">bot_id
            </text>
            <text text-anchor="start" x="95.5342" y="-58.8" font-family="Arial" font-size="14.00" fill="#666666">
                [char(36)]
            </text>
            <polygon fill="none" stroke="#000000" stroke-width="3"
                     points="44.5,-44.5 44.5,-141.5 314.5,-141.5 314.5,-44.5 44.5,-44.5"/>
        </g>
    </g>
</svg>
