<?xml version="1.0" encoding="UTF-8" standalone="no"?>
<!DOCTYPE svg PUBLIC "-//W3C//DTD SVG 1.1//EN"
 "http://www.w3.org/Graphics/SVG/1.1/DTD/svg11.dtd">
<!-- Generated by graphviz version 2.40.1 (20161225.0304)
 -->
<!-- Title: bot_event_logs Pages: 1 -->
<svg width="341pt" height="374pt"
 viewBox="0.00 0.00 341.00 374.00" xmlns="http://www.w3.org/2000/svg" xmlns:xlink="http://www.w3.org/1999/xlink">
<g id="graph0" class="graph" transform="scale(1 1) rotate(0) translate(4 370)">
<title>bot_event_logs</title>
<polygon fill="#ffffff" stroke="transparent" points="-4,4 -4,-370 337,-370 337,4 -4,4"/>
<!-- bot_event_logs -->
<g id="node1" class="node">
<title>bot_event_logs</title>
<polygon fill="#efefef" stroke="transparent" points="46.5,-286 46.5,-320 287.5,-320 287.5,-286 46.5,-286"/>
<polygon fill="none" stroke="#000000" points="46.5,-286 46.5,-320 287.5,-320 287.5,-286 46.5,-286"/>
<text text-anchor="start" x="53.0005" y="-299.6" font-family="Arial Bold" font-size="18.00" fill="#000000">bot_event_logs</text>
<text text-anchor="start" x="185.0298" y="-299.6" font-family="Arial" font-size="14.00" fill="#000000"> </text>
<text text-anchor="start" x="188.9194" y="-299.6" font-family="Arial" font-size="14.00" fill="#666666">[BASE TABLE]</text>
<polygon fill="none" stroke="#000000" points="46.5,-256 46.5,-286 287.5,-286 287.5,-256 46.5,-256"/>
<text text-anchor="start" x="53.5" y="-268.8" font-family="Arial" font-size="14.00" fill="#000000">request_id </text>
<text text-anchor="start" x="122.7686" y="-268.8" font-family="Arial" font-size="14.00" fill="#666666">[char(36)]</text>
<polygon fill="none" stroke="#000000" points="46.5,-226 46.5,-256 287.5,-256 287.5,-226 46.5,-226"/>
<text text-anchor="start" x="53.5" y="-238.8" font-family="Arial" font-size="14.00" fill="#000000">bot_id </text>
<text text-anchor="start" x="95.5342" y="-238.8" font-family="Arial" font-size="14.00" fill="#666666">[char(36)]</text>
<polygon fill="none" stroke="#000000" points="46.5,-196 46.5,-226 287.5,-226 287.5,-196 46.5,-196"/>
<text text-anchor="start" x="53.5" y="-208.8" font-family="Arial" font-size="14.00" fill="#000000">event </text>
<text text-anchor="start" x="91.6377" y="-208.8" font-family="Arial" font-size="14.00" fill="#666666">[varchar(30)]</text>
<polygon fill="none" stroke="#000000" points="46.5,-166 46.5,-196 287.5,-196 287.5,-166 46.5,-166"/>
<text text-anchor="start" x="53.5" y="-178.8" font-family="Arial" font-size="14.00" fill="#000000">body </text>
<text text-anchor="start" x="87.748" y="-178.8" font-family="Arial" font-size="14.00" fill="#666666">[text]</text>
<polygon fill="none" stroke="#000000" points="46.5,-136 46.5,-166 287.5,-166 287.5,-136 46.5,-136"/>
<text text-anchor="start" x="53.5" y="-148.8" font-family="Arial" font-size="14.00" fill="#000000">error </text>
<text text-anchor="start" x="86.9482" y="-148.8" font-family="Arial" font-size="14.00" fill="#666666">[text]</text>
<polygon fill="none" stroke="#000000" points="46.5,-106 46.5,-136 287.5,-136 287.5,-106 46.5,-106"/>
<text text-anchor="start" x="53.5" y="-118.8" font-family="Arial" font-size="14.00" fill="#000000">code </text>
<text text-anchor="start" x="87.748" y="-118.8" font-family="Arial" font-size="14.00" fill="#666666">[int(11)]</text>
<polygon fill="none" stroke="#000000" points="46.5,-76 46.5,-106 287.5,-106 287.5,-76 46.5,-76"/>
<text text-anchor="start" x="53.5" y="-88.8" font-family="Arial" font-size="14.00" fill="#000000">latency </text>
<text text-anchor="start" x="101.748" y="-88.8" font-family="Arial" font-size="14.00" fill="#666666">[bigint(20)]</text>
<polygon fill="none" stroke="#000000" points="46.5,-46 46.5,-76 287.5,-76 287.5,-46 46.5,-46"/>
<text text-anchor="start" x="53.5" y="-58.8" font-family="Arial" font-size="14.00" fill="#000000">date_time </text>
<text text-anchor="start" x="118.8721" y="-58.8" font-family="Arial" font-size="14.00" fill="#666666">[timestamp(6)]</text>
<polygon fill="none" stroke="#000000" stroke-width="3" points="44.5,-44.5 44.5,-321.5 288.5,-321.5 288.5,-44.5 44.5,-44.5"/>
</g>
</g>
</svg>
