<?xml version="1.0" encoding="UTF-8" standalone="no"?>
<!DOCTYPE svg PUBLIC "-//W3C//DTD SVG 1.1//EN"
 "http://www.w3.org/Graphics/SVG/1.1/DTD/svg11.dtd">
<!-- Generated by graphviz version 2.40.1 (20161225.0304)
 -->
<!-- Title: bot_join_channels Pages: 1 -->
<svg width="356pt" height="195pt"
     viewBox="0.00 0.00 356.00 195.00" xmlns="http://www.w3.org/2000/svg">
<g id="graph0" class="graph" transform="scale(1 1) rotate(0) translate(4 191)">
<title>bot_join_channels</title>
<polygon fill="#ffffff" stroke="transparent" points="-4,4 -4,-191 352,-191 352,4 -4,4"/>
<!-- bot_join_channels -->
<g id="node1" class="node">
<title>bot_join_channels</title>
<polygon fill="#efefef" stroke="transparent" points="46,-105.5 46,-140.5 302,-140.5 302,-105.5 46,-105.5"/>
<polygon fill="none" stroke="#000000" points="46,-105.5 46,-140.5 302,-140.5 302,-105.5 46,-105.5"/>
<text text-anchor="start" x="52.8466" y="-118.3" font-family="Arial Bold" font-size="18.00" fill="#000000">bot_join_channels</text>
<text text-anchor="start" x="197.8996" y="-118.3" font-family="Arial" font-size="14.00" fill="#000000"> </text>
<text text-anchor="start" x="201.7902" y="-118.3" font-family="Arial" font-size="14.00" fill="#666666">[BASE TABLE]</text>
<polygon fill="none" stroke="#000000" points="46,-75.5 46,-105.5 302,-105.5 302,-75.5 46,-75.5"/>
<text text-anchor="start" x="53" y="-86.9" font-family="Arial" font-size="14.00" fill="#000000">channel_id </text>
<text text-anchor="start" x="124.582" y="-86.9" font-family="Arial" font-size="14.00" fill="#666666">[char(36)]</text>
<polygon fill="none" stroke="#000000" points="46,-45.5 46,-75.5 302,-75.5 302,-45.5 46,-45.5"/>
<text text-anchor="start" x="53" y="-56.9" font-family="Arial" font-size="14.00" fill="#000000">bot_id </text>
<text text-anchor="start" x="95.0182" y="-56.9" font-family="Arial" font-size="14.00" fill="#666666">[char(36)]</text>
<polygon fill="none" stroke="#000000" stroke-width="3" points="44.5,-44.5 44.5,-142.5 303.5,-142.5 303.5,-44.5 44.5,-44.5"/>
</g>
</g>
</svg>
