<?xml version="1.0" encoding="UTF-8" standalone="no"?>
<!DOCTYPE svg PUBLIC "-//W3C//DTD SVG 1.1//EN"
 "http://www.w3.org/Graphics/SVG/1.1/DTD/svg11.dtd">
<!-- Generated by graphviz version 2.40.1 (20161225.0304)
 -->
<!-- Title: bots Pages: 1 -->
<svg width="306pt" height="554pt"
 viewBox="0.00 0.00 306.00 554.00" xmlns="http://www.w3.org/2000/svg" xmlns:xlink="http://www.w3.org/1999/xlink">
<g id="graph0" class="graph" transform="scale(1 1) rotate(0) translate(4 550)">
<title>bots</title>
<polygon fill="#ffffff" stroke="transparent" points="-4,4 -4,-550 302,-550 302,4 -4,4"/>
<!-- bots -->
<g id="node1" class="node">
<title>bots</title>
<polygon fill="#efefef" stroke="transparent" points="46,-466 46,-500 252,-500 252,-466 46,-466"/>
<polygon fill="none" stroke="#000000" points="46,-466 46,-500 252,-500 252,-466 46,-466"/>
<text text-anchor="start" x="82.0176" y="-479.6" font-family="Arial Bold" font-size="18.00" fill="#000000">bots</text>
<text text-anchor="start" x="120.0127" y="-479.6" font-family="Arial" font-size="14.00" fill="#000000"> </text>
<text text-anchor="start" x="123.9023" y="-479.6" font-family="Arial" font-size="14.00" fill="#666666">[BASE TABLE]</text>
<polygon fill="none" stroke="#000000" points="46,-436 46,-466 252,-466 252,-436 46,-436"/>
<text text-anchor="start" x="53" y="-448.8" font-family="Arial" font-size="14.00" fill="#000000">id </text>
<text text-anchor="start" x="67.7861" y="-448.8" font-family="Arial" font-size="14.00" fill="#666666">[char(36)]</text>
<polygon fill="none" stroke="#000000" points="46,-406 46,-436 252,-436 252,-406 46,-406"/>
<text text-anchor="start" x="53" y="-418.8" font-family="Arial" font-size="14.00" fill="#000000">bot_user_id </text>
<text text-anchor="start" x="130.0547" y="-418.8" font-family="Arial" font-size="14.00" fill="#666666">[char(36)]</text>
<polygon fill="none" stroke="#000000" points="46,-376 46,-406 252,-406 252,-376 46,-376"/>
<text text-anchor="start" x="53" y="-388.8" font-family="Arial" font-size="14.00" fill="#000000">description </text>
<text text-anchor="start" x="124.5928" y="-388.8" font-family="Arial" font-size="14.00" fill="#666666">[text]</text>
<polygon fill="none" stroke="#000000" points="46,-346 46,-376 252,-376 252,-346 46,-346"/>
<text text-anchor="start" x="52.9004" y="-358.8" font-family="Arial" font-size="14.00" fill="#000000">verification_token </text>
<text text-anchor="start" x="165.7412" y="-358.8" font-family="Arial" font-size="14.00" fill="#666666">[varchar(30)]</text>
<polygon fill="none" stroke="#000000" points="46,-316 46,-346 252,-346 252,-316 46,-316"/>
<text text-anchor="start" x="53" y="-328.8" font-family="Arial" font-size="14.00" fill="#000000">access_token_id </text>
<text text-anchor="start" x="161.1787" y="-328.8" font-family="Arial" font-size="14.00" fill="#666666">[char(36)]</text>
<polygon fill="none" stroke="#000000" points="46,-286 46,-316 252,-316 252,-286 46,-286"/>
<text text-anchor="start" x="53" y="-298.8" font-family="Arial" font-size="14.00" fill="#000000">post_url </text>
<text text-anchor="start" x="106.6963" y="-298.8" font-family="Arial" font-size="14.00" fill="#666666">[text]</text>
<polygon fill="none" stroke="#000000" points="46,-256 46,-286 252,-286 252,-256 46,-256"/>
<text text-anchor="start" x="53" y="-268.8" font-family="Arial" font-size="14.00" fill="#000000">subscribe_events </text>
<text text-anchor="start" x="165.8408" y="-268.8" font-family="Arial" font-size="14.00" fill="#666666">[text]</text>
<polygon fill="none" stroke="#000000" points="46,-226 46,-256 252,-256 252,-226 46,-226"/>
<text text-anchor="start" x="53" y="-238.8" font-family="Arial" font-size="14.00" fill="#000000">privileged </text>
<text text-anchor="start" x="116.8135" y="-238.8" font-family="Arial" font-size="14.00" fill="#666666">[tinyint(1)]</text>
<polygon fill="none" stroke="#000000" points="46,-196 46,-226 252,-226 252,-196 46,-196"/>
<text text-anchor="start" x="53" y="-208.8" font-family="Arial" font-size="14.00" fill="#000000">state </text>
<text text-anchor="start" x="87.2412" y="-208.8" font-family="Arial" font-size="14.00" fill="#666666">[tinyint(4)]</text>
<polygon fill="none" stroke="#000000" points="46,-166 46,-196 252,-196 252,-166 46,-166"/>
<text text-anchor="start" x="53" y="-178.8" font-family="Arial" font-size="14.00" fill="#000000">bot_code </text>
<text text-anchor="start" x="114.4961" y="-178.8" font-family="Arial" font-size="14.00" fill="#666666">[varchar(30)]</text>
<polygon fill="none" stroke="#000000" points="46,-136 46,-166 252,-166 252,-136 46,-136"/>
<text text-anchor="start" x="53" y="-148.8" font-family="Arial" font-size="14.00" fill="#000000">creator_id </text>
<text text-anchor="start" x="119.1445" y="-148.8" font-family="Arial" font-size="14.00" fill="#666666">[char(36)]</text>
<polygon fill="none" stroke="#000000" points="46,-106 46,-136 252,-136 252,-106 46,-106"/>
<text text-anchor="start" x="53" y="-118.8" font-family="Arial" font-size="14.00" fill="#000000">created_at </text>
<text text-anchor="start" x="123.0479" y="-118.8" font-family="Arial" font-size="14.00" fill="#666666">[timestamp(6)]</text>
<polygon fill="none" stroke="#000000" points="46,-76 46,-106 252,-106 252,-76 46,-76"/>
<text text-anchor="start" x="53" y="-88.8" font-family="Arial" font-size="14.00" fill="#000000">updated_at </text>
<text text-anchor="start" x="126.958" y="-88.8" font-family="Arial" font-size="14.00" fill="#666666">[timestamp(6)]</text>
<polygon fill="none" stroke="#000000" points="46,-46 46,-76 252,-76 252,-46 46,-46"/>
<text text-anchor="start" x="53" y="-58.8" font-family="Arial" font-size="14.00" fill="#000000">deleted_at </text>
<text text-anchor="start" x="122.2822" y="-58.8" font-family="Arial" font-size="14.00" fill="#666666">[timestamp(6)]</text>
<polygon fill="none" stroke="#000000" stroke-width="3" points="44.5,-44.5 44.5,-501.5 253.5,-501.5 253.5,-44.5 44.5,-44.5"/>
</g>
</g>
</svg>
