<?xml version="1.0" encoding="UTF-8" standalone="no"?>
<!DOCTYPE svg PUBLIC "-//W3C//DTD SVG 1.1//EN"
 "http://www.w3.org/Graphics/SVG/1.1/DTD/svg11.dtd">
<!-- Generated by graphviz version 2.40.1 (20161225.0304)
 -->
<!-- Title: bots Pages: 1 -->
<svg width="519pt" height="1102pt"
     viewBox="0.00 0.00 519.00 1102.00" xmlns="http://www.w3.org/2000/svg">
<g id="graph0" class="graph" transform="scale(1 1) rotate(0) translate(4 1098)">
<title>bots</title>
<polygon fill="#ffffff" stroke="transparent" points="-4,4 -4,-1098 515,-1098 515,4 -4,4"/>
<!-- bots -->
<g id="node1" class="node">
<title>bots</title>
<polygon fill="#efefef" stroke="transparent" points="259,-1012.5 259,-1047.5 465,-1047.5 465,-1012.5 259,-1012.5"/>
<polygon fill="none" stroke="#000000" points="259,-1012.5 259,-1047.5 465,-1047.5 465,-1012.5 259,-1012.5"/>
<text text-anchor="start" x="296.3658" y="-1025.3" font-family="Arial Bold" font-size="18.00" fill="#000000">bots</text>
<text text-anchor="start" x="330.3804" y="-1025.3" font-family="Arial" font-size="14.00" fill="#000000"> </text>
<text text-anchor="start" x="334.271" y="-1025.3" font-family="Arial" font-size="14.00" fill="#666666">[BASE TABLE]</text>
<polygon fill="none" stroke="#000000" points="259,-982.5 259,-1012.5 465,-1012.5 465,-982.5 259,-982.5"/>
<text text-anchor="start" x="266" y="-993.9" font-family="Arial" font-size="14.00" fill="#000000">id </text>
<text text-anchor="start" x="280.7798" y="-993.9" font-family="Arial" font-size="14.00" fill="#666666">[char(36)]</text>
<polygon fill="none" stroke="#000000" points="259,-952.5 259,-982.5 465,-982.5 465,-952.5 259,-952.5"/>
<text text-anchor="start" x="266" y="-963.9" font-family="Arial" font-size="14.00" fill="#000000">bot_user_id </text>
<text text-anchor="start" x="343.0266" y="-963.9" font-family="Arial" font-size="14.00" fill="#666666">[char(36)]</text>
<polygon fill="none" stroke="#000000" points="259,-922.5 259,-952.5 465,-952.5 465,-922.5 259,-922.5"/>
<text text-anchor="start" x="266" y="-933.9" font-family="Arial" font-size="14.00" fill="#000000">description </text>
<text text-anchor="start" x="337.568" y="-933.9" font-family="Arial" font-size="14.00" fill="#666666">[text]</text>
<polygon fill="none" stroke="#000000" points="259,-892.5 259,-922.5 465,-922.5 465,-892.5 259,-892.5"/>
<text text-anchor="start" x="265.9299" y="-903.9" font-family="Arial" font-size="14.00" fill="#000000">verification_token </text>
<text text-anchor="start" x="378.7335" y="-903.9" font-family="Arial" font-size="14.00" fill="#666666">[varchar(30)]</text>
<polygon fill="none" stroke="#000000" points="259,-862.5 259,-892.5 465,-892.5 465,-862.5 259,-862.5"/>
<text text-anchor="start" x="266" y="-873.9" font-family="Arial" font-size="14.00" fill="#000000">access_token_id </text>
<text text-anchor="start" x="374.1486" y="-873.9" font-family="Arial" font-size="14.00" fill="#666666">[char(36)]</text>
<polygon fill="none" stroke="#000000" points="259,-832.5 259,-862.5 465,-862.5 465,-832.5 259,-832.5"/>
<text text-anchor="start" x="266" y="-843.9" font-family="Arial" font-size="14.00" fill="#000000">post_url </text>
<text text-anchor="start" x="319.6788" y="-843.9" font-family="Arial" font-size="14.00" fill="#666666">[text]</text>
<polygon fill="none" stroke="#000000" points="259,-802.5 259,-832.5 465,-832.5 465,-802.5 259,-802.5"/>
<text text-anchor="start" x="266" y="-813.9" font-family="Arial" font-size="14.00" fill="#000000">subscribe_events </text>
<text text-anchor="start" x="378.8092" y="-813.9" font-family="Arial" font-size="14.00" fill="#666666">[text]</text>
<polygon fill="none" stroke="#000000" points="259,-772.5 259,-802.5 465,-802.5 465,-772.5 259,-772.5"/>
<text text-anchor="start" x="266" y="-783.9" font-family="Arial" font-size="14.00" fill="#000000">privileged </text>
<text text-anchor="start" x="329.784" y="-783.9" font-family="Arial" font-size="14.00" fill="#666666">[tinyint(1)]</text>
<polygon fill="none" stroke="#000000" points="259,-742.5 259,-772.5 465,-772.5 465,-742.5 259,-742.5"/>
<text text-anchor="start" x="266" y="-753.9" font-family="Arial" font-size="14.00" fill="#000000">state </text>
<text text-anchor="start" x="300.237" y="-753.9" font-family="Arial" font-size="14.00" fill="#666666">[tinyint(4)]</text>
<polygon fill="none" stroke="#000000" points="259,-712.5 259,-742.5 465,-742.5 465,-712.5 259,-712.5"/>
<text text-anchor="start" x="266" y="-723.9" font-family="Arial" font-size="14.00" fill="#000000">bot_code </text>
<text text-anchor="start" x="327.4768" y="-723.9" font-family="Arial" font-size="14.00" fill="#666666">[varchar(30)]</text>
<polygon fill="none" stroke="#000000" points="259,-682.5 259,-712.5 465,-712.5 465,-682.5 259,-682.5"/>
<text text-anchor="start" x="266" y="-693.9" font-family="Arial" font-size="14.00" fill="#000000">creator_id </text>
<text text-anchor="start" x="332.122" y="-693.9" font-family="Arial" font-size="14.00" fill="#666666">[char(36)]</text>
<polygon fill="none" stroke="#000000" points="259,-652.5 259,-682.5 465,-682.5 465,-652.5 259,-652.5"/>
<text text-anchor="start" x="266" y="-663.9" font-family="Arial" font-size="14.00" fill="#000000">created_at </text>
<text text-anchor="start" x="336.028" y="-663.9" font-family="Arial" font-size="14.00" fill="#666666">[datetime(6)]</text>
<polygon fill="none" stroke="#000000" points="259,-622.5 259,-652.5 465,-652.5 465,-622.5 259,-622.5"/>
<text text-anchor="start" x="266" y="-633.9" font-family="Arial" font-size="14.00" fill="#000000">updated_at </text>
<text text-anchor="start" x="339.9326" y="-633.9" font-family="Arial" font-size="14.00" fill="#666666">[datetime(6)]</text>
<polygon fill="none" stroke="#000000" points="259,-592.5 259,-622.5 465,-622.5 465,-592.5 259,-592.5"/>
<text text-anchor="start" x="266" y="-603.9" font-family="Arial" font-size="14.00" fill="#000000">deleted_at </text>
<text text-anchor="start" x="335.2566" y="-603.9" font-family="Arial" font-size="14.00" fill="#666666">[datetime(6)]</text>
<polygon fill="none" stroke="#000000" stroke-width="3" points="257.5,-591.5 257.5,-1049.5 466.5,-1049.5 466.5,-591.5 257.5,-591.5"/>
</g>
<!-- users -->
<g id="node2" class="node">
<title>users</title>
<polygon fill="#efefef" stroke="transparent" points="270,-432.5 270,-467.5 453,-467.5 453,-432.5 270,-432.5"/>
<polygon fill="none" stroke="#000000" points="270,-432.5 270,-467.5 453,-467.5 453,-432.5 270,-432.5"/>
<text text-anchor="start" x="290.8708" y="-445.3" font-family="Arial Bold" font-size="18.00" fill="#000000">users</text>
<text text-anchor="start" x="334.8754" y="-445.3" font-family="Arial" font-size="14.00" fill="#000000"> </text>
<text text-anchor="start" x="338.766" y="-445.3" font-family="Arial" font-size="14.00" fill="#666666">[BASE TABLE]</text>
<polygon fill="none" stroke="#000000" points="270,-402.5 270,-432.5 453,-432.5 453,-402.5 270,-402.5"/>
<text text-anchor="start" x="277" y="-413.9" font-family="Arial" font-size="14.00" fill="#000000">id </text>
<text text-anchor="start" x="291.7798" y="-413.9" font-family="Arial" font-size="14.00" fill="#666666">[char(36)]</text>
<polygon fill="none" stroke="#000000" points="270,-372.5 270,-402.5 453,-402.5 453,-372.5 270,-372.5"/>
<text text-anchor="start" x="277" y="-383.9" font-family="Arial" font-size="14.00" fill="#000000">name </text>
<text text-anchor="start" x="315.899" y="-383.9" font-family="Arial" font-size="14.00" fill="#666666">[varchar(32)]</text>
<polygon fill="none" stroke="#000000" points="270,-342.5 270,-372.5 453,-372.5 453,-342.5 270,-342.5"/>
<text text-anchor="start" x="276.7104" y="-353.9" font-family="Arial" font-size="14.00" fill="#000000">display_name </text>
<text text-anchor="start" x="366.953" y="-353.9" font-family="Arial" font-size="14.00" fill="#666666">[varchar(64)]</text>
<polygon fill="none" stroke="#000000" points="270,-312.5 270,-342.5 453,-342.5 453,-312.5 270,-312.5"/>
<text text-anchor="start" x="277" y="-323.9" font-family="Arial" font-size="14.00" fill="#000000">password </text>
<text text-anchor="start" x="340.7882" y="-323.9" font-family="Arial" font-size="14.00" fill="#666666">[char(128)]</text>
<polygon fill="none" stroke="#000000" points="270,-282.5 270,-312.5 453,-312.5 453,-282.5 270,-282.5"/>
<text text-anchor="start" x="277" y="-293.9" font-family="Arial" font-size="14.00" fill="#000000">salt </text>
<text text-anchor="start" x="302.6704" y="-293.9" font-family="Arial" font-size="14.00" fill="#666666">[char(128)]</text>
<polygon fill="none" stroke="#000000" points="270,-252.5 270,-282.5 453,-282.5 453,-252.5 270,-252.5"/>
<text text-anchor="start" x="277" y="-263.9" font-family="Arial" font-size="14.00" fill="#000000">icon </text>
<text text-anchor="start" x="306.5624" y="-263.9" font-family="Arial" font-size="14.00" fill="#666666">[char(36)]</text>
<polygon fill="none" stroke="#000000" points="270,-222.5 270,-252.5 453,-252.5 453,-222.5 270,-222.5"/>
<text text-anchor="start" x="277" y="-233.9" font-family="Arial" font-size="14.00" fill="#000000">status </text>
<text text-anchor="start" x="318.237" y="-233.9" font-family="Arial" font-size="14.00" fill="#666666">[tinyint(4)]</text>
<polygon fill="none" stroke="#000000" points="270,-192.5 270,-222.5 453,-222.5 453,-192.5 270,-192.5"/>
<text text-anchor="start" x="277" y="-203.9" font-family="Arial" font-size="14.00" fill="#000000">bot </text>
<text text-anchor="start" x="300.3464" y="-203.9" font-family="Arial" font-size="14.00" fill="#666666">[tinyint(1)]</text>
<polygon fill="none" stroke="#000000" points="270,-162.5 270,-192.5 453,-192.5 453,-162.5 270,-162.5"/>
<text text-anchor="start" x="277" y="-173.9" font-family="Arial" font-size="14.00" fill="#000000">role </text>
<text text-anchor="start" x="304.223" y="-173.9" font-family="Arial" font-size="14.00" fill="#666666">[varchar(30)]</text>
<polygon fill="none" stroke="#000000" points="270,-132.5 270,-162.5 453,-162.5 453,-132.5 270,-132.5"/>
<text text-anchor="start" x="277" y="-143.9" font-family="Arial" font-size="14.00" fill="#000000">twitter_id </text>
<text text-anchor="start" x="336.8906" y="-143.9" font-family="Arial" font-size="14.00" fill="#666666">[varchar(15)]</text>
<polygon fill="none" stroke="#000000" points="270,-102.5 270,-132.5 453,-132.5 453,-102.5 270,-102.5"/>
<text text-anchor="start" x="277" y="-113.9" font-family="Arial" font-size="14.00" fill="#000000">last_online </text>
<text text-anchor="start" x="347.7966" y="-113.9" font-family="Arial" font-size="14.00" fill="#666666">[datetime(6)]</text>
<polygon fill="none" stroke="#000000" points="270,-72.5 270,-102.5 453,-102.5 453,-72.5 270,-72.5"/>
<text text-anchor="start" x="277" y="-83.9" font-family="Arial" font-size="14.00" fill="#000000">created_at </text>
<text text-anchor="start" x="347.028" y="-83.9" font-family="Arial" font-size="14.00" fill="#666666">[datetime(6)]</text>
<polygon fill="none" stroke="#000000" points="270,-42.5 270,-72.5 453,-72.5 453,-42.5 270,-42.5"/>
<text text-anchor="start" x="277" y="-53.9" font-family="Arial" font-size="14.00" fill="#000000">updated_at </text>
<text text-anchor="start" x="350.9326" y="-53.9" font-family="Arial" font-size="14.00" fill="#666666">[datetime(6)]</text>
</g>
<!-- bots&#45;&gt;users -->
<g id="edge1" class="edge">
<title>bots:bot_user_id&#45;&gt;users:id</title>
<path fill="none" stroke="#000000" d="M248.6255,-965.9413C168.2281,-940.6841 201.5896,-616.0439 259,-547 315.0677,-479.5709 396.9323,-578.4291 453,-511 479.5687,-479.0474 494.5556,-417.5 453,-417.5"/>
<polygon fill="#000000" stroke="#000000" points="249.111,-966.0142 258.3314,-971.9501 254.0555,-966.7571 259,-967.5 259,-967.5 259,-967.5 254.0555,-966.7571 259.6686,-963.0499 249.111,-966.0142 249.111,-966.0142"/>
<text text-anchor="start" x="7.217" y="-977.5" font-family="Arial" font-size="10.00" fill="#000000">FOREIGN KEY (bot_user_id) REFERENCES users (id)</text>
</g>
<!-- bots&#45;&gt;users -->
<g id="edge2" class="edge">
<title>bots:creator_id&#45;&gt;users:id</title>
<path fill="none" stroke="#000000" d="M248.8308,-696.6351C194.8053,-686.8069 218.5731,-595.619 259,-547 315.0677,-479.5709 396.9323,-578.4291 453,-511 479.5687,-479.0474 494.5556,-417.5 453,-417.5"/>
<polygon fill="#000000" stroke="#000000" points="249.036,-696.6525 258.6186,-701.9838 254.018,-697.0762 259,-697.5 259,-697.5 259,-697.5 254.018,-697.0762 259.3814,-693.0162 249.036,-696.6525 249.036,-696.6525"/>
<text text-anchor="start" x="15.1115" y="-707.5" font-family="Arial" font-size="10.00" fill="#000000">FOREIGN KEY (creator_id) REFERENCES users (id)</text>
</g>
</g>
</svg>
