<?xml version="1.0" encoding="UTF-8" standalone="no"?>
<!DOCTYPE svg PUBLIC "-//W3C//DTD SVG 1.1//EN"
 "http://www.w3.org/Graphics/SVG/1.1/DTD/svg11.dtd">
<!-- Generated by graphviz version 2.40.1 (20161225.0304)
 -->
<!-- Title: bots Pages: 1 -->
<svg width="511pt" height="1100pt"
     viewBox="0.00 0.00 511.00 1100.00" xmlns="http://www.w3.org/2000/svg">
<g id="graph0" class="graph" transform="scale(1 1) rotate(0) translate(4 1096)">
<title>bots</title>
<polygon fill="#ffffff" stroke="transparent" points="-4,4 -4,-1096 507,-1096 507,4 -4,4"/>
<!-- bots -->
<g id="node1" class="node">
<title>bots</title>
<polygon fill="#efefef" stroke="transparent" points="251,-1012 251,-1046 457,-1046 457,-1012 251,-1012"/>
<polygon fill="none" stroke="#000000" points="251,-1012 251,-1046 457,-1046 457,-1012 251,-1012"/>
<text text-anchor="start" x="287.0176" y="-1025.6" font-family="Arial Bold" font-size="18.00" fill="#000000">bots</text>
<text text-anchor="start" x="325.0127" y="-1025.6" font-family="Arial" font-size="14.00" fill="#000000"> </text>
<text text-anchor="start" x="328.9023" y="-1025.6" font-family="Arial" font-size="14.00" fill="#666666">[BASE TABLE]</text>
<polygon fill="none" stroke="#000000" points="251,-982 251,-1012 457,-1012 457,-982 251,-982"/>
<text text-anchor="start" x="258" y="-994.8" font-family="Arial" font-size="14.00" fill="#000000">id </text>
<text text-anchor="start" x="272.7861" y="-994.8" font-family="Arial" font-size="14.00" fill="#666666">[char(36)]</text>
<polygon fill="none" stroke="#000000" points="251,-952 251,-982 457,-982 457,-952 251,-952"/>
<text text-anchor="start" x="258" y="-964.8" font-family="Arial" font-size="14.00" fill="#000000">bot_user_id </text>
<text text-anchor="start" x="335.0547" y="-964.8" font-family="Arial" font-size="14.00" fill="#666666">[char(36)]</text>
<polygon fill="none" stroke="#000000" points="251,-922 251,-952 457,-952 457,-922 251,-922"/>
<text text-anchor="start" x="258" y="-934.8" font-family="Arial" font-size="14.00" fill="#000000">description </text>
<text text-anchor="start" x="329.5928" y="-934.8" font-family="Arial" font-size="14.00" fill="#666666">[text]</text>
<polygon fill="none" stroke="#000000" points="251,-892 251,-922 457,-922 457,-892 251,-892"/>
<text text-anchor="start" x="257.9004" y="-904.8" font-family="Arial" font-size="14.00" fill="#000000">verification_token </text>
<text text-anchor="start" x="370.7412" y="-904.8" font-family="Arial" font-size="14.00" fill="#666666">[varchar(30)]</text>
<polygon fill="none" stroke="#000000" points="251,-862 251,-892 457,-892 457,-862 251,-862"/>
<text text-anchor="start" x="258" y="-874.8" font-family="Arial" font-size="14.00" fill="#000000">access_token_id </text>
<text text-anchor="start" x="366.1787" y="-874.8" font-family="Arial" font-size="14.00" fill="#666666">[char(36)]</text>
<polygon fill="none" stroke="#000000" points="251,-832 251,-862 457,-862 457,-832 251,-832"/>
<text text-anchor="start" x="258" y="-844.8" font-family="Arial" font-size="14.00" fill="#000000">post_url </text>
<text text-anchor="start" x="311.6963" y="-844.8" font-family="Arial" font-size="14.00" fill="#666666">[text]</text>
<polygon fill="none" stroke="#000000" points="251,-802 251,-832 457,-832 457,-802 251,-802"/>
<text text-anchor="start" x="258" y="-814.8" font-family="Arial" font-size="14.00" fill="#000000">subscribe_events </text>
<text text-anchor="start" x="370.8408" y="-814.8" font-family="Arial" font-size="14.00" fill="#666666">[text]</text>
<polygon fill="none" stroke="#000000" points="251,-772 251,-802 457,-802 457,-772 251,-772"/>
<text text-anchor="start" x="258" y="-784.8" font-family="Arial" font-size="14.00" fill="#000000">privileged </text>
<text text-anchor="start" x="321.8135" y="-784.8" font-family="Arial" font-size="14.00" fill="#666666">[tinyint(1)]</text>
<polygon fill="none" stroke="#000000" points="251,-742 251,-772 457,-772 457,-742 251,-742"/>
<text text-anchor="start" x="258" y="-754.8" font-family="Arial" font-size="14.00" fill="#000000">state </text>
<text text-anchor="start" x="292.2412" y="-754.8" font-family="Arial" font-size="14.00" fill="#666666">[tinyint(4)]</text>
<polygon fill="none" stroke="#000000" points="251,-712 251,-742 457,-742 457,-712 251,-712"/>
<text text-anchor="start" x="258" y="-724.8" font-family="Arial" font-size="14.00" fill="#000000">bot_code </text>
<text text-anchor="start" x="319.4961" y="-724.8" font-family="Arial" font-size="14.00" fill="#666666">[varchar(30)]</text>
<polygon fill="none" stroke="#000000" points="251,-682 251,-712 457,-712 457,-682 251,-682"/>
<text text-anchor="start" x="258" y="-694.8" font-family="Arial" font-size="14.00" fill="#000000">creator_id </text>
<text text-anchor="start" x="324.1445" y="-694.8" font-family="Arial" font-size="14.00" fill="#666666">[char(36)]</text>
<polygon fill="none" stroke="#000000" points="251,-652 251,-682 457,-682 457,-652 251,-652"/>
<text text-anchor="start" x="258" y="-664.8" font-family="Arial" font-size="14.00" fill="#000000">created_at </text>
<text text-anchor="start" x="328.0479" y="-664.8" font-family="Arial" font-size="14.00" fill="#666666">[timestamp(6)]</text>
<polygon fill="none" stroke="#000000" points="251,-622 251,-652 457,-652 457,-622 251,-622"/>
<text text-anchor="start" x="258" y="-634.8" font-family="Arial" font-size="14.00" fill="#000000">updated_at </text>
<text text-anchor="start" x="331.958" y="-634.8" font-family="Arial" font-size="14.00" fill="#666666">[timestamp(6)]</text>
<polygon fill="none" stroke="#000000" points="251,-592 251,-622 457,-622 457,-592 251,-592"/>
<text text-anchor="start" x="258" y="-604.8" font-family="Arial" font-size="14.00" fill="#000000">deleted_at </text>
<text text-anchor="start" x="327.2822" y="-604.8" font-family="Arial" font-size="14.00" fill="#666666">[timestamp(6)]</text>
<polygon fill="none" stroke="#000000" stroke-width="3" points="249.5,-590.5 249.5,-1047.5 458.5,-1047.5 458.5,-590.5 249.5,-590.5"/>
</g>
<!-- users -->
<g id="node2" class="node">
<title>users</title>
<polygon fill="#efefef" stroke="transparent" points="262,-433 262,-467 445,-467 445,-433 262,-433"/>
<polygon fill="none" stroke="#000000" points="262,-433 262,-467 445,-467 445,-433 262,-433"/>
<text text-anchor="start" x="281.499" y="-446.6" font-family="Arial Bold" font-size="18.00" fill="#000000">users</text>
<text text-anchor="start" x="329.5313" y="-446.6" font-family="Arial" font-size="14.00" fill="#000000"> </text>
<text text-anchor="start" x="333.4209" y="-446.6" font-family="Arial" font-size="14.00" fill="#666666">[BASE TABLE]</text>
<polygon fill="none" stroke="#000000" points="262,-403 262,-433 445,-433 445,-403 262,-403"/>
<text text-anchor="start" x="269" y="-415.8" font-family="Arial" font-size="14.00" fill="#000000">id </text>
<text text-anchor="start" x="283.7861" y="-415.8" font-family="Arial" font-size="14.00" fill="#666666">[char(36)]</text>
<polygon fill="none" stroke="#000000" points="262,-373 262,-403 445,-403 445,-373 262,-373"/>
<text text-anchor="start" x="269" y="-385.8" font-family="Arial" font-size="14.00" fill="#000000">name </text>
<text text-anchor="start" x="307.9102" y="-385.8" font-family="Arial" font-size="14.00" fill="#666666">[varchar(32)]</text>
<polygon fill="none" stroke="#000000" points="262,-343 262,-373 445,-373 445,-343 262,-343"/>
<text text-anchor="start" x="268.6831" y="-355.8" font-family="Arial" font-size="14.00" fill="#000000">display_name </text>
<text text-anchor="start" x="358.9585" y="-355.8" font-family="Arial" font-size="14.00" fill="#666666">[varchar(64)]</text>
<polygon fill="none" stroke="#000000" points="262,-313 262,-343 445,-343 445,-313 262,-313"/>
<text text-anchor="start" x="269" y="-325.8" font-family="Arial" font-size="14.00" fill="#000000">password </text>
<text text-anchor="start" x="332.8066" y="-325.8" font-family="Arial" font-size="14.00" fill="#666666">[char(128)]</text>
<polygon fill="none" stroke="#000000" points="262,-283 262,-313 445,-313 445,-283 262,-283"/>
<text text-anchor="start" x="269" y="-295.8" font-family="Arial" font-size="14.00" fill="#000000">salt </text>
<text text-anchor="start" x="294.6758" y="-295.8" font-family="Arial" font-size="14.00" fill="#666666">[char(128)]</text>
<polygon fill="none" stroke="#000000" points="262,-253 262,-283 445,-283 445,-253 262,-253"/>
<text text-anchor="start" x="269" y="-265.8" font-family="Arial" font-size="14.00" fill="#000000">icon </text>
<text text-anchor="start" x="298.5723" y="-265.8" font-family="Arial" font-size="14.00" fill="#666666">[char(36)]</text>
<polygon fill="none" stroke="#000000" points="262,-223 262,-253 445,-253 445,-223 262,-223"/>
<text text-anchor="start" x="269" y="-235.8" font-family="Arial" font-size="14.00" fill="#000000">status </text>
<text text-anchor="start" x="310.2412" y="-235.8" font-family="Arial" font-size="14.00" fill="#666666">[tinyint(4)]</text>
<polygon fill="none" stroke="#000000" points="262,-193 262,-223 445,-223 445,-193 262,-193"/>
<text text-anchor="start" x="269" y="-205.8" font-family="Arial" font-size="14.00" fill="#000000">bot </text>
<text text-anchor="start" x="292.3516" y="-205.8" font-family="Arial" font-size="14.00" fill="#666666">[tinyint(1)]</text>
<polygon fill="none" stroke="#000000" points="262,-163 262,-193 445,-193 445,-163 262,-163"/>
<text text-anchor="start" x="269" y="-175.8" font-family="Arial" font-size="14.00" fill="#000000">role </text>
<text text-anchor="start" x="296.2344" y="-175.8" font-family="Arial" font-size="14.00" fill="#666666">[varchar(30)]</text>
<polygon fill="none" stroke="#000000" points="262,-133 262,-163 445,-163 445,-133 262,-133"/>
<text text-anchor="start" x="269" y="-145.8" font-family="Arial" font-size="14.00" fill="#000000">twitter_id </text>
<text text-anchor="start" x="328.9102" y="-145.8" font-family="Arial" font-size="14.00" fill="#666666">[varchar(15)]</text>
<polygon fill="none" stroke="#000000" points="262,-103 262,-133 445,-133 445,-103 262,-103"/>
<text text-anchor="start" x="269" y="-115.8" font-family="Arial" font-size="14.00" fill="#000000">last_online </text>
<text text-anchor="start" x="339.8271" y="-115.8" font-family="Arial" font-size="14.00" fill="#666666">[timestamp(6)]</text>
<polygon fill="none" stroke="#000000" points="262,-73 262,-103 445,-103 445,-73 262,-73"/>
<text text-anchor="start" x="269" y="-85.8" font-family="Arial" font-size="14.00" fill="#000000">created_at </text>
<text text-anchor="start" x="339.0479" y="-85.8" font-family="Arial" font-size="14.00" fill="#666666">[timestamp(6)]</text>
<polygon fill="none" stroke="#000000" points="262,-43 262,-73 445,-73 445,-43 262,-43"/>
<text text-anchor="start" x="269" y="-55.8" font-family="Arial" font-size="14.00" fill="#000000">updated_at </text>
<text text-anchor="start" x="342.958" y="-55.8" font-family="Arial" font-size="14.00" fill="#666666">[timestamp(6)]</text>
</g>
<!-- bots&#45;&gt;users -->
<g id="edge1" class="edge">
<title>bots:creator_id&#45;&gt;users:id</title>
<path fill="none" stroke="#000000" d="M240.797,-696.1323C186.5921,-686.2713 210.4387,-594.7805 251,-546 307.0677,-478.5709 388.9323,-577.4291 445,-510 471.1425,-478.56 485.8889,-418 445,-418"/>
<polygon fill="#000000" stroke="#000000" points="241.036,-696.1525 250.6186,-701.4838 246.018,-696.5762 251,-697 251,-697 251,-697 246.018,-696.5762 251.3814,-692.5162 241.036,-696.1525 241.036,-696.1525"/>
<text text-anchor="start" x="7.1768" y="-706.5" font-family="Arial" font-size="10.00" fill="#000000">FOREIGN KEY (creator_id) REFERENCES users (id)</text>
</g>
</g>
</svg>
