<?xml version="1.0" encoding="UTF-8" standalone="no"?>
<!DOCTYPE svg PUBLIC "-//W3C//DTD SVG 1.1//EN"
 "http://www.w3.org/Graphics/SVG/1.1/DTD/svg11.dtd">
<!-- Generated by graphviz version 2.40.1 (20161225.0304)
 -->
<!-- Title: channels Pages: 1 -->
<svg width="2094pt" height="860pt"
 viewBox="0.00 0.00 2093.50 860.00" xmlns="http://www.w3.org/2000/svg" xmlns:xlink="http://www.w3.org/1999/xlink">
<g id="graph0" class="graph" transform="scale(1 1) rotate(0) translate(4 856)">
<title>channels</title>
<polygon fill="#ffffff" stroke="transparent" points="-4,4 -4,-856 2089.5,-856 2089.5,4 -4,4"/>
<!-- channels -->
<g id="node1" class="node">
<title>channels</title>
<polygon fill="#efefef" stroke="transparent" points="877,-406 877,-440 1064,-440 1064,-406 877,-406"/>
<polygon fill="none" stroke="#000000" points="877,-406 877,-440 1064,-440 1064,-406 877,-406"/>
<text text-anchor="start" x="883.5005" y="-419.6" font-family="Arial Bold" font-size="18.00" fill="#000000">channels</text>
<text text-anchor="start" x="961.5298" y="-419.6" font-family="Arial" font-size="14.00" fill="#000000"> </text>
<text text-anchor="start" x="965.4194" y="-419.6" font-family="Arial" font-size="14.00" fill="#666666">[BASE TABLE]</text>
<polygon fill="none" stroke="#000000" points="877,-376 877,-406 1064,-406 1064,-376 877,-376"/>
<text text-anchor="start" x="884" y="-388.8" font-family="Arial" font-size="14.00" fill="#000000">id </text>
<text text-anchor="start" x="898.7861" y="-388.8" font-family="Arial" font-size="14.00" fill="#666666">[char(36)]</text>
<polygon fill="none" stroke="#000000" points="877,-346 877,-376 1064,-376 1064,-346 877,-346"/>
<text text-anchor="start" x="884" y="-358.8" font-family="Arial" font-size="14.00" fill="#000000">name </text>
<text text-anchor="start" x="922.9102" y="-358.8" font-family="Arial" font-size="14.00" fill="#666666">[varchar(20)]</text>
<polygon fill="none" stroke="#000000" points="877,-316 877,-346 1064,-346 1064,-316 877,-316"/>
<text text-anchor="start" x="884" y="-328.8" font-family="Arial" font-size="14.00" fill="#000000">parent_id </text>
<text text-anchor="start" x="946.2686" y="-328.8" font-family="Arial" font-size="14.00" fill="#666666">[char(36)]</text>
<polygon fill="none" stroke="#000000" points="877,-286 877,-316 1064,-316 1064,-286 877,-286"/>
<text text-anchor="start" x="884" y="-298.8" font-family="Arial" font-size="14.00" fill="#000000">topic </text>
<text text-anchor="start" x="917.4619" y="-298.8" font-family="Arial" font-size="14.00" fill="#666666">[text]</text>
<polygon fill="none" stroke="#000000" points="877,-256 877,-286 1064,-286 1064,-256 877,-256"/>
<text text-anchor="start" x="884" y="-268.8" font-family="Arial" font-size="14.00" fill="#000000">is_forced </text>
<text text-anchor="start" x="944.6963" y="-268.8" font-family="Arial" font-size="14.00" fill="#666666">[tinyint(1)]</text>
<polygon fill="none" stroke="#000000" points="877,-226 877,-256 1064,-256 1064,-226 877,-226"/>
<text text-anchor="start" x="884" y="-238.8" font-family="Arial" font-size="14.00" fill="#000000">is_public </text>
<text text-anchor="start" x="942.3652" y="-238.8" font-family="Arial" font-size="14.00" fill="#666666">[tinyint(1)]</text>
<polygon fill="none" stroke="#000000" points="877,-196 877,-226 1064,-226 1064,-196 877,-196"/>
<text text-anchor="start" x="884" y="-208.8" font-family="Arial" font-size="14.00" fill="#000000">is_visible </text>
<text text-anchor="start" x="944.6895" y="-208.8" font-family="Arial" font-size="14.00" fill="#666666">[tinyint(1)]</text>
<polygon fill="none" stroke="#000000" points="877,-166 877,-196 1064,-196 1064,-166 877,-166"/>
<text text-anchor="start" x="884" y="-178.8" font-family="Arial" font-size="14.00" fill="#000000">creator_id </text>
<text text-anchor="start" x="950.1445" y="-178.8" font-family="Arial" font-size="14.00" fill="#666666">[char(36)]</text>
<polygon fill="none" stroke="#000000" points="877,-136 877,-166 1064,-166 1064,-136 877,-136"/>
<text text-anchor="start" x="884" y="-148.8" font-family="Arial" font-size="14.00" fill="#000000">updater_id </text>
<text text-anchor="start" x="954.0547" y="-148.8" font-family="Arial" font-size="14.00" fill="#666666">[char(36)]</text>
<polygon fill="none" stroke="#000000" points="877,-106 877,-136 1064,-136 1064,-106 877,-106"/>
<text text-anchor="start" x="884" y="-118.8" font-family="Arial" font-size="14.00" fill="#000000">created_at </text>
<text text-anchor="start" x="954.0479" y="-118.8" font-family="Arial" font-size="14.00" fill="#666666">[timestamp(6)]</text>
<polygon fill="none" stroke="#000000" points="877,-76 877,-106 1064,-106 1064,-76 877,-76"/>
<text text-anchor="start" x="884" y="-88.8" font-family="Arial" font-size="14.00" fill="#000000">updated_at </text>
<text text-anchor="start" x="957.958" y="-88.8" font-family="Arial" font-size="14.00" fill="#666666">[timestamp(6)]</text>
<polygon fill="none" stroke="#000000" points="877,-46 877,-76 1064,-76 1064,-46 877,-46"/>
<text text-anchor="start" x="884" y="-58.8" font-family="Arial" font-size="14.00" fill="#000000">deleted_at </text>
<text text-anchor="start" x="953.2822" y="-58.8" font-family="Arial" font-size="14.00" fill="#666666">[timestamp(6)]</text>
<polygon fill="none" stroke="#000000" stroke-width="3" points="875,-44.5 875,-441.5 1065,-441.5 1065,-44.5 875,-44.5"/>
</g>
<!-- dm_channel_mappings -->
<g id="node2" class="node">
<title>dm_channel_mappings</title>
<polygon fill="#efefef" stroke="transparent" points="43,-715 43,-749 353,-749 353,-715 43,-715"/>
<polygon fill="none" stroke="#000000" points="43,-715 43,-749 353,-749 353,-715 43,-715"/>
<text text-anchor="start" x="49.9912" y="-728.6" font-family="Arial Bold" font-size="18.00" fill="#000000">dm_channel_mappings</text>
<text text-anchor="start" x="250.0391" y="-728.6" font-family="Arial" font-size="14.00" fill="#000000"> </text>
<text text-anchor="start" x="253.9287" y="-728.6" font-family="Arial" font-size="14.00" fill="#666666">[BASE TABLE]</text>
<polygon fill="none" stroke="#000000" points="43,-685 43,-715 353,-715 353,-685 43,-685"/>
<text text-anchor="start" x="50" y="-697.8" font-family="Arial" font-size="14.00" fill="#000000">channel_id </text>
<text text-anchor="start" x="121.6133" y="-697.8" font-family="Arial" font-size="14.00" fill="#666666">[char(36)]</text>
<polygon fill="none" stroke="#000000" points="43,-655 43,-685 353,-685 353,-655 43,-655"/>
<text text-anchor="start" x="50" y="-667.8" font-family="Arial" font-size="14.00" fill="#000000">user1 </text>
<text text-anchor="start" x="88.9102" y="-667.8" font-family="Arial" font-size="14.00" fill="#666666">[char(36)]</text>
<polygon fill="none" stroke="#000000" points="43,-625 43,-655 353,-655 353,-625 43,-625"/>
<text text-anchor="start" x="50" y="-637.8" font-family="Arial" font-size="14.00" fill="#000000">user2 </text>
<text text-anchor="start" x="88.9102" y="-637.8" font-family="Arial" font-size="14.00" fill="#666666">[char(36)]</text>
</g>
<!-- dm_channel_mappings&#45;&gt;channels -->
<g id="edge1" class="edge">
<title>dm_channel_mappings:channel_id&#45;&gt;channels:id</title>
<path fill="none" stroke="#000000" d="M363.0977,-699.2894C427.712,-689.3339 348.9654,-577.2833 405,-522 482.4889,-445.55 768.1463,-391 877,-391"/>
<polygon fill="#000000" stroke="#000000" points="362.9753,-699.2979 352.684,-695.5111 357.9877,-699.6489 353,-700 353,-700 353,-700 357.9877,-699.6489 353.316,-704.4889 362.9753,-699.2979 362.9753,-699.2979"/>
<text text-anchor="start" x="360.4355" y="-709.5" font-family="Arial" font-size="10.00" fill="#000000">FOREIGN KEY (channel_id) REFERENCES channels (id)</text>
</g>
<!-- messages -->
<g id="node3" class="node">
<title>messages</title>
<polygon fill="#efefef" stroke="transparent" points="458,-775 458,-809 655,-809 655,-775 458,-775"/>
<polygon fill="none" stroke="#000000" points="458,-775 458,-809 655,-809 655,-775 458,-775"/>
<text text-anchor="start" x="464.9829" y="-788.6" font-family="Arial Bold" font-size="18.00" fill="#000000">messages</text>
<text text-anchor="start" x="552.0474" y="-788.6" font-family="Arial" font-size="14.00" fill="#000000"> </text>
<text text-anchor="start" x="555.937" y="-788.6" font-family="Arial" font-size="14.00" fill="#666666">[BASE TABLE]</text>
<polygon fill="none" stroke="#000000" points="458,-745 458,-775 655,-775 655,-745 458,-745"/>
<text text-anchor="start" x="465" y="-757.8" font-family="Arial" font-size="14.00" fill="#000000">id </text>
<text text-anchor="start" x="479.7861" y="-757.8" font-family="Arial" font-size="14.00" fill="#666666">[char(36)]</text>
<polygon fill="none" stroke="#000000" points="458,-715 458,-745 655,-745 655,-715 458,-715"/>
<text text-anchor="start" x="465" y="-727.8" font-family="Arial" font-size="14.00" fill="#000000">user_id </text>
<text text-anchor="start" x="514.8066" y="-727.8" font-family="Arial" font-size="14.00" fill="#666666">[char(36)]</text>
<polygon fill="none" stroke="#000000" points="458,-685 458,-715 655,-715 655,-685 458,-685"/>
<text text-anchor="start" x="465" y="-697.8" font-family="Arial" font-size="14.00" fill="#000000">channel_id </text>
<text text-anchor="start" x="536.6133" y="-697.8" font-family="Arial" font-size="14.00" fill="#666666">[char(36)]</text>
<polygon fill="none" stroke="#000000" points="458,-655 458,-685 655,-685 655,-655 458,-655"/>
<text text-anchor="start" x="465" y="-667.8" font-family="Arial" font-size="14.00" fill="#000000">text </text>
<text text-anchor="start" x="491.4551" y="-667.8" font-family="Arial" font-size="14.00" fill="#666666">[text]</text>
<polygon fill="none" stroke="#000000" points="458,-625 458,-655 655,-655 655,-625 458,-625"/>
<text text-anchor="start" x="465" y="-637.8" font-family="Arial" font-size="14.00" fill="#000000">created_at </text>
<text text-anchor="start" x="535.0479" y="-637.8" font-family="Arial" font-size="14.00" fill="#666666">[timestamp(6)]</text>
<polygon fill="none" stroke="#000000" points="458,-595 458,-625 655,-625 655,-595 458,-595"/>
<text text-anchor="start" x="465" y="-607.8" font-family="Arial" font-size="14.00" fill="#000000">updated_at </text>
<text text-anchor="start" x="538.958" y="-607.8" font-family="Arial" font-size="14.00" fill="#666666">[timestamp(6)]</text>
<polygon fill="none" stroke="#000000" points="458,-565 458,-595 655,-595 655,-565 458,-565"/>
<text text-anchor="start" x="465" y="-577.8" font-family="Arial" font-size="14.00" fill="#000000">deleted_at </text>
<text text-anchor="start" x="534.2822" y="-577.8" font-family="Arial" font-size="14.00" fill="#666666">[timestamp(6)]</text>
</g>
<!-- messages&#45;&gt;channels -->
<g id="edge2" class="edge">
<title>messages:channel_id&#45;&gt;channels:id</title>
<path fill="none" stroke="#000000" d="M665.1682,-699.3482C730.7576,-690.2069 662.6035,-587.0005 707,-522 760.7988,-443.2335 781.6141,-391 877,-391"/>
<polygon fill="#000000" stroke="#000000" points="664.9795,-699.3602 654.7121,-695.5092 659.9898,-699.6801 655,-700 655,-700 655,-700 659.9898,-699.6801 655.2879,-704.4908 664.9795,-699.3602 664.9795,-699.3602"/>
<text text-anchor="start" x="662.4355" y="-709.5" font-family="Arial" font-size="10.00" fill="#000000">FOREIGN KEY (channel_id) REFERENCES channels (id)</text>
</g>
<!-- mutes -->
<g id="node4" class="node">
<title>mutes</title>
<polygon fill="#efefef" stroke="transparent" points="759,-700 759,-734 921,-734 921,-700 759,-700"/>
<polygon fill="none" stroke="#000000" points="759,-700 759,-734 921,-734 921,-700 759,-700"/>
<text text-anchor="start" x="765.5073" y="-713.6" font-family="Arial Bold" font-size="18.00" fill="#000000">mutes</text>
<text text-anchor="start" x="818.5229" y="-713.6" font-family="Arial" font-size="14.00" fill="#000000"> </text>
<text text-anchor="start" x="822.4126" y="-713.6" font-family="Arial" font-size="14.00" fill="#666666">[BASE TABLE]</text>
<polygon fill="none" stroke="#000000" points="759,-670 759,-700 921,-700 921,-670 759,-670"/>
<text text-anchor="start" x="766" y="-682.8" font-family="Arial" font-size="14.00" fill="#000000">user_id </text>
<text text-anchor="start" x="815.8066" y="-682.8" font-family="Arial" font-size="14.00" fill="#666666">[char(36)]</text>
<polygon fill="none" stroke="#000000" points="759,-640 759,-670 921,-670 921,-640 759,-640"/>
<text text-anchor="start" x="766" y="-652.8" font-family="Arial" font-size="14.00" fill="#000000">channel_id </text>
<text text-anchor="start" x="837.6133" y="-652.8" font-family="Arial" font-size="14.00" fill="#666666">[char(36)]</text>
</g>
<!-- mutes&#45;&gt;channels -->
<g id="edge3" class="edge">
<title>mutes:channel_id&#45;&gt;channels:id</title>
<path fill="none" stroke="#000000" d="M931.0018,-654.2427C1022.7243,-638.7578 761.7654,-391 877,-391"/>
<polygon fill="#000000" stroke="#000000" points="930.9715,-654.2449 920.6602,-650.5128 925.9857,-654.6224 921,-655 921,-655 921,-655 925.9857,-654.6224 921.3398,-659.4872 930.9715,-654.2449 930.9715,-654.2449"/>
<text text-anchor="start" x="657.4355" y="-664.5" font-family="Arial" font-size="10.00" fill="#000000">FOREIGN KEY (channel_id) REFERENCES channels (id)</text>
</g>
<!-- stars -->
<g id="node5" class="node">
<title>stars</title>
<polygon fill="#efefef" stroke="transparent" points="1026,-700 1026,-734 1179,-734 1179,-700 1026,-700"/>
<polygon fill="none" stroke="#000000" points="1026,-700 1026,-734 1179,-734 1179,-700 1026,-700"/>
<text text-anchor="start" x="1032.9995" y="-713.6" font-family="Arial Bold" font-size="18.00" fill="#000000">stars</text>
<text text-anchor="start" x="1076.0308" y="-713.6" font-family="Arial" font-size="14.00" fill="#000000"> </text>
<text text-anchor="start" x="1079.9204" y="-713.6" font-family="Arial" font-size="14.00" fill="#666666">[BASE TABLE]</text>
<polygon fill="none" stroke="#000000" points="1026,-670 1026,-700 1179,-700 1179,-670 1026,-670"/>
<text text-anchor="start" x="1033" y="-682.8" font-family="Arial" font-size="14.00" fill="#000000">user_id </text>
<text text-anchor="start" x="1082.8066" y="-682.8" font-family="Arial" font-size="14.00" fill="#666666">[char(36)]</text>
<polygon fill="none" stroke="#000000" points="1026,-640 1026,-670 1179,-670 1179,-640 1026,-640"/>
<text text-anchor="start" x="1033" y="-652.8" font-family="Arial" font-size="14.00" fill="#000000">channel_id </text>
<text text-anchor="start" x="1104.6133" y="-652.8" font-family="Arial" font-size="14.00" fill="#666666">[char(36)]</text>
</g>
<!-- stars&#45;&gt;channels -->
<g id="edge4" class="edge">
<title>stars:channel_id&#45;&gt;channels:id</title>
<path fill="none" stroke="#000000" d="M1016.0158,-654.2427C924.2658,-638.7578 1178.8381,-391 1064,-391"/>
<polygon fill="#000000" stroke="#000000" points="1016.0286,-654.2436 1025.6596,-659.4871 1021.0143,-654.6218 1026,-655 1026,-655 1026,-655 1021.0143,-654.6218 1026.3404,-650.5129 1016.0286,-654.2436 1016.0286,-654.2436"/>
<text text-anchor="start" x="830.1855" y="-639.5" font-family="Arial" font-size="10.00" fill="#000000">FOREIGN KEY (channel_id) REFERENCES channels (id)</text>
</g>
<!-- users_private_channels -->
<g id="node6" class="node">
<title>users_private_channels</title>
<polygon fill="#efefef" stroke="transparent" points="1283,-700 1283,-734 1598,-734 1598,-700 1283,-700"/>
<polygon fill="none" stroke="#000000" points="1283,-700 1283,-734 1598,-734 1598,-700 1283,-700"/>
<text text-anchor="start" x="1289.96" y="-713.6" font-family="Arial Bold" font-size="18.00" fill="#000000">users_private_channels</text>
<text text-anchor="start" x="1495.0703" y="-713.6" font-family="Arial" font-size="14.00" fill="#000000"> </text>
<text text-anchor="start" x="1498.96" y="-713.6" font-family="Arial" font-size="14.00" fill="#666666">[BASE TABLE]</text>
<polygon fill="none" stroke="#000000" points="1283,-670 1283,-700 1598,-700 1598,-670 1283,-670"/>
<text text-anchor="start" x="1290" y="-682.8" font-family="Arial" font-size="14.00" fill="#000000">user_id </text>
<text text-anchor="start" x="1339.8066" y="-682.8" font-family="Arial" font-size="14.00" fill="#666666">[char(36)]</text>
<polygon fill="none" stroke="#000000" points="1283,-640 1283,-670 1598,-670 1598,-640 1283,-640"/>
<text text-anchor="start" x="1290" y="-652.8" font-family="Arial" font-size="14.00" fill="#000000">channel_id </text>
<text text-anchor="start" x="1361.6133" y="-652.8" font-family="Arial" font-size="14.00" fill="#666666">[char(36)]</text>
</g>
<!-- users_private_channels&#45;&gt;channels -->
<g id="edge5" class="edge">
<title>users_private_channels:channel_id&#45;&gt;channels:id</title>
<path fill="none" stroke="#000000" d="M1272.965,-654.1776C1225.0129,-645.4904 1266.6421,-569.9548 1231,-522 1174.728,-446.2885 1158.3333,-391 1064,-391"/>
<polygon fill="#000000" stroke="#000000" points="1273.0334,-654.1831 1282.6324,-659.485 1278.0167,-654.5915 1283,-655 1283,-655 1283,-655 1278.0167,-654.5915 1283.3676,-650.515 1273.0334,-654.1831 1273.0334,-654.1831"/>
<text text-anchor="start" x="1290.4355" y="-664.5" font-family="Arial" font-size="10.00" fill="#000000">FOREIGN KEY (channel_id) REFERENCES channels (id)</text>
</g>
<!-- users_subscribe_channels -->
<g id="node7" class="node">
<title>users_subscribe_channels</title>
<polygon fill="#efefef" stroke="transparent" points="1702,-700 1702,-734 2043,-734 2043,-700 1702,-700"/>
<polygon fill="none" stroke="#000000" points="1702,-700 1702,-734 2043,-734 2043,-700 1702,-700"/>
<text text-anchor="start" x="1708.9565" y="-713.6" font-family="Arial Bold" font-size="18.00" fill="#000000">users_subscribe_channels</text>
<text text-anchor="start" x="1940.0737" y="-713.6" font-family="Arial" font-size="14.00" fill="#000000"> </text>
<text text-anchor="start" x="1943.9634" y="-713.6" font-family="Arial" font-size="14.00" fill="#666666">[BASE TABLE]</text>
<polygon fill="none" stroke="#000000" points="1702,-670 1702,-700 2043,-700 2043,-670 1702,-670"/>
<text text-anchor="start" x="1709" y="-682.8" font-family="Arial" font-size="14.00" fill="#000000">user_id </text>
<text text-anchor="start" x="1758.8066" y="-682.8" font-family="Arial" font-size="14.00" fill="#666666">[char(36)]</text>
<polygon fill="none" stroke="#000000" points="1702,-640 1702,-670 2043,-670 2043,-640 1702,-640"/>
<text text-anchor="start" x="1709" y="-652.8" font-family="Arial" font-size="14.00" fill="#000000">channel_id </text>
<text text-anchor="start" x="1780.6133" y="-652.8" font-family="Arial" font-size="14.00" fill="#666666">[char(36)]</text>
</g>
<!-- users_subscribe_channels&#45;&gt;channels -->
<g id="edge6" class="edge">
<title>users_subscribe_channels:channel_id&#45;&gt;channels:id</title>
<path fill="none" stroke="#000000" d="M1691.7742,-654.0233C1645.3585,-644.0831 1695.2562,-560.8214 1650,-522 1548.7211,-435.1216 1197.4364,-391 1064,-391"/>
<polygon fill="#000000" stroke="#000000" points="1692.0453,-654.0491 1701.5721,-659.4796 1697.0227,-654.5245 1702,-655 1702,-655 1702,-655 1697.0227,-654.5245 1702.4279,-650.5204 1692.0453,-654.0491 1692.0453,-654.0491"/>
<text text-anchor="start" x="1709.4355" y="-664.5" font-family="Arial" font-size="10.00" fill="#000000">FOREIGN KEY (channel_id) REFERENCES channels (id)</text>
</g>
</g>
</svg>
