<?xml version="1.0" encoding="UTF-8" standalone="no"?>
<!DOCTYPE svg PUBLIC "-//W3C//DTD SVG 1.1//EN"
 "http://www.w3.org/Graphics/SVG/1.1/DTD/svg11.dtd">
<!-- Generated by graphviz version 2.40.1 (20161225.0304)
 -->
<!-- Title: channel_events Pages: 1 -->
<svg width="570pt" height="800pt"
     viewBox="0.00 0.00 569.50 800.00" xmlns="http://www.w3.org/2000/svg">
<g id="graph0" class="graph" transform="scale(1 1) rotate(0) translate(4 796)">
<title>channel_events</title>
<polygon fill="#ffffff" stroke="transparent" points="-4,4 -4,-796 565.5,-796 565.5,4 -4,4"/>
<!-- channel_events -->
<g id="node1" class="node">
<title>channel_events</title>
<polygon fill="#efefef" stroke="transparent" points="271,-712 271,-746 516,-746 516,-712 271,-712"/>
<polygon fill="none" stroke="#000000" points="271,-712 271,-746 516,-746 516,-712 271,-712"/>
<text text-anchor="start" x="277.9844" y="-725.6" font-family="Arial Bold" font-size="18.00" fill="#000000">channel_events</text>
<text text-anchor="start" x="413.0459" y="-725.6" font-family="Arial" font-size="14.00" fill="#000000"> </text>
<text text-anchor="start" x="416.9355" y="-725.6" font-family="Arial" font-size="14.00" fill="#666666">[BASE TABLE]</text>
<polygon fill="none" stroke="#000000" points="271,-682 271,-712 516,-712 516,-682 271,-682"/>
<text text-anchor="start" x="278" y="-694.8" font-family="Arial" font-size="14.00" fill="#000000">event_id </text>
<text text-anchor="start" x="334.8203" y="-694.8" font-family="Arial" font-size="14.00" fill="#666666">[char(36)]</text>
<polygon fill="none" stroke="#000000" points="271,-652 271,-682 516,-682 516,-652 271,-652"/>
<text text-anchor="start" x="278" y="-664.8" font-family="Arial" font-size="14.00" fill="#000000">channel_id </text>
<text text-anchor="start" x="349.6133" y="-664.8" font-family="Arial" font-size="14.00" fill="#666666">[char(36)]</text>
<polygon fill="none" stroke="#000000" points="271,-622 271,-652 516,-652 516,-622 271,-622"/>
<text text-anchor="start" x="278" y="-634.8" font-family="Arial" font-size="14.00" fill="#000000">event_type </text>
<text text-anchor="start" x="350.3857" y="-634.8" font-family="Arial" font-size="14.00" fill="#666666">[varchar(30)]</text>
<polygon fill="none" stroke="#000000" points="271,-592 271,-622 516,-622 516,-592 271,-592"/>
<text text-anchor="start" x="278" y="-604.8" font-family="Arial" font-size="14.00" fill="#000000">detail </text>
<text text-anchor="start" x="315.3584" y="-604.8" font-family="Arial" font-size="14.00" fill="#666666">[text]</text>
<polygon fill="none" stroke="#000000" points="271,-562 271,-592 516,-592 516,-562 271,-562"/>
<text text-anchor="start" x="278" y="-574.8" font-family="Arial" font-size="14.00" fill="#000000">date_time </text>
<text text-anchor="start" x="343.3721" y="-574.8" font-family="Arial" font-size="14.00" fill="#666666">[timestamp(6)]</text>
<polygon fill="none" stroke="#000000" stroke-width="3" points="269,-560.5 269,-747.5 517,-747.5 517,-560.5 269,-560.5"/>
</g>
<!-- channels -->
<g id="node2" class="node">
<title>channels</title>
<polygon fill="#efefef" stroke="transparent" points="300,-403 300,-437 487,-437 487,-403 300,-403"/>
<polygon fill="none" stroke="#000000" points="300,-403 300,-437 487,-437 487,-403 300,-403"/>
<text text-anchor="start" x="306.5005" y="-416.6" font-family="Arial Bold" font-size="18.00" fill="#000000">channels</text>
<text text-anchor="start" x="384.5298" y="-416.6" font-family="Arial" font-size="14.00" fill="#000000"> </text>
<text text-anchor="start" x="388.4194" y="-416.6" font-family="Arial" font-size="14.00" fill="#666666">[BASE TABLE]</text>
<polygon fill="none" stroke="#000000" points="300,-373 300,-403 487,-403 487,-373 300,-373"/>
<text text-anchor="start" x="307" y="-385.8" font-family="Arial" font-size="14.00" fill="#000000">id </text>
<text text-anchor="start" x="321.7861" y="-385.8" font-family="Arial" font-size="14.00" fill="#666666">[char(36)]</text>
<polygon fill="none" stroke="#000000" points="300,-343 300,-373 487,-373 487,-343 300,-343"/>
<text text-anchor="start" x="307" y="-355.8" font-family="Arial" font-size="14.00" fill="#000000">name </text>
<text text-anchor="start" x="345.9102" y="-355.8" font-family="Arial" font-size="14.00" fill="#666666">[varchar(20)]</text>
<polygon fill="none" stroke="#000000" points="300,-313 300,-343 487,-343 487,-313 300,-313"/>
<text text-anchor="start" x="307" y="-325.8" font-family="Arial" font-size="14.00" fill="#000000">parent_id </text>
<text text-anchor="start" x="369.2686" y="-325.8" font-family="Arial" font-size="14.00" fill="#666666">[char(36)]</text>
<polygon fill="none" stroke="#000000" points="300,-283 300,-313 487,-313 487,-283 300,-283"/>
<text text-anchor="start" x="307" y="-295.8" font-family="Arial" font-size="14.00" fill="#000000">topic </text>
<text text-anchor="start" x="340.4619" y="-295.8" font-family="Arial" font-size="14.00" fill="#666666">[text]</text>
<polygon fill="none" stroke="#000000" points="300,-253 300,-283 487,-283 487,-253 300,-253"/>
<text text-anchor="start" x="307" y="-265.8" font-family="Arial" font-size="14.00" fill="#000000">is_forced </text>
<text text-anchor="start" x="367.6963" y="-265.8" font-family="Arial" font-size="14.00" fill="#666666">[tinyint(1)]</text>
<polygon fill="none" stroke="#000000" points="300,-223 300,-253 487,-253 487,-223 300,-223"/>
<text text-anchor="start" x="307" y="-235.8" font-family="Arial" font-size="14.00" fill="#000000">is_public </text>
<text text-anchor="start" x="365.3652" y="-235.8" font-family="Arial" font-size="14.00" fill="#666666">[tinyint(1)]</text>
<polygon fill="none" stroke="#000000" points="300,-193 300,-223 487,-223 487,-193 300,-193"/>
<text text-anchor="start" x="307" y="-205.8" font-family="Arial" font-size="14.00" fill="#000000">is_visible </text>
<text text-anchor="start" x="367.6895" y="-205.8" font-family="Arial" font-size="14.00" fill="#666666">[tinyint(1)]</text>
<polygon fill="none" stroke="#000000" points="300,-163 300,-193 487,-193 487,-163 300,-163"/>
<text text-anchor="start" x="307" y="-175.8" font-family="Arial" font-size="14.00" fill="#000000">creator_id </text>
<text text-anchor="start" x="373.1445" y="-175.8" font-family="Arial" font-size="14.00" fill="#666666">[char(36)]</text>
<polygon fill="none" stroke="#000000" points="300,-133 300,-163 487,-163 487,-133 300,-133"/>
<text text-anchor="start" x="307" y="-145.8" font-family="Arial" font-size="14.00" fill="#000000">updater_id </text>
<text text-anchor="start" x="377.0547" y="-145.8" font-family="Arial" font-size="14.00" fill="#666666">[char(36)]</text>
<polygon fill="none" stroke="#000000" points="300,-103 300,-133 487,-133 487,-103 300,-103"/>
<text text-anchor="start" x="307" y="-115.8" font-family="Arial" font-size="14.00" fill="#000000">created_at </text>
<text text-anchor="start" x="377.0479" y="-115.8" font-family="Arial" font-size="14.00" fill="#666666">[timestamp(6)]</text>
<polygon fill="none" stroke="#000000" points="300,-73 300,-103 487,-103 487,-73 300,-73"/>
<text text-anchor="start" x="307" y="-85.8" font-family="Arial" font-size="14.00" fill="#000000">updated_at </text>
<text text-anchor="start" x="380.958" y="-85.8" font-family="Arial" font-size="14.00" fill="#666666">[timestamp(6)]</text>
<polygon fill="none" stroke="#000000" points="300,-43 300,-73 487,-73 487,-43 300,-43"/>
<text text-anchor="start" x="307" y="-55.8" font-family="Arial" font-size="14.00" fill="#000000">deleted_at </text>
<text text-anchor="start" x="376.2822" y="-55.8" font-family="Arial" font-size="14.00" fill="#666666">[timestamp(6)]</text>
</g>
<!-- channel_events&#45;&gt;channels -->
<g id="edge1" class="edge">
<title>channel_events:channel_id&#45;&gt;channels:id</title>
<path fill="none" stroke="#000000" d="M261.2766,-664.4162C212.0581,-636.2896 241.1966,-388 300,-388"/>
<polygon fill="#000000" stroke="#000000" points="261.3354,-664.4317 269.8443,-671.3491 266.1677,-665.7159 271,-667 271,-667 271,-667 266.1677,-665.7159 272.1557,-662.6509 261.3354,-664.4317 261.3354,-664.4317"/>
<text text-anchor="start" x="7.4355" y="-676.5" font-family="Arial" font-size="10.00" fill="#000000">FOREIGN KEY (channel_id) REFERENCES channels (id)</text>
</g>
</g>
</svg>
