<?xml version="1.0" encoding="UTF-8" standalone="no"?>
<!DOCTYPE svg PUBLIC "-//W3C//DTD SVG 1.1//EN"
        "http://www.w3.org/Graphics/SVG/1.1/DTD/svg11.dtd">
<!-- Generated by graphviz version 2.40.1 (20161225.0304)
 -->
<!-- Title: channel_latest_messages Pages: 1 -->
<svg width="432pt" height="224pt"
     viewBox="0.00 0.00 432.00 224.00" xmlns="http://www.w3.org/2000/svg">
    <g id="graph0" class="graph" transform="scale(1 1) rotate(0) translate(4 220)">
        <title>channel_latest_messages</title>
        <polygon fill="#ffffff" stroke="transparent" points="-4,4 -4,-220 428,-220 428,4 -4,4"/>
        <!-- channel_latest_messages -->
        <g id="node1" class="node">
            <title>channel_latest_messages</title>
            <polygon fill="#efefef" stroke="transparent" points="46,-136 46,-170 378,-170 378,-136 46,-136"/>
            <polygon fill="none" stroke="#000000" points="46,-136 46,-170 378,-170 378,-136 46,-136"/>
            <text text-anchor="start" x="52.9521" y="-149.6" font-family="Arial Bold" font-size="18.00" fill="#000000">
                channel_latest_messages
            </text>
            <text text-anchor="start" x="275.0781" y="-149.6" font-family="Arial" font-size="14.00"
                  fill="#000000"></text>
            <text text-anchor="start" x="278.9678" y="-149.6" font-family="Arial" font-size="14.00" fill="#666666">[BASE
                TABLE]
            </text>
            <polygon fill="none" stroke="#000000" points="46,-106 46,-136 378,-136 378,-106 46,-106"/>
            <text text-anchor="start" x="53" y="-118.8" font-family="Arial" font-size="14.00" fill="#000000">
                channel_id
            </text>
            <text text-anchor="start" x="124.6133" y="-118.8" font-family="Arial" font-size="14.00" fill="#666666">
                [char(36)]
            </text>
            <polygon fill="none" stroke="#000000" points="46,-76 46,-106 378,-106 378,-76 46,-76"/>
            <text text-anchor="start" x="53" y="-88.8" font-family="Arial" font-size="14.00" fill="#000000">message_id
            </text>
            <text text-anchor="start" x="132.3789" y="-88.8" font-family="Arial" font-size="14.00" fill="#666666">
                [char(36)]
            </text>
            <polygon fill="none" stroke="#000000" points="46,-46 46,-76 378,-76 378,-46 46,-46"/>
            <text text-anchor="start" x="53" y="-58.8" font-family="Arial" font-size="14.00" fill="#000000">date_time
            </text>
            <text text-anchor="start" x="118.3721" y="-58.8" font-family="Arial" font-size="14.00" fill="#666666">
                [timestamp(6)]
            </text>
            <polygon fill="none" stroke="#000000" stroke-width="3"
                     points="44.5,-44.5 44.5,-171.5 379.5,-171.5 379.5,-44.5 44.5,-44.5"/>
        </g>
    </g>
</svg>
