<?xml version="1.0" encoding="UTF-8" standalone="no"?>
<!DOCTYPE svg PUBLIC "-//W3C//DTD SVG 1.1//EN"
 "http://www.w3.org/Graphics/SVG/1.1/DTD/svg11.dtd">
<!-- Generated by graphviz version 2.40.1 (20161225.0304)
 -->
<!-- Title: channels Pages: 1 -->
<svg width="2515pt" height="1460pt"
     viewBox="0.00 0.00 2515.00 1460.00" xmlns="http://www.w3.org/2000/svg">
<g id="graph0" class="graph" transform="scale(1 1) rotate(0) translate(4 1456)">
<title>channels</title>
<polygon fill="#ffffff" stroke="transparent" points="-4,4 -4,-1456 2511,-1456 2511,4 -4,4"/>
<!-- channels -->
<g id="node1" class="node">
<title>channels</title>
<polygon fill="#efefef" stroke="transparent" points="1091.5,-949 1091.5,-983 1278.5,-983 1278.5,-949 1091.5,-949"/>
<polygon fill="none" stroke="#000000" points="1091.5,-949 1091.5,-983 1278.5,-983 1278.5,-949 1091.5,-949"/>
<text text-anchor="start" x="1098.0005" y="-962.6" font-family="Arial Bold" font-size="18.00" fill="#000000">channels</text>
<text text-anchor="start" x="1176.0298" y="-962.6" font-family="Arial" font-size="14.00" fill="#000000"> </text>
<text text-anchor="start" x="1179.9194" y="-962.6" font-family="Arial" font-size="14.00" fill="#666666">[BASE TABLE]</text>
<polygon fill="none" stroke="#000000" points="1091.5,-919 1091.5,-949 1278.5,-949 1278.5,-919 1091.5,-919"/>
<text text-anchor="start" x="1098.5" y="-931.8" font-family="Arial" font-size="14.00" fill="#000000">id </text>
<text text-anchor="start" x="1113.2861" y="-931.8" font-family="Arial" font-size="14.00" fill="#666666">[char(36)]</text>
<polygon fill="none" stroke="#000000" points="1091.5,-889 1091.5,-919 1278.5,-919 1278.5,-889 1091.5,-889"/>
<text text-anchor="start" x="1098.5" y="-901.8" font-family="Arial" font-size="14.00" fill="#000000">name </text>
<text text-anchor="start" x="1137.4102" y="-901.8" font-family="Arial" font-size="14.00" fill="#666666">[varchar(20)]</text>
<polygon fill="none" stroke="#000000" points="1091.5,-859 1091.5,-889 1278.5,-889 1278.5,-859 1091.5,-859"/>
<text text-anchor="start" x="1098.5" y="-871.8" font-family="Arial" font-size="14.00" fill="#000000">parent_id </text>
<text text-anchor="start" x="1160.7686" y="-871.8" font-family="Arial" font-size="14.00" fill="#666666">[char(36)]</text>
<polygon fill="none" stroke="#000000" points="1091.5,-829 1091.5,-859 1278.5,-859 1278.5,-829 1091.5,-829"/>
<text text-anchor="start" x="1098.5" y="-841.8" font-family="Arial" font-size="14.00" fill="#000000">topic </text>
<text text-anchor="start" x="1131.9619" y="-841.8" font-family="Arial" font-size="14.00" fill="#666666">[text]</text>
<polygon fill="none" stroke="#000000" points="1091.5,-799 1091.5,-829 1278.5,-829 1278.5,-799 1091.5,-799"/>
<text text-anchor="start" x="1098.5" y="-811.8" font-family="Arial" font-size="14.00" fill="#000000">is_forced </text>
<text text-anchor="start" x="1159.1963" y="-811.8" font-family="Arial" font-size="14.00" fill="#666666">[tinyint(1)]</text>
<polygon fill="none" stroke="#000000" points="1091.5,-769 1091.5,-799 1278.5,-799 1278.5,-769 1091.5,-769"/>
<text text-anchor="start" x="1098.5" y="-781.8" font-family="Arial" font-size="14.00" fill="#000000">is_public </text>
<text text-anchor="start" x="1156.8652" y="-781.8" font-family="Arial" font-size="14.00" fill="#666666">[tinyint(1)]</text>
<polygon fill="none" stroke="#000000" points="1091.5,-739 1091.5,-769 1278.5,-769 1278.5,-739 1091.5,-739"/>
<text text-anchor="start" x="1098.5" y="-751.8" font-family="Arial" font-size="14.00" fill="#000000">is_visible </text>
<text text-anchor="start" x="1159.1895" y="-751.8" font-family="Arial" font-size="14.00" fill="#666666">[tinyint(1)]</text>
<polygon fill="none" stroke="#000000" points="1091.5,-709 1091.5,-739 1278.5,-739 1278.5,-709 1091.5,-709"/>
<text text-anchor="start" x="1098.5" y="-721.8" font-family="Arial" font-size="14.00" fill="#000000">creator_id </text>
<text text-anchor="start" x="1164.6445" y="-721.8" font-family="Arial" font-size="14.00" fill="#666666">[char(36)]</text>
<polygon fill="none" stroke="#000000" points="1091.5,-679 1091.5,-709 1278.5,-709 1278.5,-679 1091.5,-679"/>
<text text-anchor="start" x="1098.5" y="-691.8" font-family="Arial" font-size="14.00" fill="#000000">updater_id </text>
<text text-anchor="start" x="1168.5547" y="-691.8" font-family="Arial" font-size="14.00" fill="#666666">[char(36)]</text>
<polygon fill="none" stroke="#000000" points="1091.5,-649 1091.5,-679 1278.5,-679 1278.5,-649 1091.5,-649"/>
<text text-anchor="start" x="1098.5" y="-661.8" font-family="Arial" font-size="14.00" fill="#000000">created_at </text>
<text text-anchor="start" x="1168.5479" y="-661.8" font-family="Arial" font-size="14.00" fill="#666666">[timestamp(6)]</text>
<polygon fill="none" stroke="#000000" points="1091.5,-619 1091.5,-649 1278.5,-649 1278.5,-619 1091.5,-619"/>
<text text-anchor="start" x="1098.5" y="-631.8" font-family="Arial" font-size="14.00" fill="#000000">updated_at </text>
<text text-anchor="start" x="1172.458" y="-631.8" font-family="Arial" font-size="14.00" fill="#666666">[timestamp(6)]</text>
<polygon fill="none" stroke="#000000" points="1091.5,-589 1091.5,-619 1278.5,-619 1278.5,-589 1091.5,-589"/>
<text text-anchor="start" x="1098.5" y="-601.8" font-family="Arial" font-size="14.00" fill="#000000">deleted_at </text>
<text text-anchor="start" x="1167.7822" y="-601.8" font-family="Arial" font-size="14.00" fill="#666666">[timestamp(6)]</text>
</g>
<!-- channels&#45;&gt;channels -->
<g id="edge8" class="edge">
<title>channels:parent_id&#45;&gt;channels:id</title>
<path fill="none" stroke="#000000" stroke-dasharray="5,2" d="M1186.8325,-899.2597C1194.4756,-1055.5237 1194.0314,-1261 1185.5,-1261 1176.79,-1261 1176.5093,-1103.0293 1184.6579,-949.3338"/>
<polygon fill="#000000" stroke="#000000" points="1186.8209,-899.028 1190.8117,-888.8141 1186.5692,-894.0343 1186.3174,-889.0407 1186.3174,-889.0407 1186.3174,-889.0407 1186.5692,-894.0343 1181.8231,-889.2673 1186.8209,-899.028 1186.8209,-899.028"/>
<text text-anchor="start" x="1096.623" y="-898.5407" font-family="Arial" font-size="10.00" fill="#000000">Additional Relation</text>
</g>
<!-- users -->
<g id="node9" class="node">
<title>users</title>
<polygon fill="#efefef" stroke="transparent" points="1093.5,-433 1093.5,-467 1276.5,-467 1276.5,-433 1093.5,-433"/>
<polygon fill="none" stroke="#000000" points="1093.5,-433 1093.5,-467 1276.5,-467 1276.5,-433 1093.5,-433"/>
<text text-anchor="start" x="1112.999" y="-446.6" font-family="Arial Bold" font-size="18.00" fill="#000000">users</text>
<text text-anchor="start" x="1161.0313" y="-446.6" font-family="Arial" font-size="14.00" fill="#000000"> </text>
<text text-anchor="start" x="1164.9209" y="-446.6" font-family="Arial" font-size="14.00" fill="#666666">[BASE TABLE]</text>
<polygon fill="none" stroke="#000000" points="1093.5,-403 1093.5,-433 1276.5,-433 1276.5,-403 1093.5,-403"/>
<text text-anchor="start" x="1100.5" y="-415.8" font-family="Arial" font-size="14.00" fill="#000000">id </text>
<text text-anchor="start" x="1115.2861" y="-415.8" font-family="Arial" font-size="14.00" fill="#666666">[char(36)]</text>
<polygon fill="none" stroke="#000000" points="1093.5,-373 1093.5,-403 1276.5,-403 1276.5,-373 1093.5,-373"/>
<text text-anchor="start" x="1100.5" y="-385.8" font-family="Arial" font-size="14.00" fill="#000000">name </text>
<text text-anchor="start" x="1139.4102" y="-385.8" font-family="Arial" font-size="14.00" fill="#666666">[varchar(32)]</text>
<polygon fill="none" stroke="#000000" points="1093.5,-343 1093.5,-373 1276.5,-373 1276.5,-343 1093.5,-343"/>
<text text-anchor="start" x="1100.1831" y="-355.8" font-family="Arial" font-size="14.00" fill="#000000">display_name </text>
<text text-anchor="start" x="1190.4585" y="-355.8" font-family="Arial" font-size="14.00" fill="#666666">[varchar(64)]</text>
<polygon fill="none" stroke="#000000" points="1093.5,-313 1093.5,-343 1276.5,-343 1276.5,-313 1093.5,-313"/>
<text text-anchor="start" x="1100.5" y="-325.8" font-family="Arial" font-size="14.00" fill="#000000">password </text>
<text text-anchor="start" x="1164.3066" y="-325.8" font-family="Arial" font-size="14.00" fill="#666666">[char(128)]</text>
<polygon fill="none" stroke="#000000" points="1093.5,-283 1093.5,-313 1276.5,-313 1276.5,-283 1093.5,-283"/>
<text text-anchor="start" x="1100.5" y="-295.8" font-family="Arial" font-size="14.00" fill="#000000">salt </text>
<text text-anchor="start" x="1126.1758" y="-295.8" font-family="Arial" font-size="14.00" fill="#666666">[char(128)]</text>
<polygon fill="none" stroke="#000000" points="1093.5,-253 1093.5,-283 1276.5,-283 1276.5,-253 1093.5,-253"/>
<text text-anchor="start" x="1100.5" y="-265.8" font-family="Arial" font-size="14.00" fill="#000000">icon </text>
<text text-anchor="start" x="1130.0723" y="-265.8" font-family="Arial" font-size="14.00" fill="#666666">[char(36)]</text>
<polygon fill="none" stroke="#000000" points="1093.5,-223 1093.5,-253 1276.5,-253 1276.5,-223 1093.5,-223"/>
<text text-anchor="start" x="1100.5" y="-235.8" font-family="Arial" font-size="14.00" fill="#000000">status </text>
<text text-anchor="start" x="1141.7412" y="-235.8" font-family="Arial" font-size="14.00" fill="#666666">[tinyint(4)]</text>
<polygon fill="none" stroke="#000000" points="1093.5,-193 1093.5,-223 1276.5,-223 1276.5,-193 1093.5,-193"/>
<text text-anchor="start" x="1100.5" y="-205.8" font-family="Arial" font-size="14.00" fill="#000000">bot </text>
<text text-anchor="start" x="1123.8516" y="-205.8" font-family="Arial" font-size="14.00" fill="#666666">[tinyint(1)]</text>
<polygon fill="none" stroke="#000000" points="1093.5,-163 1093.5,-193 1276.5,-193 1276.5,-163 1093.5,-163"/>
<text text-anchor="start" x="1100.5" y="-175.8" font-family="Arial" font-size="14.00" fill="#000000">role </text>
<text text-anchor="start" x="1127.7344" y="-175.8" font-family="Arial" font-size="14.00" fill="#666666">[varchar(30)]</text>
<polygon fill="none" stroke="#000000" points="1093.5,-133 1093.5,-163 1276.5,-163 1276.5,-133 1093.5,-133"/>
<text text-anchor="start" x="1100.5" y="-145.8" font-family="Arial" font-size="14.00" fill="#000000">twitter_id </text>
<text text-anchor="start" x="1160.4102" y="-145.8" font-family="Arial" font-size="14.00" fill="#666666">[varchar(15)]</text>
<polygon fill="none" stroke="#000000" points="1093.5,-103 1093.5,-133 1276.5,-133 1276.5,-103 1093.5,-103"/>
<text text-anchor="start" x="1100.5" y="-115.8" font-family="Arial" font-size="14.00" fill="#000000">last_online </text>
<text text-anchor="start" x="1171.3271" y="-115.8" font-family="Arial" font-size="14.00" fill="#666666">[timestamp(6)]</text>
<polygon fill="none" stroke="#000000" points="1093.5,-73 1093.5,-103 1276.5,-103 1276.5,-73 1093.5,-73"/>
<text text-anchor="start" x="1100.5" y="-85.8" font-family="Arial" font-size="14.00" fill="#000000">created_at </text>
<text text-anchor="start" x="1170.5479" y="-85.8" font-family="Arial" font-size="14.00" fill="#666666">[timestamp(6)]</text>
<polygon fill="none" stroke="#000000" points="1093.5,-43 1093.5,-73 1276.5,-73 1276.5,-43 1093.5,-43"/>
<text text-anchor="start" x="1100.5" y="-55.8" font-family="Arial" font-size="14.00" fill="#000000">updated_at </text>
<text text-anchor="start" x="1174.458" y="-55.8" font-family="Arial" font-size="14.00" fill="#666666">[timestamp(6)]</text>
</g>
<!-- channels&#45;&gt;users -->
<g id="edge9" class="edge">
<title>channels:creator_id&#45;&gt;users:id</title>
<path fill="none" stroke="#000000" stroke-dasharray="5,2" d="M1081.4072,-723.4182C955.685,-708.6582 960.9503,-418 1093.5,-418"/>
<polygon fill="#000000" stroke="#000000" points="1081.5166,-723.4244 1091.241,-728.4925 1086.5083,-723.7122 1091.5,-724 1091.5,-724 1091.5,-724 1086.5083,-723.7122 1091.759,-719.5075 1081.5166,-723.4244 1081.5166,-723.4244"/>
<text text-anchor="start" x="1001.8057" y="-733.5" font-family="Arial" font-size="10.00" fill="#000000">Additional Relation</text>
</g>
<!-- channel_events -->
<g id="node2" class="node">
<title>channel_events</title>
<polygon fill="#efefef" stroke="transparent" points="43.5,-1315 43.5,-1349 288.5,-1349 288.5,-1315 43.5,-1315"/>
<polygon fill="none" stroke="#000000" points="43.5,-1315 43.5,-1349 288.5,-1349 288.5,-1315 43.5,-1315"/>
<text text-anchor="start" x="50.4844" y="-1328.6" font-family="Arial Bold" font-size="18.00" fill="#000000">channel_events</text>
<text text-anchor="start" x="185.5459" y="-1328.6" font-family="Arial" font-size="14.00" fill="#000000"> </text>
<text text-anchor="start" x="189.4355" y="-1328.6" font-family="Arial" font-size="14.00" fill="#666666">[BASE TABLE]</text>
<polygon fill="none" stroke="#000000" points="43.5,-1285 43.5,-1315 288.5,-1315 288.5,-1285 43.5,-1285"/>
<text text-anchor="start" x="50.5" y="-1297.8" font-family="Arial" font-size="14.00" fill="#000000">event_id </text>
<text text-anchor="start" x="107.3203" y="-1297.8" font-family="Arial" font-size="14.00" fill="#666666">[char(36)]</text>
<polygon fill="none" stroke="#000000" points="43.5,-1255 43.5,-1285 288.5,-1285 288.5,-1255 43.5,-1255"/>
<text text-anchor="start" x="50.5" y="-1267.8" font-family="Arial" font-size="14.00" fill="#000000">channel_id </text>
<text text-anchor="start" x="122.1133" y="-1267.8" font-family="Arial" font-size="14.00" fill="#666666">[char(36)]</text>
<polygon fill="none" stroke="#000000" points="43.5,-1225 43.5,-1255 288.5,-1255 288.5,-1225 43.5,-1225"/>
<text text-anchor="start" x="50.5" y="-1237.8" font-family="Arial" font-size="14.00" fill="#000000">event_type </text>
<text text-anchor="start" x="122.8857" y="-1237.8" font-family="Arial" font-size="14.00" fill="#666666">[varchar(30)]</text>
<polygon fill="none" stroke="#000000" points="43.5,-1195 43.5,-1225 288.5,-1225 288.5,-1195 43.5,-1195"/>
<text text-anchor="start" x="50.5" y="-1207.8" font-family="Arial" font-size="14.00" fill="#000000">detail </text>
<text text-anchor="start" x="87.8584" y="-1207.8" font-family="Arial" font-size="14.00" fill="#666666">[text]</text>
<polygon fill="none" stroke="#000000" points="43.5,-1165 43.5,-1195 288.5,-1195 288.5,-1165 43.5,-1165"/>
<text text-anchor="start" x="50.5" y="-1177.8" font-family="Arial" font-size="14.00" fill="#000000">date_time </text>
<text text-anchor="start" x="115.8721" y="-1177.8" font-family="Arial" font-size="14.00" fill="#666666">[timestamp(6)]</text>
</g>
<!-- channel_events&#45;&gt;channels -->
<g id="edge1" class="edge">
<title>channel_events:channel_id&#45;&gt;channels:id</title>
<path fill="none" stroke="#000000" d="M298.7358,-1269.3575C375.2263,-1258.9296 273.334,-1124.2359 340.5,-1062 464.6808,-946.9343 922.2044,-934 1091.5,-934"/>
<polygon fill="#000000" stroke="#000000" points="298.4804,-1269.3735 288.2181,-1265.5088 293.4902,-1269.6867 288.5,-1270 288.5,-1270 288.5,-1270 293.4902,-1269.6867 288.7819,-1274.4912 298.4804,-1269.3735 298.4804,-1269.3735"/>
<text text-anchor="start" x="160.4355" y="-1254.5" font-family="Arial" font-size="10.00" fill="#000000">FOREIGN KEY (channel_id) REFERENCES channels (id)</text>
</g>
<!-- dm_channel_mappings -->
<g id="node3" class="node">
<title>dm_channel_mappings</title>
<polygon fill="#efefef" stroke="transparent" points="392.5,-1285 392.5,-1319 702.5,-1319 702.5,-1285 392.5,-1285"/>
<polygon fill="none" stroke="#000000" points="392.5,-1285 392.5,-1319 702.5,-1319 702.5,-1285 392.5,-1285"/>
<text text-anchor="start" x="399.4912" y="-1298.6" font-family="Arial Bold" font-size="18.00" fill="#000000">dm_channel_mappings</text>
<text text-anchor="start" x="599.5391" y="-1298.6" font-family="Arial" font-size="14.00" fill="#000000"> </text>
<text text-anchor="start" x="603.4287" y="-1298.6" font-family="Arial" font-size="14.00" fill="#666666">[BASE TABLE]</text>
<polygon fill="none" stroke="#000000" points="392.5,-1255 392.5,-1285 702.5,-1285 702.5,-1255 392.5,-1255"/>
<text text-anchor="start" x="399.5" y="-1267.8" font-family="Arial" font-size="14.00" fill="#000000">channel_id </text>
<text text-anchor="start" x="471.1133" y="-1267.8" font-family="Arial" font-size="14.00" fill="#666666">[char(36)]</text>
<polygon fill="none" stroke="#000000" points="392.5,-1225 392.5,-1255 702.5,-1255 702.5,-1225 392.5,-1225"/>
<text text-anchor="start" x="399.5" y="-1237.8" font-family="Arial" font-size="14.00" fill="#000000">user1 </text>
<text text-anchor="start" x="438.4102" y="-1237.8" font-family="Arial" font-size="14.00" fill="#666666">[char(36)]</text>
<polygon fill="none" stroke="#000000" points="392.5,-1195 392.5,-1225 702.5,-1225 702.5,-1195 392.5,-1195"/>
<text text-anchor="start" x="399.5" y="-1207.8" font-family="Arial" font-size="14.00" fill="#000000">user2 </text>
<text text-anchor="start" x="438.4102" y="-1207.8" font-family="Arial" font-size="14.00" fill="#666666">[char(36)]</text>
</g>
<!-- dm_channel_mappings&#45;&gt;channels -->
<g id="edge2" class="edge">
<title>dm_channel_mappings:channel_id&#45;&gt;channels:id</title>
<path fill="none" stroke="#000000" d="M712.7648,-1269.386C789.7223,-1259.4153 693.6831,-1130.4535 754.5,-1062 860.9129,-942.2251 931.2822,-934 1091.5,-934"/>
<polygon fill="#000000" stroke="#000000" points="712.4822,-1269.4028 702.2313,-1265.508 707.4911,-1269.7014 702.5,-1270 702.5,-1270 702.5,-1270 707.4911,-1269.7014 702.7687,-1274.492 712.4822,-1269.4028 712.4822,-1269.4028"/>
<text text-anchor="start" x="574.4355" y="-1254.5" font-family="Arial" font-size="10.00" fill="#000000">FOREIGN KEY (channel_id) REFERENCES channels (id)</text>
</g>
<!-- messages -->
<g id="node4" class="node">
<title>messages</title>
<polygon fill="#efefef" stroke="transparent" points="807.5,-1345 807.5,-1379 1004.5,-1379 1004.5,-1345 807.5,-1345"/>
<polygon fill="none" stroke="#000000" points="807.5,-1345 807.5,-1379 1004.5,-1379 1004.5,-1345 807.5,-1345"/>
<text text-anchor="start" x="814.4829" y="-1358.6" font-family="Arial Bold" font-size="18.00" fill="#000000">messages</text>
<text text-anchor="start" x="901.5474" y="-1358.6" font-family="Arial" font-size="14.00" fill="#000000"> </text>
<text text-anchor="start" x="905.437" y="-1358.6" font-family="Arial" font-size="14.00" fill="#666666">[BASE TABLE]</text>
<polygon fill="none" stroke="#000000" points="807.5,-1315 807.5,-1345 1004.5,-1345 1004.5,-1315 807.5,-1315"/>
<text text-anchor="start" x="814.5" y="-1327.8" font-family="Arial" font-size="14.00" fill="#000000">id </text>
<text text-anchor="start" x="829.2861" y="-1327.8" font-family="Arial" font-size="14.00" fill="#666666">[char(36)]</text>
<polygon fill="none" stroke="#000000" points="807.5,-1285 807.5,-1315 1004.5,-1315 1004.5,-1285 807.5,-1285"/>
<text text-anchor="start" x="814.5" y="-1297.8" font-family="Arial" font-size="14.00" fill="#000000">user_id </text>
<text text-anchor="start" x="864.3066" y="-1297.8" font-family="Arial" font-size="14.00" fill="#666666">[char(36)]</text>
<polygon fill="none" stroke="#000000" points="807.5,-1255 807.5,-1285 1004.5,-1285 1004.5,-1255 807.5,-1255"/>
<text text-anchor="start" x="814.5" y="-1267.8" font-family="Arial" font-size="14.00" fill="#000000">channel_id </text>
<text text-anchor="start" x="886.1133" y="-1267.8" font-family="Arial" font-size="14.00" fill="#666666">[char(36)]</text>
<polygon fill="none" stroke="#000000" points="807.5,-1225 807.5,-1255 1004.5,-1255 1004.5,-1225 807.5,-1225"/>
<text text-anchor="start" x="814.5" y="-1237.8" font-family="Arial" font-size="14.00" fill="#000000">text </text>
<text text-anchor="start" x="840.9551" y="-1237.8" font-family="Arial" font-size="14.00" fill="#666666">[text]</text>
<polygon fill="none" stroke="#000000" points="807.5,-1195 807.5,-1225 1004.5,-1225 1004.5,-1195 807.5,-1195"/>
<text text-anchor="start" x="814.5" y="-1207.8" font-family="Arial" font-size="14.00" fill="#000000">created_at </text>
<text text-anchor="start" x="884.5479" y="-1207.8" font-family="Arial" font-size="14.00" fill="#666666">[timestamp(6)]</text>
<polygon fill="none" stroke="#000000" points="807.5,-1165 807.5,-1195 1004.5,-1195 1004.5,-1165 807.5,-1165"/>
<text text-anchor="start" x="814.5" y="-1177.8" font-family="Arial" font-size="14.00" fill="#000000">updated_at </text>
<text text-anchor="start" x="888.458" y="-1177.8" font-family="Arial" font-size="14.00" fill="#666666">[timestamp(6)]</text>
<polygon fill="none" stroke="#000000" points="807.5,-1135 807.5,-1165 1004.5,-1165 1004.5,-1135 807.5,-1135"/>
<text text-anchor="start" x="814.5" y="-1147.8" font-family="Arial" font-size="14.00" fill="#000000">deleted_at </text>
<text text-anchor="start" x="883.7822" y="-1147.8" font-family="Arial" font-size="14.00" fill="#666666">[timestamp(6)]</text>
</g>
<!-- messages&#45;&gt;channels -->
<g id="edge3" class="edge">
<title>messages:channel_id&#45;&gt;channels:id</title>
<path fill="none" stroke="#000000" d="M1014.4242,-1267.8544C1075.6409,-1239.2383 1017.9864,-934 1091.5,-934"/>
<polygon fill="#000000" stroke="#000000" points="1014.2742,-1267.8867 1003.549,-1265.6016 1009.3871,-1268.9434 1004.5,-1270 1004.5,-1270 1004.5,-1270 1009.3871,-1268.9434 1005.451,-1274.3984 1014.2742,-1267.8867 1014.2742,-1267.8867"/>
<text text-anchor="start" x="1011.9355" y="-1279.5" font-family="Arial" font-size="10.00" fill="#000000">FOREIGN KEY (channel_id) REFERENCES channels (id)</text>
</g>
<!-- stars -->
<g id="node5" class="node">
<title>stars</title>
<polygon fill="#efefef" stroke="transparent" points="1108.5,-1270 1108.5,-1304 1261.5,-1304 1261.5,-1270 1108.5,-1270"/>
<polygon fill="none" stroke="#000000" points="1108.5,-1270 1108.5,-1304 1261.5,-1304 1261.5,-1270 1108.5,-1270"/>
<text text-anchor="start" x="1115.4995" y="-1283.6" font-family="Arial Bold" font-size="18.00" fill="#000000">stars</text>
<text text-anchor="start" x="1158.5308" y="-1283.6" font-family="Arial" font-size="14.00" fill="#000000"> </text>
<text text-anchor="start" x="1162.4204" y="-1283.6" font-family="Arial" font-size="14.00" fill="#666666">[BASE TABLE]</text>
<polygon fill="none" stroke="#000000" points="1108.5,-1240 1108.5,-1270 1261.5,-1270 1261.5,-1240 1108.5,-1240"/>
<text text-anchor="start" x="1115.5" y="-1252.8" font-family="Arial" font-size="14.00" fill="#000000">user_id </text>
<text text-anchor="start" x="1165.3066" y="-1252.8" font-family="Arial" font-size="14.00" fill="#666666">[char(36)]</text>
<polygon fill="none" stroke="#000000" points="1108.5,-1210 1108.5,-1240 1261.5,-1240 1261.5,-1210 1108.5,-1210"/>
<text text-anchor="start" x="1115.5" y="-1222.8" font-family="Arial" font-size="14.00" fill="#000000">channel_id </text>
<text text-anchor="start" x="1187.1133" y="-1222.8" font-family="Arial" font-size="14.00" fill="#666666">[char(36)]</text>
</g>
<!-- stars&#45;&gt;channels -->
<g id="edge4" class="edge">
<title>stars:channel_id&#45;&gt;channels:id</title>
<path fill="none" stroke="#000000" d="M1185.1913,-1199.8849C1180.0504,-1117.8235 1112.1669,-1111.8821 1091.5,-1026 1081.9335,-986.246 1050.6111,-934 1091.5,-934"/>
<polygon fill="#000000" stroke="#000000" points="1185.1948,-1200.0047 1181.0021,-1210.1373 1185.3474,-1205.0023 1185.5,-1210 1185.5,-1210 1185.5,-1210 1185.3474,-1205.0023 1189.9979,-1209.8627 1185.1948,-1200.0047 1185.1948,-1200.0047"/>
<text text-anchor="start" x="1057.4355" y="-1194.5" font-family="Arial" font-size="10.00" fill="#000000">FOREIGN KEY (channel_id) REFERENCES channels (id)</text>
</g>
<!-- users_private_channels -->
<g id="node6" class="node">
<title>users_private_channels</title>
<polygon fill="#efefef" stroke="transparent" points="1365.5,-1270 1365.5,-1304 1680.5,-1304 1680.5,-1270 1365.5,-1270"/>
<polygon fill="none" stroke="#000000" points="1365.5,-1270 1365.5,-1304 1680.5,-1304 1680.5,-1270 1365.5,-1270"/>
<text text-anchor="start" x="1372.46" y="-1283.6" font-family="Arial Bold" font-size="18.00" fill="#000000">users_private_channels</text>
<text text-anchor="start" x="1577.5703" y="-1283.6" font-family="Arial" font-size="14.00" fill="#000000"> </text>
<text text-anchor="start" x="1581.46" y="-1283.6" font-family="Arial" font-size="14.00" fill="#666666">[BASE TABLE]</text>
<polygon fill="none" stroke="#000000" points="1365.5,-1240 1365.5,-1270 1680.5,-1270 1680.5,-1240 1365.5,-1240"/>
<text text-anchor="start" x="1372.5" y="-1252.8" font-family="Arial" font-size="14.00" fill="#000000">user_id </text>
<text text-anchor="start" x="1422.3066" y="-1252.8" font-family="Arial" font-size="14.00" fill="#666666">[char(36)]</text>
<polygon fill="none" stroke="#000000" points="1365.5,-1210 1365.5,-1240 1680.5,-1240 1680.5,-1210 1365.5,-1210"/>
<text text-anchor="start" x="1372.5" y="-1222.8" font-family="Arial" font-size="14.00" fill="#000000">channel_id </text>
<text text-anchor="start" x="1444.1133" y="-1222.8" font-family="Arial" font-size="14.00" fill="#666666">[char(36)]</text>
</g>
<!-- users_private_channels&#45;&gt;channels -->
<g id="edge5" class="edge">
<title>users_private_channels:channel_id&#45;&gt;channels:id</title>
<path fill="none" stroke="#000000" d="M1355.7517,-1222.6576C1302.7454,-1195.1178 1342.4356,-934 1278.5,-934"/>
<polygon fill="#000000" stroke="#000000" points="1355.7768,-1222.6636 1364.4486,-1229.3755 1360.6384,-1223.8318 1365.5,-1225 1365.5,-1225 1365.5,-1225 1360.6384,-1223.8318 1366.5514,-1220.6245 1355.7768,-1222.6636 1355.7768,-1222.6636"/>
<text text-anchor="start" x="1101.9355" y="-1234.5" font-family="Arial" font-size="10.00" fill="#000000">FOREIGN KEY (channel_id) REFERENCES channels (id)</text>
</g>
<!-- users_subscribe_channels -->
<g id="node7" class="node">
<title>users_subscribe_channels</title>
<polygon fill="#efefef" stroke="transparent" points="1784.5,-1270 1784.5,-1304 2125.5,-1304 2125.5,-1270 1784.5,-1270"/>
<polygon fill="none" stroke="#000000" points="1784.5,-1270 1784.5,-1304 2125.5,-1304 2125.5,-1270 1784.5,-1270"/>
<text text-anchor="start" x="1791.4565" y="-1283.6" font-family="Arial Bold" font-size="18.00" fill="#000000">users_subscribe_channels</text>
<text text-anchor="start" x="2022.5737" y="-1283.6" font-family="Arial" font-size="14.00" fill="#000000"> </text>
<text text-anchor="start" x="2026.4634" y="-1283.6" font-family="Arial" font-size="14.00" fill="#666666">[BASE TABLE]</text>
<polygon fill="none" stroke="#000000" points="1784.5,-1240 1784.5,-1270 2125.5,-1270 2125.5,-1240 1784.5,-1240"/>
<text text-anchor="start" x="1791.5" y="-1252.8" font-family="Arial" font-size="14.00" fill="#000000">user_id </text>
<text text-anchor="start" x="1841.3066" y="-1252.8" font-family="Arial" font-size="14.00" fill="#666666">[char(36)]</text>
<polygon fill="none" stroke="#000000" points="1784.5,-1210 1784.5,-1240 2125.5,-1240 2125.5,-1210 1784.5,-1210"/>
<text text-anchor="start" x="1791.5" y="-1222.8" font-family="Arial" font-size="14.00" fill="#000000">channel_id </text>
<text text-anchor="start" x="1863.1133" y="-1222.8" font-family="Arial" font-size="14.00" fill="#666666">[char(36)]</text>
</g>
<!-- users_subscribe_channels&#45;&gt;channels -->
<g id="edge6" class="edge">
<title>users_subscribe_channels:channel_id&#45;&gt;channels:id</title>
<path fill="none" stroke="#000000" d="M1774.4345,-1224.2316C1715.8277,-1214.3795 1784.5062,-1112.2671 1732.5,-1062 1657.1301,-989.1506 1383.322,-934 1278.5,-934"/>
<polygon fill="#000000" stroke="#000000" points="1774.529,-1224.2387 1784.1574,-1229.4869 1779.5145,-1224.6194 1784.5,-1225 1784.5,-1225 1784.5,-1225 1779.5145,-1224.6194 1784.8426,-1220.5131 1774.529,-1224.2387 1774.529,-1224.2387"/>
<text text-anchor="start" x="1520.9355" y="-1234.5" font-family="Arial" font-size="10.00" fill="#000000">FOREIGN KEY (channel_id) REFERENCES channels (id)</text>
</g>
<!-- webhook_bots -->
<g id="node8" class="node">
<title>webhook_bots</title>
<polygon fill="#efefef" stroke="transparent" points="2229.5,-1375 2229.5,-1409 2464.5,-1409 2464.5,-1375 2229.5,-1375"/>
<polygon fill="none" stroke="#000000" points="2229.5,-1375 2229.5,-1409 2464.5,-1409 2464.5,-1375 2229.5,-1375"/>
<text text-anchor="start" x="2236.0107" y="-1388.6" font-family="Arial Bold" font-size="18.00" fill="#000000">webhook_bots</text>
<text text-anchor="start" x="2362.0195" y="-1388.6" font-family="Arial" font-size="14.00" fill="#000000"> </text>
<text text-anchor="start" x="2365.9092" y="-1388.6" font-family="Arial" font-size="14.00" fill="#666666">[BASE TABLE]</text>
<polygon fill="none" stroke="#000000" points="2229.5,-1345 2229.5,-1375 2464.5,-1375 2464.5,-1345 2229.5,-1345"/>
<text text-anchor="start" x="2236.5" y="-1357.8" font-family="Arial" font-size="14.00" fill="#000000">id </text>
<text text-anchor="start" x="2251.2861" y="-1357.8" font-family="Arial" font-size="14.00" fill="#666666">[char(36)]</text>
<polygon fill="none" stroke="#000000" points="2229.5,-1315 2229.5,-1345 2464.5,-1345 2464.5,-1315 2229.5,-1315"/>
<text text-anchor="start" x="2236.5" y="-1327.8" font-family="Arial" font-size="14.00" fill="#000000">bot_user_id </text>
<text text-anchor="start" x="2313.5547" y="-1327.8" font-family="Arial" font-size="14.00" fill="#666666">[char(36)]</text>
<polygon fill="none" stroke="#000000" points="2229.5,-1285 2229.5,-1315 2464.5,-1315 2464.5,-1285 2229.5,-1285"/>
<text text-anchor="start" x="2236.5" y="-1297.8" font-family="Arial" font-size="14.00" fill="#000000">description </text>
<text text-anchor="start" x="2308.0928" y="-1297.8" font-family="Arial" font-size="14.00" fill="#666666">[text]</text>
<polygon fill="none" stroke="#000000" points="2229.5,-1255 2229.5,-1285 2464.5,-1285 2464.5,-1255 2229.5,-1255"/>
<text text-anchor="start" x="2236.5" y="-1267.8" font-family="Arial" font-size="14.00" fill="#000000">secret </text>
<text text-anchor="start" x="2278.5137" y="-1267.8" font-family="Arial" font-size="14.00" fill="#666666">[text]</text>
<polygon fill="none" stroke="#000000" points="2229.5,-1225 2229.5,-1255 2464.5,-1255 2464.5,-1225 2229.5,-1225"/>
<text text-anchor="start" x="2236.5" y="-1237.8" font-family="Arial" font-size="14.00" fill="#000000">channel_id </text>
<text text-anchor="start" x="2308.1133" y="-1237.8" font-family="Arial" font-size="14.00" fill="#666666">[char(36)]</text>
<polygon fill="none" stroke="#000000" points="2229.5,-1195 2229.5,-1225 2464.5,-1225 2464.5,-1195 2229.5,-1195"/>
<text text-anchor="start" x="2236.5" y="-1207.8" font-family="Arial" font-size="14.00" fill="#000000">creator_id </text>
<text text-anchor="start" x="2302.6445" y="-1207.8" font-family="Arial" font-size="14.00" fill="#666666">[char(36)]</text>
<polygon fill="none" stroke="#000000" points="2229.5,-1165 2229.5,-1195 2464.5,-1195 2464.5,-1165 2229.5,-1165"/>
<text text-anchor="start" x="2236.5" y="-1177.8" font-family="Arial" font-size="14.00" fill="#000000">created_at </text>
<text text-anchor="start" x="2306.5479" y="-1177.8" font-family="Arial" font-size="14.00" fill="#666666">[timestamp(6)]</text>
<polygon fill="none" stroke="#000000" points="2229.5,-1135 2229.5,-1165 2464.5,-1165 2464.5,-1135 2229.5,-1135"/>
<text text-anchor="start" x="2236.5" y="-1147.8" font-family="Arial" font-size="14.00" fill="#000000">updated_at </text>
<text text-anchor="start" x="2310.458" y="-1147.8" font-family="Arial" font-size="14.00" fill="#666666">[timestamp(6)]</text>
<polygon fill="none" stroke="#000000" points="2229.5,-1105 2229.5,-1135 2464.5,-1135 2464.5,-1105 2229.5,-1105"/>
<text text-anchor="start" x="2236.5" y="-1117.8" font-family="Arial" font-size="14.00" fill="#000000">deleted_at </text>
<text text-anchor="start" x="2305.7822" y="-1117.8" font-family="Arial" font-size="14.00" fill="#666666">[timestamp(6)]</text>
</g>
<!-- webhook_bots&#45;&gt;channels -->
<g id="edge7" class="edge">
<title>webhook_bots:channel_id&#45;&gt;channels:id</title>
<path fill="none" stroke="#000000" d="M2219.4232,-1239.2667C2155.0984,-1228.9983 2236.989,-1113.5478 2177.5,-1062 2101.2478,-995.9268 1379.3963,-934 1278.5,-934"/>
<polygon fill="#000000" stroke="#000000" points="2219.5264,-1239.2742 2229.1734,-1244.4881 2224.5132,-1239.6371 2229.5,-1240 2229.5,-1240 2229.5,-1240 2224.5132,-1239.6371 2229.8266,-1235.5119 2219.5264,-1239.2742 2219.5264,-1239.2742"/>
<text text-anchor="start" x="1965.9355" y="-1249.5" font-family="Arial" font-size="10.00" fill="#000000">FOREIGN KEY (channel_id) REFERENCES channels (id)</text>
</g>
</g>
</svg>
