<?xml version="1.0" encoding="UTF-8" standalone="no"?>
<!DOCTYPE svg PUBLIC "-//W3C//DTD SVG 1.1//EN"
 "http://www.w3.org/Graphics/SVG/1.1/DTD/svg11.dtd">
<!-- Generated by graphviz version 2.40.1 (20161225.0304)
 -->
<!-- Title: channels Pages: 1 -->
<svg width="3072pt" height="1469pt"
 viewBox="0.00 0.00 3072.00 1469.00" xmlns="http://www.w3.org/2000/svg" xmlns:xlink="http://www.w3.org/1999/xlink">
<g id="graph0" class="graph" transform="scale(1 1) rotate(0) translate(4 1465)">
<title>channels</title>
<polygon fill="#ffffff" stroke="transparent" points="-4,4 -4,-1465 3068,-1465 3068,4 -4,4"/>
<!-- channels -->
<g id="node1" class="node">
<title>channels</title>
<polygon fill="#efefef" stroke="transparent" points="1370.5,-892.5 1370.5,-927.5 1553.5,-927.5 1553.5,-892.5 1370.5,-892.5"/>
<polygon fill="none" stroke="#000000" points="1370.5,-892.5 1370.5,-927.5 1553.5,-927.5 1553.5,-892.5 1370.5,-892.5"/>
<text text-anchor="start" x="1377.3605" y="-905.3" font-family="Arial Bold" font-size="18.00" fill="#000000">channels</text>
<text text-anchor="start" x="1449.3857" y="-905.3" font-family="Arial" font-size="14.00" fill="#000000"> </text>
<text text-anchor="start" x="1453.2763" y="-905.3" font-family="Arial" font-size="14.00" fill="#666666">[BASE TABLE]</text>
<polygon fill="none" stroke="#000000" points="1370.5,-862.5 1370.5,-892.5 1553.5,-892.5 1553.5,-862.5 1370.5,-862.5"/>
<text text-anchor="start" x="1377.5" y="-873.9" font-family="Arial" font-size="14.00" fill="#000000">id </text>
<text text-anchor="start" x="1392.2798" y="-873.9" font-family="Arial" font-size="14.00" fill="#666666">[char(36)]</text>
<polygon fill="none" stroke="#000000" points="1370.5,-832.5 1370.5,-862.5 1553.5,-862.5 1553.5,-832.5 1370.5,-832.5"/>
<text text-anchor="start" x="1377.5" y="-843.9" font-family="Arial" font-size="14.00" fill="#000000">name </text>
<text text-anchor="start" x="1416.399" y="-843.9" font-family="Arial" font-size="14.00" fill="#666666">[varchar(20)]</text>
<polygon fill="none" stroke="#000000" points="1370.5,-802.5 1370.5,-832.5 1553.5,-832.5 1553.5,-802.5 1370.5,-802.5"/>
<text text-anchor="start" x="1377.5" y="-813.9" font-family="Arial" font-size="14.00" fill="#000000">parent_id </text>
<text text-anchor="start" x="1439.744" y="-813.9" font-family="Arial" font-size="14.00" fill="#666666">[char(36)]</text>
<polygon fill="none" stroke="#000000" points="1370.5,-772.5 1370.5,-802.5 1553.5,-802.5 1553.5,-772.5 1370.5,-772.5"/>
<text text-anchor="start" x="1377.5" y="-783.9" font-family="Arial" font-size="14.00" fill="#000000">topic </text>
<text text-anchor="start" x="1410.953" y="-783.9" font-family="Arial" font-size="14.00" fill="#666666">[text]</text>
<polygon fill="none" stroke="#000000" points="1370.5,-742.5 1370.5,-772.5 1553.5,-772.5 1553.5,-742.5 1370.5,-742.5"/>
<text text-anchor="start" x="1377.5" y="-753.9" font-family="Arial" font-size="14.00" fill="#000000">is_forced </text>
<text text-anchor="start" x="1438.1788" y="-753.9" font-family="Arial" font-size="14.00" fill="#666666">[tinyint(1)]</text>
<polygon fill="none" stroke="#000000" points="1370.5,-712.5 1370.5,-742.5 1553.5,-742.5 1553.5,-712.5 1370.5,-712.5"/>
<text text-anchor="start" x="1377.5" y="-723.9" font-family="Arial" font-size="14.00" fill="#000000">is_public </text>
<text text-anchor="start" x="1435.8408" y="-723.9" font-family="Arial" font-size="14.00" fill="#666666">[tinyint(1)]</text>
<polygon fill="none" stroke="#000000" points="1370.5,-682.5 1370.5,-712.5 1553.5,-712.5 1553.5,-682.5 1370.5,-682.5"/>
<text text-anchor="start" x="1377.5" y="-693.9" font-family="Arial" font-size="14.00" fill="#000000">is_visible </text>
<text text-anchor="start" x="1438.1648" y="-693.9" font-family="Arial" font-size="14.00" fill="#666666">[tinyint(1)]</text>
<polygon fill="none" stroke="#000000" points="1370.5,-652.5 1370.5,-682.5 1553.5,-682.5 1553.5,-652.5 1370.5,-652.5"/>
<text text-anchor="start" x="1377.5" y="-663.9" font-family="Arial" font-size="14.00" fill="#000000">creator_id </text>
<text text-anchor="start" x="1443.622" y="-663.9" font-family="Arial" font-size="14.00" fill="#666666">[char(36)]</text>
<polygon fill="none" stroke="#000000" points="1370.5,-622.5 1370.5,-652.5 1553.5,-652.5 1553.5,-622.5 1370.5,-622.5"/>
<text text-anchor="start" x="1377.5" y="-633.9" font-family="Arial" font-size="14.00" fill="#000000">updater_id </text>
<text text-anchor="start" x="1447.5266" y="-633.9" font-family="Arial" font-size="14.00" fill="#666666">[char(36)]</text>
<polygon fill="none" stroke="#000000" points="1370.5,-592.5 1370.5,-622.5 1553.5,-622.5 1553.5,-592.5 1370.5,-592.5"/>
<text text-anchor="start" x="1377.5" y="-603.9" font-family="Arial" font-size="14.00" fill="#000000">created_at </text>
<text text-anchor="start" x="1447.528" y="-603.9" font-family="Arial" font-size="14.00" fill="#666666">[datetime(6)]</text>
<polygon fill="none" stroke="#000000" points="1370.5,-562.5 1370.5,-592.5 1553.5,-592.5 1553.5,-562.5 1370.5,-562.5"/>
<text text-anchor="start" x="1377.5" y="-573.9" font-family="Arial" font-size="14.00" fill="#000000">updated_at </text>
<text text-anchor="start" x="1451.4326" y="-573.9" font-family="Arial" font-size="14.00" fill="#666666">[datetime(6)]</text>
<polygon fill="none" stroke="#000000" points="1370.5,-532.5 1370.5,-562.5 1553.5,-562.5 1553.5,-532.5 1370.5,-532.5"/>
<text text-anchor="start" x="1377.5" y="-543.9" font-family="Arial" font-size="14.00" fill="#000000">deleted_at </text>
<text text-anchor="start" x="1446.7566" y="-543.9" font-family="Arial" font-size="14.00" fill="#666666">[datetime(6)]</text>
<polygon fill="none" stroke="#000000" stroke-width="3" points="1368.5,-531.5 1368.5,-929.5 1554.5,-929.5 1554.5,-531.5 1368.5,-531.5"/>
</g>
<!-- channels&#45;&gt;channels -->
<g id="edge10" class="edge">
<title>channels:parent_id&#45;&gt;channels:id</title>
<path fill="none" stroke="#000000" stroke-dasharray="5,2" d="M1463.7864,-842.9039C1471.4774,-1006.4658 1471.0486,-1226 1462.5,-1226 1453.7725,-1226 1453.5082,-1053.5989 1461.7074,-892.5448"/>
<polygon fill="#000000" stroke="#000000" points="1463.7764,-842.6948 1467.7874,-832.4888 1463.5345,-837.7006 1463.2926,-832.7065 1463.2926,-832.7065 1463.2926,-832.7065 1463.5345,-837.7006 1458.7979,-832.9242 1463.7764,-842.6948 1463.7764,-842.6948"/>
<text text-anchor="start" x="1373.6171" y="-842.7065" font-family="Arial" font-size="10.00" fill="#000000">Additional Relation</text>
</g>
<!-- users -->
<g id="node11" class="node">
<title>users</title>
<polygon fill="#efefef" stroke="transparent" points="1370.5,-372.5 1370.5,-407.5 1553.5,-407.5 1553.5,-372.5 1370.5,-372.5"/>
<polygon fill="none" stroke="#000000" points="1370.5,-372.5 1370.5,-407.5 1553.5,-407.5 1553.5,-372.5 1370.5,-372.5"/>
<text text-anchor="start" x="1391.3708" y="-385.3" font-family="Arial Bold" font-size="18.00" fill="#000000">users</text>
<text text-anchor="start" x="1435.3754" y="-385.3" font-family="Arial" font-size="14.00" fill="#000000"> </text>
<text text-anchor="start" x="1439.266" y="-385.3" font-family="Arial" font-size="14.00" fill="#666666">[BASE TABLE]</text>
<polygon fill="none" stroke="#000000" points="1370.5,-342.5 1370.5,-372.5 1553.5,-372.5 1553.5,-342.5 1370.5,-342.5"/>
<text text-anchor="start" x="1377.5" y="-353.9" font-family="Arial" font-size="14.00" fill="#000000">id </text>
<text text-anchor="start" x="1392.2798" y="-353.9" font-family="Arial" font-size="14.00" fill="#666666">[char(36)]</text>
<polygon fill="none" stroke="#000000" points="1370.5,-312.5 1370.5,-342.5 1553.5,-342.5 1553.5,-312.5 1370.5,-312.5"/>
<text text-anchor="start" x="1377.5" y="-323.9" font-family="Arial" font-size="14.00" fill="#000000">name </text>
<text text-anchor="start" x="1416.399" y="-323.9" font-family="Arial" font-size="14.00" fill="#666666">[varchar(32)]</text>
<polygon fill="none" stroke="#000000" points="1370.5,-282.5 1370.5,-312.5 1553.5,-312.5 1553.5,-282.5 1370.5,-282.5"/>
<text text-anchor="start" x="1377.2104" y="-293.9" font-family="Arial" font-size="14.00" fill="#000000">display_name </text>
<text text-anchor="start" x="1467.453" y="-293.9" font-family="Arial" font-size="14.00" fill="#666666">[varchar(32)]</text>
<polygon fill="none" stroke="#000000" points="1370.5,-252.5 1370.5,-282.5 1553.5,-282.5 1553.5,-252.5 1370.5,-252.5"/>
<text text-anchor="start" x="1377.5" y="-263.9" font-family="Arial" font-size="14.00" fill="#000000">password </text>
<text text-anchor="start" x="1441.2882" y="-263.9" font-family="Arial" font-size="14.00" fill="#666666">[char(128)]</text>
<polygon fill="none" stroke="#000000" points="1370.5,-222.5 1370.5,-252.5 1553.5,-252.5 1553.5,-222.5 1370.5,-222.5"/>
<text text-anchor="start" x="1377.5" y="-233.9" font-family="Arial" font-size="14.00" fill="#000000">salt </text>
<text text-anchor="start" x="1403.1704" y="-233.9" font-family="Arial" font-size="14.00" fill="#666666">[char(128)]</text>
<polygon fill="none" stroke="#000000" points="1370.5,-192.5 1370.5,-222.5 1553.5,-222.5 1553.5,-192.5 1370.5,-192.5"/>
<text text-anchor="start" x="1377.5" y="-203.9" font-family="Arial" font-size="14.00" fill="#000000">icon </text>
<text text-anchor="start" x="1407.0624" y="-203.9" font-family="Arial" font-size="14.00" fill="#666666">[char(36)]</text>
<polygon fill="none" stroke="#000000" points="1370.5,-162.5 1370.5,-192.5 1553.5,-192.5 1553.5,-162.5 1370.5,-162.5"/>
<text text-anchor="start" x="1377.5" y="-173.9" font-family="Arial" font-size="14.00" fill="#000000">status </text>
<text text-anchor="start" x="1418.737" y="-173.9" font-family="Arial" font-size="14.00" fill="#666666">[tinyint(4)]</text>
<polygon fill="none" stroke="#000000" points="1370.5,-132.5 1370.5,-162.5 1553.5,-162.5 1553.5,-132.5 1370.5,-132.5"/>
<text text-anchor="start" x="1377.5" y="-143.9" font-family="Arial" font-size="14.00" fill="#000000">bot </text>
<text text-anchor="start" x="1400.8464" y="-143.9" font-family="Arial" font-size="14.00" fill="#666666">[tinyint(1)]</text>
<polygon fill="none" stroke="#000000" points="1370.5,-102.5 1370.5,-132.5 1553.5,-132.5 1553.5,-102.5 1370.5,-102.5"/>
<text text-anchor="start" x="1377.5" y="-113.9" font-family="Arial" font-size="14.00" fill="#000000">role </text>
<text text-anchor="start" x="1404.723" y="-113.9" font-family="Arial" font-size="14.00" fill="#666666">[varchar(30)]</text>
<polygon fill="none" stroke="#000000" points="1370.5,-72.5 1370.5,-102.5 1553.5,-102.5 1553.5,-72.5 1370.5,-72.5"/>
<text text-anchor="start" x="1377.5" y="-83.9" font-family="Arial" font-size="14.00" fill="#000000">created_at </text>
<text text-anchor="start" x="1447.528" y="-83.9" font-family="Arial" font-size="14.00" fill="#666666">[datetime(6)]</text>
<polygon fill="none" stroke="#000000" points="1370.5,-42.5 1370.5,-72.5 1553.5,-72.5 1553.5,-42.5 1370.5,-42.5"/>
<text text-anchor="start" x="1377.5" y="-53.9" font-family="Arial" font-size="14.00" fill="#000000">updated_at </text>
<text text-anchor="start" x="1451.4326" y="-53.9" font-family="Arial" font-size="14.00" fill="#666666">[datetime(6)]</text>
</g>
<!-- channels&#45;&gt;users -->
<g id="edge11" class="edge">
<title>channels:creator_id&#45;&gt;users:id</title>
<path fill="none" stroke="#000000" stroke-dasharray="5,2" d="M1360.2717,-666.9106C1232.811,-651.9577 1236.2205,-357.5 1370.5,-357.5"/>
<polygon fill="#000000" stroke="#000000" points="1360.5166,-666.9246 1370.2411,-671.9925 1365.5083,-667.2123 1370.5,-667.5 1370.5,-667.5 1370.5,-667.5 1365.5083,-667.2123 1370.7589,-663.0075 1360.5166,-666.9246 1360.5166,-666.9246"/>
<text text-anchor="start" x="1280.8245" y="-677.5" font-family="Arial" font-size="10.00" fill="#000000">Additional Relation</text>
</g>
<!-- channel_events -->
<g id="node2" class="node">
<title>channel_events</title>
<polygon fill="#efefef" stroke="transparent" points="43.5,-1292.5 43.5,-1327.5 280.5,-1327.5 280.5,-1292.5 43.5,-1292.5"/>
<polygon fill="none" stroke="#000000" points="43.5,-1292.5 43.5,-1327.5 280.5,-1327.5 280.5,-1292.5 43.5,-1292.5"/>
<text text-anchor="start" x="50.347" y="-1305.3" font-family="Arial Bold" font-size="18.00" fill="#000000">channel_events</text>
<text text-anchor="start" x="176.3992" y="-1305.3" font-family="Arial" font-size="14.00" fill="#000000"> </text>
<text text-anchor="start" x="180.2898" y="-1305.3" font-family="Arial" font-size="14.00" fill="#666666">[BASE TABLE]</text>
<polygon fill="none" stroke="#000000" points="43.5,-1262.5 43.5,-1292.5 280.5,-1292.5 280.5,-1262.5 43.5,-1262.5"/>
<text text-anchor="start" x="50.5" y="-1273.9" font-family="Arial" font-size="14.00" fill="#000000">event_id </text>
<text text-anchor="start" x="107.3008" y="-1273.9" font-family="Arial" font-size="14.00" fill="#666666">[char(36)]</text>
<polygon fill="none" stroke="#000000" points="43.5,-1232.5 43.5,-1262.5 280.5,-1262.5 280.5,-1232.5 43.5,-1232.5"/>
<text text-anchor="start" x="50.5" y="-1243.9" font-family="Arial" font-size="14.00" fill="#000000">channel_id </text>
<text text-anchor="start" x="122.082" y="-1243.9" font-family="Arial" font-size="14.00" fill="#666666">[char(36)]</text>
<polygon fill="none" stroke="#000000" points="43.5,-1202.5 43.5,-1232.5 280.5,-1232.5 280.5,-1202.5 43.5,-1202.5"/>
<text text-anchor="start" x="50.5" y="-1213.9" font-family="Arial" font-size="14.00" fill="#000000">event_type </text>
<text text-anchor="start" x="122.8674" y="-1213.9" font-family="Arial" font-size="14.00" fill="#666666">[varchar(30)]</text>
<polygon fill="none" stroke="#000000" points="43.5,-1172.5 43.5,-1202.5 280.5,-1202.5 280.5,-1172.5 43.5,-1172.5"/>
<text text-anchor="start" x="50.5" y="-1183.9" font-family="Arial" font-size="14.00" fill="#000000">detail </text>
<text text-anchor="start" x="87.8422" y="-1183.9" font-family="Arial" font-size="14.00" fill="#666666">[text]</text>
<polygon fill="none" stroke="#000000" points="43.5,-1142.5 43.5,-1172.5 280.5,-1172.5 280.5,-1142.5 43.5,-1142.5"/>
<text text-anchor="start" x="50.5" y="-1153.9" font-family="Arial" font-size="14.00" fill="#000000">date_time </text>
<text text-anchor="start" x="115.852" y="-1153.9" font-family="Arial" font-size="14.00" fill="#666666">[datetime(6)]</text>
</g>
<!-- channel_events&#45;&gt;channels -->
<g id="edge1" class="edge">
<title>channel_events:channel_id&#45;&gt;channels:id</title>
<path fill="none" stroke="#000000" d="M290.732,-1246.9338C379.3854,-1236.3645 254.7139,-1080.5442 331.5,-1010 417.2022,-931.2644 1254.1206,-877.5 1370.5,-877.5"/>
<polygon fill="#000000" stroke="#000000" points="290.4847,-1246.9474 280.2513,-1243.0069 285.4924,-1247.2237 280.5,-1247.5 280.5,-1247.5 280.5,-1247.5 285.4924,-1247.2237 280.7487,-1251.9931 290.4847,-1246.9474 290.4847,-1246.9474"/>
<text text-anchor="start" x="152.378" y="-1231.5" font-family="Arial" font-size="10.00" fill="#000000">FOREIGN KEY (channel_id) REFERENCES channels (id)</text>
</g>
<!-- dm_channel_mappings -->
<g id="node3" class="node">
<title>dm_channel_mappings</title>
<polygon fill="#efefef" stroke="transparent" points="384.5,-1262.5 384.5,-1297.5 681.5,-1297.5 681.5,-1262.5 384.5,-1262.5"/>
<polygon fill="none" stroke="#000000" points="384.5,-1262.5 384.5,-1297.5 681.5,-1297.5 681.5,-1262.5 384.5,-1262.5"/>
<text text-anchor="start" x="391.3464" y="-1275.3" font-family="Arial Bold" font-size="18.00" fill="#000000">dm_channel_mappings</text>
<text text-anchor="start" x="577.3998" y="-1275.3" font-family="Arial" font-size="14.00" fill="#000000"> </text>
<text text-anchor="start" x="581.2904" y="-1275.3" font-family="Arial" font-size="14.00" fill="#666666">[BASE TABLE]</text>
<polygon fill="none" stroke="#000000" points="384.5,-1232.5 384.5,-1262.5 681.5,-1262.5 681.5,-1232.5 384.5,-1232.5"/>
<text text-anchor="start" x="391.5" y="-1243.9" font-family="Arial" font-size="14.00" fill="#000000">channel_id </text>
<text text-anchor="start" x="463.082" y="-1243.9" font-family="Arial" font-size="14.00" fill="#666666">[char(36)]</text>
<polygon fill="none" stroke="#000000" points="384.5,-1202.5 384.5,-1232.5 681.5,-1232.5 681.5,-1202.5 384.5,-1202.5"/>
<text text-anchor="start" x="391.5" y="-1213.9" font-family="Arial" font-size="14.00" fill="#000000">user1 </text>
<text text-anchor="start" x="430.399" y="-1213.9" font-family="Arial" font-size="14.00" fill="#666666">[char(36)]</text>
<polygon fill="none" stroke="#000000" points="384.5,-1172.5 384.5,-1202.5 681.5,-1202.5 681.5,-1172.5 384.5,-1172.5"/>
<text text-anchor="start" x="391.5" y="-1183.9" font-family="Arial" font-size="14.00" fill="#000000">user2 </text>
<text text-anchor="start" x="430.399" y="-1183.9" font-family="Arial" font-size="14.00" fill="#666666">[char(36)]</text>
</g>
<!-- dm_channel_mappings&#45;&gt;channels -->
<g id="edge2" class="edge">
<title>dm_channel_mappings:channel_id&#45;&gt;channels:id</title>
<path fill="none" stroke="#000000" d="M691.7536,-1246.9439C780.7186,-1236.5603 659.3194,-1083.4084 733.5,-1010 836.2709,-908.299 1225.9146,-877.5 1370.5,-877.5"/>
<polygon fill="#000000" stroke="#000000" points="691.4853,-1246.9583 681.2562,-1243.0066 686.4927,-1247.2292 681.5,-1247.5 681.5,-1247.5 681.5,-1247.5 686.4927,-1247.2292 681.7438,-1251.9934 691.4853,-1246.9583 691.4853,-1246.9583"/>
<text text-anchor="start" x="553.378" y="-1231.5" font-family="Arial" font-size="10.00" fill="#000000">FOREIGN KEY (channel_id) REFERENCES channels (id)</text>
</g>
<!-- files -->
<g id="node4" class="node">
<title>files</title>
<polygon fill="#efefef" stroke="transparent" points="785.5,-1382.5 785.5,-1417.5 985.5,-1417.5 985.5,-1382.5 785.5,-1382.5"/>
<polygon fill="none" stroke="#000000" points="785.5,-1382.5 785.5,-1417.5 985.5,-1417.5 985.5,-1382.5 785.5,-1382.5"/>
<text text-anchor="start" x="820.8747" y="-1395.3" font-family="Arial Bold" font-size="18.00" fill="#000000">files</text>
<text text-anchor="start" x="852.8715" y="-1395.3" font-family="Arial" font-size="14.00" fill="#000000"> </text>
<text text-anchor="start" x="856.7621" y="-1395.3" font-family="Arial" font-size="14.00" fill="#666666">[BASE TABLE]</text>
<polygon fill="none" stroke="#000000" points="785.5,-1352.5 785.5,-1382.5 985.5,-1382.5 985.5,-1352.5 785.5,-1352.5"/>
<text text-anchor="start" x="792.5" y="-1363.9" font-family="Arial" font-size="14.00" fill="#000000">id </text>
<text text-anchor="start" x="807.2798" y="-1363.9" font-family="Arial" font-size="14.00" fill="#666666">[char(36)]</text>
<polygon fill="none" stroke="#000000" points="785.5,-1322.5 785.5,-1352.5 985.5,-1352.5 985.5,-1322.5 785.5,-1322.5"/>
<text text-anchor="start" x="792.5" y="-1333.9" font-family="Arial" font-size="14.00" fill="#000000">name </text>
<text text-anchor="start" x="831.399" y="-1333.9" font-family="Arial" font-size="14.00" fill="#666666">[text]</text>
<polygon fill="none" stroke="#000000" points="785.5,-1292.5 785.5,-1322.5 985.5,-1322.5 985.5,-1292.5 785.5,-1292.5"/>
<text text-anchor="start" x="792.5" y="-1303.9" font-family="Arial" font-size="14.00" fill="#000000">mime </text>
<text text-anchor="start" x="830.601" y="-1303.9" font-family="Arial" font-size="14.00" fill="#666666">[text]</text>
<polygon fill="none" stroke="#000000" points="785.5,-1262.5 785.5,-1292.5 985.5,-1292.5 985.5,-1262.5 785.5,-1262.5"/>
<text text-anchor="start" x="792.5" y="-1273.9" font-family="Arial" font-size="14.00" fill="#000000">size </text>
<text text-anchor="start" x="821.2798" y="-1273.9" font-family="Arial" font-size="14.00" fill="#666666">[bigint(20)]</text>
<polygon fill="none" stroke="#000000" points="785.5,-1232.5 785.5,-1262.5 985.5,-1262.5 985.5,-1232.5 785.5,-1232.5"/>
<text text-anchor="start" x="792.5" y="-1243.9" font-family="Arial" font-size="14.00" fill="#000000">creator_id </text>
<text text-anchor="start" x="858.622" y="-1243.9" font-family="Arial" font-size="14.00" fill="#666666">[char(36)]</text>
<polygon fill="none" stroke="#000000" points="785.5,-1202.5 785.5,-1232.5 985.5,-1232.5 985.5,-1202.5 785.5,-1202.5"/>
<text text-anchor="start" x="792.5" y="-1213.9" font-family="Arial" font-size="14.00" fill="#000000">hash </text>
<text text-anchor="start" x="826.7384" y="-1213.9" font-family="Arial" font-size="14.00" fill="#666666">[char(32)]</text>
<polygon fill="none" stroke="#000000" points="785.5,-1172.5 785.5,-1202.5 985.5,-1202.5 985.5,-1172.5 785.5,-1172.5"/>
<text text-anchor="start" x="792.5" y="-1183.9" font-family="Arial" font-size="14.00" fill="#000000">type </text>
<text text-anchor="start" x="822.8464" y="-1183.9" font-family="Arial" font-size="14.00" fill="#666666">[varchar(30)]</text>
<polygon fill="none" stroke="#000000" points="785.5,-1142.5 785.5,-1172.5 985.5,-1172.5 985.5,-1142.5 785.5,-1142.5"/>
<text text-anchor="start" x="792.1536" y="-1153.9" font-family="Arial" font-size="14.00" fill="#000000">is_animated_image </text>
<text text-anchor="start" x="917.4018" y="-1153.9" font-family="Arial" font-size="14.00" fill="#666666">[tinyint(1)]</text>
<polygon fill="none" stroke="#000000" points="785.5,-1112.5 785.5,-1142.5 985.5,-1142.5 985.5,-1112.5 785.5,-1112.5"/>
<text text-anchor="start" x="792.5" y="-1123.9" font-family="Arial" font-size="14.00" fill="#000000">channel_id </text>
<text text-anchor="start" x="864.082" y="-1123.9" font-family="Arial" font-size="14.00" fill="#666666">[char(36)]</text>
<polygon fill="none" stroke="#000000" points="785.5,-1082.5 785.5,-1112.5 985.5,-1112.5 985.5,-1082.5 785.5,-1082.5"/>
<text text-anchor="start" x="792.5" y="-1093.9" font-family="Arial" font-size="14.00" fill="#000000">created_at </text>
<text text-anchor="start" x="862.528" y="-1093.9" font-family="Arial" font-size="14.00" fill="#666666">[datetime(6)]</text>
<polygon fill="none" stroke="#000000" points="785.5,-1052.5 785.5,-1082.5 985.5,-1082.5 985.5,-1052.5 785.5,-1052.5"/>
<text text-anchor="start" x="792.5" y="-1063.9" font-family="Arial" font-size="14.00" fill="#000000">deleted_at </text>
<text text-anchor="start" x="861.7566" y="-1063.9" font-family="Arial" font-size="14.00" fill="#666666">[datetime(6)]</text>
</g>
<!-- files&#45;&gt;channels -->
<g id="edge3" class="edge">
<title>files:channel_id&#45;&gt;channels:id</title>
<path fill="none" stroke="#000000" d="M995.5654,-1126.5036C1036.8507,-1117.3238 999.0918,-1046.9775 1037.5,-1010 1152.2488,-899.5255 1211.2144,-877.5 1370.5,-877.5"/>
<polygon fill="#000000" stroke="#000000" points="995.4514,-1126.5148 985.0566,-1123.0219 990.4757,-1127.0074 985.5,-1127.5 985.5,-1127.5 985.5,-1127.5 990.4757,-1127.0074 985.9434,-1131.9781 995.4514,-1126.5148 995.4514,-1126.5148"/>
<text text-anchor="start" x="721.878" y="-1111.5" font-family="Arial" font-size="10.00" fill="#000000">FOREIGN KEY (channel_id) REFERENCES channels (id)</text>
</g>
<!-- messages -->
<g id="node5" class="node">
<title>messages</title>
<polygon fill="#efefef" stroke="transparent" points="1090.5,-1322.5 1090.5,-1357.5 1283.5,-1357.5 1283.5,-1322.5 1090.5,-1322.5"/>
<polygon fill="none" stroke="#000000" points="1090.5,-1322.5 1090.5,-1357.5 1283.5,-1357.5 1283.5,-1322.5 1090.5,-1322.5"/>
<text text-anchor="start" x="1097.3646" y="-1335.3" font-family="Arial Bold" font-size="18.00" fill="#000000">messages</text>
<text text-anchor="start" x="1179.3816" y="-1335.3" font-family="Arial" font-size="14.00" fill="#000000"> </text>
<text text-anchor="start" x="1183.2722" y="-1335.3" font-family="Arial" font-size="14.00" fill="#666666">[BASE TABLE]</text>
<polygon fill="none" stroke="#000000" points="1090.5,-1292.5 1090.5,-1322.5 1283.5,-1322.5 1283.5,-1292.5 1090.5,-1292.5"/>
<text text-anchor="start" x="1097.5" y="-1303.9" font-family="Arial" font-size="14.00" fill="#000000">id </text>
<text text-anchor="start" x="1112.2798" y="-1303.9" font-family="Arial" font-size="14.00" fill="#666666">[char(36)]</text>
<polygon fill="none" stroke="#000000" points="1090.5,-1262.5 1090.5,-1292.5 1283.5,-1292.5 1283.5,-1262.5 1090.5,-1262.5"/>
<text text-anchor="start" x="1097.5" y="-1273.9" font-family="Arial" font-size="14.00" fill="#000000">user_id </text>
<text text-anchor="start" x="1147.2882" y="-1273.9" font-family="Arial" font-size="14.00" fill="#666666">[char(36)]</text>
<polygon fill="none" stroke="#000000" points="1090.5,-1232.5 1090.5,-1262.5 1283.5,-1262.5 1283.5,-1232.5 1090.5,-1232.5"/>
<text text-anchor="start" x="1097.5" y="-1243.9" font-family="Arial" font-size="14.00" fill="#000000">channel_id </text>
<text text-anchor="start" x="1169.082" y="-1243.9" font-family="Arial" font-size="14.00" fill="#666666">[char(36)]</text>
<polygon fill="none" stroke="#000000" points="1090.5,-1202.5 1090.5,-1232.5 1283.5,-1232.5 1283.5,-1202.5 1090.5,-1202.5"/>
<text text-anchor="start" x="1097.5" y="-1213.9" font-family="Arial" font-size="14.00" fill="#000000">text </text>
<text text-anchor="start" x="1123.9544" y="-1213.9" font-family="Arial" font-size="14.00" fill="#666666">[text]</text>
<polygon fill="none" stroke="#000000" points="1090.5,-1172.5 1090.5,-1202.5 1283.5,-1202.5 1283.5,-1172.5 1090.5,-1172.5"/>
<text text-anchor="start" x="1097.5" y="-1183.9" font-family="Arial" font-size="14.00" fill="#000000">created_at </text>
<text text-anchor="start" x="1167.528" y="-1183.9" font-family="Arial" font-size="14.00" fill="#666666">[datetime(6)]</text>
<polygon fill="none" stroke="#000000" points="1090.5,-1142.5 1090.5,-1172.5 1283.5,-1172.5 1283.5,-1142.5 1090.5,-1142.5"/>
<text text-anchor="start" x="1097.5" y="-1153.9" font-family="Arial" font-size="14.00" fill="#000000">updated_at </text>
<text text-anchor="start" x="1171.4326" y="-1153.9" font-family="Arial" font-size="14.00" fill="#666666">[datetime(6)]</text>
<polygon fill="none" stroke="#000000" points="1090.5,-1112.5 1090.5,-1142.5 1283.5,-1142.5 1283.5,-1112.5 1090.5,-1112.5"/>
<text text-anchor="start" x="1097.5" y="-1123.9" font-family="Arial" font-size="14.00" fill="#000000">deleted_at </text>
<text text-anchor="start" x="1166.7566" y="-1123.9" font-family="Arial" font-size="14.00" fill="#666666">[datetime(6)]</text>
</g>
<!-- messages&#45;&gt;channels -->
<g id="edge4" class="edge">
<title>messages:channel_id&#45;&gt;channels:id</title>
<path fill="none" stroke="#000000" d="M1293.4928,-1245.5093C1361.231,-1216.3863 1289.6647,-877.5 1370.5,-877.5"/>
<polygon fill="#000000" stroke="#000000" points="1293.3073,-1245.5462 1282.6208,-1243.0867 1288.4036,-1246.5231 1283.5,-1247.5 1283.5,-1247.5 1283.5,-1247.5 1288.4036,-1246.5231 1284.3792,-1251.9133 1293.3073,-1245.5462 1293.3073,-1245.5462"/>
<text text-anchor="start" x="1290.878" y="-1257.5" font-family="Arial" font-size="10.00" fill="#000000">FOREIGN KEY (channel_id) REFERENCES channels (id)</text>
</g>
<!-- stars -->
<g id="node6" class="node">
<title>stars</title>
<polygon fill="#efefef" stroke="transparent" points="1387.5,-1247.5 1387.5,-1282.5 1537.5,-1282.5 1537.5,-1247.5 1387.5,-1247.5"/>
<polygon fill="none" stroke="#000000" points="1387.5,-1247.5 1387.5,-1282.5 1537.5,-1282.5 1537.5,-1247.5 1387.5,-1247.5"/>
<text text-anchor="start" x="1394.3728" y="-1260.3" font-family="Arial Bold" font-size="18.00" fill="#000000">stars</text>
<text text-anchor="start" x="1433.3734" y="-1260.3" font-family="Arial" font-size="14.00" fill="#000000"> </text>
<text text-anchor="start" x="1437.264" y="-1260.3" font-family="Arial" font-size="14.00" fill="#666666">[BASE TABLE]</text>
<polygon fill="none" stroke="#000000" points="1387.5,-1217.5 1387.5,-1247.5 1537.5,-1247.5 1537.5,-1217.5 1387.5,-1217.5"/>
<text text-anchor="start" x="1394.5" y="-1228.9" font-family="Arial" font-size="14.00" fill="#000000">user_id </text>
<text text-anchor="start" x="1444.2882" y="-1228.9" font-family="Arial" font-size="14.00" fill="#666666">[char(36)]</text>
<polygon fill="none" stroke="#000000" points="1387.5,-1187.5 1387.5,-1217.5 1537.5,-1217.5 1537.5,-1187.5 1387.5,-1187.5"/>
<text text-anchor="start" x="1394.5" y="-1198.9" font-family="Arial" font-size="14.00" fill="#000000">channel_id </text>
<text text-anchor="start" x="1466.082" y="-1198.9" font-family="Arial" font-size="14.00" fill="#666666">[char(36)]</text>
</g>
<!-- stars&#45;&gt;channels -->
<g id="edge5" class="edge">
<title>stars:channel_id&#45;&gt;channels:id</title>
<path fill="none" stroke="#000000" d="M1462.8787,-1177.3686C1473.2887,-1036.1997 1693.7259,-877.5 1553.5,-877.5"/>
<polygon fill="#000000" stroke="#000000" points="1462.8736,-1177.507 1458.0031,-1187.3319 1462.6868,-1182.5035 1462.5,-1187.5 1462.5,-1187.5 1462.5,-1187.5 1462.6868,-1182.5035 1466.9969,-1187.6681 1462.8736,-1177.507 1462.8736,-1177.507"/>
<text text-anchor="start" x="1334.378" y="-1171.5" font-family="Arial" font-size="10.00" fill="#000000">FOREIGN KEY (channel_id) REFERENCES channels (id)</text>
</g>
<!-- users_private_channels -->
<g id="node7" class="node">
<title>users_private_channels</title>
<polygon fill="#efefef" stroke="transparent" points="1642.5,-1247.5 1642.5,-1282.5 1943.5,-1282.5 1943.5,-1247.5 1642.5,-1247.5"/>
<polygon fill="none" stroke="#000000" points="1642.5,-1247.5 1642.5,-1282.5 1943.5,-1282.5 1943.5,-1247.5 1642.5,-1247.5"/>
<text text-anchor="start" x="1649.3484" y="-1260.3" font-family="Arial Bold" font-size="18.00" fill="#000000">users_private_channels</text>
<text text-anchor="start" x="1839.3978" y="-1260.3" font-family="Arial" font-size="14.00" fill="#000000"> </text>
<text text-anchor="start" x="1843.2884" y="-1260.3" font-family="Arial" font-size="14.00" fill="#666666">[BASE TABLE]</text>
<polygon fill="none" stroke="#000000" points="1642.5,-1217.5 1642.5,-1247.5 1943.5,-1247.5 1943.5,-1217.5 1642.5,-1217.5"/>
<text text-anchor="start" x="1649.5" y="-1228.9" font-family="Arial" font-size="14.00" fill="#000000">user_id </text>
<text text-anchor="start" x="1699.2882" y="-1228.9" font-family="Arial" font-size="14.00" fill="#666666">[char(36)]</text>
<polygon fill="none" stroke="#000000" points="1642.5,-1187.5 1642.5,-1217.5 1943.5,-1217.5 1943.5,-1187.5 1642.5,-1187.5"/>
<text text-anchor="start" x="1649.5" y="-1198.9" font-family="Arial" font-size="14.00" fill="#000000">channel_id </text>
<text text-anchor="start" x="1721.082" y="-1198.9" font-family="Arial" font-size="14.00" fill="#666666">[char(36)]</text>
</g>
<!-- users_private_channels&#45;&gt;channels -->
<g id="edge6" class="edge">
<title>users_private_channels:channel_id&#45;&gt;channels:id</title>
<path fill="none" stroke="#000000" d="M1632.4697,-1200.2511C1573.2291,-1171.5366 1624.725,-877.5 1553.5,-877.5"/>
<polygon fill="#000000" stroke="#000000" points="1632.7423,-1200.3121 1641.5155,-1206.891 1637.6211,-1201.4061 1642.5,-1202.5 1642.5,-1202.5 1642.5,-1202.5 1637.6211,-1201.4061 1643.4845,-1198.109 1632.7423,-1200.3121 1632.7423,-1200.3121"/>
<text text-anchor="start" x="1378.878" y="-1212.5" font-family="Arial" font-size="10.00" fill="#000000">FOREIGN KEY (channel_id) REFERENCES channels (id)</text>
</g>
<!-- users_subscribe_channels -->
<g id="node8" class="node">
<title>users_subscribe_channels</title>
<polygon fill="#efefef" stroke="transparent" points="2047.5,-1277.5 2047.5,-1312.5 2371.5,-1312.5 2371.5,-1277.5 2047.5,-1277.5"/>
<polygon fill="none" stroke="#000000" points="2047.5,-1277.5 2047.5,-1312.5 2371.5,-1312.5 2371.5,-1277.5 2047.5,-1277.5"/>
<text text-anchor="start" x="2054.3464" y="-1290.3" font-family="Arial Bold" font-size="18.00" fill="#000000">users_subscribe_channels</text>
<text text-anchor="start" x="2267.3998" y="-1290.3" font-family="Arial" font-size="14.00" fill="#000000"> </text>
<text text-anchor="start" x="2271.2904" y="-1290.3" font-family="Arial" font-size="14.00" fill="#666666">[BASE TABLE]</text>
<polygon fill="none" stroke="#000000" points="2047.5,-1247.5 2047.5,-1277.5 2371.5,-1277.5 2371.5,-1247.5 2047.5,-1247.5"/>
<text text-anchor="start" x="2054.5" y="-1258.9" font-family="Arial" font-size="14.00" fill="#000000">user_id </text>
<text text-anchor="start" x="2104.2882" y="-1258.9" font-family="Arial" font-size="14.00" fill="#666666">[char(36)]</text>
<polygon fill="none" stroke="#000000" points="2047.5,-1217.5 2047.5,-1247.5 2371.5,-1247.5 2371.5,-1217.5 2047.5,-1217.5"/>
<text text-anchor="start" x="2054.5" y="-1228.9" font-family="Arial" font-size="14.00" fill="#000000">channel_id </text>
<text text-anchor="start" x="2126.082" y="-1228.9" font-family="Arial" font-size="14.00" fill="#666666">[char(36)]</text>
<polygon fill="none" stroke="#000000" points="2047.5,-1187.5 2047.5,-1217.5 2371.5,-1217.5 2371.5,-1187.5 2047.5,-1187.5"/>
<text text-anchor="start" x="2054.5" y="-1198.9" font-family="Arial" font-size="14.00" fill="#000000">mark </text>
<text text-anchor="start" x="2089.4944" y="-1198.9" font-family="Arial" font-size="14.00" fill="#666666">[tinyint(1)]</text>
<polygon fill="none" stroke="#000000" points="2047.5,-1157.5 2047.5,-1187.5 2371.5,-1187.5 2371.5,-1157.5 2047.5,-1157.5"/>
<text text-anchor="start" x="2054.5" y="-1168.9" font-family="Arial" font-size="14.00" fill="#000000">notify </text>
<text text-anchor="start" x="2091.8436" y="-1168.9" font-family="Arial" font-size="14.00" fill="#666666">[tinyint(1)]</text>
</g>
<!-- users_subscribe_channels&#45;&gt;channels -->
<g id="edge7" class="edge">
<title>users_subscribe_channels:channel_id&#45;&gt;channels:id</title>
<path fill="none" stroke="#000000" d="M2037.3367,-1231.9288C1954.308,-1221.865 2062.5481,-1081.3153 1995.5,-1010 1925.2624,-935.2922 1656.0406,-877.5 1553.5,-877.5"/>
<polygon fill="#000000" stroke="#000000" points="2037.5158,-1231.9388 2047.2475,-1236.9929 2042.5079,-1232.2194 2047.5,-1232.5 2047.5,-1232.5 2047.5,-1232.5 2042.5079,-1232.2194 2047.7525,-1228.0071 2037.5158,-1231.9388 2037.5158,-1231.9388"/>
<text text-anchor="start" x="1783.878" y="-1242.5" font-family="Arial" font-size="10.00" fill="#000000">FOREIGN KEY (channel_id) REFERENCES channels (id)</text>
</g>
<!-- user_profiles -->
<g id="node9" class="node">
<title>user_profiles</title>
<polygon fill="#efefef" stroke="transparent" points="2475.5,-1307.5 2475.5,-1342.5 2689.5,-1342.5 2689.5,-1307.5 2475.5,-1307.5"/>
<polygon fill="none" stroke="#000000" points="2475.5,-1307.5 2475.5,-1342.5 2689.5,-1342.5 2689.5,-1307.5 2475.5,-1307.5"/>
<text text-anchor="start" x="2482.367" y="-1320.3" font-family="Arial Bold" font-size="18.00" fill="#000000">user_profiles</text>
<text text-anchor="start" x="2585.3792" y="-1320.3" font-family="Arial" font-size="14.00" fill="#000000"> </text>
<text text-anchor="start" x="2589.2698" y="-1320.3" font-family="Arial" font-size="14.00" fill="#666666">[BASE TABLE]</text>
<polygon fill="none" stroke="#000000" points="2475.5,-1277.5 2475.5,-1307.5 2689.5,-1307.5 2689.5,-1277.5 2475.5,-1277.5"/>
<text text-anchor="start" x="2482.5" y="-1288.9" font-family="Arial" font-size="14.00" fill="#000000">user_id </text>
<text text-anchor="start" x="2532.2882" y="-1288.9" font-family="Arial" font-size="14.00" fill="#666666">[char(36)]</text>
<polygon fill="none" stroke="#000000" points="2475.5,-1247.5 2475.5,-1277.5 2689.5,-1277.5 2689.5,-1247.5 2475.5,-1247.5"/>
<text text-anchor="start" x="2482.5" y="-1258.9" font-family="Arial" font-size="14.00" fill="#000000">bio </text>
<text text-anchor="start" x="2505.0624" y="-1258.9" font-family="Arial" font-size="14.00" fill="#666666">[text]</text>
<polygon fill="none" stroke="#000000" points="2475.5,-1217.5 2475.5,-1247.5 2689.5,-1247.5 2689.5,-1217.5 2475.5,-1217.5"/>
<text text-anchor="start" x="2482.5" y="-1228.9" font-family="Arial" font-size="14.00" fill="#000000">twitter_id </text>
<text text-anchor="start" x="2542.3906" y="-1228.9" font-family="Arial" font-size="14.00" fill="#666666">[varchar(15)]</text>
<polygon fill="none" stroke="#000000" points="2475.5,-1187.5 2475.5,-1217.5 2689.5,-1217.5 2689.5,-1187.5 2475.5,-1187.5"/>
<text text-anchor="start" x="2482.5" y="-1198.9" font-family="Arial" font-size="14.00" fill="#000000">last_online </text>
<text text-anchor="start" x="2553.2966" y="-1198.9" font-family="Arial" font-size="14.00" fill="#666666">[datetime(6)]</text>
<polygon fill="none" stroke="#000000" points="2475.5,-1157.5 2475.5,-1187.5 2689.5,-1187.5 2689.5,-1157.5 2475.5,-1157.5"/>
<text text-anchor="start" x="2482.5" y="-1168.9" font-family="Arial" font-size="14.00" fill="#000000">home_channel </text>
<text text-anchor="start" x="2578.2012" y="-1168.9" font-family="Arial" font-size="14.00" fill="#666666">[char(36)]</text>
<polygon fill="none" stroke="#000000" points="2475.5,-1127.5 2475.5,-1157.5 2689.5,-1157.5 2689.5,-1127.5 2475.5,-1127.5"/>
<text text-anchor="start" x="2482.5" y="-1138.9" font-family="Arial" font-size="14.00" fill="#000000">updated_at </text>
<text text-anchor="start" x="2556.4326" y="-1138.9" font-family="Arial" font-size="14.00" fill="#666666">[datetime(6)]</text>
</g>
<!-- user_profiles&#45;&gt;channels -->
<g id="edge8" class="edge">
<title>user_profiles:home_channel&#45;&gt;channels:id</title>
<path fill="none" stroke="#000000" d="M2465.4831,-1171.7103C2407.2999,-1161.5888 2478.3808,-1056.8022 2423.5,-1010 2274.6987,-883.1027 1749.0627,-877.5 1553.5,-877.5"/>
<polygon fill="#000000" stroke="#000000" points="2465.5309,-1171.714 2475.1463,-1176.9861 2470.5155,-1172.107 2475.5,-1172.5 2475.5,-1172.5 2475.5,-1172.5 2470.5155,-1172.107 2475.8537,-1168.0139 2465.5309,-1171.714 2465.5309,-1171.714"/>
<text text-anchor="start" x="2194.264" y="-1182.5" font-family="Arial" font-size="10.00" fill="#000000">FOREIGN KEY (home_channel) REFERENCES channels (id)</text>
</g>
<!-- webhook_bots -->
<g id="node10" class="node">
<title>webhook_bots</title>
<polygon fill="#efefef" stroke="transparent" points="2794.5,-1352.5 2794.5,-1387.5 3021.5,-1387.5 3021.5,-1352.5 2794.5,-1352.5"/>
<polygon fill="none" stroke="#000000" points="2794.5,-1352.5 2794.5,-1387.5 3021.5,-1387.5 3021.5,-1352.5 2794.5,-1352.5"/>
<text text-anchor="start" x="2801.3501" y="-1365.3" font-family="Arial Bold" font-size="18.00" fill="#000000">webhook_bots</text>
<text text-anchor="start" x="2917.3961" y="-1365.3" font-family="Arial" font-size="14.00" fill="#000000"> </text>
<text text-anchor="start" x="2921.2867" y="-1365.3" font-family="Arial" font-size="14.00" fill="#666666">[BASE TABLE]</text>
<polygon fill="none" stroke="#000000" points="2794.5,-1322.5 2794.5,-1352.5 3021.5,-1352.5 3021.5,-1322.5 2794.5,-1322.5"/>
<text text-anchor="start" x="2801.5" y="-1333.9" font-family="Arial" font-size="14.00" fill="#000000">id </text>
<text text-anchor="start" x="2816.2798" y="-1333.9" font-family="Arial" font-size="14.00" fill="#666666">[char(36)]</text>
<polygon fill="none" stroke="#000000" points="2794.5,-1292.5 2794.5,-1322.5 3021.5,-1322.5 3021.5,-1292.5 2794.5,-1292.5"/>
<text text-anchor="start" x="2801.5" y="-1303.9" font-family="Arial" font-size="14.00" fill="#000000">bot_user_id </text>
<text text-anchor="start" x="2878.5266" y="-1303.9" font-family="Arial" font-size="14.00" fill="#666666">[char(36)]</text>
<polygon fill="none" stroke="#000000" points="2794.5,-1262.5 2794.5,-1292.5 3021.5,-1292.5 3021.5,-1262.5 2794.5,-1262.5"/>
<text text-anchor="start" x="2801.5" y="-1273.9" font-family="Arial" font-size="14.00" fill="#000000">description </text>
<text text-anchor="start" x="2873.068" y="-1273.9" font-family="Arial" font-size="14.00" fill="#666666">[text]</text>
<polygon fill="none" stroke="#000000" points="2794.5,-1232.5 2794.5,-1262.5 3021.5,-1262.5 3021.5,-1232.5 2794.5,-1232.5"/>
<text text-anchor="start" x="2801.5" y="-1243.9" font-family="Arial" font-size="14.00" fill="#000000">secret </text>
<text text-anchor="start" x="2843.507" y="-1243.9" font-family="Arial" font-size="14.00" fill="#666666">[text]</text>
<polygon fill="none" stroke="#000000" points="2794.5,-1202.5 2794.5,-1232.5 3021.5,-1232.5 3021.5,-1202.5 2794.5,-1202.5"/>
<text text-anchor="start" x="2801.5" y="-1213.9" font-family="Arial" font-size="14.00" fill="#000000">channel_id </text>
<text text-anchor="start" x="2873.082" y="-1213.9" font-family="Arial" font-size="14.00" fill="#666666">[char(36)]</text>
<polygon fill="none" stroke="#000000" points="2794.5,-1172.5 2794.5,-1202.5 3021.5,-1202.5 3021.5,-1172.5 2794.5,-1172.5"/>
<text text-anchor="start" x="2801.5" y="-1183.9" font-family="Arial" font-size="14.00" fill="#000000">creator_id </text>
<text text-anchor="start" x="2867.622" y="-1183.9" font-family="Arial" font-size="14.00" fill="#666666">[char(36)]</text>
<polygon fill="none" stroke="#000000" points="2794.5,-1142.5 2794.5,-1172.5 3021.5,-1172.5 3021.5,-1142.5 2794.5,-1142.5"/>
<text text-anchor="start" x="2801.5" y="-1153.9" font-family="Arial" font-size="14.00" fill="#000000">created_at </text>
<text text-anchor="start" x="2871.528" y="-1153.9" font-family="Arial" font-size="14.00" fill="#666666">[datetime(6)]</text>
<polygon fill="none" stroke="#000000" points="2794.5,-1112.5 2794.5,-1142.5 3021.5,-1142.5 3021.5,-1112.5 2794.5,-1112.5"/>
<text text-anchor="start" x="2801.5" y="-1123.9" font-family="Arial" font-size="14.00" fill="#000000">updated_at </text>
<text text-anchor="start" x="2875.4326" y="-1123.9" font-family="Arial" font-size="14.00" fill="#666666">[datetime(6)]</text>
<polygon fill="none" stroke="#000000" points="2794.5,-1082.5 2794.5,-1112.5 3021.5,-1112.5 3021.5,-1082.5 2794.5,-1082.5"/>
<text text-anchor="start" x="2801.5" y="-1093.9" font-family="Arial" font-size="14.00" fill="#000000">deleted_at </text>
<text text-anchor="start" x="2870.7566" y="-1093.9" font-family="Arial" font-size="14.00" fill="#666666">[datetime(6)]</text>
</g>
<!-- webhook_bots&#45;&gt;channels -->
<g id="edge9" class="edge">
<title>webhook_bots:channel_id&#45;&gt;channels:id</title>
<path fill="none" stroke="#000000" d="M2784.2798,-1216.8497C2707.9396,-1206.2954 2810.5107,-1070.0279 2741.5,-1010 2641.2878,-922.832 1686.3185,-877.5 1553.5,-877.5"/>
<polygon fill="#000000" stroke="#000000" points="2784.5202,-1216.8649 2794.2142,-1221.9909 2789.5101,-1217.1824 2794.5,-1217.5 2794.5,-1217.5 2794.5,-1217.5 2789.5101,-1217.1824 2794.7858,-1213.0091 2784.5202,-1216.8649 2784.5202,-1216.8649"/>
<text text-anchor="start" x="2530.878" y="-1227.5" font-family="Arial" font-size="10.00" fill="#000000">FOREIGN KEY (channel_id) REFERENCES channels (id)</text>
</g>
</g>
</svg>
