<?xml version="1.0" encoding="UTF-8" standalone="no"?>
<!DOCTYPE svg PUBLIC "-//W3C//DTD SVG 1.1//EN"
 "http://www.w3.org/Graphics/SVG/1.1/DTD/svg11.dtd">
<!-- Generated by graphviz version 2.40.1 (20161225.0304)
 -->
<!-- Title: channels Pages: 1 -->
<svg width="2724pt" height="1619pt"
     viewBox="0.00 0.00 2724.00 1619.00" xmlns="http://www.w3.org/2000/svg">
<g id="graph0" class="graph" transform="scale(1 1) rotate(0) translate(4 1615)">
<title>channels</title>
<polygon fill="#ffffff" stroke="transparent" points="-4,4 -4,-1615 2720,-1615 2720,4 -4,4"/>
<!-- channels -->
<g id="node1" class="node">
<title>channels</title>
<polygon fill="#efefef" stroke="transparent" points="1202.5,-952.5 1202.5,-987.5 1385.5,-987.5 1385.5,-952.5 1202.5,-952.5"/>
<polygon fill="none" stroke="#000000" points="1202.5,-952.5 1202.5,-987.5 1385.5,-987.5 1385.5,-952.5 1202.5,-952.5"/>
<text text-anchor="start" x="1209.3605" y="-965.3" font-family="Arial Bold" font-size="18.00" fill="#000000">channels</text>
<text text-anchor="start" x="1281.3857" y="-965.3" font-family="Arial" font-size="14.00" fill="#000000"> </text>
<text text-anchor="start" x="1285.2763" y="-965.3" font-family="Arial" font-size="14.00" fill="#666666">[BASE TABLE]</text>
<polygon fill="none" stroke="#000000" points="1202.5,-922.5 1202.5,-952.5 1385.5,-952.5 1385.5,-922.5 1202.5,-922.5"/>
<text text-anchor="start" x="1209.5" y="-933.9" font-family="Arial" font-size="14.00" fill="#000000">id </text>
<text text-anchor="start" x="1224.2798" y="-933.9" font-family="Arial" font-size="14.00" fill="#666666">[char(36)]</text>
<polygon fill="none" stroke="#000000" points="1202.5,-892.5 1202.5,-922.5 1385.5,-922.5 1385.5,-892.5 1202.5,-892.5"/>
<text text-anchor="start" x="1209.5" y="-903.9" font-family="Arial" font-size="14.00" fill="#000000">name </text>
<text text-anchor="start" x="1248.399" y="-903.9" font-family="Arial" font-size="14.00" fill="#666666">[varchar(20)]</text>
<polygon fill="none" stroke="#000000" points="1202.5,-862.5 1202.5,-892.5 1385.5,-892.5 1385.5,-862.5 1202.5,-862.5"/>
<text text-anchor="start" x="1209.5" y="-873.9" font-family="Arial" font-size="14.00" fill="#000000">parent_id </text>
<text text-anchor="start" x="1271.744" y="-873.9" font-family="Arial" font-size="14.00" fill="#666666">[char(36)]</text>
<polygon fill="none" stroke="#000000" points="1202.5,-832.5 1202.5,-862.5 1385.5,-862.5 1385.5,-832.5 1202.5,-832.5"/>
<text text-anchor="start" x="1209.5" y="-843.9" font-family="Arial" font-size="14.00" fill="#000000">topic </text>
<text text-anchor="start" x="1242.953" y="-843.9" font-family="Arial" font-size="14.00" fill="#666666">[text]</text>
<polygon fill="none" stroke="#000000" points="1202.5,-802.5 1202.5,-832.5 1385.5,-832.5 1385.5,-802.5 1202.5,-802.5"/>
<text text-anchor="start" x="1209.5" y="-813.9" font-family="Arial" font-size="14.00" fill="#000000">is_forced </text>
<text text-anchor="start" x="1270.1788" y="-813.9" font-family="Arial" font-size="14.00" fill="#666666">[tinyint(1)]</text>
<polygon fill="none" stroke="#000000" points="1202.5,-772.5 1202.5,-802.5 1385.5,-802.5 1385.5,-772.5 1202.5,-772.5"/>
<text text-anchor="start" x="1209.5" y="-783.9" font-family="Arial" font-size="14.00" fill="#000000">is_public </text>
<text text-anchor="start" x="1267.8408" y="-783.9" font-family="Arial" font-size="14.00" fill="#666666">[tinyint(1)]</text>
<polygon fill="none" stroke="#000000" points="1202.5,-742.5 1202.5,-772.5 1385.5,-772.5 1385.5,-742.5 1202.5,-742.5"/>
<text text-anchor="start" x="1209.5" y="-753.9" font-family="Arial" font-size="14.00" fill="#000000">is_visible </text>
<text text-anchor="start" x="1270.1648" y="-753.9" font-family="Arial" font-size="14.00" fill="#666666">[tinyint(1)]</text>
<polygon fill="none" stroke="#000000" points="1202.5,-712.5 1202.5,-742.5 1385.5,-742.5 1385.5,-712.5 1202.5,-712.5"/>
<text text-anchor="start" x="1209.5" y="-723.9" font-family="Arial" font-size="14.00" fill="#000000">creator_id </text>
<text text-anchor="start" x="1275.622" y="-723.9" font-family="Arial" font-size="14.00" fill="#666666">[char(36)]</text>
<polygon fill="none" stroke="#000000" points="1202.5,-682.5 1202.5,-712.5 1385.5,-712.5 1385.5,-682.5 1202.5,-682.5"/>
<text text-anchor="start" x="1209.5" y="-693.9" font-family="Arial" font-size="14.00" fill="#000000">updater_id </text>
<text text-anchor="start" x="1279.5266" y="-693.9" font-family="Arial" font-size="14.00" fill="#666666">[char(36)]</text>
<polygon fill="none" stroke="#000000" points="1202.5,-652.5 1202.5,-682.5 1385.5,-682.5 1385.5,-652.5 1202.5,-652.5"/>
<text text-anchor="start" x="1209.5" y="-663.9" font-family="Arial" font-size="14.00" fill="#000000">created_at </text>
<text text-anchor="start" x="1279.528" y="-663.9" font-family="Arial" font-size="14.00" fill="#666666">[datetime(6)]</text>
<polygon fill="none" stroke="#000000" points="1202.5,-622.5 1202.5,-652.5 1385.5,-652.5 1385.5,-622.5 1202.5,-622.5"/>
<text text-anchor="start" x="1209.5" y="-633.9" font-family="Arial" font-size="14.00" fill="#000000">updated_at </text>
<text text-anchor="start" x="1283.4326" y="-633.9" font-family="Arial" font-size="14.00" fill="#666666">[datetime(6)]</text>
<polygon fill="none" stroke="#000000" points="1202.5,-592.5 1202.5,-622.5 1385.5,-622.5 1385.5,-592.5 1202.5,-592.5"/>
<text text-anchor="start" x="1209.5" y="-603.9" font-family="Arial" font-size="14.00" fill="#000000">deleted_at </text>
<text text-anchor="start" x="1278.7566" y="-603.9" font-family="Arial" font-size="14.00" fill="#666666">[datetime(6)]</text>
<polygon fill="none" stroke="#000000" stroke-width="3" points="1200.5,-591.5 1200.5,-989.5 1386.5,-989.5 1386.5,-591.5 1200.5,-591.5"/>
</g>
<!-- channels&#45;&gt;channels -->
<g id="edge9" class="edge">
<title>channels:parent_id&#45;&gt;channels:id</title>
<path fill="none" stroke="#000000" stroke-dasharray="5,2" d="M1295.74,-902.6778C1303.479,-1071.5264 1303.0657,-1301 1294.5,-1301 1285.7637,-1301 1285.5077,-1118.8289 1293.7322,-952.5103"/>
<polygon fill="#000000" stroke="#000000" points="1295.7389,-902.6506 1299.7628,-892.4498 1295.5033,-897.6562 1295.2678,-892.6617 1295.2678,-892.6617 1295.2678,-892.6617 1295.5033,-897.6562 1290.7728,-892.8737 1295.7389,-902.6506 1295.7389,-902.6506"/>
<text text-anchor="start" x="1205.5923" y="-902.6617" font-family="Arial" font-size="10.00" fill="#000000">Additional Relation</text>
</g>
<!-- users -->
<g id="node10" class="node">
<title>users</title>
<polygon fill="#efefef" stroke="transparent" points="1202.5,-432.5 1202.5,-467.5 1385.5,-467.5 1385.5,-432.5 1202.5,-432.5"/>
<polygon fill="none" stroke="#000000" points="1202.5,-432.5 1202.5,-467.5 1385.5,-467.5 1385.5,-432.5 1202.5,-432.5"/>
<text text-anchor="start" x="1223.3708" y="-445.3" font-family="Arial Bold" font-size="18.00" fill="#000000">users</text>
<text text-anchor="start" x="1267.3754" y="-445.3" font-family="Arial" font-size="14.00" fill="#000000"> </text>
<text text-anchor="start" x="1271.266" y="-445.3" font-family="Arial" font-size="14.00" fill="#666666">[BASE TABLE]</text>
<polygon fill="none" stroke="#000000" points="1202.5,-402.5 1202.5,-432.5 1385.5,-432.5 1385.5,-402.5 1202.5,-402.5"/>
<text text-anchor="start" x="1209.5" y="-413.9" font-family="Arial" font-size="14.00" fill="#000000">id </text>
<text text-anchor="start" x="1224.2798" y="-413.9" font-family="Arial" font-size="14.00" fill="#666666">[char(36)]</text>
<polygon fill="none" stroke="#000000" points="1202.5,-372.5 1202.5,-402.5 1385.5,-402.5 1385.5,-372.5 1202.5,-372.5"/>
<text text-anchor="start" x="1209.5" y="-383.9" font-family="Arial" font-size="14.00" fill="#000000">name </text>
<text text-anchor="start" x="1248.399" y="-383.9" font-family="Arial" font-size="14.00" fill="#666666">[varchar(32)]</text>
<polygon fill="none" stroke="#000000" points="1202.5,-342.5 1202.5,-372.5 1385.5,-372.5 1385.5,-342.5 1202.5,-342.5"/>
<text text-anchor="start" x="1209.2104" y="-353.9" font-family="Arial" font-size="14.00" fill="#000000">display_name </text>
<text text-anchor="start" x="1299.453" y="-353.9" font-family="Arial" font-size="14.00" fill="#666666">[varchar(64)]</text>
<polygon fill="none" stroke="#000000" points="1202.5,-312.5 1202.5,-342.5 1385.5,-342.5 1385.5,-312.5 1202.5,-312.5"/>
<text text-anchor="start" x="1209.5" y="-323.9" font-family="Arial" font-size="14.00" fill="#000000">password </text>
<text text-anchor="start" x="1273.2882" y="-323.9" font-family="Arial" font-size="14.00" fill="#666666">[char(128)]</text>
<polygon fill="none" stroke="#000000" points="1202.5,-282.5 1202.5,-312.5 1385.5,-312.5 1385.5,-282.5 1202.5,-282.5"/>
<text text-anchor="start" x="1209.5" y="-293.9" font-family="Arial" font-size="14.00" fill="#000000">salt </text>
<text text-anchor="start" x="1235.1704" y="-293.9" font-family="Arial" font-size="14.00" fill="#666666">[char(128)]</text>
<polygon fill="none" stroke="#000000" points="1202.5,-252.5 1202.5,-282.5 1385.5,-282.5 1385.5,-252.5 1202.5,-252.5"/>
<text text-anchor="start" x="1209.5" y="-263.9" font-family="Arial" font-size="14.00" fill="#000000">icon </text>
<text text-anchor="start" x="1239.0624" y="-263.9" font-family="Arial" font-size="14.00" fill="#666666">[char(36)]</text>
<polygon fill="none" stroke="#000000" points="1202.5,-222.5 1202.5,-252.5 1385.5,-252.5 1385.5,-222.5 1202.5,-222.5"/>
<text text-anchor="start" x="1209.5" y="-233.9" font-family="Arial" font-size="14.00" fill="#000000">status </text>
<text text-anchor="start" x="1250.737" y="-233.9" font-family="Arial" font-size="14.00" fill="#666666">[tinyint(4)]</text>
<polygon fill="none" stroke="#000000" points="1202.5,-192.5 1202.5,-222.5 1385.5,-222.5 1385.5,-192.5 1202.5,-192.5"/>
<text text-anchor="start" x="1209.5" y="-203.9" font-family="Arial" font-size="14.00" fill="#000000">bot </text>
<text text-anchor="start" x="1232.8464" y="-203.9" font-family="Arial" font-size="14.00" fill="#666666">[tinyint(1)]</text>
<polygon fill="none" stroke="#000000" points="1202.5,-162.5 1202.5,-192.5 1385.5,-192.5 1385.5,-162.5 1202.5,-162.5"/>
<text text-anchor="start" x="1209.5" y="-173.9" font-family="Arial" font-size="14.00" fill="#000000">role </text>
<text text-anchor="start" x="1236.723" y="-173.9" font-family="Arial" font-size="14.00" fill="#666666">[varchar(30)]</text>
<polygon fill="none" stroke="#000000" points="1202.5,-132.5 1202.5,-162.5 1385.5,-162.5 1385.5,-132.5 1202.5,-132.5"/>
<text text-anchor="start" x="1209.5" y="-143.9" font-family="Arial" font-size="14.00" fill="#000000">twitter_id </text>
<text text-anchor="start" x="1269.3906" y="-143.9" font-family="Arial" font-size="14.00" fill="#666666">[varchar(15)]</text>
<polygon fill="none" stroke="#000000" points="1202.5,-102.5 1202.5,-132.5 1385.5,-132.5 1385.5,-102.5 1202.5,-102.5"/>
<text text-anchor="start" x="1209.5" y="-113.9" font-family="Arial" font-size="14.00" fill="#000000">last_online </text>
<text text-anchor="start" x="1280.2966" y="-113.9" font-family="Arial" font-size="14.00" fill="#666666">[datetime(6)]</text>
<polygon fill="none" stroke="#000000" points="1202.5,-72.5 1202.5,-102.5 1385.5,-102.5 1385.5,-72.5 1202.5,-72.5"/>
<text text-anchor="start" x="1209.5" y="-83.9" font-family="Arial" font-size="14.00" fill="#000000">created_at </text>
<text text-anchor="start" x="1279.528" y="-83.9" font-family="Arial" font-size="14.00" fill="#666666">[datetime(6)]</text>
<polygon fill="none" stroke="#000000" points="1202.5,-42.5 1202.5,-72.5 1385.5,-72.5 1385.5,-42.5 1202.5,-42.5"/>
<text text-anchor="start" x="1209.5" y="-53.9" font-family="Arial" font-size="14.00" fill="#000000">updated_at </text>
<text text-anchor="start" x="1283.4326" y="-53.9" font-family="Arial" font-size="14.00" fill="#666666">[datetime(6)]</text>
</g>
<!-- channels&#45;&gt;users -->
<g id="edge10" class="edge">
<title>channels:creator_id&#45;&gt;users:id</title>
<path fill="none" stroke="#000000" stroke-dasharray="5,2" d="M1192.2717,-726.9106C1064.811,-711.9577 1068.2205,-417.5 1202.5,-417.5"/>
<polygon fill="#000000" stroke="#000000" points="1192.5166,-726.9246 1202.2411,-731.9925 1197.5083,-727.2123 1202.5,-727.5 1202.5,-727.5 1202.5,-727.5 1197.5083,-727.2123 1202.7589,-723.0075 1192.5166,-726.9246 1192.5166,-726.9246"/>
<text text-anchor="start" x="1112.8245" y="-737.5" font-family="Arial" font-size="10.00" fill="#000000">Additional Relation</text>
</g>
<!-- channel_events -->
<g id="node2" class="node">
<title>channel_events</title>
<polygon fill="#efefef" stroke="transparent" points="43.5,-1397.5 43.5,-1432.5 280.5,-1432.5 280.5,-1397.5 43.5,-1397.5"/>
<polygon fill="none" stroke="#000000" points="43.5,-1397.5 43.5,-1432.5 280.5,-1432.5 280.5,-1397.5 43.5,-1397.5"/>
<text text-anchor="start" x="50.347" y="-1410.3" font-family="Arial Bold" font-size="18.00" fill="#000000">channel_events</text>
<text text-anchor="start" x="176.3992" y="-1410.3" font-family="Arial" font-size="14.00" fill="#000000"> </text>
<text text-anchor="start" x="180.2898" y="-1410.3" font-family="Arial" font-size="14.00" fill="#666666">[BASE TABLE]</text>
<polygon fill="none" stroke="#000000" points="43.5,-1367.5 43.5,-1397.5 280.5,-1397.5 280.5,-1367.5 43.5,-1367.5"/>
<text text-anchor="start" x="50.5" y="-1378.9" font-family="Arial" font-size="14.00" fill="#000000">event_id </text>
<text text-anchor="start" x="107.3008" y="-1378.9" font-family="Arial" font-size="14.00" fill="#666666">[char(36)]</text>
<polygon fill="none" stroke="#000000" points="43.5,-1337.5 43.5,-1367.5 280.5,-1367.5 280.5,-1337.5 43.5,-1337.5"/>
<text text-anchor="start" x="50.5" y="-1348.9" font-family="Arial" font-size="14.00" fill="#000000">channel_id </text>
<text text-anchor="start" x="122.082" y="-1348.9" font-family="Arial" font-size="14.00" fill="#666666">[char(36)]</text>
<polygon fill="none" stroke="#000000" points="43.5,-1307.5 43.5,-1337.5 280.5,-1337.5 280.5,-1307.5 43.5,-1307.5"/>
<text text-anchor="start" x="50.5" y="-1318.9" font-family="Arial" font-size="14.00" fill="#000000">event_type </text>
<text text-anchor="start" x="122.8674" y="-1318.9" font-family="Arial" font-size="14.00" fill="#666666">[varchar(30)]</text>
<polygon fill="none" stroke="#000000" points="43.5,-1277.5 43.5,-1307.5 280.5,-1307.5 280.5,-1277.5 43.5,-1277.5"/>
<text text-anchor="start" x="50.5" y="-1288.9" font-family="Arial" font-size="14.00" fill="#000000">detail </text>
<text text-anchor="start" x="87.8422" y="-1288.9" font-family="Arial" font-size="14.00" fill="#666666">[text]</text>
<polygon fill="none" stroke="#000000" points="43.5,-1247.5 43.5,-1277.5 280.5,-1277.5 280.5,-1247.5 43.5,-1247.5"/>
<text text-anchor="start" x="50.5" y="-1258.9" font-family="Arial" font-size="14.00" fill="#000000">date_time </text>
<text text-anchor="start" x="115.852" y="-1258.9" font-family="Arial" font-size="14.00" fill="#666666">[datetime(6)]</text>
</g>
<!-- channel_events&#45;&gt;channels -->
<g id="edge1" class="edge">
<title>channel_events:channel_id&#45;&gt;channels:id</title>
<path fill="none" stroke="#000000" d="M290.6411,-1352.0411C398.7754,-1341.6217 242.6355,-1156.4415 331.5,-1070 401.6695,-1001.7437 1104.6088,-937.5 1202.5,-937.5"/>
<polygon fill="#000000" stroke="#000000" points="290.4898,-1352.0478 280.2965,-1348.0046 285.4949,-1352.2739 280.5,-1352.5 280.5,-1352.5 280.5,-1352.5 285.4949,-1352.2739 280.7035,-1356.9954 290.4898,-1352.0478 290.4898,-1352.0478"/>
<text text-anchor="start" x="152.378" y="-1336.5" font-family="Arial" font-size="10.00" fill="#000000">FOREIGN KEY (channel_id) REFERENCES channels (id)</text>
</g>
<!-- dm_channel_mappings -->
<g id="node3" class="node">
<title>dm_channel_mappings</title>
<polygon fill="#efefef" stroke="transparent" points="384.5,-1367.5 384.5,-1402.5 681.5,-1402.5 681.5,-1367.5 384.5,-1367.5"/>
<polygon fill="none" stroke="#000000" points="384.5,-1367.5 384.5,-1402.5 681.5,-1402.5 681.5,-1367.5 384.5,-1367.5"/>
<text text-anchor="start" x="391.3464" y="-1380.3" font-family="Arial Bold" font-size="18.00" fill="#000000">dm_channel_mappings</text>
<text text-anchor="start" x="577.3998" y="-1380.3" font-family="Arial" font-size="14.00" fill="#000000"> </text>
<text text-anchor="start" x="581.2904" y="-1380.3" font-family="Arial" font-size="14.00" fill="#666666">[BASE TABLE]</text>
<polygon fill="none" stroke="#000000" points="384.5,-1337.5 384.5,-1367.5 681.5,-1367.5 681.5,-1337.5 384.5,-1337.5"/>
<text text-anchor="start" x="391.5" y="-1348.9" font-family="Arial" font-size="14.00" fill="#000000">channel_id </text>
<text text-anchor="start" x="463.082" y="-1348.9" font-family="Arial" font-size="14.00" fill="#666666">[char(36)]</text>
<polygon fill="none" stroke="#000000" points="384.5,-1307.5 384.5,-1337.5 681.5,-1337.5 681.5,-1307.5 384.5,-1307.5"/>
<text text-anchor="start" x="391.5" y="-1318.9" font-family="Arial" font-size="14.00" fill="#000000">user1 </text>
<text text-anchor="start" x="430.399" y="-1318.9" font-family="Arial" font-size="14.00" fill="#666666">[char(36)]</text>
<polygon fill="none" stroke="#000000" points="384.5,-1277.5 384.5,-1307.5 681.5,-1307.5 681.5,-1277.5 384.5,-1277.5"/>
<text text-anchor="start" x="391.5" y="-1288.9" font-family="Arial" font-size="14.00" fill="#000000">user2 </text>
<text text-anchor="start" x="430.399" y="-1288.9" font-family="Arial" font-size="14.00" fill="#666666">[char(36)]</text>
</g>
<!-- dm_channel_mappings&#45;&gt;channels -->
<g id="edge2" class="edge">
<title>dm_channel_mappings:channel_id&#45;&gt;channels:id</title>
<path fill="none" stroke="#000000" d="M691.5269,-1350.1619C739.106,-1325.5743 692.1253,-1114.4573 732.5,-1070 805.4549,-989.6682 1093.9845,-937.5 1202.5,-937.5"/>
<polygon fill="#000000" stroke="#000000" points="691.2387,-1350.229 680.4781,-1348.1176 686.3694,-1351.3645 681.5,-1352.5 681.5,-1352.5 681.5,-1352.5 686.3694,-1351.3645 682.5219,-1356.8824 691.2387,-1350.229 691.2387,-1350.229"/>
<text text-anchor="start" x="553.378" y="-1336.5" font-family="Arial" font-size="10.00" fill="#000000">FOREIGN KEY (channel_id) REFERENCES channels (id)</text>
</g>
<!-- files -->
<g id="node4" class="node">
<title>files</title>
<polygon fill="#efefef" stroke="transparent" points="785.5,-1532.5 785.5,-1567.5 956.5,-1567.5 956.5,-1532.5 785.5,-1532.5"/>
<polygon fill="none" stroke="#000000" points="785.5,-1532.5 785.5,-1567.5 956.5,-1567.5 956.5,-1532.5 785.5,-1532.5"/>
<text text-anchor="start" x="806.3747" y="-1545.3" font-family="Arial Bold" font-size="18.00" fill="#000000">files</text>
<text text-anchor="start" x="838.3715" y="-1545.3" font-family="Arial" font-size="14.00" fill="#000000"> </text>
<text text-anchor="start" x="842.2621" y="-1545.3" font-family="Arial" font-size="14.00" fill="#666666">[BASE TABLE]</text>
<polygon fill="none" stroke="#000000" points="785.5,-1502.5 785.5,-1532.5 956.5,-1532.5 956.5,-1502.5 785.5,-1502.5"/>
<text text-anchor="start" x="792.5" y="-1513.9" font-family="Arial" font-size="14.00" fill="#000000">id </text>
<text text-anchor="start" x="807.2798" y="-1513.9" font-family="Arial" font-size="14.00" fill="#666666">[char(36)]</text>
<polygon fill="none" stroke="#000000" points="785.5,-1472.5 785.5,-1502.5 956.5,-1502.5 956.5,-1472.5 785.5,-1472.5"/>
<text text-anchor="start" x="792.5" y="-1483.9" font-family="Arial" font-size="14.00" fill="#000000">name </text>
<text text-anchor="start" x="831.399" y="-1483.9" font-family="Arial" font-size="14.00" fill="#666666">[text]</text>
<polygon fill="none" stroke="#000000" points="785.5,-1442.5 785.5,-1472.5 956.5,-1472.5 956.5,-1442.5 785.5,-1442.5"/>
<text text-anchor="start" x="792.5" y="-1453.9" font-family="Arial" font-size="14.00" fill="#000000">mime </text>
<text text-anchor="start" x="830.601" y="-1453.9" font-family="Arial" font-size="14.00" fill="#666666">[text]</text>
<polygon fill="none" stroke="#000000" points="785.5,-1412.5 785.5,-1442.5 956.5,-1442.5 956.5,-1412.5 785.5,-1412.5"/>
<text text-anchor="start" x="792.5" y="-1423.9" font-family="Arial" font-size="14.00" fill="#000000">size </text>
<text text-anchor="start" x="821.2798" y="-1423.9" font-family="Arial" font-size="14.00" fill="#666666">[bigint(20)]</text>
<polygon fill="none" stroke="#000000" points="785.5,-1382.5 785.5,-1412.5 956.5,-1412.5 956.5,-1382.5 785.5,-1382.5"/>
<text text-anchor="start" x="792.5" y="-1393.9" font-family="Arial" font-size="14.00" fill="#000000">creator_id </text>
<text text-anchor="start" x="858.622" y="-1393.9" font-family="Arial" font-size="14.00" fill="#666666">[char(36)]</text>
<polygon fill="none" stroke="#000000" points="785.5,-1352.5 785.5,-1382.5 956.5,-1382.5 956.5,-1352.5 785.5,-1352.5"/>
<text text-anchor="start" x="792.5" y="-1363.9" font-family="Arial" font-size="14.00" fill="#000000">hash </text>
<text text-anchor="start" x="826.7384" y="-1363.9" font-family="Arial" font-size="14.00" fill="#666666">[char(32)]</text>
<polygon fill="none" stroke="#000000" points="785.5,-1322.5 785.5,-1352.5 956.5,-1352.5 956.5,-1322.5 785.5,-1322.5"/>
<text text-anchor="start" x="792.5" y="-1333.9" font-family="Arial" font-size="14.00" fill="#000000">type </text>
<text text-anchor="start" x="822.8464" y="-1333.9" font-family="Arial" font-size="14.00" fill="#666666">[varchar(30)]</text>
<polygon fill="none" stroke="#000000" points="785.5,-1292.5 785.5,-1322.5 956.5,-1322.5 956.5,-1292.5 785.5,-1292.5"/>
<text text-anchor="start" x="792.5" y="-1303.9" font-family="Arial" font-size="14.00" fill="#000000">has_thumbnail </text>
<text text-anchor="start" x="887.4158" y="-1303.9" font-family="Arial" font-size="14.00" fill="#666666">[tinyint(1)]</text>
<polygon fill="none" stroke="#000000" points="785.5,-1262.5 785.5,-1292.5 956.5,-1292.5 956.5,-1262.5 785.5,-1262.5"/>
<text text-anchor="start" x="792.5" y="-1273.9" font-family="Arial" font-size="14.00" fill="#000000">thumbnail_mime </text>
<text text-anchor="start" x="899.061" y="-1273.9" font-family="Arial" font-size="14.00" fill="#666666">[text]</text>
<polygon fill="none" stroke="#000000" points="785.5,-1232.5 785.5,-1262.5 956.5,-1262.5 956.5,-1232.5 785.5,-1232.5"/>
<text text-anchor="start" x="792.5" y="-1243.9" font-family="Arial" font-size="14.00" fill="#000000">thumbnail_width </text>
<text text-anchor="start" x="897.5196" y="-1243.9" font-family="Arial" font-size="14.00" fill="#666666">[int(11)]</text>
<polygon fill="none" stroke="#000000" points="785.5,-1202.5 785.5,-1232.5 956.5,-1232.5 956.5,-1202.5 785.5,-1202.5"/>
<text text-anchor="start" x="792.0372" y="-1213.9" font-family="Arial" font-size="14.00" fill="#000000">thumbnail_height </text>
<text text-anchor="start" x="902.5154" y="-1213.9" font-family="Arial" font-size="14.00" fill="#666666">[int(11)]</text>
<polygon fill="none" stroke="#000000" points="785.5,-1172.5 785.5,-1202.5 956.5,-1202.5 956.5,-1172.5 785.5,-1172.5"/>
<text text-anchor="start" x="792.5" y="-1183.9" font-family="Arial" font-size="14.00" fill="#000000">channel_id </text>
<text text-anchor="start" x="864.082" y="-1183.9" font-family="Arial" font-size="14.00" fill="#666666">[char(36)]</text>
<polygon fill="none" stroke="#000000" points="785.5,-1142.5 785.5,-1172.5 956.5,-1172.5 956.5,-1142.5 785.5,-1142.5"/>
<text text-anchor="start" x="792.5" y="-1153.9" font-family="Arial" font-size="14.00" fill="#000000">created_at </text>
<text text-anchor="start" x="862.528" y="-1153.9" font-family="Arial" font-size="14.00" fill="#666666">[datetime(6)]</text>
<polygon fill="none" stroke="#000000" points="785.5,-1112.5 785.5,-1142.5 956.5,-1142.5 956.5,-1112.5 785.5,-1112.5"/>
<text text-anchor="start" x="792.5" y="-1123.9" font-family="Arial" font-size="14.00" fill="#000000">deleted_at </text>
<text text-anchor="start" x="861.7566" y="-1123.9" font-family="Arial" font-size="14.00" fill="#666666">[datetime(6)]</text>
</g>
<!-- files&#45;&gt;channels -->
<g id="edge3" class="edge">
<title>files:channel_id&#45;&gt;channels:id</title>
<path fill="none" stroke="#000000" d="M966.5814,-1186.5559C1008.1653,-1177.849 973.5976,-1110.9319 1007.5,-1070 1074.3372,-989.3043 1097.7192,-937.5 1202.5,-937.5"/>
<polygon fill="#000000" stroke="#000000" points="966.4564,-1186.5675 956.0804,-1183.0196 961.4782,-1187.0337 956.5,-1187.5 956.5,-1187.5 956.5,-1187.5 961.4782,-1187.0337 956.9196,-1191.9804 966.4564,-1186.5675 966.4564,-1186.5675"/>
<text text-anchor="start" x="963.878" y="-1171.5" font-family="Arial" font-size="10.00" fill="#000000">FOREIGN KEY (channel_id) REFERENCES channels (id)</text>
</g>
<!-- messages -->
<g id="node5" class="node">
<title>messages</title>
<polygon fill="#efefef" stroke="transparent" points="1060.5,-1427.5 1060.5,-1462.5 1253.5,-1462.5 1253.5,-1427.5 1060.5,-1427.5"/>
<polygon fill="none" stroke="#000000" points="1060.5,-1427.5 1060.5,-1462.5 1253.5,-1462.5 1253.5,-1427.5 1060.5,-1427.5"/>
<text text-anchor="start" x="1067.3646" y="-1440.3" font-family="Arial Bold" font-size="18.00" fill="#000000">messages</text>
<text text-anchor="start" x="1149.3816" y="-1440.3" font-family="Arial" font-size="14.00" fill="#000000"> </text>
<text text-anchor="start" x="1153.2722" y="-1440.3" font-family="Arial" font-size="14.00" fill="#666666">[BASE TABLE]</text>
<polygon fill="none" stroke="#000000" points="1060.5,-1397.5 1060.5,-1427.5 1253.5,-1427.5 1253.5,-1397.5 1060.5,-1397.5"/>
<text text-anchor="start" x="1067.5" y="-1408.9" font-family="Arial" font-size="14.00" fill="#000000">id </text>
<text text-anchor="start" x="1082.2798" y="-1408.9" font-family="Arial" font-size="14.00" fill="#666666">[char(36)]</text>
<polygon fill="none" stroke="#000000" points="1060.5,-1367.5 1060.5,-1397.5 1253.5,-1397.5 1253.5,-1367.5 1060.5,-1367.5"/>
<text text-anchor="start" x="1067.5" y="-1378.9" font-family="Arial" font-size="14.00" fill="#000000">user_id </text>
<text text-anchor="start" x="1117.2882" y="-1378.9" font-family="Arial" font-size="14.00" fill="#666666">[char(36)]</text>
<polygon fill="none" stroke="#000000" points="1060.5,-1337.5 1060.5,-1367.5 1253.5,-1367.5 1253.5,-1337.5 1060.5,-1337.5"/>
<text text-anchor="start" x="1067.5" y="-1348.9" font-family="Arial" font-size="14.00" fill="#000000">channel_id </text>
<text text-anchor="start" x="1139.082" y="-1348.9" font-family="Arial" font-size="14.00" fill="#666666">[char(36)]</text>
<polygon fill="none" stroke="#000000" points="1060.5,-1307.5 1060.5,-1337.5 1253.5,-1337.5 1253.5,-1307.5 1060.5,-1307.5"/>
<text text-anchor="start" x="1067.5" y="-1318.9" font-family="Arial" font-size="14.00" fill="#000000">text </text>
<text text-anchor="start" x="1093.9544" y="-1318.9" font-family="Arial" font-size="14.00" fill="#666666">[text]</text>
<polygon fill="none" stroke="#000000" points="1060.5,-1277.5 1060.5,-1307.5 1253.5,-1307.5 1253.5,-1277.5 1060.5,-1277.5"/>
<text text-anchor="start" x="1067.5" y="-1288.9" font-family="Arial" font-size="14.00" fill="#000000">created_at </text>
<text text-anchor="start" x="1137.528" y="-1288.9" font-family="Arial" font-size="14.00" fill="#666666">[datetime(6)]</text>
<polygon fill="none" stroke="#000000" points="1060.5,-1247.5 1060.5,-1277.5 1253.5,-1277.5 1253.5,-1247.5 1060.5,-1247.5"/>
<text text-anchor="start" x="1067.5" y="-1258.9" font-family="Arial" font-size="14.00" fill="#000000">updated_at </text>
<text text-anchor="start" x="1141.4326" y="-1258.9" font-family="Arial" font-size="14.00" fill="#666666">[datetime(6)]</text>
<polygon fill="none" stroke="#000000" points="1060.5,-1217.5 1060.5,-1247.5 1253.5,-1247.5 1253.5,-1217.5 1060.5,-1217.5"/>
<text text-anchor="start" x="1067.5" y="-1228.9" font-family="Arial" font-size="14.00" fill="#000000">deleted_at </text>
<text text-anchor="start" x="1136.7566" y="-1228.9" font-family="Arial" font-size="14.00" fill="#666666">[datetime(6)]</text>
</g>
<!-- messages&#45;&gt;channels -->
<g id="edge4" class="edge">
<title>messages:channel_id&#45;&gt;channels:id</title>
<path fill="none" stroke="#000000" d="M1263.6637,-1351.8547C1326.3835,-1343.1927 1266.4826,-1249.0617 1253.5,-1175 1241.9939,-1109.3609 1214.0061,-1099.6391 1202.5,-1034 1195.0948,-991.7552 1159.6111,-937.5 1202.5,-937.5"/>
<polygon fill="#000000" stroke="#000000" points="1263.4799,-1351.8663 1253.2148,-1348.009 1258.49,-1352.1831 1253.5,-1352.5 1253.5,-1352.5 1253.5,-1352.5 1258.49,-1352.1831 1253.7852,-1356.991 1263.4799,-1351.8663 1263.4799,-1351.8663"/>
<text text-anchor="start" x="1260.878" y="-1362.5" font-family="Arial" font-size="10.00" fill="#000000">FOREIGN KEY (channel_id) REFERENCES channels (id)</text>
</g>
<!-- stars -->
<g id="node6" class="node">
<title>stars</title>
<polygon fill="#efefef" stroke="transparent" points="1357.5,-1352.5 1357.5,-1387.5 1507.5,-1387.5 1507.5,-1352.5 1357.5,-1352.5"/>
<polygon fill="none" stroke="#000000" points="1357.5,-1352.5 1357.5,-1387.5 1507.5,-1387.5 1507.5,-1352.5 1357.5,-1352.5"/>
<text text-anchor="start" x="1364.3728" y="-1365.3" font-family="Arial Bold" font-size="18.00" fill="#000000">stars</text>
<text text-anchor="start" x="1403.3734" y="-1365.3" font-family="Arial" font-size="14.00" fill="#000000"> </text>
<text text-anchor="start" x="1407.264" y="-1365.3" font-family="Arial" font-size="14.00" fill="#666666">[BASE TABLE]</text>
<polygon fill="none" stroke="#000000" points="1357.5,-1322.5 1357.5,-1352.5 1507.5,-1352.5 1507.5,-1322.5 1357.5,-1322.5"/>
<text text-anchor="start" x="1364.5" y="-1333.9" font-family="Arial" font-size="14.00" fill="#000000">user_id </text>
<text text-anchor="start" x="1414.2882" y="-1333.9" font-family="Arial" font-size="14.00" fill="#666666">[char(36)]</text>
<polygon fill="none" stroke="#000000" points="1357.5,-1292.5 1357.5,-1322.5 1507.5,-1322.5 1507.5,-1292.5 1357.5,-1292.5"/>
<text text-anchor="start" x="1364.5" y="-1303.9" font-family="Arial" font-size="14.00" fill="#000000">channel_id </text>
<text text-anchor="start" x="1436.082" y="-1303.9" font-family="Arial" font-size="14.00" fill="#666666">[char(36)]</text>
</g>
<!-- stars&#45;&gt;channels -->
<g id="edge5" class="edge">
<title>stars:channel_id&#45;&gt;channels:id</title>
<path fill="none" stroke="#000000" d="M1432.6515,-1282.1935C1437.1939,-1125.0206 1541.2352,-937.5 1385.5,-937.5"/>
<polygon fill="#000000" stroke="#000000" points="1432.6471,-1282.5011 1428.0005,-1292.4338 1432.5735,-1287.5005 1432.5,-1292.5 1432.5,-1292.5 1432.5,-1292.5 1432.5735,-1287.5005 1436.9995,-1292.5662 1432.6471,-1282.5011 1432.6471,-1282.5011"/>
<text text-anchor="start" x="1304.378" y="-1276.5" font-family="Arial" font-size="10.00" fill="#000000">FOREIGN KEY (channel_id) REFERENCES channels (id)</text>
</g>
<!-- users_private_channels -->
<g id="node7" class="node">
<title>users_private_channels</title>
<polygon fill="#efefef" stroke="transparent" points="1612.5,-1352.5 1612.5,-1387.5 1913.5,-1387.5 1913.5,-1352.5 1612.5,-1352.5"/>
<polygon fill="none" stroke="#000000" points="1612.5,-1352.5 1612.5,-1387.5 1913.5,-1387.5 1913.5,-1352.5 1612.5,-1352.5"/>
<text text-anchor="start" x="1619.3484" y="-1365.3" font-family="Arial Bold" font-size="18.00" fill="#000000">users_private_channels</text>
<text text-anchor="start" x="1809.3978" y="-1365.3" font-family="Arial" font-size="14.00" fill="#000000"> </text>
<text text-anchor="start" x="1813.2884" y="-1365.3" font-family="Arial" font-size="14.00" fill="#666666">[BASE TABLE]</text>
<polygon fill="none" stroke="#000000" points="1612.5,-1322.5 1612.5,-1352.5 1913.5,-1352.5 1913.5,-1322.5 1612.5,-1322.5"/>
<text text-anchor="start" x="1619.5" y="-1333.9" font-family="Arial" font-size="14.00" fill="#000000">user_id </text>
<text text-anchor="start" x="1669.2882" y="-1333.9" font-family="Arial" font-size="14.00" fill="#666666">[char(36)]</text>
<polygon fill="none" stroke="#000000" points="1612.5,-1292.5 1612.5,-1322.5 1913.5,-1322.5 1913.5,-1292.5 1612.5,-1292.5"/>
<text text-anchor="start" x="1619.5" y="-1303.9" font-family="Arial" font-size="14.00" fill="#000000">channel_id </text>
<text text-anchor="start" x="1691.082" y="-1303.9" font-family="Arial" font-size="14.00" fill="#666666">[char(36)]</text>
</g>
<!-- users_private_channels&#45;&gt;channels -->
<g id="edge6" class="edge">
<title>users_private_channels:channel_id&#45;&gt;channels:id</title>
<path fill="none" stroke="#000000" d="M1602.4457,-1307.0231C1511.6953,-1297.8369 1615.9042,-1158.0429 1559.5,-1070 1507.0652,-988.153 1482.7026,-937.5 1385.5,-937.5"/>
<polygon fill="#000000" stroke="#000000" points="1602.5112,-1307.0261 1612.2867,-1311.9949 1607.5056,-1307.263 1612.5,-1307.5 1612.5,-1307.5 1612.5,-1307.5 1607.5056,-1307.263 1612.7133,-1303.0051 1602.5112,-1307.0261 1602.5112,-1307.0261"/>
<text text-anchor="start" x="1619.878" y="-1317.5" font-family="Arial" font-size="10.00" fill="#000000">FOREIGN KEY (channel_id) REFERENCES channels (id)</text>
</g>
<!-- users_subscribe_channels -->
<g id="node8" class="node">
<title>users_subscribe_channels</title>
<polygon fill="#efefef" stroke="transparent" points="2017.5,-1352.5 2017.5,-1387.5 2341.5,-1387.5 2341.5,-1352.5 2017.5,-1352.5"/>
<polygon fill="none" stroke="#000000" points="2017.5,-1352.5 2017.5,-1387.5 2341.5,-1387.5 2341.5,-1352.5 2017.5,-1352.5"/>
<text text-anchor="start" x="2024.3464" y="-1365.3" font-family="Arial Bold" font-size="18.00" fill="#000000">users_subscribe_channels</text>
<text text-anchor="start" x="2237.3998" y="-1365.3" font-family="Arial" font-size="14.00" fill="#000000"> </text>
<text text-anchor="start" x="2241.2904" y="-1365.3" font-family="Arial" font-size="14.00" fill="#666666">[BASE TABLE]</text>
<polygon fill="none" stroke="#000000" points="2017.5,-1322.5 2017.5,-1352.5 2341.5,-1352.5 2341.5,-1322.5 2017.5,-1322.5"/>
<text text-anchor="start" x="2024.5" y="-1333.9" font-family="Arial" font-size="14.00" fill="#000000">user_id </text>
<text text-anchor="start" x="2074.2882" y="-1333.9" font-family="Arial" font-size="14.00" fill="#666666">[char(36)]</text>
<polygon fill="none" stroke="#000000" points="2017.5,-1292.5 2017.5,-1322.5 2341.5,-1322.5 2341.5,-1292.5 2017.5,-1292.5"/>
<text text-anchor="start" x="2024.5" y="-1303.9" font-family="Arial" font-size="14.00" fill="#000000">channel_id </text>
<text text-anchor="start" x="2096.082" y="-1303.9" font-family="Arial" font-size="14.00" fill="#666666">[char(36)]</text>
</g>
<!-- users_subscribe_channels&#45;&gt;channels -->
<g id="edge7" class="edge">
<title>users_subscribe_channels:channel_id&#45;&gt;channels:id</title>
<path fill="none" stroke="#000000" d="M2007.2439,-1306.9464C1918.2322,-1296.6095 2038.9609,-1144.1287 1965.5,-1070 1872.4377,-976.0919 1517.7094,-937.5 1385.5,-937.5"/>
<polygon fill="#000000" stroke="#000000" points="2007.5145,-1306.9609 2017.2574,-1311.9935 2012.5073,-1307.2305 2017.5,-1307.5 2017.5,-1307.5 2017.5,-1307.5 2012.5073,-1307.2305 2017.7426,-1303.0065 2007.5145,-1306.9609 2007.5145,-1306.9609"/>
<text text-anchor="start" x="1821.628" y="-1291.5" font-family="Arial" font-size="10.00" fill="#000000">FOREIGN KEY (channel_id) REFERENCES channels (id)</text>
</g>
<!-- webhook_bots -->
<g id="node9" class="node">
<title>webhook_bots</title>
<polygon fill="#efefef" stroke="transparent" points="2446.5,-1457.5 2446.5,-1492.5 2673.5,-1492.5 2673.5,-1457.5 2446.5,-1457.5"/>
<polygon fill="none" stroke="#000000" points="2446.5,-1457.5 2446.5,-1492.5 2673.5,-1492.5 2673.5,-1457.5 2446.5,-1457.5"/>
<text text-anchor="start" x="2453.3501" y="-1470.3" font-family="Arial Bold" font-size="18.00" fill="#000000">webhook_bots</text>
<text text-anchor="start" x="2569.3961" y="-1470.3" font-family="Arial" font-size="14.00" fill="#000000"> </text>
<text text-anchor="start" x="2573.2867" y="-1470.3" font-family="Arial" font-size="14.00" fill="#666666">[BASE TABLE]</text>
<polygon fill="none" stroke="#000000" points="2446.5,-1427.5 2446.5,-1457.5 2673.5,-1457.5 2673.5,-1427.5 2446.5,-1427.5"/>
<text text-anchor="start" x="2453.5" y="-1438.9" font-family="Arial" font-size="14.00" fill="#000000">id </text>
<text text-anchor="start" x="2468.2798" y="-1438.9" font-family="Arial" font-size="14.00" fill="#666666">[char(36)]</text>
<polygon fill="none" stroke="#000000" points="2446.5,-1397.5 2446.5,-1427.5 2673.5,-1427.5 2673.5,-1397.5 2446.5,-1397.5"/>
<text text-anchor="start" x="2453.5" y="-1408.9" font-family="Arial" font-size="14.00" fill="#000000">bot_user_id </text>
<text text-anchor="start" x="2530.5266" y="-1408.9" font-family="Arial" font-size="14.00" fill="#666666">[char(36)]</text>
<polygon fill="none" stroke="#000000" points="2446.5,-1367.5 2446.5,-1397.5 2673.5,-1397.5 2673.5,-1367.5 2446.5,-1367.5"/>
<text text-anchor="start" x="2453.5" y="-1378.9" font-family="Arial" font-size="14.00" fill="#000000">description </text>
<text text-anchor="start" x="2525.068" y="-1378.9" font-family="Arial" font-size="14.00" fill="#666666">[text]</text>
<polygon fill="none" stroke="#000000" points="2446.5,-1337.5 2446.5,-1367.5 2673.5,-1367.5 2673.5,-1337.5 2446.5,-1337.5"/>
<text text-anchor="start" x="2453.5" y="-1348.9" font-family="Arial" font-size="14.00" fill="#000000">secret </text>
<text text-anchor="start" x="2495.507" y="-1348.9" font-family="Arial" font-size="14.00" fill="#666666">[text]</text>
<polygon fill="none" stroke="#000000" points="2446.5,-1307.5 2446.5,-1337.5 2673.5,-1337.5 2673.5,-1307.5 2446.5,-1307.5"/>
<text text-anchor="start" x="2453.5" y="-1318.9" font-family="Arial" font-size="14.00" fill="#000000">channel_id </text>
<text text-anchor="start" x="2525.082" y="-1318.9" font-family="Arial" font-size="14.00" fill="#666666">[char(36)]</text>
<polygon fill="none" stroke="#000000" points="2446.5,-1277.5 2446.5,-1307.5 2673.5,-1307.5 2673.5,-1277.5 2446.5,-1277.5"/>
<text text-anchor="start" x="2453.5" y="-1288.9" font-family="Arial" font-size="14.00" fill="#000000">creator_id </text>
<text text-anchor="start" x="2519.622" y="-1288.9" font-family="Arial" font-size="14.00" fill="#666666">[char(36)]</text>
<polygon fill="none" stroke="#000000" points="2446.5,-1247.5 2446.5,-1277.5 2673.5,-1277.5 2673.5,-1247.5 2446.5,-1247.5"/>
<text text-anchor="start" x="2453.5" y="-1258.9" font-family="Arial" font-size="14.00" fill="#000000">created_at </text>
<text text-anchor="start" x="2523.528" y="-1258.9" font-family="Arial" font-size="14.00" fill="#666666">[datetime(6)]</text>
<polygon fill="none" stroke="#000000" points="2446.5,-1217.5 2446.5,-1247.5 2673.5,-1247.5 2673.5,-1217.5 2446.5,-1217.5"/>
<text text-anchor="start" x="2453.5" y="-1228.9" font-family="Arial" font-size="14.00" fill="#000000">updated_at </text>
<text text-anchor="start" x="2527.4326" y="-1228.9" font-family="Arial" font-size="14.00" fill="#666666">[datetime(6)]</text>
<polygon fill="none" stroke="#000000" points="2446.5,-1187.5 2446.5,-1217.5 2673.5,-1217.5 2673.5,-1187.5 2446.5,-1187.5"/>
<text text-anchor="start" x="2453.5" y="-1198.9" font-family="Arial" font-size="14.00" fill="#000000">deleted_at </text>
<text text-anchor="start" x="2522.7566" y="-1198.9" font-family="Arial" font-size="14.00" fill="#666666">[datetime(6)]</text>
</g>
<!-- webhook_bots&#45;&gt;channels -->
<g id="edge8" class="edge">
<title>webhook_bots:channel_id&#45;&gt;channels:id</title>
<path fill="none" stroke="#000000" d="M2436.498,-1321.9969C2340.719,-1311.6841 2474.9834,-1145.4996 2393.5,-1070 2310.6382,-993.2233 1498.4635,-937.5 1385.5,-937.5"/>
<polygon fill="#000000" stroke="#000000" points="2436.5126,-1321.9975 2446.2739,-1326.9943 2441.5063,-1322.2487 2446.5,-1322.5 2446.5,-1322.5 2446.5,-1322.5 2441.5063,-1322.2487 2446.7261,-1318.0057 2436.5126,-1321.9975 2436.5126,-1321.9975"/>
<text text-anchor="start" x="2182.878" y="-1332.5" font-family="Arial" font-size="10.00" fill="#000000">FOREIGN KEY (channel_id) REFERENCES channels (id)</text>
</g>
</g>
</svg>
