<?xml version="1.0" encoding="UTF-8" standalone="no"?>
<!DOCTYPE svg PUBLIC "-//W3C//DTD SVG 1.1//EN"
 "http://www.w3.org/Graphics/SVG/1.1/DTD/svg11.dtd">
<!-- Generated by graphviz version 2.40.1 (20161225.0304)
 -->
<!-- Title: channels Pages: 1 -->
<svg width="2449pt" height="1469pt"
     viewBox="0.00 0.00 2449.00 1469.00" xmlns="http://www.w3.org/2000/svg">
<g id="graph0" class="graph" transform="scale(1 1) rotate(0) translate(4 1465)">
<title>channels</title>
<polygon fill="#ffffff" stroke="transparent" points="-4,4 -4,-1465 2445,-1465 2445,4 -4,4"/>
<!-- channels -->
<g id="node1" class="node">
<title>channels</title>
<polygon fill="#efefef" stroke="transparent" points="1065.5,-952.5 1065.5,-987.5 1248.5,-987.5 1248.5,-952.5 1065.5,-952.5"/>
<polygon fill="none" stroke="#000000" points="1065.5,-952.5 1065.5,-987.5 1248.5,-987.5 1248.5,-952.5 1065.5,-952.5"/>
<text text-anchor="start" x="1072.3605" y="-965.3" font-family="Arial Bold" font-size="18.00" fill="#000000">channels</text>
<text text-anchor="start" x="1144.3857" y="-965.3" font-family="Arial" font-size="14.00" fill="#000000"> </text>
<text text-anchor="start" x="1148.2763" y="-965.3" font-family="Arial" font-size="14.00" fill="#666666">[BASE TABLE]</text>
<polygon fill="none" stroke="#000000" points="1065.5,-922.5 1065.5,-952.5 1248.5,-952.5 1248.5,-922.5 1065.5,-922.5"/>
<text text-anchor="start" x="1072.5" y="-933.9" font-family="Arial" font-size="14.00" fill="#000000">id </text>
<text text-anchor="start" x="1087.2798" y="-933.9" font-family="Arial" font-size="14.00" fill="#666666">[char(36)]</text>
<polygon fill="none" stroke="#000000" points="1065.5,-892.5 1065.5,-922.5 1248.5,-922.5 1248.5,-892.5 1065.5,-892.5"/>
<text text-anchor="start" x="1072.5" y="-903.9" font-family="Arial" font-size="14.00" fill="#000000">name </text>
<text text-anchor="start" x="1111.399" y="-903.9" font-family="Arial" font-size="14.00" fill="#666666">[varchar(20)]</text>
<polygon fill="none" stroke="#000000" points="1065.5,-862.5 1065.5,-892.5 1248.5,-892.5 1248.5,-862.5 1065.5,-862.5"/>
<text text-anchor="start" x="1072.5" y="-873.9" font-family="Arial" font-size="14.00" fill="#000000">parent_id </text>
<text text-anchor="start" x="1134.744" y="-873.9" font-family="Arial" font-size="14.00" fill="#666666">[char(36)]</text>
<polygon fill="none" stroke="#000000" points="1065.5,-832.5 1065.5,-862.5 1248.5,-862.5 1248.5,-832.5 1065.5,-832.5"/>
<text text-anchor="start" x="1072.5" y="-843.9" font-family="Arial" font-size="14.00" fill="#000000">topic </text>
<text text-anchor="start" x="1105.953" y="-843.9" font-family="Arial" font-size="14.00" fill="#666666">[text]</text>
<polygon fill="none" stroke="#000000" points="1065.5,-802.5 1065.5,-832.5 1248.5,-832.5 1248.5,-802.5 1065.5,-802.5"/>
<text text-anchor="start" x="1072.5" y="-813.9" font-family="Arial" font-size="14.00" fill="#000000">is_forced </text>
<text text-anchor="start" x="1133.1788" y="-813.9" font-family="Arial" font-size="14.00" fill="#666666">[tinyint(1)]</text>
<polygon fill="none" stroke="#000000" points="1065.5,-772.5 1065.5,-802.5 1248.5,-802.5 1248.5,-772.5 1065.5,-772.5"/>
<text text-anchor="start" x="1072.5" y="-783.9" font-family="Arial" font-size="14.00" fill="#000000">is_public </text>
<text text-anchor="start" x="1130.8408" y="-783.9" font-family="Arial" font-size="14.00" fill="#666666">[tinyint(1)]</text>
<polygon fill="none" stroke="#000000" points="1065.5,-742.5 1065.5,-772.5 1248.5,-772.5 1248.5,-742.5 1065.5,-742.5"/>
<text text-anchor="start" x="1072.5" y="-753.9" font-family="Arial" font-size="14.00" fill="#000000">is_visible </text>
<text text-anchor="start" x="1133.1648" y="-753.9" font-family="Arial" font-size="14.00" fill="#666666">[tinyint(1)]</text>
<polygon fill="none" stroke="#000000" points="1065.5,-712.5 1065.5,-742.5 1248.5,-742.5 1248.5,-712.5 1065.5,-712.5"/>
<text text-anchor="start" x="1072.5" y="-723.9" font-family="Arial" font-size="14.00" fill="#000000">creator_id </text>
<text text-anchor="start" x="1138.622" y="-723.9" font-family="Arial" font-size="14.00" fill="#666666">[char(36)]</text>
<polygon fill="none" stroke="#000000" points="1065.5,-682.5 1065.5,-712.5 1248.5,-712.5 1248.5,-682.5 1065.5,-682.5"/>
<text text-anchor="start" x="1072.5" y="-693.9" font-family="Arial" font-size="14.00" fill="#000000">updater_id </text>
<text text-anchor="start" x="1142.5266" y="-693.9" font-family="Arial" font-size="14.00" fill="#666666">[char(36)]</text>
<polygon fill="none" stroke="#000000" points="1065.5,-652.5 1065.5,-682.5 1248.5,-682.5 1248.5,-652.5 1065.5,-652.5"/>
<text text-anchor="start" x="1072.5" y="-663.9" font-family="Arial" font-size="14.00" fill="#000000">created_at </text>
<text text-anchor="start" x="1142.528" y="-663.9" font-family="Arial" font-size="14.00" fill="#666666">[datetime(6)]</text>
<polygon fill="none" stroke="#000000" points="1065.5,-622.5 1065.5,-652.5 1248.5,-652.5 1248.5,-622.5 1065.5,-622.5"/>
<text text-anchor="start" x="1072.5" y="-633.9" font-family="Arial" font-size="14.00" fill="#000000">updated_at </text>
<text text-anchor="start" x="1146.4326" y="-633.9" font-family="Arial" font-size="14.00" fill="#666666">[datetime(6)]</text>
<polygon fill="none" stroke="#000000" points="1065.5,-592.5 1065.5,-622.5 1248.5,-622.5 1248.5,-592.5 1065.5,-592.5"/>
<text text-anchor="start" x="1072.5" y="-603.9" font-family="Arial" font-size="14.00" fill="#000000">deleted_at </text>
<text text-anchor="start" x="1141.7566" y="-603.9" font-family="Arial" font-size="14.00" fill="#666666">[datetime(6)]</text>
<polygon fill="none" stroke="#000000" stroke-width="3" points="1063.5,-591.5 1063.5,-989.5 1249.5,-989.5 1249.5,-591.5 1063.5,-591.5"/>
</g>
<!-- channels&#45;&gt;channels -->
<g id="edge8" class="edge">
<title>channels:parent_id&#45;&gt;channels:id</title>
<path fill="none" stroke="#000000" stroke-dasharray="5,2" d="M1158.8325,-903.068C1166.4756,-1061.3303 1166.0314,-1271 1157.5,-1271 1148.7813,-1271 1148.5088,-1108.3307 1156.6826,-952.5485"/>
<polygon fill="#000000" stroke="#000000" points="1158.8147,-902.7083 1162.8118,-892.4968 1158.566,-897.7144 1158.3174,-892.7206 1158.3174,-892.7206 1158.3174,-892.7206 1158.566,-897.7144 1153.8229,-892.9444 1158.8147,-902.7083 1158.8147,-902.7083"/>
<text text-anchor="start" x="1068.6419" y="-902.7206" font-family="Arial" font-size="10.00" fill="#000000">Additional Relation</text>
</g>
<!-- users -->
<g id="node9" class="node">
<title>users</title>
<polygon fill="#efefef" stroke="transparent" points="1065.5,-432.5 1065.5,-467.5 1248.5,-467.5 1248.5,-432.5 1065.5,-432.5"/>
<polygon fill="none" stroke="#000000" points="1065.5,-432.5 1065.5,-467.5 1248.5,-467.5 1248.5,-432.5 1065.5,-432.5"/>
<text text-anchor="start" x="1086.3708" y="-445.3" font-family="Arial Bold" font-size="18.00" fill="#000000">users</text>
<text text-anchor="start" x="1130.3754" y="-445.3" font-family="Arial" font-size="14.00" fill="#000000"> </text>
<text text-anchor="start" x="1134.266" y="-445.3" font-family="Arial" font-size="14.00" fill="#666666">[BASE TABLE]</text>
<polygon fill="none" stroke="#000000" points="1065.5,-402.5 1065.5,-432.5 1248.5,-432.5 1248.5,-402.5 1065.5,-402.5"/>
<text text-anchor="start" x="1072.5" y="-413.9" font-family="Arial" font-size="14.00" fill="#000000">id </text>
<text text-anchor="start" x="1087.2798" y="-413.9" font-family="Arial" font-size="14.00" fill="#666666">[char(36)]</text>
<polygon fill="none" stroke="#000000" points="1065.5,-372.5 1065.5,-402.5 1248.5,-402.5 1248.5,-372.5 1065.5,-372.5"/>
<text text-anchor="start" x="1072.5" y="-383.9" font-family="Arial" font-size="14.00" fill="#000000">name </text>
<text text-anchor="start" x="1111.399" y="-383.9" font-family="Arial" font-size="14.00" fill="#666666">[varchar(32)]</text>
<polygon fill="none" stroke="#000000" points="1065.5,-342.5 1065.5,-372.5 1248.5,-372.5 1248.5,-342.5 1065.5,-342.5"/>
<text text-anchor="start" x="1072.2104" y="-353.9" font-family="Arial" font-size="14.00" fill="#000000">display_name </text>
<text text-anchor="start" x="1162.453" y="-353.9" font-family="Arial" font-size="14.00" fill="#666666">[varchar(64)]</text>
<polygon fill="none" stroke="#000000" points="1065.5,-312.5 1065.5,-342.5 1248.5,-342.5 1248.5,-312.5 1065.5,-312.5"/>
<text text-anchor="start" x="1072.5" y="-323.9" font-family="Arial" font-size="14.00" fill="#000000">password </text>
<text text-anchor="start" x="1136.2882" y="-323.9" font-family="Arial" font-size="14.00" fill="#666666">[char(128)]</text>
<polygon fill="none" stroke="#000000" points="1065.5,-282.5 1065.5,-312.5 1248.5,-312.5 1248.5,-282.5 1065.5,-282.5"/>
<text text-anchor="start" x="1072.5" y="-293.9" font-family="Arial" font-size="14.00" fill="#000000">salt </text>
<text text-anchor="start" x="1098.1704" y="-293.9" font-family="Arial" font-size="14.00" fill="#666666">[char(128)]</text>
<polygon fill="none" stroke="#000000" points="1065.5,-252.5 1065.5,-282.5 1248.5,-282.5 1248.5,-252.5 1065.5,-252.5"/>
<text text-anchor="start" x="1072.5" y="-263.9" font-family="Arial" font-size="14.00" fill="#000000">icon </text>
<text text-anchor="start" x="1102.0624" y="-263.9" font-family="Arial" font-size="14.00" fill="#666666">[char(36)]</text>
<polygon fill="none" stroke="#000000" points="1065.5,-222.5 1065.5,-252.5 1248.5,-252.5 1248.5,-222.5 1065.5,-222.5"/>
<text text-anchor="start" x="1072.5" y="-233.9" font-family="Arial" font-size="14.00" fill="#000000">status </text>
<text text-anchor="start" x="1113.737" y="-233.9" font-family="Arial" font-size="14.00" fill="#666666">[tinyint(4)]</text>
<polygon fill="none" stroke="#000000" points="1065.5,-192.5 1065.5,-222.5 1248.5,-222.5 1248.5,-192.5 1065.5,-192.5"/>
<text text-anchor="start" x="1072.5" y="-203.9" font-family="Arial" font-size="14.00" fill="#000000">bot </text>
<text text-anchor="start" x="1095.8464" y="-203.9" font-family="Arial" font-size="14.00" fill="#666666">[tinyint(1)]</text>
<polygon fill="none" stroke="#000000" points="1065.5,-162.5 1065.5,-192.5 1248.5,-192.5 1248.5,-162.5 1065.5,-162.5"/>
<text text-anchor="start" x="1072.5" y="-173.9" font-family="Arial" font-size="14.00" fill="#000000">role </text>
<text text-anchor="start" x="1099.723" y="-173.9" font-family="Arial" font-size="14.00" fill="#666666">[varchar(30)]</text>
<polygon fill="none" stroke="#000000" points="1065.5,-132.5 1065.5,-162.5 1248.5,-162.5 1248.5,-132.5 1065.5,-132.5"/>
<text text-anchor="start" x="1072.5" y="-143.9" font-family="Arial" font-size="14.00" fill="#000000">twitter_id </text>
<text text-anchor="start" x="1132.3906" y="-143.9" font-family="Arial" font-size="14.00" fill="#666666">[varchar(15)]</text>
<polygon fill="none" stroke="#000000" points="1065.5,-102.5 1065.5,-132.5 1248.5,-132.5 1248.5,-102.5 1065.5,-102.5"/>
<text text-anchor="start" x="1072.5" y="-113.9" font-family="Arial" font-size="14.00" fill="#000000">last_online </text>
<text text-anchor="start" x="1143.2966" y="-113.9" font-family="Arial" font-size="14.00" fill="#666666">[datetime(6)]</text>
<polygon fill="none" stroke="#000000" points="1065.5,-72.5 1065.5,-102.5 1248.5,-102.5 1248.5,-72.5 1065.5,-72.5"/>
<text text-anchor="start" x="1072.5" y="-83.9" font-family="Arial" font-size="14.00" fill="#000000">created_at </text>
<text text-anchor="start" x="1142.528" y="-83.9" font-family="Arial" font-size="14.00" fill="#666666">[datetime(6)]</text>
<polygon fill="none" stroke="#000000" points="1065.5,-42.5 1065.5,-72.5 1248.5,-72.5 1248.5,-42.5 1065.5,-42.5"/>
<text text-anchor="start" x="1072.5" y="-53.9" font-family="Arial" font-size="14.00" fill="#000000">updated_at </text>
<text text-anchor="start" x="1146.4326" y="-53.9" font-family="Arial" font-size="14.00" fill="#666666">[datetime(6)]</text>
</g>
<!-- channels&#45;&gt;users -->
<g id="edge9" class="edge">
<title>channels:creator_id&#45;&gt;users:id</title>
<path fill="none" stroke="#000000" stroke-dasharray="5,2" d="M1055.2717,-726.9106C927.811,-711.9577 931.2205,-417.5 1065.5,-417.5"/>
<polygon fill="#000000" stroke="#000000" points="1055.5166,-726.9246 1065.2411,-731.9925 1060.5083,-727.2123 1065.5,-727.5 1065.5,-727.5 1065.5,-727.5 1060.5083,-727.2123 1065.7589,-723.0075 1055.5166,-726.9246 1055.5166,-726.9246"/>
<text text-anchor="start" x="975.8245" y="-737.5" font-family="Arial" font-size="10.00" fill="#000000">Additional Relation</text>
</g>
<!-- channel_events -->
<g id="node2" class="node">
<title>channel_events</title>
<polygon fill="#efefef" stroke="transparent" points="43.5,-1322.5 43.5,-1357.5 280.5,-1357.5 280.5,-1322.5 43.5,-1322.5"/>
<polygon fill="none" stroke="#000000" points="43.5,-1322.5 43.5,-1357.5 280.5,-1357.5 280.5,-1322.5 43.5,-1322.5"/>
<text text-anchor="start" x="50.347" y="-1335.3" font-family="Arial Bold" font-size="18.00" fill="#000000">channel_events</text>
<text text-anchor="start" x="176.3992" y="-1335.3" font-family="Arial" font-size="14.00" fill="#000000"> </text>
<text text-anchor="start" x="180.2898" y="-1335.3" font-family="Arial" font-size="14.00" fill="#666666">[BASE TABLE]</text>
<polygon fill="none" stroke="#000000" points="43.5,-1292.5 43.5,-1322.5 280.5,-1322.5 280.5,-1292.5 43.5,-1292.5"/>
<text text-anchor="start" x="50.5" y="-1303.9" font-family="Arial" font-size="14.00" fill="#000000">event_id </text>
<text text-anchor="start" x="107.3008" y="-1303.9" font-family="Arial" font-size="14.00" fill="#666666">[char(36)]</text>
<polygon fill="none" stroke="#000000" points="43.5,-1262.5 43.5,-1292.5 280.5,-1292.5 280.5,-1262.5 43.5,-1262.5"/>
<text text-anchor="start" x="50.5" y="-1273.9" font-family="Arial" font-size="14.00" fill="#000000">channel_id </text>
<text text-anchor="start" x="122.082" y="-1273.9" font-family="Arial" font-size="14.00" fill="#666666">[char(36)]</text>
<polygon fill="none" stroke="#000000" points="43.5,-1232.5 43.5,-1262.5 280.5,-1262.5 280.5,-1232.5 43.5,-1232.5"/>
<text text-anchor="start" x="50.5" y="-1243.9" font-family="Arial" font-size="14.00" fill="#000000">event_type </text>
<text text-anchor="start" x="122.8674" y="-1243.9" font-family="Arial" font-size="14.00" fill="#666666">[varchar(30)]</text>
<polygon fill="none" stroke="#000000" points="43.5,-1202.5 43.5,-1232.5 280.5,-1232.5 280.5,-1202.5 43.5,-1202.5"/>
<text text-anchor="start" x="50.5" y="-1213.9" font-family="Arial" font-size="14.00" fill="#000000">detail </text>
<text text-anchor="start" x="87.8422" y="-1213.9" font-family="Arial" font-size="14.00" fill="#666666">[text]</text>
<polygon fill="none" stroke="#000000" points="43.5,-1172.5 43.5,-1202.5 280.5,-1202.5 280.5,-1172.5 43.5,-1172.5"/>
<text text-anchor="start" x="50.5" y="-1183.9" font-family="Arial" font-size="14.00" fill="#000000">date_time </text>
<text text-anchor="start" x="115.852" y="-1183.9" font-family="Arial" font-size="14.00" fill="#666666">[datetime(6)]</text>
</g>
<!-- channel_events&#45;&gt;channels -->
<g id="edge1" class="edge">
<title>channel_events:channel_id&#45;&gt;channels:id</title>
<path fill="none" stroke="#000000" d="M290.6994,-1276.8609C366.903,-1266.4872 264.9894,-1132.4839 331.5,-1070 452.3008,-956.5127 899.7526,-937.5 1065.5,-937.5"/>
<polygon fill="#000000" stroke="#000000" points="290.4804,-1276.8745 280.2185,-1273.0088 285.4902,-1277.1873 280.5,-1277.5 280.5,-1277.5 280.5,-1277.5 285.4902,-1277.1873 280.7815,-1281.9912 290.4804,-1276.8745 290.4804,-1276.8745"/>
<text text-anchor="start" x="152.378" y="-1261.5" font-family="Arial" font-size="10.00" fill="#000000">FOREIGN KEY (channel_id) REFERENCES channels (id)</text>
</g>
<!-- dm_channel_mappings -->
<g id="node3" class="node">
<title>dm_channel_mappings</title>
<polygon fill="#efefef" stroke="transparent" points="384.5,-1292.5 384.5,-1327.5 681.5,-1327.5 681.5,-1292.5 384.5,-1292.5"/>
<polygon fill="none" stroke="#000000" points="384.5,-1292.5 384.5,-1327.5 681.5,-1327.5 681.5,-1292.5 384.5,-1292.5"/>
<text text-anchor="start" x="391.3464" y="-1305.3" font-family="Arial Bold" font-size="18.00" fill="#000000">dm_channel_mappings</text>
<text text-anchor="start" x="577.3998" y="-1305.3" font-family="Arial" font-size="14.00" fill="#000000"> </text>
<text text-anchor="start" x="581.2904" y="-1305.3" font-family="Arial" font-size="14.00" fill="#666666">[BASE TABLE]</text>
<polygon fill="none" stroke="#000000" points="384.5,-1262.5 384.5,-1292.5 681.5,-1292.5 681.5,-1262.5 384.5,-1262.5"/>
<text text-anchor="start" x="391.5" y="-1273.9" font-family="Arial" font-size="14.00" fill="#000000">channel_id </text>
<text text-anchor="start" x="463.082" y="-1273.9" font-family="Arial" font-size="14.00" fill="#666666">[char(36)]</text>
<polygon fill="none" stroke="#000000" points="384.5,-1232.5 384.5,-1262.5 681.5,-1262.5 681.5,-1232.5 384.5,-1232.5"/>
<text text-anchor="start" x="391.5" y="-1243.9" font-family="Arial" font-size="14.00" fill="#000000">user1 </text>
<text text-anchor="start" x="430.399" y="-1243.9" font-family="Arial" font-size="14.00" fill="#666666">[char(36)]</text>
<polygon fill="none" stroke="#000000" points="384.5,-1202.5 384.5,-1232.5 681.5,-1232.5 681.5,-1202.5 384.5,-1202.5"/>
<text text-anchor="start" x="391.5" y="-1213.9" font-family="Arial" font-size="14.00" fill="#000000">user2 </text>
<text text-anchor="start" x="430.399" y="-1213.9" font-family="Arial" font-size="14.00" fill="#666666">[char(36)]</text>
</g>
<!-- dm_channel_mappings&#45;&gt;channels -->
<g id="edge2" class="edge">
<title>dm_channel_mappings:channel_id&#45;&gt;channels:id</title>
<path fill="none" stroke="#000000" d="M691.7295,-1276.8899C768.4165,-1266.9818 672.5631,-1138.8147 732.5,-1070 837.1173,-949.887 906.2144,-937.5 1065.5,-937.5"/>
<polygon fill="#000000" stroke="#000000" points="691.4823,-1276.9045 681.232,-1273.008 686.4911,-1277.2023 681.5,-1277.5 681.5,-1277.5 681.5,-1277.5 686.4911,-1277.2023 681.768,-1281.992 691.4823,-1276.9045 691.4823,-1276.9045"/>
<text text-anchor="start" x="553.378" y="-1261.5" font-family="Arial" font-size="10.00" fill="#000000">FOREIGN KEY (channel_id) REFERENCES channels (id)</text>
</g>
<!-- messages -->
<g id="node4" class="node">
<title>messages</title>
<polygon fill="#efefef" stroke="transparent" points="785.5,-1352.5 785.5,-1387.5 978.5,-1387.5 978.5,-1352.5 785.5,-1352.5"/>
<polygon fill="none" stroke="#000000" points="785.5,-1352.5 785.5,-1387.5 978.5,-1387.5 978.5,-1352.5 785.5,-1352.5"/>
<text text-anchor="start" x="792.3646" y="-1365.3" font-family="Arial Bold" font-size="18.00" fill="#000000">messages</text>
<text text-anchor="start" x="874.3816" y="-1365.3" font-family="Arial" font-size="14.00" fill="#000000"> </text>
<text text-anchor="start" x="878.2722" y="-1365.3" font-family="Arial" font-size="14.00" fill="#666666">[BASE TABLE]</text>
<polygon fill="none" stroke="#000000" points="785.5,-1322.5 785.5,-1352.5 978.5,-1352.5 978.5,-1322.5 785.5,-1322.5"/>
<text text-anchor="start" x="792.5" y="-1333.9" font-family="Arial" font-size="14.00" fill="#000000">id </text>
<text text-anchor="start" x="807.2798" y="-1333.9" font-family="Arial" font-size="14.00" fill="#666666">[char(36)]</text>
<polygon fill="none" stroke="#000000" points="785.5,-1292.5 785.5,-1322.5 978.5,-1322.5 978.5,-1292.5 785.5,-1292.5"/>
<text text-anchor="start" x="792.5" y="-1303.9" font-family="Arial" font-size="14.00" fill="#000000">user_id </text>
<text text-anchor="start" x="842.2882" y="-1303.9" font-family="Arial" font-size="14.00" fill="#666666">[char(36)]</text>
<polygon fill="none" stroke="#000000" points="785.5,-1262.5 785.5,-1292.5 978.5,-1292.5 978.5,-1262.5 785.5,-1262.5"/>
<text text-anchor="start" x="792.5" y="-1273.9" font-family="Arial" font-size="14.00" fill="#000000">channel_id </text>
<text text-anchor="start" x="864.082" y="-1273.9" font-family="Arial" font-size="14.00" fill="#666666">[char(36)]</text>
<polygon fill="none" stroke="#000000" points="785.5,-1232.5 785.5,-1262.5 978.5,-1262.5 978.5,-1232.5 785.5,-1232.5"/>
<text text-anchor="start" x="792.5" y="-1243.9" font-family="Arial" font-size="14.00" fill="#000000">text </text>
<text text-anchor="start" x="818.9544" y="-1243.9" font-family="Arial" font-size="14.00" fill="#666666">[text]</text>
<polygon fill="none" stroke="#000000" points="785.5,-1202.5 785.5,-1232.5 978.5,-1232.5 978.5,-1202.5 785.5,-1202.5"/>
<text text-anchor="start" x="792.5" y="-1213.9" font-family="Arial" font-size="14.00" fill="#000000">created_at </text>
<text text-anchor="start" x="862.528" y="-1213.9" font-family="Arial" font-size="14.00" fill="#666666">[datetime(6)]</text>
<polygon fill="none" stroke="#000000" points="785.5,-1172.5 785.5,-1202.5 978.5,-1202.5 978.5,-1172.5 785.5,-1172.5"/>
<text text-anchor="start" x="792.5" y="-1183.9" font-family="Arial" font-size="14.00" fill="#000000">updated_at </text>
<text text-anchor="start" x="866.4326" y="-1183.9" font-family="Arial" font-size="14.00" fill="#666666">[datetime(6)]</text>
<polygon fill="none" stroke="#000000" points="785.5,-1142.5 785.5,-1172.5 978.5,-1172.5 978.5,-1142.5 785.5,-1142.5"/>
<text text-anchor="start" x="792.5" y="-1153.9" font-family="Arial" font-size="14.00" fill="#000000">deleted_at </text>
<text text-anchor="start" x="861.7566" y="-1153.9" font-family="Arial" font-size="14.00" fill="#666666">[datetime(6)]</text>
</g>
<!-- messages&#45;&gt;channels -->
<g id="edge3" class="edge">
<title>messages:channel_id&#45;&gt;channels:id</title>
<path fill="none" stroke="#000000" d="M988.5288,-1275.3288C1050.346,-1246.3721 991.1659,-937.5 1065.5,-937.5"/>
<polygon fill="#000000" stroke="#000000" points="988.2736,-1275.384 977.5478,-1273.1019 983.3868,-1276.442 978.5,-1277.5 978.5,-1277.5 978.5,-1277.5 983.3868,-1276.442 979.4522,-1281.8981 988.2736,-1275.384 988.2736,-1275.384"/>
<text text-anchor="start" x="985.878" y="-1287.5" font-family="Arial" font-size="10.00" fill="#000000">FOREIGN KEY (channel_id) REFERENCES channels (id)</text>
</g>
<!-- stars -->
<g id="node5" class="node">
<title>stars</title>
<polygon fill="#efefef" stroke="transparent" points="1082.5,-1277.5 1082.5,-1312.5 1232.5,-1312.5 1232.5,-1277.5 1082.5,-1277.5"/>
<polygon fill="none" stroke="#000000" points="1082.5,-1277.5 1082.5,-1312.5 1232.5,-1312.5 1232.5,-1277.5 1082.5,-1277.5"/>
<text text-anchor="start" x="1089.3728" y="-1290.3" font-family="Arial Bold" font-size="18.00" fill="#000000">stars</text>
<text text-anchor="start" x="1128.3734" y="-1290.3" font-family="Arial" font-size="14.00" fill="#000000"> </text>
<text text-anchor="start" x="1132.264" y="-1290.3" font-family="Arial" font-size="14.00" fill="#666666">[BASE TABLE]</text>
<polygon fill="none" stroke="#000000" points="1082.5,-1247.5 1082.5,-1277.5 1232.5,-1277.5 1232.5,-1247.5 1082.5,-1247.5"/>
<text text-anchor="start" x="1089.5" y="-1258.9" font-family="Arial" font-size="14.00" fill="#000000">user_id </text>
<text text-anchor="start" x="1139.2882" y="-1258.9" font-family="Arial" font-size="14.00" fill="#666666">[char(36)]</text>
<polygon fill="none" stroke="#000000" points="1082.5,-1217.5 1082.5,-1247.5 1232.5,-1247.5 1232.5,-1217.5 1082.5,-1217.5"/>
<text text-anchor="start" x="1089.5" y="-1228.9" font-family="Arial" font-size="14.00" fill="#000000">channel_id </text>
<text text-anchor="start" x="1161.082" y="-1228.9" font-family="Arial" font-size="14.00" fill="#666666">[char(36)]</text>
</g>
<!-- stars&#45;&gt;channels -->
<g id="edge4" class="edge">
<title>stars:channel_id&#45;&gt;channels:id</title>
<path fill="none" stroke="#000000" d="M1157.8144,-1207.2209C1162.9112,-1126.0377 1228.5413,-1119.17 1248.5,-1034 1258.2855,-992.2424 1291.3889,-937.5 1248.5,-937.5"/>
<polygon fill="#000000" stroke="#000000" points="1157.8058,-1207.5047 1153.0021,-1217.3624 1157.6529,-1212.5023 1157.5,-1217.5 1157.5,-1217.5 1157.5,-1217.5 1157.6529,-1212.5023 1161.9979,-1217.6376 1157.8058,-1207.5047 1157.8058,-1207.5047"/>
<text text-anchor="start" x="1029.378" y="-1201.5" font-family="Arial" font-size="10.00" fill="#000000">FOREIGN KEY (channel_id) REFERENCES channels (id)</text>
</g>
<!-- users_private_channels -->
<g id="node6" class="node">
<title>users_private_channels</title>
<polygon fill="#efefef" stroke="transparent" points="1337.5,-1277.5 1337.5,-1312.5 1638.5,-1312.5 1638.5,-1277.5 1337.5,-1277.5"/>
<polygon fill="none" stroke="#000000" points="1337.5,-1277.5 1337.5,-1312.5 1638.5,-1312.5 1638.5,-1277.5 1337.5,-1277.5"/>
<text text-anchor="start" x="1344.3484" y="-1290.3" font-family="Arial Bold" font-size="18.00" fill="#000000">users_private_channels</text>
<text text-anchor="start" x="1534.3978" y="-1290.3" font-family="Arial" font-size="14.00" fill="#000000"> </text>
<text text-anchor="start" x="1538.2884" y="-1290.3" font-family="Arial" font-size="14.00" fill="#666666">[BASE TABLE]</text>
<polygon fill="none" stroke="#000000" points="1337.5,-1247.5 1337.5,-1277.5 1638.5,-1277.5 1638.5,-1247.5 1337.5,-1247.5"/>
<text text-anchor="start" x="1344.5" y="-1258.9" font-family="Arial" font-size="14.00" fill="#000000">user_id </text>
<text text-anchor="start" x="1394.2882" y="-1258.9" font-family="Arial" font-size="14.00" fill="#666666">[char(36)]</text>
<polygon fill="none" stroke="#000000" points="1337.5,-1217.5 1337.5,-1247.5 1638.5,-1247.5 1638.5,-1217.5 1337.5,-1217.5"/>
<text text-anchor="start" x="1344.5" y="-1228.9" font-family="Arial" font-size="14.00" fill="#000000">channel_id </text>
<text text-anchor="start" x="1416.082" y="-1228.9" font-family="Arial" font-size="14.00" fill="#666666">[char(36)]</text>
</g>
<!-- users_private_channels&#45;&gt;channels -->
<g id="edge5" class="edge">
<title>users_private_channels:channel_id&#45;&gt;channels:id</title>
<path fill="none" stroke="#000000" d="M1327.6043,-1230.1254C1273.7592,-1202.2071 1313.3631,-937.5 1248.5,-937.5"/>
<polygon fill="#000000" stroke="#000000" points="1327.776,-1230.1665 1336.4499,-1236.8758 1332.638,-1231.3333 1337.5,-1232.5 1337.5,-1232.5 1337.5,-1232.5 1332.638,-1231.3333 1338.5501,-1228.1242 1327.776,-1230.1665 1327.776,-1230.1665"/>
<text text-anchor="start" x="1073.878" y="-1242.5" font-family="Arial" font-size="10.00" fill="#000000">FOREIGN KEY (channel_id) REFERENCES channels (id)</text>
</g>
<!-- users_subscribe_channels -->
<g id="node7" class="node">
<title>users_subscribe_channels</title>
<polygon fill="#efefef" stroke="transparent" points="1742.5,-1277.5 1742.5,-1312.5 2066.5,-1312.5 2066.5,-1277.5 1742.5,-1277.5"/>
<polygon fill="none" stroke="#000000" points="1742.5,-1277.5 1742.5,-1312.5 2066.5,-1312.5 2066.5,-1277.5 1742.5,-1277.5"/>
<text text-anchor="start" x="1749.3464" y="-1290.3" font-family="Arial Bold" font-size="18.00" fill="#000000">users_subscribe_channels</text>
<text text-anchor="start" x="1962.3998" y="-1290.3" font-family="Arial" font-size="14.00" fill="#000000"> </text>
<text text-anchor="start" x="1966.2904" y="-1290.3" font-family="Arial" font-size="14.00" fill="#666666">[BASE TABLE]</text>
<polygon fill="none" stroke="#000000" points="1742.5,-1247.5 1742.5,-1277.5 2066.5,-1277.5 2066.5,-1247.5 1742.5,-1247.5"/>
<text text-anchor="start" x="1749.5" y="-1258.9" font-family="Arial" font-size="14.00" fill="#000000">user_id </text>
<text text-anchor="start" x="1799.2882" y="-1258.9" font-family="Arial" font-size="14.00" fill="#666666">[char(36)]</text>
<polygon fill="none" stroke="#000000" points="1742.5,-1217.5 1742.5,-1247.5 2066.5,-1247.5 2066.5,-1217.5 1742.5,-1217.5"/>
<text text-anchor="start" x="1749.5" y="-1228.9" font-family="Arial" font-size="14.00" fill="#000000">channel_id </text>
<text text-anchor="start" x="1821.082" y="-1228.9" font-family="Arial" font-size="14.00" fill="#666666">[char(36)]</text>
</g>
<!-- users_subscribe_channels&#45;&gt;channels -->
<g id="edge6" class="edge">
<title>users_subscribe_channels:channel_id&#45;&gt;channels:id</title>
<path fill="none" stroke="#000000" d="M1732.4587,-1231.737C1673.9668,-1221.9528 1741.9701,-1120.5289 1690.5,-1070 1617.3269,-998.1649 1351.0406,-937.5 1248.5,-937.5"/>
<polygon fill="#000000" stroke="#000000" points="1732.5287,-1231.7422 1742.159,-1236.9871 1737.5144,-1232.1211 1742.5,-1232.5 1742.5,-1232.5 1742.5,-1232.5 1737.5144,-1232.1211 1742.841,-1228.0129 1732.5287,-1231.7422 1732.5287,-1231.7422"/>
<text text-anchor="start" x="1478.878" y="-1242.5" font-family="Arial" font-size="10.00" fill="#000000">FOREIGN KEY (channel_id) REFERENCES channels (id)</text>
</g>
<!-- webhook_bots -->
<g id="node8" class="node">
<title>webhook_bots</title>
<polygon fill="#efefef" stroke="transparent" points="2171.5,-1382.5 2171.5,-1417.5 2398.5,-1417.5 2398.5,-1382.5 2171.5,-1382.5"/>
<polygon fill="none" stroke="#000000" points="2171.5,-1382.5 2171.5,-1417.5 2398.5,-1417.5 2398.5,-1382.5 2171.5,-1382.5"/>
<text text-anchor="start" x="2178.3501" y="-1395.3" font-family="Arial Bold" font-size="18.00" fill="#000000">webhook_bots</text>
<text text-anchor="start" x="2294.3961" y="-1395.3" font-family="Arial" font-size="14.00" fill="#000000"> </text>
<text text-anchor="start" x="2298.2867" y="-1395.3" font-family="Arial" font-size="14.00" fill="#666666">[BASE TABLE]</text>
<polygon fill="none" stroke="#000000" points="2171.5,-1352.5 2171.5,-1382.5 2398.5,-1382.5 2398.5,-1352.5 2171.5,-1352.5"/>
<text text-anchor="start" x="2178.5" y="-1363.9" font-family="Arial" font-size="14.00" fill="#000000">id </text>
<text text-anchor="start" x="2193.2798" y="-1363.9" font-family="Arial" font-size="14.00" fill="#666666">[char(36)]</text>
<polygon fill="none" stroke="#000000" points="2171.5,-1322.5 2171.5,-1352.5 2398.5,-1352.5 2398.5,-1322.5 2171.5,-1322.5"/>
<text text-anchor="start" x="2178.5" y="-1333.9" font-family="Arial" font-size="14.00" fill="#000000">bot_user_id </text>
<text text-anchor="start" x="2255.5266" y="-1333.9" font-family="Arial" font-size="14.00" fill="#666666">[char(36)]</text>
<polygon fill="none" stroke="#000000" points="2171.5,-1292.5 2171.5,-1322.5 2398.5,-1322.5 2398.5,-1292.5 2171.5,-1292.5"/>
<text text-anchor="start" x="2178.5" y="-1303.9" font-family="Arial" font-size="14.00" fill="#000000">description </text>
<text text-anchor="start" x="2250.068" y="-1303.9" font-family="Arial" font-size="14.00" fill="#666666">[text]</text>
<polygon fill="none" stroke="#000000" points="2171.5,-1262.5 2171.5,-1292.5 2398.5,-1292.5 2398.5,-1262.5 2171.5,-1262.5"/>
<text text-anchor="start" x="2178.5" y="-1273.9" font-family="Arial" font-size="14.00" fill="#000000">secret </text>
<text text-anchor="start" x="2220.507" y="-1273.9" font-family="Arial" font-size="14.00" fill="#666666">[text]</text>
<polygon fill="none" stroke="#000000" points="2171.5,-1232.5 2171.5,-1262.5 2398.5,-1262.5 2398.5,-1232.5 2171.5,-1232.5"/>
<text text-anchor="start" x="2178.5" y="-1243.9" font-family="Arial" font-size="14.00" fill="#000000">channel_id </text>
<text text-anchor="start" x="2250.082" y="-1243.9" font-family="Arial" font-size="14.00" fill="#666666">[char(36)]</text>
<polygon fill="none" stroke="#000000" points="2171.5,-1202.5 2171.5,-1232.5 2398.5,-1232.5 2398.5,-1202.5 2171.5,-1202.5"/>
<text text-anchor="start" x="2178.5" y="-1213.9" font-family="Arial" font-size="14.00" fill="#000000">creator_id </text>
<text text-anchor="start" x="2244.622" y="-1213.9" font-family="Arial" font-size="14.00" fill="#666666">[char(36)]</text>
<polygon fill="none" stroke="#000000" points="2171.5,-1172.5 2171.5,-1202.5 2398.5,-1202.5 2398.5,-1172.5 2171.5,-1172.5"/>
<text text-anchor="start" x="2178.5" y="-1183.9" font-family="Arial" font-size="14.00" fill="#000000">created_at </text>
<text text-anchor="start" x="2248.528" y="-1183.9" font-family="Arial" font-size="14.00" fill="#666666">[datetime(6)]</text>
<polygon fill="none" stroke="#000000" points="2171.5,-1142.5 2171.5,-1172.5 2398.5,-1172.5 2398.5,-1142.5 2171.5,-1142.5"/>
<text text-anchor="start" x="2178.5" y="-1153.9" font-family="Arial" font-size="14.00" fill="#000000">updated_at </text>
<text text-anchor="start" x="2252.4326" y="-1153.9" font-family="Arial" font-size="14.00" fill="#666666">[datetime(6)]</text>
<polygon fill="none" stroke="#000000" points="2171.5,-1112.5 2171.5,-1142.5 2398.5,-1142.5 2398.5,-1112.5 2171.5,-1112.5"/>
<text text-anchor="start" x="2178.5" y="-1123.9" font-family="Arial" font-size="14.00" fill="#000000">deleted_at </text>
<text text-anchor="start" x="2247.7566" y="-1123.9" font-family="Arial" font-size="14.00" fill="#666666">[datetime(6)]</text>
</g>
<!-- webhook_bots&#45;&gt;channels -->
<g id="edge7" class="edge">
<title>webhook_bots:channel_id&#45;&gt;channels:id</title>
<path fill="none" stroke="#000000" d="M2161.4271,-1246.77C2097.0758,-1236.5473 2177.8289,-1121.6051 2118.5,-1070 1970.9455,-941.6551 1444.0627,-937.5 1248.5,-937.5"/>
<polygon fill="#000000" stroke="#000000" points="2161.5262,-1246.7771 2171.1747,-1251.9882 2166.5131,-1247.1386 2171.5,-1247.5 2171.5,-1247.5 2171.5,-1247.5 2166.5131,-1247.1386 2171.8253,-1243.0118 2161.5262,-1246.7771 2161.5262,-1246.7771"/>
<text text-anchor="start" x="1907.878" y="-1257.5" font-family="Arial" font-size="10.00" fill="#000000">FOREIGN KEY (channel_id) REFERENCES channels (id)</text>
</g>
</g>
</svg>
