<?xml version="1.0" encoding="UTF-8" standalone="no"?>
<!DOCTYPE svg PUBLIC "-//W3C//DTD SVG 1.1//EN"
 "http://www.w3.org/Graphics/SVG/1.1/DTD/svg11.dtd">
<!-- Generated by graphviz version 2.40.1 (20161225.0304)
 -->
<!-- Title: channel_events Pages: 1 -->
<svg width="562pt" height="802pt"
 viewBox="0.00 0.00 561.50 802.00" xmlns="http://www.w3.org/2000/svg" xmlns:xlink="http://www.w3.org/1999/xlink">
<g id="graph0" class="graph" transform="scale(1 1) rotate(0) translate(4 798)">
<title>channel_events</title>
<polygon fill="#ffffff" stroke="transparent" points="-4,4 -4,-798 557.5,-798 557.5,4 -4,4"/>
<!-- channel_events -->
<g id="node1" class="node">
<title>channel_events</title>
<polygon fill="#efefef" stroke="transparent" points="271,-712.5 271,-747.5 508,-747.5 508,-712.5 271,-712.5"/>
<polygon fill="none" stroke="#000000" points="271,-712.5 271,-747.5 508,-747.5 508,-712.5 271,-712.5"/>
<text text-anchor="start" x="277.847" y="-725.3" font-family="Arial Bold" font-size="18.00" fill="#000000">channel_events</text>
<text text-anchor="start" x="403.8992" y="-725.3" font-family="Arial" font-size="14.00" fill="#000000"> </text>
<text text-anchor="start" x="407.7898" y="-725.3" font-family="Arial" font-size="14.00" fill="#666666">[BASE TABLE]</text>
<polygon fill="none" stroke="#000000" points="271,-682.5 271,-712.5 508,-712.5 508,-682.5 271,-682.5"/>
<text text-anchor="start" x="278" y="-693.9" font-family="Arial" font-size="14.00" fill="#000000">event_id </text>
<text text-anchor="start" x="334.8008" y="-693.9" font-family="Arial" font-size="14.00" fill="#666666">[char(36)]</text>
<polygon fill="none" stroke="#000000" points="271,-652.5 271,-682.5 508,-682.5 508,-652.5 271,-652.5"/>
<text text-anchor="start" x="278" y="-663.9" font-family="Arial" font-size="14.00" fill="#000000">channel_id </text>
<text text-anchor="start" x="349.582" y="-663.9" font-family="Arial" font-size="14.00" fill="#666666">[char(36)]</text>
<polygon fill="none" stroke="#000000" points="271,-622.5 271,-652.5 508,-652.5 508,-622.5 271,-622.5"/>
<text text-anchor="start" x="278" y="-633.9" font-family="Arial" font-size="14.00" fill="#000000">event_type </text>
<text text-anchor="start" x="350.3674" y="-633.9" font-family="Arial" font-size="14.00" fill="#666666">[varchar(30)]</text>
<polygon fill="none" stroke="#000000" points="271,-592.5 271,-622.5 508,-622.5 508,-592.5 271,-592.5"/>
<text text-anchor="start" x="278" y="-603.9" font-family="Arial" font-size="14.00" fill="#000000">detail </text>
<text text-anchor="start" x="315.3422" y="-603.9" font-family="Arial" font-size="14.00" fill="#666666">[text]</text>
<polygon fill="none" stroke="#000000" points="271,-562.5 271,-592.5 508,-592.5 508,-562.5 271,-562.5"/>
<text text-anchor="start" x="278" y="-573.9" font-family="Arial" font-size="14.00" fill="#000000">date_time </text>
<text text-anchor="start" x="343.352" y="-573.9" font-family="Arial" font-size="14.00" fill="#666666">[datetime(6)]</text>
<polygon fill="none" stroke="#000000" stroke-width="3" points="269,-561.5 269,-749.5 509,-749.5 509,-561.5 269,-561.5"/>
</g>
<!-- channels -->
<g id="node2" class="node">
<title>channels</title>
<polygon fill="#efefef" stroke="transparent" points="298,-402.5 298,-437.5 481,-437.5 481,-402.5 298,-402.5"/>
<polygon fill="none" stroke="#000000" points="298,-402.5 298,-437.5 481,-437.5 481,-402.5 298,-402.5"/>
<text text-anchor="start" x="304.8605" y="-415.3" font-family="Arial Bold" font-size="18.00" fill="#000000">channels</text>
<text text-anchor="start" x="376.8857" y="-415.3" font-family="Arial" font-size="14.00" fill="#000000"> </text>
<text text-anchor="start" x="380.7763" y="-415.3" font-family="Arial" font-size="14.00" fill="#666666">[BASE TABLE]</text>
<polygon fill="none" stroke="#000000" points="298,-372.5 298,-402.5 481,-402.5 481,-372.5 298,-372.5"/>
<text text-anchor="start" x="305" y="-383.9" font-family="Arial" font-size="14.00" fill="#000000">id </text>
<text text-anchor="start" x="319.7798" y="-383.9" font-family="Arial" font-size="14.00" fill="#666666">[char(36)]</text>
<polygon fill="none" stroke="#000000" points="298,-342.5 298,-372.5 481,-372.5 481,-342.5 298,-342.5"/>
<text text-anchor="start" x="305" y="-353.9" font-family="Arial" font-size="14.00" fill="#000000">name </text>
<text text-anchor="start" x="343.899" y="-353.9" font-family="Arial" font-size="14.00" fill="#666666">[varchar(20)]</text>
<polygon fill="none" stroke="#000000" points="298,-312.5 298,-342.5 481,-342.5 481,-312.5 298,-312.5"/>
<text text-anchor="start" x="305" y="-323.9" font-family="Arial" font-size="14.00" fill="#000000">parent_id </text>
<text text-anchor="start" x="367.244" y="-323.9" font-family="Arial" font-size="14.00" fill="#666666">[char(36)]</text>
<polygon fill="none" stroke="#000000" points="298,-282.5 298,-312.5 481,-312.5 481,-282.5 298,-282.5"/>
<text text-anchor="start" x="305" y="-293.9" font-family="Arial" font-size="14.00" fill="#000000">topic </text>
<text text-anchor="start" x="338.453" y="-293.9" font-family="Arial" font-size="14.00" fill="#666666">[text]</text>
<polygon fill="none" stroke="#000000" points="298,-252.5 298,-282.5 481,-282.5 481,-252.5 298,-252.5"/>
<text text-anchor="start" x="305" y="-263.9" font-family="Arial" font-size="14.00" fill="#000000">is_forced </text>
<text text-anchor="start" x="365.6788" y="-263.9" font-family="Arial" font-size="14.00" fill="#666666">[tinyint(1)]</text>
<polygon fill="none" stroke="#000000" points="298,-222.5 298,-252.5 481,-252.5 481,-222.5 298,-222.5"/>
<text text-anchor="start" x="305" y="-233.9" font-family="Arial" font-size="14.00" fill="#000000">is_public </text>
<text text-anchor="start" x="363.3408" y="-233.9" font-family="Arial" font-size="14.00" fill="#666666">[tinyint(1)]</text>
<polygon fill="none" stroke="#000000" points="298,-192.5 298,-222.5 481,-222.5 481,-192.5 298,-192.5"/>
<text text-anchor="start" x="305" y="-203.9" font-family="Arial" font-size="14.00" fill="#000000">is_visible </text>
<text text-anchor="start" x="365.6648" y="-203.9" font-family="Arial" font-size="14.00" fill="#666666">[tinyint(1)]</text>
<polygon fill="none" stroke="#000000" points="298,-162.5 298,-192.5 481,-192.5 481,-162.5 298,-162.5"/>
<text text-anchor="start" x="305" y="-173.9" font-family="Arial" font-size="14.00" fill="#000000">creator_id </text>
<text text-anchor="start" x="371.122" y="-173.9" font-family="Arial" font-size="14.00" fill="#666666">[char(36)]</text>
<polygon fill="none" stroke="#000000" points="298,-132.5 298,-162.5 481,-162.5 481,-132.5 298,-132.5"/>
<text text-anchor="start" x="305" y="-143.9" font-family="Arial" font-size="14.00" fill="#000000">updater_id </text>
<text text-anchor="start" x="375.0266" y="-143.9" font-family="Arial" font-size="14.00" fill="#666666">[char(36)]</text>
<polygon fill="none" stroke="#000000" points="298,-102.5 298,-132.5 481,-132.5 481,-102.5 298,-102.5"/>
<text text-anchor="start" x="305" y="-113.9" font-family="Arial" font-size="14.00" fill="#000000">created_at </text>
<text text-anchor="start" x="375.028" y="-113.9" font-family="Arial" font-size="14.00" fill="#666666">[datetime(6)]</text>
<polygon fill="none" stroke="#000000" points="298,-72.5 298,-102.5 481,-102.5 481,-72.5 298,-72.5"/>
<text text-anchor="start" x="305" y="-83.9" font-family="Arial" font-size="14.00" fill="#000000">updated_at </text>
<text text-anchor="start" x="378.9326" y="-83.9" font-family="Arial" font-size="14.00" fill="#666666">[datetime(6)]</text>
<polygon fill="none" stroke="#000000" points="298,-42.5 298,-72.5 481,-72.5 481,-42.5 298,-42.5"/>
<text text-anchor="start" x="305" y="-53.9" font-family="Arial" font-size="14.00" fill="#000000">deleted_at </text>
<text text-anchor="start" x="374.2566" y="-53.9" font-family="Arial" font-size="14.00" fill="#666666">[datetime(6)]</text>
</g>
<!-- channel_events&#45;&gt;channels -->
<g id="edge1" class="edge">
<title>channel_events:channel_id&#45;&gt;channels:id</title>
<path fill="none" stroke="#000000" d="M261.2297,-664.9069C211.6617,-636.6795 239.0298,-387.5 298,-387.5"/>
<polygon fill="#000000" stroke="#000000" points="261.3346,-664.9347 269.8456,-671.8494 266.1673,-666.2173 271,-667.5 271,-667.5 271,-667.5 266.1673,-666.2173 272.1544,-663.1506 261.3346,-664.9347 261.3346,-664.9347"/>
<text text-anchor="start" x="7.378" y="-677.5" font-family="Arial" font-size="10.00" fill="#000000">FOREIGN KEY (channel_id) REFERENCES channels (id)</text>
</g>
</g>
</svg>
