<?xml version="1.0" encoding="UTF-8" standalone="no"?>
<!DOCTYPE svg PUBLIC "-//W3C//DTD SVG 1.1//EN"
 "http://www.w3.org/Graphics/SVG/1.1/DTD/svg11.dtd">
<!-- Generated by graphviz version 2.40.1 (20161225.0304)
 -->
<!-- Title: channels Pages: 1 -->
<svg width="2443pt" height="1400pt"
     viewBox="0.00 0.00 2443.00 1400.00" xmlns="http://www.w3.org/2000/svg">
<g id="graph0" class="graph" transform="scale(1 1) rotate(0) translate(4 1396)">
<title>channels</title>
<polygon fill="#ffffff" stroke="transparent" points="-4,4 -4,-1396 2439,-1396 2439,4 -4,4"/>
<!-- channels -->
<g id="node1" class="node">
<title>channels</title>
<polygon fill="#efefef" stroke="transparent" points="1095.5,-949 1095.5,-983 1282.5,-983 1282.5,-949 1095.5,-949"/>
<polygon fill="none" stroke="#000000" points="1095.5,-949 1095.5,-983 1282.5,-983 1282.5,-949 1095.5,-949"/>
<text text-anchor="start" x="1102.0005" y="-962.6" font-family="Arial Bold" font-size="18.00" fill="#000000">channels</text>
<text text-anchor="start" x="1180.0298" y="-962.6" font-family="Arial" font-size="14.00" fill="#000000"> </text>
<text text-anchor="start" x="1183.9194" y="-962.6" font-family="Arial" font-size="14.00" fill="#666666">[BASE TABLE]</text>
<polygon fill="none" stroke="#000000" points="1095.5,-919 1095.5,-949 1282.5,-949 1282.5,-919 1095.5,-919"/>
<text text-anchor="start" x="1102.5" y="-931.8" font-family="Arial" font-size="14.00" fill="#000000">id </text>
<text text-anchor="start" x="1117.2861" y="-931.8" font-family="Arial" font-size="14.00" fill="#666666">[char(36)]</text>
<polygon fill="none" stroke="#000000" points="1095.5,-889 1095.5,-919 1282.5,-919 1282.5,-889 1095.5,-889"/>
<text text-anchor="start" x="1102.5" y="-901.8" font-family="Arial" font-size="14.00" fill="#000000">name </text>
<text text-anchor="start" x="1141.4102" y="-901.8" font-family="Arial" font-size="14.00" fill="#666666">[varchar(20)]</text>
<polygon fill="none" stroke="#000000" points="1095.5,-859 1095.5,-889 1282.5,-889 1282.5,-859 1095.5,-859"/>
<text text-anchor="start" x="1102.5" y="-871.8" font-family="Arial" font-size="14.00" fill="#000000">parent_id </text>
<text text-anchor="start" x="1164.7686" y="-871.8" font-family="Arial" font-size="14.00" fill="#666666">[char(36)]</text>
<polygon fill="none" stroke="#000000" points="1095.5,-829 1095.5,-859 1282.5,-859 1282.5,-829 1095.5,-829"/>
<text text-anchor="start" x="1102.5" y="-841.8" font-family="Arial" font-size="14.00" fill="#000000">topic </text>
<text text-anchor="start" x="1135.9619" y="-841.8" font-family="Arial" font-size="14.00" fill="#666666">[text]</text>
<polygon fill="none" stroke="#000000" points="1095.5,-799 1095.5,-829 1282.5,-829 1282.5,-799 1095.5,-799"/>
<text text-anchor="start" x="1102.5" y="-811.8" font-family="Arial" font-size="14.00" fill="#000000">is_forced </text>
<text text-anchor="start" x="1163.1963" y="-811.8" font-family="Arial" font-size="14.00" fill="#666666">[tinyint(1)]</text>
<polygon fill="none" stroke="#000000" points="1095.5,-769 1095.5,-799 1282.5,-799 1282.5,-769 1095.5,-769"/>
<text text-anchor="start" x="1102.5" y="-781.8" font-family="Arial" font-size="14.00" fill="#000000">is_public </text>
<text text-anchor="start" x="1160.8652" y="-781.8" font-family="Arial" font-size="14.00" fill="#666666">[tinyint(1)]</text>
<polygon fill="none" stroke="#000000" points="1095.5,-739 1095.5,-769 1282.5,-769 1282.5,-739 1095.5,-739"/>
<text text-anchor="start" x="1102.5" y="-751.8" font-family="Arial" font-size="14.00" fill="#000000">is_visible </text>
<text text-anchor="start" x="1163.1895" y="-751.8" font-family="Arial" font-size="14.00" fill="#666666">[tinyint(1)]</text>
<polygon fill="none" stroke="#000000" points="1095.5,-709 1095.5,-739 1282.5,-739 1282.5,-709 1095.5,-709"/>
<text text-anchor="start" x="1102.5" y="-721.8" font-family="Arial" font-size="14.00" fill="#000000">creator_id </text>
<text text-anchor="start" x="1168.6445" y="-721.8" font-family="Arial" font-size="14.00" fill="#666666">[char(36)]</text>
<polygon fill="none" stroke="#000000" points="1095.5,-679 1095.5,-709 1282.5,-709 1282.5,-679 1095.5,-679"/>
<text text-anchor="start" x="1102.5" y="-691.8" font-family="Arial" font-size="14.00" fill="#000000">updater_id </text>
<text text-anchor="start" x="1172.5547" y="-691.8" font-family="Arial" font-size="14.00" fill="#666666">[char(36)]</text>
<polygon fill="none" stroke="#000000" points="1095.5,-649 1095.5,-679 1282.5,-679 1282.5,-649 1095.5,-649"/>
<text text-anchor="start" x="1102.5" y="-661.8" font-family="Arial" font-size="14.00" fill="#000000">created_at </text>
<text text-anchor="start" x="1172.5479" y="-661.8" font-family="Arial" font-size="14.00" fill="#666666">[timestamp(6)]</text>
<polygon fill="none" stroke="#000000" points="1095.5,-619 1095.5,-649 1282.5,-649 1282.5,-619 1095.5,-619"/>
<text text-anchor="start" x="1102.5" y="-631.8" font-family="Arial" font-size="14.00" fill="#000000">updated_at </text>
<text text-anchor="start" x="1176.458" y="-631.8" font-family="Arial" font-size="14.00" fill="#666666">[timestamp(6)]</text>
<polygon fill="none" stroke="#000000" points="1095.5,-589 1095.5,-619 1282.5,-619 1282.5,-589 1095.5,-589"/>
<text text-anchor="start" x="1102.5" y="-601.8" font-family="Arial" font-size="14.00" fill="#000000">deleted_at </text>
<text text-anchor="start" x="1171.7822" y="-601.8" font-family="Arial" font-size="14.00" fill="#666666">[timestamp(6)]</text>
</g>
<!-- channels&#45;&gt;channels -->
<g id="edge8" class="edge">
<title>channels:parent_id&#45;&gt;channels:id</title>
<path fill="none" stroke="#000000" stroke-dasharray="5,2" d="M1190.8784,-899.3494C1198.4738,-1050.2967 1198.0143,-1246 1189.5,-1246 1180.7988,-1246 1180.5099,-1097.6949 1188.6333,-949.2851"/>
<polygon fill="#000000" stroke="#000000" points="1190.8606,-899.0048 1194.836,-888.7849 1190.6013,-894.0115 1190.3421,-889.0183 1190.3421,-889.0183 1190.3421,-889.0183 1190.6013,-894.0115 1185.8481,-889.2516 1190.8606,-899.0048 1190.8606,-899.0048"/>
<text text-anchor="start" x="1100.6477" y="-898.5183" font-family="Arial" font-size="10.00" fill="#000000">Additional Relation</text>
</g>
<!-- users -->
<g id="node9" class="node">
<title>users</title>
<polygon fill="#efefef" stroke="transparent" points="1097.5,-433 1097.5,-467 1280.5,-467 1280.5,-433 1097.5,-433"/>
<polygon fill="none" stroke="#000000" points="1097.5,-433 1097.5,-467 1280.5,-467 1280.5,-433 1097.5,-433"/>
<text text-anchor="start" x="1116.999" y="-446.6" font-family="Arial Bold" font-size="18.00" fill="#000000">users</text>
<text text-anchor="start" x="1165.0313" y="-446.6" font-family="Arial" font-size="14.00" fill="#000000"> </text>
<text text-anchor="start" x="1168.9209" y="-446.6" font-family="Arial" font-size="14.00" fill="#666666">[BASE TABLE]</text>
<polygon fill="none" stroke="#000000" points="1097.5,-403 1097.5,-433 1280.5,-433 1280.5,-403 1097.5,-403"/>
<text text-anchor="start" x="1104.5" y="-415.8" font-family="Arial" font-size="14.00" fill="#000000">id </text>
<text text-anchor="start" x="1119.2861" y="-415.8" font-family="Arial" font-size="14.00" fill="#666666">[char(36)]</text>
<polygon fill="none" stroke="#000000" points="1097.5,-373 1097.5,-403 1280.5,-403 1280.5,-373 1097.5,-373"/>
<text text-anchor="start" x="1104.5" y="-385.8" font-family="Arial" font-size="14.00" fill="#000000">name </text>
<text text-anchor="start" x="1143.4102" y="-385.8" font-family="Arial" font-size="14.00" fill="#666666">[varchar(32)]</text>
<polygon fill="none" stroke="#000000" points="1097.5,-343 1097.5,-373 1280.5,-373 1280.5,-343 1097.5,-343"/>
<text text-anchor="start" x="1104.1831" y="-355.8" font-family="Arial" font-size="14.00" fill="#000000">display_name </text>
<text text-anchor="start" x="1194.4585" y="-355.8" font-family="Arial" font-size="14.00" fill="#666666">[varchar(64)]</text>
<polygon fill="none" stroke="#000000" points="1097.5,-313 1097.5,-343 1280.5,-343 1280.5,-313 1097.5,-313"/>
<text text-anchor="start" x="1104.5" y="-325.8" font-family="Arial" font-size="14.00" fill="#000000">password </text>
<text text-anchor="start" x="1168.3066" y="-325.8" font-family="Arial" font-size="14.00" fill="#666666">[char(128)]</text>
<polygon fill="none" stroke="#000000" points="1097.5,-283 1097.5,-313 1280.5,-313 1280.5,-283 1097.5,-283"/>
<text text-anchor="start" x="1104.5" y="-295.8" font-family="Arial" font-size="14.00" fill="#000000">salt </text>
<text text-anchor="start" x="1130.1758" y="-295.8" font-family="Arial" font-size="14.00" fill="#666666">[char(128)]</text>
<polygon fill="none" stroke="#000000" points="1097.5,-253 1097.5,-283 1280.5,-283 1280.5,-253 1097.5,-253"/>
<text text-anchor="start" x="1104.5" y="-265.8" font-family="Arial" font-size="14.00" fill="#000000">icon </text>
<text text-anchor="start" x="1134.0723" y="-265.8" font-family="Arial" font-size="14.00" fill="#666666">[char(36)]</text>
<polygon fill="none" stroke="#000000" points="1097.5,-223 1097.5,-253 1280.5,-253 1280.5,-223 1097.5,-223"/>
<text text-anchor="start" x="1104.5" y="-235.8" font-family="Arial" font-size="14.00" fill="#000000">status </text>
<text text-anchor="start" x="1145.7412" y="-235.8" font-family="Arial" font-size="14.00" fill="#666666">[tinyint(4)]</text>
<polygon fill="none" stroke="#000000" points="1097.5,-193 1097.5,-223 1280.5,-223 1280.5,-193 1097.5,-193"/>
<text text-anchor="start" x="1104.5" y="-205.8" font-family="Arial" font-size="14.00" fill="#000000">bot </text>
<text text-anchor="start" x="1127.8516" y="-205.8" font-family="Arial" font-size="14.00" fill="#666666">[tinyint(1)]</text>
<polygon fill="none" stroke="#000000" points="1097.5,-163 1097.5,-193 1280.5,-193 1280.5,-163 1097.5,-163"/>
<text text-anchor="start" x="1104.5" y="-175.8" font-family="Arial" font-size="14.00" fill="#000000">role </text>
<text text-anchor="start" x="1131.7344" y="-175.8" font-family="Arial" font-size="14.00" fill="#666666">[varchar(30)]</text>
<polygon fill="none" stroke="#000000" points="1097.5,-133 1097.5,-163 1280.5,-163 1280.5,-133 1097.5,-133"/>
<text text-anchor="start" x="1104.5" y="-145.8" font-family="Arial" font-size="14.00" fill="#000000">twitter_id </text>
<text text-anchor="start" x="1164.4102" y="-145.8" font-family="Arial" font-size="14.00" fill="#666666">[varchar(15)]</text>
<polygon fill="none" stroke="#000000" points="1097.5,-103 1097.5,-133 1280.5,-133 1280.5,-103 1097.5,-103"/>
<text text-anchor="start" x="1104.5" y="-115.8" font-family="Arial" font-size="14.00" fill="#000000">last_online </text>
<text text-anchor="start" x="1175.3271" y="-115.8" font-family="Arial" font-size="14.00" fill="#666666">[timestamp(6)]</text>
<polygon fill="none" stroke="#000000" points="1097.5,-73 1097.5,-103 1280.5,-103 1280.5,-73 1097.5,-73"/>
<text text-anchor="start" x="1104.5" y="-85.8" font-family="Arial" font-size="14.00" fill="#000000">created_at </text>
<text text-anchor="start" x="1174.5479" y="-85.8" font-family="Arial" font-size="14.00" fill="#666666">[timestamp(6)]</text>
<polygon fill="none" stroke="#000000" points="1097.5,-43 1097.5,-73 1280.5,-73 1280.5,-43 1097.5,-43"/>
<text text-anchor="start" x="1104.5" y="-55.8" font-family="Arial" font-size="14.00" fill="#000000">updated_at </text>
<text text-anchor="start" x="1178.458" y="-55.8" font-family="Arial" font-size="14.00" fill="#666666">[timestamp(6)]</text>
</g>
<!-- channels&#45;&gt;users -->
<g id="edge9" class="edge">
<title>channels:creator_id&#45;&gt;users:id</title>
<path fill="none" stroke="#000000" stroke-dasharray="5,2" d="M1085.4072,-723.4182C959.685,-708.6582 964.9503,-418 1097.5,-418"/>
<polygon fill="#000000" stroke="#000000" points="1085.5166,-723.4244 1095.241,-728.4925 1090.5083,-723.7122 1095.5,-724 1095.5,-724 1095.5,-724 1090.5083,-723.7122 1095.759,-719.5075 1085.5166,-723.4244 1085.5166,-723.4244"/>
<text text-anchor="start" x="1005.8057" y="-733.5" font-family="Arial" font-size="10.00" fill="#000000">Additional Relation</text>
</g>
<!-- channel_events -->
<g id="node2" class="node">
<title>channel_events</title>
<polygon fill="#efefef" stroke="transparent" points="43.5,-1285 43.5,-1319 288.5,-1319 288.5,-1285 43.5,-1285"/>
<polygon fill="none" stroke="#000000" points="43.5,-1285 43.5,-1319 288.5,-1319 288.5,-1285 43.5,-1285"/>
<text text-anchor="start" x="50.4844" y="-1298.6" font-family="Arial Bold" font-size="18.00" fill="#000000">channel_events</text>
<text text-anchor="start" x="185.5459" y="-1298.6" font-family="Arial" font-size="14.00" fill="#000000"> </text>
<text text-anchor="start" x="189.4355" y="-1298.6" font-family="Arial" font-size="14.00" fill="#666666">[BASE TABLE]</text>
<polygon fill="none" stroke="#000000" points="43.5,-1255 43.5,-1285 288.5,-1285 288.5,-1255 43.5,-1255"/>
<text text-anchor="start" x="50.5" y="-1267.8" font-family="Arial" font-size="14.00" fill="#000000">event_id </text>
<text text-anchor="start" x="107.3203" y="-1267.8" font-family="Arial" font-size="14.00" fill="#666666">[char(36)]</text>
<polygon fill="none" stroke="#000000" points="43.5,-1225 43.5,-1255 288.5,-1255 288.5,-1225 43.5,-1225"/>
<text text-anchor="start" x="50.5" y="-1237.8" font-family="Arial" font-size="14.00" fill="#000000">channel_id </text>
<text text-anchor="start" x="122.1133" y="-1237.8" font-family="Arial" font-size="14.00" fill="#666666">[char(36)]</text>
<polygon fill="none" stroke="#000000" points="43.5,-1195 43.5,-1225 288.5,-1225 288.5,-1195 43.5,-1195"/>
<text text-anchor="start" x="50.5" y="-1207.8" font-family="Arial" font-size="14.00" fill="#000000">event_type </text>
<text text-anchor="start" x="122.8857" y="-1207.8" font-family="Arial" font-size="14.00" fill="#666666">[varchar(30)]</text>
<polygon fill="none" stroke="#000000" points="43.5,-1165 43.5,-1195 288.5,-1195 288.5,-1165 43.5,-1165"/>
<text text-anchor="start" x="50.5" y="-1177.8" font-family="Arial" font-size="14.00" fill="#000000">detail </text>
<text text-anchor="start" x="87.8584" y="-1177.8" font-family="Arial" font-size="14.00" fill="#666666">[text]</text>
<polygon fill="none" stroke="#000000" points="43.5,-1135 43.5,-1165 288.5,-1165 288.5,-1135 43.5,-1135"/>
<text text-anchor="start" x="50.5" y="-1147.8" font-family="Arial" font-size="14.00" fill="#000000">date_time </text>
<text text-anchor="start" x="115.8721" y="-1147.8" font-family="Arial" font-size="14.00" fill="#666666">[timestamp(6)]</text>
</g>
<!-- channel_events&#45;&gt;channels -->
<g id="edge1" class="edge">
<title>channel_events:channel_id&#45;&gt;channels:id</title>
<path fill="none" stroke="#000000" d="M298.581,-1239.2715C362.9635,-1229.0687 281.6994,-1114.3317 340.5,-1062 467.6187,-948.866 925.3281,-934 1095.5,-934"/>
<polygon fill="#000000" stroke="#000000" points="298.474,-1239.2791 288.1756,-1235.5117 293.487,-1239.6396 288.5,-1240 288.5,-1240 288.5,-1240 293.487,-1239.6396 288.8244,-1244.4883 298.474,-1239.2791 298.474,-1239.2791"/>
<text text-anchor="start" x="160.4355" y="-1224.5" font-family="Arial" font-size="10.00" fill="#000000">FOREIGN KEY (channel_id) REFERENCES channels (id)</text>
</g>
<!-- dm_channel_mappings -->
<g id="node3" class="node">
<title>dm_channel_mappings</title>
<polygon fill="#efefef" stroke="transparent" points="392.5,-1255 392.5,-1289 702.5,-1289 702.5,-1255 392.5,-1255"/>
<polygon fill="none" stroke="#000000" points="392.5,-1255 392.5,-1289 702.5,-1289 702.5,-1255 392.5,-1255"/>
<text text-anchor="start" x="399.4912" y="-1268.6" font-family="Arial Bold" font-size="18.00" fill="#000000">dm_channel_mappings</text>
<text text-anchor="start" x="599.5391" y="-1268.6" font-family="Arial" font-size="14.00" fill="#000000"> </text>
<text text-anchor="start" x="603.4287" y="-1268.6" font-family="Arial" font-size="14.00" fill="#666666">[BASE TABLE]</text>
<polygon fill="none" stroke="#000000" points="392.5,-1225 392.5,-1255 702.5,-1255 702.5,-1225 392.5,-1225"/>
<text text-anchor="start" x="399.5" y="-1237.8" font-family="Arial" font-size="14.00" fill="#000000">channel_id </text>
<text text-anchor="start" x="471.1133" y="-1237.8" font-family="Arial" font-size="14.00" fill="#666666">[char(36)]</text>
<polygon fill="none" stroke="#000000" points="392.5,-1195 392.5,-1225 702.5,-1225 702.5,-1195 392.5,-1195"/>
<text text-anchor="start" x="399.5" y="-1207.8" font-family="Arial" font-size="14.00" fill="#000000">user1 </text>
<text text-anchor="start" x="438.4102" y="-1207.8" font-family="Arial" font-size="14.00" fill="#666666">[char(36)]</text>
<polygon fill="none" stroke="#000000" points="392.5,-1165 392.5,-1195 702.5,-1195 702.5,-1165 392.5,-1165"/>
<text text-anchor="start" x="399.5" y="-1177.8" font-family="Arial" font-size="14.00" fill="#000000">user2 </text>
<text text-anchor="start" x="438.4102" y="-1177.8" font-family="Arial" font-size="14.00" fill="#666666">[char(36)]</text>
</g>
<!-- dm_channel_mappings&#45;&gt;channels -->
<g id="edge2" class="edge">
<title>dm_channel_mappings:channel_id&#45;&gt;channels:id</title>
<path fill="none" stroke="#000000" d="M712.6129,-1239.304C777.4363,-1229.5514 700.9618,-1119.7043 754.5,-1062 864.603,-943.3292 933.6191,-934 1095.5,-934"/>
<polygon fill="#000000" stroke="#000000" points="712.4764,-1239.3133 702.191,-1235.5106 707.4882,-1239.6567 702.5,-1240 702.5,-1240 702.5,-1240 707.4882,-1239.6567 702.809,-1244.4894 712.4764,-1239.3133 712.4764,-1239.3133"/>
<text text-anchor="start" x="574.4355" y="-1224.5" font-family="Arial" font-size="10.00" fill="#000000">FOREIGN KEY (channel_id) REFERENCES channels (id)</text>
</g>
<!-- messages -->
<g id="node4" class="node">
<title>messages</title>
<polygon fill="#efefef" stroke="transparent" points="807.5,-1315 807.5,-1349 1004.5,-1349 1004.5,-1315 807.5,-1315"/>
<polygon fill="none" stroke="#000000" points="807.5,-1315 807.5,-1349 1004.5,-1349 1004.5,-1315 807.5,-1315"/>
<text text-anchor="start" x="814.4829" y="-1328.6" font-family="Arial Bold" font-size="18.00" fill="#000000">messages</text>
<text text-anchor="start" x="901.5474" y="-1328.6" font-family="Arial" font-size="14.00" fill="#000000"> </text>
<text text-anchor="start" x="905.437" y="-1328.6" font-family="Arial" font-size="14.00" fill="#666666">[BASE TABLE]</text>
<polygon fill="none" stroke="#000000" points="807.5,-1285 807.5,-1315 1004.5,-1315 1004.5,-1285 807.5,-1285"/>
<text text-anchor="start" x="814.5" y="-1297.8" font-family="Arial" font-size="14.00" fill="#000000">id </text>
<text text-anchor="start" x="829.2861" y="-1297.8" font-family="Arial" font-size="14.00" fill="#666666">[char(36)]</text>
<polygon fill="none" stroke="#000000" points="807.5,-1255 807.5,-1285 1004.5,-1285 1004.5,-1255 807.5,-1255"/>
<text text-anchor="start" x="814.5" y="-1267.8" font-family="Arial" font-size="14.00" fill="#000000">user_id </text>
<text text-anchor="start" x="864.3066" y="-1267.8" font-family="Arial" font-size="14.00" fill="#666666">[char(36)]</text>
<polygon fill="none" stroke="#000000" points="807.5,-1225 807.5,-1255 1004.5,-1255 1004.5,-1225 807.5,-1225"/>
<text text-anchor="start" x="814.5" y="-1237.8" font-family="Arial" font-size="14.00" fill="#000000">channel_id </text>
<text text-anchor="start" x="886.1133" y="-1237.8" font-family="Arial" font-size="14.00" fill="#666666">[char(36)]</text>
<polygon fill="none" stroke="#000000" points="807.5,-1195 807.5,-1225 1004.5,-1225 1004.5,-1195 807.5,-1195"/>
<text text-anchor="start" x="814.5" y="-1207.8" font-family="Arial" font-size="14.00" fill="#000000">text </text>
<text text-anchor="start" x="840.9551" y="-1207.8" font-family="Arial" font-size="14.00" fill="#666666">[text]</text>
<polygon fill="none" stroke="#000000" points="807.5,-1165 807.5,-1195 1004.5,-1195 1004.5,-1165 807.5,-1165"/>
<text text-anchor="start" x="814.5" y="-1177.8" font-family="Arial" font-size="14.00" fill="#000000">created_at </text>
<text text-anchor="start" x="884.5479" y="-1177.8" font-family="Arial" font-size="14.00" fill="#666666">[timestamp(6)]</text>
<polygon fill="none" stroke="#000000" points="807.5,-1135 807.5,-1165 1004.5,-1165 1004.5,-1135 807.5,-1135"/>
<text text-anchor="start" x="814.5" y="-1147.8" font-family="Arial" font-size="14.00" fill="#000000">updated_at </text>
<text text-anchor="start" x="888.458" y="-1147.8" font-family="Arial" font-size="14.00" fill="#666666">[timestamp(6)]</text>
<polygon fill="none" stroke="#000000" points="807.5,-1105 807.5,-1135 1004.5,-1135 1004.5,-1105 807.5,-1105"/>
<text text-anchor="start" x="814.5" y="-1117.8" font-family="Arial" font-size="14.00" fill="#000000">deleted_at </text>
<text text-anchor="start" x="883.7822" y="-1117.8" font-family="Arial" font-size="14.00" fill="#666666">[timestamp(6)]</text>
</g>
<!-- messages&#45;&gt;channels -->
<g id="edge3" class="edge">
<title>messages:channel_id&#45;&gt;channels:id</title>
<path fill="none" stroke="#000000" d="M1014.3972,-1237.7129C1070.5892,-1209.711 1028.1594,-934 1095.5,-934"/>
<polygon fill="#000000" stroke="#000000" points="1014.2432,-1237.7484 1003.4868,-1235.6155 1009.3716,-1238.8742 1004.5,-1240 1004.5,-1240 1004.5,-1240 1009.3716,-1238.8742 1005.5132,-1244.3845 1014.2432,-1237.7484 1014.2432,-1237.7484"/>
<text text-anchor="start" x="1011.9355" y="-1249.5" font-family="Arial" font-size="10.00" fill="#000000">FOREIGN KEY (channel_id) REFERENCES channels (id)</text>
</g>
<!-- mutes -->
<g id="node5" class="node">
<title>mutes</title>
<polygon fill="#efefef" stroke="transparent" points="1108.5,-1240 1108.5,-1274 1270.5,-1274 1270.5,-1240 1108.5,-1240"/>
<polygon fill="none" stroke="#000000" points="1108.5,-1240 1108.5,-1274 1270.5,-1274 1270.5,-1240 1108.5,-1240"/>
<text text-anchor="start" x="1115.0073" y="-1253.6" font-family="Arial Bold" font-size="18.00" fill="#000000">mutes</text>
<text text-anchor="start" x="1168.0229" y="-1253.6" font-family="Arial" font-size="14.00" fill="#000000"> </text>
<text text-anchor="start" x="1171.9126" y="-1253.6" font-family="Arial" font-size="14.00" fill="#666666">[BASE TABLE]</text>
<polygon fill="none" stroke="#000000" points="1108.5,-1210 1108.5,-1240 1270.5,-1240 1270.5,-1210 1108.5,-1210"/>
<text text-anchor="start" x="1115.5" y="-1222.8" font-family="Arial" font-size="14.00" fill="#000000">user_id </text>
<text text-anchor="start" x="1165.3066" y="-1222.8" font-family="Arial" font-size="14.00" fill="#666666">[char(36)]</text>
<polygon fill="none" stroke="#000000" points="1108.5,-1180 1108.5,-1210 1270.5,-1210 1270.5,-1180 1108.5,-1180"/>
<text text-anchor="start" x="1115.5" y="-1192.8" font-family="Arial" font-size="14.00" fill="#000000">channel_id </text>
<text text-anchor="start" x="1187.1133" y="-1192.8" font-family="Arial" font-size="14.00" fill="#666666">[char(36)]</text>
</g>
<!-- mutes&#45;&gt;channels -->
<g id="edge4" class="edge">
<title>mutes:channel_id&#45;&gt;channels:id</title>
<path fill="none" stroke="#000000" d="M1189.9221,-1169.7119C1195.8269,-1100.1497 1262.0104,-1099.5648 1282.5,-1026 1293.471,-986.6104 1323.3889,-934 1282.5,-934"/>
<polygon fill="#000000" stroke="#000000" points="1189.91,-1170.0084 1185.0038,-1179.8155 1189.705,-1175.0042 1189.5,-1180 1189.5,-1180 1189.5,-1180 1189.705,-1175.0042 1193.9962,-1180.1845 1189.91,-1170.0084 1189.91,-1170.0084"/>
<text text-anchor="start" x="1061.4355" y="-1164.5" font-family="Arial" font-size="10.00" fill="#000000">FOREIGN KEY (channel_id) REFERENCES channels (id)</text>
</g>
<!-- stars -->
<g id="node6" class="node">
<title>stars</title>
<polygon fill="#efefef" stroke="transparent" points="1375.5,-1240 1375.5,-1274 1528.5,-1274 1528.5,-1240 1375.5,-1240"/>
<polygon fill="none" stroke="#000000" points="1375.5,-1240 1375.5,-1274 1528.5,-1274 1528.5,-1240 1375.5,-1240"/>
<text text-anchor="start" x="1382.4995" y="-1253.6" font-family="Arial Bold" font-size="18.00" fill="#000000">stars</text>
<text text-anchor="start" x="1425.5308" y="-1253.6" font-family="Arial" font-size="14.00" fill="#000000"> </text>
<text text-anchor="start" x="1429.4204" y="-1253.6" font-family="Arial" font-size="14.00" fill="#666666">[BASE TABLE]</text>
<polygon fill="none" stroke="#000000" points="1375.5,-1210 1375.5,-1240 1528.5,-1240 1528.5,-1210 1375.5,-1210"/>
<text text-anchor="start" x="1382.5" y="-1222.8" font-family="Arial" font-size="14.00" fill="#000000">user_id </text>
<text text-anchor="start" x="1432.3066" y="-1222.8" font-family="Arial" font-size="14.00" fill="#666666">[char(36)]</text>
<polygon fill="none" stroke="#000000" points="1375.5,-1180 1375.5,-1210 1528.5,-1210 1528.5,-1180 1375.5,-1180"/>
<text text-anchor="start" x="1382.5" y="-1192.8" font-family="Arial" font-size="14.00" fill="#000000">channel_id </text>
<text text-anchor="start" x="1454.1133" y="-1192.8" font-family="Arial" font-size="14.00" fill="#666666">[char(36)]</text>
</g>
<!-- stars&#45;&gt;channels -->
<g id="edge5" class="edge">
<title>stars:channel_id&#45;&gt;channels:id</title>
<path fill="none" stroke="#000000" d="M1365.3747,-1194.3411C1261.1005,-1179.931 1402.0363,-934 1282.5,-934"/>
<polygon fill="#000000" stroke="#000000" points="1365.5211,-1194.3505 1375.2077,-1199.4905 1370.5106,-1194.6753 1375.5,-1195 1375.5,-1195 1375.5,-1195 1370.5106,-1194.6753 1375.7923,-1190.5095 1365.5211,-1194.3505 1365.5211,-1194.3505"/>
<text text-anchor="start" x="1111.9355" y="-1204.5" font-family="Arial" font-size="10.00" fill="#000000">FOREIGN KEY (channel_id) REFERENCES channels (id)</text>
</g>
<!-- users_private_channels -->
<g id="node7" class="node">
<title>users_private_channels</title>
<polygon fill="#efefef" stroke="transparent" points="1632.5,-1240 1632.5,-1274 1947.5,-1274 1947.5,-1240 1632.5,-1240"/>
<polygon fill="none" stroke="#000000" points="1632.5,-1240 1632.5,-1274 1947.5,-1274 1947.5,-1240 1632.5,-1240"/>
<text text-anchor="start" x="1639.46" y="-1253.6" font-family="Arial Bold" font-size="18.00" fill="#000000">users_private_channels</text>
<text text-anchor="start" x="1844.5703" y="-1253.6" font-family="Arial" font-size="14.00" fill="#000000"> </text>
<text text-anchor="start" x="1848.46" y="-1253.6" font-family="Arial" font-size="14.00" fill="#666666">[BASE TABLE]</text>
<polygon fill="none" stroke="#000000" points="1632.5,-1210 1632.5,-1240 1947.5,-1240 1947.5,-1210 1632.5,-1210"/>
<text text-anchor="start" x="1639.5" y="-1222.8" font-family="Arial" font-size="14.00" fill="#000000">user_id </text>
<text text-anchor="start" x="1689.3066" y="-1222.8" font-family="Arial" font-size="14.00" fill="#666666">[char(36)]</text>
<polygon fill="none" stroke="#000000" points="1632.5,-1180 1632.5,-1210 1947.5,-1210 1947.5,-1180 1632.5,-1180"/>
<text text-anchor="start" x="1639.5" y="-1192.8" font-family="Arial" font-size="14.00" fill="#000000">channel_id </text>
<text text-anchor="start" x="1711.1133" y="-1192.8" font-family="Arial" font-size="14.00" fill="#666666">[char(36)]</text>
</g>
<!-- users_private_channels&#45;&gt;channels -->
<g id="edge6" class="edge">
<title>users_private_channels:channel_id&#45;&gt;channels:id</title>
<path fill="none" stroke="#000000" d="M1622.5258,-1194.1259C1575.2049,-1184.9028 1622.0466,-1104.9406 1580.5,-1062 1480.2693,-958.4062 1426.6453,-934 1282.5,-934"/>
<polygon fill="#000000" stroke="#000000" points="1622.5382,-1194.1269 1632.1071,-1199.4828 1627.5191,-1194.5635 1632.5,-1195 1632.5,-1195 1632.5,-1195 1627.5191,-1194.5635 1632.8929,-1190.5172 1622.5382,-1194.1269 1622.5382,-1194.1269"/>
<text text-anchor="start" x="1436.6855" y="-1179.5" font-family="Arial" font-size="10.00" fill="#000000">FOREIGN KEY (channel_id) REFERENCES channels (id)</text>
</g>
<!-- users_subscribe_channels -->
<g id="node8" class="node">
<title>users_subscribe_channels</title>
<polygon fill="#efefef" stroke="transparent" points="2051.5,-1240 2051.5,-1274 2392.5,-1274 2392.5,-1240 2051.5,-1240"/>
<polygon fill="none" stroke="#000000" points="2051.5,-1240 2051.5,-1274 2392.5,-1274 2392.5,-1240 2051.5,-1240"/>
<text text-anchor="start" x="2058.4565" y="-1253.6" font-family="Arial Bold" font-size="18.00" fill="#000000">users_subscribe_channels</text>
<text text-anchor="start" x="2289.5737" y="-1253.6" font-family="Arial" font-size="14.00" fill="#000000"> </text>
<text text-anchor="start" x="2293.4634" y="-1253.6" font-family="Arial" font-size="14.00" fill="#666666">[BASE TABLE]</text>
<polygon fill="none" stroke="#000000" points="2051.5,-1210 2051.5,-1240 2392.5,-1240 2392.5,-1210 2051.5,-1210"/>
<text text-anchor="start" x="2058.5" y="-1222.8" font-family="Arial" font-size="14.00" fill="#000000">user_id </text>
<text text-anchor="start" x="2108.3066" y="-1222.8" font-family="Arial" font-size="14.00" fill="#666666">[char(36)]</text>
<polygon fill="none" stroke="#000000" points="2051.5,-1180 2051.5,-1210 2392.5,-1210 2392.5,-1180 2051.5,-1180"/>
<text text-anchor="start" x="2058.5" y="-1192.8" font-family="Arial" font-size="14.00" fill="#000000">channel_id </text>
<text text-anchor="start" x="2130.1133" y="-1192.8" font-family="Arial" font-size="14.00" fill="#666666">[char(36)]</text>
</g>
<!-- users_subscribe_channels&#45;&gt;channels -->
<g id="edge7" class="edge">
<title>users_subscribe_channels:channel_id&#45;&gt;channels:id</title>
<path fill="none" stroke="#000000" d="M2041.2833,-1194.0124C1994.9589,-1183.9635 2045.5855,-1099.8332 1999.5,-1062 1874.4021,-959.3028 1444.3524,-934 1282.5,-934"/>
<polygon fill="#000000" stroke="#000000" points="2041.5464,-1194.0378 2051.067,-1199.4791 2046.5232,-1194.5189 2051.5,-1195 2051.5,-1195 2051.5,-1195 2046.5232,-1194.5189 2051.933,-1190.5209 2041.5464,-1194.0378 2041.5464,-1194.0378"/>
<text text-anchor="start" x="1787.9355" y="-1204.5" font-family="Arial" font-size="10.00" fill="#000000">FOREIGN KEY (channel_id) REFERENCES channels (id)</text>
</g>
</g>
</svg>
