<?xml version="1.0" encoding="UTF-8" standalone="no"?>
<!DOCTYPE svg PUBLIC "-//W3C//DTD SVG 1.1//EN"
        "http://www.w3.org/Graphics/SVG/1.1/DTD/svg11.dtd">
<!-- Generated by graphviz version 2.40.1 (20161225.0304)
 -->
<!-- Title: channels Pages: 1 -->
<svg width="1710pt" height="860pt"
     viewBox="0.00 0.00 1709.50 860.00" xmlns="http://www.w3.org/2000/svg">
    <g id="graph0" class="graph" transform="scale(1 1) rotate(0) translate(4 856)">
        <title>channels</title>
        <polygon fill="#ffffff" stroke="transparent" points="-4,4 -4,-856 1705.5,-856 1705.5,4 -4,4"/>
        <!-- channels -->
        <g id="node1" class="node">
            <title>channels</title>
            <polygon fill="#efefef" stroke="transparent" points="625,-406 625,-440 812,-440 812,-406 625,-406"/>
            <polygon fill="none" stroke="#000000" points="625,-406 625,-440 812,-440 812,-406 625,-406"/>
            <text text-anchor="start" x="631.5005" y="-419.6" font-family="Arial Bold" font-size="18.00" fill="#000000">
                channels
            </text>
            <text text-anchor="start" x="709.5298" y="-419.6" font-family="Arial" font-size="14.00"
                  fill="#000000"></text>
            <text text-anchor="start" x="713.4194" y="-419.6" font-family="Arial" font-size="14.00" fill="#666666">[BASE
                TABLE]
            </text>
            <polygon fill="none" stroke="#000000" points="625,-376 625,-406 812,-406 812,-376 625,-376"/>
            <text text-anchor="start" x="632" y="-388.8" font-family="Arial" font-size="14.00" fill="#000000">id</text>
            <text text-anchor="start" x="646.7861" y="-388.8" font-family="Arial" font-size="14.00" fill="#666666">
                [char(36)]
            </text>
            <polygon fill="none" stroke="#000000" points="625,-346 625,-376 812,-376 812,-346 625,-346"/>
            <text text-anchor="start" x="632" y="-358.8" font-family="Arial" font-size="14.00" fill="#000000">name
            </text>
            <text text-anchor="start" x="670.9102" y="-358.8" font-family="Arial" font-size="14.00" fill="#666666">
                [varchar(20)]
            </text>
            <polygon fill="none" stroke="#000000" points="625,-316 625,-346 812,-346 812,-316 625,-316"/>
            <text text-anchor="start" x="632" y="-328.8" font-family="Arial" font-size="14.00" fill="#000000">
                parent_id
            </text>
            <text text-anchor="start" x="694.2686" y="-328.8" font-family="Arial" font-size="14.00" fill="#666666">
                [char(36)]
            </text>
            <polygon fill="none" stroke="#000000" points="625,-286 625,-316 812,-316 812,-286 625,-286"/>
            <text text-anchor="start" x="632" y="-298.8" font-family="Arial" font-size="14.00" fill="#000000">topic
            </text>
            <text text-anchor="start" x="665.4619" y="-298.8" font-family="Arial" font-size="14.00" fill="#666666">
                [text]
            </text>
            <polygon fill="none" stroke="#000000" points="625,-256 625,-286 812,-286 812,-256 625,-256"/>
            <text text-anchor="start" x="632" y="-268.8" font-family="Arial" font-size="14.00" fill="#000000">
                is_forced
            </text>
            <text text-anchor="start" x="692.6963" y="-268.8" font-family="Arial" font-size="14.00" fill="#666666">
                [tinyint(1)]
            </text>
            <polygon fill="none" stroke="#000000" points="625,-226 625,-256 812,-256 812,-226 625,-226"/>
            <text text-anchor="start" x="632" y="-238.8" font-family="Arial" font-size="14.00" fill="#000000">
                is_public
            </text>
            <text text-anchor="start" x="690.3652" y="-238.8" font-family="Arial" font-size="14.00" fill="#666666">
                [tinyint(1)]
            </text>
            <polygon fill="none" stroke="#000000" points="625,-196 625,-226 812,-226 812,-196 625,-196"/>
            <text text-anchor="start" x="632" y="-208.8" font-family="Arial" font-size="14.00" fill="#000000">
                is_visible
            </text>
            <text text-anchor="start" x="692.6895" y="-208.8" font-family="Arial" font-size="14.00" fill="#666666">
                [tinyint(1)]
            </text>
            <polygon fill="none" stroke="#000000" points="625,-166 625,-196 812,-196 812,-166 625,-166"/>
            <text text-anchor="start" x="632" y="-178.8" font-family="Arial" font-size="14.00" fill="#000000">
                creator_id
            </text>
            <text text-anchor="start" x="698.1445" y="-178.8" font-family="Arial" font-size="14.00" fill="#666666">
                [char(36)]
            </text>
            <polygon fill="none" stroke="#000000" points="625,-136 625,-166 812,-166 812,-136 625,-136"/>
            <text text-anchor="start" x="632" y="-148.8" font-family="Arial" font-size="14.00" fill="#000000">
                updater_id
            </text>
            <text text-anchor="start" x="702.0547" y="-148.8" font-family="Arial" font-size="14.00" fill="#666666">
                [char(36)]
            </text>
            <polygon fill="none" stroke="#000000" points="625,-106 625,-136 812,-136 812,-106 625,-106"/>
            <text text-anchor="start" x="632" y="-118.8" font-family="Arial" font-size="14.00" fill="#000000">
                created_at
            </text>
            <text text-anchor="start" x="702.0479" y="-118.8" font-family="Arial" font-size="14.00" fill="#666666">
                [timestamp(6)]
            </text>
            <polygon fill="none" stroke="#000000" points="625,-76 625,-106 812,-106 812,-76 625,-76"/>
            <text text-anchor="start" x="632" y="-88.8" font-family="Arial" font-size="14.00" fill="#000000">
                updated_at
            </text>
            <text text-anchor="start" x="705.958" y="-88.8" font-family="Arial" font-size="14.00" fill="#666666">
                [timestamp(6)]
            </text>
            <polygon fill="none" stroke="#000000" points="625,-46 625,-76 812,-76 812,-46 625,-46"/>
            <text text-anchor="start" x="632" y="-58.8" font-family="Arial" font-size="14.00" fill="#000000">
                deleted_at
            </text>
            <text text-anchor="start" x="701.2822" y="-58.8" font-family="Arial" font-size="14.00" fill="#666666">
                [timestamp(6)]
            </text>
            <polygon fill="none" stroke="#000000" stroke-width="3"
                     points="623,-44.5 623,-441.5 813,-441.5 813,-44.5 623,-44.5"/>
        </g>
        <!-- messages -->
        <g id="node2" class="node">
            <title>messages</title>
            <polygon fill="#efefef" stroke="transparent" points="74,-775 74,-809 271,-809 271,-775 74,-775"/>
            <polygon fill="none" stroke="#000000" points="74,-775 74,-809 271,-809 271,-775 74,-775"/>
            <text text-anchor="start" x="80.9829" y="-788.6" font-family="Arial Bold" font-size="18.00" fill="#000000">
                messages
            </text>
            <text text-anchor="start" x="168.0474" y="-788.6" font-family="Arial" font-size="14.00"
                  fill="#000000"></text>
            <text text-anchor="start" x="171.937" y="-788.6" font-family="Arial" font-size="14.00" fill="#666666">[BASE
                TABLE]
            </text>
            <polygon fill="none" stroke="#000000" points="74,-745 74,-775 271,-775 271,-745 74,-745"/>
            <text text-anchor="start" x="81" y="-757.8" font-family="Arial" font-size="14.00" fill="#000000">id</text>
            <text text-anchor="start" x="95.7861" y="-757.8" font-family="Arial" font-size="14.00" fill="#666666">
                [char(36)]
            </text>
            <polygon fill="none" stroke="#000000" points="74,-715 74,-745 271,-745 271,-715 74,-715"/>
            <text text-anchor="start" x="81" y="-727.8" font-family="Arial" font-size="14.00" fill="#000000">user_id
            </text>
            <text text-anchor="start" x="130.8066" y="-727.8" font-family="Arial" font-size="14.00" fill="#666666">
                [char(36)]
            </text>
            <polygon fill="none" stroke="#000000" points="74,-685 74,-715 271,-715 271,-685 74,-685"/>
            <text text-anchor="start" x="81" y="-697.8" font-family="Arial" font-size="14.00" fill="#000000">
                channel_id
            </text>
            <text text-anchor="start" x="152.6133" y="-697.8" font-family="Arial" font-size="14.00" fill="#666666">
                [char(36)]
            </text>
            <polygon fill="none" stroke="#000000" points="74,-655 74,-685 271,-685 271,-655 74,-655"/>
            <text text-anchor="start" x="81" y="-667.8" font-family="Arial" font-size="14.00" fill="#000000">text</text>
            <text text-anchor="start" x="107.4551" y="-667.8" font-family="Arial" font-size="14.00" fill="#666666">
                [text]
            </text>
            <polygon fill="none" stroke="#000000" points="74,-625 74,-655 271,-655 271,-625 74,-625"/>
            <text text-anchor="start" x="81" y="-637.8" font-family="Arial" font-size="14.00" fill="#000000">
                created_at
            </text>
            <text text-anchor="start" x="151.0479" y="-637.8" font-family="Arial" font-size="14.00" fill="#666666">
                [timestamp(6)]
            </text>
            <polygon fill="none" stroke="#000000" points="74,-595 74,-625 271,-625 271,-595 74,-595"/>
            <text text-anchor="start" x="81" y="-607.8" font-family="Arial" font-size="14.00" fill="#000000">
                updated_at
            </text>
            <text text-anchor="start" x="154.958" y="-607.8" font-family="Arial" font-size="14.00" fill="#666666">
                [timestamp(6)]
            </text>
            <polygon fill="none" stroke="#000000" points="74,-565 74,-595 271,-595 271,-565 74,-565"/>
            <text text-anchor="start" x="81" y="-577.8" font-family="Arial" font-size="14.00" fill="#000000">
                deleted_at
            </text>
            <text text-anchor="start" x="150.2822" y="-577.8" font-family="Arial" font-size="14.00" fill="#666666">
                [timestamp(6)]
            </text>
        </g>
        <!-- messages&#45;&gt;channels -->
        <g id="edge1" class="edge">
            <title>messages:channel_id&#45;&gt;channels:id</title>
            <path fill="none" stroke="#000000"
                  d="M281.1217,-699.312C346.0678,-689.6704 270.9266,-581.0294 323,-522 419.7873,-412.2838 478.694,-391 625,-391"/>
            <polygon fill="#000000" stroke="#000000"
                     points="280.977,-699.3218 270.6948,-695.5104 275.9885,-699.6609 271,-700 271,-700 271,-700 275.9885,-699.6609 271.3052,-704.4896 280.977,-699.3218 280.977,-699.3218"/>
            <text text-anchor="start" x="7.4355" y="-709.5" font-family="Arial" font-size="10.00" fill="#000000">FOREIGN
                KEY (channel_id) REFERENCES channels (id)
            </text>
        </g>
        <!-- mutes -->
        <g id="node3" class="node">
            <title>mutes</title>
            <polygon fill="#efefef" stroke="transparent" points="375,-700 375,-734 537,-734 537,-700 375,-700"/>
            <polygon fill="none" stroke="#000000" points="375,-700 375,-734 537,-734 537,-700 375,-700"/>
            <text text-anchor="start" x="381.5073" y="-713.6" font-family="Arial Bold" font-size="18.00" fill="#000000">
                mutes
            </text>
            <text text-anchor="start" x="434.5229" y="-713.6" font-family="Arial" font-size="14.00"
                  fill="#000000"></text>
            <text text-anchor="start" x="438.4126" y="-713.6" font-family="Arial" font-size="14.00" fill="#666666">[BASE
                TABLE]
            </text>
            <polygon fill="none" stroke="#000000" points="375,-670 375,-700 537,-700 537,-670 375,-670"/>
            <text text-anchor="start" x="382" y="-682.8" font-family="Arial" font-size="14.00" fill="#000000">user_id
            </text>
            <text text-anchor="start" x="431.8066" y="-682.8" font-family="Arial" font-size="14.00" fill="#666666">
                [char(36)]
            </text>
            <polygon fill="none" stroke="#000000" points="375,-640 375,-670 537,-670 537,-640 375,-640"/>
            <text text-anchor="start" x="382" y="-652.8" font-family="Arial" font-size="14.00" fill="#000000">
                channel_id
            </text>
            <text text-anchor="start" x="453.6133" y="-652.8" font-family="Arial" font-size="14.00" fill="#666666">
                [char(36)]
            </text>
        </g>
        <!-- mutes&#45;&gt;channels -->
        <g id="edge2" class="edge">
            <title>mutes:channel_id&#45;&gt;channels:id</title>
            <path fill="none" stroke="#000000" d="M547.1558,-654.3335C651.5856,-639.7578 504.9433,-391 625,-391"/>
            <polygon fill="#000000" stroke="#000000"
                     points="546.9785,-654.345 536.7053,-650.5097 541.9893,-654.6725 537,-655 537,-655 537,-655 541.9893,-654.6725 537.2947,-659.4903 546.9785,-654.345 546.9785,-654.345"/>
            <text text-anchor="start" x="544.4355" y="-664.5" font-family="Arial" font-size="10.00" fill="#000000">
                FOREIGN KEY (channel_id) REFERENCES channels (id)
            </text>
        </g>
        <!-- stars -->
        <g id="node4" class="node">
            <title>stars</title>
            <polygon fill="#efefef" stroke="transparent" points="642,-700 642,-734 795,-734 795,-700 642,-700"/>
            <polygon fill="none" stroke="#000000" points="642,-700 642,-734 795,-734 795,-700 642,-700"/>
            <text text-anchor="start" x="648.9995" y="-713.6" font-family="Arial Bold" font-size="18.00" fill="#000000">
                stars
            </text>
            <text text-anchor="start" x="692.0308" y="-713.6" font-family="Arial" font-size="14.00"
                  fill="#000000"></text>
            <text text-anchor="start" x="695.9204" y="-713.6" font-family="Arial" font-size="14.00" fill="#666666">[BASE
                TABLE]
            </text>
            <polygon fill="none" stroke="#000000" points="642,-670 642,-700 795,-700 795,-670 642,-670"/>
            <text text-anchor="start" x="649" y="-682.8" font-family="Arial" font-size="14.00" fill="#000000">user_id
            </text>
            <text text-anchor="start" x="698.8066" y="-682.8" font-family="Arial" font-size="14.00" fill="#666666">
                [char(36)]
            </text>
            <polygon fill="none" stroke="#000000" points="642,-640 642,-670 795,-670 795,-640 642,-640"/>
            <text text-anchor="start" x="649" y="-652.8" font-family="Arial" font-size="14.00" fill="#000000">
                channel_id
            </text>
            <text text-anchor="start" x="720.6133" y="-652.8" font-family="Arial" font-size="14.00" fill="#666666">
                [char(36)]
            </text>
        </g>
        <!-- stars&#45;&gt;channels -->
        <g id="edge3" class="edge">
            <title>stars:channel_id&#45;&gt;channels:id</title>
            <path fill="none" stroke="#000000"
                  d="M718.5734,-629.6845C712.6063,-559.9539 645.7237,-559.7281 625,-486 613.5748,-445.353 582.7778,-391 625,-391"/>
            <polygon fill="#000000" stroke="#000000"
                     points="718.5867,-630.0085 714.5038,-640.186 718.7934,-635.0043 719,-640 719,-640 719,-640 718.7934,-635.0043 723.4962,-639.814 718.5867,-630.0085 718.5867,-630.0085"/>
            <text text-anchor="start" x="590.9355" y="-624.5" font-family="Arial" font-size="10.00" fill="#000000">
                FOREIGN KEY (channel_id) REFERENCES channels (id)
            </text>
        </g>
        <!-- users_private_channels -->
        <g id="node5" class="node">
            <title>users_private_channels</title>
            <polygon fill="#efefef" stroke="transparent" points="899,-700 899,-734 1214,-734 1214,-700 899,-700"/>
            <polygon fill="none" stroke="#000000" points="899,-700 899,-734 1214,-734 1214,-700 899,-700"/>
            <text text-anchor="start" x="905.96" y="-713.6" font-family="Arial Bold" font-size="18.00" fill="#000000">
                users_private_channels
            </text>
            <text text-anchor="start" x="1111.0703" y="-713.6" font-family="Arial" font-size="14.00"
                  fill="#000000"></text>
            <text text-anchor="start" x="1114.96" y="-713.6" font-family="Arial" font-size="14.00" fill="#666666">[BASE
                TABLE]
            </text>
            <polygon fill="none" stroke="#000000" points="899,-670 899,-700 1214,-700 1214,-670 899,-670"/>
            <text text-anchor="start" x="906" y="-682.8" font-family="Arial" font-size="14.00" fill="#000000">user_id
            </text>
            <text text-anchor="start" x="955.8066" y="-682.8" font-family="Arial" font-size="14.00" fill="#666666">
                [char(36)]
            </text>
            <polygon fill="none" stroke="#000000" points="899,-640 899,-670 1214,-670 1214,-640 899,-640"/>
            <text text-anchor="start" x="906" y="-652.8" font-family="Arial" font-size="14.00" fill="#000000">
                channel_id
            </text>
            <text text-anchor="start" x="977.6133" y="-652.8" font-family="Arial" font-size="14.00" fill="#666666">
                [char(36)]
            </text>
        </g>
        <!-- users_private_channels&#45;&gt;channels -->
        <g id="edge4" class="edge">
            <title>users_private_channels:channel_id&#45;&gt;channels:id</title>
            <path fill="none" stroke="#000000" d="M888.858,-654.3335C784.5959,-639.7578 931.921,-391 812,-391"/>
            <polygon fill="#000000" stroke="#000000"
                     points="889.0215,-654.3442 898.7049,-659.4903 894.0108,-654.6721 899,-655 899,-655 899,-655 894.0108,-654.6721 899.2951,-650.5097 889.0215,-654.3442 889.0215,-654.3442"/>
            <text text-anchor="start" x="906.4355" y="-664.5" font-family="Arial" font-size="10.00" fill="#000000">
                FOREIGN KEY (channel_id) REFERENCES channels (id)
            </text>
        </g>
        <!-- users_subscribe_channels -->
        <g id="node6" class="node">
            <title>users_subscribe_channels</title>
            <polygon fill="#efefef" stroke="transparent" points="1318,-700 1318,-734 1659,-734 1659,-700 1318,-700"/>
            <polygon fill="none" stroke="#000000" points="1318,-700 1318,-734 1659,-734 1659,-700 1318,-700"/>
            <text text-anchor="start" x="1324.9565" y="-713.6" font-family="Arial Bold" font-size="18.00"
                  fill="#000000">users_subscribe_channels
            </text>
            <text text-anchor="start" x="1556.0737" y="-713.6" font-family="Arial" font-size="14.00"
                  fill="#000000"></text>
            <text text-anchor="start" x="1559.9634" y="-713.6" font-family="Arial" font-size="14.00" fill="#666666">
                [BASE TABLE]
            </text>
            <polygon fill="none" stroke="#000000" points="1318,-670 1318,-700 1659,-700 1659,-670 1318,-670"/>
            <text text-anchor="start" x="1325" y="-682.8" font-family="Arial" font-size="14.00" fill="#000000">user_id
            </text>
            <text text-anchor="start" x="1374.8066" y="-682.8" font-family="Arial" font-size="14.00" fill="#666666">
                [char(36)]
            </text>
            <polygon fill="none" stroke="#000000" points="1318,-640 1318,-670 1659,-670 1659,-640 1318,-640"/>
            <text text-anchor="start" x="1325" y="-652.8" font-family="Arial" font-size="14.00" fill="#000000">
                channel_id
            </text>
            <text text-anchor="start" x="1396.6133" y="-652.8" font-family="Arial" font-size="14.00" fill="#666666">
                [char(36)]
            </text>
        </g>
        <!-- users_subscribe_channels&#45;&gt;channels -->
        <g id="edge5" class="edge">
            <title>users_subscribe_channels:channel_id&#45;&gt;channels:id</title>
            <path fill="none" stroke="#000000"
                  d="M1307.761,-654.0383C1261.2126,-644.248 1310.0516,-562.183 1266,-522 1188.4221,-451.2349 917.0049,-391 812,-391"/>
            <polygon fill="#000000" stroke="#000000"
                     points="1308.0438,-654.0647 1317.5791,-659.4803 1313.0219,-654.5324 1318,-655 1318,-655 1318,-655 1313.0219,-654.5324 1318.4209,-650.5197 1308.0438,-654.0647 1308.0438,-654.0647"/>
            <text text-anchor="start" x="1122.1855" y="-639.5" font-family="Arial" font-size="10.00" fill="#000000">
                FOREIGN KEY (channel_id) REFERENCES channels (id)
            </text>
        </g>
    </g>
</svg>
