<?xml version="1.0" encoding="UTF-8" standalone="no"?>
<!DOCTYPE svg PUBLIC "-//W3C//DTD SVG 1.1//EN"
 "http://www.w3.org/Graphics/SVG/1.1/DTD/svg11.dtd">
<!-- Generated by graphviz version 2.40.1 (20161225.0304)
 -->
<!-- Title: channels Pages: 1 -->
<svg width="2782pt" height="1460pt"
     viewBox="0.00 0.00 2782.00 1460.00" xmlns="http://www.w3.org/2000/svg">
<g id="graph0" class="graph" transform="scale(1 1) rotate(0) translate(4 1456)">
<title>channels</title>
<polygon fill="#ffffff" stroke="transparent" points="-4,4 -4,-1456 2778,-1456 2778,4 -4,4"/>
<!-- channels -->
<g id="node1" class="node">
<title>channels</title>
<polygon fill="#efefef" stroke="transparent" points="1226.5,-949 1226.5,-983 1413.5,-983 1413.5,-949 1226.5,-949"/>
<polygon fill="none" stroke="#000000" points="1226.5,-949 1226.5,-983 1413.5,-983 1413.5,-949 1226.5,-949"/>
<text text-anchor="start" x="1233.0005" y="-962.6" font-family="Arial Bold" font-size="18.00" fill="#000000">channels</text>
<text text-anchor="start" x="1311.0298" y="-962.6" font-family="Arial" font-size="14.00" fill="#000000"> </text>
<text text-anchor="start" x="1314.9194" y="-962.6" font-family="Arial" font-size="14.00" fill="#666666">[BASE TABLE]</text>
<polygon fill="none" stroke="#000000" points="1226.5,-919 1226.5,-949 1413.5,-949 1413.5,-919 1226.5,-919"/>
<text text-anchor="start" x="1233.5" y="-931.8" font-family="Arial" font-size="14.00" fill="#000000">id </text>
<text text-anchor="start" x="1248.2861" y="-931.8" font-family="Arial" font-size="14.00" fill="#666666">[char(36)]</text>
<polygon fill="none" stroke="#000000" points="1226.5,-889 1226.5,-919 1413.5,-919 1413.5,-889 1226.5,-889"/>
<text text-anchor="start" x="1233.5" y="-901.8" font-family="Arial" font-size="14.00" fill="#000000">name </text>
<text text-anchor="start" x="1272.4102" y="-901.8" font-family="Arial" font-size="14.00" fill="#666666">[varchar(20)]</text>
<polygon fill="none" stroke="#000000" points="1226.5,-859 1226.5,-889 1413.5,-889 1413.5,-859 1226.5,-859"/>
<text text-anchor="start" x="1233.5" y="-871.8" font-family="Arial" font-size="14.00" fill="#000000">parent_id </text>
<text text-anchor="start" x="1295.7686" y="-871.8" font-family="Arial" font-size="14.00" fill="#666666">[char(36)]</text>
<polygon fill="none" stroke="#000000" points="1226.5,-829 1226.5,-859 1413.5,-859 1413.5,-829 1226.5,-829"/>
<text text-anchor="start" x="1233.5" y="-841.8" font-family="Arial" font-size="14.00" fill="#000000">topic </text>
<text text-anchor="start" x="1266.9619" y="-841.8" font-family="Arial" font-size="14.00" fill="#666666">[text]</text>
<polygon fill="none" stroke="#000000" points="1226.5,-799 1226.5,-829 1413.5,-829 1413.5,-799 1226.5,-799"/>
<text text-anchor="start" x="1233.5" y="-811.8" font-family="Arial" font-size="14.00" fill="#000000">is_forced </text>
<text text-anchor="start" x="1294.1963" y="-811.8" font-family="Arial" font-size="14.00" fill="#666666">[tinyint(1)]</text>
<polygon fill="none" stroke="#000000" points="1226.5,-769 1226.5,-799 1413.5,-799 1413.5,-769 1226.5,-769"/>
<text text-anchor="start" x="1233.5" y="-781.8" font-family="Arial" font-size="14.00" fill="#000000">is_public </text>
<text text-anchor="start" x="1291.8652" y="-781.8" font-family="Arial" font-size="14.00" fill="#666666">[tinyint(1)]</text>
<polygon fill="none" stroke="#000000" points="1226.5,-739 1226.5,-769 1413.5,-769 1413.5,-739 1226.5,-739"/>
<text text-anchor="start" x="1233.5" y="-751.8" font-family="Arial" font-size="14.00" fill="#000000">is_visible </text>
<text text-anchor="start" x="1294.1895" y="-751.8" font-family="Arial" font-size="14.00" fill="#666666">[tinyint(1)]</text>
<polygon fill="none" stroke="#000000" points="1226.5,-709 1226.5,-739 1413.5,-739 1413.5,-709 1226.5,-709"/>
<text text-anchor="start" x="1233.5" y="-721.8" font-family="Arial" font-size="14.00" fill="#000000">creator_id </text>
<text text-anchor="start" x="1299.6445" y="-721.8" font-family="Arial" font-size="14.00" fill="#666666">[char(36)]</text>
<polygon fill="none" stroke="#000000" points="1226.5,-679 1226.5,-709 1413.5,-709 1413.5,-679 1226.5,-679"/>
<text text-anchor="start" x="1233.5" y="-691.8" font-family="Arial" font-size="14.00" fill="#000000">updater_id </text>
<text text-anchor="start" x="1303.5547" y="-691.8" font-family="Arial" font-size="14.00" fill="#666666">[char(36)]</text>
<polygon fill="none" stroke="#000000" points="1226.5,-649 1226.5,-679 1413.5,-679 1413.5,-649 1226.5,-649"/>
<text text-anchor="start" x="1233.5" y="-661.8" font-family="Arial" font-size="14.00" fill="#000000">created_at </text>
<text text-anchor="start" x="1303.5479" y="-661.8" font-family="Arial" font-size="14.00" fill="#666666">[timestamp(6)]</text>
<polygon fill="none" stroke="#000000" points="1226.5,-619 1226.5,-649 1413.5,-649 1413.5,-619 1226.5,-619"/>
<text text-anchor="start" x="1233.5" y="-631.8" font-family="Arial" font-size="14.00" fill="#000000">updated_at </text>
<text text-anchor="start" x="1307.458" y="-631.8" font-family="Arial" font-size="14.00" fill="#666666">[timestamp(6)]</text>
<polygon fill="none" stroke="#000000" points="1226.5,-589 1226.5,-619 1413.5,-619 1413.5,-589 1226.5,-589"/>
<text text-anchor="start" x="1233.5" y="-601.8" font-family="Arial" font-size="14.00" fill="#000000">deleted_at </text>
<text text-anchor="start" x="1302.7822" y="-601.8" font-family="Arial" font-size="14.00" fill="#666666">[timestamp(6)]</text>
</g>
<!-- channels&#45;&gt;channels -->
<g id="edge9" class="edge">
<title>channels:parent_id&#45;&gt;channels:id</title>
<path fill="none" stroke="#000000" stroke-dasharray="5,2" d="M1321.8325,-899.2597C1329.4756,-1055.5237 1329.0314,-1261 1320.5,-1261 1311.79,-1261 1311.5093,-1103.0293 1319.6579,-949.3338"/>
<polygon fill="#000000" stroke="#000000" points="1321.8209,-899.028 1325.8117,-888.8141 1321.5692,-894.0343 1321.3174,-889.0407 1321.3174,-889.0407 1321.3174,-889.0407 1321.5692,-894.0343 1316.8231,-889.2673 1321.8209,-899.028 1321.8209,-899.028"/>
<text text-anchor="start" x="1231.623" y="-898.5407" font-family="Arial" font-size="10.00" fill="#000000">Additional Relation</text>
</g>
<!-- users -->
<g id="node10" class="node">
<title>users</title>
<polygon fill="#efefef" stroke="transparent" points="1228.5,-433 1228.5,-467 1411.5,-467 1411.5,-433 1228.5,-433"/>
<polygon fill="none" stroke="#000000" points="1228.5,-433 1228.5,-467 1411.5,-467 1411.5,-433 1228.5,-433"/>
<text text-anchor="start" x="1247.999" y="-446.6" font-family="Arial Bold" font-size="18.00" fill="#000000">users</text>
<text text-anchor="start" x="1296.0313" y="-446.6" font-family="Arial" font-size="14.00" fill="#000000"> </text>
<text text-anchor="start" x="1299.9209" y="-446.6" font-family="Arial" font-size="14.00" fill="#666666">[BASE TABLE]</text>
<polygon fill="none" stroke="#000000" points="1228.5,-403 1228.5,-433 1411.5,-433 1411.5,-403 1228.5,-403"/>
<text text-anchor="start" x="1235.5" y="-415.8" font-family="Arial" font-size="14.00" fill="#000000">id </text>
<text text-anchor="start" x="1250.2861" y="-415.8" font-family="Arial" font-size="14.00" fill="#666666">[char(36)]</text>
<polygon fill="none" stroke="#000000" points="1228.5,-373 1228.5,-403 1411.5,-403 1411.5,-373 1228.5,-373"/>
<text text-anchor="start" x="1235.5" y="-385.8" font-family="Arial" font-size="14.00" fill="#000000">name </text>
<text text-anchor="start" x="1274.4102" y="-385.8" font-family="Arial" font-size="14.00" fill="#666666">[varchar(32)]</text>
<polygon fill="none" stroke="#000000" points="1228.5,-343 1228.5,-373 1411.5,-373 1411.5,-343 1228.5,-343"/>
<text text-anchor="start" x="1235.1831" y="-355.8" font-family="Arial" font-size="14.00" fill="#000000">display_name </text>
<text text-anchor="start" x="1325.4585" y="-355.8" font-family="Arial" font-size="14.00" fill="#666666">[varchar(64)]</text>
<polygon fill="none" stroke="#000000" points="1228.5,-313 1228.5,-343 1411.5,-343 1411.5,-313 1228.5,-313"/>
<text text-anchor="start" x="1235.5" y="-325.8" font-family="Arial" font-size="14.00" fill="#000000">password </text>
<text text-anchor="start" x="1299.3066" y="-325.8" font-family="Arial" font-size="14.00" fill="#666666">[char(128)]</text>
<polygon fill="none" stroke="#000000" points="1228.5,-283 1228.5,-313 1411.5,-313 1411.5,-283 1228.5,-283"/>
<text text-anchor="start" x="1235.5" y="-295.8" font-family="Arial" font-size="14.00" fill="#000000">salt </text>
<text text-anchor="start" x="1261.1758" y="-295.8" font-family="Arial" font-size="14.00" fill="#666666">[char(128)]</text>
<polygon fill="none" stroke="#000000" points="1228.5,-253 1228.5,-283 1411.5,-283 1411.5,-253 1228.5,-253"/>
<text text-anchor="start" x="1235.5" y="-265.8" font-family="Arial" font-size="14.00" fill="#000000">icon </text>
<text text-anchor="start" x="1265.0723" y="-265.8" font-family="Arial" font-size="14.00" fill="#666666">[char(36)]</text>
<polygon fill="none" stroke="#000000" points="1228.5,-223 1228.5,-253 1411.5,-253 1411.5,-223 1228.5,-223"/>
<text text-anchor="start" x="1235.5" y="-235.8" font-family="Arial" font-size="14.00" fill="#000000">status </text>
<text text-anchor="start" x="1276.7412" y="-235.8" font-family="Arial" font-size="14.00" fill="#666666">[tinyint(4)]</text>
<polygon fill="none" stroke="#000000" points="1228.5,-193 1228.5,-223 1411.5,-223 1411.5,-193 1228.5,-193"/>
<text text-anchor="start" x="1235.5" y="-205.8" font-family="Arial" font-size="14.00" fill="#000000">bot </text>
<text text-anchor="start" x="1258.8516" y="-205.8" font-family="Arial" font-size="14.00" fill="#666666">[tinyint(1)]</text>
<polygon fill="none" stroke="#000000" points="1228.5,-163 1228.5,-193 1411.5,-193 1411.5,-163 1228.5,-163"/>
<text text-anchor="start" x="1235.5" y="-175.8" font-family="Arial" font-size="14.00" fill="#000000">role </text>
<text text-anchor="start" x="1262.7344" y="-175.8" font-family="Arial" font-size="14.00" fill="#666666">[varchar(30)]</text>
<polygon fill="none" stroke="#000000" points="1228.5,-133 1228.5,-163 1411.5,-163 1411.5,-133 1228.5,-133"/>
<text text-anchor="start" x="1235.5" y="-145.8" font-family="Arial" font-size="14.00" fill="#000000">twitter_id </text>
<text text-anchor="start" x="1295.4102" y="-145.8" font-family="Arial" font-size="14.00" fill="#666666">[varchar(15)]</text>
<polygon fill="none" stroke="#000000" points="1228.5,-103 1228.5,-133 1411.5,-133 1411.5,-103 1228.5,-103"/>
<text text-anchor="start" x="1235.5" y="-115.8" font-family="Arial" font-size="14.00" fill="#000000">last_online </text>
<text text-anchor="start" x="1306.3271" y="-115.8" font-family="Arial" font-size="14.00" fill="#666666">[timestamp(6)]</text>
<polygon fill="none" stroke="#000000" points="1228.5,-73 1228.5,-103 1411.5,-103 1411.5,-73 1228.5,-73"/>
<text text-anchor="start" x="1235.5" y="-85.8" font-family="Arial" font-size="14.00" fill="#000000">created_at </text>
<text text-anchor="start" x="1305.5479" y="-85.8" font-family="Arial" font-size="14.00" fill="#666666">[timestamp(6)]</text>
<polygon fill="none" stroke="#000000" points="1228.5,-43 1228.5,-73 1411.5,-73 1411.5,-43 1228.5,-43"/>
<text text-anchor="start" x="1235.5" y="-55.8" font-family="Arial" font-size="14.00" fill="#000000">updated_at </text>
<text text-anchor="start" x="1309.458" y="-55.8" font-family="Arial" font-size="14.00" fill="#666666">[timestamp(6)]</text>
</g>
<!-- channels&#45;&gt;users -->
<g id="edge10" class="edge">
<title>channels:creator_id&#45;&gt;users:id</title>
<path fill="none" stroke="#000000" stroke-dasharray="5,2" d="M1216.4072,-723.4182C1090.685,-708.6582 1095.9503,-418 1228.5,-418"/>
<polygon fill="#000000" stroke="#000000" points="1216.5166,-723.4244 1226.241,-728.4925 1221.5083,-723.7122 1226.5,-724 1226.5,-724 1226.5,-724 1221.5083,-723.7122 1226.759,-719.5075 1216.5166,-723.4244 1216.5166,-723.4244"/>
<text text-anchor="start" x="1136.8057" y="-733.5" font-family="Arial" font-size="10.00" fill="#000000">Additional Relation</text>
</g>
<!-- channel_events -->
<g id="node2" class="node">
<title>channel_events</title>
<polygon fill="#efefef" stroke="transparent" points="43.5,-1315 43.5,-1349 288.5,-1349 288.5,-1315 43.5,-1315"/>
<polygon fill="none" stroke="#000000" points="43.5,-1315 43.5,-1349 288.5,-1349 288.5,-1315 43.5,-1315"/>
<text text-anchor="start" x="50.4844" y="-1328.6" font-family="Arial Bold" font-size="18.00" fill="#000000">channel_events</text>
<text text-anchor="start" x="185.5459" y="-1328.6" font-family="Arial" font-size="14.00" fill="#000000"> </text>
<text text-anchor="start" x="189.4355" y="-1328.6" font-family="Arial" font-size="14.00" fill="#666666">[BASE TABLE]</text>
<polygon fill="none" stroke="#000000" points="43.5,-1285 43.5,-1315 288.5,-1315 288.5,-1285 43.5,-1285"/>
<text text-anchor="start" x="50.5" y="-1297.8" font-family="Arial" font-size="14.00" fill="#000000">event_id </text>
<text text-anchor="start" x="107.3203" y="-1297.8" font-family="Arial" font-size="14.00" fill="#666666">[char(36)]</text>
<polygon fill="none" stroke="#000000" points="43.5,-1255 43.5,-1285 288.5,-1285 288.5,-1255 43.5,-1255"/>
<text text-anchor="start" x="50.5" y="-1267.8" font-family="Arial" font-size="14.00" fill="#000000">channel_id </text>
<text text-anchor="start" x="122.1133" y="-1267.8" font-family="Arial" font-size="14.00" fill="#666666">[char(36)]</text>
<polygon fill="none" stroke="#000000" points="43.5,-1225 43.5,-1255 288.5,-1255 288.5,-1225 43.5,-1225"/>
<text text-anchor="start" x="50.5" y="-1237.8" font-family="Arial" font-size="14.00" fill="#000000">event_type </text>
<text text-anchor="start" x="122.8857" y="-1237.8" font-family="Arial" font-size="14.00" fill="#666666">[varchar(30)]</text>
<polygon fill="none" stroke="#000000" points="43.5,-1195 43.5,-1225 288.5,-1225 288.5,-1195 43.5,-1195"/>
<text text-anchor="start" x="50.5" y="-1207.8" font-family="Arial" font-size="14.00" fill="#000000">detail </text>
<text text-anchor="start" x="87.8584" y="-1207.8" font-family="Arial" font-size="14.00" fill="#666666">[text]</text>
<polygon fill="none" stroke="#000000" points="43.5,-1165 43.5,-1195 288.5,-1195 288.5,-1165 43.5,-1165"/>
<text text-anchor="start" x="50.5" y="-1177.8" font-family="Arial" font-size="14.00" fill="#000000">date_time </text>
<text text-anchor="start" x="115.8721" y="-1177.8" font-family="Arial" font-size="14.00" fill="#666666">[timestamp(6)]</text>
</g>
<!-- channel_events&#45;&gt;channels -->
<g id="edge1" class="edge">
<title>channel_events:channel_id&#45;&gt;channels:id</title>
<path fill="none" stroke="#000000" d="M298.7322,-1269.3536C375.1651,-1258.8627 272.5509,-1123.3799 340.5,-1062 414.3108,-995.3251 1127.0335,-934 1226.5,-934"/>
<polygon fill="#000000" stroke="#000000" points="298.4801,-1269.3695 288.2163,-1265.509 293.4901,-1269.6847 288.5,-1270 288.5,-1270 288.5,-1270 293.4901,-1269.6847 288.7837,-1274.491 298.4801,-1269.3695 298.4801,-1269.3695"/>
<text text-anchor="start" x="160.4355" y="-1254.5" font-family="Arial" font-size="10.00" fill="#000000">FOREIGN KEY (channel_id) REFERENCES channels (id)</text>
</g>
<!-- dm_channel_mappings -->
<g id="node3" class="node">
<title>dm_channel_mappings</title>
<polygon fill="#efefef" stroke="transparent" points="392.5,-1285 392.5,-1319 702.5,-1319 702.5,-1285 392.5,-1285"/>
<polygon fill="none" stroke="#000000" points="392.5,-1285 392.5,-1319 702.5,-1319 702.5,-1285 392.5,-1285"/>
<text text-anchor="start" x="399.4912" y="-1298.6" font-family="Arial Bold" font-size="18.00" fill="#000000">dm_channel_mappings</text>
<text text-anchor="start" x="599.5391" y="-1298.6" font-family="Arial" font-size="14.00" fill="#000000"> </text>
<text text-anchor="start" x="603.4287" y="-1298.6" font-family="Arial" font-size="14.00" fill="#666666">[BASE TABLE]</text>
<polygon fill="none" stroke="#000000" points="392.5,-1255 392.5,-1285 702.5,-1285 702.5,-1255 392.5,-1255"/>
<text text-anchor="start" x="399.5" y="-1267.8" font-family="Arial" font-size="14.00" fill="#000000">channel_id </text>
<text text-anchor="start" x="471.1133" y="-1267.8" font-family="Arial" font-size="14.00" fill="#666666">[char(36)]</text>
<polygon fill="none" stroke="#000000" points="392.5,-1225 392.5,-1255 702.5,-1255 702.5,-1225 392.5,-1225"/>
<text text-anchor="start" x="399.5" y="-1237.8" font-family="Arial" font-size="14.00" fill="#000000">user1 </text>
<text text-anchor="start" x="438.4102" y="-1237.8" font-family="Arial" font-size="14.00" fill="#666666">[char(36)]</text>
<polygon fill="none" stroke="#000000" points="392.5,-1195 392.5,-1225 702.5,-1225 702.5,-1195 392.5,-1195"/>
<text text-anchor="start" x="399.5" y="-1207.8" font-family="Arial" font-size="14.00" fill="#000000">user2 </text>
<text text-anchor="start" x="438.4102" y="-1207.8" font-family="Arial" font-size="14.00" fill="#666666">[char(36)]</text>
</g>
<!-- dm_channel_mappings&#45;&gt;channels -->
<g id="edge2" class="edge">
<title>dm_channel_mappings:channel_id&#45;&gt;channels:id</title>
<path fill="none" stroke="#000000" d="M712.7498,-1269.372C789.4656,-1259.1757 690.3976,-1127.3869 754.5,-1062 830.5805,-984.395 1117.8227,-934 1226.5,-934"/>
<polygon fill="#000000" stroke="#000000" points="712.4813,-1269.3883 702.2247,-1265.5084 707.4906,-1269.6942 702.5,-1270 702.5,-1270 702.5,-1270 707.4906,-1269.6942 702.7753,-1274.4916 712.4813,-1269.3883 712.4813,-1269.3883"/>
<text text-anchor="start" x="574.4355" y="-1254.5" font-family="Arial" font-size="10.00" fill="#000000">FOREIGN KEY (channel_id) REFERENCES channels (id)</text>
</g>
<!-- messages -->
<g id="node4" class="node">
<title>messages</title>
<polygon fill="#efefef" stroke="transparent" points="807.5,-1345 807.5,-1379 1004.5,-1379 1004.5,-1345 807.5,-1345"/>
<polygon fill="none" stroke="#000000" points="807.5,-1345 807.5,-1379 1004.5,-1379 1004.5,-1345 807.5,-1345"/>
<text text-anchor="start" x="814.4829" y="-1358.6" font-family="Arial Bold" font-size="18.00" fill="#000000">messages</text>
<text text-anchor="start" x="901.5474" y="-1358.6" font-family="Arial" font-size="14.00" fill="#000000"> </text>
<text text-anchor="start" x="905.437" y="-1358.6" font-family="Arial" font-size="14.00" fill="#666666">[BASE TABLE]</text>
<polygon fill="none" stroke="#000000" points="807.5,-1315 807.5,-1345 1004.5,-1345 1004.5,-1315 807.5,-1315"/>
<text text-anchor="start" x="814.5" y="-1327.8" font-family="Arial" font-size="14.00" fill="#000000">id </text>
<text text-anchor="start" x="829.2861" y="-1327.8" font-family="Arial" font-size="14.00" fill="#666666">[char(36)]</text>
<polygon fill="none" stroke="#000000" points="807.5,-1285 807.5,-1315 1004.5,-1315 1004.5,-1285 807.5,-1285"/>
<text text-anchor="start" x="814.5" y="-1297.8" font-family="Arial" font-size="14.00" fill="#000000">user_id </text>
<text text-anchor="start" x="864.3066" y="-1297.8" font-family="Arial" font-size="14.00" fill="#666666">[char(36)]</text>
<polygon fill="none" stroke="#000000" points="807.5,-1255 807.5,-1285 1004.5,-1285 1004.5,-1255 807.5,-1255"/>
<text text-anchor="start" x="814.5" y="-1267.8" font-family="Arial" font-size="14.00" fill="#000000">channel_id </text>
<text text-anchor="start" x="886.1133" y="-1267.8" font-family="Arial" font-size="14.00" fill="#666666">[char(36)]</text>
<polygon fill="none" stroke="#000000" points="807.5,-1225 807.5,-1255 1004.5,-1255 1004.5,-1225 807.5,-1225"/>
<text text-anchor="start" x="814.5" y="-1237.8" font-family="Arial" font-size="14.00" fill="#000000">text </text>
<text text-anchor="start" x="840.9551" y="-1237.8" font-family="Arial" font-size="14.00" fill="#666666">[text]</text>
<polygon fill="none" stroke="#000000" points="807.5,-1195 807.5,-1225 1004.5,-1225 1004.5,-1195 807.5,-1195"/>
<text text-anchor="start" x="814.5" y="-1207.8" font-family="Arial" font-size="14.00" fill="#000000">created_at </text>
<text text-anchor="start" x="884.5479" y="-1207.8" font-family="Arial" font-size="14.00" fill="#666666">[timestamp(6)]</text>
<polygon fill="none" stroke="#000000" points="807.5,-1165 807.5,-1195 1004.5,-1195 1004.5,-1165 807.5,-1165"/>
<text text-anchor="start" x="814.5" y="-1177.8" font-family="Arial" font-size="14.00" fill="#000000">updated_at </text>
<text text-anchor="start" x="888.458" y="-1177.8" font-family="Arial" font-size="14.00" fill="#666666">[timestamp(6)]</text>
<polygon fill="none" stroke="#000000" points="807.5,-1135 807.5,-1165 1004.5,-1165 1004.5,-1135 807.5,-1135"/>
<text text-anchor="start" x="814.5" y="-1147.8" font-family="Arial" font-size="14.00" fill="#000000">deleted_at </text>
<text text-anchor="start" x="883.7822" y="-1147.8" font-family="Arial" font-size="14.00" fill="#666666">[timestamp(6)]</text>
</g>
<!-- messages&#45;&gt;channels -->
<g id="edge3" class="edge">
<title>messages:channel_id&#45;&gt;channels:id</title>
<path fill="none" stroke="#000000" d="M1014.8117,-1269.4221C1092.5222,-1260.0307 1005.9215,-1138.3308 1056.5,-1062 1108.7414,-983.1595 1131.9221,-934 1226.5,-934"/>
<polygon fill="#000000" stroke="#000000" points="1014.4843,-1269.4403 1004.2481,-1265.5071 1009.4922,-1269.7202 1004.5,-1270 1004.5,-1270 1004.5,-1270 1009.4922,-1269.7202 1004.7519,-1274.4929 1014.4843,-1269.4403 1014.4843,-1269.4403"/>
<text text-anchor="start" x="876.4355" y="-1254.5" font-family="Arial" font-size="10.00" fill="#000000">FOREIGN KEY (channel_id) REFERENCES channels (id)</text>
</g>
<!-- mutes -->
<g id="node5" class="node">
<title>mutes</title>
<polygon fill="#efefef" stroke="transparent" points="1108.5,-1270 1108.5,-1304 1270.5,-1304 1270.5,-1270 1108.5,-1270"/>
<polygon fill="none" stroke="#000000" points="1108.5,-1270 1108.5,-1304 1270.5,-1304 1270.5,-1270 1108.5,-1270"/>
<text text-anchor="start" x="1115.0073" y="-1283.6" font-family="Arial Bold" font-size="18.00" fill="#000000">mutes</text>
<text text-anchor="start" x="1168.0229" y="-1283.6" font-family="Arial" font-size="14.00" fill="#000000"> </text>
<text text-anchor="start" x="1171.9126" y="-1283.6" font-family="Arial" font-size="14.00" fill="#666666">[BASE TABLE]</text>
<polygon fill="none" stroke="#000000" points="1108.5,-1240 1108.5,-1270 1270.5,-1270 1270.5,-1240 1108.5,-1240"/>
<text text-anchor="start" x="1115.5" y="-1252.8" font-family="Arial" font-size="14.00" fill="#000000">user_id </text>
<text text-anchor="start" x="1165.3066" y="-1252.8" font-family="Arial" font-size="14.00" fill="#666666">[char(36)]</text>
<polygon fill="none" stroke="#000000" points="1108.5,-1210 1108.5,-1240 1270.5,-1240 1270.5,-1210 1108.5,-1210"/>
<text text-anchor="start" x="1115.5" y="-1222.8" font-family="Arial" font-size="14.00" fill="#000000">channel_id </text>
<text text-anchor="start" x="1187.1133" y="-1222.8" font-family="Arial" font-size="14.00" fill="#666666">[char(36)]</text>
</g>
<!-- mutes&#45;&gt;channels -->
<g id="edge4" class="edge">
<title>mutes:channel_id&#45;&gt;channels:id</title>
<path fill="none" stroke="#000000" d="M1280.5829,-1224.313C1384.3437,-1208.751 1099.401,-934 1226.5,-934"/>
<polygon fill="#000000" stroke="#000000" points="1280.4769,-1224.3202 1270.1941,-1220.5104 1275.4884,-1224.6601 1270.5,-1225 1270.5,-1225 1270.5,-1225 1275.4884,-1224.6601 1270.8059,-1229.4896 1280.4769,-1224.3202 1280.4769,-1224.3202"/>
<text text-anchor="start" x="1277.9355" y="-1234.5" font-family="Arial" font-size="10.00" fill="#000000">FOREIGN KEY (channel_id) REFERENCES channels (id)</text>
</g>
<!-- stars -->
<g id="node6" class="node">
<title>stars</title>
<polygon fill="#efefef" stroke="transparent" points="1375.5,-1270 1375.5,-1304 1528.5,-1304 1528.5,-1270 1375.5,-1270"/>
<polygon fill="none" stroke="#000000" points="1375.5,-1270 1375.5,-1304 1528.5,-1304 1528.5,-1270 1375.5,-1270"/>
<text text-anchor="start" x="1382.4995" y="-1283.6" font-family="Arial Bold" font-size="18.00" fill="#000000">stars</text>
<text text-anchor="start" x="1425.5308" y="-1283.6" font-family="Arial" font-size="14.00" fill="#000000"> </text>
<text text-anchor="start" x="1429.4204" y="-1283.6" font-family="Arial" font-size="14.00" fill="#666666">[BASE TABLE]</text>
<polygon fill="none" stroke="#000000" points="1375.5,-1240 1375.5,-1270 1528.5,-1270 1528.5,-1240 1375.5,-1240"/>
<text text-anchor="start" x="1382.5" y="-1252.8" font-family="Arial" font-size="14.00" fill="#000000">user_id </text>
<text text-anchor="start" x="1432.3066" y="-1252.8" font-family="Arial" font-size="14.00" fill="#666666">[char(36)]</text>
<polygon fill="none" stroke="#000000" points="1375.5,-1210 1375.5,-1240 1528.5,-1240 1528.5,-1210 1375.5,-1210"/>
<text text-anchor="start" x="1382.5" y="-1222.8" font-family="Arial" font-size="14.00" fill="#000000">channel_id </text>
<text text-anchor="start" x="1454.1133" y="-1222.8" font-family="Arial" font-size="14.00" fill="#666666">[char(36)]</text>
</g>
<!-- stars&#45;&gt;channels -->
<g id="edge5" class="edge">
<title>stars:channel_id&#45;&gt;channels:id</title>
<path fill="none" stroke="#000000" d="M1365.4319,-1224.313C1261.6521,-1208.751 1540.2375,-934 1413.5,-934"/>
<polygon fill="#000000" stroke="#000000" points="1365.5232,-1224.3192 1375.1936,-1229.4896 1370.5116,-1224.6596 1375.5,-1225 1375.5,-1225 1375.5,-1225 1370.5116,-1224.6596 1375.8064,-1220.5104 1365.5232,-1224.3192 1365.5232,-1224.3192"/>
<text text-anchor="start" x="1179.6855" y="-1209.5" font-family="Arial" font-size="10.00" fill="#000000">FOREIGN KEY (channel_id) REFERENCES channels (id)</text>
</g>
<!-- users_private_channels -->
<g id="node7" class="node">
<title>users_private_channels</title>
<polygon fill="#efefef" stroke="transparent" points="1632.5,-1270 1632.5,-1304 1947.5,-1304 1947.5,-1270 1632.5,-1270"/>
<polygon fill="none" stroke="#000000" points="1632.5,-1270 1632.5,-1304 1947.5,-1304 1947.5,-1270 1632.5,-1270"/>
<text text-anchor="start" x="1639.46" y="-1283.6" font-family="Arial Bold" font-size="18.00" fill="#000000">users_private_channels</text>
<text text-anchor="start" x="1844.5703" y="-1283.6" font-family="Arial" font-size="14.00" fill="#000000"> </text>
<text text-anchor="start" x="1848.46" y="-1283.6" font-family="Arial" font-size="14.00" fill="#666666">[BASE TABLE]</text>
<polygon fill="none" stroke="#000000" points="1632.5,-1240 1632.5,-1270 1947.5,-1270 1947.5,-1240 1632.5,-1240"/>
<text text-anchor="start" x="1639.5" y="-1252.8" font-family="Arial" font-size="14.00" fill="#000000">user_id </text>
<text text-anchor="start" x="1689.3066" y="-1252.8" font-family="Arial" font-size="14.00" fill="#666666">[char(36)]</text>
<polygon fill="none" stroke="#000000" points="1632.5,-1210 1632.5,-1240 1947.5,-1240 1947.5,-1210 1632.5,-1210"/>
<text text-anchor="start" x="1639.5" y="-1222.8" font-family="Arial" font-size="14.00" fill="#000000">channel_id </text>
<text text-anchor="start" x="1711.1133" y="-1222.8" font-family="Arial" font-size="14.00" fill="#666666">[char(36)]</text>
</g>
<!-- users_private_channels&#45;&gt;channels -->
<g id="edge6" class="edge">
<title>users_private_channels:channel_id&#45;&gt;channels:id</title>
<path fill="none" stroke="#000000" d="M1622.3601,-1224.2953C1562.8116,-1215.2486 1622.1021,-1121.1667 1580.5,-1062 1526.7112,-985.5013 1507.0162,-934 1413.5,-934"/>
<polygon fill="#000000" stroke="#000000" points="1622.5241,-1224.3066 1632.188,-1229.4892 1627.512,-1224.6533 1632.5,-1225 1632.5,-1225 1632.5,-1225 1627.512,-1224.6533 1632.812,-1220.5108 1622.5241,-1224.3066 1622.5241,-1224.3066"/>
<text text-anchor="start" x="1639.9355" y="-1234.5" font-family="Arial" font-size="10.00" fill="#000000">FOREIGN KEY (channel_id) REFERENCES channels (id)</text>
</g>
<!-- users_subscribe_channels -->
<g id="node8" class="node">
<title>users_subscribe_channels</title>
<polygon fill="#efefef" stroke="transparent" points="2051.5,-1270 2051.5,-1304 2392.5,-1304 2392.5,-1270 2051.5,-1270"/>
<polygon fill="none" stroke="#000000" points="2051.5,-1270 2051.5,-1304 2392.5,-1304 2392.5,-1270 2051.5,-1270"/>
<text text-anchor="start" x="2058.4565" y="-1283.6" font-family="Arial Bold" font-size="18.00" fill="#000000">users_subscribe_channels</text>
<text text-anchor="start" x="2289.5737" y="-1283.6" font-family="Arial" font-size="14.00" fill="#000000"> </text>
<text text-anchor="start" x="2293.4634" y="-1283.6" font-family="Arial" font-size="14.00" fill="#666666">[BASE TABLE]</text>
<polygon fill="none" stroke="#000000" points="2051.5,-1240 2051.5,-1270 2392.5,-1270 2392.5,-1240 2051.5,-1240"/>
<text text-anchor="start" x="2058.5" y="-1252.8" font-family="Arial" font-size="14.00" fill="#000000">user_id </text>
<text text-anchor="start" x="2108.3066" y="-1252.8" font-family="Arial" font-size="14.00" fill="#666666">[char(36)]</text>
<polygon fill="none" stroke="#000000" points="2051.5,-1210 2051.5,-1240 2392.5,-1240 2392.5,-1210 2051.5,-1210"/>
<text text-anchor="start" x="2058.5" y="-1222.8" font-family="Arial" font-size="14.00" fill="#000000">channel_id </text>
<text text-anchor="start" x="2130.1133" y="-1222.8" font-family="Arial" font-size="14.00" fill="#666666">[char(36)]</text>
</g>
<!-- users_subscribe_channels&#45;&gt;channels -->
<g id="edge7" class="edge">
<title>users_subscribe_channels:channel_id&#45;&gt;channels:id</title>
<path fill="none" stroke="#000000" d="M2041.445,-1224.2204C1982.972,-1214.2256 2052.9846,-1110.6911 1999.5,-1062 1900.9345,-972.2684 1546.7926,-934 1413.5,-934"/>
<polygon fill="#000000" stroke="#000000" points="2041.5299,-1224.2268 2051.1521,-1229.4865 2046.515,-1224.6134 2051.5,-1225 2051.5,-1225 2051.5,-1225 2046.515,-1224.6134 2051.8479,-1220.5135 2041.5299,-1224.2268 2041.5299,-1224.2268"/>
<text text-anchor="start" x="1855.6855" y="-1209.5" font-family="Arial" font-size="10.00" fill="#000000">FOREIGN KEY (channel_id) REFERENCES channels (id)</text>
</g>
<!-- webhook_bots -->
<g id="node9" class="node">
<title>webhook_bots</title>
<polygon fill="#efefef" stroke="transparent" points="2496.5,-1375 2496.5,-1409 2731.5,-1409 2731.5,-1375 2496.5,-1375"/>
<polygon fill="none" stroke="#000000" points="2496.5,-1375 2496.5,-1409 2731.5,-1409 2731.5,-1375 2496.5,-1375"/>
<text text-anchor="start" x="2503.0107" y="-1388.6" font-family="Arial Bold" font-size="18.00" fill="#000000">webhook_bots</text>
<text text-anchor="start" x="2629.0195" y="-1388.6" font-family="Arial" font-size="14.00" fill="#000000"> </text>
<text text-anchor="start" x="2632.9092" y="-1388.6" font-family="Arial" font-size="14.00" fill="#666666">[BASE TABLE]</text>
<polygon fill="none" stroke="#000000" points="2496.5,-1345 2496.5,-1375 2731.5,-1375 2731.5,-1345 2496.5,-1345"/>
<text text-anchor="start" x="2503.5" y="-1357.8" font-family="Arial" font-size="14.00" fill="#000000">id </text>
<text text-anchor="start" x="2518.2861" y="-1357.8" font-family="Arial" font-size="14.00" fill="#666666">[char(36)]</text>
<polygon fill="none" stroke="#000000" points="2496.5,-1315 2496.5,-1345 2731.5,-1345 2731.5,-1315 2496.5,-1315"/>
<text text-anchor="start" x="2503.5" y="-1327.8" font-family="Arial" font-size="14.00" fill="#000000">bot_user_id </text>
<text text-anchor="start" x="2580.5547" y="-1327.8" font-family="Arial" font-size="14.00" fill="#666666">[char(36)]</text>
<polygon fill="none" stroke="#000000" points="2496.5,-1285 2496.5,-1315 2731.5,-1315 2731.5,-1285 2496.5,-1285"/>
<text text-anchor="start" x="2503.5" y="-1297.8" font-family="Arial" font-size="14.00" fill="#000000">description </text>
<text text-anchor="start" x="2575.0928" y="-1297.8" font-family="Arial" font-size="14.00" fill="#666666">[text]</text>
<polygon fill="none" stroke="#000000" points="2496.5,-1255 2496.5,-1285 2731.5,-1285 2731.5,-1255 2496.5,-1255"/>
<text text-anchor="start" x="2503.5" y="-1267.8" font-family="Arial" font-size="14.00" fill="#000000">secret </text>
<text text-anchor="start" x="2545.5137" y="-1267.8" font-family="Arial" font-size="14.00" fill="#666666">[text]</text>
<polygon fill="none" stroke="#000000" points="2496.5,-1225 2496.5,-1255 2731.5,-1255 2731.5,-1225 2496.5,-1225"/>
<text text-anchor="start" x="2503.5" y="-1237.8" font-family="Arial" font-size="14.00" fill="#000000">channel_id </text>
<text text-anchor="start" x="2575.1133" y="-1237.8" font-family="Arial" font-size="14.00" fill="#666666">[char(36)]</text>
<polygon fill="none" stroke="#000000" points="2496.5,-1195 2496.5,-1225 2731.5,-1225 2731.5,-1195 2496.5,-1195"/>
<text text-anchor="start" x="2503.5" y="-1207.8" font-family="Arial" font-size="14.00" fill="#000000">creator_id </text>
<text text-anchor="start" x="2569.6445" y="-1207.8" font-family="Arial" font-size="14.00" fill="#666666">[char(36)]</text>
<polygon fill="none" stroke="#000000" points="2496.5,-1165 2496.5,-1195 2731.5,-1195 2731.5,-1165 2496.5,-1165"/>
<text text-anchor="start" x="2503.5" y="-1177.8" font-family="Arial" font-size="14.00" fill="#000000">created_at </text>
<text text-anchor="start" x="2573.5479" y="-1177.8" font-family="Arial" font-size="14.00" fill="#666666">[timestamp(6)]</text>
<polygon fill="none" stroke="#000000" points="2496.5,-1135 2496.5,-1165 2731.5,-1165 2731.5,-1135 2496.5,-1135"/>
<text text-anchor="start" x="2503.5" y="-1147.8" font-family="Arial" font-size="14.00" fill="#000000">updated_at </text>
<text text-anchor="start" x="2577.458" y="-1147.8" font-family="Arial" font-size="14.00" fill="#666666">[timestamp(6)]</text>
<polygon fill="none" stroke="#000000" points="2496.5,-1105 2496.5,-1135 2731.5,-1135 2731.5,-1105 2496.5,-1105"/>
<text text-anchor="start" x="2503.5" y="-1117.8" font-family="Arial" font-size="14.00" fill="#000000">deleted_at </text>
<text text-anchor="start" x="2572.7822" y="-1117.8" font-family="Arial" font-size="14.00" fill="#666666">[timestamp(6)]</text>
</g>
<!-- webhook_bots&#45;&gt;channels -->
<g id="edge8" class="edge">
<title>webhook_bots:channel_id&#45;&gt;channels:id</title>
<path fill="none" stroke="#000000" d="M2486.4259,-1239.2635C2422.1397,-1228.9502 2504.4483,-1113.013 2444.5,-1062 2356.5867,-987.1902 1528.935,-934 1413.5,-934"/>
<polygon fill="#000000" stroke="#000000" points="2486.5266,-1239.2708 2496.1718,-1244.488 2491.5133,-1239.6354 2496.5,-1240 2496.5,-1240 2496.5,-1240 2491.5133,-1239.6354 2496.8282,-1235.512 2486.5266,-1239.2708 2486.5266,-1239.2708"/>
<text text-anchor="start" x="2232.9355" y="-1249.5" font-family="Arial" font-size="10.00" fill="#000000">FOREIGN KEY (channel_id) REFERENCES channels (id)</text>
</g>
</g>
</svg>
