<?xml version="1.0" encoding="UTF-8" standalone="no"?>
<!DOCTYPE svg PUBLIC "-//W3C//DTD SVG 1.1//EN"
 "http://www.w3.org/Graphics/SVG/1.1/DTD/svg11.dtd">
<!-- Generated by graphviz version 2.40.1 (20161225.0304)
 -->
<!-- Title: channels Pages: 1 -->
<svg width="3352pt" height="1469pt"
 viewBox="0.00 0.00 3352.00 1469.00" xmlns="http://www.w3.org/2000/svg" xmlns:xlink="http://www.w3.org/1999/xlink">
<g id="graph0" class="graph" transform="scale(1 1) rotate(0) translate(4 1465)">
<title>channels</title>
<polygon fill="#ffffff" stroke="transparent" points="-4,4 -4,-1465 3348,-1465 3348,4 -4,4"/>
<!-- channels -->
<g id="node1" class="node">
<title>channels</title>
<polygon fill="#efefef" stroke="transparent" points="1503.5,-892.5 1503.5,-927.5 1686.5,-927.5 1686.5,-892.5 1503.5,-892.5"/>
<polygon fill="none" stroke="#000000" points="1503.5,-892.5 1503.5,-927.5 1686.5,-927.5 1686.5,-892.5 1503.5,-892.5"/>
<text text-anchor="start" x="1510.3605" y="-905.3" font-family="Arial Bold" font-size="18.00" fill="#000000">channels</text>
<text text-anchor="start" x="1582.3857" y="-905.3" font-family="Arial" font-size="14.00" fill="#000000"> </text>
<text text-anchor="start" x="1586.2763" y="-905.3" font-family="Arial" font-size="14.00" fill="#666666">[BASE TABLE]</text>
<polygon fill="none" stroke="#000000" points="1503.5,-862.5 1503.5,-892.5 1686.5,-892.5 1686.5,-862.5 1503.5,-862.5"/>
<text text-anchor="start" x="1510.5" y="-873.9" font-family="Arial" font-size="14.00" fill="#000000">id </text>
<text text-anchor="start" x="1525.2798" y="-873.9" font-family="Arial" font-size="14.00" fill="#666666">[char(36)]</text>
<polygon fill="none" stroke="#000000" points="1503.5,-832.5 1503.5,-862.5 1686.5,-862.5 1686.5,-832.5 1503.5,-832.5"/>
<text text-anchor="start" x="1510.5" y="-843.9" font-family="Arial" font-size="14.00" fill="#000000">name </text>
<text text-anchor="start" x="1549.399" y="-843.9" font-family="Arial" font-size="14.00" fill="#666666">[varchar(20)]</text>
<polygon fill="none" stroke="#000000" points="1503.5,-802.5 1503.5,-832.5 1686.5,-832.5 1686.5,-802.5 1503.5,-802.5"/>
<text text-anchor="start" x="1510.5" y="-813.9" font-family="Arial" font-size="14.00" fill="#000000">parent_id </text>
<text text-anchor="start" x="1572.744" y="-813.9" font-family="Arial" font-size="14.00" fill="#666666">[char(36)]</text>
<polygon fill="none" stroke="#000000" points="1503.5,-772.5 1503.5,-802.5 1686.5,-802.5 1686.5,-772.5 1503.5,-772.5"/>
<text text-anchor="start" x="1510.5" y="-783.9" font-family="Arial" font-size="14.00" fill="#000000">topic </text>
<text text-anchor="start" x="1543.953" y="-783.9" font-family="Arial" font-size="14.00" fill="#666666">[text]</text>
<polygon fill="none" stroke="#000000" points="1503.5,-742.5 1503.5,-772.5 1686.5,-772.5 1686.5,-742.5 1503.5,-742.5"/>
<text text-anchor="start" x="1510.5" y="-753.9" font-family="Arial" font-size="14.00" fill="#000000">is_forced </text>
<text text-anchor="start" x="1571.1788" y="-753.9" font-family="Arial" font-size="14.00" fill="#666666">[tinyint(1)]</text>
<polygon fill="none" stroke="#000000" points="1503.5,-712.5 1503.5,-742.5 1686.5,-742.5 1686.5,-712.5 1503.5,-712.5"/>
<text text-anchor="start" x="1510.5" y="-723.9" font-family="Arial" font-size="14.00" fill="#000000">is_public </text>
<text text-anchor="start" x="1568.8408" y="-723.9" font-family="Arial" font-size="14.00" fill="#666666">[tinyint(1)]</text>
<polygon fill="none" stroke="#000000" points="1503.5,-682.5 1503.5,-712.5 1686.5,-712.5 1686.5,-682.5 1503.5,-682.5"/>
<text text-anchor="start" x="1510.5" y="-693.9" font-family="Arial" font-size="14.00" fill="#000000">is_visible </text>
<text text-anchor="start" x="1571.1648" y="-693.9" font-family="Arial" font-size="14.00" fill="#666666">[tinyint(1)]</text>
<polygon fill="none" stroke="#000000" points="1503.5,-652.5 1503.5,-682.5 1686.5,-682.5 1686.5,-652.5 1503.5,-652.5"/>
<text text-anchor="start" x="1510.5" y="-663.9" font-family="Arial" font-size="14.00" fill="#000000">creator_id </text>
<text text-anchor="start" x="1576.622" y="-663.9" font-family="Arial" font-size="14.00" fill="#666666">[char(36)]</text>
<polygon fill="none" stroke="#000000" points="1503.5,-622.5 1503.5,-652.5 1686.5,-652.5 1686.5,-622.5 1503.5,-622.5"/>
<text text-anchor="start" x="1510.5" y="-633.9" font-family="Arial" font-size="14.00" fill="#000000">updater_id </text>
<text text-anchor="start" x="1580.5266" y="-633.9" font-family="Arial" font-size="14.00" fill="#666666">[char(36)]</text>
<polygon fill="none" stroke="#000000" points="1503.5,-592.5 1503.5,-622.5 1686.5,-622.5 1686.5,-592.5 1503.5,-592.5"/>
<text text-anchor="start" x="1510.5" y="-603.9" font-family="Arial" font-size="14.00" fill="#000000">created_at </text>
<text text-anchor="start" x="1580.528" y="-603.9" font-family="Arial" font-size="14.00" fill="#666666">[datetime(6)]</text>
<polygon fill="none" stroke="#000000" points="1503.5,-562.5 1503.5,-592.5 1686.5,-592.5 1686.5,-562.5 1503.5,-562.5"/>
<text text-anchor="start" x="1510.5" y="-573.9" font-family="Arial" font-size="14.00" fill="#000000">updated_at </text>
<text text-anchor="start" x="1584.4326" y="-573.9" font-family="Arial" font-size="14.00" fill="#666666">[datetime(6)]</text>
<polygon fill="none" stroke="#000000" points="1503.5,-532.5 1503.5,-562.5 1686.5,-562.5 1686.5,-532.5 1503.5,-532.5"/>
<text text-anchor="start" x="1510.5" y="-543.9" font-family="Arial" font-size="14.00" fill="#000000">deleted_at </text>
<text text-anchor="start" x="1579.7566" y="-543.9" font-family="Arial" font-size="14.00" fill="#666666">[datetime(6)]</text>
<polygon fill="none" stroke="#000000" stroke-width="3" points="1501.5,-531.5 1501.5,-929.5 1687.5,-929.5 1687.5,-531.5 1501.5,-531.5"/>
</g>
<!-- channels&#45;&gt;channels -->
<g id="edge11" class="edge">
<title>channels:parent_id&#45;&gt;channels:id</title>
<path fill="none" stroke="#000000" stroke-dasharray="5,2" d="M1596.7864,-842.9039C1604.4774,-1006.4658 1604.0486,-1226 1595.5,-1226 1586.7725,-1226 1586.5082,-1053.5989 1594.7074,-892.5448"/>
<polygon fill="#000000" stroke="#000000" points="1596.7764,-842.6948 1600.7874,-832.4888 1596.5345,-837.7006 1596.2926,-832.7065 1596.2926,-832.7065 1596.2926,-832.7065 1596.5345,-837.7006 1591.7979,-832.9242 1596.7764,-842.6948 1596.7764,-842.6948"/>
<text text-anchor="start" x="1506.6171" y="-842.7065" font-family="Arial" font-size="10.00" fill="#000000">Additional Relation</text>
</g>
<!-- users -->
<g id="node12" class="node">
<title>users</title>
<polygon fill="#efefef" stroke="transparent" points="1503.5,-372.5 1503.5,-407.5 1686.5,-407.5 1686.5,-372.5 1503.5,-372.5"/>
<polygon fill="none" stroke="#000000" points="1503.5,-372.5 1503.5,-407.5 1686.5,-407.5 1686.5,-372.5 1503.5,-372.5"/>
<text text-anchor="start" x="1524.3708" y="-385.3" font-family="Arial Bold" font-size="18.00" fill="#000000">users</text>
<text text-anchor="start" x="1568.3754" y="-385.3" font-family="Arial" font-size="14.00" fill="#000000"> </text>
<text text-anchor="start" x="1572.266" y="-385.3" font-family="Arial" font-size="14.00" fill="#666666">[BASE TABLE]</text>
<polygon fill="none" stroke="#000000" points="1503.5,-342.5 1503.5,-372.5 1686.5,-372.5 1686.5,-342.5 1503.5,-342.5"/>
<text text-anchor="start" x="1510.5" y="-353.9" font-family="Arial" font-size="14.00" fill="#000000">id </text>
<text text-anchor="start" x="1525.2798" y="-353.9" font-family="Arial" font-size="14.00" fill="#666666">[char(36)]</text>
<polygon fill="none" stroke="#000000" points="1503.5,-312.5 1503.5,-342.5 1686.5,-342.5 1686.5,-312.5 1503.5,-312.5"/>
<text text-anchor="start" x="1510.5" y="-323.9" font-family="Arial" font-size="14.00" fill="#000000">name </text>
<text text-anchor="start" x="1549.399" y="-323.9" font-family="Arial" font-size="14.00" fill="#666666">[varchar(32)]</text>
<polygon fill="none" stroke="#000000" points="1503.5,-282.5 1503.5,-312.5 1686.5,-312.5 1686.5,-282.5 1503.5,-282.5"/>
<text text-anchor="start" x="1510.2104" y="-293.9" font-family="Arial" font-size="14.00" fill="#000000">display_name </text>
<text text-anchor="start" x="1600.453" y="-293.9" font-family="Arial" font-size="14.00" fill="#666666">[varchar(32)]</text>
<polygon fill="none" stroke="#000000" points="1503.5,-252.5 1503.5,-282.5 1686.5,-282.5 1686.5,-252.5 1503.5,-252.5"/>
<text text-anchor="start" x="1510.5" y="-263.9" font-family="Arial" font-size="14.00" fill="#000000">password </text>
<text text-anchor="start" x="1574.2882" y="-263.9" font-family="Arial" font-size="14.00" fill="#666666">[char(128)]</text>
<polygon fill="none" stroke="#000000" points="1503.5,-222.5 1503.5,-252.5 1686.5,-252.5 1686.5,-222.5 1503.5,-222.5"/>
<text text-anchor="start" x="1510.5" y="-233.9" font-family="Arial" font-size="14.00" fill="#000000">salt </text>
<text text-anchor="start" x="1536.1704" y="-233.9" font-family="Arial" font-size="14.00" fill="#666666">[char(128)]</text>
<polygon fill="none" stroke="#000000" points="1503.5,-192.5 1503.5,-222.5 1686.5,-222.5 1686.5,-192.5 1503.5,-192.5"/>
<text text-anchor="start" x="1510.5" y="-203.9" font-family="Arial" font-size="14.00" fill="#000000">icon </text>
<text text-anchor="start" x="1540.0624" y="-203.9" font-family="Arial" font-size="14.00" fill="#666666">[char(36)]</text>
<polygon fill="none" stroke="#000000" points="1503.5,-162.5 1503.5,-192.5 1686.5,-192.5 1686.5,-162.5 1503.5,-162.5"/>
<text text-anchor="start" x="1510.5" y="-173.9" font-family="Arial" font-size="14.00" fill="#000000">status </text>
<text text-anchor="start" x="1551.737" y="-173.9" font-family="Arial" font-size="14.00" fill="#666666">[tinyint(4)]</text>
<polygon fill="none" stroke="#000000" points="1503.5,-132.5 1503.5,-162.5 1686.5,-162.5 1686.5,-132.5 1503.5,-132.5"/>
<text text-anchor="start" x="1510.5" y="-143.9" font-family="Arial" font-size="14.00" fill="#000000">bot </text>
<text text-anchor="start" x="1533.8464" y="-143.9" font-family="Arial" font-size="14.00" fill="#666666">[tinyint(1)]</text>
<polygon fill="none" stroke="#000000" points="1503.5,-102.5 1503.5,-132.5 1686.5,-132.5 1686.5,-102.5 1503.5,-102.5"/>
<text text-anchor="start" x="1510.5" y="-113.9" font-family="Arial" font-size="14.00" fill="#000000">role </text>
<text text-anchor="start" x="1537.723" y="-113.9" font-family="Arial" font-size="14.00" fill="#666666">[varchar(30)]</text>
<polygon fill="none" stroke="#000000" points="1503.5,-72.5 1503.5,-102.5 1686.5,-102.5 1686.5,-72.5 1503.5,-72.5"/>
<text text-anchor="start" x="1510.5" y="-83.9" font-family="Arial" font-size="14.00" fill="#000000">created_at </text>
<text text-anchor="start" x="1580.528" y="-83.9" font-family="Arial" font-size="14.00" fill="#666666">[datetime(6)]</text>
<polygon fill="none" stroke="#000000" points="1503.5,-42.5 1503.5,-72.5 1686.5,-72.5 1686.5,-42.5 1503.5,-42.5"/>
<text text-anchor="start" x="1510.5" y="-53.9" font-family="Arial" font-size="14.00" fill="#000000">updated_at </text>
<text text-anchor="start" x="1584.4326" y="-53.9" font-family="Arial" font-size="14.00" fill="#666666">[datetime(6)]</text>
</g>
<!-- channels&#45;&gt;users -->
<g id="edge12" class="edge">
<title>channels:creator_id&#45;&gt;users:id</title>
<path fill="none" stroke="#000000" stroke-dasharray="5,2" d="M1493.2717,-666.9106C1365.811,-651.9577 1369.2205,-357.5 1503.5,-357.5"/>
<polygon fill="#000000" stroke="#000000" points="1493.5166,-666.9246 1503.2411,-671.9925 1498.5083,-667.2123 1503.5,-667.5 1503.5,-667.5 1503.5,-667.5 1498.5083,-667.2123 1503.7589,-663.0075 1493.5166,-666.9246 1493.5166,-666.9246"/>
<text text-anchor="start" x="1413.8245" y="-677.5" font-family="Arial" font-size="10.00" fill="#000000">Additional Relation</text>
</g>
<!-- channel_events -->
<g id="node2" class="node">
<title>channel_events</title>
<polygon fill="#efefef" stroke="transparent" points="43.5,-1292.5 43.5,-1327.5 280.5,-1327.5 280.5,-1292.5 43.5,-1292.5"/>
<polygon fill="none" stroke="#000000" points="43.5,-1292.5 43.5,-1327.5 280.5,-1327.5 280.5,-1292.5 43.5,-1292.5"/>
<text text-anchor="start" x="50.347" y="-1305.3" font-family="Arial Bold" font-size="18.00" fill="#000000">channel_events</text>
<text text-anchor="start" x="176.3992" y="-1305.3" font-family="Arial" font-size="14.00" fill="#000000"> </text>
<text text-anchor="start" x="180.2898" y="-1305.3" font-family="Arial" font-size="14.00" fill="#666666">[BASE TABLE]</text>
<polygon fill="none" stroke="#000000" points="43.5,-1262.5 43.5,-1292.5 280.5,-1292.5 280.5,-1262.5 43.5,-1262.5"/>
<text text-anchor="start" x="50.5" y="-1273.9" font-family="Arial" font-size="14.00" fill="#000000">event_id </text>
<text text-anchor="start" x="107.3008" y="-1273.9" font-family="Arial" font-size="14.00" fill="#666666">[char(36)]</text>
<polygon fill="none" stroke="#000000" points="43.5,-1232.5 43.5,-1262.5 280.5,-1262.5 280.5,-1232.5 43.5,-1232.5"/>
<text text-anchor="start" x="50.5" y="-1243.9" font-family="Arial" font-size="14.00" fill="#000000">channel_id </text>
<text text-anchor="start" x="122.082" y="-1243.9" font-family="Arial" font-size="14.00" fill="#666666">[char(36)]</text>
<polygon fill="none" stroke="#000000" points="43.5,-1202.5 43.5,-1232.5 280.5,-1232.5 280.5,-1202.5 43.5,-1202.5"/>
<text text-anchor="start" x="50.5" y="-1213.9" font-family="Arial" font-size="14.00" fill="#000000">event_type </text>
<text text-anchor="start" x="122.8674" y="-1213.9" font-family="Arial" font-size="14.00" fill="#666666">[varchar(30)]</text>
<polygon fill="none" stroke="#000000" points="43.5,-1172.5 43.5,-1202.5 280.5,-1202.5 280.5,-1172.5 43.5,-1172.5"/>
<text text-anchor="start" x="50.5" y="-1183.9" font-family="Arial" font-size="14.00" fill="#000000">detail </text>
<text text-anchor="start" x="87.8422" y="-1183.9" font-family="Arial" font-size="14.00" fill="#666666">[text]</text>
<polygon fill="none" stroke="#000000" points="43.5,-1142.5 43.5,-1172.5 280.5,-1172.5 280.5,-1142.5 43.5,-1142.5"/>
<text text-anchor="start" x="50.5" y="-1153.9" font-family="Arial" font-size="14.00" fill="#000000">date_time </text>
<text text-anchor="start" x="115.852" y="-1153.9" font-family="Arial" font-size="14.00" fill="#666666">[datetime(6)]</text>
</g>
<!-- channel_events&#45;&gt;channels -->
<g id="edge1" class="edge">
<title>channel_events:channel_id&#45;&gt;channels:id</title>
<path fill="none" stroke="#000000" d="M290.7303,-1246.9319C379.3512,-1236.3269 254.2127,-1079.9947 331.5,-1010 428.637,-922.0285 1372.4482,-877.5 1503.5,-877.5"/>
<polygon fill="#000000" stroke="#000000" points="290.4846,-1246.9455 280.2505,-1243.0069 285.4923,-1247.2227 280.5,-1247.5 280.5,-1247.5 280.5,-1247.5 285.4923,-1247.2227 280.7495,-1251.9931 290.4846,-1246.9455 290.4846,-1246.9455"/>
<text text-anchor="start" x="152.378" y="-1231.5" font-family="Arial" font-size="10.00" fill="#000000">FOREIGN KEY (channel_id) REFERENCES channels (id)</text>
</g>
<!-- dm_channel_mappings -->
<g id="node3" class="node">
<title>dm_channel_mappings</title>
<polygon fill="#efefef" stroke="transparent" points="384.5,-1262.5 384.5,-1297.5 681.5,-1297.5 681.5,-1262.5 384.5,-1262.5"/>
<polygon fill="none" stroke="#000000" points="384.5,-1262.5 384.5,-1297.5 681.5,-1297.5 681.5,-1262.5 384.5,-1262.5"/>
<text text-anchor="start" x="391.3464" y="-1275.3" font-family="Arial Bold" font-size="18.00" fill="#000000">dm_channel_mappings</text>
<text text-anchor="start" x="577.3998" y="-1275.3" font-family="Arial" font-size="14.00" fill="#000000"> </text>
<text text-anchor="start" x="581.2904" y="-1275.3" font-family="Arial" font-size="14.00" fill="#666666">[BASE TABLE]</text>
<polygon fill="none" stroke="#000000" points="384.5,-1232.5 384.5,-1262.5 681.5,-1262.5 681.5,-1232.5 384.5,-1232.5"/>
<text text-anchor="start" x="391.5" y="-1243.9" font-family="Arial" font-size="14.00" fill="#000000">channel_id </text>
<text text-anchor="start" x="463.082" y="-1243.9" font-family="Arial" font-size="14.00" fill="#666666">[char(36)]</text>
<polygon fill="none" stroke="#000000" points="384.5,-1202.5 384.5,-1232.5 681.5,-1232.5 681.5,-1202.5 384.5,-1202.5"/>
<text text-anchor="start" x="391.5" y="-1213.9" font-family="Arial" font-size="14.00" fill="#000000">user1 </text>
<text text-anchor="start" x="430.399" y="-1213.9" font-family="Arial" font-size="14.00" fill="#666666">[char(36)]</text>
<polygon fill="none" stroke="#000000" points="384.5,-1172.5 384.5,-1202.5 681.5,-1202.5 681.5,-1172.5 384.5,-1172.5"/>
<text text-anchor="start" x="391.5" y="-1183.9" font-family="Arial" font-size="14.00" fill="#000000">user2 </text>
<text text-anchor="start" x="430.399" y="-1183.9" font-family="Arial" font-size="14.00" fill="#666666">[char(36)]</text>
</g>
<!-- dm_channel_mappings&#45;&gt;channels -->
<g id="edge2" class="edge">
<title>dm_channel_mappings:channel_id&#45;&gt;channels:id</title>
<path fill="none" stroke="#000000" d="M691.7492,-1246.9393C780.6324,-1236.4716 658.0579,-1082.1114 733.5,-1010 859.0114,-890.0297 1329.874,-877.5 1503.5,-877.5"/>
<polygon fill="#000000" stroke="#000000" points="691.4851,-1246.9537 681.2542,-1243.0067 686.4925,-1247.2268 681.5,-1247.5 681.5,-1247.5 681.5,-1247.5 686.4925,-1247.2268 681.7458,-1251.9933 691.4851,-1246.9537 691.4851,-1246.9537"/>
<text text-anchor="start" x="553.378" y="-1231.5" font-family="Arial" font-size="10.00" fill="#000000">FOREIGN KEY (channel_id) REFERENCES channels (id)</text>
</g>
<!-- files -->
<g id="node4" class="node">
<title>files</title>
<polygon fill="#efefef" stroke="transparent" points="785.5,-1382.5 785.5,-1417.5 985.5,-1417.5 985.5,-1382.5 785.5,-1382.5"/>
<polygon fill="none" stroke="#000000" points="785.5,-1382.5 785.5,-1417.5 985.5,-1417.5 985.5,-1382.5 785.5,-1382.5"/>
<text text-anchor="start" x="820.8747" y="-1395.3" font-family="Arial Bold" font-size="18.00" fill="#000000">files</text>
<text text-anchor="start" x="852.8715" y="-1395.3" font-family="Arial" font-size="14.00" fill="#000000"> </text>
<text text-anchor="start" x="856.7621" y="-1395.3" font-family="Arial" font-size="14.00" fill="#666666">[BASE TABLE]</text>
<polygon fill="none" stroke="#000000" points="785.5,-1352.5 785.5,-1382.5 985.5,-1382.5 985.5,-1352.5 785.5,-1352.5"/>
<text text-anchor="start" x="792.5" y="-1363.9" font-family="Arial" font-size="14.00" fill="#000000">id </text>
<text text-anchor="start" x="807.2798" y="-1363.9" font-family="Arial" font-size="14.00" fill="#666666">[char(36)]</text>
<polygon fill="none" stroke="#000000" points="785.5,-1322.5 785.5,-1352.5 985.5,-1352.5 985.5,-1322.5 785.5,-1322.5"/>
<text text-anchor="start" x="792.5" y="-1333.9" font-family="Arial" font-size="14.00" fill="#000000">name </text>
<text text-anchor="start" x="831.399" y="-1333.9" font-family="Arial" font-size="14.00" fill="#666666">[text]</text>
<polygon fill="none" stroke="#000000" points="785.5,-1292.5 785.5,-1322.5 985.5,-1322.5 985.5,-1292.5 785.5,-1292.5"/>
<text text-anchor="start" x="792.5" y="-1303.9" font-family="Arial" font-size="14.00" fill="#000000">mime </text>
<text text-anchor="start" x="830.601" y="-1303.9" font-family="Arial" font-size="14.00" fill="#666666">[text]</text>
<polygon fill="none" stroke="#000000" points="785.5,-1262.5 785.5,-1292.5 985.5,-1292.5 985.5,-1262.5 785.5,-1262.5"/>
<text text-anchor="start" x="792.5" y="-1273.9" font-family="Arial" font-size="14.00" fill="#000000">size </text>
<text text-anchor="start" x="821.2798" y="-1273.9" font-family="Arial" font-size="14.00" fill="#666666">[bigint(20)]</text>
<polygon fill="none" stroke="#000000" points="785.5,-1232.5 785.5,-1262.5 985.5,-1262.5 985.5,-1232.5 785.5,-1232.5"/>
<text text-anchor="start" x="792.5" y="-1243.9" font-family="Arial" font-size="14.00" fill="#000000">creator_id </text>
<text text-anchor="start" x="858.622" y="-1243.9" font-family="Arial" font-size="14.00" fill="#666666">[char(36)]</text>
<polygon fill="none" stroke="#000000" points="785.5,-1202.5 785.5,-1232.5 985.5,-1232.5 985.5,-1202.5 785.5,-1202.5"/>
<text text-anchor="start" x="792.5" y="-1213.9" font-family="Arial" font-size="14.00" fill="#000000">hash </text>
<text text-anchor="start" x="826.7384" y="-1213.9" font-family="Arial" font-size="14.00" fill="#666666">[char(32)]</text>
<polygon fill="none" stroke="#000000" points="785.5,-1172.5 785.5,-1202.5 985.5,-1202.5 985.5,-1172.5 785.5,-1172.5"/>
<text text-anchor="start" x="792.5" y="-1183.9" font-family="Arial" font-size="14.00" fill="#000000">type </text>
<text text-anchor="start" x="822.8464" y="-1183.9" font-family="Arial" font-size="14.00" fill="#666666">[varchar(30)]</text>
<polygon fill="none" stroke="#000000" points="785.5,-1142.5 785.5,-1172.5 985.5,-1172.5 985.5,-1142.5 785.5,-1142.5"/>
<text text-anchor="start" x="792.1536" y="-1153.9" font-family="Arial" font-size="14.00" fill="#000000">is_animated_image </text>
<text text-anchor="start" x="917.4018" y="-1153.9" font-family="Arial" font-size="14.00" fill="#666666">[tinyint(1)]</text>
<polygon fill="none" stroke="#000000" points="785.5,-1112.5 785.5,-1142.5 985.5,-1142.5 985.5,-1112.5 785.5,-1112.5"/>
<text text-anchor="start" x="792.5" y="-1123.9" font-family="Arial" font-size="14.00" fill="#000000">channel_id </text>
<text text-anchor="start" x="864.082" y="-1123.9" font-family="Arial" font-size="14.00" fill="#666666">[char(36)]</text>
<polygon fill="none" stroke="#000000" points="785.5,-1082.5 785.5,-1112.5 985.5,-1112.5 985.5,-1082.5 785.5,-1082.5"/>
<text text-anchor="start" x="792.5" y="-1093.9" font-family="Arial" font-size="14.00" fill="#000000">created_at </text>
<text text-anchor="start" x="862.528" y="-1093.9" font-family="Arial" font-size="14.00" fill="#666666">[datetime(6)]</text>
<polygon fill="none" stroke="#000000" points="785.5,-1052.5 785.5,-1082.5 985.5,-1082.5 985.5,-1052.5 785.5,-1052.5"/>
<text text-anchor="start" x="792.5" y="-1063.9" font-family="Arial" font-size="14.00" fill="#000000">deleted_at </text>
<text text-anchor="start" x="861.7566" y="-1063.9" font-family="Arial" font-size="14.00" fill="#666666">[datetime(6)]</text>
</g>
<!-- files&#45;&gt;channels -->
<g id="edge3" class="edge">
<title>files:channel_id&#45;&gt;channels:id</title>
<path fill="none" stroke="#000000" d="M995.5412,-1126.4771C1036.6078,-1117.0582 997.2625,-1044.9781 1037.5,-1010 1118.752,-939.3683 1395.8398,-877.5 1503.5,-877.5"/>
<polygon fill="#000000" stroke="#000000" points="995.4485,-1126.4865 985.0439,-1123.0232 990.4743,-1126.9932 985.5,-1127.5 985.5,-1127.5 985.5,-1127.5 990.4743,-1126.9932 985.9561,-1131.9768 995.4485,-1126.4865 995.4485,-1126.4865"/>
<text text-anchor="start" x="721.878" y="-1111.5" font-family="Arial" font-size="10.00" fill="#000000">FOREIGN KEY (channel_id) REFERENCES channels (id)</text>
</g>
<!-- messages -->
<g id="node5" class="node">
<title>messages</title>
<polygon fill="#efefef" stroke="transparent" points="1090.5,-1322.5 1090.5,-1357.5 1283.5,-1357.5 1283.5,-1322.5 1090.5,-1322.5"/>
<polygon fill="none" stroke="#000000" points="1090.5,-1322.5 1090.5,-1357.5 1283.5,-1357.5 1283.5,-1322.5 1090.5,-1322.5"/>
<text text-anchor="start" x="1097.3646" y="-1335.3" font-family="Arial Bold" font-size="18.00" fill="#000000">messages</text>
<text text-anchor="start" x="1179.3816" y="-1335.3" font-family="Arial" font-size="14.00" fill="#000000"> </text>
<text text-anchor="start" x="1183.2722" y="-1335.3" font-family="Arial" font-size="14.00" fill="#666666">[BASE TABLE]</text>
<polygon fill="none" stroke="#000000" points="1090.5,-1292.5 1090.5,-1322.5 1283.5,-1322.5 1283.5,-1292.5 1090.5,-1292.5"/>
<text text-anchor="start" x="1097.5" y="-1303.9" font-family="Arial" font-size="14.00" fill="#000000">id </text>
<text text-anchor="start" x="1112.2798" y="-1303.9" font-family="Arial" font-size="14.00" fill="#666666">[char(36)]</text>
<polygon fill="none" stroke="#000000" points="1090.5,-1262.5 1090.5,-1292.5 1283.5,-1292.5 1283.5,-1262.5 1090.5,-1262.5"/>
<text text-anchor="start" x="1097.5" y="-1273.9" font-family="Arial" font-size="14.00" fill="#000000">user_id </text>
<text text-anchor="start" x="1147.2882" y="-1273.9" font-family="Arial" font-size="14.00" fill="#666666">[char(36)]</text>
<polygon fill="none" stroke="#000000" points="1090.5,-1232.5 1090.5,-1262.5 1283.5,-1262.5 1283.5,-1232.5 1090.5,-1232.5"/>
<text text-anchor="start" x="1097.5" y="-1243.9" font-family="Arial" font-size="14.00" fill="#000000">channel_id </text>
<text text-anchor="start" x="1169.082" y="-1243.9" font-family="Arial" font-size="14.00" fill="#666666">[char(36)]</text>
<polygon fill="none" stroke="#000000" points="1090.5,-1202.5 1090.5,-1232.5 1283.5,-1232.5 1283.5,-1202.5 1090.5,-1202.5"/>
<text text-anchor="start" x="1097.5" y="-1213.9" font-family="Arial" font-size="14.00" fill="#000000">text </text>
<text text-anchor="start" x="1123.9544" y="-1213.9" font-family="Arial" font-size="14.00" fill="#666666">[text]</text>
<polygon fill="none" stroke="#000000" points="1090.5,-1172.5 1090.5,-1202.5 1283.5,-1202.5 1283.5,-1172.5 1090.5,-1172.5"/>
<text text-anchor="start" x="1097.5" y="-1183.9" font-family="Arial" font-size="14.00" fill="#000000">created_at </text>
<text text-anchor="start" x="1167.528" y="-1183.9" font-family="Arial" font-size="14.00" fill="#666666">[datetime(6)]</text>
<polygon fill="none" stroke="#000000" points="1090.5,-1142.5 1090.5,-1172.5 1283.5,-1172.5 1283.5,-1142.5 1090.5,-1142.5"/>
<text text-anchor="start" x="1097.5" y="-1153.9" font-family="Arial" font-size="14.00" fill="#000000">updated_at </text>
<text text-anchor="start" x="1171.4326" y="-1153.9" font-family="Arial" font-size="14.00" fill="#666666">[datetime(6)]</text>
<polygon fill="none" stroke="#000000" points="1090.5,-1112.5 1090.5,-1142.5 1283.5,-1142.5 1283.5,-1112.5 1090.5,-1112.5"/>
<text text-anchor="start" x="1097.5" y="-1123.9" font-family="Arial" font-size="14.00" fill="#000000">deleted_at </text>
<text text-anchor="start" x="1166.7566" y="-1123.9" font-family="Arial" font-size="14.00" fill="#666666">[datetime(6)]</text>
</g>
<!-- messages&#45;&gt;channels -->
<g id="edge4" class="edge">
<title>messages:channel_id&#45;&gt;channels:id</title>
<path fill="none" stroke="#000000" d="M1293.5454,-1247.0248C1384.2146,-1237.8707 1280.0728,-1098.5518 1335.5,-1010 1385.954,-929.3935 1408.4052,-877.5 1503.5,-877.5"/>
<polygon fill="#000000" stroke="#000000" points="1293.4888,-1247.0273 1283.2873,-1243.005 1288.4944,-1247.2637 1283.5,-1247.5 1283.5,-1247.5 1283.5,-1247.5 1288.4944,-1247.2637 1283.7127,-1251.995 1293.4888,-1247.0273 1293.4888,-1247.0273"/>
<text text-anchor="start" x="1155.378" y="-1231.5" font-family="Arial" font-size="10.00" fill="#000000">FOREIGN KEY (channel_id) REFERENCES channels (id)</text>
</g>
<!-- stars -->
<g id="node6" class="node">
<title>stars</title>
<polygon fill="#efefef" stroke="transparent" points="1387.5,-1247.5 1387.5,-1282.5 1537.5,-1282.5 1537.5,-1247.5 1387.5,-1247.5"/>
<polygon fill="none" stroke="#000000" points="1387.5,-1247.5 1387.5,-1282.5 1537.5,-1282.5 1537.5,-1247.5 1387.5,-1247.5"/>
<text text-anchor="start" x="1394.3728" y="-1260.3" font-family="Arial Bold" font-size="18.00" fill="#000000">stars</text>
<text text-anchor="start" x="1433.3734" y="-1260.3" font-family="Arial" font-size="14.00" fill="#000000"> </text>
<text text-anchor="start" x="1437.264" y="-1260.3" font-family="Arial" font-size="14.00" fill="#666666">[BASE TABLE]</text>
<polygon fill="none" stroke="#000000" points="1387.5,-1217.5 1387.5,-1247.5 1537.5,-1247.5 1537.5,-1217.5 1387.5,-1217.5"/>
<text text-anchor="start" x="1394.5" y="-1228.9" font-family="Arial" font-size="14.00" fill="#000000">user_id </text>
<text text-anchor="start" x="1444.2882" y="-1228.9" font-family="Arial" font-size="14.00" fill="#666666">[char(36)]</text>
<polygon fill="none" stroke="#000000" points="1387.5,-1187.5 1387.5,-1217.5 1537.5,-1217.5 1537.5,-1187.5 1387.5,-1187.5"/>
<text text-anchor="start" x="1394.5" y="-1198.9" font-family="Arial" font-size="14.00" fill="#000000">channel_id </text>
<text text-anchor="start" x="1466.082" y="-1198.9" font-family="Arial" font-size="14.00" fill="#666666">[char(36)]</text>
</g>
<!-- stars&#45;&gt;channels -->
<g id="edge5" class="edge">
<title>stars:channel_id&#45;&gt;channels:id</title>
<path fill="none" stroke="#000000" d="M1547.6696,-1201.8821C1666.5588,-1186.2056 1361.9548,-877.5 1503.5,-877.5"/>
<polygon fill="#000000" stroke="#000000" points="1547.4816,-1201.8934 1537.227,-1198.0083 1542.4908,-1202.1967 1537.5,-1202.5 1537.5,-1202.5 1537.5,-1202.5 1542.4908,-1202.1967 1537.773,-1206.9917 1547.4816,-1201.8934 1547.4816,-1201.8934"/>
<text text-anchor="start" x="1544.878" y="-1212.5" font-family="Arial" font-size="10.00" fill="#000000">FOREIGN KEY (channel_id) REFERENCES channels (id)</text>
</g>
<!-- unreads -->
<g id="node7" class="node">
<title>unreads</title>
<polygon fill="#efefef" stroke="transparent" points="1641.5,-1292.5 1641.5,-1327.5 1817.5,-1327.5 1817.5,-1292.5 1641.5,-1292.5"/>
<polygon fill="none" stroke="#000000" points="1641.5,-1292.5 1641.5,-1327.5 1817.5,-1327.5 1817.5,-1292.5 1641.5,-1292.5"/>
<text text-anchor="start" x="1648.3615" y="-1305.3" font-family="Arial Bold" font-size="18.00" fill="#000000">unreads</text>
<text text-anchor="start" x="1713.3847" y="-1305.3" font-family="Arial" font-size="14.00" fill="#000000"> </text>
<text text-anchor="start" x="1717.2753" y="-1305.3" font-family="Arial" font-size="14.00" fill="#666666">[BASE TABLE]</text>
<polygon fill="none" stroke="#000000" points="1641.5,-1262.5 1641.5,-1292.5 1817.5,-1292.5 1817.5,-1262.5 1641.5,-1262.5"/>
<text text-anchor="start" x="1648.5" y="-1273.9" font-family="Arial" font-size="14.00" fill="#000000">user_id </text>
<text text-anchor="start" x="1698.2882" y="-1273.9" font-family="Arial" font-size="14.00" fill="#666666">[char(36)]</text>
<polygon fill="none" stroke="#000000" points="1641.5,-1232.5 1641.5,-1262.5 1817.5,-1262.5 1817.5,-1232.5 1641.5,-1232.5"/>
<text text-anchor="start" x="1648.5" y="-1243.9" font-family="Arial" font-size="14.00" fill="#000000">channel_id </text>
<text text-anchor="start" x="1720.082" y="-1243.9" font-family="Arial" font-size="14.00" fill="#666666">[char(36)]</text>
<polygon fill="none" stroke="#000000" points="1641.5,-1202.5 1641.5,-1232.5 1817.5,-1232.5 1817.5,-1202.5 1641.5,-1202.5"/>
<text text-anchor="start" x="1648.5" y="-1213.9" font-family="Arial" font-size="14.00" fill="#000000">message_id </text>
<text text-anchor="start" x="1727.8534" y="-1213.9" font-family="Arial" font-size="14.00" fill="#666666">[char(36)]</text>
<polygon fill="none" stroke="#000000" points="1641.5,-1172.5 1641.5,-1202.5 1817.5,-1202.5 1817.5,-1172.5 1641.5,-1172.5"/>
<text text-anchor="start" x="1648.5" y="-1183.9" font-family="Arial" font-size="14.00" fill="#000000">noticeable </text>
<text text-anchor="start" x="1716.19" y="-1183.9" font-family="Arial" font-size="14.00" fill="#666666">[tinyint(1)]</text>
<polygon fill="none" stroke="#000000" points="1641.5,-1142.5 1641.5,-1172.5 1817.5,-1172.5 1817.5,-1142.5 1641.5,-1142.5"/>
<text text-anchor="start" x="1648.5" y="-1153.9" font-family="Arial" font-size="14.00" fill="#000000">created_at </text>
<text text-anchor="start" x="1718.528" y="-1153.9" font-family="Arial" font-size="14.00" fill="#666666">[datetime(6)]</text>
</g>
<!-- unreads&#45;&gt;channels -->
<g id="edge6" class="edge">
<title>unreads:channel_id&#45;&gt;channels:id</title>
<path fill="none" stroke="#000000" d="M1631.4269,-1246.17C1561.4389,-1225.7287 1686.0689,-976.4889 1686.5,-974 1693.8199,-931.7404 1729.3889,-877.5 1686.5,-877.5"/>
<polygon fill="#000000" stroke="#000000" points="1631.586,-1246.1909 1640.9109,-1251.9613 1636.543,-1246.8455 1641.5,-1247.5 1641.5,-1247.5 1641.5,-1247.5 1636.543,-1246.8455 1642.0891,-1243.0387 1631.586,-1246.1909 1631.586,-1246.1909"/>
<text text-anchor="start" x="1648.878" y="-1257.5" font-family="Arial" font-size="10.00" fill="#000000">FOREIGN KEY (channel_id) REFERENCES channels (id)</text>
</g>
<!-- users_private_channels -->
<g id="node8" class="node">
<title>users_private_channels</title>
<polygon fill="#efefef" stroke="transparent" points="1922.5,-1247.5 1922.5,-1282.5 2223.5,-1282.5 2223.5,-1247.5 1922.5,-1247.5"/>
<polygon fill="none" stroke="#000000" points="1922.5,-1247.5 1922.5,-1282.5 2223.5,-1282.5 2223.5,-1247.5 1922.5,-1247.5"/>
<text text-anchor="start" x="1929.3484" y="-1260.3" font-family="Arial Bold" font-size="18.00" fill="#000000">users_private_channels</text>
<text text-anchor="start" x="2119.3978" y="-1260.3" font-family="Arial" font-size="14.00" fill="#000000"> </text>
<text text-anchor="start" x="2123.2884" y="-1260.3" font-family="Arial" font-size="14.00" fill="#666666">[BASE TABLE]</text>
<polygon fill="none" stroke="#000000" points="1922.5,-1217.5 1922.5,-1247.5 2223.5,-1247.5 2223.5,-1217.5 1922.5,-1217.5"/>
<text text-anchor="start" x="1929.5" y="-1228.9" font-family="Arial" font-size="14.00" fill="#000000">user_id </text>
<text text-anchor="start" x="1979.2882" y="-1228.9" font-family="Arial" font-size="14.00" fill="#666666">[char(36)]</text>
<polygon fill="none" stroke="#000000" points="1922.5,-1187.5 1922.5,-1217.5 2223.5,-1217.5 2223.5,-1187.5 1922.5,-1187.5"/>
<text text-anchor="start" x="1929.5" y="-1198.9" font-family="Arial" font-size="14.00" fill="#000000">channel_id </text>
<text text-anchor="start" x="2001.082" y="-1198.9" font-family="Arial" font-size="14.00" fill="#666666">[char(36)]</text>
</g>
<!-- users_private_channels&#45;&gt;channels -->
<g id="edge7" class="edge">
<title>users_private_channels:channel_id&#45;&gt;channels:id</title>
<path fill="none" stroke="#000000" d="M1912.4429,-1201.908C1840.611,-1192.769 1917.9986,-1079.927 1869.5,-1010 1812.2733,-927.4887 1786.9142,-877.5 1686.5,-877.5"/>
<polygon fill="#000000" stroke="#000000" points="1912.5173,-1201.9122 1922.2355,-1206.9922 1917.5086,-1202.2061 1922.5,-1202.5 1922.5,-1202.5 1922.5,-1202.5 1917.5086,-1202.2061 1922.7645,-1198.0078 1912.5173,-1201.9122 1912.5173,-1201.9122"/>
<text text-anchor="start" x="1726.628" y="-1186.5" font-family="Arial" font-size="10.00" fill="#000000">FOREIGN KEY (channel_id) REFERENCES channels (id)</text>
</g>
<!-- users_subscribe_channels -->
<g id="node9" class="node">
<title>users_subscribe_channels</title>
<polygon fill="#efefef" stroke="transparent" points="2327.5,-1277.5 2327.5,-1312.5 2651.5,-1312.5 2651.5,-1277.5 2327.5,-1277.5"/>
<polygon fill="none" stroke="#000000" points="2327.5,-1277.5 2327.5,-1312.5 2651.5,-1312.5 2651.5,-1277.5 2327.5,-1277.5"/>
<text text-anchor="start" x="2334.3464" y="-1290.3" font-family="Arial Bold" font-size="18.00" fill="#000000">users_subscribe_channels</text>
<text text-anchor="start" x="2547.3998" y="-1290.3" font-family="Arial" font-size="14.00" fill="#000000"> </text>
<text text-anchor="start" x="2551.2904" y="-1290.3" font-family="Arial" font-size="14.00" fill="#666666">[BASE TABLE]</text>
<polygon fill="none" stroke="#000000" points="2327.5,-1247.5 2327.5,-1277.5 2651.5,-1277.5 2651.5,-1247.5 2327.5,-1247.5"/>
<text text-anchor="start" x="2334.5" y="-1258.9" font-family="Arial" font-size="14.00" fill="#000000">user_id </text>
<text text-anchor="start" x="2384.2882" y="-1258.9" font-family="Arial" font-size="14.00" fill="#666666">[char(36)]</text>
<polygon fill="none" stroke="#000000" points="2327.5,-1217.5 2327.5,-1247.5 2651.5,-1247.5 2651.5,-1217.5 2327.5,-1217.5"/>
<text text-anchor="start" x="2334.5" y="-1228.9" font-family="Arial" font-size="14.00" fill="#000000">channel_id </text>
<text text-anchor="start" x="2406.082" y="-1228.9" font-family="Arial" font-size="14.00" fill="#666666">[char(36)]</text>
<polygon fill="none" stroke="#000000" points="2327.5,-1187.5 2327.5,-1217.5 2651.5,-1217.5 2651.5,-1187.5 2327.5,-1187.5"/>
<text text-anchor="start" x="2334.5" y="-1198.9" font-family="Arial" font-size="14.00" fill="#000000">mark </text>
<text text-anchor="start" x="2369.4944" y="-1198.9" font-family="Arial" font-size="14.00" fill="#666666">[tinyint(1)]</text>
<polygon fill="none" stroke="#000000" points="2327.5,-1157.5 2327.5,-1187.5 2651.5,-1187.5 2651.5,-1157.5 2327.5,-1157.5"/>
<text text-anchor="start" x="2334.5" y="-1168.9" font-family="Arial" font-size="14.00" fill="#000000">notify </text>
<text text-anchor="start" x="2371.8436" y="-1168.9" font-family="Arial" font-size="14.00" fill="#666666">[tinyint(1)]</text>
</g>
<!-- users_subscribe_channels&#45;&gt;channels -->
<g id="edge8" class="edge">
<title>users_subscribe_channels:channel_id&#45;&gt;channels:id</title>
<path fill="none" stroke="#000000" d="M2317.3463,-1231.9195C2234.4853,-1221.6924 2345.0017,-1078.9263 2275.5,-1010 2180.2411,-915.5298 1820.6599,-877.5 1686.5,-877.5"/>
<polygon fill="#000000" stroke="#000000" points="2317.5163,-1231.9291 2327.2431,-1236.9927 2322.5082,-1232.2146 2327.5,-1232.5 2327.5,-1232.5 2327.5,-1232.5 2322.5082,-1232.2146 2327.7569,-1228.0073 2317.5163,-1231.9291 2317.5163,-1231.9291"/>
<text text-anchor="start" x="2063.878" y="-1242.5" font-family="Arial" font-size="10.00" fill="#000000">FOREIGN KEY (channel_id) REFERENCES channels (id)</text>
</g>
<!-- user_profiles -->
<g id="node10" class="node">
<title>user_profiles</title>
<polygon fill="#efefef" stroke="transparent" points="2755.5,-1307.5 2755.5,-1342.5 2969.5,-1342.5 2969.5,-1307.5 2755.5,-1307.5"/>
<polygon fill="none" stroke="#000000" points="2755.5,-1307.5 2755.5,-1342.5 2969.5,-1342.5 2969.5,-1307.5 2755.5,-1307.5"/>
<text text-anchor="start" x="2762.367" y="-1320.3" font-family="Arial Bold" font-size="18.00" fill="#000000">user_profiles</text>
<text text-anchor="start" x="2865.3792" y="-1320.3" font-family="Arial" font-size="14.00" fill="#000000"> </text>
<text text-anchor="start" x="2869.2698" y="-1320.3" font-family="Arial" font-size="14.00" fill="#666666">[BASE TABLE]</text>
<polygon fill="none" stroke="#000000" points="2755.5,-1277.5 2755.5,-1307.5 2969.5,-1307.5 2969.5,-1277.5 2755.5,-1277.5"/>
<text text-anchor="start" x="2762.5" y="-1288.9" font-family="Arial" font-size="14.00" fill="#000000">user_id </text>
<text text-anchor="start" x="2812.2882" y="-1288.9" font-family="Arial" font-size="14.00" fill="#666666">[char(36)]</text>
<polygon fill="none" stroke="#000000" points="2755.5,-1247.5 2755.5,-1277.5 2969.5,-1277.5 2969.5,-1247.5 2755.5,-1247.5"/>
<text text-anchor="start" x="2762.5" y="-1258.9" font-family="Arial" font-size="14.00" fill="#000000">bio </text>
<text text-anchor="start" x="2785.0624" y="-1258.9" font-family="Arial" font-size="14.00" fill="#666666">[text]</text>
<polygon fill="none" stroke="#000000" points="2755.5,-1217.5 2755.5,-1247.5 2969.5,-1247.5 2969.5,-1217.5 2755.5,-1217.5"/>
<text text-anchor="start" x="2762.5" y="-1228.9" font-family="Arial" font-size="14.00" fill="#000000">twitter_id </text>
<text text-anchor="start" x="2822.3906" y="-1228.9" font-family="Arial" font-size="14.00" fill="#666666">[varchar(15)]</text>
<polygon fill="none" stroke="#000000" points="2755.5,-1187.5 2755.5,-1217.5 2969.5,-1217.5 2969.5,-1187.5 2755.5,-1187.5"/>
<text text-anchor="start" x="2762.5" y="-1198.9" font-family="Arial" font-size="14.00" fill="#000000">last_online </text>
<text text-anchor="start" x="2833.2966" y="-1198.9" font-family="Arial" font-size="14.00" fill="#666666">[datetime(6)]</text>
<polygon fill="none" stroke="#000000" points="2755.5,-1157.5 2755.5,-1187.5 2969.5,-1187.5 2969.5,-1157.5 2755.5,-1157.5"/>
<text text-anchor="start" x="2762.5" y="-1168.9" font-family="Arial" font-size="14.00" fill="#000000">home_channel </text>
<text text-anchor="start" x="2858.2012" y="-1168.9" font-family="Arial" font-size="14.00" fill="#666666">[char(36)]</text>
<polygon fill="none" stroke="#000000" points="2755.5,-1127.5 2755.5,-1157.5 2969.5,-1157.5 2969.5,-1127.5 2755.5,-1127.5"/>
<text text-anchor="start" x="2762.5" y="-1138.9" font-family="Arial" font-size="14.00" fill="#000000">updated_at </text>
<text text-anchor="start" x="2836.4326" y="-1138.9" font-family="Arial" font-size="14.00" fill="#666666">[datetime(6)]</text>
</g>
<!-- user_profiles&#45;&gt;channels -->
<g id="edge9" class="edge">
<title>user_profiles:home_channel&#45;&gt;channels:id</title>
<path fill="none" stroke="#000000" d="M2745.4867,-1171.706C2687.3489,-1161.5307 2758.8826,-1056.2072 2703.5,-1010 2616.0001,-936.9965 1800.455,-877.5 1686.5,-877.5"/>
<polygon fill="#000000" stroke="#000000" points="2745.5313,-1171.7095 2755.1443,-1176.9859 2750.5156,-1172.1047 2755.5,-1172.5 2755.5,-1172.5 2755.5,-1172.5 2750.5156,-1172.1047 2755.8557,-1168.0141 2745.5313,-1171.7095 2745.5313,-1171.7095"/>
<text text-anchor="start" x="2474.264" y="-1182.5" font-family="Arial" font-size="10.00" fill="#000000">FOREIGN KEY (home_channel) REFERENCES channels (id)</text>
</g>
<!-- webhook_bots -->
<g id="node11" class="node">
<title>webhook_bots</title>
<polygon fill="#efefef" stroke="transparent" points="3074.5,-1352.5 3074.5,-1387.5 3301.5,-1387.5 3301.5,-1352.5 3074.5,-1352.5"/>
<polygon fill="none" stroke="#000000" points="3074.5,-1352.5 3074.5,-1387.5 3301.5,-1387.5 3301.5,-1352.5 3074.5,-1352.5"/>
<text text-anchor="start" x="3081.3501" y="-1365.3" font-family="Arial Bold" font-size="18.00" fill="#000000">webhook_bots</text>
<text text-anchor="start" x="3197.3961" y="-1365.3" font-family="Arial" font-size="14.00" fill="#000000"> </text>
<text text-anchor="start" x="3201.2867" y="-1365.3" font-family="Arial" font-size="14.00" fill="#666666">[BASE TABLE]</text>
<polygon fill="none" stroke="#000000" points="3074.5,-1322.5 3074.5,-1352.5 3301.5,-1352.5 3301.5,-1322.5 3074.5,-1322.5"/>
<text text-anchor="start" x="3081.5" y="-1333.9" font-family="Arial" font-size="14.00" fill="#000000">id </text>
<text text-anchor="start" x="3096.2798" y="-1333.9" font-family="Arial" font-size="14.00" fill="#666666">[char(36)]</text>
<polygon fill="none" stroke="#000000" points="3074.5,-1292.5 3074.5,-1322.5 3301.5,-1322.5 3301.5,-1292.5 3074.5,-1292.5"/>
<text text-anchor="start" x="3081.5" y="-1303.9" font-family="Arial" font-size="14.00" fill="#000000">bot_user_id </text>
<text text-anchor="start" x="3158.5266" y="-1303.9" font-family="Arial" font-size="14.00" fill="#666666">[char(36)]</text>
<polygon fill="none" stroke="#000000" points="3074.5,-1262.5 3074.5,-1292.5 3301.5,-1292.5 3301.5,-1262.5 3074.5,-1262.5"/>
<text text-anchor="start" x="3081.5" y="-1273.9" font-family="Arial" font-size="14.00" fill="#000000">description </text>
<text text-anchor="start" x="3153.068" y="-1273.9" font-family="Arial" font-size="14.00" fill="#666666">[text]</text>
<polygon fill="none" stroke="#000000" points="3074.5,-1232.5 3074.5,-1262.5 3301.5,-1262.5 3301.5,-1232.5 3074.5,-1232.5"/>
<text text-anchor="start" x="3081.5" y="-1243.9" font-family="Arial" font-size="14.00" fill="#000000">secret </text>
<text text-anchor="start" x="3123.507" y="-1243.9" font-family="Arial" font-size="14.00" fill="#666666">[text]</text>
<polygon fill="none" stroke="#000000" points="3074.5,-1202.5 3074.5,-1232.5 3301.5,-1232.5 3301.5,-1202.5 3074.5,-1202.5"/>
<text text-anchor="start" x="3081.5" y="-1213.9" font-family="Arial" font-size="14.00" fill="#000000">channel_id </text>
<text text-anchor="start" x="3153.082" y="-1213.9" font-family="Arial" font-size="14.00" fill="#666666">[char(36)]</text>
<polygon fill="none" stroke="#000000" points="3074.5,-1172.5 3074.5,-1202.5 3301.5,-1202.5 3301.5,-1172.5 3074.5,-1172.5"/>
<text text-anchor="start" x="3081.5" y="-1183.9" font-family="Arial" font-size="14.00" fill="#000000">creator_id </text>
<text text-anchor="start" x="3147.622" y="-1183.9" font-family="Arial" font-size="14.00" fill="#666666">[char(36)]</text>
<polygon fill="none" stroke="#000000" points="3074.5,-1142.5 3074.5,-1172.5 3301.5,-1172.5 3301.5,-1142.5 3074.5,-1142.5"/>
<text text-anchor="start" x="3081.5" y="-1153.9" font-family="Arial" font-size="14.00" fill="#000000">created_at </text>
<text text-anchor="start" x="3151.528" y="-1153.9" font-family="Arial" font-size="14.00" fill="#666666">[datetime(6)]</text>
<polygon fill="none" stroke="#000000" points="3074.5,-1112.5 3074.5,-1142.5 3301.5,-1142.5 3301.5,-1112.5 3074.5,-1112.5"/>
<text text-anchor="start" x="3081.5" y="-1123.9" font-family="Arial" font-size="14.00" fill="#000000">updated_at </text>
<text text-anchor="start" x="3155.4326" y="-1123.9" font-family="Arial" font-size="14.00" fill="#666666">[datetime(6)]</text>
<polygon fill="none" stroke="#000000" points="3074.5,-1082.5 3074.5,-1112.5 3301.5,-1112.5 3301.5,-1082.5 3074.5,-1082.5"/>
<text text-anchor="start" x="3081.5" y="-1093.9" font-family="Arial" font-size="14.00" fill="#000000">deleted_at </text>
<text text-anchor="start" x="3150.7566" y="-1093.9" font-family="Arial" font-size="14.00" fill="#666666">[datetime(6)]</text>
</g>
<!-- webhook_bots&#45;&gt;channels -->
<g id="edge10" class="edge">
<title>webhook_bots:channel_id&#45;&gt;channels:id</title>
<path fill="none" stroke="#000000" d="M3064.2814,-1216.8477C2987.968,-1206.2625 3090.874,-1069.6077 3021.5,-1010 2908.4399,-912.8561 1835.5621,-877.5 1686.5,-877.5"/>
<polygon fill="#000000" stroke="#000000" points="3064.5203,-1216.8629 3074.2133,-1221.9909 3069.5102,-1217.1814 3074.5,-1217.5 3074.5,-1217.5 3074.5,-1217.5 3069.5102,-1217.1814 3074.7867,-1213.0091 3064.5203,-1216.8629 3064.5203,-1216.8629"/>
<text text-anchor="start" x="2810.878" y="-1227.5" font-family="Arial" font-size="10.00" fill="#000000">FOREIGN KEY (channel_id) REFERENCES channels (id)</text>
</g>
</g>
</svg>
