<?xml version="1.0" encoding="UTF-8" standalone="no"?>
<!DOCTYPE svg PUBLIC "-//W3C//DTD SVG 1.1//EN"
 "http://www.w3.org/Graphics/SVG/1.1/DTD/svg11.dtd">
<!-- Generated by graphviz version 2.40.1 (20161225.0304)
 -->
<!-- Title: channels Pages: 1 -->
<svg width="2094pt" height="1400pt"
     viewBox="0.00 0.00 2093.50 1400.00" xmlns="http://www.w3.org/2000/svg">
<g id="graph0" class="graph" transform="scale(1 1) rotate(0) translate(4 1396)">
<title>channels</title>
<polygon fill="#ffffff" stroke="transparent" points="-4,4 -4,-1396 2089.5,-1396 2089.5,4 -4,4"/>
<!-- channels -->
<g id="node1" class="node">
<title>channels</title>
<polygon fill="#efefef" stroke="transparent" points="877,-949 877,-983 1064,-983 1064,-949 877,-949"/>
<polygon fill="none" stroke="#000000" points="877,-949 877,-983 1064,-983 1064,-949 877,-949"/>
<text text-anchor="start" x="883.5005" y="-962.6" font-family="Arial Bold" font-size="18.00" fill="#000000">channels</text>
<text text-anchor="start" x="961.5298" y="-962.6" font-family="Arial" font-size="14.00" fill="#000000"> </text>
<text text-anchor="start" x="965.4194" y="-962.6" font-family="Arial" font-size="14.00" fill="#666666">[BASE TABLE]</text>
<polygon fill="none" stroke="#000000" points="877,-919 877,-949 1064,-949 1064,-919 877,-919"/>
<text text-anchor="start" x="884" y="-931.8" font-family="Arial" font-size="14.00" fill="#000000">id </text>
<text text-anchor="start" x="898.7861" y="-931.8" font-family="Arial" font-size="14.00" fill="#666666">[char(36)]</text>
<polygon fill="none" stroke="#000000" points="877,-889 877,-919 1064,-919 1064,-889 877,-889"/>
<text text-anchor="start" x="884" y="-901.8" font-family="Arial" font-size="14.00" fill="#000000">name </text>
<text text-anchor="start" x="922.9102" y="-901.8" font-family="Arial" font-size="14.00" fill="#666666">[varchar(20)]</text>
<polygon fill="none" stroke="#000000" points="877,-859 877,-889 1064,-889 1064,-859 877,-859"/>
<text text-anchor="start" x="884" y="-871.8" font-family="Arial" font-size="14.00" fill="#000000">parent_id </text>
<text text-anchor="start" x="946.2686" y="-871.8" font-family="Arial" font-size="14.00" fill="#666666">[char(36)]</text>
<polygon fill="none" stroke="#000000" points="877,-829 877,-859 1064,-859 1064,-829 877,-829"/>
<text text-anchor="start" x="884" y="-841.8" font-family="Arial" font-size="14.00" fill="#000000">topic </text>
<text text-anchor="start" x="917.4619" y="-841.8" font-family="Arial" font-size="14.00" fill="#666666">[text]</text>
<polygon fill="none" stroke="#000000" points="877,-799 877,-829 1064,-829 1064,-799 877,-799"/>
<text text-anchor="start" x="884" y="-811.8" font-family="Arial" font-size="14.00" fill="#000000">is_forced </text>
<text text-anchor="start" x="944.6963" y="-811.8" font-family="Arial" font-size="14.00" fill="#666666">[tinyint(1)]</text>
<polygon fill="none" stroke="#000000" points="877,-769 877,-799 1064,-799 1064,-769 877,-769"/>
<text text-anchor="start" x="884" y="-781.8" font-family="Arial" font-size="14.00" fill="#000000">is_public </text>
<text text-anchor="start" x="942.3652" y="-781.8" font-family="Arial" font-size="14.00" fill="#666666">[tinyint(1)]</text>
<polygon fill="none" stroke="#000000" points="877,-739 877,-769 1064,-769 1064,-739 877,-739"/>
<text text-anchor="start" x="884" y="-751.8" font-family="Arial" font-size="14.00" fill="#000000">is_visible </text>
<text text-anchor="start" x="944.6895" y="-751.8" font-family="Arial" font-size="14.00" fill="#666666">[tinyint(1)]</text>
<polygon fill="none" stroke="#000000" points="877,-709 877,-739 1064,-739 1064,-709 877,-709"/>
<text text-anchor="start" x="884" y="-721.8" font-family="Arial" font-size="14.00" fill="#000000">creator_id </text>
<text text-anchor="start" x="950.1445" y="-721.8" font-family="Arial" font-size="14.00" fill="#666666">[char(36)]</text>
<polygon fill="none" stroke="#000000" points="877,-679 877,-709 1064,-709 1064,-679 877,-679"/>
<text text-anchor="start" x="884" y="-691.8" font-family="Arial" font-size="14.00" fill="#000000">updater_id </text>
<text text-anchor="start" x="954.0547" y="-691.8" font-family="Arial" font-size="14.00" fill="#666666">[char(36)]</text>
<polygon fill="none" stroke="#000000" points="877,-649 877,-679 1064,-679 1064,-649 877,-649"/>
<text text-anchor="start" x="884" y="-661.8" font-family="Arial" font-size="14.00" fill="#000000">created_at </text>
<text text-anchor="start" x="954.0479" y="-661.8" font-family="Arial" font-size="14.00" fill="#666666">[timestamp(6)]</text>
<polygon fill="none" stroke="#000000" points="877,-619 877,-649 1064,-649 1064,-619 877,-619"/>
<text text-anchor="start" x="884" y="-631.8" font-family="Arial" font-size="14.00" fill="#000000">updated_at </text>
<text text-anchor="start" x="957.958" y="-631.8" font-family="Arial" font-size="14.00" fill="#666666">[timestamp(6)]</text>
<polygon fill="none" stroke="#000000" points="877,-589 877,-619 1064,-619 1064,-589 877,-589"/>
<text text-anchor="start" x="884" y="-601.8" font-family="Arial" font-size="14.00" fill="#000000">deleted_at </text>
<text text-anchor="start" x="953.2822" y="-601.8" font-family="Arial" font-size="14.00" fill="#666666">[timestamp(6)]</text>
</g>
<!-- channels&#45;&gt;channels -->
<g id="edge7" class="edge">
<title>channels:parent_id&#45;&gt;channels:id</title>
<path fill="none" stroke="#000000" stroke-dasharray="5,2" d="M972.3784,-899.3494C979.9738,-1050.2967 979.5143,-1246 971,-1246 962.2988,-1246 962.0099,-1097.6949 970.1333,-949.2851"/>
<polygon fill="#000000" stroke="#000000" points="972.3606,-899.0048 976.336,-888.7849 972.1013,-894.0115 971.8421,-889.0183 971.8421,-889.0183 971.8421,-889.0183 972.1013,-894.0115 967.3481,-889.2516 972.3606,-899.0048 972.3606,-899.0048"/>
<text text-anchor="start" x="882.1477" y="-898.5183" font-family="Arial" font-size="10.00" fill="#000000">Additional Relation</text>
</g>
<!-- users -->
<g id="node8" class="node">
<title>users</title>
<polygon fill="#efefef" stroke="transparent" points="879,-433 879,-467 1062,-467 1062,-433 879,-433"/>
<polygon fill="none" stroke="#000000" points="879,-433 879,-467 1062,-467 1062,-433 879,-433"/>
<text text-anchor="start" x="898.499" y="-446.6" font-family="Arial Bold" font-size="18.00" fill="#000000">users</text>
<text text-anchor="start" x="946.5313" y="-446.6" font-family="Arial" font-size="14.00" fill="#000000"> </text>
<text text-anchor="start" x="950.4209" y="-446.6" font-family="Arial" font-size="14.00" fill="#666666">[BASE TABLE]</text>
<polygon fill="none" stroke="#000000" points="879,-403 879,-433 1062,-433 1062,-403 879,-403"/>
<text text-anchor="start" x="886" y="-415.8" font-family="Arial" font-size="14.00" fill="#000000">id </text>
<text text-anchor="start" x="900.7861" y="-415.8" font-family="Arial" font-size="14.00" fill="#666666">[char(36)]</text>
<polygon fill="none" stroke="#000000" points="879,-373 879,-403 1062,-403 1062,-373 879,-373"/>
<text text-anchor="start" x="886" y="-385.8" font-family="Arial" font-size="14.00" fill="#000000">name </text>
<text text-anchor="start" x="924.9102" y="-385.8" font-family="Arial" font-size="14.00" fill="#666666">[varchar(32)]</text>
<polygon fill="none" stroke="#000000" points="879,-343 879,-373 1062,-373 1062,-343 879,-343"/>
<text text-anchor="start" x="885.6831" y="-355.8" font-family="Arial" font-size="14.00" fill="#000000">display_name </text>
<text text-anchor="start" x="975.9585" y="-355.8" font-family="Arial" font-size="14.00" fill="#666666">[varchar(64)]</text>
<polygon fill="none" stroke="#000000" points="879,-313 879,-343 1062,-343 1062,-313 879,-313"/>
<text text-anchor="start" x="886" y="-325.8" font-family="Arial" font-size="14.00" fill="#000000">password </text>
<text text-anchor="start" x="949.8066" y="-325.8" font-family="Arial" font-size="14.00" fill="#666666">[char(128)]</text>
<polygon fill="none" stroke="#000000" points="879,-283 879,-313 1062,-313 1062,-283 879,-283"/>
<text text-anchor="start" x="886" y="-295.8" font-family="Arial" font-size="14.00" fill="#000000">salt </text>
<text text-anchor="start" x="911.6758" y="-295.8" font-family="Arial" font-size="14.00" fill="#666666">[char(128)]</text>
<polygon fill="none" stroke="#000000" points="879,-253 879,-283 1062,-283 1062,-253 879,-253"/>
<text text-anchor="start" x="886" y="-265.8" font-family="Arial" font-size="14.00" fill="#000000">icon </text>
<text text-anchor="start" x="915.5723" y="-265.8" font-family="Arial" font-size="14.00" fill="#666666">[char(36)]</text>
<polygon fill="none" stroke="#000000" points="879,-223 879,-253 1062,-253 1062,-223 879,-223"/>
<text text-anchor="start" x="886" y="-235.8" font-family="Arial" font-size="14.00" fill="#000000">status </text>
<text text-anchor="start" x="927.2412" y="-235.8" font-family="Arial" font-size="14.00" fill="#666666">[tinyint(4)]</text>
<polygon fill="none" stroke="#000000" points="879,-193 879,-223 1062,-223 1062,-193 879,-193"/>
<text text-anchor="start" x="886" y="-205.8" font-family="Arial" font-size="14.00" fill="#000000">bot </text>
<text text-anchor="start" x="909.3516" y="-205.8" font-family="Arial" font-size="14.00" fill="#666666">[tinyint(1)]</text>
<polygon fill="none" stroke="#000000" points="879,-163 879,-193 1062,-193 1062,-163 879,-163"/>
<text text-anchor="start" x="886" y="-175.8" font-family="Arial" font-size="14.00" fill="#000000">role </text>
<text text-anchor="start" x="913.2344" y="-175.8" font-family="Arial" font-size="14.00" fill="#666666">[varchar(30)]</text>
<polygon fill="none" stroke="#000000" points="879,-133 879,-163 1062,-163 1062,-133 879,-133"/>
<text text-anchor="start" x="886" y="-145.8" font-family="Arial" font-size="14.00" fill="#000000">twitter_id </text>
<text text-anchor="start" x="945.9102" y="-145.8" font-family="Arial" font-size="14.00" fill="#666666">[varchar(15)]</text>
<polygon fill="none" stroke="#000000" points="879,-103 879,-133 1062,-133 1062,-103 879,-103"/>
<text text-anchor="start" x="886" y="-115.8" font-family="Arial" font-size="14.00" fill="#000000">last_online </text>
<text text-anchor="start" x="956.8271" y="-115.8" font-family="Arial" font-size="14.00" fill="#666666">[timestamp(6)]</text>
<polygon fill="none" stroke="#000000" points="879,-73 879,-103 1062,-103 1062,-73 879,-73"/>
<text text-anchor="start" x="886" y="-85.8" font-family="Arial" font-size="14.00" fill="#000000">created_at </text>
<text text-anchor="start" x="956.0479" y="-85.8" font-family="Arial" font-size="14.00" fill="#666666">[timestamp(6)]</text>
<polygon fill="none" stroke="#000000" points="879,-43 879,-73 1062,-73 1062,-43 879,-43"/>
<text text-anchor="start" x="886" y="-55.8" font-family="Arial" font-size="14.00" fill="#000000">updated_at </text>
<text text-anchor="start" x="959.958" y="-55.8" font-family="Arial" font-size="14.00" fill="#666666">[timestamp(6)]</text>
</g>
<!-- channels&#45;&gt;users -->
<g id="edge8" class="edge">
<title>channels:creator_id&#45;&gt;users:id</title>
<path fill="none" stroke="#000000" stroke-dasharray="5,2" d="M866.9072,-723.4182C741.185,-708.6582 746.4503,-418 879,-418"/>
<polygon fill="#000000" stroke="#000000" points="867.0166,-723.4244 876.741,-728.4925 872.0083,-723.7122 877,-724 877,-724 877,-724 872.0083,-723.7122 877.259,-719.5075 867.0166,-723.4244 867.0166,-723.4244"/>
<text text-anchor="start" x="787.3057" y="-733.5" font-family="Arial" font-size="10.00" fill="#000000">Additional Relation</text>
</g>
<!-- dm_channel_mappings -->
<g id="node2" class="node">
<title>dm_channel_mappings</title>
<polygon fill="#efefef" stroke="transparent" points="43,-1255 43,-1289 353,-1289 353,-1255 43,-1255"/>
<polygon fill="none" stroke="#000000" points="43,-1255 43,-1289 353,-1289 353,-1255 43,-1255"/>
<text text-anchor="start" x="49.9912" y="-1268.6" font-family="Arial Bold" font-size="18.00" fill="#000000">dm_channel_mappings</text>
<text text-anchor="start" x="250.0391" y="-1268.6" font-family="Arial" font-size="14.00" fill="#000000"> </text>
<text text-anchor="start" x="253.9287" y="-1268.6" font-family="Arial" font-size="14.00" fill="#666666">[BASE TABLE]</text>
<polygon fill="none" stroke="#000000" points="43,-1225 43,-1255 353,-1255 353,-1225 43,-1225"/>
<text text-anchor="start" x="50" y="-1237.8" font-family="Arial" font-size="14.00" fill="#000000">channel_id </text>
<text text-anchor="start" x="121.6133" y="-1237.8" font-family="Arial" font-size="14.00" fill="#666666">[char(36)]</text>
<polygon fill="none" stroke="#000000" points="43,-1195 43,-1225 353,-1225 353,-1195 43,-1195"/>
<text text-anchor="start" x="50" y="-1207.8" font-family="Arial" font-size="14.00" fill="#000000">user1 </text>
<text text-anchor="start" x="88.9102" y="-1207.8" font-family="Arial" font-size="14.00" fill="#666666">[char(36)]</text>
<polygon fill="none" stroke="#000000" points="43,-1165 43,-1195 353,-1195 353,-1165 43,-1165"/>
<text text-anchor="start" x="50" y="-1177.8" font-family="Arial" font-size="14.00" fill="#000000">user2 </text>
<text text-anchor="start" x="88.9102" y="-1177.8" font-family="Arial" font-size="14.00" fill="#666666">[char(36)]</text>
</g>
<!-- dm_channel_mappings&#45;&gt;channels -->
<g id="edge1" class="edge">
<title>dm_channel_mappings:channel_id&#45;&gt;channels:id</title>
<path fill="none" stroke="#000000" d="M363.0968,-1239.2884C427.6973,-1229.319 348.8023,-1117.1175 405,-1062 482.5886,-985.9028 768.3227,-934 877,-934"/>
<polygon fill="#000000" stroke="#000000" points="362.9753,-1239.2968 352.6836,-1235.5111 357.9876,-1239.6484 353,-1240 353,-1240 353,-1240 357.9876,-1239.6484 353.3164,-1244.4889 362.9753,-1239.2968 362.9753,-1239.2968"/>
<text text-anchor="start" x="224.9355" y="-1224.5" font-family="Arial" font-size="10.00" fill="#000000">FOREIGN KEY (channel_id) REFERENCES channels (id)</text>
</g>
<!-- messages -->
<g id="node3" class="node">
<title>messages</title>
<polygon fill="#efefef" stroke="transparent" points="458,-1315 458,-1349 655,-1349 655,-1315 458,-1315"/>
<polygon fill="none" stroke="#000000" points="458,-1315 458,-1349 655,-1349 655,-1315 458,-1315"/>
<text text-anchor="start" x="464.9829" y="-1328.6" font-family="Arial Bold" font-size="18.00" fill="#000000">messages</text>
<text text-anchor="start" x="552.0474" y="-1328.6" font-family="Arial" font-size="14.00" fill="#000000"> </text>
<text text-anchor="start" x="555.937" y="-1328.6" font-family="Arial" font-size="14.00" fill="#666666">[BASE TABLE]</text>
<polygon fill="none" stroke="#000000" points="458,-1285 458,-1315 655,-1315 655,-1285 458,-1285"/>
<text text-anchor="start" x="465" y="-1297.8" font-family="Arial" font-size="14.00" fill="#000000">id </text>
<text text-anchor="start" x="479.7861" y="-1297.8" font-family="Arial" font-size="14.00" fill="#666666">[char(36)]</text>
<polygon fill="none" stroke="#000000" points="458,-1255 458,-1285 655,-1285 655,-1255 458,-1255"/>
<text text-anchor="start" x="465" y="-1267.8" font-family="Arial" font-size="14.00" fill="#000000">user_id </text>
<text text-anchor="start" x="514.8066" y="-1267.8" font-family="Arial" font-size="14.00" fill="#666666">[char(36)]</text>
<polygon fill="none" stroke="#000000" points="458,-1225 458,-1255 655,-1255 655,-1225 458,-1225"/>
<text text-anchor="start" x="465" y="-1237.8" font-family="Arial" font-size="14.00" fill="#000000">channel_id </text>
<text text-anchor="start" x="536.6133" y="-1237.8" font-family="Arial" font-size="14.00" fill="#666666">[char(36)]</text>
<polygon fill="none" stroke="#000000" points="458,-1195 458,-1225 655,-1225 655,-1195 458,-1195"/>
<text text-anchor="start" x="465" y="-1207.8" font-family="Arial" font-size="14.00" fill="#000000">text </text>
<text text-anchor="start" x="491.4551" y="-1207.8" font-family="Arial" font-size="14.00" fill="#666666">[text]</text>
<polygon fill="none" stroke="#000000" points="458,-1165 458,-1195 655,-1195 655,-1165 458,-1165"/>
<text text-anchor="start" x="465" y="-1177.8" font-family="Arial" font-size="14.00" fill="#000000">created_at </text>
<text text-anchor="start" x="535.0479" y="-1177.8" font-family="Arial" font-size="14.00" fill="#666666">[timestamp(6)]</text>
<polygon fill="none" stroke="#000000" points="458,-1135 458,-1165 655,-1165 655,-1135 458,-1135"/>
<text text-anchor="start" x="465" y="-1147.8" font-family="Arial" font-size="14.00" fill="#000000">updated_at </text>
<text text-anchor="start" x="538.958" y="-1147.8" font-family="Arial" font-size="14.00" fill="#666666">[timestamp(6)]</text>
<polygon fill="none" stroke="#000000" points="458,-1105 458,-1135 655,-1135 655,-1105 458,-1105"/>
<text text-anchor="start" x="465" y="-1117.8" font-family="Arial" font-size="14.00" fill="#000000">deleted_at </text>
<text text-anchor="start" x="534.2822" y="-1117.8" font-family="Arial" font-size="14.00" fill="#666666">[timestamp(6)]</text>
</g>
<!-- messages&#45;&gt;channels -->
<g id="edge2" class="edge">
<title>messages:channel_id&#45;&gt;channels:id</title>
<path fill="none" stroke="#000000" d="M665.166,-1239.3467C730.725,-1230.1845 662.2413,-1126.7516 707,-1062 760.7784,-984.1998 782.4221,-934 877,-934"/>
<polygon fill="#000000" stroke="#000000" points="664.9794,-1239.3586 654.7114,-1235.5093 659.9897,-1239.6793 655,-1240 655,-1240 655,-1240 659.9897,-1239.6793 655.2886,-1244.4907 664.9794,-1239.3586 664.9794,-1239.3586"/>
<text text-anchor="start" x="526.9355" y="-1224.5" font-family="Arial" font-size="10.00" fill="#000000">FOREIGN KEY (channel_id) REFERENCES channels (id)</text>
</g>
<!-- mutes -->
<g id="node4" class="node">
<title>mutes</title>
<polygon fill="#efefef" stroke="transparent" points="759,-1240 759,-1274 921,-1274 921,-1240 759,-1240"/>
<polygon fill="none" stroke="#000000" points="759,-1240 759,-1274 921,-1274 921,-1240 759,-1240"/>
<text text-anchor="start" x="765.5073" y="-1253.6" font-family="Arial Bold" font-size="18.00" fill="#000000">mutes</text>
<text text-anchor="start" x="818.5229" y="-1253.6" font-family="Arial" font-size="14.00" fill="#000000"> </text>
<text text-anchor="start" x="822.4126" y="-1253.6" font-family="Arial" font-size="14.00" fill="#666666">[BASE TABLE]</text>
<polygon fill="none" stroke="#000000" points="759,-1210 759,-1240 921,-1240 921,-1210 759,-1210"/>
<text text-anchor="start" x="766" y="-1222.8" font-family="Arial" font-size="14.00" fill="#000000">user_id </text>
<text text-anchor="start" x="815.8066" y="-1222.8" font-family="Arial" font-size="14.00" fill="#666666">[char(36)]</text>
<polygon fill="none" stroke="#000000" points="759,-1180 759,-1210 921,-1210 921,-1180 759,-1180"/>
<text text-anchor="start" x="766" y="-1192.8" font-family="Arial" font-size="14.00" fill="#000000">channel_id </text>
<text text-anchor="start" x="837.6133" y="-1192.8" font-family="Arial" font-size="14.00" fill="#666666">[char(36)]</text>
</g>
<!-- mutes&#45;&gt;channels -->
<g id="edge3" class="edge">
<title>mutes:channel_id&#45;&gt;channels:id</title>
<path fill="none" stroke="#000000" d="M931.163,-1194.2043C1021.049,-1178.4488 763.1542,-934 877,-934"/>
<polygon fill="#000000" stroke="#000000" points="930.9695,-1194.2193 920.6487,-1190.5137 925.9847,-1194.6097 921,-1195 921,-1195 921,-1195 925.9847,-1194.6097 921.3513,-1199.4863 930.9695,-1194.2193 930.9695,-1194.2193"/>
<text text-anchor="start" x="928.4355" y="-1204.5" font-family="Arial" font-size="10.00" fill="#000000">FOREIGN KEY (channel_id) REFERENCES channels (id)</text>
</g>
<!-- stars -->
<g id="node5" class="node">
<title>stars</title>
<polygon fill="#efefef" stroke="transparent" points="1026,-1240 1026,-1274 1179,-1274 1179,-1240 1026,-1240"/>
<polygon fill="none" stroke="#000000" points="1026,-1240 1026,-1274 1179,-1274 1179,-1240 1026,-1240"/>
<text text-anchor="start" x="1032.9995" y="-1253.6" font-family="Arial Bold" font-size="18.00" fill="#000000">stars</text>
<text text-anchor="start" x="1076.0308" y="-1253.6" font-family="Arial" font-size="14.00" fill="#000000"> </text>
<text text-anchor="start" x="1079.9204" y="-1253.6" font-family="Arial" font-size="14.00" fill="#666666">[BASE TABLE]</text>
<polygon fill="none" stroke="#000000" points="1026,-1210 1026,-1240 1179,-1240 1179,-1210 1026,-1210"/>
<text text-anchor="start" x="1033" y="-1222.8" font-family="Arial" font-size="14.00" fill="#000000">user_id </text>
<text text-anchor="start" x="1082.8066" y="-1222.8" font-family="Arial" font-size="14.00" fill="#666666">[char(36)]</text>
<polygon fill="none" stroke="#000000" points="1026,-1180 1026,-1210 1179,-1210 1179,-1180 1026,-1180"/>
<text text-anchor="start" x="1033" y="-1192.8" font-family="Arial" font-size="14.00" fill="#000000">channel_id </text>
<text text-anchor="start" x="1104.6133" y="-1192.8" font-family="Arial" font-size="14.00" fill="#666666">[char(36)]</text>
</g>
<!-- stars&#45;&gt;channels -->
<g id="edge4" class="edge">
<title>stars:channel_id&#45;&gt;channels:id</title>
<path fill="none" stroke="#000000" d="M1015.8549,-1194.2043C925.9323,-1178.4488 1177.4453,-934 1064,-934"/>
<polygon fill="#000000" stroke="#000000" points="1016.0306,-1194.218 1025.6481,-1199.4862 1021.0153,-1194.609 1026,-1195 1026,-1195 1026,-1195 1021.0153,-1194.609 1026.3519,-1190.5138 1016.0306,-1194.218 1016.0306,-1194.218"/>
<text text-anchor="start" x="830.1855" y="-1179.5" font-family="Arial" font-size="10.00" fill="#000000">FOREIGN KEY (channel_id) REFERENCES channels (id)</text>
</g>
<!-- users_private_channels -->
<g id="node6" class="node">
<title>users_private_channels</title>
<polygon fill="#efefef" stroke="transparent" points="1283,-1240 1283,-1274 1598,-1274 1598,-1240 1283,-1240"/>
<polygon fill="none" stroke="#000000" points="1283,-1240 1283,-1274 1598,-1274 1598,-1240 1283,-1240"/>
<text text-anchor="start" x="1289.96" y="-1253.6" font-family="Arial Bold" font-size="18.00" fill="#000000">users_private_channels</text>
<text text-anchor="start" x="1495.0703" y="-1253.6" font-family="Arial" font-size="14.00" fill="#000000"> </text>
<text text-anchor="start" x="1498.96" y="-1253.6" font-family="Arial" font-size="14.00" fill="#666666">[BASE TABLE]</text>
<polygon fill="none" stroke="#000000" points="1283,-1210 1283,-1240 1598,-1240 1598,-1210 1283,-1210"/>
<text text-anchor="start" x="1290" y="-1222.8" font-family="Arial" font-size="14.00" fill="#000000">user_id </text>
<text text-anchor="start" x="1339.8066" y="-1222.8" font-family="Arial" font-size="14.00" fill="#666666">[char(36)]</text>
<polygon fill="none" stroke="#000000" points="1283,-1180 1283,-1210 1598,-1210 1598,-1180 1283,-1180"/>
<text text-anchor="start" x="1290" y="-1192.8" font-family="Arial" font-size="14.00" fill="#000000">channel_id </text>
<text text-anchor="start" x="1361.6133" y="-1192.8" font-family="Arial" font-size="14.00" fill="#666666">[char(36)]</text>
</g>
<!-- users_private_channels&#45;&gt;channels -->
<g id="edge5" class="edge">
<title>users_private_channels:channel_id&#45;&gt;channels:id</title>
<path fill="none" stroke="#000000" d="M1272.9677,-1194.1755C1225.0444,-1185.4669 1266.9105,-1109.7541 1231,-1062 1174.7953,-987.2584 1157.5162,-934 1064,-934"/>
<polygon fill="#000000" stroke="#000000" points="1273.0336,-1194.1808 1282.6314,-1199.4849 1278.0168,-1194.5904 1283,-1195 1283,-1195 1283,-1195 1278.0168,-1194.5904 1283.3686,-1190.5151 1273.0336,-1194.1808 1273.0336,-1194.1808"/>
<text text-anchor="start" x="1290.4355" y="-1204.5" font-family="Arial" font-size="10.00" fill="#000000">FOREIGN KEY (channel_id) REFERENCES channels (id)</text>
</g>
<!-- users_subscribe_channels -->
<g id="node7" class="node">
<title>users_subscribe_channels</title>
<polygon fill="#efefef" stroke="transparent" points="1702,-1240 1702,-1274 2043,-1274 2043,-1240 1702,-1240"/>
<polygon fill="none" stroke="#000000" points="1702,-1240 1702,-1274 2043,-1274 2043,-1240 1702,-1240"/>
<text text-anchor="start" x="1708.9565" y="-1253.6" font-family="Arial Bold" font-size="18.00" fill="#000000">users_subscribe_channels</text>
<text text-anchor="start" x="1940.0737" y="-1253.6" font-family="Arial" font-size="14.00" fill="#000000"> </text>
<text text-anchor="start" x="1943.9634" y="-1253.6" font-family="Arial" font-size="14.00" fill="#666666">[BASE TABLE]</text>
<polygon fill="none" stroke="#000000" points="1702,-1210 1702,-1240 2043,-1240 2043,-1210 1702,-1210"/>
<text text-anchor="start" x="1709" y="-1222.8" font-family="Arial" font-size="14.00" fill="#000000">user_id </text>
<text text-anchor="start" x="1758.8066" y="-1222.8" font-family="Arial" font-size="14.00" fill="#666666">[char(36)]</text>
<polygon fill="none" stroke="#000000" points="1702,-1180 1702,-1210 2043,-1210 2043,-1180 1702,-1180"/>
<text text-anchor="start" x="1709" y="-1192.8" font-family="Arial" font-size="14.00" fill="#000000">channel_id </text>
<text text-anchor="start" x="1780.6133" y="-1192.8" font-family="Arial" font-size="14.00" fill="#666666">[char(36)]</text>
</g>
<!-- users_subscribe_channels&#45;&gt;channels -->
<g id="edge6" class="edge">
<title>users_subscribe_channels:channel_id&#45;&gt;channels:id</title>
<path fill="none" stroke="#000000" d="M1691.7753,-1194.0221C1645.3699,-1184.0697 1695.3508,-1100.7108 1650,-1062 1548.6188,-975.4624 1197.2926,-934 1064,-934"/>
<polygon fill="#000000" stroke="#000000" points="1692.0454,-1194.0478 1701.5715,-1199.4796 1697.0227,-1194.5239 1702,-1195 1702,-1195 1702,-1195 1697.0227,-1194.5239 1702.4285,-1190.5204 1692.0454,-1194.0478 1692.0454,-1194.0478"/>
<text text-anchor="start" x="1506.1855" y="-1179.5" font-family="Arial" font-size="10.00" fill="#000000">FOREIGN KEY (channel_id) REFERENCES channels (id)</text>
</g>
</g>
</svg>
