<?xml version="1.0" encoding="UTF-8" standalone="no"?>
<!DOCTYPE svg PUBLIC "-//W3C//DTD SVG 1.1//EN"
 "http://www.w3.org/Graphics/SVG/1.1/DTD/svg11.dtd">
<!-- Generated by graphviz version 2.40.1 (20161225.0304)
 -->
<!-- Title: channels Pages: 1 -->
<svg width="3044pt" height="1559pt"
 viewBox="0.00 0.00 3043.50 1559.00" xmlns="http://www.w3.org/2000/svg" xmlns:xlink="http://www.w3.org/1999/xlink">
<g id="graph0" class="graph" transform="scale(1 1) rotate(0) translate(4 1555)">
<title>channels</title>
<polygon fill="#ffffff" stroke="transparent" points="-4,4 -4,-1555 3039.5,-1555 3039.5,4 -4,4"/>
<!-- channels -->
<g id="node1" class="node">
<title>channels</title>
<polygon fill="#efefef" stroke="transparent" points="1340.5,-892.5 1340.5,-927.5 1523.5,-927.5 1523.5,-892.5 1340.5,-892.5"/>
<polygon fill="none" stroke="#000000" points="1340.5,-892.5 1340.5,-927.5 1523.5,-927.5 1523.5,-892.5 1340.5,-892.5"/>
<text text-anchor="start" x="1347.3605" y="-905.3" font-family="Arial Bold" font-size="18.00" fill="#000000">channels</text>
<text text-anchor="start" x="1419.3857" y="-905.3" font-family="Arial" font-size="14.00" fill="#000000"> </text>
<text text-anchor="start" x="1423.2763" y="-905.3" font-family="Arial" font-size="14.00" fill="#666666">[BASE TABLE]</text>
<polygon fill="none" stroke="#000000" points="1340.5,-862.5 1340.5,-892.5 1523.5,-892.5 1523.5,-862.5 1340.5,-862.5"/>
<text text-anchor="start" x="1347.5" y="-873.9" font-family="Arial" font-size="14.00" fill="#000000">id </text>
<text text-anchor="start" x="1362.2798" y="-873.9" font-family="Arial" font-size="14.00" fill="#666666">[char(36)]</text>
<polygon fill="none" stroke="#000000" points="1340.5,-832.5 1340.5,-862.5 1523.5,-862.5 1523.5,-832.5 1340.5,-832.5"/>
<text text-anchor="start" x="1347.5" y="-843.9" font-family="Arial" font-size="14.00" fill="#000000">name </text>
<text text-anchor="start" x="1386.399" y="-843.9" font-family="Arial" font-size="14.00" fill="#666666">[varchar(20)]</text>
<polygon fill="none" stroke="#000000" points="1340.5,-802.5 1340.5,-832.5 1523.5,-832.5 1523.5,-802.5 1340.5,-802.5"/>
<text text-anchor="start" x="1347.5" y="-813.9" font-family="Arial" font-size="14.00" fill="#000000">parent_id </text>
<text text-anchor="start" x="1409.744" y="-813.9" font-family="Arial" font-size="14.00" fill="#666666">[char(36)]</text>
<polygon fill="none" stroke="#000000" points="1340.5,-772.5 1340.5,-802.5 1523.5,-802.5 1523.5,-772.5 1340.5,-772.5"/>
<text text-anchor="start" x="1347.5" y="-783.9" font-family="Arial" font-size="14.00" fill="#000000">topic </text>
<text text-anchor="start" x="1380.953" y="-783.9" font-family="Arial" font-size="14.00" fill="#666666">[text]</text>
<polygon fill="none" stroke="#000000" points="1340.5,-742.5 1340.5,-772.5 1523.5,-772.5 1523.5,-742.5 1340.5,-742.5"/>
<text text-anchor="start" x="1347.5" y="-753.9" font-family="Arial" font-size="14.00" fill="#000000">is_forced </text>
<text text-anchor="start" x="1408.1788" y="-753.9" font-family="Arial" font-size="14.00" fill="#666666">[tinyint(1)]</text>
<polygon fill="none" stroke="#000000" points="1340.5,-712.5 1340.5,-742.5 1523.5,-742.5 1523.5,-712.5 1340.5,-712.5"/>
<text text-anchor="start" x="1347.5" y="-723.9" font-family="Arial" font-size="14.00" fill="#000000">is_public </text>
<text text-anchor="start" x="1405.8408" y="-723.9" font-family="Arial" font-size="14.00" fill="#666666">[tinyint(1)]</text>
<polygon fill="none" stroke="#000000" points="1340.5,-682.5 1340.5,-712.5 1523.5,-712.5 1523.5,-682.5 1340.5,-682.5"/>
<text text-anchor="start" x="1347.5" y="-693.9" font-family="Arial" font-size="14.00" fill="#000000">is_visible </text>
<text text-anchor="start" x="1408.1648" y="-693.9" font-family="Arial" font-size="14.00" fill="#666666">[tinyint(1)]</text>
<polygon fill="none" stroke="#000000" points="1340.5,-652.5 1340.5,-682.5 1523.5,-682.5 1523.5,-652.5 1340.5,-652.5"/>
<text text-anchor="start" x="1347.5" y="-663.9" font-family="Arial" font-size="14.00" fill="#000000">creator_id </text>
<text text-anchor="start" x="1413.622" y="-663.9" font-family="Arial" font-size="14.00" fill="#666666">[char(36)]</text>
<polygon fill="none" stroke="#000000" points="1340.5,-622.5 1340.5,-652.5 1523.5,-652.5 1523.5,-622.5 1340.5,-622.5"/>
<text text-anchor="start" x="1347.5" y="-633.9" font-family="Arial" font-size="14.00" fill="#000000">updater_id </text>
<text text-anchor="start" x="1417.5266" y="-633.9" font-family="Arial" font-size="14.00" fill="#666666">[char(36)]</text>
<polygon fill="none" stroke="#000000" points="1340.5,-592.5 1340.5,-622.5 1523.5,-622.5 1523.5,-592.5 1340.5,-592.5"/>
<text text-anchor="start" x="1347.5" y="-603.9" font-family="Arial" font-size="14.00" fill="#000000">created_at </text>
<text text-anchor="start" x="1417.528" y="-603.9" font-family="Arial" font-size="14.00" fill="#666666">[datetime(6)]</text>
<polygon fill="none" stroke="#000000" points="1340.5,-562.5 1340.5,-592.5 1523.5,-592.5 1523.5,-562.5 1340.5,-562.5"/>
<text text-anchor="start" x="1347.5" y="-573.9" font-family="Arial" font-size="14.00" fill="#000000">updated_at </text>
<text text-anchor="start" x="1421.4326" y="-573.9" font-family="Arial" font-size="14.00" fill="#666666">[datetime(6)]</text>
<polygon fill="none" stroke="#000000" points="1340.5,-532.5 1340.5,-562.5 1523.5,-562.5 1523.5,-532.5 1340.5,-532.5"/>
<text text-anchor="start" x="1347.5" y="-543.9" font-family="Arial" font-size="14.00" fill="#000000">deleted_at </text>
<text text-anchor="start" x="1416.7566" y="-543.9" font-family="Arial" font-size="14.00" fill="#666666">[datetime(6)]</text>
<polygon fill="none" stroke="#000000" stroke-width="3" points="1338.5,-531.5 1338.5,-929.5 1524.5,-929.5 1524.5,-531.5 1338.5,-531.5"/>
</g>
<!-- channels&#45;&gt;channels -->
<g id="edge10" class="edge">
<title>channels:parent_id&#45;&gt;channels:id</title>
<path fill="none" stroke="#000000" stroke-dasharray="5,2" d="M1433.7864,-842.9039C1441.4774,-1006.4658 1441.0486,-1226 1432.5,-1226 1423.7725,-1226 1423.5082,-1053.5989 1431.7074,-892.5448"/>
<polygon fill="#000000" stroke="#000000" points="1433.7764,-842.6948 1437.7874,-832.4888 1433.5345,-837.7006 1433.2926,-832.7065 1433.2926,-832.7065 1433.2926,-832.7065 1433.5345,-837.7006 1428.7979,-832.9242 1433.7764,-842.6948 1433.7764,-842.6948"/>
<text text-anchor="start" x="1343.6171" y="-842.7065" font-family="Arial" font-size="10.00" fill="#000000">Additional Relation</text>
</g>
<!-- users -->
<g id="node11" class="node">
<title>users</title>
<polygon fill="#efefef" stroke="transparent" points="1340.5,-372.5 1340.5,-407.5 1523.5,-407.5 1523.5,-372.5 1340.5,-372.5"/>
<polygon fill="none" stroke="#000000" points="1340.5,-372.5 1340.5,-407.5 1523.5,-407.5 1523.5,-372.5 1340.5,-372.5"/>
<text text-anchor="start" x="1361.3708" y="-385.3" font-family="Arial Bold" font-size="18.00" fill="#000000">users</text>
<text text-anchor="start" x="1405.3754" y="-385.3" font-family="Arial" font-size="14.00" fill="#000000"> </text>
<text text-anchor="start" x="1409.266" y="-385.3" font-family="Arial" font-size="14.00" fill="#666666">[BASE TABLE]</text>
<polygon fill="none" stroke="#000000" points="1340.5,-342.5 1340.5,-372.5 1523.5,-372.5 1523.5,-342.5 1340.5,-342.5"/>
<text text-anchor="start" x="1347.5" y="-353.9" font-family="Arial" font-size="14.00" fill="#000000">id </text>
<text text-anchor="start" x="1362.2798" y="-353.9" font-family="Arial" font-size="14.00" fill="#666666">[char(36)]</text>
<polygon fill="none" stroke="#000000" points="1340.5,-312.5 1340.5,-342.5 1523.5,-342.5 1523.5,-312.5 1340.5,-312.5"/>
<text text-anchor="start" x="1347.5" y="-323.9" font-family="Arial" font-size="14.00" fill="#000000">name </text>
<text text-anchor="start" x="1386.399" y="-323.9" font-family="Arial" font-size="14.00" fill="#666666">[varchar(32)]</text>
<polygon fill="none" stroke="#000000" points="1340.5,-282.5 1340.5,-312.5 1523.5,-312.5 1523.5,-282.5 1340.5,-282.5"/>
<text text-anchor="start" x="1347.2104" y="-293.9" font-family="Arial" font-size="14.00" fill="#000000">display_name </text>
<text text-anchor="start" x="1437.453" y="-293.9" font-family="Arial" font-size="14.00" fill="#666666">[varchar(64)]</text>
<polygon fill="none" stroke="#000000" points="1340.5,-252.5 1340.5,-282.5 1523.5,-282.5 1523.5,-252.5 1340.5,-252.5"/>
<text text-anchor="start" x="1347.5" y="-263.9" font-family="Arial" font-size="14.00" fill="#000000">password </text>
<text text-anchor="start" x="1411.2882" y="-263.9" font-family="Arial" font-size="14.00" fill="#666666">[char(128)]</text>
<polygon fill="none" stroke="#000000" points="1340.5,-222.5 1340.5,-252.5 1523.5,-252.5 1523.5,-222.5 1340.5,-222.5"/>
<text text-anchor="start" x="1347.5" y="-233.9" font-family="Arial" font-size="14.00" fill="#000000">salt </text>
<text text-anchor="start" x="1373.1704" y="-233.9" font-family="Arial" font-size="14.00" fill="#666666">[char(128)]</text>
<polygon fill="none" stroke="#000000" points="1340.5,-192.5 1340.5,-222.5 1523.5,-222.5 1523.5,-192.5 1340.5,-192.5"/>
<text text-anchor="start" x="1347.5" y="-203.9" font-family="Arial" font-size="14.00" fill="#000000">icon </text>
<text text-anchor="start" x="1377.0624" y="-203.9" font-family="Arial" font-size="14.00" fill="#666666">[char(36)]</text>
<polygon fill="none" stroke="#000000" points="1340.5,-162.5 1340.5,-192.5 1523.5,-192.5 1523.5,-162.5 1340.5,-162.5"/>
<text text-anchor="start" x="1347.5" y="-173.9" font-family="Arial" font-size="14.00" fill="#000000">status </text>
<text text-anchor="start" x="1388.737" y="-173.9" font-family="Arial" font-size="14.00" fill="#666666">[tinyint(4)]</text>
<polygon fill="none" stroke="#000000" points="1340.5,-132.5 1340.5,-162.5 1523.5,-162.5 1523.5,-132.5 1340.5,-132.5"/>
<text text-anchor="start" x="1347.5" y="-143.9" font-family="Arial" font-size="14.00" fill="#000000">bot </text>
<text text-anchor="start" x="1370.8464" y="-143.9" font-family="Arial" font-size="14.00" fill="#666666">[tinyint(1)]</text>
<polygon fill="none" stroke="#000000" points="1340.5,-102.5 1340.5,-132.5 1523.5,-132.5 1523.5,-102.5 1340.5,-102.5"/>
<text text-anchor="start" x="1347.5" y="-113.9" font-family="Arial" font-size="14.00" fill="#000000">role </text>
<text text-anchor="start" x="1374.723" y="-113.9" font-family="Arial" font-size="14.00" fill="#666666">[varchar(30)]</text>
<polygon fill="none" stroke="#000000" points="1340.5,-72.5 1340.5,-102.5 1523.5,-102.5 1523.5,-72.5 1340.5,-72.5"/>
<text text-anchor="start" x="1347.5" y="-83.9" font-family="Arial" font-size="14.00" fill="#000000">created_at </text>
<text text-anchor="start" x="1417.528" y="-83.9" font-family="Arial" font-size="14.00" fill="#666666">[datetime(6)]</text>
<polygon fill="none" stroke="#000000" points="1340.5,-42.5 1340.5,-72.5 1523.5,-72.5 1523.5,-42.5 1340.5,-42.5"/>
<text text-anchor="start" x="1347.5" y="-53.9" font-family="Arial" font-size="14.00" fill="#000000">updated_at </text>
<text text-anchor="start" x="1421.4326" y="-53.9" font-family="Arial" font-size="14.00" fill="#666666">[datetime(6)]</text>
</g>
<!-- channels&#45;&gt;users -->
<g id="edge11" class="edge">
<title>channels:creator_id&#45;&gt;users:id</title>
<path fill="none" stroke="#000000" stroke-dasharray="5,2" d="M1330.2717,-666.9106C1202.811,-651.9577 1206.2205,-357.5 1340.5,-357.5"/>
<polygon fill="#000000" stroke="#000000" points="1330.5166,-666.9246 1340.2411,-671.9925 1335.5083,-667.2123 1340.5,-667.5 1340.5,-667.5 1340.5,-667.5 1335.5083,-667.2123 1340.7589,-663.0075 1330.5166,-666.9246 1330.5166,-666.9246"/>
<text text-anchor="start" x="1250.8245" y="-677.5" font-family="Arial" font-size="10.00" fill="#000000">Additional Relation</text>
</g>
<!-- channel_events -->
<g id="node2" class="node">
<title>channel_events</title>
<polygon fill="#efefef" stroke="transparent" points="43.5,-1337.5 43.5,-1372.5 280.5,-1372.5 280.5,-1337.5 43.5,-1337.5"/>
<polygon fill="none" stroke="#000000" points="43.5,-1337.5 43.5,-1372.5 280.5,-1372.5 280.5,-1337.5 43.5,-1337.5"/>
<text text-anchor="start" x="50.347" y="-1350.3" font-family="Arial Bold" font-size="18.00" fill="#000000">channel_events</text>
<text text-anchor="start" x="176.3992" y="-1350.3" font-family="Arial" font-size="14.00" fill="#000000"> </text>
<text text-anchor="start" x="180.2898" y="-1350.3" font-family="Arial" font-size="14.00" fill="#666666">[BASE TABLE]</text>
<polygon fill="none" stroke="#000000" points="43.5,-1307.5 43.5,-1337.5 280.5,-1337.5 280.5,-1307.5 43.5,-1307.5"/>
<text text-anchor="start" x="50.5" y="-1318.9" font-family="Arial" font-size="14.00" fill="#000000">event_id </text>
<text text-anchor="start" x="107.3008" y="-1318.9" font-family="Arial" font-size="14.00" fill="#666666">[char(36)]</text>
<polygon fill="none" stroke="#000000" points="43.5,-1277.5 43.5,-1307.5 280.5,-1307.5 280.5,-1277.5 43.5,-1277.5"/>
<text text-anchor="start" x="50.5" y="-1288.9" font-family="Arial" font-size="14.00" fill="#000000">channel_id </text>
<text text-anchor="start" x="122.082" y="-1288.9" font-family="Arial" font-size="14.00" fill="#666666">[char(36)]</text>
<polygon fill="none" stroke="#000000" points="43.5,-1247.5 43.5,-1277.5 280.5,-1277.5 280.5,-1247.5 43.5,-1247.5"/>
<text text-anchor="start" x="50.5" y="-1258.9" font-family="Arial" font-size="14.00" fill="#000000">event_type </text>
<text text-anchor="start" x="122.8674" y="-1258.9" font-family="Arial" font-size="14.00" fill="#666666">[varchar(30)]</text>
<polygon fill="none" stroke="#000000" points="43.5,-1217.5 43.5,-1247.5 280.5,-1247.5 280.5,-1217.5 43.5,-1217.5"/>
<text text-anchor="start" x="50.5" y="-1228.9" font-family="Arial" font-size="14.00" fill="#000000">detail </text>
<text text-anchor="start" x="87.8422" y="-1228.9" font-family="Arial" font-size="14.00" fill="#666666">[text]</text>
<polygon fill="none" stroke="#000000" points="43.5,-1187.5 43.5,-1217.5 280.5,-1217.5 280.5,-1187.5 43.5,-1187.5"/>
<text text-anchor="start" x="50.5" y="-1198.9" font-family="Arial" font-size="14.00" fill="#000000">date_time </text>
<text text-anchor="start" x="115.852" y="-1198.9" font-family="Arial" font-size="14.00" fill="#666666">[datetime(6)]</text>
</g>
<!-- channel_events&#45;&gt;channels -->
<g id="edge1" class="edge">
<title>channel_events:channel_id&#45;&gt;channels:id</title>
<path fill="none" stroke="#000000" d="M290.6389,-1292.0389C398.7258,-1281.5701 241.7586,-1095.5308 331.5,-1010 413.3523,-931.9881 1227.4264,-877.5 1340.5,-877.5"/>
<polygon fill="#000000" stroke="#000000" points="290.4897,-1292.0456 280.2955,-1288.0046 285.4948,-1292.2728 280.5,-1292.5 280.5,-1292.5 280.5,-1292.5 285.4948,-1292.2728 280.7045,-1296.9954 290.4897,-1292.0456 290.4897,-1292.0456"/>
<text text-anchor="start" x="152.378" y="-1276.5" font-family="Arial" font-size="10.00" fill="#000000">FOREIGN KEY (channel_id) REFERENCES channels (id)</text>
</g>
<!-- dm_channel_mappings -->
<g id="node3" class="node">
<title>dm_channel_mappings</title>
<polygon fill="#efefef" stroke="transparent" points="384.5,-1307.5 384.5,-1342.5 681.5,-1342.5 681.5,-1307.5 384.5,-1307.5"/>
<polygon fill="none" stroke="#000000" points="384.5,-1307.5 384.5,-1342.5 681.5,-1342.5 681.5,-1307.5 384.5,-1307.5"/>
<text text-anchor="start" x="391.3464" y="-1320.3" font-family="Arial Bold" font-size="18.00" fill="#000000">dm_channel_mappings</text>
<text text-anchor="start" x="577.3998" y="-1320.3" font-family="Arial" font-size="14.00" fill="#000000"> </text>
<text text-anchor="start" x="581.2904" y="-1320.3" font-family="Arial" font-size="14.00" fill="#666666">[BASE TABLE]</text>
<polygon fill="none" stroke="#000000" points="384.5,-1277.5 384.5,-1307.5 681.5,-1307.5 681.5,-1277.5 384.5,-1277.5"/>
<text text-anchor="start" x="391.5" y="-1288.9" font-family="Arial" font-size="14.00" fill="#000000">channel_id </text>
<text text-anchor="start" x="463.082" y="-1288.9" font-family="Arial" font-size="14.00" fill="#666666">[char(36)]</text>
<polygon fill="none" stroke="#000000" points="384.5,-1247.5 384.5,-1277.5 681.5,-1277.5 681.5,-1247.5 384.5,-1247.5"/>
<text text-anchor="start" x="391.5" y="-1258.9" font-family="Arial" font-size="14.00" fill="#000000">user1 </text>
<text text-anchor="start" x="430.399" y="-1258.9" font-family="Arial" font-size="14.00" fill="#666666">[char(36)]</text>
<polygon fill="none" stroke="#000000" points="384.5,-1217.5 384.5,-1247.5 681.5,-1247.5 681.5,-1217.5 384.5,-1217.5"/>
<text text-anchor="start" x="391.5" y="-1228.9" font-family="Arial" font-size="14.00" fill="#000000">user2 </text>
<text text-anchor="start" x="430.399" y="-1228.9" font-family="Arial" font-size="14.00" fill="#666666">[char(36)]</text>
</g>
<!-- dm_channel_mappings&#45;&gt;channels -->
<g id="edge2" class="edge">
<title>dm_channel_mappings:channel_id&#45;&gt;channels:id</title>
<path fill="none" stroke="#000000" d="M691.6478,-1292.0478C799.9337,-1281.7793 646.4291,-1099.2235 732.5,-1010 828.5063,-910.4772 1202.2177,-877.5 1340.5,-877.5"/>
<polygon fill="#000000" stroke="#000000" points="691.4901,-1292.0547 681.2996,-1288.0045 686.495,-1292.2774 681.5,-1292.5 681.5,-1292.5 681.5,-1292.5 686.495,-1292.2774 681.7004,-1296.9955 691.4901,-1292.0547 691.4901,-1292.0547"/>
<text text-anchor="start" x="688.878" y="-1302.5" font-family="Arial" font-size="10.00" fill="#000000">FOREIGN KEY (channel_id) REFERENCES channels (id)</text>
</g>
<!-- files -->
<g id="node4" class="node">
<title>files</title>
<polygon fill="#efefef" stroke="transparent" points="785.5,-1472.5 785.5,-1507.5 956.5,-1507.5 956.5,-1472.5 785.5,-1472.5"/>
<polygon fill="none" stroke="#000000" points="785.5,-1472.5 785.5,-1507.5 956.5,-1507.5 956.5,-1472.5 785.5,-1472.5"/>
<text text-anchor="start" x="806.3747" y="-1485.3" font-family="Arial Bold" font-size="18.00" fill="#000000">files</text>
<text text-anchor="start" x="838.3715" y="-1485.3" font-family="Arial" font-size="14.00" fill="#000000"> </text>
<text text-anchor="start" x="842.2621" y="-1485.3" font-family="Arial" font-size="14.00" fill="#666666">[BASE TABLE]</text>
<polygon fill="none" stroke="#000000" points="785.5,-1442.5 785.5,-1472.5 956.5,-1472.5 956.5,-1442.5 785.5,-1442.5"/>
<text text-anchor="start" x="792.5" y="-1453.9" font-family="Arial" font-size="14.00" fill="#000000">id </text>
<text text-anchor="start" x="807.2798" y="-1453.9" font-family="Arial" font-size="14.00" fill="#666666">[char(36)]</text>
<polygon fill="none" stroke="#000000" points="785.5,-1412.5 785.5,-1442.5 956.5,-1442.5 956.5,-1412.5 785.5,-1412.5"/>
<text text-anchor="start" x="792.5" y="-1423.9" font-family="Arial" font-size="14.00" fill="#000000">name </text>
<text text-anchor="start" x="831.399" y="-1423.9" font-family="Arial" font-size="14.00" fill="#666666">[text]</text>
<polygon fill="none" stroke="#000000" points="785.5,-1382.5 785.5,-1412.5 956.5,-1412.5 956.5,-1382.5 785.5,-1382.5"/>
<text text-anchor="start" x="792.5" y="-1393.9" font-family="Arial" font-size="14.00" fill="#000000">mime </text>
<text text-anchor="start" x="830.601" y="-1393.9" font-family="Arial" font-size="14.00" fill="#666666">[text]</text>
<polygon fill="none" stroke="#000000" points="785.5,-1352.5 785.5,-1382.5 956.5,-1382.5 956.5,-1352.5 785.5,-1352.5"/>
<text text-anchor="start" x="792.5" y="-1363.9" font-family="Arial" font-size="14.00" fill="#000000">size </text>
<text text-anchor="start" x="821.2798" y="-1363.9" font-family="Arial" font-size="14.00" fill="#666666">[bigint(20)]</text>
<polygon fill="none" stroke="#000000" points="785.5,-1322.5 785.5,-1352.5 956.5,-1352.5 956.5,-1322.5 785.5,-1322.5"/>
<text text-anchor="start" x="792.5" y="-1333.9" font-family="Arial" font-size="14.00" fill="#000000">creator_id </text>
<text text-anchor="start" x="858.622" y="-1333.9" font-family="Arial" font-size="14.00" fill="#666666">[char(36)]</text>
<polygon fill="none" stroke="#000000" points="785.5,-1292.5 785.5,-1322.5 956.5,-1322.5 956.5,-1292.5 785.5,-1292.5"/>
<text text-anchor="start" x="792.5" y="-1303.9" font-family="Arial" font-size="14.00" fill="#000000">hash </text>
<text text-anchor="start" x="826.7384" y="-1303.9" font-family="Arial" font-size="14.00" fill="#666666">[char(32)]</text>
<polygon fill="none" stroke="#000000" points="785.5,-1262.5 785.5,-1292.5 956.5,-1292.5 956.5,-1262.5 785.5,-1262.5"/>
<text text-anchor="start" x="792.5" y="-1273.9" font-family="Arial" font-size="14.00" fill="#000000">type </text>
<text text-anchor="start" x="822.8464" y="-1273.9" font-family="Arial" font-size="14.00" fill="#666666">[varchar(30)]</text>
<polygon fill="none" stroke="#000000" points="785.5,-1232.5 785.5,-1262.5 956.5,-1262.5 956.5,-1232.5 785.5,-1232.5"/>
<text text-anchor="start" x="792.5" y="-1243.9" font-family="Arial" font-size="14.00" fill="#000000">has_thumbnail </text>
<text text-anchor="start" x="887.4158" y="-1243.9" font-family="Arial" font-size="14.00" fill="#666666">[tinyint(1)]</text>
<polygon fill="none" stroke="#000000" points="785.5,-1202.5 785.5,-1232.5 956.5,-1232.5 956.5,-1202.5 785.5,-1202.5"/>
<text text-anchor="start" x="792.5" y="-1213.9" font-family="Arial" font-size="14.00" fill="#000000">thumbnail_mime </text>
<text text-anchor="start" x="899.061" y="-1213.9" font-family="Arial" font-size="14.00" fill="#666666">[text]</text>
<polygon fill="none" stroke="#000000" points="785.5,-1172.5 785.5,-1202.5 956.5,-1202.5 956.5,-1172.5 785.5,-1172.5"/>
<text text-anchor="start" x="792.5" y="-1183.9" font-family="Arial" font-size="14.00" fill="#000000">thumbnail_width </text>
<text text-anchor="start" x="897.5196" y="-1183.9" font-family="Arial" font-size="14.00" fill="#666666">[int(11)]</text>
<polygon fill="none" stroke="#000000" points="785.5,-1142.5 785.5,-1172.5 956.5,-1172.5 956.5,-1142.5 785.5,-1142.5"/>
<text text-anchor="start" x="792.0372" y="-1153.9" font-family="Arial" font-size="14.00" fill="#000000">thumbnail_height </text>
<text text-anchor="start" x="902.5154" y="-1153.9" font-family="Arial" font-size="14.00" fill="#666666">[int(11)]</text>
<polygon fill="none" stroke="#000000" points="785.5,-1112.5 785.5,-1142.5 956.5,-1142.5 956.5,-1112.5 785.5,-1112.5"/>
<text text-anchor="start" x="792.5" y="-1123.9" font-family="Arial" font-size="14.00" fill="#000000">channel_id </text>
<text text-anchor="start" x="864.082" y="-1123.9" font-family="Arial" font-size="14.00" fill="#666666">[char(36)]</text>
<polygon fill="none" stroke="#000000" points="785.5,-1082.5 785.5,-1112.5 956.5,-1112.5 956.5,-1082.5 785.5,-1082.5"/>
<text text-anchor="start" x="792.5" y="-1093.9" font-family="Arial" font-size="14.00" fill="#000000">created_at </text>
<text text-anchor="start" x="862.528" y="-1093.9" font-family="Arial" font-size="14.00" fill="#666666">[datetime(6)]</text>
<polygon fill="none" stroke="#000000" points="785.5,-1052.5 785.5,-1082.5 956.5,-1082.5 956.5,-1052.5 785.5,-1052.5"/>
<text text-anchor="start" x="792.5" y="-1063.9" font-family="Arial" font-size="14.00" fill="#000000">deleted_at </text>
<text text-anchor="start" x="861.7566" y="-1063.9" font-family="Arial" font-size="14.00" fill="#666666">[datetime(6)]</text>
</g>
<!-- files&#45;&gt;channels -->
<g id="edge3" class="edge">
<title>files:channel_id&#45;&gt;channels:id</title>
<path fill="none" stroke="#000000" d="M966.5252,-1126.5038C1007.6003,-1117.3265 969.3436,-1046.9984 1007.5,-1010 1121.8537,-899.1166 1181.2144,-877.5 1340.5,-877.5"/>
<polygon fill="#000000" stroke="#000000" points="966.451,-1126.5111 956.055,-1123.0221 961.4755,-1127.0056 956.5,-1127.5 956.5,-1127.5 956.5,-1127.5 961.4755,-1127.0056 956.945,-1131.9779 966.451,-1126.5111 966.451,-1126.5111"/>
<text text-anchor="start" x="896.128" y="-1111.5" font-family="Arial" font-size="10.00" fill="#000000">FOREIGN KEY (channel_id) REFERENCES channels (id)</text>
</g>
<!-- messages -->
<g id="node5" class="node">
<title>messages</title>
<polygon fill="#efefef" stroke="transparent" points="1060.5,-1367.5 1060.5,-1402.5 1253.5,-1402.5 1253.5,-1367.5 1060.5,-1367.5"/>
<polygon fill="none" stroke="#000000" points="1060.5,-1367.5 1060.5,-1402.5 1253.5,-1402.5 1253.5,-1367.5 1060.5,-1367.5"/>
<text text-anchor="start" x="1067.3646" y="-1380.3" font-family="Arial Bold" font-size="18.00" fill="#000000">messages</text>
<text text-anchor="start" x="1149.3816" y="-1380.3" font-family="Arial" font-size="14.00" fill="#000000"> </text>
<text text-anchor="start" x="1153.2722" y="-1380.3" font-family="Arial" font-size="14.00" fill="#666666">[BASE TABLE]</text>
<polygon fill="none" stroke="#000000" points="1060.5,-1337.5 1060.5,-1367.5 1253.5,-1367.5 1253.5,-1337.5 1060.5,-1337.5"/>
<text text-anchor="start" x="1067.5" y="-1348.9" font-family="Arial" font-size="14.00" fill="#000000">id </text>
<text text-anchor="start" x="1082.2798" y="-1348.9" font-family="Arial" font-size="14.00" fill="#666666">[char(36)]</text>
<polygon fill="none" stroke="#000000" points="1060.5,-1307.5 1060.5,-1337.5 1253.5,-1337.5 1253.5,-1307.5 1060.5,-1307.5"/>
<text text-anchor="start" x="1067.5" y="-1318.9" font-family="Arial" font-size="14.00" fill="#000000">user_id </text>
<text text-anchor="start" x="1117.2882" y="-1318.9" font-family="Arial" font-size="14.00" fill="#666666">[char(36)]</text>
<polygon fill="none" stroke="#000000" points="1060.5,-1277.5 1060.5,-1307.5 1253.5,-1307.5 1253.5,-1277.5 1060.5,-1277.5"/>
<text text-anchor="start" x="1067.5" y="-1288.9" font-family="Arial" font-size="14.00" fill="#000000">channel_id </text>
<text text-anchor="start" x="1139.082" y="-1288.9" font-family="Arial" font-size="14.00" fill="#666666">[char(36)]</text>
<polygon fill="none" stroke="#000000" points="1060.5,-1247.5 1060.5,-1277.5 1253.5,-1277.5 1253.5,-1247.5 1060.5,-1247.5"/>
<text text-anchor="start" x="1067.5" y="-1258.9" font-family="Arial" font-size="14.00" fill="#000000">text </text>
<text text-anchor="start" x="1093.9544" y="-1258.9" font-family="Arial" font-size="14.00" fill="#666666">[text]</text>
<polygon fill="none" stroke="#000000" points="1060.5,-1217.5 1060.5,-1247.5 1253.5,-1247.5 1253.5,-1217.5 1060.5,-1217.5"/>
<text text-anchor="start" x="1067.5" y="-1228.9" font-family="Arial" font-size="14.00" fill="#000000">created_at </text>
<text text-anchor="start" x="1137.528" y="-1228.9" font-family="Arial" font-size="14.00" fill="#666666">[datetime(6)]</text>
<polygon fill="none" stroke="#000000" points="1060.5,-1187.5 1060.5,-1217.5 1253.5,-1217.5 1253.5,-1187.5 1060.5,-1187.5"/>
<text text-anchor="start" x="1067.5" y="-1198.9" font-family="Arial" font-size="14.00" fill="#000000">updated_at </text>
<text text-anchor="start" x="1141.4326" y="-1198.9" font-family="Arial" font-size="14.00" fill="#666666">[datetime(6)]</text>
<polygon fill="none" stroke="#000000" points="1060.5,-1157.5 1060.5,-1187.5 1253.5,-1187.5 1253.5,-1157.5 1060.5,-1157.5"/>
<text text-anchor="start" x="1067.5" y="-1168.9" font-family="Arial" font-size="14.00" fill="#000000">deleted_at </text>
<text text-anchor="start" x="1136.7566" y="-1168.9" font-family="Arial" font-size="14.00" fill="#666666">[datetime(6)]</text>
</g>
<!-- messages&#45;&gt;channels -->
<g id="edge4" class="edge">
<title>messages:channel_id&#45;&gt;channels:id</title>
<path fill="none" stroke="#000000" d="M1263.6698,-1290.6498C1340.0994,-1260.7114 1249.9538,-877.5 1340.5,-877.5"/>
<polygon fill="#000000" stroke="#000000" points="1263.3385,-1290.7099 1252.6945,-1288.0727 1258.4192,-1291.605 1253.5,-1292.5 1253.5,-1292.5 1253.5,-1292.5 1258.4192,-1291.605 1254.3055,-1296.9273 1263.3385,-1290.7099 1263.3385,-1290.7099"/>
<text text-anchor="start" x="1260.878" y="-1302.5" font-family="Arial" font-size="10.00" fill="#000000">FOREIGN KEY (channel_id) REFERENCES channels (id)</text>
</g>
<!-- stars -->
<g id="node6" class="node">
<title>stars</title>
<polygon fill="#efefef" stroke="transparent" points="1357.5,-1292.5 1357.5,-1327.5 1507.5,-1327.5 1507.5,-1292.5 1357.5,-1292.5"/>
<polygon fill="none" stroke="#000000" points="1357.5,-1292.5 1357.5,-1327.5 1507.5,-1327.5 1507.5,-1292.5 1357.5,-1292.5"/>
<text text-anchor="start" x="1364.3728" y="-1305.3" font-family="Arial Bold" font-size="18.00" fill="#000000">stars</text>
<text text-anchor="start" x="1403.3734" y="-1305.3" font-family="Arial" font-size="14.00" fill="#000000"> </text>
<text text-anchor="start" x="1407.264" y="-1305.3" font-family="Arial" font-size="14.00" fill="#666666">[BASE TABLE]</text>
<polygon fill="none" stroke="#000000" points="1357.5,-1262.5 1357.5,-1292.5 1507.5,-1292.5 1507.5,-1262.5 1357.5,-1262.5"/>
<text text-anchor="start" x="1364.5" y="-1273.9" font-family="Arial" font-size="14.00" fill="#000000">user_id </text>
<text text-anchor="start" x="1414.2882" y="-1273.9" font-family="Arial" font-size="14.00" fill="#666666">[char(36)]</text>
<polygon fill="none" stroke="#000000" points="1357.5,-1232.5 1357.5,-1262.5 1507.5,-1262.5 1507.5,-1232.5 1357.5,-1232.5"/>
<text text-anchor="start" x="1364.5" y="-1243.9" font-family="Arial" font-size="14.00" fill="#000000">channel_id </text>
<text text-anchor="start" x="1436.082" y="-1243.9" font-family="Arial" font-size="14.00" fill="#666666">[char(36)]</text>
</g>
<!-- stars&#45;&gt;channels -->
<g id="edge5" class="edge">
<title>stars:channel_id&#45;&gt;channels:id</title>
<path fill="none" stroke="#000000" d="M1432.8145,-1222.4441C1442.7377,-1061.8218 1683.0387,-877.5 1523.5,-877.5"/>
<polygon fill="#000000" stroke="#000000" points="1432.8127,-1222.5049 1428.0022,-1232.3593 1432.6564,-1227.5024 1432.5,-1232.5 1432.5,-1232.5 1432.5,-1232.5 1432.6564,-1227.5024 1436.9978,-1232.6407 1432.8127,-1222.5049 1432.8127,-1222.5049"/>
<text text-anchor="start" x="1304.378" y="-1216.5" font-family="Arial" font-size="10.00" fill="#000000">FOREIGN KEY (channel_id) REFERENCES channels (id)</text>
</g>
<!-- users_private_channels -->
<g id="node7" class="node">
<title>users_private_channels</title>
<polygon fill="#efefef" stroke="transparent" points="1612.5,-1292.5 1612.5,-1327.5 1913.5,-1327.5 1913.5,-1292.5 1612.5,-1292.5"/>
<polygon fill="none" stroke="#000000" points="1612.5,-1292.5 1612.5,-1327.5 1913.5,-1327.5 1913.5,-1292.5 1612.5,-1292.5"/>
<text text-anchor="start" x="1619.3484" y="-1305.3" font-family="Arial Bold" font-size="18.00" fill="#000000">users_private_channels</text>
<text text-anchor="start" x="1809.3978" y="-1305.3" font-family="Arial" font-size="14.00" fill="#000000"> </text>
<text text-anchor="start" x="1813.2884" y="-1305.3" font-family="Arial" font-size="14.00" fill="#666666">[BASE TABLE]</text>
<polygon fill="none" stroke="#000000" points="1612.5,-1262.5 1612.5,-1292.5 1913.5,-1292.5 1913.5,-1262.5 1612.5,-1262.5"/>
<text text-anchor="start" x="1619.5" y="-1273.9" font-family="Arial" font-size="14.00" fill="#000000">user_id </text>
<text text-anchor="start" x="1669.2882" y="-1273.9" font-family="Arial" font-size="14.00" fill="#666666">[char(36)]</text>
<polygon fill="none" stroke="#000000" points="1612.5,-1232.5 1612.5,-1262.5 1913.5,-1262.5 1913.5,-1232.5 1612.5,-1232.5"/>
<text text-anchor="start" x="1619.5" y="-1243.9" font-family="Arial" font-size="14.00" fill="#000000">channel_id </text>
<text text-anchor="start" x="1691.082" y="-1243.9" font-family="Arial" font-size="14.00" fill="#666666">[char(36)]</text>
</g>
<!-- users_private_channels&#45;&gt;channels -->
<g id="edge6" class="edge">
<title>users_private_channels:channel_id&#45;&gt;channels:id</title>
<path fill="none" stroke="#000000" d="M1602.4849,-1245.5093C1534.515,-1216.3863 1604.4337,-877.5 1523.5,-877.5"/>
<polygon fill="#000000" stroke="#000000" points="1602.6919,-1245.5504 1611.6227,-1251.9137 1607.5959,-1246.5252 1612.5,-1247.5 1612.5,-1247.5 1612.5,-1247.5 1607.5959,-1246.5252 1613.3773,-1243.0863 1602.6919,-1245.5504 1602.6919,-1245.5504"/>
<text text-anchor="start" x="1619.878" y="-1257.5" font-family="Arial" font-size="10.00" fill="#000000">FOREIGN KEY (channel_id) REFERENCES channels (id)</text>
</g>
<!-- users_subscribe_channels -->
<g id="node8" class="node">
<title>users_subscribe_channels</title>
<polygon fill="#efefef" stroke="transparent" points="2017.5,-1322.5 2017.5,-1357.5 2341.5,-1357.5 2341.5,-1322.5 2017.5,-1322.5"/>
<polygon fill="none" stroke="#000000" points="2017.5,-1322.5 2017.5,-1357.5 2341.5,-1357.5 2341.5,-1322.5 2017.5,-1322.5"/>
<text text-anchor="start" x="2024.3464" y="-1335.3" font-family="Arial Bold" font-size="18.00" fill="#000000">users_subscribe_channels</text>
<text text-anchor="start" x="2237.3998" y="-1335.3" font-family="Arial" font-size="14.00" fill="#000000"> </text>
<text text-anchor="start" x="2241.2904" y="-1335.3" font-family="Arial" font-size="14.00" fill="#666666">[BASE TABLE]</text>
<polygon fill="none" stroke="#000000" points="2017.5,-1292.5 2017.5,-1322.5 2341.5,-1322.5 2341.5,-1292.5 2017.5,-1292.5"/>
<text text-anchor="start" x="2024.5" y="-1303.9" font-family="Arial" font-size="14.00" fill="#000000">user_id </text>
<text text-anchor="start" x="2074.2882" y="-1303.9" font-family="Arial" font-size="14.00" fill="#666666">[char(36)]</text>
<polygon fill="none" stroke="#000000" points="2017.5,-1262.5 2017.5,-1292.5 2341.5,-1292.5 2341.5,-1262.5 2017.5,-1262.5"/>
<text text-anchor="start" x="2024.5" y="-1273.9" font-family="Arial" font-size="14.00" fill="#000000">channel_id </text>
<text text-anchor="start" x="2096.082" y="-1273.9" font-family="Arial" font-size="14.00" fill="#666666">[char(36)]</text>
<polygon fill="none" stroke="#000000" points="2017.5,-1232.5 2017.5,-1262.5 2341.5,-1262.5 2341.5,-1232.5 2017.5,-1232.5"/>
<text text-anchor="start" x="2024.5" y="-1243.9" font-family="Arial" font-size="14.00" fill="#000000">mark </text>
<text text-anchor="start" x="2059.4944" y="-1243.9" font-family="Arial" font-size="14.00" fill="#666666">[tinyint(1)]</text>
<polygon fill="none" stroke="#000000" points="2017.5,-1202.5 2017.5,-1232.5 2341.5,-1232.5 2341.5,-1202.5 2017.5,-1202.5"/>
<text text-anchor="start" x="2024.5" y="-1213.9" font-family="Arial" font-size="14.00" fill="#000000">notify </text>
<text text-anchor="start" x="2061.8436" y="-1213.9" font-family="Arial" font-size="14.00" fill="#666666">[tinyint(1)]</text>
</g>
<!-- users_subscribe_channels&#45;&gt;channels -->
<g id="edge7" class="edge">
<title>users_subscribe_channels:channel_id&#45;&gt;channels:id</title>
<path fill="none" stroke="#000000" d="M2007.2329,-1277.0187C1905.2796,-1266.8204 2044.3263,-1097.0655 1965.5,-1010 1896.6788,-933.9854 1626.0406,-877.5 1523.5,-877.5"/>
<polygon fill="#000000" stroke="#000000" points="2007.511,-1277.0317 2017.2893,-1281.9951 2012.5055,-1277.2658 2017.5,-1277.5 2017.5,-1277.5 2017.5,-1277.5 2012.5055,-1277.2658 2017.7107,-1273.0049 2007.511,-1277.0317 2007.511,-1277.0317"/>
<text text-anchor="start" x="1753.878" y="-1287.5" font-family="Arial" font-size="10.00" fill="#000000">FOREIGN KEY (channel_id) REFERENCES channels (id)</text>
</g>
<!-- user_profiles -->
<g id="node9" class="node">
<title>user_profiles</title>
<polygon fill="#efefef" stroke="transparent" points="2445.5,-1352.5 2445.5,-1387.5 2659.5,-1387.5 2659.5,-1352.5 2445.5,-1352.5"/>
<polygon fill="none" stroke="#000000" points="2445.5,-1352.5 2445.5,-1387.5 2659.5,-1387.5 2659.5,-1352.5 2445.5,-1352.5"/>
<text text-anchor="start" x="2452.367" y="-1365.3" font-family="Arial Bold" font-size="18.00" fill="#000000">user_profiles</text>
<text text-anchor="start" x="2555.3792" y="-1365.3" font-family="Arial" font-size="14.00" fill="#000000"> </text>
<text text-anchor="start" x="2559.2698" y="-1365.3" font-family="Arial" font-size="14.00" fill="#666666">[BASE TABLE]</text>
<polygon fill="none" stroke="#000000" points="2445.5,-1322.5 2445.5,-1352.5 2659.5,-1352.5 2659.5,-1322.5 2445.5,-1322.5"/>
<text text-anchor="start" x="2452.5" y="-1333.9" font-family="Arial" font-size="14.00" fill="#000000">user_id </text>
<text text-anchor="start" x="2502.2882" y="-1333.9" font-family="Arial" font-size="14.00" fill="#666666">[char(36)]</text>
<polygon fill="none" stroke="#000000" points="2445.5,-1292.5 2445.5,-1322.5 2659.5,-1322.5 2659.5,-1292.5 2445.5,-1292.5"/>
<text text-anchor="start" x="2452.5" y="-1303.9" font-family="Arial" font-size="14.00" fill="#000000">bio </text>
<text text-anchor="start" x="2475.0624" y="-1303.9" font-family="Arial" font-size="14.00" fill="#666666">[text]</text>
<polygon fill="none" stroke="#000000" points="2445.5,-1262.5 2445.5,-1292.5 2659.5,-1292.5 2659.5,-1262.5 2445.5,-1262.5"/>
<text text-anchor="start" x="2452.5" y="-1273.9" font-family="Arial" font-size="14.00" fill="#000000">twitter_id </text>
<text text-anchor="start" x="2512.3906" y="-1273.9" font-family="Arial" font-size="14.00" fill="#666666">[varchar(15)]</text>
<polygon fill="none" stroke="#000000" points="2445.5,-1232.5 2445.5,-1262.5 2659.5,-1262.5 2659.5,-1232.5 2445.5,-1232.5"/>
<text text-anchor="start" x="2452.5" y="-1243.9" font-family="Arial" font-size="14.00" fill="#000000">last_online </text>
<text text-anchor="start" x="2523.2966" y="-1243.9" font-family="Arial" font-size="14.00" fill="#666666">[datetime(6)]</text>
<polygon fill="none" stroke="#000000" points="2445.5,-1202.5 2445.5,-1232.5 2659.5,-1232.5 2659.5,-1202.5 2445.5,-1202.5"/>
<text text-anchor="start" x="2452.5" y="-1213.9" font-family="Arial" font-size="14.00" fill="#000000">home_channel </text>
<text text-anchor="start" x="2548.2012" y="-1213.9" font-family="Arial" font-size="14.00" fill="#666666">[char(36)]</text>
<polygon fill="none" stroke="#000000" points="2445.5,-1172.5 2445.5,-1202.5 2659.5,-1202.5 2659.5,-1172.5 2445.5,-1172.5"/>
<text text-anchor="start" x="2452.5" y="-1183.9" font-family="Arial" font-size="14.00" fill="#000000">updated_at </text>
<text text-anchor="start" x="2526.4326" y="-1183.9" font-family="Arial" font-size="14.00" fill="#666666">[datetime(6)]</text>
</g>
<!-- user_profiles&#45;&gt;channels -->
<g id="edge8" class="edge">
<title>user_profiles:home_channel&#45;&gt;channels:id</title>
<path fill="none" stroke="#000000" d="M2435.2895,-1216.8563C2359.005,-1206.4089 2461.0777,-1071.4811 2393.5,-1010 2248.8452,-878.3955 1719.0627,-877.5 1523.5,-877.5"/>
<polygon fill="#000000" stroke="#000000" points="2435.5198,-1216.8707 2445.2168,-1221.9911 2440.5099,-1217.1854 2445.5,-1217.5 2445.5,-1217.5 2445.5,-1217.5 2440.5099,-1217.1854 2445.7832,-1213.0089 2435.5198,-1216.8707 2435.5198,-1216.8707"/>
<text text-anchor="start" x="2164.264" y="-1227.5" font-family="Arial" font-size="10.00" fill="#000000">FOREIGN KEY (home_channel) REFERENCES channels (id)</text>
</g>
<!-- webhook_bots -->
<g id="node10" class="node">
<title>webhook_bots</title>
<polygon fill="#efefef" stroke="transparent" points="2764.5,-1397.5 2764.5,-1432.5 2991.5,-1432.5 2991.5,-1397.5 2764.5,-1397.5"/>
<polygon fill="none" stroke="#000000" points="2764.5,-1397.5 2764.5,-1432.5 2991.5,-1432.5 2991.5,-1397.5 2764.5,-1397.5"/>
<text text-anchor="start" x="2771.3501" y="-1410.3" font-family="Arial Bold" font-size="18.00" fill="#000000">webhook_bots</text>
<text text-anchor="start" x="2887.3961" y="-1410.3" font-family="Arial" font-size="14.00" fill="#000000"> </text>
<text text-anchor="start" x="2891.2867" y="-1410.3" font-family="Arial" font-size="14.00" fill="#666666">[BASE TABLE]</text>
<polygon fill="none" stroke="#000000" points="2764.5,-1367.5 2764.5,-1397.5 2991.5,-1397.5 2991.5,-1367.5 2764.5,-1367.5"/>
<text text-anchor="start" x="2771.5" y="-1378.9" font-family="Arial" font-size="14.00" fill="#000000">id </text>
<text text-anchor="start" x="2786.2798" y="-1378.9" font-family="Arial" font-size="14.00" fill="#666666">[char(36)]</text>
<polygon fill="none" stroke="#000000" points="2764.5,-1337.5 2764.5,-1367.5 2991.5,-1367.5 2991.5,-1337.5 2764.5,-1337.5"/>
<text text-anchor="start" x="2771.5" y="-1348.9" font-family="Arial" font-size="14.00" fill="#000000">bot_user_id </text>
<text text-anchor="start" x="2848.5266" y="-1348.9" font-family="Arial" font-size="14.00" fill="#666666">[char(36)]</text>
<polygon fill="none" stroke="#000000" points="2764.5,-1307.5 2764.5,-1337.5 2991.5,-1337.5 2991.5,-1307.5 2764.5,-1307.5"/>
<text text-anchor="start" x="2771.5" y="-1318.9" font-family="Arial" font-size="14.00" fill="#000000">description </text>
<text text-anchor="start" x="2843.068" y="-1318.9" font-family="Arial" font-size="14.00" fill="#666666">[text]</text>
<polygon fill="none" stroke="#000000" points="2764.5,-1277.5 2764.5,-1307.5 2991.5,-1307.5 2991.5,-1277.5 2764.5,-1277.5"/>
<text text-anchor="start" x="2771.5" y="-1288.9" font-family="Arial" font-size="14.00" fill="#000000">secret </text>
<text text-anchor="start" x="2813.507" y="-1288.9" font-family="Arial" font-size="14.00" fill="#666666">[text]</text>
<polygon fill="none" stroke="#000000" points="2764.5,-1247.5 2764.5,-1277.5 2991.5,-1277.5 2991.5,-1247.5 2764.5,-1247.5"/>
<text text-anchor="start" x="2771.5" y="-1258.9" font-family="Arial" font-size="14.00" fill="#000000">channel_id </text>
<text text-anchor="start" x="2843.082" y="-1258.9" font-family="Arial" font-size="14.00" fill="#666666">[char(36)]</text>
<polygon fill="none" stroke="#000000" points="2764.5,-1217.5 2764.5,-1247.5 2991.5,-1247.5 2991.5,-1217.5 2764.5,-1217.5"/>
<text text-anchor="start" x="2771.5" y="-1228.9" font-family="Arial" font-size="14.00" fill="#000000">creator_id </text>
<text text-anchor="start" x="2837.622" y="-1228.9" font-family="Arial" font-size="14.00" fill="#666666">[char(36)]</text>
<polygon fill="none" stroke="#000000" points="2764.5,-1187.5 2764.5,-1217.5 2991.5,-1217.5 2991.5,-1187.5 2764.5,-1187.5"/>
<text text-anchor="start" x="2771.5" y="-1198.9" font-family="Arial" font-size="14.00" fill="#000000">created_at </text>
<text text-anchor="start" x="2841.528" y="-1198.9" font-family="Arial" font-size="14.00" fill="#666666">[datetime(6)]</text>
<polygon fill="none" stroke="#000000" points="2764.5,-1157.5 2764.5,-1187.5 2991.5,-1187.5 2991.5,-1157.5 2764.5,-1157.5"/>
<text text-anchor="start" x="2771.5" y="-1168.9" font-family="Arial" font-size="14.00" fill="#000000">updated_at </text>
<text text-anchor="start" x="2845.4326" y="-1168.9" font-family="Arial" font-size="14.00" fill="#666666">[datetime(6)]</text>
<polygon fill="none" stroke="#000000" points="2764.5,-1127.5 2764.5,-1157.5 2991.5,-1157.5 2991.5,-1127.5 2764.5,-1127.5"/>
<text text-anchor="start" x="2771.5" y="-1138.9" font-family="Arial" font-size="14.00" fill="#000000">deleted_at </text>
<text text-anchor="start" x="2840.7566" y="-1138.9" font-family="Arial" font-size="14.00" fill="#666666">[datetime(6)]</text>
</g>
<!-- webhook_bots&#45;&gt;channels -->
<g id="edge9" class="edge">
<title>webhook_bots:channel_id&#45;&gt;channels:id</title>
<path fill="none" stroke="#000000" d="M2754.5001,-1261.9945C2658.765,-1251.6339 2793.7204,-1084.6964 2711.5,-1010 2613.1929,-920.689 1656.3185,-877.5 1523.5,-877.5"/>
<polygon fill="#000000" stroke="#000000" points="2754.5128,-1261.995 2764.2728,-1266.9943 2759.5064,-1262.2475 2764.5,-1262.5 2764.5,-1262.5 2764.5,-1262.5 2759.5064,-1262.2475 2764.7272,-1258.0057 2754.5128,-1261.995 2754.5128,-1261.995"/>
<text text-anchor="start" x="2771.878" y="-1272.5" font-family="Arial" font-size="10.00" fill="#000000">FOREIGN KEY (channel_id) REFERENCES channels (id)</text>
</g>
</g>
</svg>
