<?xml version="1.0" encoding="UTF-8" standalone="no"?>
<!DOCTYPE svg PUBLIC "-//W3C//DTD SVG 1.1//EN"
        "http://www.w3.org/Graphics/SVG/1.1/DTD/svg11.dtd">
<!-- Generated by graphviz version 2.40.1 (20161225.0304)
 -->
<!-- Title: clips Pages: 1 -->
<svg width="893pt" height="860pt"
     viewBox="0.00 0.00 893.00 860.00" xmlns="http://www.w3.org/2000/svg">
    <g id="graph0" class="graph" transform="scale(1 1) rotate(0) translate(4 856)">
        <title>clips</title>
        <polygon fill="#ffffff" stroke="transparent" points="-4,4 -4,-856 889,-856 889,4 -4,4"/>
        <!-- clips -->
        <g id="node1" class="node">
            <title>clips</title>
            <polygon fill="#efefef" stroke="transparent"
                     points="340.5,-772 340.5,-806 517.5,-806 517.5,-772 340.5,-772"/>
            <polygon fill="none" stroke="#000000" points="340.5,-772 340.5,-806 517.5,-806 517.5,-772 340.5,-772"/>
            <text text-anchor="start" x="360.5059" y="-785.6" font-family="Arial Bold" font-size="18.00" fill="#000000">
                clips
            </text>
            <text text-anchor="start" x="401.5244" y="-785.6" font-family="Arial" font-size="14.00"
                  fill="#000000"></text>
            <text text-anchor="start" x="405.4141" y="-785.6" font-family="Arial" font-size="14.00" fill="#666666">[BASE
                TABLE]
            </text>
            <polygon fill="none" stroke="#000000" points="340.5,-742 340.5,-772 517.5,-772 517.5,-742 340.5,-742"/>
            <text text-anchor="start" x="347.5" y="-754.8" font-family="Arial" font-size="14.00" fill="#000000">id
            </text>
            <text text-anchor="start" x="362.2861" y="-754.8" font-family="Arial" font-size="14.00" fill="#666666">
                [char(36)]
            </text>
            <polygon fill="none" stroke="#000000" points="340.5,-712 340.5,-742 517.5,-742 517.5,-712 340.5,-712"/>
            <text text-anchor="start" x="347.5" y="-724.8" font-family="Arial" font-size="14.00" fill="#000000">
                user_id
            </text>
            <text text-anchor="start" x="397.3066" y="-724.8" font-family="Arial" font-size="14.00" fill="#666666">
                [char(36)]
            </text>
            <polygon fill="none" stroke="#000000" points="340.5,-682 340.5,-712 517.5,-712 517.5,-682 340.5,-682"/>
            <text text-anchor="start" x="347.5" y="-694.8" font-family="Arial" font-size="14.00" fill="#000000">
                message_id
            </text>
            <text text-anchor="start" x="426.8789" y="-694.8" font-family="Arial" font-size="14.00" fill="#666666">
                [char(36)]
            </text>
            <polygon fill="none" stroke="#000000" points="340.5,-652 340.5,-682 517.5,-682 517.5,-652 340.5,-652"/>
            <text text-anchor="start" x="347.5" y="-664.8" font-family="Arial" font-size="14.00" fill="#000000">
                folder_id
            </text>
            <text text-anchor="start" x="405.0928" y="-664.8" font-family="Arial" font-size="14.00" fill="#666666">
                [char(36)]
            </text>
            <polygon fill="none" stroke="#000000" points="340.5,-622 340.5,-652 517.5,-652 517.5,-622 340.5,-622"/>
            <text text-anchor="start" x="347.5" y="-634.8" font-family="Arial" font-size="14.00" fill="#000000">
                created_at
            </text>
            <text text-anchor="start" x="417.5479" y="-634.8" font-family="Arial" font-size="14.00" fill="#666666">
                [timestamp(6)]
            </text>
            <polygon fill="none" stroke="#000000" points="340.5,-592 340.5,-622 517.5,-622 517.5,-592 340.5,-592"/>
            <text text-anchor="start" x="347.29" y="-604.8" font-family="Arial" font-size="14.00" fill="#000000">
                updated_at
            </text>
            <text text-anchor="start" x="421.248" y="-604.8" font-family="Arial" font-size="14.00" fill="#666666">
                [timestamp(6)]
            </text>
            <polygon fill="none" stroke="#000000" stroke-width="3"
                     points="338.5,-590.5 338.5,-807.5 518.5,-807.5 518.5,-590.5 338.5,-590.5"/>
        </g>
        <!-- users -->
        <g id="node2" class="node">
            <title>users</title>
            <polygon fill="#efefef" stroke="transparent" points="43.5,-433 43.5,-467 226.5,-467 226.5,-433 43.5,-433"/>
            <polygon fill="none" stroke="#000000" points="43.5,-433 43.5,-467 226.5,-467 226.5,-433 43.5,-433"/>
            <text text-anchor="start" x="62.999" y="-446.6" font-family="Arial Bold" font-size="18.00" fill="#000000">
                users
            </text>
            <text text-anchor="start" x="111.0313" y="-446.6" font-family="Arial" font-size="14.00"
                  fill="#000000"></text>
            <text text-anchor="start" x="114.9209" y="-446.6" font-family="Arial" font-size="14.00" fill="#666666">[BASE
                TABLE]
            </text>
            <polygon fill="none" stroke="#000000" points="43.5,-403 43.5,-433 226.5,-433 226.5,-403 43.5,-403"/>
            <text text-anchor="start" x="50.5" y="-415.8" font-family="Arial" font-size="14.00" fill="#000000">id</text>
            <text text-anchor="start" x="65.2861" y="-415.8" font-family="Arial" font-size="14.00" fill="#666666">
                [char(36)]
            </text>
            <polygon fill="none" stroke="#000000" points="43.5,-373 43.5,-403 226.5,-403 226.5,-373 43.5,-373"/>
            <text text-anchor="start" x="50.5" y="-385.8" font-family="Arial" font-size="14.00" fill="#000000">name
            </text>
            <text text-anchor="start" x="89.4102" y="-385.8" font-family="Arial" font-size="14.00" fill="#666666">
                [varchar(32)]
            </text>
            <polygon fill="none" stroke="#000000" points="43.5,-343 43.5,-373 226.5,-373 226.5,-343 43.5,-343"/>
            <text text-anchor="start" x="50.1831" y="-355.8" font-family="Arial" font-size="14.00" fill="#000000">
                display_name
            </text>
            <text text-anchor="start" x="140.4585" y="-355.8" font-family="Arial" font-size="14.00" fill="#666666">
                [varchar(64)]
            </text>
            <polygon fill="none" stroke="#000000" points="43.5,-313 43.5,-343 226.5,-343 226.5,-313 43.5,-313"/>
            <text text-anchor="start" x="50.5" y="-325.8" font-family="Arial" font-size="14.00" fill="#000000">
                password
            </text>
            <text text-anchor="start" x="114.3066" y="-325.8" font-family="Arial" font-size="14.00" fill="#666666">
                [char(128)]
            </text>
            <polygon fill="none" stroke="#000000" points="43.5,-283 43.5,-313 226.5,-313 226.5,-283 43.5,-283"/>
            <text text-anchor="start" x="50.5" y="-295.8" font-family="Arial" font-size="14.00" fill="#000000">salt
            </text>
            <text text-anchor="start" x="76.1758" y="-295.8" font-family="Arial" font-size="14.00" fill="#666666">
                [char(128)]
            </text>
            <polygon fill="none" stroke="#000000" points="43.5,-253 43.5,-283 226.5,-283 226.5,-253 43.5,-253"/>
            <text text-anchor="start" x="50.5" y="-265.8" font-family="Arial" font-size="14.00" fill="#000000">icon
            </text>
            <text text-anchor="start" x="80.0723" y="-265.8" font-family="Arial" font-size="14.00" fill="#666666">
                [char(36)]
            </text>
            <polygon fill="none" stroke="#000000" points="43.5,-223 43.5,-253 226.5,-253 226.5,-223 43.5,-223"/>
            <text text-anchor="start" x="50.5" y="-235.8" font-family="Arial" font-size="14.00" fill="#000000">status
            </text>
            <text text-anchor="start" x="91.7412" y="-235.8" font-family="Arial" font-size="14.00" fill="#666666">
                [tinyint(4)]
            </text>
            <polygon fill="none" stroke="#000000" points="43.5,-193 43.5,-223 226.5,-223 226.5,-193 43.5,-193"/>
            <text text-anchor="start" x="50.5" y="-205.8" font-family="Arial" font-size="14.00" fill="#000000">bot
            </text>
            <text text-anchor="start" x="73.8516" y="-205.8" font-family="Arial" font-size="14.00" fill="#666666">
                [tinyint(1)]
            </text>
            <polygon fill="none" stroke="#000000" points="43.5,-163 43.5,-193 226.5,-193 226.5,-163 43.5,-163"/>
            <text text-anchor="start" x="50.5" y="-175.8" font-family="Arial" font-size="14.00" fill="#000000">role
            </text>
            <text text-anchor="start" x="77.7344" y="-175.8" font-family="Arial" font-size="14.00" fill="#666666">
                [varchar(30)]
            </text>
            <polygon fill="none" stroke="#000000" points="43.5,-133 43.5,-163 226.5,-163 226.5,-133 43.5,-133"/>
            <text text-anchor="start" x="50.5" y="-145.8" font-family="Arial" font-size="14.00" fill="#000000">
                twitter_id
            </text>
            <text text-anchor="start" x="110.4102" y="-145.8" font-family="Arial" font-size="14.00" fill="#666666">
                [varchar(15)]
            </text>
            <polygon fill="none" stroke="#000000" points="43.5,-103 43.5,-133 226.5,-133 226.5,-103 43.5,-103"/>
            <text text-anchor="start" x="50.5" y="-115.8" font-family="Arial" font-size="14.00" fill="#000000">
                last_online
            </text>
            <text text-anchor="start" x="121.3271" y="-115.8" font-family="Arial" font-size="14.00" fill="#666666">
                [timestamp(6)]
            </text>
            <polygon fill="none" stroke="#000000" points="43.5,-73 43.5,-103 226.5,-103 226.5,-73 43.5,-73"/>
            <text text-anchor="start" x="50.5" y="-85.8" font-family="Arial" font-size="14.00" fill="#000000">
                created_at
            </text>
            <text text-anchor="start" x="120.5479" y="-85.8" font-family="Arial" font-size="14.00" fill="#666666">
                [timestamp(6)]
            </text>
            <polygon fill="none" stroke="#000000" points="43.5,-43 43.5,-73 226.5,-73 226.5,-43 43.5,-43"/>
            <text text-anchor="start" x="50.5" y="-55.8" font-family="Arial" font-size="14.00" fill="#000000">
                updated_at
            </text>
            <text text-anchor="start" x="124.458" y="-55.8" font-family="Arial" font-size="14.00" fill="#666666">
                [timestamp(6)]
            </text>
        </g>
        <!-- clips&#45;&gt;users -->
        <g id="edge1" class="edge">
            <title>clips:user_id&#45;&gt;users:id</title>
            <path fill="none" stroke="#000000" d="M330.5092,-724.8618C270.2198,-697.5609 296.117,-418 226.5,-418"/>
            <polygon fill="#000000" stroke="#000000"
                     points="330.7214,-724.9071 339.5582,-731.4004 335.6107,-725.9536 340.5,-727 340.5,-727 340.5,-727 335.6107,-725.9536 341.4418,-722.5996 330.7214,-724.9071 330.7214,-724.9071"/>
            <text text-anchor="start" x="108.5117" y="-736.5" font-family="Arial" font-size="10.00" fill="#000000">
                FOREIGN KEY (user_id) REFERENCES users (id)
            </text>
        </g>
        <!-- messages -->
        <g id="node3" class="node">
            <title>messages</title>
            <polygon fill="#efefef" stroke="transparent"
                     points="330.5,-343 330.5,-377 527.5,-377 527.5,-343 330.5,-343"/>
            <polygon fill="none" stroke="#000000" points="330.5,-343 330.5,-377 527.5,-377 527.5,-343 330.5,-343"/>
            <text text-anchor="start" x="337.4829" y="-356.6" font-family="Arial Bold" font-size="18.00" fill="#000000">
                messages
            </text>
            <text text-anchor="start" x="424.5474" y="-356.6" font-family="Arial" font-size="14.00"
                  fill="#000000"></text>
            <text text-anchor="start" x="428.437" y="-356.6" font-family="Arial" font-size="14.00" fill="#666666">[BASE
                TABLE]
            </text>
            <polygon fill="none" stroke="#000000" points="330.5,-313 330.5,-343 527.5,-343 527.5,-313 330.5,-313"/>
            <text text-anchor="start" x="337.5" y="-325.8" font-family="Arial" font-size="14.00" fill="#000000">id
            </text>
            <text text-anchor="start" x="352.2861" y="-325.8" font-family="Arial" font-size="14.00" fill="#666666">
                [char(36)]
            </text>
            <polygon fill="none" stroke="#000000" points="330.5,-283 330.5,-313 527.5,-313 527.5,-283 330.5,-283"/>
            <text text-anchor="start" x="337.5" y="-295.8" font-family="Arial" font-size="14.00" fill="#000000">
                user_id
            </text>
            <text text-anchor="start" x="387.3066" y="-295.8" font-family="Arial" font-size="14.00" fill="#666666">
                [char(36)]
            </text>
            <polygon fill="none" stroke="#000000" points="330.5,-253 330.5,-283 527.5,-283 527.5,-253 330.5,-253"/>
            <text text-anchor="start" x="337.5" y="-265.8" font-family="Arial" font-size="14.00" fill="#000000">
                channel_id
            </text>
            <text text-anchor="start" x="409.1133" y="-265.8" font-family="Arial" font-size="14.00" fill="#666666">
                [char(36)]
            </text>
            <polygon fill="none" stroke="#000000" points="330.5,-223 330.5,-253 527.5,-253 527.5,-223 330.5,-223"/>
            <text text-anchor="start" x="337.5" y="-235.8" font-family="Arial" font-size="14.00" fill="#000000">text
            </text>
            <text text-anchor="start" x="363.9551" y="-235.8" font-family="Arial" font-size="14.00" fill="#666666">
                [text]
            </text>
            <polygon fill="none" stroke="#000000" points="330.5,-193 330.5,-223 527.5,-223 527.5,-193 330.5,-193"/>
            <text text-anchor="start" x="337.5" y="-205.8" font-family="Arial" font-size="14.00" fill="#000000">
                created_at
            </text>
            <text text-anchor="start" x="407.5479" y="-205.8" font-family="Arial" font-size="14.00" fill="#666666">
                [timestamp(6)]
            </text>
            <polygon fill="none" stroke="#000000" points="330.5,-163 330.5,-193 527.5,-193 527.5,-163 330.5,-163"/>
            <text text-anchor="start" x="337.5" y="-175.8" font-family="Arial" font-size="14.00" fill="#000000">
                updated_at
            </text>
            <text text-anchor="start" x="411.458" y="-175.8" font-family="Arial" font-size="14.00" fill="#666666">
                [timestamp(6)]
            </text>
            <polygon fill="none" stroke="#000000" points="330.5,-133 330.5,-163 527.5,-163 527.5,-133 330.5,-133"/>
            <text text-anchor="start" x="337.5" y="-145.8" font-family="Arial" font-size="14.00" fill="#000000">
                deleted_at
            </text>
            <text text-anchor="start" x="406.7822" y="-145.8" font-family="Arial" font-size="14.00" fill="#666666">
                [timestamp(6)]
            </text>
        </g>
        <!-- clips&#45;&gt;messages -->
        <g id="edge2" class="edge">
            <title>clips:message_id&#45;&gt;messages:id</title>
            <path fill="none" stroke="#000000" d="M332.1015,-691.4974C298.3061,-645.595 292.4489,-328 330.5,-328"/>
            <polygon fill="#000000" stroke="#000000"
                     points="332.1354,-691.5196 338.0338,-700.7641 336.3177,-694.2598 340.5,-697 340.5,-697 340.5,-697 336.3177,-694.2598 342.9662,-693.2359 332.1354,-691.5196 332.1354,-691.5196"/>
            <text text-anchor="start" x="65.3887" y="-706.5" font-family="Arial" font-size="10.00" fill="#000000">
                FOREIGN KEY (message_id) REFERENCES messages (id)
            </text>
        </g>
        <!-- clip_folders -->
        <g id="node4" class="node">
            <title>clip_folders</title>
            <polygon fill="#efefef" stroke="transparent"
                     points="631.5,-313 631.5,-347 842.5,-347 842.5,-313 631.5,-313"/>
            <polygon fill="none" stroke="#000000" points="631.5,-313 631.5,-347 842.5,-347 842.5,-313 631.5,-313"/>
            <text text-anchor="start" x="638.5" y="-326.6" font-family="Arial Bold" font-size="18.00" fill="#000000">
                clip_folders
            </text>
            <text text-anchor="start" x="739.5303" y="-326.6" font-family="Arial" font-size="14.00"
                  fill="#000000"></text>
            <text text-anchor="start" x="743.4199" y="-326.6" font-family="Arial" font-size="14.00" fill="#666666">[BASE
                TABLE]
            </text>
            <polygon fill="none" stroke="#000000" points="631.5,-283 631.5,-313 842.5,-313 842.5,-283 631.5,-283"/>
            <text text-anchor="start" x="638.5" y="-295.8" font-family="Arial" font-size="14.00" fill="#000000">id
            </text>
            <text text-anchor="start" x="653.2861" y="-295.8" font-family="Arial" font-size="14.00" fill="#666666">
                [char(36)]
            </text>
            <polygon fill="none" stroke="#000000" points="631.5,-253 631.5,-283 842.5,-283 842.5,-253 631.5,-253"/>
            <text text-anchor="start" x="638.5" y="-265.8" font-family="Arial" font-size="14.00" fill="#000000">
                user_id
            </text>
            <text text-anchor="start" x="688.3066" y="-265.8" font-family="Arial" font-size="14.00" fill="#666666">
                [char(36)]
            </text>
            <polygon fill="none" stroke="#000000" points="631.5,-223 631.5,-253 842.5,-253 842.5,-223 631.5,-223"/>
            <text text-anchor="start" x="638.5" y="-235.8" font-family="Arial" font-size="14.00" fill="#000000">name
            </text>
            <text text-anchor="start" x="677.4102" y="-235.8" font-family="Arial" font-size="14.00" fill="#666666">
                [varchar(30)]
            </text>
            <polygon fill="none" stroke="#000000" points="631.5,-193 631.5,-223 842.5,-223 842.5,-193 631.5,-193"/>
            <text text-anchor="start" x="638.5" y="-205.8" font-family="Arial" font-size="14.00" fill="#000000">
                created_at
            </text>
            <text text-anchor="start" x="708.5479" y="-205.8" font-family="Arial" font-size="14.00" fill="#666666">
                [timestamp(6)]
            </text>
            <polygon fill="none" stroke="#000000" points="631.5,-163 631.5,-193 842.5,-193 842.5,-163 631.5,-163"/>
            <text text-anchor="start" x="638.5" y="-175.8" font-family="Arial" font-size="14.00" fill="#000000">
                updated_at
            </text>
            <text text-anchor="start" x="712.458" y="-175.8" font-family="Arial" font-size="14.00" fill="#666666">
                [timestamp(6)]
            </text>
        </g>
        <!-- clips&#45;&gt;clip_folders -->
        <g id="edge3" class="edge">
            <title>clips:folder_id&#45;&gt;clip_folders:id</title>
            <path fill="none" stroke="#000000"
                  d="M527.7166,-666.3999C589.1664,-658.6823 557.8457,-577.9935 579.5,-510 608.9401,-417.5596 534.4848,-298 631.5,-298"/>
            <polygon fill="#000000" stroke="#000000"
                     points="527.4828,-666.4136 517.2361,-662.5077 522.4914,-666.7068 517.5,-667 517.5,-667 517.5,-667 522.4914,-666.7068 517.7639,-671.4923 527.4828,-666.4136 527.4828,-666.4136"/>
            <text text-anchor="start" x="524.667" y="-676.5" font-family="Arial" font-size="10.00" fill="#000000">
                FOREIGN KEY (folder_id) REFERENCES clip_folders (id)
            </text>
        </g>
    </g>
</svg>
