<?xml version="1.0" encoding="UTF-8" standalone="no"?>
<!DOCTYPE svg PUBLIC "-//W3C//DTD SVG 1.1//EN"
 "http://www.w3.org/Graphics/SVG/1.1/DTD/svg11.dtd">
<!-- Generated by graphviz version 2.40.1 (20161225.0304)
 -->
<!-- Title: clip_folder_messages Pages: 1 -->
<svg width="846pt" height="592pt"
 viewBox="0.00 0.00 846.00 592.00" xmlns="http://www.w3.org/2000/svg" xmlns:xlink="http://www.w3.org/1999/xlink">
<g id="graph0" class="graph" transform="scale(1 1) rotate(0) translate(4 588)">
<title>clip_folder_messages</title>
<polygon fill="#ffffff" stroke="transparent" points="-4,4 -4,-588 842,-588 842,4 -4,4"/>
<!-- clip_folder_messages -->
<g id="node1" class="node">
<title>clip_folder_messages</title>
<polygon fill="#efefef" stroke="transparent" points="271,-502.5 271,-537.5 556,-537.5 556,-502.5 271,-502.5"/>
<polygon fill="none" stroke="#000000" points="271,-502.5 271,-537.5 556,-537.5 556,-502.5 271,-502.5"/>
<text text-anchor="start" x="277.8575" y="-515.3" font-family="Arial Bold" font-size="18.00" fill="#000000">clip_folder_messages</text>
<text text-anchor="start" x="451.8887" y="-515.3" font-family="Arial" font-size="14.00" fill="#000000"> </text>
<text text-anchor="start" x="455.7793" y="-515.3" font-family="Arial" font-size="14.00" fill="#666666">[BASE TABLE]</text>
<polygon fill="none" stroke="#000000" points="271,-472.5 271,-502.5 556,-502.5 556,-472.5 271,-472.5"/>
<text text-anchor="start" x="278" y="-483.9" font-family="Arial" font-size="14.00" fill="#000000">folder_id </text>
<text text-anchor="start" x="335.568" y="-483.9" font-family="Arial" font-size="14.00" fill="#666666">[char(36)]</text>
<polygon fill="none" stroke="#000000" points="271,-442.5 271,-472.5 556,-472.5 556,-442.5 271,-442.5"/>
<text text-anchor="start" x="278" y="-453.9" font-family="Arial" font-size="14.00" fill="#000000">message_id </text>
<text text-anchor="start" x="357.3534" y="-453.9" font-family="Arial" font-size="14.00" fill="#666666">[char(36)]</text>
<polygon fill="none" stroke="#000000" points="271,-412.5 271,-442.5 556,-442.5 556,-412.5 271,-412.5"/>
<text text-anchor="start" x="278" y="-423.9" font-family="Arial" font-size="14.00" fill="#000000">created_at </text>
<text text-anchor="start" x="348.028" y="-423.9" font-family="Arial" font-size="14.00" fill="#666666">[datetime(6)]</text>
<polygon fill="none" stroke="#000000" stroke-width="3" points="269,-411.5 269,-539.5 557,-539.5 557,-411.5 269,-411.5"/>
</g>
<!-- clip_folders -->
<g id="node2" class="node">
<title>clip_folders</title>
<polygon fill="#efefef" stroke="transparent" points="162,-222.5 162,-257.5 364,-257.5 364,-222.5 162,-222.5"/>
<polygon fill="none" stroke="#000000" points="162,-222.5 162,-257.5 364,-257.5 364,-222.5 162,-222.5"/>
<text text-anchor="start" x="168.8691" y="-235.3" font-family="Arial Bold" font-size="18.00" fill="#000000">clip_folders</text>
<text text-anchor="start" x="259.8771" y="-235.3" font-family="Arial" font-size="14.00" fill="#000000"> </text>
<text text-anchor="start" x="263.7677" y="-235.3" font-family="Arial" font-size="14.00" fill="#666666">[BASE TABLE]</text>
<polygon fill="none" stroke="#000000" points="162,-192.5 162,-222.5 364,-222.5 364,-192.5 162,-192.5"/>
<text text-anchor="start" x="169" y="-203.9" font-family="Arial" font-size="14.00" fill="#000000">id </text>
<text text-anchor="start" x="183.7798" y="-203.9" font-family="Arial" font-size="14.00" fill="#666666">[char(36)]</text>
<polygon fill="none" stroke="#000000" points="162,-162.5 162,-192.5 364,-192.5 364,-162.5 162,-162.5"/>
<text text-anchor="start" x="169" y="-173.9" font-family="Arial" font-size="14.00" fill="#000000">name </text>
<text text-anchor="start" x="207.899" y="-173.9" font-family="Arial" font-size="14.00" fill="#666666">[varchar(30)]</text>
<polygon fill="none" stroke="#000000" points="162,-132.5 162,-162.5 364,-162.5 364,-132.5 162,-132.5"/>
<text text-anchor="start" x="169" y="-143.9" font-family="Arial" font-size="14.00" fill="#000000">description </text>
<text text-anchor="start" x="240.568" y="-143.9" font-family="Arial" font-size="14.00" fill="#666666">[text]</text>
<polygon fill="none" stroke="#000000" points="162,-102.5 162,-132.5 364,-132.5 364,-102.5 162,-102.5"/>
<text text-anchor="start" x="169" y="-113.9" font-family="Arial" font-size="14.00" fill="#000000">owner_id </text>
<text text-anchor="start" x="229.6774" y="-113.9" font-family="Arial" font-size="14.00" fill="#666666">[char(36)]</text>
<polygon fill="none" stroke="#000000" points="162,-72.5 162,-102.5 364,-102.5 364,-72.5 162,-72.5"/>
<text text-anchor="start" x="169" y="-83.9" font-family="Arial" font-size="14.00" fill="#000000">created_at </text>
<text text-anchor="start" x="239.028" y="-83.9" font-family="Arial" font-size="14.00" fill="#666666">[datetime(6)]</text>
</g>
<!-- clip_folder_messages&#45;&gt;clip_folders -->
<g id="edge1" class="edge">
<title>clip_folder_messages:folder_id&#45;&gt;clip_folders:id</title>
<path fill="none" stroke="#000000" d="M260.897,-486.4527C221.4976,-477.3712 248.1494,-411.2367 271,-367 294.261,-321.9688 340.739,-346.0312 364,-301 383.0715,-264.0793 405.5556,-207.5 364,-207.5"/>
<polygon fill="#000000" stroke="#000000" points="261.0533,-486.4688 270.536,-491.976 266.0267,-486.9844 271,-487.5 271,-487.5 271,-487.5 266.0267,-486.9844 271.464,-483.024 261.0533,-486.4688 261.0533,-486.4688"/>
<text text-anchor="start" x="7.11" y="-497.5" font-family="Arial" font-size="10.00" fill="#000000">FOREIGN KEY (folder_id) REFERENCES clip_folders (id)</text>
</g>
<!-- messages -->
<g id="node3" class="node">
<title>messages</title>
<polygon fill="#efefef" stroke="transparent" points="469,-252.5 469,-287.5 662,-287.5 662,-252.5 469,-252.5"/>
<polygon fill="none" stroke="#000000" points="469,-252.5 469,-287.5 662,-287.5 662,-252.5 469,-252.5"/>
<text text-anchor="start" x="475.8646" y="-265.3" font-family="Arial Bold" font-size="18.00" fill="#000000">messages</text>
<text text-anchor="start" x="557.8816" y="-265.3" font-family="Arial" font-size="14.00" fill="#000000"> </text>
<text text-anchor="start" x="561.7722" y="-265.3" font-family="Arial" font-size="14.00" fill="#666666">[BASE TABLE]</text>
<polygon fill="none" stroke="#000000" points="469,-222.5 469,-252.5 662,-252.5 662,-222.5 469,-222.5"/>
<text text-anchor="start" x="476" y="-233.9" font-family="Arial" font-size="14.00" fill="#000000">id </text>
<text text-anchor="start" x="490.7798" y="-233.9" font-family="Arial" font-size="14.00" fill="#666666">[char(36)]</text>
<polygon fill="none" stroke="#000000" points="469,-192.5 469,-222.5 662,-222.5 662,-192.5 469,-192.5"/>
<text text-anchor="start" x="476" y="-203.9" font-family="Arial" font-size="14.00" fill="#000000">user_id </text>
<text text-anchor="start" x="525.7882" y="-203.9" font-family="Arial" font-size="14.00" fill="#666666">[char(36)]</text>
<polygon fill="none" stroke="#000000" points="469,-162.5 469,-192.5 662,-192.5 662,-162.5 469,-162.5"/>
<text text-anchor="start" x="476" y="-173.9" font-family="Arial" font-size="14.00" fill="#000000">channel_id </text>
<text text-anchor="start" x="547.582" y="-173.9" font-family="Arial" font-size="14.00" fill="#666666">[char(36)]</text>
<polygon fill="none" stroke="#000000" points="469,-132.5 469,-162.5 662,-162.5 662,-132.5 469,-132.5"/>
<text text-anchor="start" x="476" y="-143.9" font-family="Arial" font-size="14.00" fill="#000000">text </text>
<text text-anchor="start" x="502.4544" y="-143.9" font-family="Arial" font-size="14.00" fill="#666666">[text]</text>
<polygon fill="none" stroke="#000000" points="469,-102.5 469,-132.5 662,-132.5 662,-102.5 469,-102.5"/>
<text text-anchor="start" x="476" y="-113.9" font-family="Arial" font-size="14.00" fill="#000000">created_at </text>
<text text-anchor="start" x="546.028" y="-113.9" font-family="Arial" font-size="14.00" fill="#666666">[datetime(6)]</text>
<polygon fill="none" stroke="#000000" points="469,-72.5 469,-102.5 662,-102.5 662,-72.5 469,-72.5"/>
<text text-anchor="start" x="476" y="-83.9" font-family="Arial" font-size="14.00" fill="#000000">updated_at </text>
<text text-anchor="start" x="549.9326" y="-83.9" font-family="Arial" font-size="14.00" fill="#666666">[datetime(6)]</text>
<polygon fill="none" stroke="#000000" points="469,-42.5 469,-72.5 662,-72.5 662,-42.5 469,-42.5"/>
<text text-anchor="start" x="476" y="-53.9" font-family="Arial" font-size="14.00" fill="#000000">deleted_at </text>
<text text-anchor="start" x="545.2566" y="-53.9" font-family="Arial" font-size="14.00" fill="#666666">[datetime(6)]</text>
</g>
<!-- clip_folder_messages&#45;&gt;messages -->
<g id="edge2" class="edge">
<title>clip_folder_messages:message_id&#45;&gt;messages:id</title>
<path fill="none" stroke="#000000" d="M566.1718,-455.9426C592.6893,-446.5806 576.1694,-397.174 556,-367 532.7452,-332.2103 492.2548,-365.7897 469,-331 445.9068,-296.452 427.4444,-237.5 469,-237.5"/>
<polygon fill="#000000" stroke="#000000" points="565.8848,-455.9865 555.3189,-453.0518 560.9424,-456.7432 556,-457.5 556,-457.5 556,-457.5 560.9424,-456.7432 556.6811,-461.9482 565.8848,-455.9865 565.8848,-455.9865"/>
<text text-anchor="start" x="562.827" y="-467.5" font-family="Arial" font-size="10.00" fill="#000000">FOREIGN KEY (message_id) REFERENCES messages (id)</text>
</g>
</g>
</svg>
10.00" fill="#000000">FOREIGN KEY (message_id) REFERENCES messages (id)</text>
</g>
</g>
</svg>
