<?xml version="1.0" encoding="UTF-8" standalone="no"?>
<!DOCTYPE svg PUBLIC "-//W3C//DTD SVG 1.1//EN"
 "http://www.w3.org/Graphics/SVG/1.1/DTD/svg11.dtd">
<!-- Generated by graphviz version 2.40.1 (20161225.0304)
 -->
<!-- Title: clip_folders Pages: 1 -->
<svg width="769pt" height="1019pt"
 viewBox="0.00 0.00 769.00 1019.00" xmlns="http://www.w3.org/2000/svg" xmlns:xlink="http://www.w3.org/1999/xlink">
<g id="graph0" class="graph" transform="scale(1 1) rotate(0) translate(4 1015)">
<title>clip_folders</title>
<polygon fill="#ffffff" stroke="transparent" points="-4,4 -4,-1015 765,-1015 765,4 -4,4"/>
<!-- clip_folders -->
<g id="node1" class="node">
<title>clip_folders</title>
<polygon fill="#efefef" stroke="transparent" points="247,-682.5 247,-717.5 449,-717.5 449,-682.5 247,-682.5"/>
<polygon fill="none" stroke="#000000" points="247,-682.5 247,-717.5 449,-717.5 449,-682.5 247,-682.5"/>
<text text-anchor="start" x="253.8691" y="-695.3" font-family="Arial Bold" font-size="18.00" fill="#000000">clip_folders</text>
<text text-anchor="start" x="344.8771" y="-695.3" font-family="Arial" font-size="14.00" fill="#000000"> </text>
<text text-anchor="start" x="348.7677" y="-695.3" font-family="Arial" font-size="14.00" fill="#666666">[BASE TABLE]</text>
<polygon fill="none" stroke="#000000" points="247,-652.5 247,-682.5 449,-682.5 449,-652.5 247,-652.5"/>
<text text-anchor="start" x="254" y="-663.9" font-family="Arial" font-size="14.00" fill="#000000">id </text>
<text text-anchor="start" x="268.7798" y="-663.9" font-family="Arial" font-size="14.00" fill="#666666">[char(36)]</text>
<polygon fill="none" stroke="#000000" points="247,-622.5 247,-652.5 449,-652.5 449,-622.5 247,-622.5"/>
<text text-anchor="start" x="254" y="-633.9" font-family="Arial" font-size="14.00" fill="#000000">name </text>
<text text-anchor="start" x="292.899" y="-633.9" font-family="Arial" font-size="14.00" fill="#666666">[varchar(30)]</text>
<polygon fill="none" stroke="#000000" points="247,-592.5 247,-622.5 449,-622.5 449,-592.5 247,-592.5"/>
<text text-anchor="start" x="254" y="-603.9" font-family="Arial" font-size="14.00" fill="#000000">description </text>
<text text-anchor="start" x="325.568" y="-603.9" font-family="Arial" font-size="14.00" fill="#666666">[text]</text>
<polygon fill="none" stroke="#000000" points="247,-562.5 247,-592.5 449,-592.5 449,-562.5 247,-562.5"/>
<text text-anchor="start" x="254" y="-573.9" font-family="Arial" font-size="14.00" fill="#000000">owner_id </text>
<text text-anchor="start" x="314.6774" y="-573.9" font-family="Arial" font-size="14.00" fill="#666666">[char(36)]</text>
<polygon fill="none" stroke="#000000" points="247,-532.5 247,-562.5 449,-562.5 449,-532.5 247,-532.5"/>
<text text-anchor="start" x="254" y="-543.9" font-family="Arial" font-size="14.00" fill="#000000">created_at </text>
<text text-anchor="start" x="324.028" y="-543.9" font-family="Arial" font-size="14.00" fill="#666666">[datetime(6)]</text>
<polygon fill="none" stroke="#000000" stroke-width="3" points="245.5,-531.5 245.5,-719.5 450.5,-719.5 450.5,-531.5 245.5,-531.5"/>
</g>
<!-- users -->
<g id="node3" class="node">
<title>users</title>
<polygon fill="#efefef" stroke="transparent" points="256,-372.5 256,-407.5 439,-407.5 439,-372.5 256,-372.5"/>
<polygon fill="none" stroke="#000000" points="256,-372.5 256,-407.5 439,-407.5 439,-372.5 256,-372.5"/>
<text text-anchor="start" x="276.8708" y="-385.3" font-family="Arial Bold" font-size="18.00" fill="#000000">users</text>
<text text-anchor="start" x="320.8754" y="-385.3" font-family="Arial" font-size="14.00" fill="#000000"> </text>
<text text-anchor="start" x="324.766" y="-385.3" font-family="Arial" font-size="14.00" fill="#666666">[BASE TABLE]</text>
<polygon fill="none" stroke="#000000" points="256,-342.5 256,-372.5 439,-372.5 439,-342.5 256,-342.5"/>
<text text-anchor="start" x="263" y="-353.9" font-family="Arial" font-size="14.00" fill="#000000">id </text>
<text text-anchor="start" x="277.7798" y="-353.9" font-family="Arial" font-size="14.00" fill="#666666">[char(36)]</text>
<polygon fill="none" stroke="#000000" points="256,-312.5 256,-342.5 439,-342.5 439,-312.5 256,-312.5"/>
<text text-anchor="start" x="263" y="-323.9" font-family="Arial" font-size="14.00" fill="#000000">name </text>
<text text-anchor="start" x="301.899" y="-323.9" font-family="Arial" font-size="14.00" fill="#666666">[varchar(32)]</text>
<polygon fill="none" stroke="#000000" points="256,-282.5 256,-312.5 439,-312.5 439,-282.5 256,-282.5"/>
<text text-anchor="start" x="262.7104" y="-293.9" font-family="Arial" font-size="14.00" fill="#000000">display_name </text>
<text text-anchor="start" x="352.953" y="-293.9" font-family="Arial" font-size="14.00" fill="#666666">[varchar(64)]</text>
<polygon fill="none" stroke="#000000" points="256,-252.5 256,-282.5 439,-282.5 439,-252.5 256,-252.5"/>
<text text-anchor="start" x="263" y="-263.9" font-family="Arial" font-size="14.00" fill="#000000">password </text>
<text text-anchor="start" x="326.7882" y="-263.9" font-family="Arial" font-size="14.00" fill="#666666">[char(128)]</text>
<polygon fill="none" stroke="#000000" points="256,-222.5 256,-252.5 439,-252.5 439,-222.5 256,-222.5"/>
<text text-anchor="start" x="263" y="-233.9" font-family="Arial" font-size="14.00" fill="#000000">salt </text>
<text text-anchor="start" x="288.6704" y="-233.9" font-family="Arial" font-size="14.00" fill="#666666">[char(128)]</text>
<polygon fill="none" stroke="#000000" points="256,-192.5 256,-222.5 439,-222.5 439,-192.5 256,-192.5"/>
<text text-anchor="start" x="263" y="-203.9" font-family="Arial" font-size="14.00" fill="#000000">icon </text>
<text text-anchor="start" x="292.5624" y="-203.9" font-family="Arial" font-size="14.00" fill="#666666">[char(36)]</text>
<polygon fill="none" stroke="#000000" points="256,-162.5 256,-192.5 439,-192.5 439,-162.5 256,-162.5"/>
<text text-anchor="start" x="263" y="-173.9" font-family="Arial" font-size="14.00" fill="#000000">status </text>
<text text-anchor="start" x="304.237" y="-173.9" font-family="Arial" font-size="14.00" fill="#666666">[tinyint(4)]</text>
<polygon fill="none" stroke="#000000" points="256,-132.5 256,-162.5 439,-162.5 439,-132.5 256,-132.5"/>
<text text-anchor="start" x="263" y="-143.9" font-family="Arial" font-size="14.00" fill="#000000">bot </text>
<text text-anchor="start" x="286.3464" y="-143.9" font-family="Arial" font-size="14.00" fill="#666666">[tinyint(1)]</text>
<polygon fill="none" stroke="#000000" points="256,-102.5 256,-132.5 439,-132.5 439,-102.5 256,-102.5"/>
<text text-anchor="start" x="263" y="-113.9" font-family="Arial" font-size="14.00" fill="#000000">role </text>
<text text-anchor="start" x="290.223" y="-113.9" font-family="Arial" font-size="14.00" fill="#666666">[varchar(30)]</text>
<polygon fill="none" stroke="#000000" points="256,-72.5 256,-102.5 439,-102.5 439,-72.5 256,-72.5"/>
<text text-anchor="start" x="263" y="-83.9" font-family="Arial" font-size="14.00" fill="#000000">created_at </text>
<text text-anchor="start" x="333.028" y="-83.9" font-family="Arial" font-size="14.00" fill="#666666">[datetime(6)]</text>
<polygon fill="none" stroke="#000000" points="256,-42.5 256,-72.5 439,-72.5 439,-42.5 256,-42.5"/>
<text text-anchor="start" x="263" y="-53.9" font-family="Arial" font-size="14.00" fill="#000000">updated_at </text>
<text text-anchor="start" x="336.9326" y="-53.9" font-family="Arial" font-size="14.00" fill="#666666">[datetime(6)]</text>
</g>
<!-- clip_folders&#45;&gt;users -->
<g id="edge2" class="edge">
<title>clip_folders:owner_id&#45;&gt;users:id</title>
<path fill="none" stroke="#000000" d="M237.0954,-576.0025C209.6011,-566.586 223.7208,-515.0497 247,-487 302.4466,-420.1909 383.5534,-517.8091 439,-451 465.5389,-419.0226 480.5556,-357.5 439,-357.5"/>
<polygon fill="#000000" stroke="#000000" points="237.1124,-576.005 246.3272,-581.9494 242.0562,-576.7525 247,-577.5 247,-577.5 247,-577.5 242.0562,-576.7525 247.6728,-573.0506 237.1124,-576.005 237.1124,-576.005"/>
<text text-anchor="start" x="7.056" y="-587.5" font-family="Arial" font-size="10.00" fill="#000000">FOREIGN KEY (owner_id) REFERENCES users (id)</text>
</g>
<!-- clip_folder_messages -->
<g id="node2" class="node">
<title>clip_folder_messages</title>
<polygon fill="#efefef" stroke="transparent" points="205,-932.5 205,-967.5 490,-967.5 490,-932.5 205,-932.5"/>
<polygon fill="none" stroke="#000000" points="205,-932.5 205,-967.5 490,-967.5 490,-932.5 205,-932.5"/>
<text text-anchor="start" x="211.8575" y="-945.3" font-family="Arial Bold" font-size="18.00" fill="#000000">clip_folder_messages</text>
<text text-anchor="start" x="385.8887" y="-945.3" font-family="Arial" font-size="14.00" fill="#000000"> </text>
<text text-anchor="start" x="389.7793" y="-945.3" font-family="Arial" font-size="14.00" fill="#666666">[BASE TABLE]</text>
<polygon fill="none" stroke="#000000" points="205,-902.5 205,-932.5 490,-932.5 490,-902.5 205,-902.5"/>
<text text-anchor="start" x="212" y="-913.9" font-family="Arial" font-size="14.00" fill="#000000">folder_id </text>
<text text-anchor="start" x="269.568" y="-913.9" font-family="Arial" font-size="14.00" fill="#666666">[char(36)]</text>
<polygon fill="none" stroke="#000000" points="205,-872.5 205,-902.5 490,-902.5 490,-872.5 205,-872.5"/>
<text text-anchor="start" x="212" y="-883.9" font-family="Arial" font-size="14.00" fill="#000000">message_id </text>
<text text-anchor="start" x="291.3534" y="-883.9" font-family="Arial" font-size="14.00" fill="#666666">[char(36)]</text>
<polygon fill="none" stroke="#000000" points="205,-842.5 205,-872.5 490,-872.5 490,-842.5 205,-842.5"/>
<text text-anchor="start" x="212" y="-853.9" font-family="Arial" font-size="14.00" fill="#000000">clipped_at </text>
<text text-anchor="start" x="279.69" y="-853.9" font-family="Arial" font-size="14.00" fill="#666666">[datetime(6)]</text>
</g>
<!-- clip_folder_messages&#45;&gt;clip_folders -->
<g id="edge1" class="edge">
<title>clip_folder_messages:folder_id&#45;&gt;clip_folders:id</title>
<path fill="none" stroke="#000000" d="M499.9914,-916.3842C539.5966,-906.7268 521.7151,-836.7598 490,-800 418.6798,-717.3354 318.3202,-846.6646 247,-764 218.9832,-731.5267 204.1111,-667.5 247,-667.5"/>
<polygon fill="#000000" stroke="#000000" points="499.9382,-916.39 489.5005,-913.0278 494.9691,-916.945 490,-917.5 490,-917.5 490,-917.5 494.9691,-916.945 490.4995,-921.9722 499.9382,-916.39 499.9382,-916.39"/>
<text text-anchor="start" x="497.11" y="-927.5" font-family="Arial" font-size="10.00" fill="#000000">FOREIGN KEY (folder_id) REFERENCES clip_folders (id)</text>
</g>
</g>
</svg>
