<?xml version="1.0" encoding="UTF-8" standalone="no"?>
<!DOCTYPE svg PUBLIC "-//W3C//DTD SVG 1.1//EN"
        "http://www.w3.org/Graphics/SVG/1.1/DTD/svg11.dtd">
<!-- Generated by graphviz version 2.40.1 (20161225.0304)
 -->
<!-- Title: clip_folders Pages: 1 -->
<svg width="519pt" height="1166pt"
     viewBox="0.00 0.00 518.50 1166.00" xmlns="http://www.w3.org/2000/svg">
    <g id="graph0" class="graph" transform="scale(1 1) rotate(0) translate(4 1162)">
        <title>clip_folders</title>
        <polygon fill="#ffffff" stroke="transparent" points="-4,4 -4,-1162 514.5,-1162 514.5,4 -4,4"/>
        <!-- clip_folders -->
        <g id="node1" class="node">
            <title>clip_folders</title>
            <polygon fill="#efefef" stroke="transparent" points="254,-742 254,-776 465,-776 465,-742 254,-742"/>
            <polygon fill="none" stroke="#000000" points="254,-742 254,-776 465,-776 465,-742 254,-742"/>
            <text text-anchor="start" x="261" y="-755.6" font-family="Arial Bold" font-size="18.00" fill="#000000">
                clip_folders
            </text>
            <text text-anchor="start" x="362.0303" y="-755.6" font-family="Arial" font-size="14.00"
                  fill="#000000"></text>
            <text text-anchor="start" x="365.9199" y="-755.6" font-family="Arial" font-size="14.00" fill="#666666">[BASE
                TABLE]
            </text>
            <polygon fill="none" stroke="#000000" points="254,-712 254,-742 465,-742 465,-712 254,-712"/>
            <text text-anchor="start" x="261" y="-724.8" font-family="Arial" font-size="14.00" fill="#000000">id</text>
            <text text-anchor="start" x="275.7861" y="-724.8" font-family="Arial" font-size="14.00" fill="#666666">
                [char(36)]
            </text>
            <polygon fill="none" stroke="#000000" points="254,-682 254,-712 465,-712 465,-682 254,-682"/>
            <text text-anchor="start" x="261" y="-694.8" font-family="Arial" font-size="14.00" fill="#000000">user_id
            </text>
            <text text-anchor="start" x="310.8066" y="-694.8" font-family="Arial" font-size="14.00" fill="#666666">
                [char(36)]
            </text>
            <polygon fill="none" stroke="#000000" points="254,-652 254,-682 465,-682 465,-652 254,-652"/>
            <text text-anchor="start" x="261" y="-664.8" font-family="Arial" font-size="14.00" fill="#000000">name
            </text>
            <text text-anchor="start" x="299.9102" y="-664.8" font-family="Arial" font-size="14.00" fill="#666666">
                [varchar(30)]
            </text>
            <polygon fill="none" stroke="#000000" points="254,-622 254,-652 465,-652 465,-622 254,-622"/>
            <text text-anchor="start" x="261" y="-634.8" font-family="Arial" font-size="14.00" fill="#000000">
                created_at
            </text>
            <text text-anchor="start" x="331.0479" y="-634.8" font-family="Arial" font-size="14.00" fill="#666666">
                [timestamp(6)]
            </text>
            <polygon fill="none" stroke="#000000" points="254,-592 254,-622 465,-622 465,-592 254,-592"/>
            <text text-anchor="start" x="261" y="-604.8" font-family="Arial" font-size="14.00" fill="#000000">
                updated_at
            </text>
            <text text-anchor="start" x="334.958" y="-604.8" font-family="Arial" font-size="14.00" fill="#666666">
                [timestamp(6)]
            </text>
            <polygon fill="none" stroke="#000000" stroke-width="3"
                     points="252,-590.5 252,-777.5 466,-777.5 466,-590.5 252,-590.5"/>
        </g>
        <!-- users -->
        <g id="node3" class="node">
            <title>users</title>
            <polygon fill="#efefef" stroke="transparent" points="268,-433 268,-467 451,-467 451,-433 268,-433"/>
            <polygon fill="none" stroke="#000000" points="268,-433 268,-467 451,-467 451,-433 268,-433"/>
            <text text-anchor="start" x="287.499" y="-446.6" font-family="Arial Bold" font-size="18.00" fill="#000000">
                users
            </text>
            <text text-anchor="start" x="335.5313" y="-446.6" font-family="Arial" font-size="14.00"
                  fill="#000000"></text>
            <text text-anchor="start" x="339.4209" y="-446.6" font-family="Arial" font-size="14.00" fill="#666666">[BASE
                TABLE]
            </text>
            <polygon fill="none" stroke="#000000" points="268,-403 268,-433 451,-433 451,-403 268,-403"/>
            <text text-anchor="start" x="275" y="-415.8" font-family="Arial" font-size="14.00" fill="#000000">id</text>
            <text text-anchor="start" x="289.7861" y="-415.8" font-family="Arial" font-size="14.00" fill="#666666">
                [char(36)]
            </text>
            <polygon fill="none" stroke="#000000" points="268,-373 268,-403 451,-403 451,-373 268,-373"/>
            <text text-anchor="start" x="275" y="-385.8" font-family="Arial" font-size="14.00" fill="#000000">name
            </text>
            <text text-anchor="start" x="313.9102" y="-385.8" font-family="Arial" font-size="14.00" fill="#666666">
                [varchar(32)]
            </text>
            <polygon fill="none" stroke="#000000" points="268,-343 268,-373 451,-373 451,-343 268,-343"/>
            <text text-anchor="start" x="274.6831" y="-355.8" font-family="Arial" font-size="14.00" fill="#000000">
                display_name
            </text>
            <text text-anchor="start" x="364.9585" y="-355.8" font-family="Arial" font-size="14.00" fill="#666666">
                [varchar(64)]
            </text>
            <polygon fill="none" stroke="#000000" points="268,-313 268,-343 451,-343 451,-313 268,-313"/>
            <text text-anchor="start" x="275" y="-325.8" font-family="Arial" font-size="14.00" fill="#000000">password
            </text>
            <text text-anchor="start" x="338.8066" y="-325.8" font-family="Arial" font-size="14.00" fill="#666666">
                [char(128)]
            </text>
            <polygon fill="none" stroke="#000000" points="268,-283 268,-313 451,-313 451,-283 268,-283"/>
            <text text-anchor="start" x="275" y="-295.8" font-family="Arial" font-size="14.00" fill="#000000">salt
            </text>
            <text text-anchor="start" x="300.6758" y="-295.8" font-family="Arial" font-size="14.00" fill="#666666">
                [char(128)]
            </text>
            <polygon fill="none" stroke="#000000" points="268,-253 268,-283 451,-283 451,-253 268,-253"/>
            <text text-anchor="start" x="275" y="-265.8" font-family="Arial" font-size="14.00" fill="#000000">icon
            </text>
            <text text-anchor="start" x="304.5723" y="-265.8" font-family="Arial" font-size="14.00" fill="#666666">
                [char(36)]
            </text>
            <polygon fill="none" stroke="#000000" points="268,-223 268,-253 451,-253 451,-223 268,-223"/>
            <text text-anchor="start" x="275" y="-235.8" font-family="Arial" font-size="14.00" fill="#000000">status
            </text>
            <text text-anchor="start" x="316.2412" y="-235.8" font-family="Arial" font-size="14.00" fill="#666666">
                [tinyint(4)]
            </text>
            <polygon fill="none" stroke="#000000" points="268,-193 268,-223 451,-223 451,-193 268,-193"/>
            <text text-anchor="start" x="275" y="-205.8" font-family="Arial" font-size="14.00" fill="#000000">bot</text>
            <text text-anchor="start" x="298.3516" y="-205.8" font-family="Arial" font-size="14.00" fill="#666666">
                [tinyint(1)]
            </text>
            <polygon fill="none" stroke="#000000" points="268,-163 268,-193 451,-193 451,-163 268,-163"/>
            <text text-anchor="start" x="275" y="-175.8" font-family="Arial" font-size="14.00" fill="#000000">role
            </text>
            <text text-anchor="start" x="302.2344" y="-175.8" font-family="Arial" font-size="14.00" fill="#666666">
                [varchar(30)]
            </text>
            <polygon fill="none" stroke="#000000" points="268,-133 268,-163 451,-163 451,-133 268,-133"/>
            <text text-anchor="start" x="275" y="-145.8" font-family="Arial" font-size="14.00" fill="#000000">
                twitter_id
            </text>
            <text text-anchor="start" x="334.9102" y="-145.8" font-family="Arial" font-size="14.00" fill="#666666">
                [varchar(15)]
            </text>
            <polygon fill="none" stroke="#000000" points="268,-103 268,-133 451,-133 451,-103 268,-103"/>
            <text text-anchor="start" x="275" y="-115.8" font-family="Arial" font-size="14.00" fill="#000000">
                last_online
            </text>
            <text text-anchor="start" x="345.8271" y="-115.8" font-family="Arial" font-size="14.00" fill="#666666">
                [timestamp(6)]
            </text>
            <polygon fill="none" stroke="#000000" points="268,-73 268,-103 451,-103 451,-73 268,-73"/>
            <text text-anchor="start" x="275" y="-85.8" font-family="Arial" font-size="14.00" fill="#000000">
                created_at
            </text>
            <text text-anchor="start" x="345.0479" y="-85.8" font-family="Arial" font-size="14.00" fill="#666666">
                [timestamp(6)]
            </text>
            <polygon fill="none" stroke="#000000" points="268,-43 268,-73 451,-73 451,-43 268,-43"/>
            <text text-anchor="start" x="275" y="-55.8" font-family="Arial" font-size="14.00" fill="#000000">
                updated_at
            </text>
            <text text-anchor="start" x="348.958" y="-55.8" font-family="Arial" font-size="14.00" fill="#666666">
                [timestamp(6)]
            </text>
        </g>
        <!-- clip_folders&#45;&gt;users -->
        <g id="edge2" class="edge">
            <title>clip_folders:user_id&#45;&gt;users:id</title>
            <path fill="none" stroke="#000000" d="M244.1787,-694.4162C193.6622,-666.2896 209.4381,-418 268,-418"/>
            <polygon fill="#000000" stroke="#000000"
                     points="244.3291,-694.4557 252.855,-701.3519 249.1645,-695.7278 254,-697 254,-697 254,-697 249.1645,-695.7278 255.145,-692.6481 244.3291,-694.4557 244.3291,-694.4557"/>
            <text text-anchor="start" x="22.0117" y="-706.5" font-family="Arial" font-size="10.00" fill="#000000">
                FOREIGN KEY (user_id) REFERENCES users (id)
            </text>
        </g>
        <!-- clips -->
        <g id="node2" class="node">
            <title>clips</title>
            <polygon fill="#efefef" stroke="transparent" points="271,-1081 271,-1115 448,-1115 448,-1081 271,-1081"/>
            <polygon fill="none" stroke="#000000" points="271,-1081 271,-1115 448,-1115 448,-1081 271,-1081"/>
            <text text-anchor="start" x="291.0059" y="-1094.6" font-family="Arial Bold" font-size="18.00"
                  fill="#000000">clips
            </text>
            <text text-anchor="start" x="332.0244" y="-1094.6" font-family="Arial" font-size="14.00"
                  fill="#000000"></text>
            <text text-anchor="start" x="335.9141" y="-1094.6" font-family="Arial" font-size="14.00" fill="#666666">
                [BASE TABLE]
            </text>
            <polygon fill="none" stroke="#000000" points="271,-1051 271,-1081 448,-1081 448,-1051 271,-1051"/>
            <text text-anchor="start" x="278" y="-1063.8" font-family="Arial" font-size="14.00" fill="#000000">id</text>
            <text text-anchor="start" x="292.7861" y="-1063.8" font-family="Arial" font-size="14.00" fill="#666666">
                [char(36)]
            </text>
            <polygon fill="none" stroke="#000000" points="271,-1021 271,-1051 448,-1051 448,-1021 271,-1021"/>
            <text text-anchor="start" x="278" y="-1033.8" font-family="Arial" font-size="14.00" fill="#000000">user_id
            </text>
            <text text-anchor="start" x="327.8066" y="-1033.8" font-family="Arial" font-size="14.00" fill="#666666">
                [char(36)]
            </text>
            <polygon fill="none" stroke="#000000" points="271,-991 271,-1021 448,-1021 448,-991 271,-991"/>
            <text text-anchor="start" x="278" y="-1003.8" font-family="Arial" font-size="14.00" fill="#000000">
                message_id
            </text>
            <text text-anchor="start" x="357.3789" y="-1003.8" font-family="Arial" font-size="14.00" fill="#666666">
                [char(36)]
            </text>
            <polygon fill="none" stroke="#000000" points="271,-961 271,-991 448,-991 448,-961 271,-961"/>
            <text text-anchor="start" x="278" y="-973.8" font-family="Arial" font-size="14.00" fill="#000000">
                folder_id
            </text>
            <text text-anchor="start" x="335.5928" y="-973.8" font-family="Arial" font-size="14.00" fill="#666666">
                [char(36)]
            </text>
            <polygon fill="none" stroke="#000000" points="271,-931 271,-961 448,-961 448,-931 271,-931"/>
            <text text-anchor="start" x="278" y="-943.8" font-family="Arial" font-size="14.00" fill="#000000">
                created_at
            </text>
            <text text-anchor="start" x="348.0479" y="-943.8" font-family="Arial" font-size="14.00" fill="#666666">
                [timestamp(6)]
            </text>
            <polygon fill="none" stroke="#000000" points="271,-901 271,-931 448,-931 448,-901 271,-901"/>
            <text text-anchor="start" x="277.79" y="-913.8" font-family="Arial" font-size="14.00" fill="#000000">
                updated_at
            </text>
            <text text-anchor="start" x="351.748" y="-913.8" font-family="Arial" font-size="14.00" fill="#666666">
                [timestamp(6)]
            </text>
        </g>
        <!-- clips&#45;&gt;clip_folders -->
        <g id="edge1" class="edge">
            <title>clips:folder_id&#45;&gt;clip_folders:id</title>
            <path fill="none" stroke="#000000" d="M260.8771,-975.2857C159.1381,-960.6807 146.5421,-727 254,-727"/>
            <polygon fill="#000000" stroke="#000000"
                     points="261.0248,-975.296 270.6832,-980.4888 266.0124,-975.648 271,-976 271,-976 271,-976 266.0124,-975.648 271.3168,-971.5112 261.0248,-975.296 261.0248,-975.296"/>
            <text text-anchor="start" x="7.167" y="-985.5" font-family="Arial" font-size="10.00" fill="#000000">FOREIGN
                KEY (folder_id) REFERENCES clip_folders (id)
            </text>
        </g>
    </g>
</svg>
