<?xml version="1.0" encoding="UTF-8" standalone="no"?>
<!DOCTYPE svg PUBLIC "-//W3C//DTD SVG 1.1//EN"
 "http://www.w3.org/Graphics/SVG/1.1/DTD/svg11.dtd">
<!-- Generated by graphviz version 2.40.1 (20161225.0304)
 -->
<!-- Title: devices Pages: 1 -->
<svg width="468pt" height="772pt"
     viewBox="0.00 0.00 467.50 772.00" xmlns="http://www.w3.org/2000/svg">
<g id="graph0" class="graph" transform="scale(1 1) rotate(0) translate(4 768)">
<title>devices</title>
<polygon fill="#ffffff" stroke="transparent" points="-4,4 -4,-768 463.5,-768 463.5,4 -4,4"/>
<!-- devices -->
<g id="node1" class="node">
<title>devices</title>
<polygon fill="#efefef" stroke="transparent" points="240,-682.5 240,-717.5 412,-717.5 412,-682.5 240,-682.5"/>
<polygon fill="none" stroke="#000000" points="240,-682.5 240,-717.5 412,-717.5 412,-682.5 240,-682.5"/>
<text text-anchor="start" x="246.8667" y="-695.3" font-family="Arial Bold" font-size="18.00" fill="#000000">devices</text>
<text text-anchor="start" x="307.8795" y="-695.3" font-family="Arial" font-size="14.00" fill="#000000"> </text>
<text text-anchor="start" x="311.7701" y="-695.3" font-family="Arial" font-size="14.00" fill="#666666">[BASE TABLE]</text>
<polygon fill="none" stroke="#000000" points="240,-652.5 240,-682.5 412,-682.5 412,-652.5 240,-652.5"/>
<text text-anchor="start" x="247" y="-663.9" font-family="Arial" font-size="14.00" fill="#000000">token </text>
<text text-anchor="start" x="285.129" y="-663.9" font-family="Arial" font-size="14.00" fill="#666666">[varchar(190)]</text>
<polygon fill="none" stroke="#000000" points="240,-622.5 240,-652.5 412,-652.5 412,-622.5 240,-622.5"/>
<text text-anchor="start" x="247" y="-633.9" font-family="Arial" font-size="14.00" fill="#000000">user_id </text>
<text text-anchor="start" x="296.7882" y="-633.9" font-family="Arial" font-size="14.00" fill="#666666">[char(36)]</text>
<polygon fill="none" stroke="#000000" points="240,-592.5 240,-622.5 412,-622.5 412,-592.5 240,-592.5"/>
<text text-anchor="start" x="247" y="-603.9" font-family="Arial" font-size="14.00" fill="#000000">created_at </text>
<text text-anchor="start" x="317.028" y="-603.9" font-family="Arial" font-size="14.00" fill="#666666">[datetime(6)]</text>
<polygon fill="none" stroke="#000000" stroke-width="3" points="238.5,-591.5 238.5,-719.5 413.5,-719.5 413.5,-591.5 238.5,-591.5"/>
</g>
<!-- users -->
<g id="node2" class="node">
<title>users</title>
<polygon fill="#efefef" stroke="transparent" points="234,-432.5 234,-467.5 417,-467.5 417,-432.5 234,-432.5"/>
<polygon fill="none" stroke="#000000" points="234,-432.5 234,-467.5 417,-467.5 417,-432.5 234,-432.5"/>
<text text-anchor="start" x="254.8708" y="-445.3" font-family="Arial Bold" font-size="18.00" fill="#000000">users</text>
<text text-anchor="start" x="298.8754" y="-445.3" font-family="Arial" font-size="14.00" fill="#000000"> </text>
<text text-anchor="start" x="302.766" y="-445.3" font-family="Arial" font-size="14.00" fill="#666666">[BASE TABLE]</text>
<polygon fill="none" stroke="#000000" points="234,-402.5 234,-432.5 417,-432.5 417,-402.5 234,-402.5"/>
<text text-anchor="start" x="241" y="-413.9" font-family="Arial" font-size="14.00" fill="#000000">id </text>
<text text-anchor="start" x="255.7798" y="-413.9" font-family="Arial" font-size="14.00" fill="#666666">[char(36)]</text>
<polygon fill="none" stroke="#000000" points="234,-372.5 234,-402.5 417,-402.5 417,-372.5 234,-372.5"/>
<text text-anchor="start" x="241" y="-383.9" font-family="Arial" font-size="14.00" fill="#000000">name </text>
<text text-anchor="start" x="279.899" y="-383.9" font-family="Arial" font-size="14.00" fill="#666666">[varchar(32)]</text>
<polygon fill="none" stroke="#000000" points="234,-342.5 234,-372.5 417,-372.5 417,-342.5 234,-342.5"/>
<text text-anchor="start" x="240.7104" y="-353.9" font-family="Arial" font-size="14.00" fill="#000000">display_name </text>
<text text-anchor="start" x="330.953" y="-353.9" font-family="Arial" font-size="14.00" fill="#666666">[varchar(64)]</text>
<polygon fill="none" stroke="#000000" points="234,-312.5 234,-342.5 417,-342.5 417,-312.5 234,-312.5"/>
<text text-anchor="start" x="241" y="-323.9" font-family="Arial" font-size="14.00" fill="#000000">password </text>
<text text-anchor="start" x="304.7882" y="-323.9" font-family="Arial" font-size="14.00" fill="#666666">[char(128)]</text>
<polygon fill="none" stroke="#000000" points="234,-282.5 234,-312.5 417,-312.5 417,-282.5 234,-282.5"/>
<text text-anchor="start" x="241" y="-293.9" font-family="Arial" font-size="14.00" fill="#000000">salt </text>
<text text-anchor="start" x="266.6704" y="-293.9" font-family="Arial" font-size="14.00" fill="#666666">[char(128)]</text>
<polygon fill="none" stroke="#000000" points="234,-252.5 234,-282.5 417,-282.5 417,-252.5 234,-252.5"/>
<text text-anchor="start" x="241" y="-263.9" font-family="Arial" font-size="14.00" fill="#000000">icon </text>
<text text-anchor="start" x="270.5624" y="-263.9" font-family="Arial" font-size="14.00" fill="#666666">[char(36)]</text>
<polygon fill="none" stroke="#000000" points="234,-222.5 234,-252.5 417,-252.5 417,-222.5 234,-222.5"/>
<text text-anchor="start" x="241" y="-233.9" font-family="Arial" font-size="14.00" fill="#000000">status </text>
<text text-anchor="start" x="282.237" y="-233.9" font-family="Arial" font-size="14.00" fill="#666666">[tinyint(4)]</text>
<polygon fill="none" stroke="#000000" points="234,-192.5 234,-222.5 417,-222.5 417,-192.5 234,-192.5"/>
<text text-anchor="start" x="241" y="-203.9" font-family="Arial" font-size="14.00" fill="#000000">bot </text>
<text text-anchor="start" x="264.3464" y="-203.9" font-family="Arial" font-size="14.00" fill="#666666">[tinyint(1)]</text>
<polygon fill="none" stroke="#000000" points="234,-162.5 234,-192.5 417,-192.5 417,-162.5 234,-162.5"/>
<text text-anchor="start" x="241" y="-173.9" font-family="Arial" font-size="14.00" fill="#000000">role </text>
<text text-anchor="start" x="268.223" y="-173.9" font-family="Arial" font-size="14.00" fill="#666666">[varchar(30)]</text>
<polygon fill="none" stroke="#000000" points="234,-132.5 234,-162.5 417,-162.5 417,-132.5 234,-132.5"/>
<text text-anchor="start" x="241" y="-143.9" font-family="Arial" font-size="14.00" fill="#000000">twitter_id </text>
<text text-anchor="start" x="300.8906" y="-143.9" font-family="Arial" font-size="14.00" fill="#666666">[varchar(15)]</text>
<polygon fill="none" stroke="#000000" points="234,-102.5 234,-132.5 417,-132.5 417,-102.5 234,-102.5"/>
<text text-anchor="start" x="241" y="-113.9" font-family="Arial" font-size="14.00" fill="#000000">last_online </text>
<text text-anchor="start" x="311.7966" y="-113.9" font-family="Arial" font-size="14.00" fill="#666666">[datetime(6)]</text>
<polygon fill="none" stroke="#000000" points="234,-72.5 234,-102.5 417,-102.5 417,-72.5 234,-72.5"/>
<text text-anchor="start" x="241" y="-83.9" font-family="Arial" font-size="14.00" fill="#000000">created_at </text>
<text text-anchor="start" x="311.028" y="-83.9" font-family="Arial" font-size="14.00" fill="#666666">[datetime(6)]</text>
<polygon fill="none" stroke="#000000" points="234,-42.5 234,-72.5 417,-72.5 417,-42.5 234,-42.5"/>
<text text-anchor="start" x="241" y="-53.9" font-family="Arial" font-size="14.00" fill="#000000">updated_at </text>
<text text-anchor="start" x="314.9326" y="-53.9" font-family="Arial" font-size="14.00" fill="#666666">[datetime(6)]</text>
</g>
<!-- devices&#45;&gt;users -->
<g id="edge1" class="edge">
<title>devices:user_id&#45;&gt;users:id</title>
<path fill="none" stroke="#000000" d="M230.101,-636.0072C202.6415,-626.6192 216.9362,-575.227 240,-547 290.7937,-484.8354 366.2063,-573.1646 417,-511 443.2934,-478.8205 458.5556,-417.5 417,-417.5"/>
<polygon fill="#000000" stroke="#000000" points="230.1118,-636.0087 239.3289,-641.9497 235.0559,-636.7544 240,-637.5 240,-637.5 240,-637.5 235.0559,-636.7544 240.6711,-633.0503 230.1118,-636.0087 230.1118,-636.0087"/>
<text text-anchor="start" x="6.945" y="-647.5" font-family="Arial" font-size="10.00" fill="#000000">FOREIGN KEY (user_id) REFERENCES users (id)</text>
</g>
</g>
</svg>
