<?xml version="1.0" encoding="UTF-8" standalone="no"?>
<!DOCTYPE svg PUBLIC "-//W3C//DTD SVG 1.1//EN"
 "http://www.w3.org/Graphics/SVG/1.1/DTD/svg11.dtd">
<!-- Generated by graphviz version 2.40.1 (20161225.0304)
 -->
<!-- Title: devices Pages: 1 -->
<svg width="468pt" height="712pt"
     viewBox="0.00 0.00 467.50 712.00" xmlns="http://www.w3.org/2000/svg">
<g id="graph0" class="graph" transform="scale(1 1) rotate(0) translate(4 708)">
<title>devices</title>
<polygon fill="#ffffff" stroke="transparent" points="-4,4 -4,-708 463.5,-708 463.5,4 -4,4"/>
<!-- devices -->
<g id="node1" class="node">
<title>devices</title>
<polygon fill="#efefef" stroke="transparent" points="240,-622.5 240,-657.5 412,-657.5 412,-622.5 240,-622.5"/>
<polygon fill="none" stroke="#000000" points="240,-622.5 240,-657.5 412,-657.5 412,-622.5 240,-622.5"/>
<text text-anchor="start" x="246.8667" y="-635.3" font-family="Arial Bold" font-size="18.00" fill="#000000">devices</text>
<text text-anchor="start" x="307.8795" y="-635.3" font-family="Arial" font-size="14.00" fill="#000000"> </text>
<text text-anchor="start" x="311.7701" y="-635.3" font-family="Arial" font-size="14.00" fill="#666666">[BASE TABLE]</text>
<polygon fill="none" stroke="#000000" points="240,-592.5 240,-622.5 412,-622.5 412,-592.5 240,-592.5"/>
<text text-anchor="start" x="247" y="-603.9" font-family="Arial" font-size="14.00" fill="#000000">token </text>
<text text-anchor="start" x="285.129" y="-603.9" font-family="Arial" font-size="14.00" fill="#666666">[varchar(190)]</text>
<polygon fill="none" stroke="#000000" points="240,-562.5 240,-592.5 412,-592.5 412,-562.5 240,-562.5"/>
<text text-anchor="start" x="247" y="-573.9" font-family="Arial" font-size="14.00" fill="#000000">user_id </text>
<text text-anchor="start" x="296.7882" y="-573.9" font-family="Arial" font-size="14.00" fill="#666666">[char(36)]</text>
<polygon fill="none" stroke="#000000" points="240,-532.5 240,-562.5 412,-562.5 412,-532.5 240,-532.5"/>
<text text-anchor="start" x="247" y="-543.9" font-family="Arial" font-size="14.00" fill="#000000">created_at </text>
<text text-anchor="start" x="317.028" y="-543.9" font-family="Arial" font-size="14.00" fill="#666666">[datetime(6)]</text>
<polygon fill="none" stroke="#000000" stroke-width="3" points="238.5,-531.5 238.5,-659.5 413.5,-659.5 413.5,-531.5 238.5,-531.5"/>
</g>
<!-- users -->
<g id="node2" class="node">
<title>users</title>
<polygon fill="#efefef" stroke="transparent" points="234,-372.5 234,-407.5 417,-407.5 417,-372.5 234,-372.5"/>
<polygon fill="none" stroke="#000000" points="234,-372.5 234,-407.5 417,-407.5 417,-372.5 234,-372.5"/>
<text text-anchor="start" x="254.8708" y="-385.3" font-family="Arial Bold" font-size="18.00" fill="#000000">users</text>
<text text-anchor="start" x="298.8754" y="-385.3" font-family="Arial" font-size="14.00" fill="#000000"> </text>
<text text-anchor="start" x="302.766" y="-385.3" font-family="Arial" font-size="14.00" fill="#666666">[BASE TABLE]</text>
<polygon fill="none" stroke="#000000" points="234,-342.5 234,-372.5 417,-372.5 417,-342.5 234,-342.5"/>
<text text-anchor="start" x="241" y="-353.9" font-family="Arial" font-size="14.00" fill="#000000">id </text>
<text text-anchor="start" x="255.7798" y="-353.9" font-family="Arial" font-size="14.00" fill="#666666">[char(36)]</text>
<polygon fill="none" stroke="#000000" points="234,-312.5 234,-342.5 417,-342.5 417,-312.5 234,-312.5"/>
<text text-anchor="start" x="241" y="-323.9" font-family="Arial" font-size="14.00" fill="#000000">name </text>
<text text-anchor="start" x="279.899" y="-323.9" font-family="Arial" font-size="14.00" fill="#666666">[varchar(32)]</text>
<polygon fill="none" stroke="#000000" points="234,-282.5 234,-312.5 417,-312.5 417,-282.5 234,-282.5"/>
<text text-anchor="start" x="240.7104" y="-293.9" font-family="Arial" font-size="14.00" fill="#000000">display_name </text>
<text text-anchor="start" x="330.953" y="-293.9" font-family="Arial" font-size="14.00" fill="#666666">[varchar(64)]</text>
<polygon fill="none" stroke="#000000" points="234,-252.5 234,-282.5 417,-282.5 417,-252.5 234,-252.5"/>
<text text-anchor="start" x="241" y="-263.9" font-family="Arial" font-size="14.00" fill="#000000">password </text>
<text text-anchor="start" x="304.7882" y="-263.9" font-family="Arial" font-size="14.00" fill="#666666">[char(128)]</text>
<polygon fill="none" stroke="#000000" points="234,-222.5 234,-252.5 417,-252.5 417,-222.5 234,-222.5"/>
<text text-anchor="start" x="241" y="-233.9" font-family="Arial" font-size="14.00" fill="#000000">salt </text>
<text text-anchor="start" x="266.6704" y="-233.9" font-family="Arial" font-size="14.00" fill="#666666">[char(128)]</text>
<polygon fill="none" stroke="#000000" points="234,-192.5 234,-222.5 417,-222.5 417,-192.5 234,-192.5"/>
<text text-anchor="start" x="241" y="-203.9" font-family="Arial" font-size="14.00" fill="#000000">icon </text>
<text text-anchor="start" x="270.5624" y="-203.9" font-family="Arial" font-size="14.00" fill="#666666">[char(36)]</text>
<polygon fill="none" stroke="#000000" points="234,-162.5 234,-192.5 417,-192.5 417,-162.5 234,-162.5"/>
<text text-anchor="start" x="241" y="-173.9" font-family="Arial" font-size="14.00" fill="#000000">status </text>
<text text-anchor="start" x="282.237" y="-173.9" font-family="Arial" font-size="14.00" fill="#666666">[tinyint(4)]</text>
<polygon fill="none" stroke="#000000" points="234,-132.5 234,-162.5 417,-162.5 417,-132.5 234,-132.5"/>
<text text-anchor="start" x="241" y="-143.9" font-family="Arial" font-size="14.00" fill="#000000">bot </text>
<text text-anchor="start" x="264.3464" y="-143.9" font-family="Arial" font-size="14.00" fill="#666666">[tinyint(1)]</text>
<polygon fill="none" stroke="#000000" points="234,-102.5 234,-132.5 417,-132.5 417,-102.5 234,-102.5"/>
<text text-anchor="start" x="241" y="-113.9" font-family="Arial" font-size="14.00" fill="#000000">role </text>
<text text-anchor="start" x="268.223" y="-113.9" font-family="Arial" font-size="14.00" fill="#666666">[varchar(30)]</text>
<polygon fill="none" stroke="#000000" points="234,-72.5 234,-102.5 417,-102.5 417,-72.5 234,-72.5"/>
<text text-anchor="start" x="241" y="-83.9" font-family="Arial" font-size="14.00" fill="#000000">created_at </text>
<text text-anchor="start" x="311.028" y="-83.9" font-family="Arial" font-size="14.00" fill="#666666">[datetime(6)]</text>
<polygon fill="none" stroke="#000000" points="234,-42.5 234,-72.5 417,-72.5 417,-42.5 234,-42.5"/>
<text text-anchor="start" x="241" y="-53.9" font-family="Arial" font-size="14.00" fill="#000000">updated_at </text>
<text text-anchor="start" x="314.9326" y="-53.9" font-family="Arial" font-size="14.00" fill="#666666">[datetime(6)]</text>
</g>
<!-- devices&#45;&gt;users -->
<g id="edge1" class="edge">
<title>devices:user_id&#45;&gt;users:id</title>
<path fill="none" stroke="#000000" d="M230.101,-576.0072C202.6415,-566.6192 216.9362,-515.227 240,-487 290.7937,-424.8354 366.2063,-513.1646 417,-451 443.2934,-418.8205 458.5556,-357.5 417,-357.5"/>
<polygon fill="#000000" stroke="#000000" points="230.1118,-576.0087 239.3289,-581.9497 235.0559,-576.7544 240,-577.5 240,-577.5 240,-577.5 235.0559,-576.7544 240.6711,-573.0503 230.1118,-576.0087 230.1118,-576.0087"/>
<text text-anchor="start" x="6.945" y="-587.5" font-family="Arial" font-size="10.00" fill="#000000">FOREIGN KEY (user_id) REFERENCES users (id)</text>
</g>
</g>
</svg>
