<?xml version="1.0" encoding="UTF-8" standalone="no"?>
<!DOCTYPE svg PUBLIC "-//W3C//DTD SVG 1.1//EN"
        "http://www.w3.org/Graphics/SVG/1.1/DTD/svg11.dtd">
<!-- Generated by graphviz version 2.40.1 (20161225.0304)
 -->
<!-- Title: devices Pages: 1 -->
<svg width="469pt" height="770pt"
     viewBox="0.00 0.00 469.00 770.00" xmlns="http://www.w3.org/2000/svg">
    <g id="graph0" class="graph" transform="scale(1 1) rotate(0) translate(4 766)">
        <title>devices</title>
        <polygon fill="#ffffff" stroke="transparent" points="-4,4 -4,-766 465,-766 465,4 -4,4"/>
        <!-- devices -->
        <g id="node1" class="node">
            <title>devices</title>
            <polygon fill="#efefef" stroke="transparent" points="239,-682 239,-716 415,-716 415,-682 239,-682"/>
            <polygon fill="none" stroke="#000000" points="239,-682 239,-716 415,-716 415,-682 239,-682"/>
            <text text-anchor="start" x="245.9902" y="-695.6" font-family="Arial Bold" font-size="18.00" fill="#000000">
                devices
            </text>
            <text text-anchor="start" x="312.04" y="-695.6" font-family="Arial" font-size="14.00" fill="#000000"></text>
            <text text-anchor="start" x="315.9297" y="-695.6" font-family="Arial" font-size="14.00" fill="#666666">[BASE
                TABLE]
            </text>
            <polygon fill="none" stroke="#000000" points="239,-652 239,-682 415,-682 415,-652 239,-652"/>
            <text text-anchor="start" x="246" y="-664.8" font-family="Arial" font-size="14.00" fill="#000000">token
            </text>
            <text text-anchor="start" x="284.1377" y="-664.8" font-family="Arial" font-size="14.00" fill="#666666">
                [varchar(190)]
            </text>
            <polygon fill="none" stroke="#000000" points="239,-622 239,-652 415,-652 415,-622 239,-622"/>
            <text text-anchor="start" x="246" y="-634.8" font-family="Arial" font-size="14.00" fill="#000000">user_id
            </text>
            <text text-anchor="start" x="295.8066" y="-634.8" font-family="Arial" font-size="14.00" fill="#666666">
                [char(36)]
            </text>
            <polygon fill="none" stroke="#000000" points="239,-592 239,-622 415,-622 415,-592 239,-592"/>
            <text text-anchor="start" x="246" y="-604.8" font-family="Arial" font-size="14.00" fill="#000000">
                created_at
            </text>
            <text text-anchor="start" x="316.0479" y="-604.8" font-family="Arial" font-size="14.00" fill="#666666">
                [timestamp(6)]
            </text>
            <polygon fill="none" stroke="#000000" stroke-width="3"
                     points="237.5,-590.5 237.5,-717.5 416.5,-717.5 416.5,-590.5 237.5,-590.5"/>
        </g>
        <!-- users -->
        <g id="node2" class="node">
            <title>users</title>
            <polygon fill="#efefef" stroke="transparent" points="235,-433 235,-467 418,-467 418,-433 235,-433"/>
            <polygon fill="none" stroke="#000000" points="235,-433 235,-467 418,-467 418,-433 235,-433"/>
            <text text-anchor="start" x="254.499" y="-446.6" font-family="Arial Bold" font-size="18.00" fill="#000000">
                users
            </text>
            <text text-anchor="start" x="302.5313" y="-446.6" font-family="Arial" font-size="14.00"
                  fill="#000000"></text>
            <text text-anchor="start" x="306.4209" y="-446.6" font-family="Arial" font-size="14.00" fill="#666666">[BASE
                TABLE]
            </text>
            <polygon fill="none" stroke="#000000" points="235,-403 235,-433 418,-433 418,-403 235,-403"/>
            <text text-anchor="start" x="242" y="-415.8" font-family="Arial" font-size="14.00" fill="#000000">id</text>
            <text text-anchor="start" x="256.7861" y="-415.8" font-family="Arial" font-size="14.00" fill="#666666">
                [char(36)]
            </text>
            <polygon fill="none" stroke="#000000" points="235,-373 235,-403 418,-403 418,-373 235,-373"/>
            <text text-anchor="start" x="242" y="-385.8" font-family="Arial" font-size="14.00" fill="#000000">name
            </text>
            <text text-anchor="start" x="280.9102" y="-385.8" font-family="Arial" font-size="14.00" fill="#666666">
                [varchar(32)]
            </text>
            <polygon fill="none" stroke="#000000" points="235,-343 235,-373 418,-373 418,-343 235,-343"/>
            <text text-anchor="start" x="241.6831" y="-355.8" font-family="Arial" font-size="14.00" fill="#000000">
                display_name
            </text>
            <text text-anchor="start" x="331.9585" y="-355.8" font-family="Arial" font-size="14.00" fill="#666666">
                [varchar(64)]
            </text>
            <polygon fill="none" stroke="#000000" points="235,-313 235,-343 418,-343 418,-313 235,-313"/>
            <text text-anchor="start" x="242" y="-325.8" font-family="Arial" font-size="14.00" fill="#000000">password
            </text>
            <text text-anchor="start" x="305.8066" y="-325.8" font-family="Arial" font-size="14.00" fill="#666666">
                [char(128)]
            </text>
            <polygon fill="none" stroke="#000000" points="235,-283 235,-313 418,-313 418,-283 235,-283"/>
            <text text-anchor="start" x="242" y="-295.8" font-family="Arial" font-size="14.00" fill="#000000">salt
            </text>
            <text text-anchor="start" x="267.6758" y="-295.8" font-family="Arial" font-size="14.00" fill="#666666">
                [char(128)]
            </text>
            <polygon fill="none" stroke="#000000" points="235,-253 235,-283 418,-283 418,-253 235,-253"/>
            <text text-anchor="start" x="242" y="-265.8" font-family="Arial" font-size="14.00" fill="#000000">icon
            </text>
            <text text-anchor="start" x="271.5723" y="-265.8" font-family="Arial" font-size="14.00" fill="#666666">
                [char(36)]
            </text>
            <polygon fill="none" stroke="#000000" points="235,-223 235,-253 418,-253 418,-223 235,-223"/>
            <text text-anchor="start" x="242" y="-235.8" font-family="Arial" font-size="14.00" fill="#000000">status
            </text>
            <text text-anchor="start" x="283.2412" y="-235.8" font-family="Arial" font-size="14.00" fill="#666666">
                [tinyint(4)]
            </text>
            <polygon fill="none" stroke="#000000" points="235,-193 235,-223 418,-223 418,-193 235,-193"/>
            <text text-anchor="start" x="242" y="-205.8" font-family="Arial" font-size="14.00" fill="#000000">bot</text>
            <text text-anchor="start" x="265.3516" y="-205.8" font-family="Arial" font-size="14.00" fill="#666666">
                [tinyint(1)]
            </text>
            <polygon fill="none" stroke="#000000" points="235,-163 235,-193 418,-193 418,-163 235,-163"/>
            <text text-anchor="start" x="242" y="-175.8" font-family="Arial" font-size="14.00" fill="#000000">role
            </text>
            <text text-anchor="start" x="269.2344" y="-175.8" font-family="Arial" font-size="14.00" fill="#666666">
                [varchar(30)]
            </text>
            <polygon fill="none" stroke="#000000" points="235,-133 235,-163 418,-163 418,-133 235,-133"/>
            <text text-anchor="start" x="242" y="-145.8" font-family="Arial" font-size="14.00" fill="#000000">
                twitter_id
            </text>
            <text text-anchor="start" x="301.9102" y="-145.8" font-family="Arial" font-size="14.00" fill="#666666">
                [varchar(15)]
            </text>
            <polygon fill="none" stroke="#000000" points="235,-103 235,-133 418,-133 418,-103 235,-103"/>
            <text text-anchor="start" x="242" y="-115.8" font-family="Arial" font-size="14.00" fill="#000000">
                last_online
            </text>
            <text text-anchor="start" x="312.8271" y="-115.8" font-family="Arial" font-size="14.00" fill="#666666">
                [timestamp(6)]
            </text>
            <polygon fill="none" stroke="#000000" points="235,-73 235,-103 418,-103 418,-73 235,-73"/>
            <text text-anchor="start" x="242" y="-85.8" font-family="Arial" font-size="14.00" fill="#000000">
                created_at
            </text>
            <text text-anchor="start" x="312.0479" y="-85.8" font-family="Arial" font-size="14.00" fill="#666666">
                [timestamp(6)]
            </text>
            <polygon fill="none" stroke="#000000" points="235,-43 235,-73 418,-73 418,-43 235,-43"/>
            <text text-anchor="start" x="242" y="-55.8" font-family="Arial" font-size="14.00" fill="#000000">
                updated_at
            </text>
            <text text-anchor="start" x="315.958" y="-55.8" font-family="Arial" font-size="14.00" fill="#666666">
                [timestamp(6)]
            </text>
        </g>
        <!-- devices&#45;&gt;users -->
        <g id="edge1" class="edge">
            <title>devices:user_id&#45;&gt;users:id</title>
            <path fill="none" stroke="#000000"
                  d="M229.0455,-635.4983C201.4293,-626.0544 215.7778,-574.3576 239,-546 290.4136,-483.2168 366.5864,-572.7832 418,-510 443.9061,-478.365 458.8889,-418 418,-418"/>
            <polygon fill="#000000" stroke="#000000"
                     points="229.1119,-635.5082 238.3287,-641.4497 234.0559,-636.2541 239,-637 239,-637 239,-637 234.0559,-636.2541 239.6713,-632.5503 229.1119,-635.5082 229.1119,-635.5082"/>
            <text text-anchor="start" x="7.0117" y="-646.5" font-family="Arial" font-size="10.00" fill="#000000">FOREIGN
                KEY (user_id) REFERENCES users (id)
            </text>
        </g>
    </g>
</svg>
