<?xml version="1.0" encoding="UTF-8" standalone="no"?>
<!DOCTYPE svg PUBLIC "-//W3C//DTD SVG 1.1//EN"
 "http://www.w3.org/Graphics/SVG/1.1/DTD/svg11.dtd">
<!-- Generated by graphviz version 2.40.1 (20161225.0304)
 -->
<!-- Title: dm_channel_mappings Pages: 1 -->
<svg width="663pt" height="742pt"
     viewBox="0.00 0.00 662.50 742.00" xmlns="http://www.w3.org/2000/svg">
<g id="graph0" class="graph" transform="scale(1 1) rotate(0) translate(4 738)">
<title>dm_channel_mappings</title>
<polygon fill="#ffffff" stroke="transparent" points="-4,4 -4,-738 658.5,-738 658.5,4 -4,4"/>
<!-- dm_channel_mappings -->
<g id="node1" class="node">
<title>dm_channel_mappings</title>
<polygon fill="#efefef" stroke="transparent" points="273.5,-652.5 273.5,-687.5 570.5,-687.5 570.5,-652.5 273.5,-652.5"/>
<polygon fill="none" stroke="#000000" points="273.5,-652.5 273.5,-687.5 570.5,-687.5 570.5,-652.5 273.5,-652.5"/>
<text text-anchor="start" x="280.3464" y="-665.3" font-family="Arial Bold" font-size="18.00" fill="#000000">dm_channel_mappings</text>
<text text-anchor="start" x="466.3998" y="-665.3" font-family="Arial" font-size="14.00" fill="#000000"> </text>
<text text-anchor="start" x="470.2904" y="-665.3" font-family="Arial" font-size="14.00" fill="#666666">[BASE TABLE]</text>
<polygon fill="none" stroke="#000000" points="273.5,-622.5 273.5,-652.5 570.5,-652.5 570.5,-622.5 273.5,-622.5"/>
<text text-anchor="start" x="280.5" y="-633.9" font-family="Arial" font-size="14.00" fill="#000000">channel_id </text>
<text text-anchor="start" x="352.082" y="-633.9" font-family="Arial" font-size="14.00" fill="#666666">[char(36)]</text>
<polygon fill="none" stroke="#000000" points="273.5,-592.5 273.5,-622.5 570.5,-622.5 570.5,-592.5 273.5,-592.5"/>
<text text-anchor="start" x="280.5" y="-603.9" font-family="Arial" font-size="14.00" fill="#000000">user1 </text>
<text text-anchor="start" x="319.399" y="-603.9" font-family="Arial" font-size="14.00" fill="#666666">[char(36)]</text>
<polygon fill="none" stroke="#000000" points="273.5,-562.5 273.5,-592.5 570.5,-592.5 570.5,-562.5 273.5,-562.5"/>
<text text-anchor="start" x="280.5" y="-573.9" font-family="Arial" font-size="14.00" fill="#000000">user2 </text>
<text text-anchor="start" x="319.399" y="-573.9" font-family="Arial" font-size="14.00" fill="#666666">[char(36)]</text>
<polygon fill="none" stroke="#000000" stroke-width="3" points="271.5,-561.5 271.5,-689.5 571.5,-689.5 571.5,-561.5 271.5,-561.5"/>
</g>
<!-- channels -->
<g id="node2" class="node">
<title>channels</title>
<polygon fill="#efefef" stroke="transparent" points="43.5,-402.5 43.5,-437.5 226.5,-437.5 226.5,-402.5 43.5,-402.5"/>
<polygon fill="none" stroke="#000000" points="43.5,-402.5 43.5,-437.5 226.5,-437.5 226.5,-402.5 43.5,-402.5"/>
<text text-anchor="start" x="50.3605" y="-415.3" font-family="Arial Bold" font-size="18.00" fill="#000000">channels</text>
<text text-anchor="start" x="122.3857" y="-415.3" font-family="Arial" font-size="14.00" fill="#000000"> </text>
<text text-anchor="start" x="126.2763" y="-415.3" font-family="Arial" font-size="14.00" fill="#666666">[BASE TABLE]</text>
<polygon fill="none" stroke="#000000" points="43.5,-372.5 43.5,-402.5 226.5,-402.5 226.5,-372.5 43.5,-372.5"/>
<text text-anchor="start" x="50.5" y="-383.9" font-family="Arial" font-size="14.00" fill="#000000">id </text>
<text text-anchor="start" x="65.2798" y="-383.9" font-family="Arial" font-size="14.00" fill="#666666">[char(36)]</text>
<polygon fill="none" stroke="#000000" points="43.5,-342.5 43.5,-372.5 226.5,-372.5 226.5,-342.5 43.5,-342.5"/>
<text text-anchor="start" x="50.5" y="-353.9" font-family="Arial" font-size="14.00" fill="#000000">name </text>
<text text-anchor="start" x="89.399" y="-353.9" font-family="Arial" font-size="14.00" fill="#666666">[varchar(20)]</text>
<polygon fill="none" stroke="#000000" points="43.5,-312.5 43.5,-342.5 226.5,-342.5 226.5,-312.5 43.5,-312.5"/>
<text text-anchor="start" x="50.5" y="-323.9" font-family="Arial" font-size="14.00" fill="#000000">parent_id </text>
<text text-anchor="start" x="112.744" y="-323.9" font-family="Arial" font-size="14.00" fill="#666666">[char(36)]</text>
<polygon fill="none" stroke="#000000" points="43.5,-282.5 43.5,-312.5 226.5,-312.5 226.5,-282.5 43.5,-282.5"/>
<text text-anchor="start" x="50.5" y="-293.9" font-family="Arial" font-size="14.00" fill="#000000">topic </text>
<text text-anchor="start" x="83.953" y="-293.9" font-family="Arial" font-size="14.00" fill="#666666">[text]</text>
<polygon fill="none" stroke="#000000" points="43.5,-252.5 43.5,-282.5 226.5,-282.5 226.5,-252.5 43.5,-252.5"/>
<text text-anchor="start" x="50.5" y="-263.9" font-family="Arial" font-size="14.00" fill="#000000">is_forced </text>
<text text-anchor="start" x="111.1788" y="-263.9" font-family="Arial" font-size="14.00" fill="#666666">[tinyint(1)]</text>
<polygon fill="none" stroke="#000000" points="43.5,-222.5 43.5,-252.5 226.5,-252.5 226.5,-222.5 43.5,-222.5"/>
<text text-anchor="start" x="50.5" y="-233.9" font-family="Arial" font-size="14.00" fill="#000000">is_public </text>
<text text-anchor="start" x="108.8408" y="-233.9" font-family="Arial" font-size="14.00" fill="#666666">[tinyint(1)]</text>
<polygon fill="none" stroke="#000000" points="43.5,-192.5 43.5,-222.5 226.5,-222.5 226.5,-192.5 43.5,-192.5"/>
<text text-anchor="start" x="50.5" y="-203.9" font-family="Arial" font-size="14.00" fill="#000000">is_visible </text>
<text text-anchor="start" x="111.1648" y="-203.9" font-family="Arial" font-size="14.00" fill="#666666">[tinyint(1)]</text>
<polygon fill="none" stroke="#000000" points="43.5,-162.5 43.5,-192.5 226.5,-192.5 226.5,-162.5 43.5,-162.5"/>
<text text-anchor="start" x="50.5" y="-173.9" font-family="Arial" font-size="14.00" fill="#000000">creator_id </text>
<text text-anchor="start" x="116.622" y="-173.9" font-family="Arial" font-size="14.00" fill="#666666">[char(36)]</text>
<polygon fill="none" stroke="#000000" points="43.5,-132.5 43.5,-162.5 226.5,-162.5 226.5,-132.5 43.5,-132.5"/>
<text text-anchor="start" x="50.5" y="-143.9" font-family="Arial" font-size="14.00" fill="#000000">updater_id </text>
<text text-anchor="start" x="120.5266" y="-143.9" font-family="Arial" font-size="14.00" fill="#666666">[char(36)]</text>
<polygon fill="none" stroke="#000000" points="43.5,-102.5 43.5,-132.5 226.5,-132.5 226.5,-102.5 43.5,-102.5"/>
<text text-anchor="start" x="50.5" y="-113.9" font-family="Arial" font-size="14.00" fill="#000000">created_at </text>
<text text-anchor="start" x="120.528" y="-113.9" font-family="Arial" font-size="14.00" fill="#666666">[datetime(6)]</text>
<polygon fill="none" stroke="#000000" points="43.5,-72.5 43.5,-102.5 226.5,-102.5 226.5,-72.5 43.5,-72.5"/>
<text text-anchor="start" x="50.5" y="-83.9" font-family="Arial" font-size="14.00" fill="#000000">updated_at </text>
<text text-anchor="start" x="124.4326" y="-83.9" font-family="Arial" font-size="14.00" fill="#666666">[datetime(6)]</text>
<polygon fill="none" stroke="#000000" points="43.5,-42.5 43.5,-72.5 226.5,-72.5 226.5,-42.5 43.5,-42.5"/>
<text text-anchor="start" x="50.5" y="-53.9" font-family="Arial" font-size="14.00" fill="#000000">deleted_at </text>
<text text-anchor="start" x="119.7566" y="-53.9" font-family="Arial" font-size="14.00" fill="#666666">[datetime(6)]</text>
</g>
<!-- dm_channel_mappings&#45;&gt;channels -->
<g id="edge1" class="edge">
<title>dm_channel_mappings:channel_id&#45;&gt;channels:id</title>
<path fill="none" stroke="#000000" d="M263.4604,-636.7378C171.6835,-621.6464 335.9142,-387.5 226.5,-387.5"/>
<polygon fill="#000000" stroke="#000000" points="263.5287,-636.7429 273.1593,-641.9871 268.5143,-637.1215 273.5,-637.5 273.5,-637.5 273.5,-637.5 268.5143,-637.1215 273.8407,-633.0129 263.5287,-636.7429 263.5287,-636.7429"/>
<text text-anchor="start" x="9.878" y="-647.5" font-family="Arial" font-size="10.00" fill="#000000">FOREIGN KEY (channel_id) REFERENCES channels (id)</text>
</g>
<!-- users -->
<g id="node3" class="node">
<title>users</title>
<polygon fill="#efefef" stroke="transparent" points="330.5,-387.5 330.5,-422.5 513.5,-422.5 513.5,-387.5 330.5,-387.5"/>
<polygon fill="none" stroke="#000000" points="330.5,-387.5 330.5,-422.5 513.5,-422.5 513.5,-387.5 330.5,-387.5"/>
<text text-anchor="start" x="351.3708" y="-400.3" font-family="Arial Bold" font-size="18.00" fill="#000000">users</text>
<text text-anchor="start" x="395.3754" y="-400.3" font-family="Arial" font-size="14.00" fill="#000000"> </text>
<text text-anchor="start" x="399.266" y="-400.3" font-family="Arial" font-size="14.00" fill="#666666">[BASE TABLE]</text>
<polygon fill="none" stroke="#000000" points="330.5,-357.5 330.5,-387.5 513.5,-387.5 513.5,-357.5 330.5,-357.5"/>
<text text-anchor="start" x="337.5" y="-368.9" font-family="Arial" font-size="14.00" fill="#000000">id </text>
<text text-anchor="start" x="352.2798" y="-368.9" font-family="Arial" font-size="14.00" fill="#666666">[char(36)]</text>
<polygon fill="none" stroke="#000000" points="330.5,-327.5 330.5,-357.5 513.5,-357.5 513.5,-327.5 330.5,-327.5"/>
<text text-anchor="start" x="337.5" y="-338.9" font-family="Arial" font-size="14.00" fill="#000000">name </text>
<text text-anchor="start" x="376.399" y="-338.9" font-family="Arial" font-size="14.00" fill="#666666">[varchar(32)]</text>
<polygon fill="none" stroke="#000000" points="330.5,-297.5 330.5,-327.5 513.5,-327.5 513.5,-297.5 330.5,-297.5"/>
<text text-anchor="start" x="337.2104" y="-308.9" font-family="Arial" font-size="14.00" fill="#000000">display_name </text>
<text text-anchor="start" x="427.453" y="-308.9" font-family="Arial" font-size="14.00" fill="#666666">[varchar(64)]</text>
<polygon fill="none" stroke="#000000" points="330.5,-267.5 330.5,-297.5 513.5,-297.5 513.5,-267.5 330.5,-267.5"/>
<text text-anchor="start" x="337.5" y="-278.9" font-family="Arial" font-size="14.00" fill="#000000">password </text>
<text text-anchor="start" x="401.2882" y="-278.9" font-family="Arial" font-size="14.00" fill="#666666">[char(128)]</text>
<polygon fill="none" stroke="#000000" points="330.5,-237.5 330.5,-267.5 513.5,-267.5 513.5,-237.5 330.5,-237.5"/>
<text text-anchor="start" x="337.5" y="-248.9" font-family="Arial" font-size="14.00" fill="#000000">salt </text>
<text text-anchor="start" x="363.1704" y="-248.9" font-family="Arial" font-size="14.00" fill="#666666">[char(128)]</text>
<polygon fill="none" stroke="#000000" points="330.5,-207.5 330.5,-237.5 513.5,-237.5 513.5,-207.5 330.5,-207.5"/>
<text text-anchor="start" x="337.5" y="-218.9" font-family="Arial" font-size="14.00" fill="#000000">icon </text>
<text text-anchor="start" x="367.0624" y="-218.9" font-family="Arial" font-size="14.00" fill="#666666">[char(36)]</text>
<polygon fill="none" stroke="#000000" points="330.5,-177.5 330.5,-207.5 513.5,-207.5 513.5,-177.5 330.5,-177.5"/>
<text text-anchor="start" x="337.5" y="-188.9" font-family="Arial" font-size="14.00" fill="#000000">status </text>
<text text-anchor="start" x="378.737" y="-188.9" font-family="Arial" font-size="14.00" fill="#666666">[tinyint(4)]</text>
<polygon fill="none" stroke="#000000" points="330.5,-147.5 330.5,-177.5 513.5,-177.5 513.5,-147.5 330.5,-147.5"/>
<text text-anchor="start" x="337.5" y="-158.9" font-family="Arial" font-size="14.00" fill="#000000">bot </text>
<text text-anchor="start" x="360.8464" y="-158.9" font-family="Arial" font-size="14.00" fill="#666666">[tinyint(1)]</text>
<polygon fill="none" stroke="#000000" points="330.5,-117.5 330.5,-147.5 513.5,-147.5 513.5,-117.5 330.5,-117.5"/>
<text text-anchor="start" x="337.5" y="-128.9" font-family="Arial" font-size="14.00" fill="#000000">role </text>
<text text-anchor="start" x="364.723" y="-128.9" font-family="Arial" font-size="14.00" fill="#666666">[varchar(30)]</text>
<polygon fill="none" stroke="#000000" points="330.5,-87.5 330.5,-117.5 513.5,-117.5 513.5,-87.5 330.5,-87.5"/>
<text text-anchor="start" x="337.5" y="-98.9" font-family="Arial" font-size="14.00" fill="#000000">created_at </text>
<text text-anchor="start" x="407.528" y="-98.9" font-family="Arial" font-size="14.00" fill="#666666">[datetime(6)]</text>
<polygon fill="none" stroke="#000000" points="330.5,-57.5 330.5,-87.5 513.5,-87.5 513.5,-57.5 330.5,-57.5"/>
<text text-anchor="start" x="337.5" y="-68.9" font-family="Arial" font-size="14.00" fill="#000000">updated_at </text>
<text text-anchor="start" x="411.4326" y="-68.9" font-family="Arial" font-size="14.00" fill="#666666">[datetime(6)]</text>
</g>
<!-- dm_channel_mappings&#45;&gt;users -->
<g id="edge2" class="edge">
<title>dm_channel_mappings:user1&#45;&gt;users:id</title>
<path fill="none" stroke="#000000" d="M263.3989,-605.9877C239.6621,-597.2619 266.7511,-552.5013 273.5,-517 286.3935,-449.1765 261.4618,-372.5 330.5,-372.5"/>
<polygon fill="#000000" stroke="#000000" points="263.6102,-606.0193 272.8337,-611.9504 268.5551,-606.7596 273.5,-607.5 273.5,-607.5 273.5,-607.5 268.5551,-606.7596 274.1663,-603.0496 263.6102,-606.0193 263.6102,-606.0193"/>
<text text-anchor="start" x="48.334" y="-617.5" font-family="Arial" font-size="10.00" fill="#000000">FOREIGN KEY (user1) REFERENCES users (id)</text>
</g>
<!-- dm_channel_mappings&#45;&gt;users -->
<g id="edge3" class="edge">
<title>dm_channel_mappings:user2&#45;&gt;users:id</title>
<path fill="none" stroke="#000000" d="M421.7087,-552.2554C413.94,-505.1802 351.1453,-517.5745 330.5,-466 315.0567,-427.4206 288.9444,-372.5 330.5,-372.5"/>
<polygon fill="#000000" stroke="#000000" points="421.7298,-552.5297 418.0134,-562.8466 422.1149,-557.5148 422.5,-562.5 422.5,-562.5 422.5,-562.5 422.1149,-557.5148 426.9866,-562.1534 421.7298,-552.5297 421.7298,-552.5297"/>
<text text-anchor="start" x="429.334" y="-572.5" font-family="Arial" font-size="10.00" fill="#000000">FOREIGN KEY (user2) REFERENCES users (id)</text>
</g>
</g>
</svg>
