<?xml version="1.0" encoding="UTF-8" standalone="no"?>
<!DOCTYPE svg PUBLIC "-//W3C//DTD SVG 1.1//EN"
 "http://www.w3.org/Graphics/SVG/1.1/DTD/svg11.dtd">
<!-- Generated by graphviz version 2.40.1 (20161225.0304)
 -->
<!-- Title: dm_channel_mappings Pages: 1 -->
<svg width="663pt" height="772pt"
     viewBox="0.00 0.00 662.50 772.00" xmlns="http://www.w3.org/2000/svg">
<g id="graph0" class="graph" transform="scale(1 1) rotate(0) translate(4 768)">
<title>dm_channel_mappings</title>
<polygon fill="#ffffff" stroke="transparent" points="-4,4 -4,-768 658.5,-768 658.5,4 -4,4"/>
<!-- dm_channel_mappings -->
<g id="node1" class="node">
<title>dm_channel_mappings</title>
<polygon fill="#efefef" stroke="transparent" points="273.5,-682.5 273.5,-717.5 570.5,-717.5 570.5,-682.5 273.5,-682.5"/>
<polygon fill="none" stroke="#000000" points="273.5,-682.5 273.5,-717.5 570.5,-717.5 570.5,-682.5 273.5,-682.5"/>
<text text-anchor="start" x="280.3464" y="-695.3" font-family="Arial Bold" font-size="18.00" fill="#000000">dm_channel_mappings</text>
<text text-anchor="start" x="466.3998" y="-695.3" font-family="Arial" font-size="14.00" fill="#000000"> </text>
<text text-anchor="start" x="470.2904" y="-695.3" font-family="Arial" font-size="14.00" fill="#666666">[BASE TABLE]</text>
<polygon fill="none" stroke="#000000" points="273.5,-652.5 273.5,-682.5 570.5,-682.5 570.5,-652.5 273.5,-652.5"/>
<text text-anchor="start" x="280.5" y="-663.9" font-family="Arial" font-size="14.00" fill="#000000">channel_id </text>
<text text-anchor="start" x="352.082" y="-663.9" font-family="Arial" font-size="14.00" fill="#666666">[char(36)]</text>
<polygon fill="none" stroke="#000000" points="273.5,-622.5 273.5,-652.5 570.5,-652.5 570.5,-622.5 273.5,-622.5"/>
<text text-anchor="start" x="280.5" y="-633.9" font-family="Arial" font-size="14.00" fill="#000000">user1 </text>
<text text-anchor="start" x="319.399" y="-633.9" font-family="Arial" font-size="14.00" fill="#666666">[char(36)]</text>
<polygon fill="none" stroke="#000000" points="273.5,-592.5 273.5,-622.5 570.5,-622.5 570.5,-592.5 273.5,-592.5"/>
<text text-anchor="start" x="280.5" y="-603.9" font-family="Arial" font-size="14.00" fill="#000000">user2 </text>
<text text-anchor="start" x="319.399" y="-603.9" font-family="Arial" font-size="14.00" fill="#666666">[char(36)]</text>
<polygon fill="none" stroke="#000000" stroke-width="3" points="271.5,-591.5 271.5,-719.5 571.5,-719.5 571.5,-591.5 271.5,-591.5"/>
</g>
<!-- channels -->
<g id="node2" class="node">
<title>channels</title>
<polygon fill="#efefef" stroke="transparent" points="43.5,-417.5 43.5,-452.5 226.5,-452.5 226.5,-417.5 43.5,-417.5"/>
<polygon fill="none" stroke="#000000" points="43.5,-417.5 43.5,-452.5 226.5,-452.5 226.5,-417.5 43.5,-417.5"/>
<text text-anchor="start" x="50.3605" y="-430.3" font-family="Arial Bold" font-size="18.00" fill="#000000">channels</text>
<text text-anchor="start" x="122.3857" y="-430.3" font-family="Arial" font-size="14.00" fill="#000000"> </text>
<text text-anchor="start" x="126.2763" y="-430.3" font-family="Arial" font-size="14.00" fill="#666666">[BASE TABLE]</text>
<polygon fill="none" stroke="#000000" points="43.5,-387.5 43.5,-417.5 226.5,-417.5 226.5,-387.5 43.5,-387.5"/>
<text text-anchor="start" x="50.5" y="-398.9" font-family="Arial" font-size="14.00" fill="#000000">id </text>
<text text-anchor="start" x="65.2798" y="-398.9" font-family="Arial" font-size="14.00" fill="#666666">[char(36)]</text>
<polygon fill="none" stroke="#000000" points="43.5,-357.5 43.5,-387.5 226.5,-387.5 226.5,-357.5 43.5,-357.5"/>
<text text-anchor="start" x="50.5" y="-368.9" font-family="Arial" font-size="14.00" fill="#000000">name </text>
<text text-anchor="start" x="89.399" y="-368.9" font-family="Arial" font-size="14.00" fill="#666666">[varchar(20)]</text>
<polygon fill="none" stroke="#000000" points="43.5,-327.5 43.5,-357.5 226.5,-357.5 226.5,-327.5 43.5,-327.5"/>
<text text-anchor="start" x="50.5" y="-338.9" font-family="Arial" font-size="14.00" fill="#000000">parent_id </text>
<text text-anchor="start" x="112.744" y="-338.9" font-family="Arial" font-size="14.00" fill="#666666">[char(36)]</text>
<polygon fill="none" stroke="#000000" points="43.5,-297.5 43.5,-327.5 226.5,-327.5 226.5,-297.5 43.5,-297.5"/>
<text text-anchor="start" x="50.5" y="-308.9" font-family="Arial" font-size="14.00" fill="#000000">topic </text>
<text text-anchor="start" x="83.953" y="-308.9" font-family="Arial" font-size="14.00" fill="#666666">[text]</text>
<polygon fill="none" stroke="#000000" points="43.5,-267.5 43.5,-297.5 226.5,-297.5 226.5,-267.5 43.5,-267.5"/>
<text text-anchor="start" x="50.5" y="-278.9" font-family="Arial" font-size="14.00" fill="#000000">is_forced </text>
<text text-anchor="start" x="111.1788" y="-278.9" font-family="Arial" font-size="14.00" fill="#666666">[tinyint(1)]</text>
<polygon fill="none" stroke="#000000" points="43.5,-237.5 43.5,-267.5 226.5,-267.5 226.5,-237.5 43.5,-237.5"/>
<text text-anchor="start" x="50.5" y="-248.9" font-family="Arial" font-size="14.00" fill="#000000">is_public </text>
<text text-anchor="start" x="108.8408" y="-248.9" font-family="Arial" font-size="14.00" fill="#666666">[tinyint(1)]</text>
<polygon fill="none" stroke="#000000" points="43.5,-207.5 43.5,-237.5 226.5,-237.5 226.5,-207.5 43.5,-207.5"/>
<text text-anchor="start" x="50.5" y="-218.9" font-family="Arial" font-size="14.00" fill="#000000">is_visible </text>
<text text-anchor="start" x="111.1648" y="-218.9" font-family="Arial" font-size="14.00" fill="#666666">[tinyint(1)]</text>
<polygon fill="none" stroke="#000000" points="43.5,-177.5 43.5,-207.5 226.5,-207.5 226.5,-177.5 43.5,-177.5"/>
<text text-anchor="start" x="50.5" y="-188.9" font-family="Arial" font-size="14.00" fill="#000000">creator_id </text>
<text text-anchor="start" x="116.622" y="-188.9" font-family="Arial" font-size="14.00" fill="#666666">[char(36)]</text>
<polygon fill="none" stroke="#000000" points="43.5,-147.5 43.5,-177.5 226.5,-177.5 226.5,-147.5 43.5,-147.5"/>
<text text-anchor="start" x="50.5" y="-158.9" font-family="Arial" font-size="14.00" fill="#000000">updater_id </text>
<text text-anchor="start" x="120.5266" y="-158.9" font-family="Arial" font-size="14.00" fill="#666666">[char(36)]</text>
<polygon fill="none" stroke="#000000" points="43.5,-117.5 43.5,-147.5 226.5,-147.5 226.5,-117.5 43.5,-117.5"/>
<text text-anchor="start" x="50.5" y="-128.9" font-family="Arial" font-size="14.00" fill="#000000">created_at </text>
<text text-anchor="start" x="120.528" y="-128.9" font-family="Arial" font-size="14.00" fill="#666666">[datetime(6)]</text>
<polygon fill="none" stroke="#000000" points="43.5,-87.5 43.5,-117.5 226.5,-117.5 226.5,-87.5 43.5,-87.5"/>
<text text-anchor="start" x="50.5" y="-98.9" font-family="Arial" font-size="14.00" fill="#000000">updated_at </text>
<text text-anchor="start" x="124.4326" y="-98.9" font-family="Arial" font-size="14.00" fill="#666666">[datetime(6)]</text>
<polygon fill="none" stroke="#000000" points="43.5,-57.5 43.5,-87.5 226.5,-87.5 226.5,-57.5 43.5,-57.5"/>
<text text-anchor="start" x="50.5" y="-68.9" font-family="Arial" font-size="14.00" fill="#000000">deleted_at </text>
<text text-anchor="start" x="119.7566" y="-68.9" font-family="Arial" font-size="14.00" fill="#666666">[datetime(6)]</text>
</g>
<!-- dm_channel_mappings&#45;&gt;channels -->
<g id="edge1" class="edge">
<title>dm_channel_mappings:channel_id&#45;&gt;channels:id</title>
<path fill="none" stroke="#000000" d="M263.4766,-666.7861C165.2374,-651.6979 342.4947,-402.5 226.5,-402.5"/>
<polygon fill="#000000" stroke="#000000" points="263.5253,-666.7895 273.1803,-671.9886 268.5126,-667.1447 273.5,-667.5 273.5,-667.5 273.5,-667.5 268.5126,-667.1447 273.8197,-663.0114 263.5253,-666.7895 263.5253,-666.7895"/>
<text text-anchor="start" x="9.878" y="-677.5" font-family="Arial" font-size="10.00" fill="#000000">FOREIGN KEY (channel_id) REFERENCES channels (id)</text>
</g>
<!-- users -->
<g id="node3" class="node">
<title>users</title>
<polygon fill="#efefef" stroke="transparent" points="330.5,-432.5 330.5,-467.5 513.5,-467.5 513.5,-432.5 330.5,-432.5"/>
<polygon fill="none" stroke="#000000" points="330.5,-432.5 330.5,-467.5 513.5,-467.5 513.5,-432.5 330.5,-432.5"/>
<text text-anchor="start" x="351.3708" y="-445.3" font-family="Arial Bold" font-size="18.00" fill="#000000">users</text>
<text text-anchor="start" x="395.3754" y="-445.3" font-family="Arial" font-size="14.00" fill="#000000"> </text>
<text text-anchor="start" x="399.266" y="-445.3" font-family="Arial" font-size="14.00" fill="#666666">[BASE TABLE]</text>
<polygon fill="none" stroke="#000000" points="330.5,-402.5 330.5,-432.5 513.5,-432.5 513.5,-402.5 330.5,-402.5"/>
<text text-anchor="start" x="337.5" y="-413.9" font-family="Arial" font-size="14.00" fill="#000000">id </text>
<text text-anchor="start" x="352.2798" y="-413.9" font-family="Arial" font-size="14.00" fill="#666666">[char(36)]</text>
<polygon fill="none" stroke="#000000" points="330.5,-372.5 330.5,-402.5 513.5,-402.5 513.5,-372.5 330.5,-372.5"/>
<text text-anchor="start" x="337.5" y="-383.9" font-family="Arial" font-size="14.00" fill="#000000">name </text>
<text text-anchor="start" x="376.399" y="-383.9" font-family="Arial" font-size="14.00" fill="#666666">[varchar(32)]</text>
<polygon fill="none" stroke="#000000" points="330.5,-342.5 330.5,-372.5 513.5,-372.5 513.5,-342.5 330.5,-342.5"/>
<text text-anchor="start" x="337.2104" y="-353.9" font-family="Arial" font-size="14.00" fill="#000000">display_name </text>
<text text-anchor="start" x="427.453" y="-353.9" font-family="Arial" font-size="14.00" fill="#666666">[varchar(64)]</text>
<polygon fill="none" stroke="#000000" points="330.5,-312.5 330.5,-342.5 513.5,-342.5 513.5,-312.5 330.5,-312.5"/>
<text text-anchor="start" x="337.5" y="-323.9" font-family="Arial" font-size="14.00" fill="#000000">password </text>
<text text-anchor="start" x="401.2882" y="-323.9" font-family="Arial" font-size="14.00" fill="#666666">[char(128)]</text>
<polygon fill="none" stroke="#000000" points="330.5,-282.5 330.5,-312.5 513.5,-312.5 513.5,-282.5 330.5,-282.5"/>
<text text-anchor="start" x="337.5" y="-293.9" font-family="Arial" font-size="14.00" fill="#000000">salt </text>
<text text-anchor="start" x="363.1704" y="-293.9" font-family="Arial" font-size="14.00" fill="#666666">[char(128)]</text>
<polygon fill="none" stroke="#000000" points="330.5,-252.5 330.5,-282.5 513.5,-282.5 513.5,-252.5 330.5,-252.5"/>
<text text-anchor="start" x="337.5" y="-263.9" font-family="Arial" font-size="14.00" fill="#000000">icon </text>
<text text-anchor="start" x="367.0624" y="-263.9" font-family="Arial" font-size="14.00" fill="#666666">[char(36)]</text>
<polygon fill="none" stroke="#000000" points="330.5,-222.5 330.5,-252.5 513.5,-252.5 513.5,-222.5 330.5,-222.5"/>
<text text-anchor="start" x="337.5" y="-233.9" font-family="Arial" font-size="14.00" fill="#000000">status </text>
<text text-anchor="start" x="378.737" y="-233.9" font-family="Arial" font-size="14.00" fill="#666666">[tinyint(4)]</text>
<polygon fill="none" stroke="#000000" points="330.5,-192.5 330.5,-222.5 513.5,-222.5 513.5,-192.5 330.5,-192.5"/>
<text text-anchor="start" x="337.5" y="-203.9" font-family="Arial" font-size="14.00" fill="#000000">bot </text>
<text text-anchor="start" x="360.8464" y="-203.9" font-family="Arial" font-size="14.00" fill="#666666">[tinyint(1)]</text>
<polygon fill="none" stroke="#000000" points="330.5,-162.5 330.5,-192.5 513.5,-192.5 513.5,-162.5 330.5,-162.5"/>
<text text-anchor="start" x="337.5" y="-173.9" font-family="Arial" font-size="14.00" fill="#000000">role </text>
<text text-anchor="start" x="364.723" y="-173.9" font-family="Arial" font-size="14.00" fill="#666666">[varchar(30)]</text>
<polygon fill="none" stroke="#000000" points="330.5,-132.5 330.5,-162.5 513.5,-162.5 513.5,-132.5 330.5,-132.5"/>
<text text-anchor="start" x="337.5" y="-143.9" font-family="Arial" font-size="14.00" fill="#000000">twitter_id </text>
<text text-anchor="start" x="397.3906" y="-143.9" font-family="Arial" font-size="14.00" fill="#666666">[varchar(15)]</text>
<polygon fill="none" stroke="#000000" points="330.5,-102.5 330.5,-132.5 513.5,-132.5 513.5,-102.5 330.5,-102.5"/>
<text text-anchor="start" x="337.5" y="-113.9" font-family="Arial" font-size="14.00" fill="#000000">last_online </text>
<text text-anchor="start" x="408.2966" y="-113.9" font-family="Arial" font-size="14.00" fill="#666666">[datetime(6)]</text>
<polygon fill="none" stroke="#000000" points="330.5,-72.5 330.5,-102.5 513.5,-102.5 513.5,-72.5 330.5,-72.5"/>
<text text-anchor="start" x="337.5" y="-83.9" font-family="Arial" font-size="14.00" fill="#000000">created_at </text>
<text text-anchor="start" x="407.528" y="-83.9" font-family="Arial" font-size="14.00" fill="#666666">[datetime(6)]</text>
<polygon fill="none" stroke="#000000" points="330.5,-42.5 330.5,-72.5 513.5,-72.5 513.5,-42.5 330.5,-42.5"/>
<text text-anchor="start" x="337.5" y="-53.9" font-family="Arial" font-size="14.00" fill="#000000">updated_at </text>
<text text-anchor="start" x="411.4326" y="-53.9" font-family="Arial" font-size="14.00" fill="#666666">[datetime(6)]</text>
</g>
<!-- dm_channel_mappings&#45;&gt;users -->
<g id="edge2" class="edge">
<title>dm_channel_mappings:user1&#45;&gt;users:id</title>
<path fill="none" stroke="#000000" d="M263.3775,-635.9834C239.5221,-627.2339 266.0617,-582.3633 273.5,-547 286.4438,-485.4624 267.6158,-417.5 330.5,-417.5"/>
<polygon fill="#000000" stroke="#000000" points="263.6104,-636.0182 272.8332,-641.9503 268.5552,-636.7591 273.5,-637.5 273.5,-637.5 273.5,-637.5 268.5552,-636.7591 274.1668,-633.0497 263.6104,-636.0182 263.6104,-636.0182"/>
<text text-anchor="start" x="48.334" y="-647.5" font-family="Arial" font-size="10.00" fill="#000000">FOREIGN KEY (user1) REFERENCES users (id)</text>
</g>
<!-- dm_channel_mappings&#45;&gt;users -->
<g id="edge3" class="edge">
<title>dm_channel_mappings:user2&#45;&gt;users:id</title>
<path fill="none" stroke="#000000" d="M421.5618,-582.3368C413.2075,-540.6706 351.3872,-557.4075 330.5,-511 313.4445,-473.1057 288.9444,-417.5 330.5,-417.5"/>
<polygon fill="#000000" stroke="#000000" points="421.5807,-582.5423 418.0191,-592.9137 422.0404,-587.5212 422.5,-592.5 422.5,-592.5 422.5,-592.5 422.0404,-587.5212 426.9809,-592.0863 421.5807,-582.5423 421.5807,-582.5423"/>
<text text-anchor="start" x="429.334" y="-602.5" font-family="Arial" font-size="10.00" fill="#000000">FOREIGN KEY (user2) REFERENCES users (id)</text>
</g>
</g>
</svg>
