<?xml version="1.0" encoding="UTF-8" standalone="no"?>
<!DOCTYPE svg PUBLIC "-//W3C//DTD SVG 1.1//EN"
 "http://www.w3.org/Graphics/SVG/1.1/DTD/svg11.dtd">
<!-- Generated by graphviz version 2.40.1 (20161225.0304)
 -->
<!-- Title: dm_channel_mappings Pages: 1 -->
<svg width="636pt" height="770pt"
     viewBox="0.00 0.00 635.50 770.00" xmlns="http://www.w3.org/2000/svg">
<g id="graph0" class="graph" transform="scale(1 1) rotate(0) translate(4 766)">
<title>dm_channel_mappings</title>
<polygon fill="#ffffff" stroke="transparent" points="-4,4 -4,-766 631.5,-766 631.5,4 -4,4"/>
<!-- dm_channel_mappings -->
<g id="node1" class="node">
<title>dm_channel_mappings</title>
<polygon fill="#efefef" stroke="transparent" points="271.5,-682 271.5,-716 581.5,-716 581.5,-682 271.5,-682"/>
<polygon fill="none" stroke="#000000" points="271.5,-682 271.5,-716 581.5,-716 581.5,-682 271.5,-682"/>
<text text-anchor="start" x="278.4912" y="-695.6" font-family="Arial Bold" font-size="18.00" fill="#000000">dm_channel_mappings</text>
<text text-anchor="start" x="478.5391" y="-695.6" font-family="Arial" font-size="14.00" fill="#000000"> </text>
<text text-anchor="start" x="482.4287" y="-695.6" font-family="Arial" font-size="14.00" fill="#666666">[BASE TABLE]</text>
<polygon fill="none" stroke="#000000" points="271.5,-652 271.5,-682 581.5,-682 581.5,-652 271.5,-652"/>
<text text-anchor="start" x="278.5" y="-664.8" font-family="Arial" font-size="14.00" fill="#000000">channel_id </text>
<text text-anchor="start" x="350.1133" y="-664.8" font-family="Arial" font-size="14.00" fill="#666666">[char(36)]</text>
<polygon fill="none" stroke="#000000" points="271.5,-622 271.5,-652 581.5,-652 581.5,-622 271.5,-622"/>
<text text-anchor="start" x="278.5" y="-634.8" font-family="Arial" font-size="14.00" fill="#000000">user1 </text>
<text text-anchor="start" x="317.4102" y="-634.8" font-family="Arial" font-size="14.00" fill="#666666">[char(36)]</text>
<polygon fill="none" stroke="#000000" points="271.5,-592 271.5,-622 581.5,-622 581.5,-592 271.5,-592"/>
<text text-anchor="start" x="278.5" y="-604.8" font-family="Arial" font-size="14.00" fill="#000000">user2 </text>
<text text-anchor="start" x="317.4102" y="-604.8" font-family="Arial" font-size="14.00" fill="#666666">[char(36)]</text>
<polygon fill="none" stroke="#000000" stroke-width="3" points="270,-590.5 270,-717.5 583,-717.5 583,-590.5 270,-590.5"/>
</g>
<!-- channels -->
<g id="node2" class="node">
<title>channels</title>
<polygon fill="#efefef" stroke="transparent" points="43.5,-418 43.5,-452 230.5,-452 230.5,-418 43.5,-418"/>
<polygon fill="none" stroke="#000000" points="43.5,-418 43.5,-452 230.5,-452 230.5,-418 43.5,-418"/>
<text text-anchor="start" x="50.0005" y="-431.6" font-family="Arial Bold" font-size="18.00" fill="#000000">channels</text>
<text text-anchor="start" x="128.0298" y="-431.6" font-family="Arial" font-size="14.00" fill="#000000"> </text>
<text text-anchor="start" x="131.9194" y="-431.6" font-family="Arial" font-size="14.00" fill="#666666">[BASE TABLE]</text>
<polygon fill="none" stroke="#000000" points="43.5,-388 43.5,-418 230.5,-418 230.5,-388 43.5,-388"/>
<text text-anchor="start" x="50.5" y="-400.8" font-family="Arial" font-size="14.00" fill="#000000">id </text>
<text text-anchor="start" x="65.2861" y="-400.8" font-family="Arial" font-size="14.00" fill="#666666">[char(36)]</text>
<polygon fill="none" stroke="#000000" points="43.5,-358 43.5,-388 230.5,-388 230.5,-358 43.5,-358"/>
<text text-anchor="start" x="50.5" y="-370.8" font-family="Arial" font-size="14.00" fill="#000000">name </text>
<text text-anchor="start" x="89.4102" y="-370.8" font-family="Arial" font-size="14.00" fill="#666666">[varchar(20)]</text>
<polygon fill="none" stroke="#000000" points="43.5,-328 43.5,-358 230.5,-358 230.5,-328 43.5,-328"/>
<text text-anchor="start" x="50.5" y="-340.8" font-family="Arial" font-size="14.00" fill="#000000">parent_id </text>
<text text-anchor="start" x="112.7686" y="-340.8" font-family="Arial" font-size="14.00" fill="#666666">[char(36)]</text>
<polygon fill="none" stroke="#000000" points="43.5,-298 43.5,-328 230.5,-328 230.5,-298 43.5,-298"/>
<text text-anchor="start" x="50.5" y="-310.8" font-family="Arial" font-size="14.00" fill="#000000">topic </text>
<text text-anchor="start" x="83.9619" y="-310.8" font-family="Arial" font-size="14.00" fill="#666666">[text]</text>
<polygon fill="none" stroke="#000000" points="43.5,-268 43.5,-298 230.5,-298 230.5,-268 43.5,-268"/>
<text text-anchor="start" x="50.5" y="-280.8" font-family="Arial" font-size="14.00" fill="#000000">is_forced </text>
<text text-anchor="start" x="111.1963" y="-280.8" font-family="Arial" font-size="14.00" fill="#666666">[tinyint(1)]</text>
<polygon fill="none" stroke="#000000" points="43.5,-238 43.5,-268 230.5,-268 230.5,-238 43.5,-238"/>
<text text-anchor="start" x="50.5" y="-250.8" font-family="Arial" font-size="14.00" fill="#000000">is_public </text>
<text text-anchor="start" x="108.8652" y="-250.8" font-family="Arial" font-size="14.00" fill="#666666">[tinyint(1)]</text>
<polygon fill="none" stroke="#000000" points="43.5,-208 43.5,-238 230.5,-238 230.5,-208 43.5,-208"/>
<text text-anchor="start" x="50.5" y="-220.8" font-family="Arial" font-size="14.00" fill="#000000">is_visible </text>
<text text-anchor="start" x="111.1895" y="-220.8" font-family="Arial" font-size="14.00" fill="#666666">[tinyint(1)]</text>
<polygon fill="none" stroke="#000000" points="43.5,-178 43.5,-208 230.5,-208 230.5,-178 43.5,-178"/>
<text text-anchor="start" x="50.5" y="-190.8" font-family="Arial" font-size="14.00" fill="#000000">creator_id </text>
<text text-anchor="start" x="116.6445" y="-190.8" font-family="Arial" font-size="14.00" fill="#666666">[char(36)]</text>
<polygon fill="none" stroke="#000000" points="43.5,-148 43.5,-178 230.5,-178 230.5,-148 43.5,-148"/>
<text text-anchor="start" x="50.5" y="-160.8" font-family="Arial" font-size="14.00" fill="#000000">updater_id </text>
<text text-anchor="start" x="120.5547" y="-160.8" font-family="Arial" font-size="14.00" fill="#666666">[char(36)]</text>
<polygon fill="none" stroke="#000000" points="43.5,-118 43.5,-148 230.5,-148 230.5,-118 43.5,-118"/>
<text text-anchor="start" x="50.5" y="-130.8" font-family="Arial" font-size="14.00" fill="#000000">created_at </text>
<text text-anchor="start" x="120.5479" y="-130.8" font-family="Arial" font-size="14.00" fill="#666666">[timestamp(6)]</text>
<polygon fill="none" stroke="#000000" points="43.5,-88 43.5,-118 230.5,-118 230.5,-88 43.5,-88"/>
<text text-anchor="start" x="50.5" y="-100.8" font-family="Arial" font-size="14.00" fill="#000000">updated_at </text>
<text text-anchor="start" x="124.458" y="-100.8" font-family="Arial" font-size="14.00" fill="#666666">[timestamp(6)]</text>
<polygon fill="none" stroke="#000000" points="43.5,-58 43.5,-88 230.5,-88 230.5,-58 43.5,-58"/>
<text text-anchor="start" x="50.5" y="-70.8" font-family="Arial" font-size="14.00" fill="#000000">deleted_at </text>
<text text-anchor="start" x="119.7822" y="-70.8" font-family="Arial" font-size="14.00" fill="#666666">[timestamp(6)]</text>
</g>
<!-- dm_channel_mappings&#45;&gt;channels -->
<g id="edge1" class="edge">
<title>dm_channel_mappings:channel_id&#45;&gt;channels:id</title>
<path fill="none" stroke="#000000" d="M261.2724,-666.2427C164.7323,-650.7578 345.5293,-403 230.5,-403"/>
<polygon fill="#000000" stroke="#000000" points="261.5273,-666.2615 271.1677,-671.4877 266.5137,-666.6307 271.5,-667 271.5,-667 271.5,-667 266.5137,-666.6307 271.8323,-662.5123 261.5273,-666.2615 261.5273,-666.2615"/>
<text text-anchor="start" x="7.9355" y="-676.5" font-family="Arial" font-size="10.00" fill="#000000">FOREIGN KEY (channel_id) REFERENCES channels (id)</text>
</g>
<!-- users -->
<g id="node3" class="node">
<title>users</title>
<polygon fill="#efefef" stroke="transparent" points="334.5,-433 334.5,-467 517.5,-467 517.5,-433 334.5,-433"/>
<polygon fill="none" stroke="#000000" points="334.5,-433 334.5,-467 517.5,-467 517.5,-433 334.5,-433"/>
<text text-anchor="start" x="353.999" y="-446.6" font-family="Arial Bold" font-size="18.00" fill="#000000">users</text>
<text text-anchor="start" x="402.0313" y="-446.6" font-family="Arial" font-size="14.00" fill="#000000"> </text>
<text text-anchor="start" x="405.9209" y="-446.6" font-family="Arial" font-size="14.00" fill="#666666">[BASE TABLE]</text>
<polygon fill="none" stroke="#000000" points="334.5,-403 334.5,-433 517.5,-433 517.5,-403 334.5,-403"/>
<text text-anchor="start" x="341.5" y="-415.8" font-family="Arial" font-size="14.00" fill="#000000">id </text>
<text text-anchor="start" x="356.2861" y="-415.8" font-family="Arial" font-size="14.00" fill="#666666">[char(36)]</text>
<polygon fill="none" stroke="#000000" points="334.5,-373 334.5,-403 517.5,-403 517.5,-373 334.5,-373"/>
<text text-anchor="start" x="341.5" y="-385.8" font-family="Arial" font-size="14.00" fill="#000000">name </text>
<text text-anchor="start" x="380.4102" y="-385.8" font-family="Arial" font-size="14.00" fill="#666666">[varchar(32)]</text>
<polygon fill="none" stroke="#000000" points="334.5,-343 334.5,-373 517.5,-373 517.5,-343 334.5,-343"/>
<text text-anchor="start" x="341.1831" y="-355.8" font-family="Arial" font-size="14.00" fill="#000000">display_name </text>
<text text-anchor="start" x="431.4585" y="-355.8" font-family="Arial" font-size="14.00" fill="#666666">[varchar(64)]</text>
<polygon fill="none" stroke="#000000" points="334.5,-313 334.5,-343 517.5,-343 517.5,-313 334.5,-313"/>
<text text-anchor="start" x="341.5" y="-325.8" font-family="Arial" font-size="14.00" fill="#000000">password </text>
<text text-anchor="start" x="405.3066" y="-325.8" font-family="Arial" font-size="14.00" fill="#666666">[char(128)]</text>
<polygon fill="none" stroke="#000000" points="334.5,-283 334.5,-313 517.5,-313 517.5,-283 334.5,-283"/>
<text text-anchor="start" x="341.5" y="-295.8" font-family="Arial" font-size="14.00" fill="#000000">salt </text>
<text text-anchor="start" x="367.1758" y="-295.8" font-family="Arial" font-size="14.00" fill="#666666">[char(128)]</text>
<polygon fill="none" stroke="#000000" points="334.5,-253 334.5,-283 517.5,-283 517.5,-253 334.5,-253"/>
<text text-anchor="start" x="341.5" y="-265.8" font-family="Arial" font-size="14.00" fill="#000000">icon </text>
<text text-anchor="start" x="371.0723" y="-265.8" font-family="Arial" font-size="14.00" fill="#666666">[char(36)]</text>
<polygon fill="none" stroke="#000000" points="334.5,-223 334.5,-253 517.5,-253 517.5,-223 334.5,-223"/>
<text text-anchor="start" x="341.5" y="-235.8" font-family="Arial" font-size="14.00" fill="#000000">status </text>
<text text-anchor="start" x="382.7412" y="-235.8" font-family="Arial" font-size="14.00" fill="#666666">[tinyint(4)]</text>
<polygon fill="none" stroke="#000000" points="334.5,-193 334.5,-223 517.5,-223 517.5,-193 334.5,-193"/>
<text text-anchor="start" x="341.5" y="-205.8" font-family="Arial" font-size="14.00" fill="#000000">bot </text>
<text text-anchor="start" x="364.8516" y="-205.8" font-family="Arial" font-size="14.00" fill="#666666">[tinyint(1)]</text>
<polygon fill="none" stroke="#000000" points="334.5,-163 334.5,-193 517.5,-193 517.5,-163 334.5,-163"/>
<text text-anchor="start" x="341.5" y="-175.8" font-family="Arial" font-size="14.00" fill="#000000">role </text>
<text text-anchor="start" x="368.7344" y="-175.8" font-family="Arial" font-size="14.00" fill="#666666">[varchar(30)]</text>
<polygon fill="none" stroke="#000000" points="334.5,-133 334.5,-163 517.5,-163 517.5,-133 334.5,-133"/>
<text text-anchor="start" x="341.5" y="-145.8" font-family="Arial" font-size="14.00" fill="#000000">twitter_id </text>
<text text-anchor="start" x="401.4102" y="-145.8" font-family="Arial" font-size="14.00" fill="#666666">[varchar(15)]</text>
<polygon fill="none" stroke="#000000" points="334.5,-103 334.5,-133 517.5,-133 517.5,-103 334.5,-103"/>
<text text-anchor="start" x="341.5" y="-115.8" font-family="Arial" font-size="14.00" fill="#000000">last_online </text>
<text text-anchor="start" x="412.3271" y="-115.8" font-family="Arial" font-size="14.00" fill="#666666">[timestamp(6)]</text>
<polygon fill="none" stroke="#000000" points="334.5,-73 334.5,-103 517.5,-103 517.5,-73 334.5,-73"/>
<text text-anchor="start" x="341.5" y="-85.8" font-family="Arial" font-size="14.00" fill="#000000">created_at </text>
<text text-anchor="start" x="411.5479" y="-85.8" font-family="Arial" font-size="14.00" fill="#666666">[timestamp(6)]</text>
<polygon fill="none" stroke="#000000" points="334.5,-43 334.5,-73 517.5,-73 517.5,-43 334.5,-43"/>
<text text-anchor="start" x="341.5" y="-55.8" font-family="Arial" font-size="14.00" fill="#000000">updated_at </text>
<text text-anchor="start" x="415.458" y="-55.8" font-family="Arial" font-size="14.00" fill="#666666">[timestamp(6)]</text>
</g>
<!-- dm_channel_mappings&#45;&gt;users -->
<g id="edge2" class="edge">
<title>dm_channel_mappings:user1&#45;&gt;users:id</title>
<path fill="none" stroke="#000000" d="M261.5259,-635.4817C233.7895,-625.9368 247.5323,-573.7304 271.5,-546 343.7558,-462.4005 445.2442,-593.5995 517.5,-510 544.2377,-479.0647 558.3889,-418 517.5,-418"/>
<polygon fill="#000000" stroke="#000000" points="261.6139,-635.495 270.8228,-641.4488 266.5569,-636.2475 271.5,-637 271.5,-637 271.5,-637 266.5569,-636.2475 272.1772,-632.5512 261.6139,-635.495 261.6139,-635.495"/>
<text text-anchor="start" x="46.4033" y="-646.5" font-family="Arial" font-size="10.00" fill="#000000">FOREIGN KEY (user1) REFERENCES users (id)</text>
</g>
<!-- dm_channel_mappings&#45;&gt;users -->
<g id="edge3" class="edge">
<title>dm_channel_mappings:user2&#45;&gt;users:id</title>
<path fill="none" stroke="#000000" d="M427.4285,-581.8618C435.6969,-540.2544 496.879,-556.3395 517.5,-510 534.1238,-472.643 558.3889,-418 517.5,-418"/>
<polygon fill="#000000" stroke="#000000" points="427.4121,-582.0417 422.0188,-591.5895 426.9561,-587.0208 426.5,-592 426.5,-592 426.5,-592 426.9561,-587.0208 430.9812,-592.4105 427.4121,-582.0417 427.4121,-582.0417"/>
<text text-anchor="start" x="201.4033" y="-601.5" font-family="Arial" font-size="10.00" fill="#000000">FOREIGN KEY (user2) REFERENCES users (id)</text>
</g>
</g>
</svg>
