<?xml version="1.0" encoding="UTF-8" standalone="no"?>
<!DOCTYPE svg PUBLIC "-//W3C//DTD SVG 1.1//EN"
 "http://www.w3.org/Graphics/SVG/1.1/DTD/svg11.dtd">
<!-- Generated by graphviz version 2.40.1 (20161225.0304)
 -->
<!-- Title: external_provider_users Pages: 1 -->
<svg width="598pt" height="802pt"
 viewBox="0.00 0.00 598.00 802.00" xmlns="http://www.w3.org/2000/svg" xmlns:xlink="http://www.w3.org/1999/xlink">
<g id="graph0" class="graph" transform="scale(1 1) rotate(0) translate(4 798)">
<title>external_provider_users</title>
<polygon fill="#ffffff" stroke="transparent" points="-4,4 -4,-798 594,-798 594,4 -4,4"/>
<!-- external_provider_users -->
<g id="node1" class="node">
<title>external_provider_users</title>
<polygon fill="#efefef" stroke="transparent" points="240,-712.5 240,-747.5 544,-747.5 544,-712.5 240,-712.5"/>
<polygon fill="none" stroke="#000000" points="240,-712.5 240,-747.5 544,-747.5 544,-712.5 240,-712.5"/>
<text text-anchor="start" x="246.8562" y="-725.3" font-family="Arial Bold" font-size="18.00" fill="#000000">external_provider_users</text>
<text text-anchor="start" x="439.89" y="-725.3" font-family="Arial" font-size="14.00" fill="#000000"> </text>
<text text-anchor="start" x="443.7806" y="-725.3" font-family="Arial" font-size="14.00" fill="#666666">[BASE TABLE]</text>
<polygon fill="none" stroke="#000000" points="240,-682.5 240,-712.5 544,-712.5 544,-682.5 240,-682.5"/>
<text text-anchor="start" x="247" y="-693.9" font-family="Arial" font-size="14.00" fill="#000000">user_id </text>
<text text-anchor="start" x="296.7882" y="-693.9" font-family="Arial" font-size="14.00" fill="#666666">[char(36)]</text>
<polygon fill="none" stroke="#000000" points="240,-652.5 240,-682.5 544,-682.5 544,-652.5 240,-652.5"/>
<text text-anchor="start" x="247" y="-663.9" font-family="Arial" font-size="14.00" fill="#000000">provider_name </text>
<text text-anchor="start" x="344.2398" y="-663.9" font-family="Arial" font-size="14.00" fill="#666666">[varchar(30)]</text>
<polygon fill="none" stroke="#000000" points="240,-622.5 240,-652.5 544,-652.5 544,-622.5 240,-622.5"/>
<text text-anchor="start" x="247" y="-633.9" font-family="Arial" font-size="14.00" fill="#000000">external_id </text>
<text text-anchor="start" x="319.3506" y="-633.9" font-family="Arial" font-size="14.00" fill="#666666">[varchar(100)]</text>
<polygon fill="none" stroke="#000000" points="240,-592.5 240,-622.5 544,-622.5 544,-592.5 240,-592.5"/>
<text text-anchor="start" x="247" y="-603.9" font-family="Arial" font-size="14.00" fill="#000000">extra </text>
<text text-anchor="start" x="282.007" y="-603.9" font-family="Arial" font-size="14.00" fill="#666666">[text]</text>
<polygon fill="none" stroke="#000000" points="240,-562.5 240,-592.5 544,-592.5 544,-562.5 240,-562.5"/>
<text text-anchor="start" x="247" y="-573.9" font-family="Arial" font-size="14.00" fill="#000000">created_at </text>
<text text-anchor="start" x="317.028" y="-573.9" font-family="Arial" font-size="14.00" fill="#666666">[datetime(6)]</text>
<polygon fill="none" stroke="#000000" points="240,-532.5 240,-562.5 544,-562.5 544,-532.5 240,-532.5"/>
<text text-anchor="start" x="247" y="-543.9" font-family="Arial" font-size="14.00" fill="#000000">updated_at </text>
<text text-anchor="start" x="320.9326" y="-543.9" font-family="Arial" font-size="14.00" fill="#666666">[datetime(6)]</text>
<polygon fill="none" stroke="#000000" stroke-width="3" points="238.5,-531.5 238.5,-749.5 545.5,-749.5 545.5,-531.5 238.5,-531.5"/>
</g>
<!-- users -->
<g id="node2" class="node">
<title>users</title>
<polygon fill="#efefef" stroke="transparent" points="300,-372.5 300,-407.5 483,-407.5 483,-372.5 300,-372.5"/>
<polygon fill="none" stroke="#000000" points="300,-372.5 300,-407.5 483,-407.5 483,-372.5 300,-372.5"/>
<text text-anchor="start" x="320.8708" y="-385.3" font-family="Arial Bold" font-size="18.00" fill="#000000">users</text>
<text text-anchor="start" x="364.8754" y="-385.3" font-family="Arial" font-size="14.00" fill="#000000"> </text>
<text text-anchor="start" x="368.766" y="-385.3" font-family="Arial" font-size="14.00" fill="#666666">[BASE TABLE]</text>
<polygon fill="none" stroke="#000000" points="300,-342.5 300,-372.5 483,-372.5 483,-342.5 300,-342.5"/>
<text text-anchor="start" x="307" y="-353.9" font-family="Arial" font-size="14.00" fill="#000000">id </text>
<text text-anchor="start" x="321.7798" y="-353.9" font-family="Arial" font-size="14.00" fill="#666666">[char(36)]</text>
<polygon fill="none" stroke="#000000" points="300,-312.5 300,-342.5 483,-342.5 483,-312.5 300,-312.5"/>
<text text-anchor="start" x="307" y="-323.9" font-family="Arial" font-size="14.00" fill="#000000">name </text>
<text text-anchor="start" x="345.899" y="-323.9" font-family="Arial" font-size="14.00" fill="#666666">[varchar(32)]</text>
<polygon fill="none" stroke="#000000" points="300,-282.5 300,-312.5 483,-312.5 483,-282.5 300,-282.5"/>
<text text-anchor="start" x="306.7104" y="-293.9" font-family="Arial" font-size="14.00" fill="#000000">display_name </text>
<text text-anchor="start" x="396.953" y="-293.9" font-family="Arial" font-size="14.00" fill="#666666">[varchar(64)]</text>
<polygon fill="none" stroke="#000000" points="300,-252.5 300,-282.5 483,-282.5 483,-252.5 300,-252.5"/>
<text text-anchor="start" x="307" y="-263.9" font-family="Arial" font-size="14.00" fill="#000000">password </text>
<text text-anchor="start" x="370.7882" y="-263.9" font-family="Arial" font-size="14.00" fill="#666666">[char(128)]</text>
<polygon fill="none" stroke="#000000" points="300,-222.5 300,-252.5 483,-252.5 483,-222.5 300,-222.5"/>
<text text-anchor="start" x="307" y="-233.9" font-family="Arial" font-size="14.00" fill="#000000">salt </text>
<text text-anchor="start" x="332.6704" y="-233.9" font-family="Arial" font-size="14.00" fill="#666666">[char(128)]</text>
<polygon fill="none" stroke="#000000" points="300,-192.5 300,-222.5 483,-222.5 483,-192.5 300,-192.5"/>
<text text-anchor="start" x="307" y="-203.9" font-family="Arial" font-size="14.00" fill="#000000">icon </text>
<text text-anchor="start" x="336.5624" y="-203.9" font-family="Arial" font-size="14.00" fill="#666666">[char(36)]</text>
<polygon fill="none" stroke="#000000" points="300,-162.5 300,-192.5 483,-192.5 483,-162.5 300,-162.5"/>
<text text-anchor="start" x="307" y="-173.9" font-family="Arial" font-size="14.00" fill="#000000">status </text>
<text text-anchor="start" x="348.237" y="-173.9" font-family="Arial" font-size="14.00" fill="#666666">[tinyint(4)]</text>
<polygon fill="none" stroke="#000000" points="300,-132.5 300,-162.5 483,-162.5 483,-132.5 300,-132.5"/>
<text text-anchor="start" x="307" y="-143.9" font-family="Arial" font-size="14.00" fill="#000000">bot </text>
<text text-anchor="start" x="330.3464" y="-143.9" font-family="Arial" font-size="14.00" fill="#666666">[tinyint(1)]</text>
<polygon fill="none" stroke="#000000" points="300,-102.5 300,-132.5 483,-132.5 483,-102.5 300,-102.5"/>
<text text-anchor="start" x="307" y="-113.9" font-family="Arial" font-size="14.00" fill="#000000">role </text>
<text text-anchor="start" x="334.223" y="-113.9" font-family="Arial" font-size="14.00" fill="#666666">[varchar(30)]</text>
<polygon fill="none" stroke="#000000" points="300,-72.5 300,-102.5 483,-102.5 483,-72.5 300,-72.5"/>
<text text-anchor="start" x="307" y="-83.9" font-family="Arial" font-size="14.00" fill="#000000">created_at </text>
<text text-anchor="start" x="377.028" y="-83.9" font-family="Arial" font-size="14.00" fill="#666666">[datetime(6)]</text>
<polygon fill="none" stroke="#000000" points="300,-42.5 300,-72.5 483,-72.5 483,-42.5 300,-42.5"/>
<text text-anchor="start" x="307" y="-53.9" font-family="Arial" font-size="14.00" fill="#000000">updated_at </text>
<text text-anchor="start" x="380.9326" y="-53.9" font-family="Arial" font-size="14.00" fill="#666666">[datetime(6)]</text>
</g>
<!-- external_provider_users&#45;&gt;users -->
<g id="edge1" class="edge">
<title>external_provider_users:user_id&#45;&gt;users:id</title>
<path fill="none" stroke="#000000" d="M229.6074,-696.8731C149.0227,-686.6937 181.2728,-555.0685 240,-487 311.3202,-404.3354 411.6798,-533.6646 483,-451 510.1459,-419.5363 524.5556,-357.5 483,-357.5"/>
<polygon fill="#000000" stroke="#000000" points="230.0181,-696.8978 239.729,-701.9918 235.0091,-697.1989 240,-697.5 240,-697.5 240,-697.5 235.0091,-697.1989 240.271,-693.0082 230.0181,-696.8978 230.0181,-696.8978"/>
<text text-anchor="start" x="6.945" y="-707.5" font-family="Arial" font-size="10.00" fill="#000000">FOREIGN KEY (user_id) REFERENCES users (id)</text>
</g>
</g>
</svg>
