<?xml version="1.0" encoding="UTF-8" standalone="no"?>
<!DOCTYPE svg PUBLIC "-//W3C//DTD SVG 1.1//EN"
 "http://www.w3.org/Graphics/SVG/1.1/DTD/svg11.dtd">
<!-- Generated by graphviz version 2.40.1 (20161225.0304)
 -->
<!-- Title: files Pages: 1 -->
<svg width="766pt" height="1499pt"
     viewBox="0.00 0.00 765.50 1499.00" xmlns="http://www.w3.org/2000/svg">
<g id="graph0" class="graph" transform="scale(1 1) rotate(0) translate(4 1495)">
<title>files</title>
<polygon fill="#ffffff" stroke="transparent" points="-4,4 -4,-1495 761.5,-1495 761.5,4 -4,4"/>
<!-- files -->
<g id="node1" class="node">
<title>files</title>
<polygon fill="#efefef" stroke="transparent" points="251,-1012.5 251,-1047.5 422,-1047.5 422,-1012.5 251,-1012.5"/>
<polygon fill="none" stroke="#000000" points="251,-1012.5 251,-1047.5 422,-1047.5 422,-1012.5 251,-1012.5"/>
<text text-anchor="start" x="271.8747" y="-1025.3" font-family="Arial Bold" font-size="18.00" fill="#000000">files</text>
<text text-anchor="start" x="303.8715" y="-1025.3" font-family="Arial" font-size="14.00" fill="#000000"> </text>
<text text-anchor="start" x="307.7621" y="-1025.3" font-family="Arial" font-size="14.00" fill="#666666">[BASE TABLE]</text>
<polygon fill="none" stroke="#000000" points="251,-982.5 251,-1012.5 422,-1012.5 422,-982.5 251,-982.5"/>
<text text-anchor="start" x="258" y="-993.9" font-family="Arial" font-size="14.00" fill="#000000">id </text>
<text text-anchor="start" x="272.7798" y="-993.9" font-family="Arial" font-size="14.00" fill="#666666">[char(36)]</text>
<polygon fill="none" stroke="#000000" points="251,-952.5 251,-982.5 422,-982.5 422,-952.5 251,-952.5"/>
<text text-anchor="start" x="258" y="-963.9" font-family="Arial" font-size="14.00" fill="#000000">name </text>
<text text-anchor="start" x="296.899" y="-963.9" font-family="Arial" font-size="14.00" fill="#666666">[text]</text>
<polygon fill="none" stroke="#000000" points="251,-922.5 251,-952.5 422,-952.5 422,-922.5 251,-922.5"/>
<text text-anchor="start" x="258" y="-933.9" font-family="Arial" font-size="14.00" fill="#000000">mime </text>
<text text-anchor="start" x="296.101" y="-933.9" font-family="Arial" font-size="14.00" fill="#666666">[text]</text>
<polygon fill="none" stroke="#000000" points="251,-892.5 251,-922.5 422,-922.5 422,-892.5 251,-892.5"/>
<text text-anchor="start" x="258" y="-903.9" font-family="Arial" font-size="14.00" fill="#000000">size </text>
<text text-anchor="start" x="286.7798" y="-903.9" font-family="Arial" font-size="14.00" fill="#666666">[bigint(20)]</text>
<polygon fill="none" stroke="#000000" points="251,-862.5 251,-892.5 422,-892.5 422,-862.5 251,-862.5"/>
<text text-anchor="start" x="258" y="-873.9" font-family="Arial" font-size="14.00" fill="#000000">creator_id </text>
<text text-anchor="start" x="324.122" y="-873.9" font-family="Arial" font-size="14.00" fill="#666666">[char(36)]</text>
<polygon fill="none" stroke="#000000" points="251,-832.5 251,-862.5 422,-862.5 422,-832.5 251,-832.5"/>
<text text-anchor="start" x="258" y="-843.9" font-family="Arial" font-size="14.00" fill="#000000">hash </text>
<text text-anchor="start" x="292.2384" y="-843.9" font-family="Arial" font-size="14.00" fill="#666666">[char(32)]</text>
<polygon fill="none" stroke="#000000" points="251,-802.5 251,-832.5 422,-832.5 422,-802.5 251,-802.5"/>
<text text-anchor="start" x="258" y="-813.9" font-family="Arial" font-size="14.00" fill="#000000">type </text>
<text text-anchor="start" x="288.3464" y="-813.9" font-family="Arial" font-size="14.00" fill="#666666">[varchar(30)]</text>
<polygon fill="none" stroke="#000000" points="251,-772.5 251,-802.5 422,-802.5 422,-772.5 251,-772.5"/>
<text text-anchor="start" x="258" y="-783.9" font-family="Arial" font-size="14.00" fill="#000000">has_thumbnail </text>
<text text-anchor="start" x="352.9158" y="-783.9" font-family="Arial" font-size="14.00" fill="#666666">[tinyint(1)]</text>
<polygon fill="none" stroke="#000000" points="251,-742.5 251,-772.5 422,-772.5 422,-742.5 251,-742.5"/>
<text text-anchor="start" x="258" y="-753.9" font-family="Arial" font-size="14.00" fill="#000000">thumbnail_mime </text>
<text text-anchor="start" x="364.561" y="-753.9" font-family="Arial" font-size="14.00" fill="#666666">[text]</text>
<polygon fill="none" stroke="#000000" points="251,-712.5 251,-742.5 422,-742.5 422,-712.5 251,-712.5"/>
<text text-anchor="start" x="258" y="-723.9" font-family="Arial" font-size="14.00" fill="#000000">thumbnail_width </text>
<text text-anchor="start" x="363.0196" y="-723.9" font-family="Arial" font-size="14.00" fill="#666666">[int(11)]</text>
<polygon fill="none" stroke="#000000" points="251,-682.5 251,-712.5 422,-712.5 422,-682.5 251,-682.5"/>
<text text-anchor="start" x="257.5372" y="-693.9" font-family="Arial" font-size="14.00" fill="#000000">thumbnail_height </text>
<text text-anchor="start" x="368.0154" y="-693.9" font-family="Arial" font-size="14.00" fill="#666666">[int(11)]</text>
<polygon fill="none" stroke="#000000" points="251,-652.5 251,-682.5 422,-682.5 422,-652.5 251,-652.5"/>
<text text-anchor="start" x="258" y="-663.9" font-family="Arial" font-size="14.00" fill="#000000">channel_id </text>
<text text-anchor="start" x="329.582" y="-663.9" font-family="Arial" font-size="14.00" fill="#666666">[char(36)]</text>
<polygon fill="none" stroke="#000000" points="251,-622.5 251,-652.5 422,-652.5 422,-622.5 251,-622.5"/>
<text text-anchor="start" x="258" y="-633.9" font-family="Arial" font-size="14.00" fill="#000000">created_at </text>
<text text-anchor="start" x="328.028" y="-633.9" font-family="Arial" font-size="14.00" fill="#666666">[datetime(6)]</text>
<polygon fill="none" stroke="#000000" points="251,-592.5 251,-622.5 422,-622.5 422,-592.5 251,-592.5"/>
<text text-anchor="start" x="258" y="-603.9" font-family="Arial" font-size="14.00" fill="#000000">deleted_at </text>
<text text-anchor="start" x="327.2566" y="-603.9" font-family="Arial" font-size="14.00" fill="#666666">[datetime(6)]</text>
<polygon fill="none" stroke="#000000" stroke-width="3" points="249,-591.5 249,-1049.5 423,-1049.5 423,-591.5 249,-591.5"/>
</g>
<!-- users -->
<g id="node4" class="node">
<title>users</title>
<polygon fill="#efefef" stroke="transparent" points="245,-432.5 245,-467.5 428,-467.5 428,-432.5 245,-432.5"/>
<polygon fill="none" stroke="#000000" points="245,-432.5 245,-467.5 428,-467.5 428,-432.5 245,-432.5"/>
<text text-anchor="start" x="265.8708" y="-445.3" font-family="Arial Bold" font-size="18.00" fill="#000000">users</text>
<text text-anchor="start" x="309.8754" y="-445.3" font-family="Arial" font-size="14.00" fill="#000000"> </text>
<text text-anchor="start" x="313.766" y="-445.3" font-family="Arial" font-size="14.00" fill="#666666">[BASE TABLE]</text>
<polygon fill="none" stroke="#000000" points="245,-402.5 245,-432.5 428,-432.5 428,-402.5 245,-402.5"/>
<text text-anchor="start" x="252" y="-413.9" font-family="Arial" font-size="14.00" fill="#000000">id </text>
<text text-anchor="start" x="266.7798" y="-413.9" font-family="Arial" font-size="14.00" fill="#666666">[char(36)]</text>
<polygon fill="none" stroke="#000000" points="245,-372.5 245,-402.5 428,-402.5 428,-372.5 245,-372.5"/>
<text text-anchor="start" x="252" y="-383.9" font-family="Arial" font-size="14.00" fill="#000000">name </text>
<text text-anchor="start" x="290.899" y="-383.9" font-family="Arial" font-size="14.00" fill="#666666">[varchar(32)]</text>
<polygon fill="none" stroke="#000000" points="245,-342.5 245,-372.5 428,-372.5 428,-342.5 245,-342.5"/>
<text text-anchor="start" x="251.7104" y="-353.9" font-family="Arial" font-size="14.00" fill="#000000">display_name </text>
<text text-anchor="start" x="341.953" y="-353.9" font-family="Arial" font-size="14.00" fill="#666666">[varchar(64)]</text>
<polygon fill="none" stroke="#000000" points="245,-312.5 245,-342.5 428,-342.5 428,-312.5 245,-312.5"/>
<text text-anchor="start" x="252" y="-323.9" font-family="Arial" font-size="14.00" fill="#000000">password </text>
<text text-anchor="start" x="315.7882" y="-323.9" font-family="Arial" font-size="14.00" fill="#666666">[char(128)]</text>
<polygon fill="none" stroke="#000000" points="245,-282.5 245,-312.5 428,-312.5 428,-282.5 245,-282.5"/>
<text text-anchor="start" x="252" y="-293.9" font-family="Arial" font-size="14.00" fill="#000000">salt </text>
<text text-anchor="start" x="277.6704" y="-293.9" font-family="Arial" font-size="14.00" fill="#666666">[char(128)]</text>
<polygon fill="none" stroke="#000000" points="245,-252.5 245,-282.5 428,-282.5 428,-252.5 245,-252.5"/>
<text text-anchor="start" x="252" y="-263.9" font-family="Arial" font-size="14.00" fill="#000000">icon </text>
<text text-anchor="start" x="281.5624" y="-263.9" font-family="Arial" font-size="14.00" fill="#666666">[char(36)]</text>
<polygon fill="none" stroke="#000000" points="245,-222.5 245,-252.5 428,-252.5 428,-222.5 245,-222.5"/>
<text text-anchor="start" x="252" y="-233.9" font-family="Arial" font-size="14.00" fill="#000000">status </text>
<text text-anchor="start" x="293.237" y="-233.9" font-family="Arial" font-size="14.00" fill="#666666">[tinyint(4)]</text>
<polygon fill="none" stroke="#000000" points="245,-192.5 245,-222.5 428,-222.5 428,-192.5 245,-192.5"/>
<text text-anchor="start" x="252" y="-203.9" font-family="Arial" font-size="14.00" fill="#000000">bot </text>
<text text-anchor="start" x="275.3464" y="-203.9" font-family="Arial" font-size="14.00" fill="#666666">[tinyint(1)]</text>
<polygon fill="none" stroke="#000000" points="245,-162.5 245,-192.5 428,-192.5 428,-162.5 245,-162.5"/>
<text text-anchor="start" x="252" y="-173.9" font-family="Arial" font-size="14.00" fill="#000000">role </text>
<text text-anchor="start" x="279.223" y="-173.9" font-family="Arial" font-size="14.00" fill="#666666">[varchar(30)]</text>
<polygon fill="none" stroke="#000000" points="245,-132.5 245,-162.5 428,-162.5 428,-132.5 245,-132.5"/>
<text text-anchor="start" x="252" y="-143.9" font-family="Arial" font-size="14.00" fill="#000000">twitter_id </text>
<text text-anchor="start" x="311.8906" y="-143.9" font-family="Arial" font-size="14.00" fill="#666666">[varchar(15)]</text>
<polygon fill="none" stroke="#000000" points="245,-102.5 245,-132.5 428,-132.5 428,-102.5 245,-102.5"/>
<text text-anchor="start" x="252" y="-113.9" font-family="Arial" font-size="14.00" fill="#000000">last_online </text>
<text text-anchor="start" x="322.7966" y="-113.9" font-family="Arial" font-size="14.00" fill="#666666">[datetime(6)]</text>
<polygon fill="none" stroke="#000000" points="245,-72.5 245,-102.5 428,-102.5 428,-72.5 245,-72.5"/>
<text text-anchor="start" x="252" y="-83.9" font-family="Arial" font-size="14.00" fill="#000000">created_at </text>
<text text-anchor="start" x="322.028" y="-83.9" font-family="Arial" font-size="14.00" fill="#666666">[datetime(6)]</text>
<polygon fill="none" stroke="#000000" points="245,-42.5 245,-72.5 428,-72.5 428,-42.5 245,-42.5"/>
<text text-anchor="start" x="252" y="-53.9" font-family="Arial" font-size="14.00" fill="#000000">updated_at </text>
<text text-anchor="start" x="325.9326" y="-53.9" font-family="Arial" font-size="14.00" fill="#666666">[datetime(6)]</text>
</g>
<!-- files&#45;&gt;users -->
<g id="edge4" class="edge">
<title>files:creator_id&#45;&gt;users:id</title>
<path fill="none" stroke="#000000" d="M240.981,-877.1239C46.397,-862.3533 43.9326,-417.5 245,-417.5"/>
<polygon fill="#000000" stroke="#000000" points="241.007,-877.1247 250.8311,-881.9968 246.0035,-877.3124 251,-877.5 251,-877.5 251,-877.5 246.0035,-877.3124 251.1689,-873.0032 241.007,-877.1247 241.007,-877.1247"/>
<text text-anchor="start" x="7.1115" y="-887.5" font-family="Arial" font-size="10.00" fill="#000000">FOREIGN KEY (creator_id) REFERENCES users (id)</text>
</g>
<!-- channels -->
<g id="node5" class="node">
<title>channels</title>
<polygon fill="#efefef" stroke="transparent" points="532,-417.5 532,-452.5 715,-452.5 715,-417.5 532,-417.5"/>
<polygon fill="none" stroke="#000000" points="532,-417.5 532,-452.5 715,-452.5 715,-417.5 532,-417.5"/>
<text text-anchor="start" x="538.8605" y="-430.3" font-family="Arial Bold" font-size="18.00" fill="#000000">channels</text>
<text text-anchor="start" x="610.8857" y="-430.3" font-family="Arial" font-size="14.00" fill="#000000"> </text>
<text text-anchor="start" x="614.7763" y="-430.3" font-family="Arial" font-size="14.00" fill="#666666">[BASE TABLE]</text>
<polygon fill="none" stroke="#000000" points="532,-387.5 532,-417.5 715,-417.5 715,-387.5 532,-387.5"/>
<text text-anchor="start" x="539" y="-398.9" font-family="Arial" font-size="14.00" fill="#000000">id </text>
<text text-anchor="start" x="553.7798" y="-398.9" font-family="Arial" font-size="14.00" fill="#666666">[char(36)]</text>
<polygon fill="none" stroke="#000000" points="532,-357.5 532,-387.5 715,-387.5 715,-357.5 532,-357.5"/>
<text text-anchor="start" x="539" y="-368.9" font-family="Arial" font-size="14.00" fill="#000000">name </text>
<text text-anchor="start" x="577.899" y="-368.9" font-family="Arial" font-size="14.00" fill="#666666">[varchar(20)]</text>
<polygon fill="none" stroke="#000000" points="532,-327.5 532,-357.5 715,-357.5 715,-327.5 532,-327.5"/>
<text text-anchor="start" x="539" y="-338.9" font-family="Arial" font-size="14.00" fill="#000000">parent_id </text>
<text text-anchor="start" x="601.244" y="-338.9" font-family="Arial" font-size="14.00" fill="#666666">[char(36)]</text>
<polygon fill="none" stroke="#000000" points="532,-297.5 532,-327.5 715,-327.5 715,-297.5 532,-297.5"/>
<text text-anchor="start" x="539" y="-308.9" font-family="Arial" font-size="14.00" fill="#000000">topic </text>
<text text-anchor="start" x="572.453" y="-308.9" font-family="Arial" font-size="14.00" fill="#666666">[text]</text>
<polygon fill="none" stroke="#000000" points="532,-267.5 532,-297.5 715,-297.5 715,-267.5 532,-267.5"/>
<text text-anchor="start" x="539" y="-278.9" font-family="Arial" font-size="14.00" fill="#000000">is_forced </text>
<text text-anchor="start" x="599.6788" y="-278.9" font-family="Arial" font-size="14.00" fill="#666666">[tinyint(1)]</text>
<polygon fill="none" stroke="#000000" points="532,-237.5 532,-267.5 715,-267.5 715,-237.5 532,-237.5"/>
<text text-anchor="start" x="539" y="-248.9" font-family="Arial" font-size="14.00" fill="#000000">is_public </text>
<text text-anchor="start" x="597.3408" y="-248.9" font-family="Arial" font-size="14.00" fill="#666666">[tinyint(1)]</text>
<polygon fill="none" stroke="#000000" points="532,-207.5 532,-237.5 715,-237.5 715,-207.5 532,-207.5"/>
<text text-anchor="start" x="539" y="-218.9" font-family="Arial" font-size="14.00" fill="#000000">is_visible </text>
<text text-anchor="start" x="599.6648" y="-218.9" font-family="Arial" font-size="14.00" fill="#666666">[tinyint(1)]</text>
<polygon fill="none" stroke="#000000" points="532,-177.5 532,-207.5 715,-207.5 715,-177.5 532,-177.5"/>
<text text-anchor="start" x="539" y="-188.9" font-family="Arial" font-size="14.00" fill="#000000">creator_id </text>
<text text-anchor="start" x="605.122" y="-188.9" font-family="Arial" font-size="14.00" fill="#666666">[char(36)]</text>
<polygon fill="none" stroke="#000000" points="532,-147.5 532,-177.5 715,-177.5 715,-147.5 532,-147.5"/>
<text text-anchor="start" x="539" y="-158.9" font-family="Arial" font-size="14.00" fill="#000000">updater_id </text>
<text text-anchor="start" x="609.0266" y="-158.9" font-family="Arial" font-size="14.00" fill="#666666">[char(36)]</text>
<polygon fill="none" stroke="#000000" points="532,-117.5 532,-147.5 715,-147.5 715,-117.5 532,-117.5"/>
<text text-anchor="start" x="539" y="-128.9" font-family="Arial" font-size="14.00" fill="#000000">created_at </text>
<text text-anchor="start" x="609.028" y="-128.9" font-family="Arial" font-size="14.00" fill="#666666">[datetime(6)]</text>
<polygon fill="none" stroke="#000000" points="532,-87.5 532,-117.5 715,-117.5 715,-87.5 532,-87.5"/>
<text text-anchor="start" x="539" y="-98.9" font-family="Arial" font-size="14.00" fill="#000000">updated_at </text>
<text text-anchor="start" x="612.9326" y="-98.9" font-family="Arial" font-size="14.00" fill="#666666">[datetime(6)]</text>
<polygon fill="none" stroke="#000000" points="532,-57.5 532,-87.5 715,-87.5 715,-57.5 532,-57.5"/>
<text text-anchor="start" x="539" y="-68.9" font-family="Arial" font-size="14.00" fill="#000000">deleted_at </text>
<text text-anchor="start" x="608.2566" y="-68.9" font-family="Arial" font-size="14.00" fill="#666666">[datetime(6)]</text>
</g>
<!-- files&#45;&gt;channels -->
<g id="edge5" class="edge">
<title>files:channel_id&#45;&gt;channels:id</title>
<path fill="none" stroke="#000000" d="M431.7581,-665.2091C484.0874,-639.3082 471.7262,-402.5 532,-402.5"/>
<polygon fill="#000000" stroke="#000000" points="431.7353,-665.2143 420.9714,-663.1191 426.8677,-666.3572 422,-667.5 422,-667.5 422,-667.5 426.8677,-666.3572 423.0286,-671.8809 431.7353,-665.2143 431.7353,-665.2143"/>
<text text-anchor="start" x="429.378" y="-677.5" font-family="Arial" font-size="10.00" fill="#000000">FOREIGN KEY (channel_id) REFERENCES channels (id)</text>
</g>
<!-- files_acl -->
<g id="node2" class="node">
<title>files_acl</title>
<polygon fill="#efefef" stroke="transparent" points="110,-1337.5 110,-1372.5 286,-1372.5 286,-1337.5 110,-1337.5"/>
<polygon fill="none" stroke="#000000" points="110,-1337.5 110,-1372.5 286,-1372.5 286,-1337.5 110,-1337.5"/>
<text text-anchor="start" x="116.8714" y="-1350.3" font-family="Arial Bold" font-size="18.00" fill="#000000">files_acl</text>
<text text-anchor="start" x="181.8748" y="-1350.3" font-family="Arial" font-size="14.00" fill="#000000"> </text>
<text text-anchor="start" x="185.7654" y="-1350.3" font-family="Arial" font-size="14.00" fill="#666666">[BASE TABLE]</text>
<polygon fill="none" stroke="#000000" points="110,-1307.5 110,-1337.5 286,-1337.5 286,-1307.5 110,-1307.5"/>
<text text-anchor="start" x="117" y="-1318.9" font-family="Arial" font-size="14.00" fill="#000000">file_id </text>
<text text-anchor="start" x="157.4488" y="-1318.9" font-family="Arial" font-size="14.00" fill="#666666">[char(36)]</text>
<polygon fill="none" stroke="#000000" points="110,-1277.5 110,-1307.5 286,-1307.5 286,-1277.5 110,-1277.5"/>
<text text-anchor="start" x="117" y="-1288.9" font-family="Arial" font-size="14.00" fill="#000000">user_id </text>
<text text-anchor="start" x="166.7882" y="-1288.9" font-family="Arial" font-size="14.00" fill="#666666">[char(36)]</text>
<polygon fill="none" stroke="#000000" points="110,-1247.5 110,-1277.5 286,-1277.5 286,-1247.5 110,-1247.5"/>
<text text-anchor="start" x="117" y="-1258.9" font-family="Arial" font-size="14.00" fill="#000000">allow </text>
<text text-anchor="start" x="152.7756" y="-1258.9" font-family="Arial" font-size="14.00" fill="#666666">[tinyint(1)]</text>
</g>
<!-- files_acl&#45;&gt;files -->
<g id="edge1" class="edge">
<title>files_acl:file_id&#45;&gt;files:id</title>
<path fill="none" stroke="#000000" d="M296.171,-1321.8821C415.0509,-1306.2056 109.4091,-997.5 251,-997.5"/>
<polygon fill="#000000" stroke="#000000" points="295.9816,-1321.8935 285.7271,-1318.0083 290.9908,-1322.1967 286,-1322.5 286,-1322.5 286,-1322.5 290.9908,-1322.1967 286.2729,-1326.9917 295.9816,-1321.8935 295.9816,-1321.8935"/>
<text text-anchor="start" x="292.616" y="-1332.5" font-family="Arial" font-size="10.00" fill="#000000">FOREIGN KEY (file_id) REFERENCES files (id)</text>
</g>
<!-- stamps -->
<g id="node3" class="node">
<title>stamps</title>
<polygon fill="#efefef" stroke="transparent" points="391,-1412.5 391,-1447.5 560,-1447.5 560,-1412.5 391,-1412.5"/>
<polygon fill="none" stroke="#000000" points="391,-1412.5 391,-1447.5 560,-1447.5 560,-1412.5 391,-1412.5"/>
<text text-anchor="start" x="397.8697" y="-1425.3" font-family="Arial Bold" font-size="18.00" fill="#000000">stamps</text>
<text text-anchor="start" x="455.8765" y="-1425.3" font-family="Arial" font-size="14.00" fill="#000000"> </text>
<text text-anchor="start" x="459.7671" y="-1425.3" font-family="Arial" font-size="14.00" fill="#666666">[BASE TABLE]</text>
<polygon fill="none" stroke="#000000" points="391,-1382.5 391,-1412.5 560,-1412.5 560,-1382.5 391,-1382.5"/>
<text text-anchor="start" x="398" y="-1393.9" font-family="Arial" font-size="14.00" fill="#000000">id </text>
<text text-anchor="start" x="412.7798" y="-1393.9" font-family="Arial" font-size="14.00" fill="#666666">[char(36)]</text>
<polygon fill="none" stroke="#000000" points="391,-1352.5 391,-1382.5 560,-1382.5 560,-1352.5 391,-1352.5"/>
<text text-anchor="start" x="398" y="-1363.9" font-family="Arial" font-size="14.00" fill="#000000">name </text>
<text text-anchor="start" x="436.899" y="-1363.9" font-family="Arial" font-size="14.00" fill="#666666">[varchar(32)]</text>
<polygon fill="none" stroke="#000000" points="391,-1322.5 391,-1352.5 560,-1352.5 560,-1322.5 391,-1322.5"/>
<text text-anchor="start" x="398" y="-1333.9" font-family="Arial" font-size="14.00" fill="#000000">creator_id </text>
<text text-anchor="start" x="464.122" y="-1333.9" font-family="Arial" font-size="14.00" fill="#666666">[char(36)]</text>
<polygon fill="none" stroke="#000000" points="391,-1292.5 391,-1322.5 560,-1322.5 560,-1292.5 391,-1292.5"/>
<text text-anchor="start" x="398" y="-1303.9" font-family="Arial" font-size="14.00" fill="#000000">file_id </text>
<text text-anchor="start" x="438.4488" y="-1303.9" font-family="Arial" font-size="14.00" fill="#666666">[char(36)]</text>
<polygon fill="none" stroke="#000000" points="391,-1262.5 391,-1292.5 560,-1292.5 560,-1262.5 391,-1262.5"/>
<text text-anchor="start" x="398" y="-1273.9" font-family="Arial" font-size="14.00" fill="#000000">is_unicode </text>
<text text-anchor="start" x="468.7994" y="-1273.9" font-family="Arial" font-size="14.00" fill="#666666">[tinyint(1)]</text>
<polygon fill="none" stroke="#000000" points="391,-1232.5 391,-1262.5 560,-1262.5 560,-1232.5 391,-1232.5"/>
<text text-anchor="start" x="398" y="-1243.9" font-family="Arial" font-size="14.00" fill="#000000">created_at </text>
<text text-anchor="start" x="468.028" y="-1243.9" font-family="Arial" font-size="14.00" fill="#666666">[datetime(6)]</text>
<polygon fill="none" stroke="#000000" points="391,-1202.5 391,-1232.5 560,-1232.5 560,-1202.5 391,-1202.5"/>
<text text-anchor="start" x="398" y="-1213.9" font-family="Arial" font-size="14.00" fill="#000000">updated_at </text>
<text text-anchor="start" x="471.9326" y="-1213.9" font-family="Arial" font-size="14.00" fill="#666666">[datetime(6)]</text>
<polygon fill="none" stroke="#000000" points="391,-1172.5 391,-1202.5 560,-1202.5 560,-1172.5 391,-1172.5"/>
<text text-anchor="start" x="398" y="-1183.9" font-family="Arial" font-size="14.00" fill="#000000">deleted_at </text>
<text text-anchor="start" x="467.2566" y="-1183.9" font-family="Arial" font-size="14.00" fill="#666666">[datetime(6)]</text>
</g>
<!-- stamps&#45;&gt;files -->
<g id="edge2" class="edge">
<title>stamps:file_id&#45;&gt;files:id</title>
<path fill="none" stroke="#000000" d="M380.7494,-1306.8312C316.8804,-1297.8579 364.8323,-1200.4907 391,-1130 398.3482,-1110.2053 414.6518,-1113.7947 422,-1094 436.926,-1053.7922 464.8889,-997.5 422,-997.5"/>
<polygon fill="#000000" stroke="#000000" points="381.0212,-1306.8488 390.707,-1311.9905 386.0106,-1307.1744 391,-1307.5 391,-1307.5 391,-1307.5 386.0106,-1307.1744 391.293,-1303.0095 381.0212,-1306.8488 381.0212,-1306.8488"/>
<text text-anchor="start" x="397.616" y="-1291.5" font-family="Arial" font-size="10.00" fill="#000000">FOREIGN KEY (file_id) REFERENCES files (id)</text>
</g>
<!-- users&#45;&gt;files -->
<g id="edge3" class="edge">
<title>users:icon&#45;&gt;files:id</title>
<path fill="none" stroke="#000000" stroke-dasharray="5,2" d="M234.7767,-268.4964C83.1022,-298.5302 92.2577,-997.5 251,-997.5"/>
<polygon fill="#000000" stroke="#000000" points="235.0472,-268.4701 245.4366,-271.9788 240.0236,-267.9851 245,-267.5 245,-267.5 245,-267.5 240.0236,-267.9851 244.5634,-263.0212 235.0472,-268.4701 235.0472,-268.4701"/>
<text text-anchor="start" x="155.3245" y="-277.5" font-family="Arial" font-size="10.00" fill="#000000">Additional Relation</text>
</g>
</g>
</svg>
