<?xml version="1.0" encoding="UTF-8" standalone="no"?>
<!DOCTYPE svg PUBLIC "-//W3C//DTD SVG 1.1//EN"
 "http://www.w3.org/Graphics/SVG/1.1/DTD/svg11.dtd">
<!-- Generated by graphviz version 2.40.1 (20161225.0304)
 -->
<!-- Title: files Pages: 1 -->
<svg width="550pt" height="1042pt"
     viewBox="0.00 0.00 550.00 1042.00" xmlns="http://www.w3.org/2000/svg">
<g id="graph0" class="graph" transform="scale(1 1) rotate(0) translate(4 1038)">
<title>files</title>
<polygon fill="#ffffff" stroke="transparent" points="-4,4 -4,-1038 546,-1038 546,4 -4,4"/>
<!-- files -->
<g id="node1" class="node">
<title>files</title>
<polygon fill="#efefef" stroke="transparent" points="182.5,-405.5 182.5,-440.5 353.5,-440.5 353.5,-405.5 182.5,-405.5"/>
<polygon fill="none" stroke="#000000" points="182.5,-405.5 182.5,-440.5 353.5,-440.5 353.5,-405.5 182.5,-405.5"/>
<text text-anchor="start" x="203.3747" y="-418.3" font-family="Arial Bold" font-size="18.00" fill="#000000">files</text>
<text text-anchor="start" x="235.3715" y="-418.3" font-family="Arial" font-size="14.00" fill="#000000"> </text>
<text text-anchor="start" x="239.2621" y="-418.3" font-family="Arial" font-size="14.00" fill="#666666">[BASE TABLE]</text>
<polygon fill="none" stroke="#000000" points="182.5,-375.5 182.5,-405.5 353.5,-405.5 353.5,-375.5 182.5,-375.5"/>
<text text-anchor="start" x="189.5" y="-386.9" font-family="Arial" font-size="14.00" fill="#000000">id </text>
<text text-anchor="start" x="204.2798" y="-386.9" font-family="Arial" font-size="14.00" fill="#666666">[char(36)]</text>
<polygon fill="none" stroke="#000000" points="182.5,-345.5 182.5,-375.5 353.5,-375.5 353.5,-345.5 182.5,-345.5"/>
<text text-anchor="start" x="189.5" y="-356.9" font-family="Arial" font-size="14.00" fill="#000000">name </text>
<text text-anchor="start" x="228.399" y="-356.9" font-family="Arial" font-size="14.00" fill="#666666">[text]</text>
<polygon fill="none" stroke="#000000" points="182.5,-315.5 182.5,-345.5 353.5,-345.5 353.5,-315.5 182.5,-315.5"/>
<text text-anchor="start" x="189.5" y="-326.9" font-family="Arial" font-size="14.00" fill="#000000">mime </text>
<text text-anchor="start" x="227.601" y="-326.9" font-family="Arial" font-size="14.00" fill="#666666">[text]</text>
<polygon fill="none" stroke="#000000" points="182.5,-285.5 182.5,-315.5 353.5,-315.5 353.5,-285.5 182.5,-285.5"/>
<text text-anchor="start" x="189.5" y="-296.9" font-family="Arial" font-size="14.00" fill="#000000">size </text>
<text text-anchor="start" x="218.2798" y="-296.9" font-family="Arial" font-size="14.00" fill="#666666">[bigint(20)]</text>
<polygon fill="none" stroke="#000000" points="182.5,-255.5 182.5,-285.5 353.5,-285.5 353.5,-255.5 182.5,-255.5"/>
<text text-anchor="start" x="189.5" y="-266.9" font-family="Arial" font-size="14.00" fill="#000000">creator_id </text>
<text text-anchor="start" x="255.622" y="-266.9" font-family="Arial" font-size="14.00" fill="#666666">[char(36)]</text>
<polygon fill="none" stroke="#000000" points="182.5,-225.5 182.5,-255.5 353.5,-255.5 353.5,-225.5 182.5,-225.5"/>
<text text-anchor="start" x="189.5" y="-236.9" font-family="Arial" font-size="14.00" fill="#000000">hash </text>
<text text-anchor="start" x="223.7384" y="-236.9" font-family="Arial" font-size="14.00" fill="#666666">[char(32)]</text>
<polygon fill="none" stroke="#000000" points="182.5,-195.5 182.5,-225.5 353.5,-225.5 353.5,-195.5 182.5,-195.5"/>
<text text-anchor="start" x="189.5" y="-206.9" font-family="Arial" font-size="14.00" fill="#000000">type </text>
<text text-anchor="start" x="219.8464" y="-206.9" font-family="Arial" font-size="14.00" fill="#666666">[varchar(30)]</text>
<polygon fill="none" stroke="#000000" points="182.5,-165.5 182.5,-195.5 353.5,-195.5 353.5,-165.5 182.5,-165.5"/>
<text text-anchor="start" x="189.5" y="-176.9" font-family="Arial" font-size="14.00" fill="#000000">has_thumbnail </text>
<text text-anchor="start" x="284.4158" y="-176.9" font-family="Arial" font-size="14.00" fill="#666666">[tinyint(1)]</text>
<polygon fill="none" stroke="#000000" points="182.5,-135.5 182.5,-165.5 353.5,-165.5 353.5,-135.5 182.5,-135.5"/>
<text text-anchor="start" x="189.5" y="-146.9" font-family="Arial" font-size="14.00" fill="#000000">thumbnail_width </text>
<text text-anchor="start" x="294.5196" y="-146.9" font-family="Arial" font-size="14.00" fill="#666666">[int(11)]</text>
<polygon fill="none" stroke="#000000" points="182.5,-105.5 182.5,-135.5 353.5,-135.5 353.5,-105.5 182.5,-105.5"/>
<text text-anchor="start" x="189.0372" y="-116.9" font-family="Arial" font-size="14.00" fill="#000000">thumbnail_height </text>
<text text-anchor="start" x="299.5154" y="-116.9" font-family="Arial" font-size="14.00" fill="#666666">[int(11)]</text>
<polygon fill="none" stroke="#000000" points="182.5,-75.5 182.5,-105.5 353.5,-105.5 353.5,-75.5 182.5,-75.5"/>
<text text-anchor="start" x="189.5" y="-86.9" font-family="Arial" font-size="14.00" fill="#000000">created_at </text>
<text text-anchor="start" x="259.528" y="-86.9" font-family="Arial" font-size="14.00" fill="#666666">[datetime(6)]</text>
<polygon fill="none" stroke="#000000" points="182.5,-45.5 182.5,-75.5 353.5,-75.5 353.5,-45.5 182.5,-45.5"/>
<text text-anchor="start" x="189.5" y="-56.9" font-family="Arial" font-size="14.00" fill="#000000">deleted_at </text>
<text text-anchor="start" x="258.7566" y="-56.9" font-family="Arial" font-size="14.00" fill="#666666">[datetime(6)]</text>
<polygon fill="none" stroke="#000000" stroke-width="3" points="180.5,-44.5 180.5,-442.5 354.5,-442.5 354.5,-44.5 180.5,-44.5"/>
</g>
<!-- stamps -->
<g id="node2" class="node">
<title>stamps</title>
<polygon fill="#efefef" stroke="transparent" points="43.5,-880.5 43.5,-915.5 212.5,-915.5 212.5,-880.5 43.5,-880.5"/>
<polygon fill="none" stroke="#000000" points="43.5,-880.5 43.5,-915.5 212.5,-915.5 212.5,-880.5 43.5,-880.5"/>
<text text-anchor="start" x="50.3697" y="-893.3" font-family="Arial Bold" font-size="18.00" fill="#000000">stamps</text>
<text text-anchor="start" x="108.3765" y="-893.3" font-family="Arial" font-size="14.00" fill="#000000"> </text>
<text text-anchor="start" x="112.2671" y="-893.3" font-family="Arial" font-size="14.00" fill="#666666">[BASE TABLE]</text>
<polygon fill="none" stroke="#000000" points="43.5,-850.5 43.5,-880.5 212.5,-880.5 212.5,-850.5 43.5,-850.5"/>
<text text-anchor="start" x="50.5" y="-861.9" font-family="Arial" font-size="14.00" fill="#000000">id </text>
<text text-anchor="start" x="65.2798" y="-861.9" font-family="Arial" font-size="14.00" fill="#666666">[char(36)]</text>
<polygon fill="none" stroke="#000000" points="43.5,-820.5 43.5,-850.5 212.5,-850.5 212.5,-820.5 43.5,-820.5"/>
<text text-anchor="start" x="50.5" y="-831.9" font-family="Arial" font-size="14.00" fill="#000000">name </text>
<text text-anchor="start" x="89.399" y="-831.9" font-family="Arial" font-size="14.00" fill="#666666">[varchar(32)]</text>
<polygon fill="none" stroke="#000000" points="43.5,-790.5 43.5,-820.5 212.5,-820.5 212.5,-790.5 43.5,-790.5"/>
<text text-anchor="start" x="50.5" y="-801.9" font-family="Arial" font-size="14.00" fill="#000000">creator_id </text>
<text text-anchor="start" x="116.622" y="-801.9" font-family="Arial" font-size="14.00" fill="#666666">[char(36)]</text>
<polygon fill="none" stroke="#000000" points="43.5,-760.5 43.5,-790.5 212.5,-790.5 212.5,-760.5 43.5,-760.5"/>
<text text-anchor="start" x="50.5" y="-771.9" font-family="Arial" font-size="14.00" fill="#000000">file_id </text>
<text text-anchor="start" x="90.9488" y="-771.9" font-family="Arial" font-size="14.00" fill="#666666">[char(36)]</text>
<polygon fill="none" stroke="#000000" points="43.5,-730.5 43.5,-760.5 212.5,-760.5 212.5,-730.5 43.5,-730.5"/>
<text text-anchor="start" x="50.5" y="-741.9" font-family="Arial" font-size="14.00" fill="#000000">is_unicode </text>
<text text-anchor="start" x="121.2994" y="-741.9" font-family="Arial" font-size="14.00" fill="#666666">[tinyint(1)]</text>
<polygon fill="none" stroke="#000000" points="43.5,-700.5 43.5,-730.5 212.5,-730.5 212.5,-700.5 43.5,-700.5"/>
<text text-anchor="start" x="50.5" y="-711.9" font-family="Arial" font-size="14.00" fill="#000000">created_at </text>
<text text-anchor="start" x="120.528" y="-711.9" font-family="Arial" font-size="14.00" fill="#666666">[datetime(6)]</text>
<polygon fill="none" stroke="#000000" points="43.5,-670.5 43.5,-700.5 212.5,-700.5 212.5,-670.5 43.5,-670.5"/>
<text text-anchor="start" x="50.5" y="-681.9" font-family="Arial" font-size="14.00" fill="#000000">updated_at </text>
<text text-anchor="start" x="124.4326" y="-681.9" font-family="Arial" font-size="14.00" fill="#666666">[datetime(6)]</text>
<polygon fill="none" stroke="#000000" points="43.5,-640.5 43.5,-670.5 212.5,-670.5 212.5,-640.5 43.5,-640.5"/>
<text text-anchor="start" x="50.5" y="-651.9" font-family="Arial" font-size="14.00" fill="#000000">deleted_at </text>
<text text-anchor="start" x="119.7566" y="-651.9" font-family="Arial" font-size="14.00" fill="#666666">[datetime(6)]</text>
</g>
<!-- stamps&#45;&gt;files -->
<g id="edge1" class="edge">
<title>stamps:file_id&#45;&gt;files:id</title>
<path fill="none" stroke="#000000" d="M222.6433,-774.8579C285.0941,-766.2372 222.3951,-672.537 212.5,-598 205.7748,-547.3411 189.2252,-537.6589 182.5,-487 176.8559,-444.4841 139.6111,-390.5 182.5,-390.5"/>
<polygon fill="#000000" stroke="#000000" points="222.48,-774.8681 212.2156,-771.009 217.49,-775.184 212.5,-775.5 212.5,-775.5 212.5,-775.5 217.49,-775.184 212.7844,-779.991 222.48,-774.8681 222.48,-774.8681"/>
<text text-anchor="start" x="219.116" y="-785.5" font-family="Arial" font-size="10.00" fill="#000000">FOREIGN KEY (file_id) REFERENCES files (id)</text>
</g>
<!-- users -->
<g id="node3" class="node">
<title>users</title>
<polygon fill="#efefef" stroke="transparent" points="316.5,-955.5 316.5,-990.5 499.5,-990.5 499.5,-955.5 316.5,-955.5"/>
<polygon fill="none" stroke="#000000" points="316.5,-955.5 316.5,-990.5 499.5,-990.5 499.5,-955.5 316.5,-955.5"/>
<text text-anchor="start" x="337.3708" y="-968.3" font-family="Arial Bold" font-size="18.00" fill="#000000">users</text>
<text text-anchor="start" x="381.3754" y="-968.3" font-family="Arial" font-size="14.00" fill="#000000"> </text>
<text text-anchor="start" x="385.266" y="-968.3" font-family="Arial" font-size="14.00" fill="#666666">[BASE TABLE]</text>
<polygon fill="none" stroke="#000000" points="316.5,-925.5 316.5,-955.5 499.5,-955.5 499.5,-925.5 316.5,-925.5"/>
<text text-anchor="start" x="323.5" y="-936.9" font-family="Arial" font-size="14.00" fill="#000000">id </text>
<text text-anchor="start" x="338.2798" y="-936.9" font-family="Arial" font-size="14.00" fill="#666666">[char(36)]</text>
<polygon fill="none" stroke="#000000" points="316.5,-895.5 316.5,-925.5 499.5,-925.5 499.5,-895.5 316.5,-895.5"/>
<text text-anchor="start" x="323.5" y="-906.9" font-family="Arial" font-size="14.00" fill="#000000">name </text>
<text text-anchor="start" x="362.399" y="-906.9" font-family="Arial" font-size="14.00" fill="#666666">[varchar(32)]</text>
<polygon fill="none" stroke="#000000" points="316.5,-865.5 316.5,-895.5 499.5,-895.5 499.5,-865.5 316.5,-865.5"/>
<text text-anchor="start" x="323.2104" y="-876.9" font-family="Arial" font-size="14.00" fill="#000000">display_name </text>
<text text-anchor="start" x="413.453" y="-876.9" font-family="Arial" font-size="14.00" fill="#666666">[varchar(64)]</text>
<polygon fill="none" stroke="#000000" points="316.5,-835.5 316.5,-865.5 499.5,-865.5 499.5,-835.5 316.5,-835.5"/>
<text text-anchor="start" x="323.5" y="-846.9" font-family="Arial" font-size="14.00" fill="#000000">password </text>
<text text-anchor="start" x="387.2882" y="-846.9" font-family="Arial" font-size="14.00" fill="#666666">[char(128)]</text>
<polygon fill="none" stroke="#000000" points="316.5,-805.5 316.5,-835.5 499.5,-835.5 499.5,-805.5 316.5,-805.5"/>
<text text-anchor="start" x="323.5" y="-816.9" font-family="Arial" font-size="14.00" fill="#000000">salt </text>
<text text-anchor="start" x="349.1704" y="-816.9" font-family="Arial" font-size="14.00" fill="#666666">[char(128)]</text>
<polygon fill="none" stroke="#000000" points="316.5,-775.5 316.5,-805.5 499.5,-805.5 499.5,-775.5 316.5,-775.5"/>
<text text-anchor="start" x="323.5" y="-786.9" font-family="Arial" font-size="14.00" fill="#000000">icon </text>
<text text-anchor="start" x="353.0624" y="-786.9" font-family="Arial" font-size="14.00" fill="#666666">[char(36)]</text>
<polygon fill="none" stroke="#000000" points="316.5,-745.5 316.5,-775.5 499.5,-775.5 499.5,-745.5 316.5,-745.5"/>
<text text-anchor="start" x="323.5" y="-756.9" font-family="Arial" font-size="14.00" fill="#000000">status </text>
<text text-anchor="start" x="364.737" y="-756.9" font-family="Arial" font-size="14.00" fill="#666666">[tinyint(4)]</text>
<polygon fill="none" stroke="#000000" points="316.5,-715.5 316.5,-745.5 499.5,-745.5 499.5,-715.5 316.5,-715.5"/>
<text text-anchor="start" x="323.5" y="-726.9" font-family="Arial" font-size="14.00" fill="#000000">bot </text>
<text text-anchor="start" x="346.8464" y="-726.9" font-family="Arial" font-size="14.00" fill="#666666">[tinyint(1)]</text>
<polygon fill="none" stroke="#000000" points="316.5,-685.5 316.5,-715.5 499.5,-715.5 499.5,-685.5 316.5,-685.5"/>
<text text-anchor="start" x="323.5" y="-696.9" font-family="Arial" font-size="14.00" fill="#000000">role </text>
<text text-anchor="start" x="350.723" y="-696.9" font-family="Arial" font-size="14.00" fill="#666666">[varchar(30)]</text>
<polygon fill="none" stroke="#000000" points="316.5,-655.5 316.5,-685.5 499.5,-685.5 499.5,-655.5 316.5,-655.5"/>
<text text-anchor="start" x="323.5" y="-666.9" font-family="Arial" font-size="14.00" fill="#000000">twitter_id </text>
<text text-anchor="start" x="383.3906" y="-666.9" font-family="Arial" font-size="14.00" fill="#666666">[varchar(15)]</text>
<polygon fill="none" stroke="#000000" points="316.5,-625.5 316.5,-655.5 499.5,-655.5 499.5,-625.5 316.5,-625.5"/>
<text text-anchor="start" x="323.5" y="-636.9" font-family="Arial" font-size="14.00" fill="#000000">last_online </text>
<text text-anchor="start" x="394.2966" y="-636.9" font-family="Arial" font-size="14.00" fill="#666666">[datetime(6)]</text>
<polygon fill="none" stroke="#000000" points="316.5,-595.5 316.5,-625.5 499.5,-625.5 499.5,-595.5 316.5,-595.5"/>
<text text-anchor="start" x="323.5" y="-606.9" font-family="Arial" font-size="14.00" fill="#000000">created_at </text>
<text text-anchor="start" x="393.528" y="-606.9" font-family="Arial" font-size="14.00" fill="#666666">[datetime(6)]</text>
<polygon fill="none" stroke="#000000" points="316.5,-565.5 316.5,-595.5 499.5,-595.5 499.5,-565.5 316.5,-565.5"/>
<text text-anchor="start" x="323.5" y="-576.9" font-family="Arial" font-size="14.00" fill="#000000">updated_at </text>
<text text-anchor="start" x="397.4326" y="-576.9" font-family="Arial" font-size="14.00" fill="#666666">[datetime(6)]</text>
</g>
<!-- users&#45;&gt;files -->
<g id="edge2" class="edge">
<title>users:icon&#45;&gt;files:id</title>
<path fill="none" stroke="#000000" stroke-dasharray="5,2" d="M306.7315,-788.2426C261.4054,-765.3179 294.7761,-574.4467 316.5,-523 325.4252,-501.8633 344.5748,-508.1367 353.5,-487 370.1839,-447.4892 396.3889,-390.5 353.5,-390.5"/>
<polygon fill="#000000" stroke="#000000" points="306.7568,-788.2484 315.4868,-794.8845 311.6284,-789.3742 316.5,-790.5 316.5,-790.5 316.5,-790.5 311.6284,-789.3742 317.5132,-786.1155 306.7568,-788.2484 306.7568,-788.2484"/>
<text text-anchor="start" x="226.8245" y="-800.5" font-family="Arial" font-size="10.00" fill="#000000">Additional Relation</text>
</g>
</g>
</svg>
