<?xml version="1.0" encoding="UTF-8" standalone="no"?>
<!DOCTYPE svg PUBLIC "-//W3C//DTD SVG 1.1//EN"
 "http://www.w3.org/Graphics/SVG/1.1/DTD/svg11.dtd">
<!-- Generated by graphviz version 2.40.1 (20161225.0304)
 -->
<!-- Title: files_thumbnails Pages: 1 -->
<svg width="520pt" height="772pt"
 viewBox="0.00 0.00 520.00 772.00" xmlns="http://www.w3.org/2000/svg" xmlns:xlink="http://www.w3.org/1999/xlink">
<g id="graph0" class="graph" transform="scale(1 1) rotate(0) translate(4 768)">
<title>files_thumbnails</title>
<polygon fill="#ffffff" stroke="transparent" points="-4,4 -4,-768 516,-768 516,4 -4,4"/>
<!-- files_thumbnails -->
<g id="node1" class="node">
<title>files_thumbnails</title>
<polygon fill="#efefef" stroke="transparent" points="46,-682.5 46,-717.5 286,-717.5 286,-682.5 46,-682.5"/>
<polygon fill="none" stroke="#000000" points="46,-682.5 46,-717.5 286,-717.5 286,-682.5 46,-682.5"/>
<text text-anchor="start" x="52.8647" y="-695.3" font-family="Arial Bold" font-size="18.00" fill="#000000">files_thumbnails</text>
<text text-anchor="start" x="181.8815" y="-695.3" font-family="Arial" font-size="14.00" fill="#000000"> </text>
<text text-anchor="start" x="185.7721" y="-695.3" font-family="Arial" font-size="14.00" fill="#666666">[BASE TABLE]</text>
<polygon fill="none" stroke="#000000" points="46,-652.5 46,-682.5 286,-682.5 286,-652.5 46,-652.5"/>
<text text-anchor="start" x="53" y="-663.9" font-family="Arial" font-size="14.00" fill="#000000">file_id </text>
<text text-anchor="start" x="93.4488" y="-663.9" font-family="Arial" font-size="14.00" fill="#666666">[char(36)]</text>
<polygon fill="none" stroke="#000000" points="46,-622.5 46,-652.5 286,-652.5 286,-622.5 46,-622.5"/>
<text text-anchor="start" x="53" y="-633.9" font-family="Arial" font-size="14.00" fill="#000000">type </text>
<text text-anchor="start" x="83.3464" y="-633.9" font-family="Arial" font-size="14.00" fill="#666666">[varchar(30)]</text>
<polygon fill="none" stroke="#000000" points="46,-592.5 46,-622.5 286,-622.5 286,-592.5 46,-592.5"/>
<text text-anchor="start" x="53" y="-603.9" font-family="Arial" font-size="14.00" fill="#000000">mime </text>
<text text-anchor="start" x="91.101" y="-603.9" font-family="Arial" font-size="14.00" fill="#666666">[text]</text>
<polygon fill="none" stroke="#000000" points="46,-562.5 46,-592.5 286,-592.5 286,-562.5 46,-562.5"/>
<text text-anchor="start" x="53" y="-573.9" font-family="Arial" font-size="14.00" fill="#000000">width </text>
<text text-anchor="start" x="89.5596" y="-573.9" font-family="Arial" font-size="14.00" fill="#666666">[int(11)]</text>
<polygon fill="none" stroke="#000000" points="46,-532.5 46,-562.5 286,-562.5 286,-532.5 46,-532.5"/>
<text text-anchor="start" x="53" y="-543.9" font-family="Arial" font-size="14.00" fill="#000000">height </text>
<text text-anchor="start" x="95.0182" y="-543.9" font-family="Arial" font-size="14.00" fill="#666666">[int(11)]</text>
<polygon fill="none" stroke="#000000" stroke-width="3" points="44.5,-531.5 44.5,-719.5 287.5,-719.5 287.5,-531.5 44.5,-531.5"/>
</g>
<!-- files -->
<g id="node2" class="node">
<title>files</title>
<polygon fill="#efefef" stroke="transparent" points="66,-372.5 66,-407.5 266,-407.5 266,-372.5 66,-372.5"/>
<polygon fill="none" stroke="#000000" points="66,-372.5 66,-407.5 266,-407.5 266,-372.5 66,-372.5"/>
<text text-anchor="start" x="101.3747" y="-385.3" font-family="Arial Bold" font-size="18.00" fill="#000000">files</text>
<text text-anchor="start" x="133.3715" y="-385.3" font-family="Arial" font-size="14.00" fill="#000000"> </text>
<text text-anchor="start" x="137.2621" y="-385.3" font-family="Arial" font-size="14.00" fill="#666666">[BASE TABLE]</text>
<polygon fill="none" stroke="#000000" points="66,-342.5 66,-372.5 266,-372.5 266,-342.5 66,-342.5"/>
<text text-anchor="start" x="73" y="-353.9" font-family="Arial" font-size="14.00" fill="#000000">id </text>
<text text-anchor="start" x="87.7798" y="-353.9" font-family="Arial" font-size="14.00" fill="#666666">[char(36)]</text>
<polygon fill="none" stroke="#000000" points="66,-312.5 66,-342.5 266,-342.5 266,-312.5 66,-312.5"/>
<text text-anchor="start" x="73" y="-323.9" font-family="Arial" font-size="14.00" fill="#000000">name </text>
<text text-anchor="start" x="111.899" y="-323.9" font-family="Arial" font-size="14.00" fill="#666666">[text]</text>
<polygon fill="none" stroke="#000000" points="66,-282.5 66,-312.5 266,-312.5 266,-282.5 66,-282.5"/>
<text text-anchor="start" x="73" y="-293.9" font-family="Arial" font-size="14.00" fill="#000000">mime </text>
<text text-anchor="start" x="111.101" y="-293.9" font-family="Arial" font-size="14.00" fill="#666666">[text]</text>
<polygon fill="none" stroke="#000000" points="66,-252.5 66,-282.5 266,-282.5 266,-252.5 66,-252.5"/>
<text text-anchor="start" x="73" y="-263.9" font-family="Arial" font-size="14.00" fill="#000000">size </text>
<text text-anchor="start" x="101.7798" y="-263.9" font-family="Arial" font-size="14.00" fill="#666666">[bigint(20)]</text>
<polygon fill="none" stroke="#000000" points="66,-222.5 66,-252.5 266,-252.5 266,-222.5 66,-222.5"/>
<text text-anchor="start" x="73" y="-233.9" font-family="Arial" font-size="14.00" fill="#000000">creator_id </text>
<text text-anchor="start" x="139.122" y="-233.9" font-family="Arial" font-size="14.00" fill="#666666">[char(36)]</text>
<polygon fill="none" stroke="#000000" points="66,-192.5 66,-222.5 266,-222.5 266,-192.5 66,-192.5"/>
<text text-anchor="start" x="73" y="-203.9" font-family="Arial" font-size="14.00" fill="#000000">hash </text>
<text text-anchor="start" x="107.2384" y="-203.9" font-family="Arial" font-size="14.00" fill="#666666">[char(32)]</text>
<polygon fill="none" stroke="#000000" points="66,-162.5 66,-192.5 266,-192.5 266,-162.5 66,-162.5"/>
<text text-anchor="start" x="73" y="-173.9" font-family="Arial" font-size="14.00" fill="#000000">type </text>
<text text-anchor="start" x="103.3464" y="-173.9" font-family="Arial" font-size="14.00" fill="#666666">[varchar(30)]</text>
<polygon fill="none" stroke="#000000" points="66,-132.5 66,-162.5 266,-162.5 266,-132.5 66,-132.5"/>
<text text-anchor="start" x="72.6536" y="-143.9" font-family="Arial" font-size="14.00" fill="#000000">is_animated_image </text>
<text text-anchor="start" x="197.9018" y="-143.9" font-family="Arial" font-size="14.00" fill="#666666">[tinyint(1)]</text>
<polygon fill="none" stroke="#000000" points="66,-102.5 66,-132.5 266,-132.5 266,-102.5 66,-102.5"/>
<text text-anchor="start" x="73" y="-113.9" font-family="Arial" font-size="14.00" fill="#000000">channel_id </text>
<text text-anchor="start" x="144.582" y="-113.9" font-family="Arial" font-size="14.00" fill="#666666">[char(36)]</text>
<polygon fill="none" stroke="#000000" points="66,-72.5 66,-102.5 266,-102.5 266,-72.5 66,-72.5"/>
<text text-anchor="start" x="73" y="-83.9" font-family="Arial" font-size="14.00" fill="#000000">created_at </text>
<text text-anchor="start" x="143.028" y="-83.9" font-family="Arial" font-size="14.00" fill="#666666">[datetime(6)]</text>
<polygon fill="none" stroke="#000000" points="66,-42.5 66,-72.5 266,-72.5 266,-42.5 66,-42.5"/>
<text text-anchor="start" x="73" y="-53.9" font-family="Arial" font-size="14.00" fill="#000000">deleted_at </text>
<text text-anchor="start" x="142.2566" y="-53.9" font-family="Arial" font-size="14.00" fill="#666666">[datetime(6)]</text>
</g>
<!-- files_thumbnails&#45;&gt;files -->
<g id="edge1" class="edge">
<title>files_thumbnails:file_id&#45;&gt;files:id</title>
<path fill="none" stroke="#000000" d="M295.8331,-665.183C352.8744,-636.815 331.5266,-357.5 266,-357.5"/>
<polygon fill="#000000" stroke="#000000" points="295.7334,-665.2064 284.9679,-663.12 290.8667,-666.3532 286,-667.5 286,-667.5 286,-667.5 290.8667,-666.3532 287.0321,-671.88 295.7334,-665.2064 295.7334,-665.2064"/>
<text text-anchor="start" x="292.616" y="-677.5" font-family="Arial" font-size="10.00" fill="#000000">FOREIGN KEY (file_id) REFERENCES files (id)</text>
</g>
</g>
</svg>
