<?xml version="1.0" encoding="UTF-8" standalone="no"?>
<!DOCTYPE svg PUBLIC "-//W3C//DTD SVG 1.1//EN"
 "http://www.w3.org/Graphics/SVG/1.1/DTD/svg11.dtd">
<!-- Generated by graphviz version 2.40.1 (20161225.0304)
 -->
<!-- Title: files Pages: 1 -->
<svg width="1203pt" height="1379pt"
 viewBox="0.00 0.00 1202.50 1379.00" xmlns="http://www.w3.org/2000/svg" xmlns:xlink="http://www.w3.org/1999/xlink">
<g id="graph0" class="graph" transform="scale(1 1) rotate(0) translate(4 1375)">
<title>files</title>
<polygon fill="#ffffff" stroke="transparent" points="-4,4 -4,-1375 1198.5,-1375 1198.5,4 -4,4"/>
<!-- files -->
<g id="node1" class="node">
<title>files</title>
<polygon fill="#efefef" stroke="transparent" points="498,-892.5 498,-927.5 698,-927.5 698,-892.5 498,-892.5"/>
<polygon fill="none" stroke="#000000" points="498,-892.5 498,-927.5 698,-927.5 698,-892.5 498,-892.5"/>
<text text-anchor="start" x="533.3747" y="-905.3" font-family="Arial Bold" font-size="18.00" fill="#000000">files</text>
<text text-anchor="start" x="565.3715" y="-905.3" font-family="Arial" font-size="14.00" fill="#000000"> </text>
<text text-anchor="start" x="569.2621" y="-905.3" font-family="Arial" font-size="14.00" fill="#666666">[BASE TABLE]</text>
<polygon fill="none" stroke="#000000" points="498,-862.5 498,-892.5 698,-892.5 698,-862.5 498,-862.5"/>
<text text-anchor="start" x="505" y="-873.9" font-family="Arial" font-size="14.00" fill="#000000">id </text>
<text text-anchor="start" x="519.7798" y="-873.9" font-family="Arial" font-size="14.00" fill="#666666">[char(36)]</text>
<polygon fill="none" stroke="#000000" points="498,-832.5 498,-862.5 698,-862.5 698,-832.5 498,-832.5"/>
<text text-anchor="start" x="505" y="-843.9" font-family="Arial" font-size="14.00" fill="#000000">name </text>
<text text-anchor="start" x="543.899" y="-843.9" font-family="Arial" font-size="14.00" fill="#666666">[text]</text>
<polygon fill="none" stroke="#000000" points="498,-802.5 498,-832.5 698,-832.5 698,-802.5 498,-802.5"/>
<text text-anchor="start" x="505" y="-813.9" font-family="Arial" font-size="14.00" fill="#000000">mime </text>
<text text-anchor="start" x="543.101" y="-813.9" font-family="Arial" font-size="14.00" fill="#666666">[text]</text>
<polygon fill="none" stroke="#000000" points="498,-772.5 498,-802.5 698,-802.5 698,-772.5 498,-772.5"/>
<text text-anchor="start" x="505" y="-783.9" font-family="Arial" font-size="14.00" fill="#000000">size </text>
<text text-anchor="start" x="533.7798" y="-783.9" font-family="Arial" font-size="14.00" fill="#666666">[bigint(20)]</text>
<polygon fill="none" stroke="#000000" points="498,-742.5 498,-772.5 698,-772.5 698,-742.5 498,-742.5"/>
<text text-anchor="start" x="505" y="-753.9" font-family="Arial" font-size="14.00" fill="#000000">creator_id </text>
<text text-anchor="start" x="571.122" y="-753.9" font-family="Arial" font-size="14.00" fill="#666666">[char(36)]</text>
<polygon fill="none" stroke="#000000" points="498,-712.5 498,-742.5 698,-742.5 698,-712.5 498,-712.5"/>
<text text-anchor="start" x="505" y="-723.9" font-family="Arial" font-size="14.00" fill="#000000">hash </text>
<text text-anchor="start" x="539.2384" y="-723.9" font-family="Arial" font-size="14.00" fill="#666666">[char(32)]</text>
<polygon fill="none" stroke="#000000" points="498,-682.5 498,-712.5 698,-712.5 698,-682.5 498,-682.5"/>
<text text-anchor="start" x="505" y="-693.9" font-family="Arial" font-size="14.00" fill="#000000">type </text>
<text text-anchor="start" x="535.3464" y="-693.9" font-family="Arial" font-size="14.00" fill="#666666">[varchar(30)]</text>
<polygon fill="none" stroke="#000000" points="498,-652.5 498,-682.5 698,-682.5 698,-652.5 498,-652.5"/>
<text text-anchor="start" x="504.6536" y="-663.9" font-family="Arial" font-size="14.00" fill="#000000">is_animated_image </text>
<text text-anchor="start" x="629.9018" y="-663.9" font-family="Arial" font-size="14.00" fill="#666666">[tinyint(1)]</text>
<polygon fill="none" stroke="#000000" points="498,-622.5 498,-652.5 698,-652.5 698,-622.5 498,-622.5"/>
<text text-anchor="start" x="505" y="-633.9" font-family="Arial" font-size="14.00" fill="#000000">channel_id </text>
<text text-anchor="start" x="576.582" y="-633.9" font-family="Arial" font-size="14.00" fill="#666666">[char(36)]</text>
<polygon fill="none" stroke="#000000" points="498,-592.5 498,-622.5 698,-622.5 698,-592.5 498,-592.5"/>
<text text-anchor="start" x="505" y="-603.9" font-family="Arial" font-size="14.00" fill="#000000">created_at </text>
<text text-anchor="start" x="575.028" y="-603.9" font-family="Arial" font-size="14.00" fill="#666666">[datetime(6)]</text>
<polygon fill="none" stroke="#000000" points="498,-562.5 498,-592.5 698,-592.5 698,-562.5 498,-562.5"/>
<text text-anchor="start" x="505" y="-573.9" font-family="Arial" font-size="14.00" fill="#000000">deleted_at </text>
<text text-anchor="start" x="574.2566" y="-573.9" font-family="Arial" font-size="14.00" fill="#666666">[datetime(6)]</text>
<polygon fill="none" stroke="#000000" stroke-width="3" points="496.5,-561.5 496.5,-929.5 699.5,-929.5 699.5,-561.5 496.5,-561.5"/>
</g>
<!-- users -->
<g id="node6" class="node">
<title>users</title>
<polygon fill="#efefef" stroke="transparent" points="506,-387.5 506,-422.5 689,-422.5 689,-387.5 506,-387.5"/>
<polygon fill="none" stroke="#000000" points="506,-387.5 506,-422.5 689,-422.5 689,-387.5 506,-387.5"/>
<text text-anchor="start" x="526.8708" y="-400.3" font-family="Arial Bold" font-size="18.00" fill="#000000">users</text>
<text text-anchor="start" x="570.8754" y="-400.3" font-family="Arial" font-size="14.00" fill="#000000"> </text>
<text text-anchor="start" x="574.766" y="-400.3" font-family="Arial" font-size="14.00" fill="#666666">[BASE TABLE]</text>
<polygon fill="none" stroke="#000000" points="506,-357.5 506,-387.5 689,-387.5 689,-357.5 506,-357.5"/>
<text text-anchor="start" x="513" y="-368.9" font-family="Arial" font-size="14.00" fill="#000000">id </text>
<text text-anchor="start" x="527.7798" y="-368.9" font-family="Arial" font-size="14.00" fill="#666666">[char(36)]</text>
<polygon fill="none" stroke="#000000" points="506,-327.5 506,-357.5 689,-357.5 689,-327.5 506,-327.5"/>
<text text-anchor="start" x="513" y="-338.9" font-family="Arial" font-size="14.00" fill="#000000">name </text>
<text text-anchor="start" x="551.899" y="-338.9" font-family="Arial" font-size="14.00" fill="#666666">[varchar(32)]</text>
<polygon fill="none" stroke="#000000" points="506,-297.5 506,-327.5 689,-327.5 689,-297.5 506,-297.5"/>
<text text-anchor="start" x="512.7104" y="-308.9" font-family="Arial" font-size="14.00" fill="#000000">display_name </text>
<text text-anchor="start" x="602.953" y="-308.9" font-family="Arial" font-size="14.00" fill="#666666">[varchar(32)]</text>
<polygon fill="none" stroke="#000000" points="506,-267.5 506,-297.5 689,-297.5 689,-267.5 506,-267.5"/>
<text text-anchor="start" x="513" y="-278.9" font-family="Arial" font-size="14.00" fill="#000000">password </text>
<text text-anchor="start" x="576.7882" y="-278.9" font-family="Arial" font-size="14.00" fill="#666666">[char(128)]</text>
<polygon fill="none" stroke="#000000" points="506,-237.5 506,-267.5 689,-267.5 689,-237.5 506,-237.5"/>
<text text-anchor="start" x="513" y="-248.9" font-family="Arial" font-size="14.00" fill="#000000">salt </text>
<text text-anchor="start" x="538.6704" y="-248.9" font-family="Arial" font-size="14.00" fill="#666666">[char(128)]</text>
<polygon fill="none" stroke="#000000" points="506,-207.5 506,-237.5 689,-237.5 689,-207.5 506,-207.5"/>
<text text-anchor="start" x="513" y="-218.9" font-family="Arial" font-size="14.00" fill="#000000">icon </text>
<text text-anchor="start" x="542.5624" y="-218.9" font-family="Arial" font-size="14.00" fill="#666666">[char(36)]</text>
<polygon fill="none" stroke="#000000" points="506,-177.5 506,-207.5 689,-207.5 689,-177.5 506,-177.5"/>
<text text-anchor="start" x="513" y="-188.9" font-family="Arial" font-size="14.00" fill="#000000">status </text>
<text text-anchor="start" x="554.237" y="-188.9" font-family="Arial" font-size="14.00" fill="#666666">[tinyint(4)]</text>
<polygon fill="none" stroke="#000000" points="506,-147.5 506,-177.5 689,-177.5 689,-147.5 506,-147.5"/>
<text text-anchor="start" x="513" y="-158.9" font-family="Arial" font-size="14.00" fill="#000000">bot </text>
<text text-anchor="start" x="536.3464" y="-158.9" font-family="Arial" font-size="14.00" fill="#666666">[tinyint(1)]</text>
<polygon fill="none" stroke="#000000" points="506,-117.5 506,-147.5 689,-147.5 689,-117.5 506,-117.5"/>
<text text-anchor="start" x="513" y="-128.9" font-family="Arial" font-size="14.00" fill="#000000">role </text>
<text text-anchor="start" x="540.223" y="-128.9" font-family="Arial" font-size="14.00" fill="#666666">[varchar(30)]</text>
<polygon fill="none" stroke="#000000" points="506,-87.5 506,-117.5 689,-117.5 689,-87.5 506,-87.5"/>
<text text-anchor="start" x="513" y="-98.9" font-family="Arial" font-size="14.00" fill="#000000">created_at </text>
<text text-anchor="start" x="583.028" y="-98.9" font-family="Arial" font-size="14.00" fill="#666666">[datetime(6)]</text>
<polygon fill="none" stroke="#000000" points="506,-57.5 506,-87.5 689,-87.5 689,-57.5 506,-57.5"/>
<text text-anchor="start" x="513" y="-68.9" font-family="Arial" font-size="14.00" fill="#000000">updated_at </text>
<text text-anchor="start" x="586.9326" y="-68.9" font-family="Arial" font-size="14.00" fill="#666666">[datetime(6)]</text>
</g>
<!-- files&#45;&gt;users -->
<g id="edge6" class="edge">
<title>files:creator_id&#45;&gt;users:id</title>
<path fill="none" stroke="#000000" d="M487.84,-756.9933C393.9114,-747.2369 435.055,-598.9576 498,-517 551.5179,-447.3169 635.4821,-535.6831 689,-466 714.3118,-433.0428 730.5556,-372.5 689,-372.5"/>
<polygon fill="#000000" stroke="#000000" points="488.0124,-757.0018 497.7758,-761.9944 493.0062,-757.2509 498,-757.5 498,-757.5 498,-757.5 493.0062,-757.2509 498.2242,-753.0056 488.0124,-757.0018 488.0124,-757.0018"/>
<text text-anchor="start" x="254.1115" y="-767.5" font-family="Arial" font-size="10.00" fill="#000000">FOREIGN KEY (creator_id) REFERENCES users (id)</text>
</g>
<!-- channels -->
<g id="node7" class="node">
<title>channels</title>
<polygon fill="#efefef" stroke="transparent" points="793,-402.5 793,-437.5 976,-437.5 976,-402.5 793,-402.5"/>
<polygon fill="none" stroke="#000000" points="793,-402.5 793,-437.5 976,-437.5 976,-402.5 793,-402.5"/>
<text text-anchor="start" x="799.8605" y="-415.3" font-family="Arial Bold" font-size="18.00" fill="#000000">channels</text>
<text text-anchor="start" x="871.8857" y="-415.3" font-family="Arial" font-size="14.00" fill="#000000"> </text>
<text text-anchor="start" x="875.7763" y="-415.3" font-family="Arial" font-size="14.00" fill="#666666">[BASE TABLE]</text>
<polygon fill="none" stroke="#000000" points="793,-372.5 793,-402.5 976,-402.5 976,-372.5 793,-372.5"/>
<text text-anchor="start" x="800" y="-383.9" font-family="Arial" font-size="14.00" fill="#000000">id </text>
<text text-anchor="start" x="814.7798" y="-383.9" font-family="Arial" font-size="14.00" fill="#666666">[char(36)]</text>
<polygon fill="none" stroke="#000000" points="793,-342.5 793,-372.5 976,-372.5 976,-342.5 793,-342.5"/>
<text text-anchor="start" x="800" y="-353.9" font-family="Arial" font-size="14.00" fill="#000000">name </text>
<text text-anchor="start" x="838.899" y="-353.9" font-family="Arial" font-size="14.00" fill="#666666">[varchar(20)]</text>
<polygon fill="none" stroke="#000000" points="793,-312.5 793,-342.5 976,-342.5 976,-312.5 793,-312.5"/>
<text text-anchor="start" x="800" y="-323.9" font-family="Arial" font-size="14.00" fill="#000000">parent_id </text>
<text text-anchor="start" x="862.244" y="-323.9" font-family="Arial" font-size="14.00" fill="#666666">[char(36)]</text>
<polygon fill="none" stroke="#000000" points="793,-282.5 793,-312.5 976,-312.5 976,-282.5 793,-282.5"/>
<text text-anchor="start" x="800" y="-293.9" font-family="Arial" font-size="14.00" fill="#000000">topic </text>
<text text-anchor="start" x="833.453" y="-293.9" font-family="Arial" font-size="14.00" fill="#666666">[text]</text>
<polygon fill="none" stroke="#000000" points="793,-252.5 793,-282.5 976,-282.5 976,-252.5 793,-252.5"/>
<text text-anchor="start" x="800" y="-263.9" font-family="Arial" font-size="14.00" fill="#000000">is_forced </text>
<text text-anchor="start" x="860.6788" y="-263.9" font-family="Arial" font-size="14.00" fill="#666666">[tinyint(1)]</text>
<polygon fill="none" stroke="#000000" points="793,-222.5 793,-252.5 976,-252.5 976,-222.5 793,-222.5"/>
<text text-anchor="start" x="800" y="-233.9" font-family="Arial" font-size="14.00" fill="#000000">is_public </text>
<text text-anchor="start" x="858.3408" y="-233.9" font-family="Arial" font-size="14.00" fill="#666666">[tinyint(1)]</text>
<polygon fill="none" stroke="#000000" points="793,-192.5 793,-222.5 976,-222.5 976,-192.5 793,-192.5"/>
<text text-anchor="start" x="800" y="-203.9" font-family="Arial" font-size="14.00" fill="#000000">is_visible </text>
<text text-anchor="start" x="860.6648" y="-203.9" font-family="Arial" font-size="14.00" fill="#666666">[tinyint(1)]</text>
<polygon fill="none" stroke="#000000" points="793,-162.5 793,-192.5 976,-192.5 976,-162.5 793,-162.5"/>
<text text-anchor="start" x="800" y="-173.9" font-family="Arial" font-size="14.00" fill="#000000">creator_id </text>
<text text-anchor="start" x="866.122" y="-173.9" font-family="Arial" font-size="14.00" fill="#666666">[char(36)]</text>
<polygon fill="none" stroke="#000000" points="793,-132.5 793,-162.5 976,-162.5 976,-132.5 793,-132.5"/>
<text text-anchor="start" x="800" y="-143.9" font-family="Arial" font-size="14.00" fill="#000000">updater_id </text>
<text text-anchor="start" x="870.0266" y="-143.9" font-family="Arial" font-size="14.00" fill="#666666">[char(36)]</text>
<polygon fill="none" stroke="#000000" points="793,-102.5 793,-132.5 976,-132.5 976,-102.5 793,-102.5"/>
<text text-anchor="start" x="800" y="-113.9" font-family="Arial" font-size="14.00" fill="#000000">created_at </text>
<text text-anchor="start" x="870.028" y="-113.9" font-family="Arial" font-size="14.00" fill="#666666">[datetime(6)]</text>
<polygon fill="none" stroke="#000000" points="793,-72.5 793,-102.5 976,-102.5 976,-72.5 793,-72.5"/>
<text text-anchor="start" x="800" y="-83.9" font-family="Arial" font-size="14.00" fill="#000000">updated_at </text>
<text text-anchor="start" x="873.9326" y="-83.9" font-family="Arial" font-size="14.00" fill="#666666">[datetime(6)]</text>
<polygon fill="none" stroke="#000000" points="793,-42.5 793,-72.5 976,-72.5 976,-42.5 793,-42.5"/>
<text text-anchor="start" x="800" y="-53.9" font-family="Arial" font-size="14.00" fill="#000000">deleted_at </text>
<text text-anchor="start" x="869.2566" y="-53.9" font-family="Arial" font-size="14.00" fill="#666666">[datetime(6)]</text>
</g>
<!-- files&#45;&gt;channels -->
<g id="edge7" class="edge">
<title>files:channel_id&#45;&gt;channels:id</title>
<path fill="none" stroke="#000000" d="M708.0905,-636.8265C808.4611,-622.5924 677.7355,-387.5 793,-387.5"/>
<polygon fill="#000000" stroke="#000000" points="707.9778,-636.8339 697.7003,-633.01 702.9889,-637.167 698,-637.5 698,-637.5 698,-637.5 702.9889,-637.167 698.2997,-641.99 707.9778,-636.8339 707.9778,-636.8339"/>
<text text-anchor="start" x="705.378" y="-647.5" font-family="Arial" font-size="10.00" fill="#000000">FOREIGN KEY (channel_id) REFERENCES channels (id)</text>
</g>
<!-- files_acl -->
<g id="node2" class="node">
<title>files_acl</title>
<polygon fill="#efefef" stroke="transparent" points="43,-1217.5 43,-1252.5 219,-1252.5 219,-1217.5 43,-1217.5"/>
<polygon fill="none" stroke="#000000" points="43,-1217.5 43,-1252.5 219,-1252.5 219,-1217.5 43,-1217.5"/>
<text text-anchor="start" x="49.8714" y="-1230.3" font-family="Arial Bold" font-size="18.00" fill="#000000">files_acl</text>
<text text-anchor="start" x="114.8748" y="-1230.3" font-family="Arial" font-size="14.00" fill="#000000"> </text>
<text text-anchor="start" x="118.7654" y="-1230.3" font-family="Arial" font-size="14.00" fill="#666666">[BASE TABLE]</text>
<polygon fill="none" stroke="#000000" points="43,-1187.5 43,-1217.5 219,-1217.5 219,-1187.5 43,-1187.5"/>
<text text-anchor="start" x="50" y="-1198.9" font-family="Arial" font-size="14.00" fill="#000000">file_id </text>
<text text-anchor="start" x="90.4488" y="-1198.9" font-family="Arial" font-size="14.00" fill="#666666">[char(36)]</text>
<polygon fill="none" stroke="#000000" points="43,-1157.5 43,-1187.5 219,-1187.5 219,-1157.5 43,-1157.5"/>
<text text-anchor="start" x="50" y="-1168.9" font-family="Arial" font-size="14.00" fill="#000000">user_id </text>
<text text-anchor="start" x="99.7882" y="-1168.9" font-family="Arial" font-size="14.00" fill="#666666">[char(36)]</text>
<polygon fill="none" stroke="#000000" points="43,-1127.5 43,-1157.5 219,-1157.5 219,-1127.5 43,-1127.5"/>
<text text-anchor="start" x="50" y="-1138.9" font-family="Arial" font-size="14.00" fill="#000000">allow </text>
<text text-anchor="start" x="85.7756" y="-1138.9" font-family="Arial" font-size="14.00" fill="#666666">[tinyint(1)]</text>
</g>
<!-- files_acl&#45;&gt;files -->
<g id="edge1" class="edge">
<title>files_acl:file_id&#45;&gt;files:id</title>
<path fill="none" stroke="#000000" d="M229.0231,-1201.8957C300.443,-1192.5695 219.3547,-1077.4951 271,-1010 341.9884,-917.2255 381.1819,-877.5 498,-877.5"/>
<polygon fill="#000000" stroke="#000000" points="228.9819,-1201.8981 218.7291,-1198.0082 223.9909,-1202.199 219,-1202.5 219,-1202.5 219,-1202.5 223.9909,-1202.199 219.2709,-1206.9918 228.9819,-1201.8981 228.9819,-1201.8981"/>
<text text-anchor="start" x="112.616" y="-1186.5" font-family="Arial" font-size="10.00" fill="#000000">FOREIGN KEY (file_id) REFERENCES files (id)</text>
</g>
<!-- files_thumbnails -->
<g id="node3" class="node">
<title>files_thumbnails</title>
<polygon fill="#efefef" stroke="transparent" points="323,-1247.5 323,-1282.5 563,-1282.5 563,-1247.5 323,-1247.5"/>
<polygon fill="none" stroke="#000000" points="323,-1247.5 323,-1282.5 563,-1282.5 563,-1247.5 323,-1247.5"/>
<text text-anchor="start" x="329.8647" y="-1260.3" font-family="Arial Bold" font-size="18.00" fill="#000000">files_thumbnails</text>
<text text-anchor="start" x="458.8815" y="-1260.3" font-family="Arial" font-size="14.00" fill="#000000"> </text>
<text text-anchor="start" x="462.7721" y="-1260.3" font-family="Arial" font-size="14.00" fill="#666666">[BASE TABLE]</text>
<polygon fill="none" stroke="#000000" points="323,-1217.5 323,-1247.5 563,-1247.5 563,-1217.5 323,-1217.5"/>
<text text-anchor="start" x="330" y="-1228.9" font-family="Arial" font-size="14.00" fill="#000000">file_id </text>
<text text-anchor="start" x="370.4488" y="-1228.9" font-family="Arial" font-size="14.00" fill="#666666">[char(36)]</text>
<polygon fill="none" stroke="#000000" points="323,-1187.5 323,-1217.5 563,-1217.5 563,-1187.5 323,-1187.5"/>
<text text-anchor="start" x="330" y="-1198.9" font-family="Arial" font-size="14.00" fill="#000000">type </text>
<text text-anchor="start" x="360.3464" y="-1198.9" font-family="Arial" font-size="14.00" fill="#666666">[varchar(30)]</text>
<polygon fill="none" stroke="#000000" points="323,-1157.5 323,-1187.5 563,-1187.5 563,-1157.5 323,-1157.5"/>
<text text-anchor="start" x="330" y="-1168.9" font-family="Arial" font-size="14.00" fill="#000000">mime </text>
<text text-anchor="start" x="368.101" y="-1168.9" font-family="Arial" font-size="14.00" fill="#666666">[text]</text>
<polygon fill="none" stroke="#000000" points="323,-1127.5 323,-1157.5 563,-1157.5 563,-1127.5 323,-1127.5"/>
<text text-anchor="start" x="330" y="-1138.9" font-family="Arial" font-size="14.00" fill="#000000">width </text>
<text text-anchor="start" x="366.5596" y="-1138.9" font-family="Arial" font-size="14.00" fill="#666666">[bigint(20)]</text>
<polygon fill="none" stroke="#000000" points="323,-1097.5 323,-1127.5 563,-1127.5 563,-1097.5 323,-1097.5"/>
<text text-anchor="start" x="330" y="-1108.9" font-family="Arial" font-size="14.00" fill="#000000">height </text>
<text text-anchor="start" x="372.0182" y="-1108.9" font-family="Arial" font-size="14.00" fill="#666666">[bigint(20)]</text>
</g>
<!-- files_thumbnails&#45;&gt;files -->
<g id="edge2" class="edge">
<title>files_thumbnails:file_id&#45;&gt;files:id</title>
<path fill="none" stroke="#000000" d="M573.2425,-1231.8341C637.0047,-1222.8994 587.9421,-1125.9336 563,-1055 547.6886,-1011.4554 513.3114,-1017.5446 498,-974 483.7731,-933.5395 455.1111,-877.5 498,-877.5"/>
<polygon fill="#000000" stroke="#000000" points="572.9789,-1231.8511 562.708,-1228.0095 567.9895,-1232.1756 563,-1232.5 563,-1232.5 563,-1232.5 567.9895,-1232.1756 563.292,-1236.9905 572.9789,-1231.8511 572.9789,-1231.8511"/>
<text text-anchor="start" x="569.616" y="-1242.5" font-family="Arial" font-size="10.00" fill="#000000">FOREIGN KEY (file_id) REFERENCES files (id)</text>
</g>
<!-- stamps -->
<g id="node4" class="node">
<title>stamps</title>
<polygon fill="#efefef" stroke="transparent" points="668,-1292.5 668,-1327.5 837,-1327.5 837,-1292.5 668,-1292.5"/>
<polygon fill="none" stroke="#000000" points="668,-1292.5 668,-1327.5 837,-1327.5 837,-1292.5 668,-1292.5"/>
<text text-anchor="start" x="674.8697" y="-1305.3" font-family="Arial Bold" font-size="18.00" fill="#000000">stamps</text>
<text text-anchor="start" x="732.8765" y="-1305.3" font-family="Arial" font-size="14.00" fill="#000000"> </text>
<text text-anchor="start" x="736.7671" y="-1305.3" font-family="Arial" font-size="14.00" fill="#666666">[BASE TABLE]</text>
<polygon fill="none" stroke="#000000" points="668,-1262.5 668,-1292.5 837,-1292.5 837,-1262.5 668,-1262.5"/>
<text text-anchor="start" x="675" y="-1273.9" font-family="Arial" font-size="14.00" fill="#000000">id </text>
<text text-anchor="start" x="689.7798" y="-1273.9" font-family="Arial" font-size="14.00" fill="#666666">[char(36)]</text>
<polygon fill="none" stroke="#000000" points="668,-1232.5 668,-1262.5 837,-1262.5 837,-1232.5 668,-1232.5"/>
<text text-anchor="start" x="675" y="-1243.9" font-family="Arial" font-size="14.00" fill="#000000">name </text>
<text text-anchor="start" x="713.899" y="-1243.9" font-family="Arial" font-size="14.00" fill="#666666">[varchar(32)]</text>
<polygon fill="none" stroke="#000000" points="668,-1202.5 668,-1232.5 837,-1232.5 837,-1202.5 668,-1202.5"/>
<text text-anchor="start" x="675" y="-1213.9" font-family="Arial" font-size="14.00" fill="#000000">creator_id </text>
<text text-anchor="start" x="741.122" y="-1213.9" font-family="Arial" font-size="14.00" fill="#666666">[char(36)]</text>
<polygon fill="none" stroke="#000000" points="668,-1172.5 668,-1202.5 837,-1202.5 837,-1172.5 668,-1172.5"/>
<text text-anchor="start" x="675" y="-1183.9" font-family="Arial" font-size="14.00" fill="#000000">file_id </text>
<text text-anchor="start" x="715.4488" y="-1183.9" font-family="Arial" font-size="14.00" fill="#666666">[char(36)]</text>
<polygon fill="none" stroke="#000000" points="668,-1142.5 668,-1172.5 837,-1172.5 837,-1142.5 668,-1142.5"/>
<text text-anchor="start" x="675" y="-1153.9" font-family="Arial" font-size="14.00" fill="#000000">is_unicode </text>
<text text-anchor="start" x="745.7994" y="-1153.9" font-family="Arial" font-size="14.00" fill="#666666">[tinyint(1)]</text>
<polygon fill="none" stroke="#000000" points="668,-1112.5 668,-1142.5 837,-1142.5 837,-1112.5 668,-1112.5"/>
<text text-anchor="start" x="675" y="-1123.9" font-family="Arial" font-size="14.00" fill="#000000">created_at </text>
<text text-anchor="start" x="745.028" y="-1123.9" font-family="Arial" font-size="14.00" fill="#666666">[datetime(6)]</text>
<polygon fill="none" stroke="#000000" points="668,-1082.5 668,-1112.5 837,-1112.5 837,-1082.5 668,-1082.5"/>
<text text-anchor="start" x="675" y="-1093.9" font-family="Arial" font-size="14.00" fill="#000000">updated_at </text>
<text text-anchor="start" x="748.9326" y="-1093.9" font-family="Arial" font-size="14.00" fill="#666666">[datetime(6)]</text>
<polygon fill="none" stroke="#000000" points="668,-1052.5 668,-1082.5 837,-1082.5 837,-1052.5 668,-1052.5"/>
<text text-anchor="start" x="675" y="-1063.9" font-family="Arial" font-size="14.00" fill="#000000">deleted_at </text>
<text text-anchor="start" x="744.2566" y="-1063.9" font-family="Arial" font-size="14.00" fill="#666666">[datetime(6)]</text>
</g>
<!-- stamps&#45;&gt;files -->
<g id="edge3" class="edge">
<title>stamps:file_id&#45;&gt;files:id</title>
<path fill="none" stroke="#000000" d="M657.7532,-1186.8326C593.9339,-1177.8775 642.4031,-1080.6999 668,-1010 675.0902,-990.4167 690.9098,-993.5833 698,-974 712.6005,-933.6728 740.8889,-877.5 698,-877.5"/>
<polygon fill="#000000" stroke="#000000" points="658.0211,-1186.8499 667.7075,-1191.9905 663.0106,-1187.175 668,-1187.5 668,-1187.5 668,-1187.5 663.0106,-1187.175 668.2925,-1183.0095 658.0211,-1186.8499 658.0211,-1186.8499"/>
<text text-anchor="start" x="674.616" y="-1197.5" font-family="Arial" font-size="10.00" fill="#000000">FOREIGN KEY (file_id) REFERENCES files (id)</text>
</g>
<!-- user_groups -->
<g id="node5" class="node">
<title>user_groups</title>
<polygon fill="#efefef" stroke="transparent" points="941,-1277.5 941,-1312.5 1152,-1312.5 1152,-1277.5 941,-1277.5"/>
<polygon fill="none" stroke="#000000" points="941,-1277.5 941,-1312.5 1152,-1312.5 1152,-1277.5 941,-1277.5"/>
<text text-anchor="start" x="947.8592" y="-1290.3" font-family="Arial Bold" font-size="18.00" fill="#000000">user_groups</text>
<text text-anchor="start" x="1047.887" y="-1290.3" font-family="Arial" font-size="14.00" fill="#000000"> </text>
<text text-anchor="start" x="1051.7776" y="-1290.3" font-family="Arial" font-size="14.00" fill="#666666">[BASE TABLE]</text>
<polygon fill="none" stroke="#000000" points="941,-1247.5 941,-1277.5 1152,-1277.5 1152,-1247.5 941,-1247.5"/>
<text text-anchor="start" x="948" y="-1258.9" font-family="Arial" font-size="14.00" fill="#000000">id </text>
<text text-anchor="start" x="962.7798" y="-1258.9" font-family="Arial" font-size="14.00" fill="#666666">[char(36)]</text>
<polygon fill="none" stroke="#000000" points="941,-1217.5 941,-1247.5 1152,-1247.5 1152,-1217.5 941,-1217.5"/>
<text text-anchor="start" x="948" y="-1228.9" font-family="Arial" font-size="14.00" fill="#000000">name </text>
<text text-anchor="start" x="986.899" y="-1228.9" font-family="Arial" font-size="14.00" fill="#666666">[varchar(30)]</text>
<polygon fill="none" stroke="#000000" points="941,-1187.5 941,-1217.5 1152,-1217.5 1152,-1187.5 941,-1187.5"/>
<text text-anchor="start" x="948" y="-1198.9" font-family="Arial" font-size="14.00" fill="#000000">description </text>
<text text-anchor="start" x="1019.568" y="-1198.9" font-family="Arial" font-size="14.00" fill="#666666">[text]</text>
<polygon fill="none" stroke="#000000" points="941,-1157.5 941,-1187.5 1152,-1187.5 1152,-1157.5 941,-1157.5"/>
<text text-anchor="start" x="948" y="-1168.9" font-family="Arial" font-size="14.00" fill="#000000">type </text>
<text text-anchor="start" x="978.3464" y="-1168.9" font-family="Arial" font-size="14.00" fill="#666666">[varchar(30)]</text>
<polygon fill="none" stroke="#000000" points="941,-1127.5 941,-1157.5 1152,-1157.5 1152,-1127.5 941,-1127.5"/>
<text text-anchor="start" x="948" y="-1138.9" font-family="Arial" font-size="14.00" fill="#000000">icon </text>
<text text-anchor="start" x="977.5624" y="-1138.9" font-family="Arial" font-size="14.00" fill="#666666">[char(36)]</text>
<polygon fill="none" stroke="#000000" points="941,-1097.5 941,-1127.5 1152,-1127.5 1152,-1097.5 941,-1097.5"/>
<text text-anchor="start" x="948" y="-1108.9" font-family="Arial" font-size="14.00" fill="#000000">created_at </text>
<text text-anchor="start" x="1018.028" y="-1108.9" font-family="Arial" font-size="14.00" fill="#666666">[datetime(6)]</text>
<polygon fill="none" stroke="#000000" points="941,-1067.5 941,-1097.5 1152,-1097.5 1152,-1067.5 941,-1067.5"/>
<text text-anchor="start" x="948" y="-1078.9" font-family="Arial" font-size="14.00" fill="#000000">updated_at </text>
<text text-anchor="start" x="1021.9326" y="-1078.9" font-family="Arial" font-size="14.00" fill="#666666">[datetime(6)]</text>
</g>
<!-- user_groups&#45;&gt;files -->
<g id="edge4" class="edge">
<title>user_groups:icon&#45;&gt;files:id</title>
<path fill="none" stroke="#000000" d="M931.0106,-1141.6697C883.3487,-1132.9016 925.9426,-1056.7121 889,-1010 824.9123,-928.9643 801.3152,-877.5 698,-877.5"/>
<polygon fill="#000000" stroke="#000000" points="931.0344,-1141.6716 940.6272,-1146.9845 936.0172,-1142.0858 941,-1142.5 941,-1142.5 941,-1142.5 936.0172,-1142.0858 941.3728,-1138.0155 931.0344,-1141.6716 931.0344,-1141.6716"/>
<text text-anchor="start" x="729.504" y="-1152.5" font-family="Arial" font-size="10.00" fill="#000000">FOREIGN KEY (icon) REFERENCES files (id)</text>
</g>
<!-- users&#45;&gt;files -->
<g id="edge5" class="edge">
<title>users:icon&#45;&gt;files:id</title>
<path fill="none" stroke="#000000" stroke-dasharray="5,2" d="M698.8029,-225.0487C740.2498,-248.4449 719.7707,-425.9349 689,-466 635.4821,-535.6831 551.5179,-447.3169 498,-517 400.4075,-644.0703 337.7778,-877.5 498,-877.5"/>
<polygon fill="#000000" stroke="#000000" points="698.6782,-225.0164 690.1324,-218.1448 693.8391,-223.7582 689,-222.5 689,-222.5 689,-222.5 693.8391,-223.7582 687.8676,-226.8552 698.6782,-225.0164 698.6782,-225.0164"/>
<text text-anchor="start" x="696.3245" y="-232.5" font-family="Arial" font-size="10.00" fill="#000000">Additional Relation</text>
</g>
</g>
</svg>
