<?xml version="1.0" encoding="UTF-8" standalone="no"?>
<!DOCTYPE svg PUBLIC "-//W3C//DTD SVG 1.1//EN"
        "http://www.w3.org/Graphics/SVG/1.1/DTD/svg11.dtd">
<!-- Generated by graphviz version 2.40.1 (20161225.0304)
 -->
<!-- Title: files_acl Pages: 1 -->
<svg width="281pt" height="224pt"
     viewBox="0.00 0.00 281.00 224.00" xmlns="http://www.w3.org/2000/svg">
    <g id="graph0" class="graph" transform="scale(1 1) rotate(0) translate(4 220)">
        <title>files_acl</title>
        <polygon fill="#ffffff" stroke="transparent" points="-4,4 -4,-220 277,-220 277,4 -4,4"/>
        <!-- files_acl -->
        <g id="node1" class="node">
            <title>files_acl</title>
            <polygon fill="#efefef" stroke="transparent" points="46.5,-136 46.5,-170 227.5,-170 227.5,-136 46.5,-136"/>
            <polygon fill="none" stroke="#000000" points="46.5,-136 46.5,-170 227.5,-170 227.5,-136 46.5,-136"/>
            <text text-anchor="start" x="53.4897" y="-149.6" font-family="Arial Bold" font-size="18.00" fill="#000000">
                files_acl
            </text>
            <text text-anchor="start" x="124.5405" y="-149.6" font-family="Arial" font-size="14.00"
                  fill="#000000"></text>
            <text text-anchor="start" x="128.4302" y="-149.6" font-family="Arial" font-size="14.00" fill="#666666">[BASE
                TABLE]
            </text>
            <polygon fill="none" stroke="#000000" points="46.5,-106 46.5,-136 227.5,-136 227.5,-106 46.5,-106"/>
            <text text-anchor="start" x="53.5" y="-118.8" font-family="Arial" font-size="14.00" fill="#000000">file_id
            </text>
            <text text-anchor="start" x="93.9688" y="-118.8" font-family="Arial" font-size="14.00" fill="#666666">
                [char(36)]
            </text>
            <polygon fill="none" stroke="#000000" points="46.5,-76 46.5,-106 227.5,-106 227.5,-76 46.5,-76"/>
            <text text-anchor="start" x="53.5" y="-88.8" font-family="Arial" font-size="14.00" fill="#000000">user_id
            </text>
            <text text-anchor="start" x="103.3066" y="-88.8" font-family="Arial" font-size="14.00" fill="#666666">
                [char(36)]
            </text>
            <polygon fill="none" stroke="#000000" points="46.5,-46 46.5,-76 227.5,-76 227.5,-46 46.5,-46"/>
            <text text-anchor="start" x="53.5" y="-58.8" font-family="Arial" font-size="14.00" fill="#000000">allow
            </text>
            <text text-anchor="start" x="89.293" y="-58.8" font-family="Arial" font-size="14.00" fill="#666666">
                [tinyint(1)]
            </text>
            <polygon fill="none" stroke="#000000" stroke-width="3"
                     points="44.5,-44.5 44.5,-171.5 228.5,-171.5 228.5,-44.5 44.5,-44.5"/>
        </g>
    </g>
</svg>
