<?xml version="1.0" encoding="UTF-8" standalone="no"?>
<!DOCTYPE svg PUBLIC "-//W3C//DTD SVG 1.1//EN"
 "http://www.w3.org/Graphics/SVG/1.1/DTD/svg11.dtd">
<!-- Generated by graphviz version 2.40.1 (20161225.0304)
 -->
<!-- Title: files_acl Pages: 1 -->
<svg width="465pt" height="832pt"
 viewBox="0.00 0.00 465.00 832.00" xmlns="http://www.w3.org/2000/svg" xmlns:xlink="http://www.w3.org/1999/xlink">
<g id="graph0" class="graph" transform="scale(1 1) rotate(0) translate(4 828)">
<title>files_acl</title>
<polygon fill="#ffffff" stroke="transparent" points="-4,4 -4,-828 461,-828 461,4 -4,4"/>
<!-- files_acl -->
<g id="node1" class="node">
<title>files_acl</title>
<polygon fill="#efefef" stroke="transparent" points="55,-742.5 55,-777.5 231,-777.5 231,-742.5 55,-742.5"/>
<polygon fill="none" stroke="#000000" points="55,-742.5 55,-777.5 231,-777.5 231,-742.5 55,-742.5"/>
<text text-anchor="start" x="61.8714" y="-755.3" font-family="Arial Bold" font-size="18.00" fill="#000000">files_acl</text>
<text text-anchor="start" x="126.8748" y="-755.3" font-family="Arial" font-size="14.00" fill="#000000"> </text>
<text text-anchor="start" x="130.7654" y="-755.3" font-family="Arial" font-size="14.00" fill="#666666">[BASE TABLE]</text>
<polygon fill="none" stroke="#000000" points="55,-712.5 55,-742.5 231,-742.5 231,-712.5 55,-712.5"/>
<text text-anchor="start" x="62" y="-723.9" font-family="Arial" font-size="14.00" fill="#000000">file_id </text>
<text text-anchor="start" x="102.4488" y="-723.9" font-family="Arial" font-size="14.00" fill="#666666">[char(36)]</text>
<polygon fill="none" stroke="#000000" points="55,-682.5 55,-712.5 231,-712.5 231,-682.5 55,-682.5"/>
<text text-anchor="start" x="62" y="-693.9" font-family="Arial" font-size="14.00" fill="#000000">user_id </text>
<text text-anchor="start" x="111.7882" y="-693.9" font-family="Arial" font-size="14.00" fill="#666666">[char(36)]</text>
<polygon fill="none" stroke="#000000" points="55,-652.5 55,-682.5 231,-682.5 231,-652.5 55,-652.5"/>
<text text-anchor="start" x="62" y="-663.9" font-family="Arial" font-size="14.00" fill="#000000">allow </text>
<text text-anchor="start" x="97.7756" y="-663.9" font-family="Arial" font-size="14.00" fill="#666666">[tinyint(1)]</text>
<polygon fill="none" stroke="#000000" stroke-width="3" points="53.5,-651.5 53.5,-779.5 232.5,-779.5 232.5,-651.5 53.5,-651.5"/>
</g>
<!-- files -->
<g id="node2" class="node">
<title>files</title>
<polygon fill="#efefef" stroke="transparent" points="43,-492.5 43,-527.5 243,-527.5 243,-492.5 43,-492.5"/>
<polygon fill="none" stroke="#000000" points="43,-492.5 43,-527.5 243,-527.5 243,-492.5 43,-492.5"/>
<text text-anchor="start" x="78.3747" y="-505.3" font-family="Arial Bold" font-size="18.00" fill="#000000">files</text>
<text text-anchor="start" x="110.3715" y="-505.3" font-family="Arial" font-size="14.00" fill="#000000"> </text>
<text text-anchor="start" x="114.2621" y="-505.3" font-family="Arial" font-size="14.00" fill="#666666">[BASE TABLE]</text>
<polygon fill="none" stroke="#000000" points="43,-462.5 43,-492.5 243,-492.5 243,-462.5 43,-462.5"/>
<text text-anchor="start" x="50" y="-473.9" font-family="Arial" font-size="14.00" fill="#000000">id </text>
<text text-anchor="start" x="64.7798" y="-473.9" font-family="Arial" font-size="14.00" fill="#666666">[char(36)]</text>
<polygon fill="none" stroke="#000000" points="43,-432.5 43,-462.5 243,-462.5 243,-432.5 43,-432.5"/>
<text text-anchor="start" x="50" y="-443.9" font-family="Arial" font-size="14.00" fill="#000000">name </text>
<text text-anchor="start" x="88.899" y="-443.9" font-family="Arial" font-size="14.00" fill="#666666">[text]</text>
<polygon fill="none" stroke="#000000" points="43,-402.5 43,-432.5 243,-432.5 243,-402.5 43,-402.5"/>
<text text-anchor="start" x="50" y="-413.9" font-family="Arial" font-size="14.00" fill="#000000">mime </text>
<text text-anchor="start" x="88.101" y="-413.9" font-family="Arial" font-size="14.00" fill="#666666">[text]</text>
<polygon fill="none" stroke="#000000" points="43,-372.5 43,-402.5 243,-402.5 243,-372.5 43,-372.5"/>
<text text-anchor="start" x="50" y="-383.9" font-family="Arial" font-size="14.00" fill="#000000">size </text>
<text text-anchor="start" x="78.7798" y="-383.9" font-family="Arial" font-size="14.00" fill="#666666">[bigint(20)]</text>
<polygon fill="none" stroke="#000000" points="43,-342.5 43,-372.5 243,-372.5 243,-342.5 43,-342.5"/>
<text text-anchor="start" x="50" y="-353.9" font-family="Arial" font-size="14.00" fill="#000000">creator_id </text>
<text text-anchor="start" x="116.122" y="-353.9" font-family="Arial" font-size="14.00" fill="#666666">[char(36)]</text>
<polygon fill="none" stroke="#000000" points="43,-312.5 43,-342.5 243,-342.5 243,-312.5 43,-312.5"/>
<text text-anchor="start" x="50" y="-323.9" font-family="Arial" font-size="14.00" fill="#000000">hash </text>
<text text-anchor="start" x="84.2384" y="-323.9" font-family="Arial" font-size="14.00" fill="#666666">[char(32)]</text>
<polygon fill="none" stroke="#000000" points="43,-282.5 43,-312.5 243,-312.5 243,-282.5 43,-282.5"/>
<text text-anchor="start" x="50" y="-293.9" font-family="Arial" font-size="14.00" fill="#000000">type </text>
<text text-anchor="start" x="80.3464" y="-293.9" font-family="Arial" font-size="14.00" fill="#666666">[varchar(30)]</text>
<polygon fill="none" stroke="#000000" points="43,-252.5 43,-282.5 243,-282.5 243,-252.5 43,-252.5"/>
<text text-anchor="start" x="50" y="-263.9" font-family="Arial" font-size="14.00" fill="#000000">has_thumbnail </text>
<text text-anchor="start" x="144.9158" y="-263.9" font-family="Arial" font-size="14.00" fill="#666666">[tinyint(1)]</text>
<polygon fill="none" stroke="#000000" points="43,-222.5 43,-252.5 243,-252.5 243,-222.5 43,-222.5"/>
<text text-anchor="start" x="50" y="-233.9" font-family="Arial" font-size="14.00" fill="#000000">thumbnail_mime </text>
<text text-anchor="start" x="156.561" y="-233.9" font-family="Arial" font-size="14.00" fill="#666666">[text]</text>
<polygon fill="none" stroke="#000000" points="43,-192.5 43,-222.5 243,-222.5 243,-192.5 43,-192.5"/>
<text text-anchor="start" x="50" y="-203.9" font-family="Arial" font-size="14.00" fill="#000000">thumbnail_width </text>
<text text-anchor="start" x="155.0196" y="-203.9" font-family="Arial" font-size="14.00" fill="#666666">[int(11)]</text>
<polygon fill="none" stroke="#000000" points="43,-162.5 43,-192.5 243,-192.5 243,-162.5 43,-162.5"/>
<text text-anchor="start" x="50" y="-173.9" font-family="Arial" font-size="14.00" fill="#000000">thumbnail_height </text>
<text text-anchor="start" x="160.4782" y="-173.9" font-family="Arial" font-size="14.00" fill="#666666">[int(11)]</text>
<polygon fill="none" stroke="#000000" points="43,-132.5 43,-162.5 243,-162.5 243,-132.5 43,-132.5"/>
<text text-anchor="start" x="49.6536" y="-143.9" font-family="Arial" font-size="14.00" fill="#000000">is_animated_image </text>
<text text-anchor="start" x="174.9018" y="-143.9" font-family="Arial" font-size="14.00" fill="#666666">[tinyint(1)]</text>
<polygon fill="none" stroke="#000000" points="43,-102.5 43,-132.5 243,-132.5 243,-102.5 43,-102.5"/>
<text text-anchor="start" x="50" y="-113.9" font-family="Arial" font-size="14.00" fill="#000000">channel_id </text>
<text text-anchor="start" x="121.582" y="-113.9" font-family="Arial" font-size="14.00" fill="#666666">[char(36)]</text>
<polygon fill="none" stroke="#000000" points="43,-72.5 43,-102.5 243,-102.5 243,-72.5 43,-72.5"/>
<text text-anchor="start" x="50" y="-83.9" font-family="Arial" font-size="14.00" fill="#000000">created_at </text>
<text text-anchor="start" x="120.028" y="-83.9" font-family="Arial" font-size="14.00" fill="#666666">[datetime(6)]</text>
<polygon fill="none" stroke="#000000" points="43,-42.5 43,-72.5 243,-72.5 243,-42.5 43,-42.5"/>
<text text-anchor="start" x="50" y="-53.9" font-family="Arial" font-size="14.00" fill="#000000">deleted_at </text>
<text text-anchor="start" x="119.2566" y="-53.9" font-family="Arial" font-size="14.00" fill="#666666">[datetime(6)]</text>
</g>
<!-- files_acl&#45;&gt;files -->
<g id="edge1" class="edge">
<title>files_acl:file_id&#45;&gt;files:id</title>
<path fill="none" stroke="#000000" d="M240.9116,-724.6924C287.8554,-697.2266 295.1433,-477.5 243,-477.5"/>
<polygon fill="#000000" stroke="#000000" points="240.6214,-724.7745 229.7735,-723.1704 235.8107,-726.1373 231,-727.5 231,-727.5 231,-727.5 235.8107,-726.1373 232.2265,-731.8296 240.6214,-724.7745 240.6214,-724.7745"/>
<text text-anchor="start" x="237.616" y="-737.5" font-family="Arial" font-size="10.00" fill="#000000">FOREIGN KEY (file_id) REFERENCES files (id)</text>
</g>
</g>
</svg>
