<?xml version="1.0" encoding="UTF-8" standalone="no"?>
<!DOCTYPE svg PUBLIC "-//W3C//DTD SVG 1.1//EN"
 "http://www.w3.org/Graphics/SVG/1.1/DTD/svg11.dtd">
<!-- Generated by graphviz version 2.40.1 (20161225.0304)
 -->
<!-- Title: files Pages: 1 -->
<svg width="888pt" height="1379pt"
 viewBox="0.00 0.00 887.50 1379.00" xmlns="http://www.w3.org/2000/svg" xmlns:xlink="http://www.w3.org/1999/xlink">
<g id="graph0" class="graph" transform="scale(1 1) rotate(0) translate(4 1375)">
<title>files</title>
<polygon fill="#ffffff" stroke="transparent" points="-4,4 -4,-1375 883.5,-1375 883.5,4 -4,4"/>
<!-- files -->
<g id="node1" class="node">
<title>files</title>
<polygon fill="#efefef" stroke="transparent" points="343,-892.5 343,-927.5 543,-927.5 543,-892.5 343,-892.5"/>
<polygon fill="none" stroke="#000000" points="343,-892.5 343,-927.5 543,-927.5 543,-892.5 343,-892.5"/>
<text text-anchor="start" x="378.3747" y="-905.3" font-family="Arial Bold" font-size="18.00" fill="#000000">files</text>
<text text-anchor="start" x="410.3715" y="-905.3" font-family="Arial" font-size="14.00" fill="#000000"> </text>
<text text-anchor="start" x="414.2621" y="-905.3" font-family="Arial" font-size="14.00" fill="#666666">[BASE TABLE]</text>
<polygon fill="none" stroke="#000000" points="343,-862.5 343,-892.5 543,-892.5 543,-862.5 343,-862.5"/>
<text text-anchor="start" x="350" y="-873.9" font-family="Arial" font-size="14.00" fill="#000000">id </text>
<text text-anchor="start" x="364.7798" y="-873.9" font-family="Arial" font-size="14.00" fill="#666666">[char(36)]</text>
<polygon fill="none" stroke="#000000" points="343,-832.5 343,-862.5 543,-862.5 543,-832.5 343,-832.5"/>
<text text-anchor="start" x="350" y="-843.9" font-family="Arial" font-size="14.00" fill="#000000">name </text>
<text text-anchor="start" x="388.899" y="-843.9" font-family="Arial" font-size="14.00" fill="#666666">[text]</text>
<polygon fill="none" stroke="#000000" points="343,-802.5 343,-832.5 543,-832.5 543,-802.5 343,-802.5"/>
<text text-anchor="start" x="350" y="-813.9" font-family="Arial" font-size="14.00" fill="#000000">mime </text>
<text text-anchor="start" x="388.101" y="-813.9" font-family="Arial" font-size="14.00" fill="#666666">[text]</text>
<polygon fill="none" stroke="#000000" points="343,-772.5 343,-802.5 543,-802.5 543,-772.5 343,-772.5"/>
<text text-anchor="start" x="350" y="-783.9" font-family="Arial" font-size="14.00" fill="#000000">size </text>
<text text-anchor="start" x="378.7798" y="-783.9" font-family="Arial" font-size="14.00" fill="#666666">[bigint(20)]</text>
<polygon fill="none" stroke="#000000" points="343,-742.5 343,-772.5 543,-772.5 543,-742.5 343,-742.5"/>
<text text-anchor="start" x="350" y="-753.9" font-family="Arial" font-size="14.00" fill="#000000">creator_id </text>
<text text-anchor="start" x="416.122" y="-753.9" font-family="Arial" font-size="14.00" fill="#666666">[char(36)]</text>
<polygon fill="none" stroke="#000000" points="343,-712.5 343,-742.5 543,-742.5 543,-712.5 343,-712.5"/>
<text text-anchor="start" x="350" y="-723.9" font-family="Arial" font-size="14.00" fill="#000000">hash </text>
<text text-anchor="start" x="384.2384" y="-723.9" font-family="Arial" font-size="14.00" fill="#666666">[char(32)]</text>
<polygon fill="none" stroke="#000000" points="343,-682.5 343,-712.5 543,-712.5 543,-682.5 343,-682.5"/>
<text text-anchor="start" x="350" y="-693.9" font-family="Arial" font-size="14.00" fill="#000000">type </text>
<text text-anchor="start" x="380.3464" y="-693.9" font-family="Arial" font-size="14.00" fill="#666666">[varchar(30)]</text>
<polygon fill="none" stroke="#000000" points="343,-652.5 343,-682.5 543,-682.5 543,-652.5 343,-652.5"/>
<text text-anchor="start" x="349.6536" y="-663.9" font-family="Arial" font-size="14.00" fill="#000000">is_animated_image </text>
<text text-anchor="start" x="474.9018" y="-663.9" font-family="Arial" font-size="14.00" fill="#666666">[tinyint(1)]</text>
<polygon fill="none" stroke="#000000" points="343,-622.5 343,-652.5 543,-652.5 543,-622.5 343,-622.5"/>
<text text-anchor="start" x="350" y="-633.9" font-family="Arial" font-size="14.00" fill="#000000">channel_id </text>
<text text-anchor="start" x="421.582" y="-633.9" font-family="Arial" font-size="14.00" fill="#666666">[char(36)]</text>
<polygon fill="none" stroke="#000000" points="343,-592.5 343,-622.5 543,-622.5 543,-592.5 343,-592.5"/>
<text text-anchor="start" x="350" y="-603.9" font-family="Arial" font-size="14.00" fill="#000000">created_at </text>
<text text-anchor="start" x="420.028" y="-603.9" font-family="Arial" font-size="14.00" fill="#666666">[datetime(6)]</text>
<polygon fill="none" stroke="#000000" points="343,-562.5 343,-592.5 543,-592.5 543,-562.5 343,-562.5"/>
<text text-anchor="start" x="350" y="-573.9" font-family="Arial" font-size="14.00" fill="#000000">deleted_at </text>
<text text-anchor="start" x="419.2566" y="-573.9" font-family="Arial" font-size="14.00" fill="#666666">[datetime(6)]</text>
<polygon fill="none" stroke="#000000" stroke-width="3" points="341.5,-561.5 341.5,-929.5 544.5,-929.5 544.5,-561.5 341.5,-561.5"/>
</g>
<!-- users -->
<g id="node5" class="node">
<title>users</title>
<polygon fill="#efefef" stroke="transparent" points="351,-387.5 351,-422.5 534,-422.5 534,-387.5 351,-387.5"/>
<polygon fill="none" stroke="#000000" points="351,-387.5 351,-422.5 534,-422.5 534,-387.5 351,-387.5"/>
<text text-anchor="start" x="371.8708" y="-400.3" font-family="Arial Bold" font-size="18.00" fill="#000000">users</text>
<text text-anchor="start" x="415.8754" y="-400.3" font-family="Arial" font-size="14.00" fill="#000000"> </text>
<text text-anchor="start" x="419.766" y="-400.3" font-family="Arial" font-size="14.00" fill="#666666">[BASE TABLE]</text>
<polygon fill="none" stroke="#000000" points="351,-357.5 351,-387.5 534,-387.5 534,-357.5 351,-357.5"/>
<text text-anchor="start" x="358" y="-368.9" font-family="Arial" font-size="14.00" fill="#000000">id </text>
<text text-anchor="start" x="372.7798" y="-368.9" font-family="Arial" font-size="14.00" fill="#666666">[char(36)]</text>
<polygon fill="none" stroke="#000000" points="351,-327.5 351,-357.5 534,-357.5 534,-327.5 351,-327.5"/>
<text text-anchor="start" x="358" y="-338.9" font-family="Arial" font-size="14.00" fill="#000000">name </text>
<text text-anchor="start" x="396.899" y="-338.9" font-family="Arial" font-size="14.00" fill="#666666">[varchar(32)]</text>
<polygon fill="none" stroke="#000000" points="351,-297.5 351,-327.5 534,-327.5 534,-297.5 351,-297.5"/>
<text text-anchor="start" x="357.7104" y="-308.9" font-family="Arial" font-size="14.00" fill="#000000">display_name </text>
<text text-anchor="start" x="447.953" y="-308.9" font-family="Arial" font-size="14.00" fill="#666666">[varchar(64)]</text>
<polygon fill="none" stroke="#000000" points="351,-267.5 351,-297.5 534,-297.5 534,-267.5 351,-267.5"/>
<text text-anchor="start" x="358" y="-278.9" font-family="Arial" font-size="14.00" fill="#000000">password </text>
<text text-anchor="start" x="421.7882" y="-278.9" font-family="Arial" font-size="14.00" fill="#666666">[char(128)]</text>
<polygon fill="none" stroke="#000000" points="351,-237.5 351,-267.5 534,-267.5 534,-237.5 351,-237.5"/>
<text text-anchor="start" x="358" y="-248.9" font-family="Arial" font-size="14.00" fill="#000000">salt </text>
<text text-anchor="start" x="383.6704" y="-248.9" font-family="Arial" font-size="14.00" fill="#666666">[char(128)]</text>
<polygon fill="none" stroke="#000000" points="351,-207.5 351,-237.5 534,-237.5 534,-207.5 351,-207.5"/>
<text text-anchor="start" x="358" y="-218.9" font-family="Arial" font-size="14.00" fill="#000000">icon </text>
<text text-anchor="start" x="387.5624" y="-218.9" font-family="Arial" font-size="14.00" fill="#666666">[char(36)]</text>
<polygon fill="none" stroke="#000000" points="351,-177.5 351,-207.5 534,-207.5 534,-177.5 351,-177.5"/>
<text text-anchor="start" x="358" y="-188.9" font-family="Arial" font-size="14.00" fill="#000000">status </text>
<text text-anchor="start" x="399.237" y="-188.9" font-family="Arial" font-size="14.00" fill="#666666">[tinyint(4)]</text>
<polygon fill="none" stroke="#000000" points="351,-147.5 351,-177.5 534,-177.5 534,-147.5 351,-147.5"/>
<text text-anchor="start" x="358" y="-158.9" font-family="Arial" font-size="14.00" fill="#000000">bot </text>
<text text-anchor="start" x="381.3464" y="-158.9" font-family="Arial" font-size="14.00" fill="#666666">[tinyint(1)]</text>
<polygon fill="none" stroke="#000000" points="351,-117.5 351,-147.5 534,-147.5 534,-117.5 351,-117.5"/>
<text text-anchor="start" x="358" y="-128.9" font-family="Arial" font-size="14.00" fill="#000000">role </text>
<text text-anchor="start" x="385.223" y="-128.9" font-family="Arial" font-size="14.00" fill="#666666">[varchar(30)]</text>
<polygon fill="none" stroke="#000000" points="351,-87.5 351,-117.5 534,-117.5 534,-87.5 351,-87.5"/>
<text text-anchor="start" x="358" y="-98.9" font-family="Arial" font-size="14.00" fill="#000000">created_at </text>
<text text-anchor="start" x="428.028" y="-98.9" font-family="Arial" font-size="14.00" fill="#666666">[datetime(6)]</text>
<polygon fill="none" stroke="#000000" points="351,-57.5 351,-87.5 534,-87.5 534,-57.5 351,-57.5"/>
<text text-anchor="start" x="358" y="-68.9" font-family="Arial" font-size="14.00" fill="#000000">updated_at </text>
<text text-anchor="start" x="431.9326" y="-68.9" font-family="Arial" font-size="14.00" fill="#666666">[datetime(6)]</text>
</g>
<!-- files&#45;&gt;users -->
<g id="edge5" class="edge">
<title>files:creator_id&#45;&gt;users:id</title>
<path fill="none" stroke="#000000" d="M332.84,-756.9933C238.9114,-747.2369 280.055,-598.9576 343,-517 396.5179,-447.3169 480.4821,-535.6831 534,-466 559.3118,-433.0428 575.5556,-372.5 534,-372.5"/>
<polygon fill="#000000" stroke="#000000" points="333.0124,-757.0018 342.7758,-761.9944 338.0062,-757.2509 343,-757.5 343,-757.5 343,-757.5 338.0062,-757.2509 343.2242,-753.0056 333.0124,-757.0018 333.0124,-757.0018"/>
<text text-anchor="start" x="99.1115" y="-767.5" font-family="Arial" font-size="10.00" fill="#000000">FOREIGN KEY (creator_id) REFERENCES users (id)</text>
</g>
<!-- channels -->
<g id="node6" class="node">
<title>channels</title>
<polygon fill="#efefef" stroke="transparent" points="638,-402.5 638,-437.5 821,-437.5 821,-402.5 638,-402.5"/>
<polygon fill="none" stroke="#000000" points="638,-402.5 638,-437.5 821,-437.5 821,-402.5 638,-402.5"/>
<text text-anchor="start" x="644.8605" y="-415.3" font-family="Arial Bold" font-size="18.00" fill="#000000">channels</text>
<text text-anchor="start" x="716.8857" y="-415.3" font-family="Arial" font-size="14.00" fill="#000000"> </text>
<text text-anchor="start" x="720.7763" y="-415.3" font-family="Arial" font-size="14.00" fill="#666666">[BASE TABLE]</text>
<polygon fill="none" stroke="#000000" points="638,-372.5 638,-402.5 821,-402.5 821,-372.5 638,-372.5"/>
<text text-anchor="start" x="645" y="-383.9" font-family="Arial" font-size="14.00" fill="#000000">id </text>
<text text-anchor="start" x="659.7798" y="-383.9" font-family="Arial" font-size="14.00" fill="#666666">[char(36)]</text>
<polygon fill="none" stroke="#000000" points="638,-342.5 638,-372.5 821,-372.5 821,-342.5 638,-342.5"/>
<text text-anchor="start" x="645" y="-353.9" font-family="Arial" font-size="14.00" fill="#000000">name </text>
<text text-anchor="start" x="683.899" y="-353.9" font-family="Arial" font-size="14.00" fill="#666666">[varchar(20)]</text>
<polygon fill="none" stroke="#000000" points="638,-312.5 638,-342.5 821,-342.5 821,-312.5 638,-312.5"/>
<text text-anchor="start" x="645" y="-323.9" font-family="Arial" font-size="14.00" fill="#000000">parent_id </text>
<text text-anchor="start" x="707.244" y="-323.9" font-family="Arial" font-size="14.00" fill="#666666">[char(36)]</text>
<polygon fill="none" stroke="#000000" points="638,-282.5 638,-312.5 821,-312.5 821,-282.5 638,-282.5"/>
<text text-anchor="start" x="645" y="-293.9" font-family="Arial" font-size="14.00" fill="#000000">topic </text>
<text text-anchor="start" x="678.453" y="-293.9" font-family="Arial" font-size="14.00" fill="#666666">[text]</text>
<polygon fill="none" stroke="#000000" points="638,-252.5 638,-282.5 821,-282.5 821,-252.5 638,-252.5"/>
<text text-anchor="start" x="645" y="-263.9" font-family="Arial" font-size="14.00" fill="#000000">is_forced </text>
<text text-anchor="start" x="705.6788" y="-263.9" font-family="Arial" font-size="14.00" fill="#666666">[tinyint(1)]</text>
<polygon fill="none" stroke="#000000" points="638,-222.5 638,-252.5 821,-252.5 821,-222.5 638,-222.5"/>
<text text-anchor="start" x="645" y="-233.9" font-family="Arial" font-size="14.00" fill="#000000">is_public </text>
<text text-anchor="start" x="703.3408" y="-233.9" font-family="Arial" font-size="14.00" fill="#666666">[tinyint(1)]</text>
<polygon fill="none" stroke="#000000" points="638,-192.5 638,-222.5 821,-222.5 821,-192.5 638,-192.5"/>
<text text-anchor="start" x="645" y="-203.9" font-family="Arial" font-size="14.00" fill="#000000">is_visible </text>
<text text-anchor="start" x="705.6648" y="-203.9" font-family="Arial" font-size="14.00" fill="#666666">[tinyint(1)]</text>
<polygon fill="none" stroke="#000000" points="638,-162.5 638,-192.5 821,-192.5 821,-162.5 638,-162.5"/>
<text text-anchor="start" x="645" y="-173.9" font-family="Arial" font-size="14.00" fill="#000000">creator_id </text>
<text text-anchor="start" x="711.122" y="-173.9" font-family="Arial" font-size="14.00" fill="#666666">[char(36)]</text>
<polygon fill="none" stroke="#000000" points="638,-132.5 638,-162.5 821,-162.5 821,-132.5 638,-132.5"/>
<text text-anchor="start" x="645" y="-143.9" font-family="Arial" font-size="14.00" fill="#000000">updater_id </text>
<text text-anchor="start" x="715.0266" y="-143.9" font-family="Arial" font-size="14.00" fill="#666666">[char(36)]</text>
<polygon fill="none" stroke="#000000" points="638,-102.5 638,-132.5 821,-132.5 821,-102.5 638,-102.5"/>
<text text-anchor="start" x="645" y="-113.9" font-family="Arial" font-size="14.00" fill="#000000">created_at </text>
<text text-anchor="start" x="715.028" y="-113.9" font-family="Arial" font-size="14.00" fill="#666666">[datetime(6)]</text>
<polygon fill="none" stroke="#000000" points="638,-72.5 638,-102.5 821,-102.5 821,-72.5 638,-72.5"/>
<text text-anchor="start" x="645" y="-83.9" font-family="Arial" font-size="14.00" fill="#000000">updated_at </text>
<text text-anchor="start" x="718.9326" y="-83.9" font-family="Arial" font-size="14.00" fill="#666666">[datetime(6)]</text>
<polygon fill="none" stroke="#000000" points="638,-42.5 638,-72.5 821,-72.5 821,-42.5 638,-42.5"/>
<text text-anchor="start" x="645" y="-53.9" font-family="Arial" font-size="14.00" fill="#000000">deleted_at </text>
<text text-anchor="start" x="714.2566" y="-53.9" font-family="Arial" font-size="14.00" fill="#666666">[datetime(6)]</text>
</g>
<!-- files&#45;&gt;channels -->
<g id="edge6" class="edge">
<title>files:channel_id&#45;&gt;channels:id</title>
<path fill="none" stroke="#000000" d="M553.0905,-636.8265C653.4611,-622.5924 522.7355,-387.5 638,-387.5"/>
<polygon fill="#000000" stroke="#000000" points="552.9778,-636.8339 542.7003,-633.01 547.9889,-637.167 543,-637.5 543,-637.5 543,-637.5 547.9889,-637.167 543.2997,-641.99 552.9778,-636.8339 552.9778,-636.8339"/>
<text text-anchor="start" x="550.378" y="-647.5" font-family="Arial" font-size="10.00" fill="#000000">FOREIGN KEY (channel_id) REFERENCES channels (id)</text>
</g>
<!-- files_acl -->
<g id="node2" class="node">
<title>files_acl</title>
<polygon fill="#efefef" stroke="transparent" points="43,-1217.5 43,-1252.5 219,-1252.5 219,-1217.5 43,-1217.5"/>
<polygon fill="none" stroke="#000000" points="43,-1217.5 43,-1252.5 219,-1252.5 219,-1217.5 43,-1217.5"/>
<text text-anchor="start" x="49.8714" y="-1230.3" font-family="Arial Bold" font-size="18.00" fill="#000000">files_acl</text>
<text text-anchor="start" x="114.8748" y="-1230.3" font-family="Arial" font-size="14.00" fill="#000000"> </text>
<text text-anchor="start" x="118.7654" y="-1230.3" font-family="Arial" font-size="14.00" fill="#666666">[BASE TABLE]</text>
<polygon fill="none" stroke="#000000" points="43,-1187.5 43,-1217.5 219,-1217.5 219,-1187.5 43,-1187.5"/>
<text text-anchor="start" x="50" y="-1198.9" font-family="Arial" font-size="14.00" fill="#000000">file_id </text>
<text text-anchor="start" x="90.4488" y="-1198.9" font-family="Arial" font-size="14.00" fill="#666666">[char(36)]</text>
<polygon fill="none" stroke="#000000" points="43,-1157.5 43,-1187.5 219,-1187.5 219,-1157.5 43,-1157.5"/>
<text text-anchor="start" x="50" y="-1168.9" font-family="Arial" font-size="14.00" fill="#000000">user_id </text>
<text text-anchor="start" x="99.7882" y="-1168.9" font-family="Arial" font-size="14.00" fill="#666666">[char(36)]</text>
<polygon fill="none" stroke="#000000" points="43,-1127.5 43,-1157.5 219,-1157.5 219,-1127.5 43,-1127.5"/>
<text text-anchor="start" x="50" y="-1138.9" font-family="Arial" font-size="14.00" fill="#000000">allow </text>
<text text-anchor="start" x="85.7756" y="-1138.9" font-family="Arial" font-size="14.00" fill="#666666">[tinyint(1)]</text>
</g>
<!-- files_acl&#45;&gt;files -->
<g id="edge1" class="edge">
<title>files_acl:file_id&#45;&gt;files:id</title>
<path fill="none" stroke="#000000" d="M229.1243,-1201.9532C302.0885,-1193.505 239.4137,-1088.8995 271,-1010 295.9092,-947.7792 275.9784,-877.5 343,-877.5"/>
<polygon fill="#000000" stroke="#000000" points="228.9854,-1201.9606 218.7573,-1198.0065 223.9927,-1202.2303 219,-1202.5 219,-1202.5 219,-1202.5 223.9927,-1202.2303 219.2427,-1206.9935 228.9854,-1201.9606 228.9854,-1201.9606"/>
<text text-anchor="start" x="225.616" y="-1212.5" font-family="Arial" font-size="10.00" fill="#000000">FOREIGN KEY (file_id) REFERENCES files (id)</text>
</g>
<!-- files_thumbnails -->
<g id="node3" class="node">
<title>files_thumbnails</title>
<polygon fill="#efefef" stroke="transparent" points="323,-1247.5 323,-1282.5 563,-1282.5 563,-1247.5 323,-1247.5"/>
<polygon fill="none" stroke="#000000" points="323,-1247.5 323,-1282.5 563,-1282.5 563,-1247.5 323,-1247.5"/>
<text text-anchor="start" x="329.8647" y="-1260.3" font-family="Arial Bold" font-size="18.00" fill="#000000">files_thumbnails</text>
<text text-anchor="start" x="458.8815" y="-1260.3" font-family="Arial" font-size="14.00" fill="#000000"> </text>
<text text-anchor="start" x="462.7721" y="-1260.3" font-family="Arial" font-size="14.00" fill="#666666">[BASE TABLE]</text>
<polygon fill="none" stroke="#000000" points="323,-1217.5 323,-1247.5 563,-1247.5 563,-1217.5 323,-1217.5"/>
<text text-anchor="start" x="330" y="-1228.9" font-family="Arial" font-size="14.00" fill="#000000">file_id </text>
<text text-anchor="start" x="370.4488" y="-1228.9" font-family="Arial" font-size="14.00" fill="#666666">[char(36)]</text>
<polygon fill="none" stroke="#000000" points="323,-1187.5 323,-1217.5 563,-1217.5 563,-1187.5 323,-1187.5"/>
<text text-anchor="start" x="330" y="-1198.9" font-family="Arial" font-size="14.00" fill="#000000">type </text>
<text text-anchor="start" x="360.3464" y="-1198.9" font-family="Arial" font-size="14.00" fill="#666666">[varchar(30)]</text>
<polygon fill="none" stroke="#000000" points="323,-1157.5 323,-1187.5 563,-1187.5 563,-1157.5 323,-1157.5"/>
<text text-anchor="start" x="330" y="-1168.9" font-family="Arial" font-size="14.00" fill="#000000">mime </text>
<text text-anchor="start" x="368.101" y="-1168.9" font-family="Arial" font-size="14.00" fill="#666666">[text]</text>
<polygon fill="none" stroke="#000000" points="323,-1127.5 323,-1157.5 563,-1157.5 563,-1127.5 323,-1127.5"/>
<text text-anchor="start" x="330" y="-1138.9" font-family="Arial" font-size="14.00" fill="#000000">width </text>
<text text-anchor="start" x="366.5596" y="-1138.9" font-family="Arial" font-size="14.00" fill="#666666">[int(11)]</text>
<polygon fill="none" stroke="#000000" points="323,-1097.5 323,-1127.5 563,-1127.5 563,-1097.5 323,-1097.5"/>
<text text-anchor="start" x="330" y="-1108.9" font-family="Arial" font-size="14.00" fill="#000000">height </text>
<text text-anchor="start" x="372.0182" y="-1108.9" font-family="Arial" font-size="14.00" fill="#666666">[int(11)]</text>
</g>
<!-- files_thumbnails&#45;&gt;files -->
<g id="edge2" class="edge">
<title>files_thumbnails:file_id&#45;&gt;files:id</title>
<path fill="none" stroke="#000000" d="M573.0526,-1230.4152C640.098,-1201.3218 618.4645,-877.5 543,-877.5"/>
<polygon fill="#000000" stroke="#000000" points="572.7917,-1230.4693 562.0862,-1228.0938 567.8958,-1231.4846 563,-1232.5 563,-1232.5 563,-1232.5 567.8958,-1231.4846 563.9138,-1236.9062 572.7917,-1230.4693 572.7917,-1230.4693"/>
<text text-anchor="start" x="456.616" y="-1216.5" font-family="Arial" font-size="10.00" fill="#000000">FOREIGN KEY (file_id) REFERENCES files (id)</text>
</g>
<!-- stamps -->
<g id="node4" class="node">
<title>stamps</title>
<polygon fill="#efefef" stroke="transparent" points="668,-1292.5 668,-1327.5 837,-1327.5 837,-1292.5 668,-1292.5"/>
<polygon fill="none" stroke="#000000" points="668,-1292.5 668,-1327.5 837,-1327.5 837,-1292.5 668,-1292.5"/>
<text text-anchor="start" x="674.8697" y="-1305.3" font-family="Arial Bold" font-size="18.00" fill="#000000">stamps</text>
<text text-anchor="start" x="732.8765" y="-1305.3" font-family="Arial" font-size="14.00" fill="#000000"> </text>
<text text-anchor="start" x="736.7671" y="-1305.3" font-family="Arial" font-size="14.00" fill="#666666">[BASE TABLE]</text>
<polygon fill="none" stroke="#000000" points="668,-1262.5 668,-1292.5 837,-1292.5 837,-1262.5 668,-1262.5"/>
<text text-anchor="start" x="675" y="-1273.9" font-family="Arial" font-size="14.00" fill="#000000">id </text>
<text text-anchor="start" x="689.7798" y="-1273.9" font-family="Arial" font-size="14.00" fill="#666666">[char(36)]</text>
<polygon fill="none" stroke="#000000" points="668,-1232.5 668,-1262.5 837,-1262.5 837,-1232.5 668,-1232.5"/>
<text text-anchor="start" x="675" y="-1243.9" font-family="Arial" font-size="14.00" fill="#000000">name </text>
<text text-anchor="start" x="713.899" y="-1243.9" font-family="Arial" font-size="14.00" fill="#666666">[varchar(32)]</text>
<polygon fill="none" stroke="#000000" points="668,-1202.5 668,-1232.5 837,-1232.5 837,-1202.5 668,-1202.5"/>
<text text-anchor="start" x="675" y="-1213.9" font-family="Arial" font-size="14.00" fill="#000000">creator_id </text>
<text text-anchor="start" x="741.122" y="-1213.9" font-family="Arial" font-size="14.00" fill="#666666">[char(36)]</text>
<polygon fill="none" stroke="#000000" points="668,-1172.5 668,-1202.5 837,-1202.5 837,-1172.5 668,-1172.5"/>
<text text-anchor="start" x="675" y="-1183.9" font-family="Arial" font-size="14.00" fill="#000000">file_id </text>
<text text-anchor="start" x="715.4488" y="-1183.9" font-family="Arial" font-size="14.00" fill="#666666">[char(36)]</text>
<polygon fill="none" stroke="#000000" points="668,-1142.5 668,-1172.5 837,-1172.5 837,-1142.5 668,-1142.5"/>
<text text-anchor="start" x="675" y="-1153.9" font-family="Arial" font-size="14.00" fill="#000000">is_unicode </text>
<text text-anchor="start" x="745.7994" y="-1153.9" font-family="Arial" font-size="14.00" fill="#666666">[tinyint(1)]</text>
<polygon fill="none" stroke="#000000" points="668,-1112.5 668,-1142.5 837,-1142.5 837,-1112.5 668,-1112.5"/>
<text text-anchor="start" x="675" y="-1123.9" font-family="Arial" font-size="14.00" fill="#000000">created_at </text>
<text text-anchor="start" x="745.028" y="-1123.9" font-family="Arial" font-size="14.00" fill="#666666">[datetime(6)]</text>
<polygon fill="none" stroke="#000000" points="668,-1082.5 668,-1112.5 837,-1112.5 837,-1082.5 668,-1082.5"/>
<text text-anchor="start" x="675" y="-1093.9" font-family="Arial" font-size="14.00" fill="#000000">updated_at </text>
<text text-anchor="start" x="748.9326" y="-1093.9" font-family="Arial" font-size="14.00" fill="#666666">[datetime(6)]</text>
<polygon fill="none" stroke="#000000" points="668,-1052.5 668,-1082.5 837,-1082.5 837,-1052.5 668,-1052.5"/>
<text text-anchor="start" x="675" y="-1063.9" font-family="Arial" font-size="14.00" fill="#000000">deleted_at </text>
<text text-anchor="start" x="744.2566" y="-1063.9" font-family="Arial" font-size="14.00" fill="#666666">[datetime(6)]</text>
</g>
<!-- stamps&#45;&gt;files -->
<g id="edge3" class="edge">
<title>stamps:file_id&#45;&gt;files:id</title>
<path fill="none" stroke="#000000" d="M657.7506,-1186.8972C590.9572,-1178.4343 645.1829,-1082.6086 615,-1010 589.2738,-948.1125 610.0216,-877.5 543,-877.5"/>
<polygon fill="#000000" stroke="#000000" points="658.0173,-1186.9128 667.7357,-1191.9922 663.0086,-1187.2064 668,-1187.5 668,-1187.5 668,-1187.5 663.0086,-1187.2064 668.2643,-1183.0078 658.0173,-1186.9128 658.0173,-1186.9128"/>
<text text-anchor="start" x="505.116" y="-1171.5" font-family="Arial" font-size="10.00" fill="#000000">FOREIGN KEY (file_id) REFERENCES files (id)</text>
</g>
<!-- users&#45;&gt;files -->
<g id="edge4" class="edge">
<title>users:icon&#45;&gt;files:id</title>
<path fill="none" stroke="#000000" stroke-dasharray="5,2" d="M543.8029,-225.0487C585.2498,-248.4449 564.7707,-425.9349 534,-466 480.4821,-535.6831 396.5179,-447.3169 343,-517 245.4075,-644.0703 182.7778,-877.5 343,-877.5"/>
<polygon fill="#000000" stroke="#000000" points="543.6782,-225.0164 535.1324,-218.1448 538.8391,-223.7582 534,-222.5 534,-222.5 534,-222.5 538.8391,-223.7582 532.8676,-226.8552 543.6782,-225.0164 543.6782,-225.0164"/>
<text text-anchor="start" x="541.3245" y="-232.5" font-family="Arial" font-size="10.00" fill="#000000">Additional Relation</text>
</g>
</g>
</svg>
