<?xml version="1.0" encoding="UTF-8" standalone="no"?>
<!DOCTYPE svg PUBLIC "-//W3C//DTD SVG 1.1//EN"
 "http://www.w3.org/Graphics/SVG/1.1/DTD/svg11.dtd">
<!-- Generated by graphviz version 2.40.1 (20161225.0304)
 -->
<!-- Title: files_acl Pages: 1 -->
<svg width="465pt" height="712pt"
 viewBox="0.00 0.00 465.00 712.00" xmlns="http://www.w3.org/2000/svg" xmlns:xlink="http://www.w3.org/1999/xlink">
<g id="graph0" class="graph" transform="scale(1 1) rotate(0) translate(4 708)">
<title>files_acl</title>
<polygon fill="#ffffff" stroke="transparent" points="-4,4 -4,-708 461,-708 461,4 -4,4"/>
<!-- files_acl -->
<g id="node1" class="node">
<title>files_acl</title>
<polygon fill="#efefef" stroke="transparent" points="55,-622.5 55,-657.5 231,-657.5 231,-622.5 55,-622.5"/>
<polygon fill="none" stroke="#000000" points="55,-622.5 55,-657.5 231,-657.5 231,-622.5 55,-622.5"/>
<text text-anchor="start" x="61.8714" y="-635.3" font-family="Arial Bold" font-size="18.00" fill="#000000">files_acl</text>
<text text-anchor="start" x="126.8748" y="-635.3" font-family="Arial" font-size="14.00" fill="#000000"> </text>
<text text-anchor="start" x="130.7654" y="-635.3" font-family="Arial" font-size="14.00" fill="#666666">[BASE TABLE]</text>
<polygon fill="none" stroke="#000000" points="55,-592.5 55,-622.5 231,-622.5 231,-592.5 55,-592.5"/>
<text text-anchor="start" x="62" y="-603.9" font-family="Arial" font-size="14.00" fill="#000000">file_id </text>
<text text-anchor="start" x="102.4488" y="-603.9" font-family="Arial" font-size="14.00" fill="#666666">[char(36)]</text>
<polygon fill="none" stroke="#000000" points="55,-562.5 55,-592.5 231,-592.5 231,-562.5 55,-562.5"/>
<text text-anchor="start" x="62" y="-573.9" font-family="Arial" font-size="14.00" fill="#000000">user_id </text>
<text text-anchor="start" x="111.7882" y="-573.9" font-family="Arial" font-size="14.00" fill="#666666">[char(36)]</text>
<polygon fill="none" stroke="#000000" points="55,-532.5 55,-562.5 231,-562.5 231,-532.5 55,-532.5"/>
<text text-anchor="start" x="62" y="-543.9" font-family="Arial" font-size="14.00" fill="#000000">allow </text>
<text text-anchor="start" x="97.7756" y="-543.9" font-family="Arial" font-size="14.00" fill="#666666">[tinyint(1)]</text>
<polygon fill="none" stroke="#000000" stroke-width="3" points="53.5,-531.5 53.5,-659.5 232.5,-659.5 232.5,-531.5 53.5,-531.5"/>
</g>
<!-- files -->
<g id="node2" class="node">
<title>files</title>
<polygon fill="#efefef" stroke="transparent" points="43,-372.5 43,-407.5 243,-407.5 243,-372.5 43,-372.5"/>
<polygon fill="none" stroke="#000000" points="43,-372.5 43,-407.5 243,-407.5 243,-372.5 43,-372.5"/>
<text text-anchor="start" x="78.3747" y="-385.3" font-family="Arial Bold" font-size="18.00" fill="#000000">files</text>
<text text-anchor="start" x="110.3715" y="-385.3" font-family="Arial" font-size="14.00" fill="#000000"> </text>
<text text-anchor="start" x="114.2621" y="-385.3" font-family="Arial" font-size="14.00" fill="#666666">[BASE TABLE]</text>
<polygon fill="none" stroke="#000000" points="43,-342.5 43,-372.5 243,-372.5 243,-342.5 43,-342.5"/>
<text text-anchor="start" x="50" y="-353.9" font-family="Arial" font-size="14.00" fill="#000000">id </text>
<text text-anchor="start" x="64.7798" y="-353.9" font-family="Arial" font-size="14.00" fill="#666666">[char(36)]</text>
<polygon fill="none" stroke="#000000" points="43,-312.5 43,-342.5 243,-342.5 243,-312.5 43,-312.5"/>
<text text-anchor="start" x="50" y="-323.9" font-family="Arial" font-size="14.00" fill="#000000">name </text>
<text text-anchor="start" x="88.899" y="-323.9" font-family="Arial" font-size="14.00" fill="#666666">[text]</text>
<polygon fill="none" stroke="#000000" points="43,-282.5 43,-312.5 243,-312.5 243,-282.5 43,-282.5"/>
<text text-anchor="start" x="50" y="-293.9" font-family="Arial" font-size="14.00" fill="#000000">mime </text>
<text text-anchor="start" x="88.101" y="-293.9" font-family="Arial" font-size="14.00" fill="#666666">[text]</text>
<polygon fill="none" stroke="#000000" points="43,-252.5 43,-282.5 243,-282.5 243,-252.5 43,-252.5"/>
<text text-anchor="start" x="50" y="-263.9" font-family="Arial" font-size="14.00" fill="#000000">size </text>
<text text-anchor="start" x="78.7798" y="-263.9" font-family="Arial" font-size="14.00" fill="#666666">[bigint(20)]</text>
<polygon fill="none" stroke="#000000" points="43,-222.5 43,-252.5 243,-252.5 243,-222.5 43,-222.5"/>
<text text-anchor="start" x="50" y="-233.9" font-family="Arial" font-size="14.00" fill="#000000">creator_id </text>
<text text-anchor="start" x="116.122" y="-233.9" font-family="Arial" font-size="14.00" fill="#666666">[char(36)]</text>
<polygon fill="none" stroke="#000000" points="43,-192.5 43,-222.5 243,-222.5 243,-192.5 43,-192.5"/>
<text text-anchor="start" x="50" y="-203.9" font-family="Arial" font-size="14.00" fill="#000000">hash </text>
<text text-anchor="start" x="84.2384" y="-203.9" font-family="Arial" font-size="14.00" fill="#666666">[char(32)]</text>
<polygon fill="none" stroke="#000000" points="43,-162.5 43,-192.5 243,-192.5 243,-162.5 43,-162.5"/>
<text text-anchor="start" x="50" y="-173.9" font-family="Arial" font-size="14.00" fill="#000000">type </text>
<text text-anchor="start" x="80.3464" y="-173.9" font-family="Arial" font-size="14.00" fill="#666666">[varchar(30)]</text>
<polygon fill="none" stroke="#000000" points="43,-132.5 43,-162.5 243,-162.5 243,-132.5 43,-132.5"/>
<text text-anchor="start" x="49.6536" y="-143.9" font-family="Arial" font-size="14.00" fill="#000000">is_animated_image </text>
<text text-anchor="start" x="174.9018" y="-143.9" font-family="Arial" font-size="14.00" fill="#666666">[tinyint(1)]</text>
<polygon fill="none" stroke="#000000" points="43,-102.5 43,-132.5 243,-132.5 243,-102.5 43,-102.5"/>
<text text-anchor="start" x="50" y="-113.9" font-family="Arial" font-size="14.00" fill="#000000">channel_id </text>
<text text-anchor="start" x="121.582" y="-113.9" font-family="Arial" font-size="14.00" fill="#666666">[char(36)]</text>
<polygon fill="none" stroke="#000000" points="43,-72.5 43,-102.5 243,-102.5 243,-72.5 43,-72.5"/>
<text text-anchor="start" x="50" y="-83.9" font-family="Arial" font-size="14.00" fill="#000000">created_at </text>
<text text-anchor="start" x="120.028" y="-83.9" font-family="Arial" font-size="14.00" fill="#666666">[datetime(6)]</text>
<polygon fill="none" stroke="#000000" points="43,-42.5 43,-72.5 243,-72.5 243,-42.5 43,-42.5"/>
<text text-anchor="start" x="50" y="-53.9" font-family="Arial" font-size="14.00" fill="#000000">deleted_at </text>
<text text-anchor="start" x="119.2566" y="-53.9" font-family="Arial" font-size="14.00" fill="#666666">[datetime(6)]</text>
</g>
<!-- files_acl&#45;&gt;files -->
<g id="edge1" class="edge">
<title>files_acl:file_id&#45;&gt;files:id</title>
<path fill="none" stroke="#000000" d="M240.9116,-604.6924C287.8554,-577.2266 295.1433,-357.5 243,-357.5"/>
<polygon fill="#000000" stroke="#000000" points="240.6214,-604.7745 229.7735,-603.1704 235.8107,-606.1373 231,-607.5 231,-607.5 231,-607.5 235.8107,-606.1373 232.2265,-611.8296 240.6214,-604.7745 240.6214,-604.7745"/>
<text text-anchor="start" x="237.616" y="-617.5" font-family="Arial" font-size="10.00" fill="#000000">FOREIGN KEY (file_id) REFERENCES files (id)</text>
</g>
</g>
</svg>
