<?xml version="1.0" encoding="UTF-8" standalone="no"?>
<!DOCTYPE svg PUBLIC "-//W3C//DTD SVG 1.1//EN"
 "http://www.w3.org/Graphics/SVG/1.1/DTD/svg11.dtd">
<!-- Generated by graphviz version 2.40.1 (20161225.0304)
 -->
<!-- Title: files Pages: 1 -->
<svg width="558pt" height="1040pt"
     viewBox="0.00 0.00 558.00 1040.00" xmlns="http://www.w3.org/2000/svg">
<g id="graph0" class="graph" transform="scale(1 1) rotate(0) translate(4 1036)">
<title>files</title>
<polygon fill="#ffffff" stroke="transparent" points="-4,4 -4,-1036 554,-1036 554,4 -4,4"/>
<!-- files -->
<g id="node1" class="node">
<title>files</title>
<polygon fill="#efefef" stroke="transparent" points="187.5,-406 187.5,-440 360.5,-440 360.5,-406 187.5,-406"/>
<polygon fill="none" stroke="#000000" points="187.5,-406 187.5,-440 360.5,-440 360.5,-406 187.5,-406"/>
<text text-anchor="start" x="208.0063" y="-419.6" font-family="Arial Bold" font-size="18.00" fill="#000000">files</text>
<text text-anchor="start" x="244.0239" y="-419.6" font-family="Arial" font-size="14.00" fill="#000000"> </text>
<text text-anchor="start" x="247.9136" y="-419.6" font-family="Arial" font-size="14.00" fill="#666666">[BASE TABLE]</text>
<polygon fill="none" stroke="#000000" points="187.5,-376 187.5,-406 360.5,-406 360.5,-376 187.5,-376"/>
<text text-anchor="start" x="194.5" y="-388.8" font-family="Arial" font-size="14.00" fill="#000000">id </text>
<text text-anchor="start" x="209.2861" y="-388.8" font-family="Arial" font-size="14.00" fill="#666666">[char(36)]</text>
<polygon fill="none" stroke="#000000" points="187.5,-346 187.5,-376 360.5,-376 360.5,-346 187.5,-346"/>
<text text-anchor="start" x="194.5" y="-358.8" font-family="Arial" font-size="14.00" fill="#000000">name </text>
<text text-anchor="start" x="233.4102" y="-358.8" font-family="Arial" font-size="14.00" fill="#666666">[text]</text>
<polygon fill="none" stroke="#000000" points="187.5,-316 187.5,-346 360.5,-346 360.5,-316 187.5,-316"/>
<text text-anchor="start" x="194.5" y="-328.8" font-family="Arial" font-size="14.00" fill="#000000">mime </text>
<text text-anchor="start" x="232.6104" y="-328.8" font-family="Arial" font-size="14.00" fill="#666666">[text]</text>
<polygon fill="none" stroke="#000000" points="187.5,-286 187.5,-316 360.5,-316 360.5,-286 187.5,-286"/>
<text text-anchor="start" x="194.5" y="-298.8" font-family="Arial" font-size="14.00" fill="#000000">size </text>
<text text-anchor="start" x="223.2861" y="-298.8" font-family="Arial" font-size="14.00" fill="#666666">[bigint(20)]</text>
<polygon fill="none" stroke="#000000" points="187.5,-256 187.5,-286 360.5,-286 360.5,-256 187.5,-256"/>
<text text-anchor="start" x="194.5" y="-268.8" font-family="Arial" font-size="14.00" fill="#000000">creator_id </text>
<text text-anchor="start" x="260.6445" y="-268.8" font-family="Arial" font-size="14.00" fill="#666666">[char(36)]</text>
<polygon fill="none" stroke="#000000" points="187.5,-226 187.5,-256 360.5,-256 360.5,-226 187.5,-226"/>
<text text-anchor="start" x="194.5" y="-238.8" font-family="Arial" font-size="14.00" fill="#000000">hash </text>
<text text-anchor="start" x="228.748" y="-238.8" font-family="Arial" font-size="14.00" fill="#666666">[char(32)]</text>
<polygon fill="none" stroke="#000000" points="187.5,-196 187.5,-226 360.5,-226 360.5,-196 187.5,-196"/>
<text text-anchor="start" x="194.5" y="-208.8" font-family="Arial" font-size="14.00" fill="#000000">type </text>
<text text-anchor="start" x="224.8516" y="-208.8" font-family="Arial" font-size="14.00" fill="#666666">[varchar(30)]</text>
<polygon fill="none" stroke="#000000" points="187.5,-166 187.5,-196 360.5,-196 360.5,-166 187.5,-166"/>
<text text-anchor="start" x="194.5" y="-178.8" font-family="Arial" font-size="14.00" fill="#000000">has_thumbnail </text>
<text text-anchor="start" x="289.4512" y="-178.8" font-family="Arial" font-size="14.00" fill="#666666">[tinyint(1)]</text>
<polygon fill="none" stroke="#000000" points="187.5,-136 187.5,-166 360.5,-166 360.5,-136 187.5,-136"/>
<text text-anchor="start" x="194.5" y="-148.8" font-family="Arial" font-size="14.00" fill="#000000">thumbnail_width </text>
<text text-anchor="start" x="299.5615" y="-148.8" font-family="Arial" font-size="14.00" fill="#666666">[int(11)]</text>
<polygon fill="none" stroke="#000000" points="187.5,-106 187.5,-136 360.5,-136 360.5,-106 187.5,-106"/>
<text text-anchor="start" x="194.5" y="-118.8" font-family="Arial" font-size="14.00" fill="#000000">thumbnail_height </text>
<text text-anchor="start" x="305.0234" y="-118.8" font-family="Arial" font-size="14.00" fill="#666666">[int(11)]</text>
<polygon fill="none" stroke="#000000" points="187.5,-76 187.5,-106 360.5,-106 360.5,-76 187.5,-76"/>
<text text-anchor="start" x="194.2451" y="-88.8" font-family="Arial" font-size="14.00" fill="#000000">created_at </text>
<text text-anchor="start" x="264.293" y="-88.8" font-family="Arial" font-size="14.00" fill="#666666">[timestamp(6)]</text>
<polygon fill="none" stroke="#000000" points="187.5,-46 187.5,-76 360.5,-76 360.5,-46 187.5,-46"/>
<text text-anchor="start" x="194.5" y="-58.8" font-family="Arial" font-size="14.00" fill="#000000">deleted_at </text>
<text text-anchor="start" x="263.7822" y="-58.8" font-family="Arial" font-size="14.00" fill="#666666">[timestamp(6)]</text>
<polygon fill="none" stroke="#000000" stroke-width="3" points="185.5,-44.5 185.5,-441.5 361.5,-441.5 361.5,-44.5 185.5,-44.5"/>
</g>
<!-- stamps -->
<g id="node2" class="node">
<title>stamps</title>
<polygon fill="#efefef" stroke="transparent" points="43.5,-880 43.5,-914 220.5,-914 220.5,-880 43.5,-880"/>
<polygon fill="none" stroke="#000000" points="43.5,-880 43.5,-914 220.5,-914 220.5,-880 43.5,-880"/>
<text text-anchor="start" x="52.502" y="-893.6" font-family="Arial Bold" font-size="18.00" fill="#000000">stamps</text>
<text text-anchor="start" x="115.5283" y="-893.6" font-family="Arial" font-size="14.00" fill="#000000"> </text>
<text text-anchor="start" x="119.418" y="-893.6" font-family="Arial" font-size="14.00" fill="#666666">[BASE TABLE]</text>
<polygon fill="none" stroke="#000000" points="43.5,-850 43.5,-880 220.5,-880 220.5,-850 43.5,-850"/>
<text text-anchor="start" x="50.5" y="-862.8" font-family="Arial" font-size="14.00" fill="#000000">id </text>
<text text-anchor="start" x="65.2861" y="-862.8" font-family="Arial" font-size="14.00" fill="#666666">[char(36)]</text>
<polygon fill="none" stroke="#000000" points="43.5,-820 43.5,-850 220.5,-850 220.5,-820 43.5,-820"/>
<text text-anchor="start" x="50.5" y="-832.8" font-family="Arial" font-size="14.00" fill="#000000">name </text>
<text text-anchor="start" x="89.4102" y="-832.8" font-family="Arial" font-size="14.00" fill="#666666">[varchar(32)]</text>
<polygon fill="none" stroke="#000000" points="43.5,-790 43.5,-820 220.5,-820 220.5,-790 43.5,-790"/>
<text text-anchor="start" x="50.5" y="-802.8" font-family="Arial" font-size="14.00" fill="#000000">creator_id </text>
<text text-anchor="start" x="116.6445" y="-802.8" font-family="Arial" font-size="14.00" fill="#666666">[char(36)]</text>
<polygon fill="none" stroke="#000000" points="43.5,-760 43.5,-790 220.5,-790 220.5,-760 43.5,-760"/>
<text text-anchor="start" x="50.5" y="-772.8" font-family="Arial" font-size="14.00" fill="#000000">file_id </text>
<text text-anchor="start" x="90.9688" y="-772.8" font-family="Arial" font-size="14.00" fill="#666666">[char(36)]</text>
<polygon fill="none" stroke="#000000" points="43.5,-730 43.5,-760 220.5,-760 220.5,-730 43.5,-730"/>
<text text-anchor="start" x="50.5" y="-742.8" font-family="Arial" font-size="14.00" fill="#000000">created_at </text>
<text text-anchor="start" x="120.5479" y="-742.8" font-family="Arial" font-size="14.00" fill="#666666">[timestamp(6)]</text>
<polygon fill="none" stroke="#000000" points="43.5,-700 43.5,-730 220.5,-730 220.5,-700 43.5,-700"/>
<text text-anchor="start" x="50.29" y="-712.8" font-family="Arial" font-size="14.00" fill="#000000">updated_at </text>
<text text-anchor="start" x="124.248" y="-712.8" font-family="Arial" font-size="14.00" fill="#666666">[timestamp(6)]</text>
<polygon fill="none" stroke="#000000" points="43.5,-670 43.5,-700 220.5,-700 220.5,-670 43.5,-670"/>
<text text-anchor="start" x="50.5" y="-682.8" font-family="Arial" font-size="14.00" fill="#000000">deleted_at </text>
<text text-anchor="start" x="119.7822" y="-682.8" font-family="Arial" font-size="14.00" fill="#666666">[timestamp(6)]</text>
<polygon fill="none" stroke="#000000" points="43.5,-640 43.5,-670 220.5,-670 220.5,-640 43.5,-640"/>
<text text-anchor="start" x="50.5" y="-652.8" font-family="Arial" font-size="14.00" fill="#000000">is_unicode </text>
<text text-anchor="start" x="121.3271" y="-652.8" font-family="Arial" font-size="14.00" fill="#666666">[tinyint(1)]</text>
</g>
<!-- stamps&#45;&gt;files -->
<g id="edge1" class="edge">
<title>stamps:file_id&#45;&gt;files:id</title>
<path fill="none" stroke="#000000" d="M230.678,-774.3552C293.3861,-765.699 231.3569,-671.6171 220.5,-597 213.0894,-546.0689 194.9106,-536.9311 187.5,-486 181.4206,-444.2177 145.2778,-391 187.5,-391"/>
<polygon fill="#000000" stroke="#000000" points="230.48,-774.3676 220.2154,-770.509 225.49,-774.6838 220.5,-775 220.5,-775 220.5,-775 225.49,-774.6838 220.7846,-779.491 230.48,-774.3676 230.48,-774.3676"/>
<text text-anchor="start" x="227.1816" y="-784.5" font-family="Arial" font-size="10.00" fill="#000000">FOREIGN KEY (file_id) REFERENCES files (id)</text>
</g>
<!-- users -->
<g id="node3" class="node">
<title>users</title>
<polygon fill="#efefef" stroke="transparent" points="324.5,-955 324.5,-989 507.5,-989 507.5,-955 324.5,-955"/>
<polygon fill="none" stroke="#000000" points="324.5,-955 324.5,-989 507.5,-989 507.5,-955 324.5,-955"/>
<text text-anchor="start" x="343.999" y="-968.6" font-family="Arial Bold" font-size="18.00" fill="#000000">users</text>
<text text-anchor="start" x="392.0313" y="-968.6" font-family="Arial" font-size="14.00" fill="#000000"> </text>
<text text-anchor="start" x="395.9209" y="-968.6" font-family="Arial" font-size="14.00" fill="#666666">[BASE TABLE]</text>
<polygon fill="none" stroke="#000000" points="324.5,-925 324.5,-955 507.5,-955 507.5,-925 324.5,-925"/>
<text text-anchor="start" x="331.5" y="-937.8" font-family="Arial" font-size="14.00" fill="#000000">id </text>
<text text-anchor="start" x="346.2861" y="-937.8" font-family="Arial" font-size="14.00" fill="#666666">[char(36)]</text>
<polygon fill="none" stroke="#000000" points="324.5,-895 324.5,-925 507.5,-925 507.5,-895 324.5,-895"/>
<text text-anchor="start" x="331.5" y="-907.8" font-family="Arial" font-size="14.00" fill="#000000">name </text>
<text text-anchor="start" x="370.4102" y="-907.8" font-family="Arial" font-size="14.00" fill="#666666">[varchar(32)]</text>
<polygon fill="none" stroke="#000000" points="324.5,-865 324.5,-895 507.5,-895 507.5,-865 324.5,-865"/>
<text text-anchor="start" x="331.1831" y="-877.8" font-family="Arial" font-size="14.00" fill="#000000">display_name </text>
<text text-anchor="start" x="421.4585" y="-877.8" font-family="Arial" font-size="14.00" fill="#666666">[varchar(64)]</text>
<polygon fill="none" stroke="#000000" points="324.5,-835 324.5,-865 507.5,-865 507.5,-835 324.5,-835"/>
<text text-anchor="start" x="331.5" y="-847.8" font-family="Arial" font-size="14.00" fill="#000000">password </text>
<text text-anchor="start" x="395.3066" y="-847.8" font-family="Arial" font-size="14.00" fill="#666666">[char(128)]</text>
<polygon fill="none" stroke="#000000" points="324.5,-805 324.5,-835 507.5,-835 507.5,-805 324.5,-805"/>
<text text-anchor="start" x="331.5" y="-817.8" font-family="Arial" font-size="14.00" fill="#000000">salt </text>
<text text-anchor="start" x="357.1758" y="-817.8" font-family="Arial" font-size="14.00" fill="#666666">[char(128)]</text>
<polygon fill="none" stroke="#000000" points="324.5,-775 324.5,-805 507.5,-805 507.5,-775 324.5,-775"/>
<text text-anchor="start" x="331.5" y="-787.8" font-family="Arial" font-size="14.00" fill="#000000">icon </text>
<text text-anchor="start" x="361.0723" y="-787.8" font-family="Arial" font-size="14.00" fill="#666666">[char(36)]</text>
<polygon fill="none" stroke="#000000" points="324.5,-745 324.5,-775 507.5,-775 507.5,-745 324.5,-745"/>
<text text-anchor="start" x="331.5" y="-757.8" font-family="Arial" font-size="14.00" fill="#000000">status </text>
<text text-anchor="start" x="372.7412" y="-757.8" font-family="Arial" font-size="14.00" fill="#666666">[tinyint(4)]</text>
<polygon fill="none" stroke="#000000" points="324.5,-715 324.5,-745 507.5,-745 507.5,-715 324.5,-715"/>
<text text-anchor="start" x="331.5" y="-727.8" font-family="Arial" font-size="14.00" fill="#000000">bot </text>
<text text-anchor="start" x="354.8516" y="-727.8" font-family="Arial" font-size="14.00" fill="#666666">[tinyint(1)]</text>
<polygon fill="none" stroke="#000000" points="324.5,-685 324.5,-715 507.5,-715 507.5,-685 324.5,-685"/>
<text text-anchor="start" x="331.5" y="-697.8" font-family="Arial" font-size="14.00" fill="#000000">role </text>
<text text-anchor="start" x="358.7344" y="-697.8" font-family="Arial" font-size="14.00" fill="#666666">[varchar(30)]</text>
<polygon fill="none" stroke="#000000" points="324.5,-655 324.5,-685 507.5,-685 507.5,-655 324.5,-655"/>
<text text-anchor="start" x="331.5" y="-667.8" font-family="Arial" font-size="14.00" fill="#000000">twitter_id </text>
<text text-anchor="start" x="391.4102" y="-667.8" font-family="Arial" font-size="14.00" fill="#666666">[varchar(15)]</text>
<polygon fill="none" stroke="#000000" points="324.5,-625 324.5,-655 507.5,-655 507.5,-625 324.5,-625"/>
<text text-anchor="start" x="331.5" y="-637.8" font-family="Arial" font-size="14.00" fill="#000000">last_online </text>
<text text-anchor="start" x="402.3271" y="-637.8" font-family="Arial" font-size="14.00" fill="#666666">[timestamp(6)]</text>
<polygon fill="none" stroke="#000000" points="324.5,-595 324.5,-625 507.5,-625 507.5,-595 324.5,-595"/>
<text text-anchor="start" x="331.5" y="-607.8" font-family="Arial" font-size="14.00" fill="#000000">created_at </text>
<text text-anchor="start" x="401.5479" y="-607.8" font-family="Arial" font-size="14.00" fill="#666666">[timestamp(6)]</text>
<polygon fill="none" stroke="#000000" points="324.5,-565 324.5,-595 507.5,-595 507.5,-565 324.5,-565"/>
<text text-anchor="start" x="331.5" y="-577.8" font-family="Arial" font-size="14.00" fill="#000000">updated_at </text>
<text text-anchor="start" x="405.458" y="-577.8" font-family="Arial" font-size="14.00" fill="#666666">[timestamp(6)]</text>
</g>
<!-- users&#45;&gt;files -->
<g id="edge2" class="edge">
<title>users:icon&#45;&gt;files:id</title>
<path fill="none" stroke="#000000" stroke-dasharray="5,2" d="M314.7171,-787.7401C269.3452,-764.7888 303.089,-573.6907 324.5,-522 333.1591,-501.095 351.8409,-506.905 360.5,-486 376.6577,-446.9918 402.7222,-391 360.5,-391"/>
<polygon fill="#000000" stroke="#000000" points="314.7566,-787.7491 323.4871,-794.3845 319.6283,-788.8745 324.5,-790 324.5,-790 324.5,-790 319.6283,-788.8745 325.5129,-785.6155 314.7566,-787.7491 314.7566,-787.7491"/>
<text text-anchor="start" x="234.8057" y="-799.5" font-family="Arial" font-size="10.00" fill="#000000">Additional Relation</text>
</g>
</g>
</svg>
