<?xml version="1.0" encoding="UTF-8" standalone="no"?>
<!DOCTYPE svg PUBLIC "-//W3C//DTD SVG 1.1//EN"
 "http://www.w3.org/Graphics/SVG/1.1/DTD/svg11.dtd">
<!-- Generated by graphviz version 2.40.1 (20161225.0304)
 -->
<!-- Title: files Pages: 1 -->
<svg width="766pt" height="1469pt"
 viewBox="0.00 0.00 765.50 1469.00" xmlns="http://www.w3.org/2000/svg" xmlns:xlink="http://www.w3.org/1999/xlink">
<g id="graph0" class="graph" transform="scale(1 1) rotate(0) translate(4 1465)">
<title>files</title>
<polygon fill="#ffffff" stroke="transparent" points="-4,4 -4,-1465 761.5,-1465 761.5,4 -4,4"/>
<!-- files -->
<g id="node1" class="node">
<title>files</title>
<polygon fill="#efefef" stroke="transparent" points="251,-982.5 251,-1017.5 422,-1017.5 422,-982.5 251,-982.5"/>
<polygon fill="none" stroke="#000000" points="251,-982.5 251,-1017.5 422,-1017.5 422,-982.5 251,-982.5"/>
<text text-anchor="start" x="271.8747" y="-995.3" font-family="Arial Bold" font-size="18.00" fill="#000000">files</text>
<text text-anchor="start" x="303.8715" y="-995.3" font-family="Arial" font-size="14.00" fill="#000000"> </text>
<text text-anchor="start" x="307.7621" y="-995.3" font-family="Arial" font-size="14.00" fill="#666666">[BASE TABLE]</text>
<polygon fill="none" stroke="#000000" points="251,-952.5 251,-982.5 422,-982.5 422,-952.5 251,-952.5"/>
<text text-anchor="start" x="258" y="-963.9" font-family="Arial" font-size="14.00" fill="#000000">id </text>
<text text-anchor="start" x="272.7798" y="-963.9" font-family="Arial" font-size="14.00" fill="#666666">[char(36)]</text>
<polygon fill="none" stroke="#000000" points="251,-922.5 251,-952.5 422,-952.5 422,-922.5 251,-922.5"/>
<text text-anchor="start" x="258" y="-933.9" font-family="Arial" font-size="14.00" fill="#000000">name </text>
<text text-anchor="start" x="296.899" y="-933.9" font-family="Arial" font-size="14.00" fill="#666666">[text]</text>
<polygon fill="none" stroke="#000000" points="251,-892.5 251,-922.5 422,-922.5 422,-892.5 251,-892.5"/>
<text text-anchor="start" x="258" y="-903.9" font-family="Arial" font-size="14.00" fill="#000000">mime </text>
<text text-anchor="start" x="296.101" y="-903.9" font-family="Arial" font-size="14.00" fill="#666666">[text]</text>
<polygon fill="none" stroke="#000000" points="251,-862.5 251,-892.5 422,-892.5 422,-862.5 251,-862.5"/>
<text text-anchor="start" x="258" y="-873.9" font-family="Arial" font-size="14.00" fill="#000000">size </text>
<text text-anchor="start" x="286.7798" y="-873.9" font-family="Arial" font-size="14.00" fill="#666666">[bigint(20)]</text>
<polygon fill="none" stroke="#000000" points="251,-832.5 251,-862.5 422,-862.5 422,-832.5 251,-832.5"/>
<text text-anchor="start" x="258" y="-843.9" font-family="Arial" font-size="14.00" fill="#000000">creator_id </text>
<text text-anchor="start" x="324.122" y="-843.9" font-family="Arial" font-size="14.00" fill="#666666">[char(36)]</text>
<polygon fill="none" stroke="#000000" points="251,-802.5 251,-832.5 422,-832.5 422,-802.5 251,-802.5"/>
<text text-anchor="start" x="258" y="-813.9" font-family="Arial" font-size="14.00" fill="#000000">hash </text>
<text text-anchor="start" x="292.2384" y="-813.9" font-family="Arial" font-size="14.00" fill="#666666">[char(32)]</text>
<polygon fill="none" stroke="#000000" points="251,-772.5 251,-802.5 422,-802.5 422,-772.5 251,-772.5"/>
<text text-anchor="start" x="258" y="-783.9" font-family="Arial" font-size="14.00" fill="#000000">type </text>
<text text-anchor="start" x="288.3464" y="-783.9" font-family="Arial" font-size="14.00" fill="#666666">[varchar(30)]</text>
<polygon fill="none" stroke="#000000" points="251,-742.5 251,-772.5 422,-772.5 422,-742.5 251,-742.5"/>
<text text-anchor="start" x="258" y="-753.9" font-family="Arial" font-size="14.00" fill="#000000">has_thumbnail </text>
<text text-anchor="start" x="352.9158" y="-753.9" font-family="Arial" font-size="14.00" fill="#666666">[tinyint(1)]</text>
<polygon fill="none" stroke="#000000" points="251,-712.5 251,-742.5 422,-742.5 422,-712.5 251,-712.5"/>
<text text-anchor="start" x="258" y="-723.9" font-family="Arial" font-size="14.00" fill="#000000">thumbnail_mime </text>
<text text-anchor="start" x="364.561" y="-723.9" font-family="Arial" font-size="14.00" fill="#666666">[text]</text>
<polygon fill="none" stroke="#000000" points="251,-682.5 251,-712.5 422,-712.5 422,-682.5 251,-682.5"/>
<text text-anchor="start" x="258" y="-693.9" font-family="Arial" font-size="14.00" fill="#000000">thumbnail_width </text>
<text text-anchor="start" x="363.0196" y="-693.9" font-family="Arial" font-size="14.00" fill="#666666">[int(11)]</text>
<polygon fill="none" stroke="#000000" points="251,-652.5 251,-682.5 422,-682.5 422,-652.5 251,-652.5"/>
<text text-anchor="start" x="257.5372" y="-663.9" font-family="Arial" font-size="14.00" fill="#000000">thumbnail_height </text>
<text text-anchor="start" x="368.0154" y="-663.9" font-family="Arial" font-size="14.00" fill="#666666">[int(11)]</text>
<polygon fill="none" stroke="#000000" points="251,-622.5 251,-652.5 422,-652.5 422,-622.5 251,-622.5"/>
<text text-anchor="start" x="258" y="-633.9" font-family="Arial" font-size="14.00" fill="#000000">channel_id </text>
<text text-anchor="start" x="329.582" y="-633.9" font-family="Arial" font-size="14.00" fill="#666666">[char(36)]</text>
<polygon fill="none" stroke="#000000" points="251,-592.5 251,-622.5 422,-622.5 422,-592.5 251,-592.5"/>
<text text-anchor="start" x="258" y="-603.9" font-family="Arial" font-size="14.00" fill="#000000">created_at </text>
<text text-anchor="start" x="328.028" y="-603.9" font-family="Arial" font-size="14.00" fill="#666666">[datetime(6)]</text>
<polygon fill="none" stroke="#000000" points="251,-562.5 251,-592.5 422,-592.5 422,-562.5 251,-562.5"/>
<text text-anchor="start" x="258" y="-573.9" font-family="Arial" font-size="14.00" fill="#000000">deleted_at </text>
<text text-anchor="start" x="327.2566" y="-573.9" font-family="Arial" font-size="14.00" fill="#666666">[datetime(6)]</text>
<polygon fill="none" stroke="#000000" stroke-width="3" points="249,-561.5 249,-1019.5 423,-1019.5 423,-561.5 249,-561.5"/>
</g>
<!-- users -->
<g id="node4" class="node">
<title>users</title>
<polygon fill="#efefef" stroke="transparent" points="245,-387.5 245,-422.5 428,-422.5 428,-387.5 245,-387.5"/>
<polygon fill="none" stroke="#000000" points="245,-387.5 245,-422.5 428,-422.5 428,-387.5 245,-387.5"/>
<text text-anchor="start" x="265.8708" y="-400.3" font-family="Arial Bold" font-size="18.00" fill="#000000">users</text>
<text text-anchor="start" x="309.8754" y="-400.3" font-family="Arial" font-size="14.00" fill="#000000"> </text>
<text text-anchor="start" x="313.766" y="-400.3" font-family="Arial" font-size="14.00" fill="#666666">[BASE TABLE]</text>
<polygon fill="none" stroke="#000000" points="245,-357.5 245,-387.5 428,-387.5 428,-357.5 245,-357.5"/>
<text text-anchor="start" x="252" y="-368.9" font-family="Arial" font-size="14.00" fill="#000000">id </text>
<text text-anchor="start" x="266.7798" y="-368.9" font-family="Arial" font-size="14.00" fill="#666666">[char(36)]</text>
<polygon fill="none" stroke="#000000" points="245,-327.5 245,-357.5 428,-357.5 428,-327.5 245,-327.5"/>
<text text-anchor="start" x="252" y="-338.9" font-family="Arial" font-size="14.00" fill="#000000">name </text>
<text text-anchor="start" x="290.899" y="-338.9" font-family="Arial" font-size="14.00" fill="#666666">[varchar(32)]</text>
<polygon fill="none" stroke="#000000" points="245,-297.5 245,-327.5 428,-327.5 428,-297.5 245,-297.5"/>
<text text-anchor="start" x="251.7104" y="-308.9" font-family="Arial" font-size="14.00" fill="#000000">display_name </text>
<text text-anchor="start" x="341.953" y="-308.9" font-family="Arial" font-size="14.00" fill="#666666">[varchar(64)]</text>
<polygon fill="none" stroke="#000000" points="245,-267.5 245,-297.5 428,-297.5 428,-267.5 245,-267.5"/>
<text text-anchor="start" x="252" y="-278.9" font-family="Arial" font-size="14.00" fill="#000000">password </text>
<text text-anchor="start" x="315.7882" y="-278.9" font-family="Arial" font-size="14.00" fill="#666666">[char(128)]</text>
<polygon fill="none" stroke="#000000" points="245,-237.5 245,-267.5 428,-267.5 428,-237.5 245,-237.5"/>
<text text-anchor="start" x="252" y="-248.9" font-family="Arial" font-size="14.00" fill="#000000">salt </text>
<text text-anchor="start" x="277.6704" y="-248.9" font-family="Arial" font-size="14.00" fill="#666666">[char(128)]</text>
<polygon fill="none" stroke="#000000" points="245,-207.5 245,-237.5 428,-237.5 428,-207.5 245,-207.5"/>
<text text-anchor="start" x="252" y="-218.9" font-family="Arial" font-size="14.00" fill="#000000">icon </text>
<text text-anchor="start" x="281.5624" y="-218.9" font-family="Arial" font-size="14.00" fill="#666666">[char(36)]</text>
<polygon fill="none" stroke="#000000" points="245,-177.5 245,-207.5 428,-207.5 428,-177.5 245,-177.5"/>
<text text-anchor="start" x="252" y="-188.9" font-family="Arial" font-size="14.00" fill="#000000">status </text>
<text text-anchor="start" x="293.237" y="-188.9" font-family="Arial" font-size="14.00" fill="#666666">[tinyint(4)]</text>
<polygon fill="none" stroke="#000000" points="245,-147.5 245,-177.5 428,-177.5 428,-147.5 245,-147.5"/>
<text text-anchor="start" x="252" y="-158.9" font-family="Arial" font-size="14.00" fill="#000000">bot </text>
<text text-anchor="start" x="275.3464" y="-158.9" font-family="Arial" font-size="14.00" fill="#666666">[tinyint(1)]</text>
<polygon fill="none" stroke="#000000" points="245,-117.5 245,-147.5 428,-147.5 428,-117.5 245,-117.5"/>
<text text-anchor="start" x="252" y="-128.9" font-family="Arial" font-size="14.00" fill="#000000">role </text>
<text text-anchor="start" x="279.223" y="-128.9" font-family="Arial" font-size="14.00" fill="#666666">[varchar(30)]</text>
<polygon fill="none" stroke="#000000" points="245,-87.5 245,-117.5 428,-117.5 428,-87.5 245,-87.5"/>
<text text-anchor="start" x="252" y="-98.9" font-family="Arial" font-size="14.00" fill="#000000">created_at </text>
<text text-anchor="start" x="322.028" y="-98.9" font-family="Arial" font-size="14.00" fill="#666666">[datetime(6)]</text>
<polygon fill="none" stroke="#000000" points="245,-57.5 245,-87.5 428,-87.5 428,-57.5 245,-57.5"/>
<text text-anchor="start" x="252" y="-68.9" font-family="Arial" font-size="14.00" fill="#000000">updated_at </text>
<text text-anchor="start" x="325.9326" y="-68.9" font-family="Arial" font-size="14.00" fill="#666666">[datetime(6)]</text>
</g>
<!-- files&#45;&gt;users -->
<g id="edge4" class="edge">
<title>files:creator_id&#45;&gt;users:id</title>
<path fill="none" stroke="#000000" d="M240.9539,-847.134C39.7351,-832.3157 37.274,-372.5 245,-372.5"/>
<polygon fill="#000000" stroke="#000000" points="241.0066,-847.1358 250.8361,-851.997 246.0033,-847.3179 251,-847.5 251,-847.5 251,-847.5 246.0033,-847.3179 251.1639,-843.003 241.0066,-847.1358 241.0066,-847.1358"/>
<text text-anchor="start" x="7.1115" y="-857.5" font-family="Arial" font-size="10.00" fill="#000000">FOREIGN KEY (creator_id) REFERENCES users (id)</text>
</g>
<!-- channels -->
<g id="node5" class="node">
<title>channels</title>
<polygon fill="#efefef" stroke="transparent" points="532,-402.5 532,-437.5 715,-437.5 715,-402.5 532,-402.5"/>
<polygon fill="none" stroke="#000000" points="532,-402.5 532,-437.5 715,-437.5 715,-402.5 532,-402.5"/>
<text text-anchor="start" x="538.8605" y="-415.3" font-family="Arial Bold" font-size="18.00" fill="#000000">channels</text>
<text text-anchor="start" x="610.8857" y="-415.3" font-family="Arial" font-size="14.00" fill="#000000"> </text>
<text text-anchor="start" x="614.7763" y="-415.3" font-family="Arial" font-size="14.00" fill="#666666">[BASE TABLE]</text>
<polygon fill="none" stroke="#000000" points="532,-372.5 532,-402.5 715,-402.5 715,-372.5 532,-372.5"/>
<text text-anchor="start" x="539" y="-383.9" font-family="Arial" font-size="14.00" fill="#000000">id </text>
<text text-anchor="start" x="553.7798" y="-383.9" font-family="Arial" font-size="14.00" fill="#666666">[char(36)]</text>
<polygon fill="none" stroke="#000000" points="532,-342.5 532,-372.5 715,-372.5 715,-342.5 532,-342.5"/>
<text text-anchor="start" x="539" y="-353.9" font-family="Arial" font-size="14.00" fill="#000000">name </text>
<text text-anchor="start" x="577.899" y="-353.9" font-family="Arial" font-size="14.00" fill="#666666">[varchar(20)]</text>
<polygon fill="none" stroke="#000000" points="532,-312.5 532,-342.5 715,-342.5 715,-312.5 532,-312.5"/>
<text text-anchor="start" x="539" y="-323.9" font-family="Arial" font-size="14.00" fill="#000000">parent_id </text>
<text text-anchor="start" x="601.244" y="-323.9" font-family="Arial" font-size="14.00" fill="#666666">[char(36)]</text>
<polygon fill="none" stroke="#000000" points="532,-282.5 532,-312.5 715,-312.5 715,-282.5 532,-282.5"/>
<text text-anchor="start" x="539" y="-293.9" font-family="Arial" font-size="14.00" fill="#000000">topic </text>
<text text-anchor="start" x="572.453" y="-293.9" font-family="Arial" font-size="14.00" fill="#666666">[text]</text>
<polygon fill="none" stroke="#000000" points="532,-252.5 532,-282.5 715,-282.5 715,-252.5 532,-252.5"/>
<text text-anchor="start" x="539" y="-263.9" font-family="Arial" font-size="14.00" fill="#000000">is_forced </text>
<text text-anchor="start" x="599.6788" y="-263.9" font-family="Arial" font-size="14.00" fill="#666666">[tinyint(1)]</text>
<polygon fill="none" stroke="#000000" points="532,-222.5 532,-252.5 715,-252.5 715,-222.5 532,-222.5"/>
<text text-anchor="start" x="539" y="-233.9" font-family="Arial" font-size="14.00" fill="#000000">is_public </text>
<text text-anchor="start" x="597.3408" y="-233.9" font-family="Arial" font-size="14.00" fill="#666666">[tinyint(1)]</text>
<polygon fill="none" stroke="#000000" points="532,-192.5 532,-222.5 715,-222.5 715,-192.5 532,-192.5"/>
<text text-anchor="start" x="539" y="-203.9" font-family="Arial" font-size="14.00" fill="#000000">is_visible </text>
<text text-anchor="start" x="599.6648" y="-203.9" font-family="Arial" font-size="14.00" fill="#666666">[tinyint(1)]</text>
<polygon fill="none" stroke="#000000" points="532,-162.5 532,-192.5 715,-192.5 715,-162.5 532,-162.5"/>
<text text-anchor="start" x="539" y="-173.9" font-family="Arial" font-size="14.00" fill="#000000">creator_id </text>
<text text-anchor="start" x="605.122" y="-173.9" font-family="Arial" font-size="14.00" fill="#666666">[char(36)]</text>
<polygon fill="none" stroke="#000000" points="532,-132.5 532,-162.5 715,-162.5 715,-132.5 532,-132.5"/>
<text text-anchor="start" x="539" y="-143.9" font-family="Arial" font-size="14.00" fill="#000000">updater_id </text>
<text text-anchor="start" x="609.0266" y="-143.9" font-family="Arial" font-size="14.00" fill="#666666">[char(36)]</text>
<polygon fill="none" stroke="#000000" points="532,-102.5 532,-132.5 715,-132.5 715,-102.5 532,-102.5"/>
<text text-anchor="start" x="539" y="-113.9" font-family="Arial" font-size="14.00" fill="#000000">created_at </text>
<text text-anchor="start" x="609.028" y="-113.9" font-family="Arial" font-size="14.00" fill="#666666">[datetime(6)]</text>
<polygon fill="none" stroke="#000000" points="532,-72.5 532,-102.5 715,-102.5 715,-72.5 532,-72.5"/>
<text text-anchor="start" x="539" y="-83.9" font-family="Arial" font-size="14.00" fill="#000000">updated_at </text>
<text text-anchor="start" x="612.9326" y="-83.9" font-family="Arial" font-size="14.00" fill="#666666">[datetime(6)]</text>
<polygon fill="none" stroke="#000000" points="532,-42.5 532,-72.5 715,-72.5 715,-42.5 532,-42.5"/>
<text text-anchor="start" x="539" y="-53.9" font-family="Arial" font-size="14.00" fill="#000000">deleted_at </text>
<text text-anchor="start" x="608.2566" y="-53.9" font-family="Arial" font-size="14.00" fill="#666666">[datetime(6)]</text>
</g>
<!-- files&#45;&gt;channels -->
<g id="edge5" class="edge">
<title>files:channel_id&#45;&gt;channels:id</title>
<path fill="none" stroke="#000000" d="M431.9557,-635.0257C481.6082,-609.0614 474.8608,-387.5 532,-387.5"/>
<polygon fill="#000000" stroke="#000000" points="431.7048,-635.0879 420.9146,-633.1329 426.8524,-636.294 422,-637.5 422,-637.5 422,-637.5 426.8524,-636.294 423.0854,-641.8671 431.7048,-635.0879 431.7048,-635.0879"/>
<text text-anchor="start" x="429.378" y="-647.5" font-family="Arial" font-size="10.00" fill="#000000">FOREIGN KEY (channel_id) REFERENCES channels (id)</text>
</g>
<!-- files_acl -->
<g id="node2" class="node">
<title>files_acl</title>
<polygon fill="#efefef" stroke="transparent" points="110,-1307.5 110,-1342.5 286,-1342.5 286,-1307.5 110,-1307.5"/>
<polygon fill="none" stroke="#000000" points="110,-1307.5 110,-1342.5 286,-1342.5 286,-1307.5 110,-1307.5"/>
<text text-anchor="start" x="116.8714" y="-1320.3" font-family="Arial Bold" font-size="18.00" fill="#000000">files_acl</text>
<text text-anchor="start" x="181.8748" y="-1320.3" font-family="Arial" font-size="14.00" fill="#000000"> </text>
<text text-anchor="start" x="185.7654" y="-1320.3" font-family="Arial" font-size="14.00" fill="#666666">[BASE TABLE]</text>
<polygon fill="none" stroke="#000000" points="110,-1277.5 110,-1307.5 286,-1307.5 286,-1277.5 110,-1277.5"/>
<text text-anchor="start" x="117" y="-1288.9" font-family="Arial" font-size="14.00" fill="#000000">file_id </text>
<text text-anchor="start" x="157.4488" y="-1288.9" font-family="Arial" font-size="14.00" fill="#666666">[char(36)]</text>
<polygon fill="none" stroke="#000000" points="110,-1247.5 110,-1277.5 286,-1277.5 286,-1247.5 110,-1247.5"/>
<text text-anchor="start" x="117" y="-1258.9" font-family="Arial" font-size="14.00" fill="#000000">user_id </text>
<text text-anchor="start" x="166.7882" y="-1258.9" font-family="Arial" font-size="14.00" fill="#666666">[char(36)]</text>
<polygon fill="none" stroke="#000000" points="110,-1217.5 110,-1247.5 286,-1247.5 286,-1217.5 110,-1217.5"/>
<text text-anchor="start" x="117" y="-1228.9" font-family="Arial" font-size="14.00" fill="#000000">allow </text>
<text text-anchor="start" x="152.7756" y="-1228.9" font-family="Arial" font-size="14.00" fill="#666666">[tinyint(1)]</text>
</g>
<!-- files_acl&#45;&gt;files -->
<g id="edge1" class="edge">
<title>files_acl:file_id&#45;&gt;files:id</title>
<path fill="none" stroke="#000000" d="M296.171,-1291.8821C415.0509,-1276.2056 109.4091,-967.5 251,-967.5"/>
<polygon fill="#000000" stroke="#000000" points="295.9816,-1291.8935 285.7271,-1288.0083 290.9908,-1292.1967 286,-1292.5 286,-1292.5 286,-1292.5 290.9908,-1292.1967 286.2729,-1296.9917 295.9816,-1291.8935 295.9816,-1291.8935"/>
<text text-anchor="start" x="292.616" y="-1302.5" font-family="Arial" font-size="10.00" fill="#000000">FOREIGN KEY (file_id) REFERENCES files (id)</text>
</g>
<!-- stamps -->
<g id="node3" class="node">
<title>stamps</title>
<polygon fill="#efefef" stroke="transparent" points="391,-1382.5 391,-1417.5 560,-1417.5 560,-1382.5 391,-1382.5"/>
<polygon fill="none" stroke="#000000" points="391,-1382.5 391,-1417.5 560,-1417.5 560,-1382.5 391,-1382.5"/>
<text text-anchor="start" x="397.8697" y="-1395.3" font-family="Arial Bold" font-size="18.00" fill="#000000">stamps</text>
<text text-anchor="start" x="455.8765" y="-1395.3" font-family="Arial" font-size="14.00" fill="#000000"> </text>
<text text-anchor="start" x="459.7671" y="-1395.3" font-family="Arial" font-size="14.00" fill="#666666">[BASE TABLE]</text>
<polygon fill="none" stroke="#000000" points="391,-1352.5 391,-1382.5 560,-1382.5 560,-1352.5 391,-1352.5"/>
<text text-anchor="start" x="398" y="-1363.9" font-family="Arial" font-size="14.00" fill="#000000">id </text>
<text text-anchor="start" x="412.7798" y="-1363.9" font-family="Arial" font-size="14.00" fill="#666666">[char(36)]</text>
<polygon fill="none" stroke="#000000" points="391,-1322.5 391,-1352.5 560,-1352.5 560,-1322.5 391,-1322.5"/>
<text text-anchor="start" x="398" y="-1333.9" font-family="Arial" font-size="14.00" fill="#000000">name </text>
<text text-anchor="start" x="436.899" y="-1333.9" font-family="Arial" font-size="14.00" fill="#666666">[varchar(32)]</text>
<polygon fill="none" stroke="#000000" points="391,-1292.5 391,-1322.5 560,-1322.5 560,-1292.5 391,-1292.5"/>
<text text-anchor="start" x="398" y="-1303.9" font-family="Arial" font-size="14.00" fill="#000000">creator_id </text>
<text text-anchor="start" x="464.122" y="-1303.9" font-family="Arial" font-size="14.00" fill="#666666">[char(36)]</text>
<polygon fill="none" stroke="#000000" points="391,-1262.5 391,-1292.5 560,-1292.5 560,-1262.5 391,-1262.5"/>
<text text-anchor="start" x="398" y="-1273.9" font-family="Arial" font-size="14.00" fill="#000000">file_id </text>
<text text-anchor="start" x="438.4488" y="-1273.9" font-family="Arial" font-size="14.00" fill="#666666">[char(36)]</text>
<polygon fill="none" stroke="#000000" points="391,-1232.5 391,-1262.5 560,-1262.5 560,-1232.5 391,-1232.5"/>
<text text-anchor="start" x="398" y="-1243.9" font-family="Arial" font-size="14.00" fill="#000000">is_unicode </text>
<text text-anchor="start" x="468.7994" y="-1243.9" font-family="Arial" font-size="14.00" fill="#666666">[tinyint(1)]</text>
<polygon fill="none" stroke="#000000" points="391,-1202.5 391,-1232.5 560,-1232.5 560,-1202.5 391,-1202.5"/>
<text text-anchor="start" x="398" y="-1213.9" font-family="Arial" font-size="14.00" fill="#000000">created_at </text>
<text text-anchor="start" x="468.028" y="-1213.9" font-family="Arial" font-size="14.00" fill="#666666">[datetime(6)]</text>
<polygon fill="none" stroke="#000000" points="391,-1172.5 391,-1202.5 560,-1202.5 560,-1172.5 391,-1172.5"/>
<text text-anchor="start" x="398" y="-1183.9" font-family="Arial" font-size="14.00" fill="#000000">updated_at </text>
<text text-anchor="start" x="471.9326" y="-1183.9" font-family="Arial" font-size="14.00" fill="#666666">[datetime(6)]</text>
<polygon fill="none" stroke="#000000" points="391,-1142.5 391,-1172.5 560,-1172.5 560,-1142.5 391,-1142.5"/>
<text text-anchor="start" x="398" y="-1153.9" font-family="Arial" font-size="14.00" fill="#000000">deleted_at </text>
<text text-anchor="start" x="467.2566" y="-1153.9" font-family="Arial" font-size="14.00" fill="#666666">[datetime(6)]</text>
</g>
<!-- stamps&#45;&gt;files -->
<g id="edge2" class="edge">
<title>stamps:file_id&#45;&gt;files:id</title>
<path fill="none" stroke="#000000" d="M380.7494,-1276.8312C316.8804,-1267.8579 364.8323,-1170.4907 391,-1100 398.3482,-1080.2053 414.6518,-1083.7947 422,-1064 436.926,-1023.7922 464.8889,-967.5 422,-967.5"/>
<polygon fill="#000000" stroke="#000000" points="381.0212,-1276.8488 390.707,-1281.9905 386.0106,-1277.1744 391,-1277.5 391,-1277.5 391,-1277.5 386.0106,-1277.1744 391.293,-1273.0095 381.0212,-1276.8488 381.0212,-1276.8488"/>
<text text-anchor="start" x="397.616" y="-1261.5" font-family="Arial" font-size="10.00" fill="#000000">FOREIGN KEY (file_id) REFERENCES files (id)</text>
</g>
<!-- users&#45;&gt;files -->
<g id="edge3" class="edge">
<title>users:icon&#45;&gt;files:id</title>
<path fill="none" stroke="#000000" stroke-dasharray="5,2" d="M235.0305,-223.4271C79.7523,-252.7433 88.8344,-967.5 251,-967.5"/>
<polygon fill="#000000" stroke="#000000" points="235.043,-223.4261 245.4167,-226.9807 240.0215,-222.963 245,-222.5 245,-222.5 245,-222.5 240.0215,-222.963 244.5833,-218.0193 235.043,-223.4261 235.043,-223.4261"/>
<text text-anchor="start" x="155.3245" y="-232.5" font-family="Arial" font-size="10.00" fill="#000000">Additional Relation</text>
</g>
</g>
</svg>
45,-222.5 240.0215,-222.963 244.5833,-218.0193 235.043,-223.4261 235.043,-223.4261"/>
<text text-anchor="start" x="155.3245" y="-232.5" font-family="Arial" font-size="10.00" fill="#000000">Additional Relation</text>
</g>
</g>
</svg>
