<?xml version="1.0" encoding="UTF-8" standalone="no"?>
<!DOCTYPE svg PUBLIC "-//W3C//DTD SVG 1.1//EN"
 "http://www.w3.org/Graphics/SVG/1.1/DTD/svg11.dtd">
<!-- Generated by graphviz version 2.40.1 (20161225.0304)
 -->
<!-- Title: files Pages: 1 -->
<svg width="780pt" height="1499pt"
 viewBox="0.00 0.00 779.50 1499.00" xmlns="http://www.w3.org/2000/svg" xmlns:xlink="http://www.w3.org/1999/xlink">
<g id="graph0" class="graph" transform="scale(1 1) rotate(0) translate(4 1495)">
<title>files</title>
<polygon fill="#ffffff" stroke="transparent" points="-4,4 -4,-1495 775.5,-1495 775.5,4 -4,4"/>
<!-- files -->
<g id="node1" class="node">
<title>files</title>
<polygon fill="#efefef" stroke="transparent" points="251,-1012.5 251,-1047.5 451,-1047.5 451,-1012.5 251,-1012.5"/>
<polygon fill="none" stroke="#000000" points="251,-1012.5 251,-1047.5 451,-1047.5 451,-1012.5 251,-1012.5"/>
<text text-anchor="start" x="286.3747" y="-1025.3" font-family="Arial Bold" font-size="18.00" fill="#000000">files</text>
<text text-anchor="start" x="318.3715" y="-1025.3" font-family="Arial" font-size="14.00" fill="#000000"> </text>
<text text-anchor="start" x="322.2621" y="-1025.3" font-family="Arial" font-size="14.00" fill="#666666">[BASE TABLE]</text>
<polygon fill="none" stroke="#000000" points="251,-982.5 251,-1012.5 451,-1012.5 451,-982.5 251,-982.5"/>
<text text-anchor="start" x="258" y="-993.9" font-family="Arial" font-size="14.00" fill="#000000">id </text>
<text text-anchor="start" x="272.7798" y="-993.9" font-family="Arial" font-size="14.00" fill="#666666">[char(36)]</text>
<polygon fill="none" stroke="#000000" points="251,-952.5 251,-982.5 451,-982.5 451,-952.5 251,-952.5"/>
<text text-anchor="start" x="258" y="-963.9" font-family="Arial" font-size="14.00" fill="#000000">name </text>
<text text-anchor="start" x="296.899" y="-963.9" font-family="Arial" font-size="14.00" fill="#666666">[text]</text>
<polygon fill="none" stroke="#000000" points="251,-922.5 251,-952.5 451,-952.5 451,-922.5 251,-922.5"/>
<text text-anchor="start" x="258" y="-933.9" font-family="Arial" font-size="14.00" fill="#000000">mime </text>
<text text-anchor="start" x="296.101" y="-933.9" font-family="Arial" font-size="14.00" fill="#666666">[text]</text>
<polygon fill="none" stroke="#000000" points="251,-892.5 251,-922.5 451,-922.5 451,-892.5 251,-892.5"/>
<text text-anchor="start" x="258" y="-903.9" font-family="Arial" font-size="14.00" fill="#000000">size </text>
<text text-anchor="start" x="286.7798" y="-903.9" font-family="Arial" font-size="14.00" fill="#666666">[bigint(20)]</text>
<polygon fill="none" stroke="#000000" points="251,-862.5 251,-892.5 451,-892.5 451,-862.5 251,-862.5"/>
<text text-anchor="start" x="258" y="-873.9" font-family="Arial" font-size="14.00" fill="#000000">creator_id </text>
<text text-anchor="start" x="324.122" y="-873.9" font-family="Arial" font-size="14.00" fill="#666666">[char(36)]</text>
<polygon fill="none" stroke="#000000" points="251,-832.5 251,-862.5 451,-862.5 451,-832.5 251,-832.5"/>
<text text-anchor="start" x="258" y="-843.9" font-family="Arial" font-size="14.00" fill="#000000">hash </text>
<text text-anchor="start" x="292.2384" y="-843.9" font-family="Arial" font-size="14.00" fill="#666666">[char(32)]</text>
<polygon fill="none" stroke="#000000" points="251,-802.5 251,-832.5 451,-832.5 451,-802.5 251,-802.5"/>
<text text-anchor="start" x="258" y="-813.9" font-family="Arial" font-size="14.00" fill="#000000">type </text>
<text text-anchor="start" x="288.3464" y="-813.9" font-family="Arial" font-size="14.00" fill="#666666">[varchar(30)]</text>
<polygon fill="none" stroke="#000000" points="251,-772.5 251,-802.5 451,-802.5 451,-772.5 251,-772.5"/>
<text text-anchor="start" x="258" y="-783.9" font-family="Arial" font-size="14.00" fill="#000000">has_thumbnail </text>
<text text-anchor="start" x="352.9158" y="-783.9" font-family="Arial" font-size="14.00" fill="#666666">[tinyint(1)]</text>
<polygon fill="none" stroke="#000000" points="251,-742.5 251,-772.5 451,-772.5 451,-742.5 251,-742.5"/>
<text text-anchor="start" x="258" y="-753.9" font-family="Arial" font-size="14.00" fill="#000000">thumbnail_mime </text>
<text text-anchor="start" x="364.561" y="-753.9" font-family="Arial" font-size="14.00" fill="#666666">[text]</text>
<polygon fill="none" stroke="#000000" points="251,-712.5 251,-742.5 451,-742.5 451,-712.5 251,-712.5"/>
<text text-anchor="start" x="258" y="-723.9" font-family="Arial" font-size="14.00" fill="#000000">thumbnail_width </text>
<text text-anchor="start" x="363.0196" y="-723.9" font-family="Arial" font-size="14.00" fill="#666666">[int(11)]</text>
<polygon fill="none" stroke="#000000" points="251,-682.5 251,-712.5 451,-712.5 451,-682.5 251,-682.5"/>
<text text-anchor="start" x="258" y="-693.9" font-family="Arial" font-size="14.00" fill="#000000">thumbnail_height </text>
<text text-anchor="start" x="368.4782" y="-693.9" font-family="Arial" font-size="14.00" fill="#666666">[int(11)]</text>
<polygon fill="none" stroke="#000000" points="251,-652.5 251,-682.5 451,-682.5 451,-652.5 251,-652.5"/>
<text text-anchor="start" x="257.6536" y="-663.9" font-family="Arial" font-size="14.00" fill="#000000">is_animated_image </text>
<text text-anchor="start" x="382.9018" y="-663.9" font-family="Arial" font-size="14.00" fill="#666666">[tinyint(1)]</text>
<polygon fill="none" stroke="#000000" points="251,-622.5 251,-652.5 451,-652.5 451,-622.5 251,-622.5"/>
<text text-anchor="start" x="258" y="-633.9" font-family="Arial" font-size="14.00" fill="#000000">channel_id </text>
<text text-anchor="start" x="329.582" y="-633.9" font-family="Arial" font-size="14.00" fill="#666666">[char(36)]</text>
<polygon fill="none" stroke="#000000" points="251,-592.5 251,-622.5 451,-622.5 451,-592.5 251,-592.5"/>
<text text-anchor="start" x="258" y="-603.9" font-family="Arial" font-size="14.00" fill="#000000">created_at </text>
<text text-anchor="start" x="328.028" y="-603.9" font-family="Arial" font-size="14.00" fill="#666666">[datetime(6)]</text>
<polygon fill="none" stroke="#000000" points="251,-562.5 251,-592.5 451,-592.5 451,-562.5 251,-562.5"/>
<text text-anchor="start" x="258" y="-573.9" font-family="Arial" font-size="14.00" fill="#000000">deleted_at </text>
<text text-anchor="start" x="327.2566" y="-573.9" font-family="Arial" font-size="14.00" fill="#666666">[datetime(6)]</text>
<polygon fill="none" stroke="#000000" stroke-width="3" points="249.5,-561.5 249.5,-1049.5 452.5,-1049.5 452.5,-561.5 249.5,-561.5"/>
</g>
<!-- users -->
<g id="node4" class="node">
<title>users</title>
<polygon fill="#efefef" stroke="transparent" points="259,-387.5 259,-422.5 442,-422.5 442,-387.5 259,-387.5"/>
<polygon fill="none" stroke="#000000" points="259,-387.5 259,-422.5 442,-422.5 442,-387.5 259,-387.5"/>
<text text-anchor="start" x="279.8708" y="-400.3" font-family="Arial Bold" font-size="18.00" fill="#000000">users</text>
<text text-anchor="start" x="323.8754" y="-400.3" font-family="Arial" font-size="14.00" fill="#000000"> </text>
<text text-anchor="start" x="327.766" y="-400.3" font-family="Arial" font-size="14.00" fill="#666666">[BASE TABLE]</text>
<polygon fill="none" stroke="#000000" points="259,-357.5 259,-387.5 442,-387.5 442,-357.5 259,-357.5"/>
<text text-anchor="start" x="266" y="-368.9" font-family="Arial" font-size="14.00" fill="#000000">id </text>
<text text-anchor="start" x="280.7798" y="-368.9" font-family="Arial" font-size="14.00" fill="#666666">[char(36)]</text>
<polygon fill="none" stroke="#000000" points="259,-327.5 259,-357.5 442,-357.5 442,-327.5 259,-327.5"/>
<text text-anchor="start" x="266" y="-338.9" font-family="Arial" font-size="14.00" fill="#000000">name </text>
<text text-anchor="start" x="304.899" y="-338.9" font-family="Arial" font-size="14.00" fill="#666666">[varchar(32)]</text>
<polygon fill="none" stroke="#000000" points="259,-297.5 259,-327.5 442,-327.5 442,-297.5 259,-297.5"/>
<text text-anchor="start" x="265.7104" y="-308.9" font-family="Arial" font-size="14.00" fill="#000000">display_name </text>
<text text-anchor="start" x="355.953" y="-308.9" font-family="Arial" font-size="14.00" fill="#666666">[varchar(64)]</text>
<polygon fill="none" stroke="#000000" points="259,-267.5 259,-297.5 442,-297.5 442,-267.5 259,-267.5"/>
<text text-anchor="start" x="266" y="-278.9" font-family="Arial" font-size="14.00" fill="#000000">password </text>
<text text-anchor="start" x="329.7882" y="-278.9" font-family="Arial" font-size="14.00" fill="#666666">[char(128)]</text>
<polygon fill="none" stroke="#000000" points="259,-237.5 259,-267.5 442,-267.5 442,-237.5 259,-237.5"/>
<text text-anchor="start" x="266" y="-248.9" font-family="Arial" font-size="14.00" fill="#000000">salt </text>
<text text-anchor="start" x="291.6704" y="-248.9" font-family="Arial" font-size="14.00" fill="#666666">[char(128)]</text>
<polygon fill="none" stroke="#000000" points="259,-207.5 259,-237.5 442,-237.5 442,-207.5 259,-207.5"/>
<text text-anchor="start" x="266" y="-218.9" font-family="Arial" font-size="14.00" fill="#000000">icon </text>
<text text-anchor="start" x="295.5624" y="-218.9" font-family="Arial" font-size="14.00" fill="#666666">[char(36)]</text>
<polygon fill="none" stroke="#000000" points="259,-177.5 259,-207.5 442,-207.5 442,-177.5 259,-177.5"/>
<text text-anchor="start" x="266" y="-188.9" font-family="Arial" font-size="14.00" fill="#000000">status </text>
<text text-anchor="start" x="307.237" y="-188.9" font-family="Arial" font-size="14.00" fill="#666666">[tinyint(4)]</text>
<polygon fill="none" stroke="#000000" points="259,-147.5 259,-177.5 442,-177.5 442,-147.5 259,-147.5"/>
<text text-anchor="start" x="266" y="-158.9" font-family="Arial" font-size="14.00" fill="#000000">bot </text>
<text text-anchor="start" x="289.3464" y="-158.9" font-family="Arial" font-size="14.00" fill="#666666">[tinyint(1)]</text>
<polygon fill="none" stroke="#000000" points="259,-117.5 259,-147.5 442,-147.5 442,-117.5 259,-117.5"/>
<text text-anchor="start" x="266" y="-128.9" font-family="Arial" font-size="14.00" fill="#000000">role </text>
<text text-anchor="start" x="293.223" y="-128.9" font-family="Arial" font-size="14.00" fill="#666666">[varchar(30)]</text>
<polygon fill="none" stroke="#000000" points="259,-87.5 259,-117.5 442,-117.5 442,-87.5 259,-87.5"/>
<text text-anchor="start" x="266" y="-98.9" font-family="Arial" font-size="14.00" fill="#000000">created_at </text>
<text text-anchor="start" x="336.028" y="-98.9" font-family="Arial" font-size="14.00" fill="#666666">[datetime(6)]</text>
<polygon fill="none" stroke="#000000" points="259,-57.5 259,-87.5 442,-87.5 442,-57.5 259,-57.5"/>
<text text-anchor="start" x="266" y="-68.9" font-family="Arial" font-size="14.00" fill="#000000">updated_at </text>
<text text-anchor="start" x="339.9326" y="-68.9" font-family="Arial" font-size="14.00" fill="#666666">[datetime(6)]</text>
</g>
<!-- files&#45;&gt;users -->
<g id="edge4" class="edge">
<title>files:creator_id&#45;&gt;users:id</title>
<path fill="none" stroke="#000000" d="M240.9799,-877.1801C93.485,-867.5189 155.5042,-641.3403 251,-517 304.5179,-447.3169 388.4821,-535.6831 442,-466 467.3118,-433.0428 483.5556,-372.5 442,-372.5"/>
<polygon fill="#000000" stroke="#000000" points="241.0051,-877.1808 250.8564,-881.9977 246.0025,-877.3404 251,-877.5 251,-877.5 251,-877.5 246.0025,-877.3404 251.1436,-873.0023 241.0051,-877.1808 241.0051,-877.1808"/>
<text text-anchor="start" x="7.1115" y="-887.5" font-family="Arial" font-size="10.00" fill="#000000">FOREIGN KEY (creator_id) REFERENCES users (id)</text>
</g>
<!-- channels -->
<g id="node5" class="node">
<title>channels</title>
<polygon fill="#efefef" stroke="transparent" points="546,-402.5 546,-437.5 729,-437.5 729,-402.5 546,-402.5"/>
<polygon fill="none" stroke="#000000" points="546,-402.5 546,-437.5 729,-437.5 729,-402.5 546,-402.5"/>
<text text-anchor="start" x="552.8605" y="-415.3" font-family="Arial Bold" font-size="18.00" fill="#000000">channels</text>
<text text-anchor="start" x="624.8857" y="-415.3" font-family="Arial" font-size="14.00" fill="#000000"> </text>
<text text-anchor="start" x="628.7763" y="-415.3" font-family="Arial" font-size="14.00" fill="#666666">[BASE TABLE]</text>
<polygon fill="none" stroke="#000000" points="546,-372.5 546,-402.5 729,-402.5 729,-372.5 546,-372.5"/>
<text text-anchor="start" x="553" y="-383.9" font-family="Arial" font-size="14.00" fill="#000000">id </text>
<text text-anchor="start" x="567.7798" y="-383.9" font-family="Arial" font-size="14.00" fill="#666666">[char(36)]</text>
<polygon fill="none" stroke="#000000" points="546,-342.5 546,-372.5 729,-372.5 729,-342.5 546,-342.5"/>
<text text-anchor="start" x="553" y="-353.9" font-family="Arial" font-size="14.00" fill="#000000">name </text>
<text text-anchor="start" x="591.899" y="-353.9" font-family="Arial" font-size="14.00" fill="#666666">[varchar(20)]</text>
<polygon fill="none" stroke="#000000" points="546,-312.5 546,-342.5 729,-342.5 729,-312.5 546,-312.5"/>
<text text-anchor="start" x="553" y="-323.9" font-family="Arial" font-size="14.00" fill="#000000">parent_id </text>
<text text-anchor="start" x="615.244" y="-323.9" font-family="Arial" font-size="14.00" fill="#666666">[char(36)]</text>
<polygon fill="none" stroke="#000000" points="546,-282.5 546,-312.5 729,-312.5 729,-282.5 546,-282.5"/>
<text text-anchor="start" x="553" y="-293.9" font-family="Arial" font-size="14.00" fill="#000000">topic </text>
<text text-anchor="start" x="586.453" y="-293.9" font-family="Arial" font-size="14.00" fill="#666666">[text]</text>
<polygon fill="none" stroke="#000000" points="546,-252.5 546,-282.5 729,-282.5 729,-252.5 546,-252.5"/>
<text text-anchor="start" x="553" y="-263.9" font-family="Arial" font-size="14.00" fill="#000000">is_forced </text>
<text text-anchor="start" x="613.6788" y="-263.9" font-family="Arial" font-size="14.00" fill="#666666">[tinyint(1)]</text>
<polygon fill="none" stroke="#000000" points="546,-222.5 546,-252.5 729,-252.5 729,-222.5 546,-222.5"/>
<text text-anchor="start" x="553" y="-233.9" font-family="Arial" font-size="14.00" fill="#000000">is_public </text>
<text text-anchor="start" x="611.3408" y="-233.9" font-family="Arial" font-size="14.00" fill="#666666">[tinyint(1)]</text>
<polygon fill="none" stroke="#000000" points="546,-192.5 546,-222.5 729,-222.5 729,-192.5 546,-192.5"/>
<text text-anchor="start" x="553" y="-203.9" font-family="Arial" font-size="14.00" fill="#000000">is_visible </text>
<text text-anchor="start" x="613.6648" y="-203.9" font-family="Arial" font-size="14.00" fill="#666666">[tinyint(1)]</text>
<polygon fill="none" stroke="#000000" points="546,-162.5 546,-192.5 729,-192.5 729,-162.5 546,-162.5"/>
<text text-anchor="start" x="553" y="-173.9" font-family="Arial" font-size="14.00" fill="#000000">creator_id </text>
<text text-anchor="start" x="619.122" y="-173.9" font-family="Arial" font-size="14.00" fill="#666666">[char(36)]</text>
<polygon fill="none" stroke="#000000" points="546,-132.5 546,-162.5 729,-162.5 729,-132.5 546,-132.5"/>
<text text-anchor="start" x="553" y="-143.9" font-family="Arial" font-size="14.00" fill="#000000">updater_id </text>
<text text-anchor="start" x="623.0266" y="-143.9" font-family="Arial" font-size="14.00" fill="#666666">[char(36)]</text>
<polygon fill="none" stroke="#000000" points="546,-102.5 546,-132.5 729,-132.5 729,-102.5 546,-102.5"/>
<text text-anchor="start" x="553" y="-113.9" font-family="Arial" font-size="14.00" fill="#000000">created_at </text>
<text text-anchor="start" x="623.028" y="-113.9" font-family="Arial" font-size="14.00" fill="#666666">[datetime(6)]</text>
<polygon fill="none" stroke="#000000" points="546,-72.5 546,-102.5 729,-102.5 729,-72.5 546,-72.5"/>
<text text-anchor="start" x="553" y="-83.9" font-family="Arial" font-size="14.00" fill="#000000">updated_at </text>
<text text-anchor="start" x="626.9326" y="-83.9" font-family="Arial" font-size="14.00" fill="#666666">[datetime(6)]</text>
<polygon fill="none" stroke="#000000" points="546,-42.5 546,-72.5 729,-72.5 729,-42.5 546,-42.5"/>
<text text-anchor="start" x="553" y="-53.9" font-family="Arial" font-size="14.00" fill="#000000">deleted_at </text>
<text text-anchor="start" x="622.2566" y="-53.9" font-family="Arial" font-size="14.00" fill="#666666">[datetime(6)]</text>
</g>
<!-- files&#45;&gt;channels -->
<g id="edge5" class="edge">
<title>files:channel_id&#45;&gt;channels:id</title>
<path fill="none" stroke="#000000" d="M461.0905,-636.8265C561.4611,-622.5924 430.7355,-387.5 546,-387.5"/>
<polygon fill="#000000" stroke="#000000" points="460.9778,-636.8339 450.7003,-633.01 455.9889,-637.167 451,-637.5 451,-637.5 451,-637.5 455.9889,-637.167 451.2997,-641.99 460.9778,-636.8339 460.9778,-636.8339"/>
<text text-anchor="start" x="458.378" y="-647.5" font-family="Arial" font-size="10.00" fill="#000000">FOREIGN KEY (channel_id) REFERENCES channels (id)</text>
</g>
<!-- files_acl -->
<g id="node2" class="node">
<title>files_acl</title>
<polygon fill="#efefef" stroke="transparent" points="124,-1337.5 124,-1372.5 300,-1372.5 300,-1337.5 124,-1337.5"/>
<polygon fill="none" stroke="#000000" points="124,-1337.5 124,-1372.5 300,-1372.5 300,-1337.5 124,-1337.5"/>
<text text-anchor="start" x="130.8714" y="-1350.3" font-family="Arial Bold" font-size="18.00" fill="#000000">files_acl</text>
<text text-anchor="start" x="195.8748" y="-1350.3" font-family="Arial" font-size="14.00" fill="#000000"> </text>
<text text-anchor="start" x="199.7654" y="-1350.3" font-family="Arial" font-size="14.00" fill="#666666">[BASE TABLE]</text>
<polygon fill="none" stroke="#000000" points="124,-1307.5 124,-1337.5 300,-1337.5 300,-1307.5 124,-1307.5"/>
<text text-anchor="start" x="131" y="-1318.9" font-family="Arial" font-size="14.00" fill="#000000">file_id </text>
<text text-anchor="start" x="171.4488" y="-1318.9" font-family="Arial" font-size="14.00" fill="#666666">[char(36)]</text>
<polygon fill="none" stroke="#000000" points="124,-1277.5 124,-1307.5 300,-1307.5 300,-1277.5 124,-1277.5"/>
<text text-anchor="start" x="131" y="-1288.9" font-family="Arial" font-size="14.00" fill="#000000">user_id </text>
<text text-anchor="start" x="180.7882" y="-1288.9" font-family="Arial" font-size="14.00" fill="#666666">[char(36)]</text>
<polygon fill="none" stroke="#000000" points="124,-1247.5 124,-1277.5 300,-1277.5 300,-1247.5 124,-1247.5"/>
<text text-anchor="start" x="131" y="-1258.9" font-family="Arial" font-size="14.00" fill="#000000">allow </text>
<text text-anchor="start" x="166.7756" y="-1258.9" font-family="Arial" font-size="14.00" fill="#666666">[tinyint(1)]</text>
</g>
<!-- files_acl&#45;&gt;files -->
<g id="edge1" class="edge">
<title>files_acl:file_id&#45;&gt;files:id</title>
<path fill="none" stroke="#000000" d="M310.2006,-1321.8821C429.0668,-1306.2056 108.6321,-997.5 251,-997.5"/>
<polygon fill="#000000" stroke="#000000" points="309.9817,-1321.8952 299.7279,-1318.0082 304.9909,-1322.1976 300,-1322.5 300,-1322.5 300,-1322.5 304.9909,-1322.1976 300.2721,-1326.9918 309.9817,-1321.8952 309.9817,-1321.8952"/>
<text text-anchor="start" x="306.616" y="-1332.5" font-family="Arial" font-size="10.00" fill="#000000">FOREIGN KEY (file_id) REFERENCES files (id)</text>
</g>
<!-- stamps -->
<g id="node3" class="node">
<title>stamps</title>
<polygon fill="#efefef" stroke="transparent" points="405,-1412.5 405,-1447.5 574,-1447.5 574,-1412.5 405,-1412.5"/>
<polygon fill="none" stroke="#000000" points="405,-1412.5 405,-1447.5 574,-1447.5 574,-1412.5 405,-1412.5"/>
<text text-anchor="start" x="411.8697" y="-1425.3" font-family="Arial Bold" font-size="18.00" fill="#000000">stamps</text>
<text text-anchor="start" x="469.8765" y="-1425.3" font-family="Arial" font-size="14.00" fill="#000000"> </text>
<text text-anchor="start" x="473.7671" y="-1425.3" font-family="Arial" font-size="14.00" fill="#666666">[BASE TABLE]</text>
<polygon fill="none" stroke="#000000" points="405,-1382.5 405,-1412.5 574,-1412.5 574,-1382.5 405,-1382.5"/>
<text text-anchor="start" x="412" y="-1393.9" font-family="Arial" font-size="14.00" fill="#000000">id </text>
<text text-anchor="start" x="426.7798" y="-1393.9" font-family="Arial" font-size="14.00" fill="#666666">[char(36)]</text>
<polygon fill="none" stroke="#000000" points="405,-1352.5 405,-1382.5 574,-1382.5 574,-1352.5 405,-1352.5"/>
<text text-anchor="start" x="412" y="-1363.9" font-family="Arial" font-size="14.00" fill="#000000">name </text>
<text text-anchor="start" x="450.899" y="-1363.9" font-family="Arial" font-size="14.00" fill="#666666">[varchar(32)]</text>
<polygon fill="none" stroke="#000000" points="405,-1322.5 405,-1352.5 574,-1352.5 574,-1322.5 405,-1322.5"/>
<text text-anchor="start" x="412" y="-1333.9" font-family="Arial" font-size="14.00" fill="#000000">creator_id </text>
<text text-anchor="start" x="478.122" y="-1333.9" font-family="Arial" font-size="14.00" fill="#666666">[char(36)]</text>
<polygon fill="none" stroke="#000000" points="405,-1292.5 405,-1322.5 574,-1322.5 574,-1292.5 405,-1292.5"/>
<text text-anchor="start" x="412" y="-1303.9" font-family="Arial" font-size="14.00" fill="#000000">file_id </text>
<text text-anchor="start" x="452.4488" y="-1303.9" font-family="Arial" font-size="14.00" fill="#666666">[char(36)]</text>
<polygon fill="none" stroke="#000000" points="405,-1262.5 405,-1292.5 574,-1292.5 574,-1262.5 405,-1262.5"/>
<text text-anchor="start" x="412" y="-1273.9" font-family="Arial" font-size="14.00" fill="#000000">is_unicode </text>
<text text-anchor="start" x="482.7994" y="-1273.9" font-family="Arial" font-size="14.00" fill="#666666">[tinyint(1)]</text>
<polygon fill="none" stroke="#000000" points="405,-1232.5 405,-1262.5 574,-1262.5 574,-1232.5 405,-1232.5"/>
<text text-anchor="start" x="412" y="-1243.9" font-family="Arial" font-size="14.00" fill="#000000">created_at </text>
<text text-anchor="start" x="482.028" y="-1243.9" font-family="Arial" font-size="14.00" fill="#666666">[datetime(6)]</text>
<polygon fill="none" stroke="#000000" points="405,-1202.5 405,-1232.5 574,-1232.5 574,-1202.5 405,-1202.5"/>
<text text-anchor="start" x="412" y="-1213.9" font-family="Arial" font-size="14.00" fill="#000000">updated_at </text>
<text text-anchor="start" x="485.9326" y="-1213.9" font-family="Arial" font-size="14.00" fill="#666666">[datetime(6)]</text>
<polygon fill="none" stroke="#000000" points="405,-1172.5 405,-1202.5 574,-1202.5 574,-1172.5 405,-1172.5"/>
<text text-anchor="start" x="412" y="-1183.9" font-family="Arial" font-size="14.00" fill="#000000">deleted_at </text>
<text text-anchor="start" x="481.2566" y="-1183.9" font-family="Arial" font-size="14.00" fill="#666666">[datetime(6)]</text>
</g>
<!-- stamps&#45;&gt;files -->
<g id="edge2" class="edge">
<title>stamps:file_id&#45;&gt;files:id</title>
<path fill="none" stroke="#000000" d="M394.7048,-1306.8121C330.2461,-1297.5864 372.0662,-1197.5947 405,-1130 416.371,-1106.6617 439.629,-1117.3383 451,-1094 469.7854,-1055.444 493.8889,-997.5 451,-997.5"/>
<polygon fill="#000000" stroke="#000000" points="395.0222,-1306.8332 404.6999,-1311.99 400.0111,-1307.1666 405,-1307.5 405,-1307.5 405,-1307.5 400.0111,-1307.1666 405.3001,-1303.01 395.0222,-1306.8332 395.0222,-1306.8332"/>
<text text-anchor="start" x="411.616" y="-1291.5" font-family="Arial" font-size="10.00" fill="#000000">FOREIGN KEY (file_id) REFERENCES files (id)</text>
</g>
<!-- users&#45;&gt;files -->
<g id="edge3" class="edge">
<title>users:icon&#45;&gt;files:id</title>
<path fill="none" stroke="#000000" stroke-dasharray="5,2" d="M451.8029,-225.0487C493.2498,-248.4449 472.7707,-425.9349 442,-466 388.4821,-535.6831 304.5179,-447.3169 251,-517 120.9218,-686.3684 37.4444,-997.5 251,-997.5"/>
<polygon fill="#000000" stroke="#000000" points="451.6782,-225.0164 443.1324,-218.1448 446.8391,-223.7582 442,-222.5 442,-222.5 442,-222.5 446.8391,-223.7582 440.8676,-226.8552 451.6782,-225.0164 451.6782,-225.0164"/>
<text text-anchor="start" x="449.3245" y="-232.5" font-family="Arial" font-size="10.00" fill="#000000">Additional Relation</text>
</g>
</g>
</svg>
