<?xml version="1.0" encoding="UTF-8" standalone="no"?>
<!DOCTYPE svg PUBLIC "-//W3C//DTD SVG 1.1//EN"
 "http://www.w3.org/Graphics/SVG/1.1/DTD/svg11.dtd">
<!-- Generated by graphviz version 2.40.1 (20161225.0304)
 -->
<!-- Title: files_acl Pages: 1 -->
<svg width="456pt" height="802pt"
     viewBox="0.00 0.00 456.00 802.00" xmlns="http://www.w3.org/2000/svg">
<g id="graph0" class="graph" transform="scale(1 1) rotate(0) translate(4 798)">
<title>files_acl</title>
<polygon fill="#ffffff" stroke="transparent" points="-4,4 -4,-798 452,-798 452,4 -4,4"/>
<!-- files_acl -->
<g id="node1" class="node">
<title>files_acl</title>
<polygon fill="#efefef" stroke="transparent" points="226,-712.5 226,-747.5 402,-747.5 402,-712.5 226,-712.5"/>
<polygon fill="none" stroke="#000000" points="226,-712.5 226,-747.5 402,-747.5 402,-712.5 226,-712.5"/>
<text text-anchor="start" x="232.8714" y="-725.3" font-family="Arial Bold" font-size="18.00" fill="#000000">files_acl</text>
<text text-anchor="start" x="297.8748" y="-725.3" font-family="Arial" font-size="14.00" fill="#000000"> </text>
<text text-anchor="start" x="301.7654" y="-725.3" font-family="Arial" font-size="14.00" fill="#666666">[BASE TABLE]</text>
<polygon fill="none" stroke="#000000" points="226,-682.5 226,-712.5 402,-712.5 402,-682.5 226,-682.5"/>
<text text-anchor="start" x="233" y="-693.9" font-family="Arial" font-size="14.00" fill="#000000">file_id </text>
<text text-anchor="start" x="273.4488" y="-693.9" font-family="Arial" font-size="14.00" fill="#666666">[char(36)]</text>
<polygon fill="none" stroke="#000000" points="226,-652.5 226,-682.5 402,-682.5 402,-652.5 226,-652.5"/>
<text text-anchor="start" x="233" y="-663.9" font-family="Arial" font-size="14.00" fill="#000000">user_id </text>
<text text-anchor="start" x="282.7882" y="-663.9" font-family="Arial" font-size="14.00" fill="#666666">[char(36)]</text>
<polygon fill="none" stroke="#000000" points="226,-622.5 226,-652.5 402,-652.5 402,-622.5 226,-622.5"/>
<text text-anchor="start" x="233" y="-633.9" font-family="Arial" font-size="14.00" fill="#000000">allow </text>
<text text-anchor="start" x="268.7756" y="-633.9" font-family="Arial" font-size="14.00" fill="#666666">[tinyint(1)]</text>
<polygon fill="none" stroke="#000000" stroke-width="3" points="224.5,-621.5 224.5,-749.5 403.5,-749.5 403.5,-621.5 224.5,-621.5"/>
</g>
<!-- files -->
<g id="node2" class="node">
<title>files</title>
<polygon fill="#efefef" stroke="transparent" points="228,-462.5 228,-497.5 399,-497.5 399,-462.5 228,-462.5"/>
<polygon fill="none" stroke="#000000" points="228,-462.5 228,-497.5 399,-497.5 399,-462.5 228,-462.5"/>
<text text-anchor="start" x="248.8747" y="-475.3" font-family="Arial Bold" font-size="18.00" fill="#000000">files</text>
<text text-anchor="start" x="280.8715" y="-475.3" font-family="Arial" font-size="14.00" fill="#000000"> </text>
<text text-anchor="start" x="284.7621" y="-475.3" font-family="Arial" font-size="14.00" fill="#666666">[BASE TABLE]</text>
<polygon fill="none" stroke="#000000" points="228,-432.5 228,-462.5 399,-462.5 399,-432.5 228,-432.5"/>
<text text-anchor="start" x="235" y="-443.9" font-family="Arial" font-size="14.00" fill="#000000">id </text>
<text text-anchor="start" x="249.7798" y="-443.9" font-family="Arial" font-size="14.00" fill="#666666">[char(36)]</text>
<polygon fill="none" stroke="#000000" points="228,-402.5 228,-432.5 399,-432.5 399,-402.5 228,-402.5"/>
<text text-anchor="start" x="235" y="-413.9" font-family="Arial" font-size="14.00" fill="#000000">name </text>
<text text-anchor="start" x="273.899" y="-413.9" font-family="Arial" font-size="14.00" fill="#666666">[text]</text>
<polygon fill="none" stroke="#000000" points="228,-372.5 228,-402.5 399,-402.5 399,-372.5 228,-372.5"/>
<text text-anchor="start" x="235" y="-383.9" font-family="Arial" font-size="14.00" fill="#000000">mime </text>
<text text-anchor="start" x="273.101" y="-383.9" font-family="Arial" font-size="14.00" fill="#666666">[text]</text>
<polygon fill="none" stroke="#000000" points="228,-342.5 228,-372.5 399,-372.5 399,-342.5 228,-342.5"/>
<text text-anchor="start" x="235" y="-353.9" font-family="Arial" font-size="14.00" fill="#000000">size </text>
<text text-anchor="start" x="263.7798" y="-353.9" font-family="Arial" font-size="14.00" fill="#666666">[bigint(20)]</text>
<polygon fill="none" stroke="#000000" points="228,-312.5 228,-342.5 399,-342.5 399,-312.5 228,-312.5"/>
<text text-anchor="start" x="235" y="-323.9" font-family="Arial" font-size="14.00" fill="#000000">creator_id </text>
<text text-anchor="start" x="301.122" y="-323.9" font-family="Arial" font-size="14.00" fill="#666666">[char(36)]</text>
<polygon fill="none" stroke="#000000" points="228,-282.5 228,-312.5 399,-312.5 399,-282.5 228,-282.5"/>
<text text-anchor="start" x="235" y="-293.9" font-family="Arial" font-size="14.00" fill="#000000">hash </text>
<text text-anchor="start" x="269.2384" y="-293.9" font-family="Arial" font-size="14.00" fill="#666666">[char(32)]</text>
<polygon fill="none" stroke="#000000" points="228,-252.5 228,-282.5 399,-282.5 399,-252.5 228,-252.5"/>
<text text-anchor="start" x="235" y="-263.9" font-family="Arial" font-size="14.00" fill="#000000">type </text>
<text text-anchor="start" x="265.3464" y="-263.9" font-family="Arial" font-size="14.00" fill="#666666">[varchar(30)]</text>
<polygon fill="none" stroke="#000000" points="228,-222.5 228,-252.5 399,-252.5 399,-222.5 228,-222.5"/>
<text text-anchor="start" x="235" y="-233.9" font-family="Arial" font-size="14.00" fill="#000000">has_thumbnail </text>
<text text-anchor="start" x="329.9158" y="-233.9" font-family="Arial" font-size="14.00" fill="#666666">[tinyint(1)]</text>
<polygon fill="none" stroke="#000000" points="228,-192.5 228,-222.5 399,-222.5 399,-192.5 228,-192.5"/>
<text text-anchor="start" x="235" y="-203.9" font-family="Arial" font-size="14.00" fill="#000000">thumbnail_mime </text>
<text text-anchor="start" x="341.561" y="-203.9" font-family="Arial" font-size="14.00" fill="#666666">[text]</text>
<polygon fill="none" stroke="#000000" points="228,-162.5 228,-192.5 399,-192.5 399,-162.5 228,-162.5"/>
<text text-anchor="start" x="235" y="-173.9" font-family="Arial" font-size="14.00" fill="#000000">thumbnail_width </text>
<text text-anchor="start" x="340.0196" y="-173.9" font-family="Arial" font-size="14.00" fill="#666666">[int(11)]</text>
<polygon fill="none" stroke="#000000" points="228,-132.5 228,-162.5 399,-162.5 399,-132.5 228,-132.5"/>
<text text-anchor="start" x="234.5372" y="-143.9" font-family="Arial" font-size="14.00" fill="#000000">thumbnail_height </text>
<text text-anchor="start" x="345.0154" y="-143.9" font-family="Arial" font-size="14.00" fill="#666666">[int(11)]</text>
<polygon fill="none" stroke="#000000" points="228,-102.5 228,-132.5 399,-132.5 399,-102.5 228,-102.5"/>
<text text-anchor="start" x="235" y="-113.9" font-family="Arial" font-size="14.00" fill="#000000">channel_id </text>
<text text-anchor="start" x="306.582" y="-113.9" font-family="Arial" font-size="14.00" fill="#666666">[char(36)]</text>
<polygon fill="none" stroke="#000000" points="228,-72.5 228,-102.5 399,-102.5 399,-72.5 228,-72.5"/>
<text text-anchor="start" x="235" y="-83.9" font-family="Arial" font-size="14.00" fill="#000000">created_at </text>
<text text-anchor="start" x="305.028" y="-83.9" font-family="Arial" font-size="14.00" fill="#666666">[datetime(6)]</text>
<polygon fill="none" stroke="#000000" points="228,-42.5 228,-72.5 399,-72.5 399,-42.5 228,-42.5"/>
<text text-anchor="start" x="235" y="-53.9" font-family="Arial" font-size="14.00" fill="#000000">deleted_at </text>
<text text-anchor="start" x="304.2566" y="-53.9" font-family="Arial" font-size="14.00" fill="#666666">[datetime(6)]</text>
</g>
<!-- files_acl&#45;&gt;files -->
<g id="edge1" class="edge">
<title>files_acl:file_id&#45;&gt;files:id</title>
<path fill="none" stroke="#000000" d="M216.0258,-696.4303C175.212,-686.8806 194.5175,-615.7081 226,-577 275.5546,-516.0719 349.4454,-601.9281 399,-541 425.2207,-508.7612 440.5556,-447.5 399,-447.5"/>
<polygon fill="#000000" stroke="#000000" points="216.057,-696.4336 225.5201,-701.9743 221.0285,-696.9668 226,-697.5 226,-697.5 226,-697.5 221.0285,-696.9668 226.4799,-693.0257 216.057,-696.4336 216.057,-696.4336"/>
<text text-anchor="start" x="6.616" y="-707.5" font-family="Arial" font-size="10.00" fill="#000000">FOREIGN KEY (file_id) REFERENCES files (id)</text>
</g>
</g>
</svg>
