<?xml version="1.0" encoding="UTF-8" standalone="no"?>
<!DOCTYPE svg PUBLIC "-//W3C//DTD SVG 1.1//EN"
        "http://www.w3.org/Graphics/SVG/1.1/DTD/svg11.dtd">
<!-- Generated by graphviz version 2.40.1 (20161225.0304)
 -->
<!-- Title: files Pages: 1 -->
<svg width="455pt" height="860pt"
     viewBox="0.00 0.00 454.50 860.00" xmlns="http://www.w3.org/2000/svg">
    <g id="graph0" class="graph" transform="scale(1 1) rotate(0) translate(4 856)">
        <title>files</title>
        <polygon fill="#ffffff" stroke="transparent" points="-4,4 -4,-856 450.5,-856 450.5,4 -4,4"/>
        <!-- files -->
        <g id="node1" class="node">
            <title>files</title>
            <polygon fill="#efefef" stroke="transparent" points="228,-406 228,-440 401,-440 401,-406 228,-406"/>
            <polygon fill="none" stroke="#000000" points="228,-406 228,-440 401,-440 401,-406 228,-406"/>
            <text text-anchor="start" x="248.5063" y="-419.6" font-family="Arial Bold" font-size="18.00" fill="#000000">
                files
            </text>
            <text text-anchor="start" x="284.5239" y="-419.6" font-family="Arial" font-size="14.00"
                  fill="#000000"></text>
            <text text-anchor="start" x="288.4136" y="-419.6" font-family="Arial" font-size="14.00" fill="#666666">[BASE
                TABLE]
            </text>
            <polygon fill="none" stroke="#000000" points="228,-376 228,-406 401,-406 401,-376 228,-376"/>
            <text text-anchor="start" x="235" y="-388.8" font-family="Arial" font-size="14.00" fill="#000000">id</text>
            <text text-anchor="start" x="249.7861" y="-388.8" font-family="Arial" font-size="14.00" fill="#666666">
                [char(36)]
            </text>
            <polygon fill="none" stroke="#000000" points="228,-346 228,-376 401,-376 401,-346 228,-346"/>
            <text text-anchor="start" x="235" y="-358.8" font-family="Arial" font-size="14.00" fill="#000000">name
            </text>
            <text text-anchor="start" x="273.9102" y="-358.8" font-family="Arial" font-size="14.00" fill="#666666">
                [text]
            </text>
            <polygon fill="none" stroke="#000000" points="228,-316 228,-346 401,-346 401,-316 228,-316"/>
            <text text-anchor="start" x="235" y="-328.8" font-family="Arial" font-size="14.00" fill="#000000">mime
            </text>
            <text text-anchor="start" x="273.1104" y="-328.8" font-family="Arial" font-size="14.00" fill="#666666">
                [text]
            </text>
            <polygon fill="none" stroke="#000000" points="228,-286 228,-316 401,-316 401,-286 228,-286"/>
            <text text-anchor="start" x="235" y="-298.8" font-family="Arial" font-size="14.00" fill="#000000">size
            </text>
            <text text-anchor="start" x="263.7861" y="-298.8" font-family="Arial" font-size="14.00" fill="#666666">
                [bigint(20)]
            </text>
            <polygon fill="none" stroke="#000000" points="228,-256 228,-286 401,-286 401,-256 228,-256"/>
            <text text-anchor="start" x="235" y="-268.8" font-family="Arial" font-size="14.00" fill="#000000">
                creator_id
            </text>
            <text text-anchor="start" x="301.1445" y="-268.8" font-family="Arial" font-size="14.00" fill="#666666">
                [char(36)]
            </text>
            <polygon fill="none" stroke="#000000" points="228,-226 228,-256 401,-256 401,-226 228,-226"/>
            <text text-anchor="start" x="235" y="-238.8" font-family="Arial" font-size="14.00" fill="#000000">hash
            </text>
            <text text-anchor="start" x="269.248" y="-238.8" font-family="Arial" font-size="14.00" fill="#666666">
                [char(32)]
            </text>
            <polygon fill="none" stroke="#000000" points="228,-196 228,-226 401,-226 401,-196 228,-196"/>
            <text text-anchor="start" x="235" y="-208.8" font-family="Arial" font-size="14.00" fill="#000000">type
            </text>
            <text text-anchor="start" x="265.3516" y="-208.8" font-family="Arial" font-size="14.00" fill="#666666">
                [varchar(30)]
            </text>
            <polygon fill="none" stroke="#000000" points="228,-166 228,-196 401,-196 401,-166 228,-166"/>
            <text text-anchor="start" x="235" y="-178.8" font-family="Arial" font-size="14.00" fill="#000000">
                has_thumbnail
            </text>
            <text text-anchor="start" x="329.9512" y="-178.8" font-family="Arial" font-size="14.00" fill="#666666">
                [tinyint(1)]
            </text>
            <polygon fill="none" stroke="#000000" points="228,-136 228,-166 401,-166 401,-136 228,-136"/>
            <text text-anchor="start" x="235" y="-148.8" font-family="Arial" font-size="14.00" fill="#000000">
                thumbnail_width
            </text>
            <text text-anchor="start" x="340.0615" y="-148.8" font-family="Arial" font-size="14.00" fill="#666666">
                [int(11)]
            </text>
            <polygon fill="none" stroke="#000000" points="228,-106 228,-136 401,-136 401,-106 228,-106"/>
            <text text-anchor="start" x="235" y="-118.8" font-family="Arial" font-size="14.00" fill="#000000">
                thumbnail_height
            </text>
            <text text-anchor="start" x="345.5234" y="-118.8" font-family="Arial" font-size="14.00" fill="#666666">
                [int(11)]
            </text>
            <polygon fill="none" stroke="#000000" points="228,-76 228,-106 401,-106 401,-76 228,-76"/>
            <text text-anchor="start" x="234.7451" y="-88.8" font-family="Arial" font-size="14.00" fill="#000000">
                created_at
            </text>
            <text text-anchor="start" x="304.793" y="-88.8" font-family="Arial" font-size="14.00" fill="#666666">
                [timestamp(6)]
            </text>
            <polygon fill="none" stroke="#000000" points="228,-46 228,-76 401,-76 401,-46 228,-46"/>
            <text text-anchor="start" x="235" y="-58.8" font-family="Arial" font-size="14.00" fill="#000000">
                deleted_at
            </text>
            <text text-anchor="start" x="304.2822" y="-58.8" font-family="Arial" font-size="14.00" fill="#666666">
                [timestamp(6)]
            </text>
            <polygon fill="none" stroke="#000000" stroke-width="3"
                     points="226,-44.5 226,-441.5 402,-441.5 402,-44.5 226,-44.5"/>
        </g>
        <!-- stamps -->
        <g id="node2" class="node">
            <title>stamps</title>
            <polygon fill="#efefef" stroke="transparent" points="226,-775 226,-809 403,-809 403,-775 226,-775"/>
            <polygon fill="none" stroke="#000000" points="226,-775 226,-809 403,-809 403,-775 226,-775"/>
            <text text-anchor="start" x="235.002" y="-788.6" font-family="Arial Bold" font-size="18.00" fill="#000000">
                stamps
            </text>
            <text text-anchor="start" x="298.0283" y="-788.6" font-family="Arial" font-size="14.00"
                  fill="#000000"></text>
            <text text-anchor="start" x="301.918" y="-788.6" font-family="Arial" font-size="14.00" fill="#666666">[BASE
                TABLE]
            </text>
            <polygon fill="none" stroke="#000000" points="226,-745 226,-775 403,-775 403,-745 226,-745"/>
            <text text-anchor="start" x="233" y="-757.8" font-family="Arial" font-size="14.00" fill="#000000">id</text>
            <text text-anchor="start" x="247.7861" y="-757.8" font-family="Arial" font-size="14.00" fill="#666666">
                [char(36)]
            </text>
            <polygon fill="none" stroke="#000000" points="226,-715 226,-745 403,-745 403,-715 226,-715"/>
            <text text-anchor="start" x="233" y="-727.8" font-family="Arial" font-size="14.00" fill="#000000">name
            </text>
            <text text-anchor="start" x="271.9102" y="-727.8" font-family="Arial" font-size="14.00" fill="#666666">
                [varchar(32)]
            </text>
            <polygon fill="none" stroke="#000000" points="226,-685 226,-715 403,-715 403,-685 226,-685"/>
            <text text-anchor="start" x="233" y="-697.8" font-family="Arial" font-size="14.00" fill="#000000">
                creator_id
            </text>
            <text text-anchor="start" x="299.1445" y="-697.8" font-family="Arial" font-size="14.00" fill="#666666">
                [char(36)]
            </text>
            <polygon fill="none" stroke="#000000" points="226,-655 226,-685 403,-685 403,-655 226,-655"/>
            <text text-anchor="start" x="233" y="-667.8" font-family="Arial" font-size="14.00" fill="#000000">file_id
            </text>
            <text text-anchor="start" x="273.4688" y="-667.8" font-family="Arial" font-size="14.00" fill="#666666">
                [char(36)]
            </text>
            <polygon fill="none" stroke="#000000" points="226,-625 226,-655 403,-655 403,-625 226,-625"/>
            <text text-anchor="start" x="233" y="-637.8" font-family="Arial" font-size="14.00" fill="#000000">
                created_at
            </text>
            <text text-anchor="start" x="303.0479" y="-637.8" font-family="Arial" font-size="14.00" fill="#666666">
                [timestamp(6)]
            </text>
            <polygon fill="none" stroke="#000000" points="226,-595 226,-625 403,-625 403,-595 226,-595"/>
            <text text-anchor="start" x="232.79" y="-607.8" font-family="Arial" font-size="14.00" fill="#000000">
                updated_at
            </text>
            <text text-anchor="start" x="306.748" y="-607.8" font-family="Arial" font-size="14.00" fill="#666666">
                [timestamp(6)]
            </text>
            <polygon fill="none" stroke="#000000" points="226,-565 226,-595 403,-595 403,-565 226,-565"/>
            <text text-anchor="start" x="233" y="-577.8" font-family="Arial" font-size="14.00" fill="#000000">
                deleted_at
            </text>
            <text text-anchor="start" x="302.2822" y="-577.8" font-family="Arial" font-size="14.00" fill="#666666">
                [timestamp(6)]
            </text>
        </g>
        <!-- stamps&#45;&gt;files -->
        <g id="edge1" class="edge">
            <title>stamps:file_id&#45;&gt;files:id</title>
            <path fill="none" stroke="#000000" d="M216.0798,-667.4162C164.4175,-639.2896 169.5102,-391 228,-391"/>
            <polygon fill="#000000" stroke="#000000"
                     points="216.3229,-667.4794 224.8657,-674.3547 221.1614,-668.7397 226,-670 226,-670 226,-670 221.1614,-668.7397 227.1343,-665.6453 216.3229,-667.4794 216.3229,-667.4794"/>
            <text text-anchor="start" x="6.6816" y="-679.5" font-family="Arial" font-size="10.00" fill="#000000">FOREIGN
                KEY (file_id) REFERENCES files (id)
            </text>
        </g>
    </g>
</svg>
