<?xml version="1.0" encoding="UTF-8" standalone="no"?>
<!DOCTYPE svg PUBLIC "-//W3C//DTD SVG 1.1//EN"
 "http://www.w3.org/Graphics/SVG/1.1/DTD/svg11.dtd">
<!-- Generated by graphviz version 2.40.1 (20161225.0304)
 -->
<!-- Title: messages Pages: 1 -->
<svg width="1354pt" height="1199pt"
 viewBox="0.00 0.00 1353.50 1199.00" xmlns="http://www.w3.org/2000/svg" xmlns:xlink="http://www.w3.org/1999/xlink">
<g id="graph0" class="graph" transform="scale(1 1) rotate(0) translate(4 1195)">
<title>messages</title>
<polygon fill="#ffffff" stroke="transparent" points="-4,4 -4,-1195 1349.5,-1195 1349.5,4 -4,4"/>
<!-- messages -->
<g id="node1" class="node">
<title>messages</title>
<polygon fill="#efefef" stroke="transparent" points="623.5,-772.5 623.5,-807.5 816.5,-807.5 816.5,-772.5 623.5,-772.5"/>
<polygon fill="none" stroke="#000000" points="623.5,-772.5 623.5,-807.5 816.5,-807.5 816.5,-772.5 623.5,-772.5"/>
<text text-anchor="start" x="630.3646" y="-785.3" font-family="Arial Bold" font-size="18.00" fill="#000000">messages</text>
<text text-anchor="start" x="712.3816" y="-785.3" font-family="Arial" font-size="14.00" fill="#000000"> </text>
<text text-anchor="start" x="716.2722" y="-785.3" font-family="Arial" font-size="14.00" fill="#666666">[BASE TABLE]</text>
<polygon fill="none" stroke="#000000" points="623.5,-742.5 623.5,-772.5 816.5,-772.5 816.5,-742.5 623.5,-742.5"/>
<text text-anchor="start" x="630.5" y="-753.9" font-family="Arial" font-size="14.00" fill="#000000">id </text>
<text text-anchor="start" x="645.2798" y="-753.9" font-family="Arial" font-size="14.00" fill="#666666">[char(36)]</text>
<polygon fill="none" stroke="#000000" points="623.5,-712.5 623.5,-742.5 816.5,-742.5 816.5,-712.5 623.5,-712.5"/>
<text text-anchor="start" x="630.5" y="-723.9" font-family="Arial" font-size="14.00" fill="#000000">user_id </text>
<text text-anchor="start" x="680.2882" y="-723.9" font-family="Arial" font-size="14.00" fill="#666666">[char(36)]</text>
<polygon fill="none" stroke="#000000" points="623.5,-682.5 623.5,-712.5 816.5,-712.5 816.5,-682.5 623.5,-682.5"/>
<text text-anchor="start" x="630.5" y="-693.9" font-family="Arial" font-size="14.00" fill="#000000">channel_id </text>
<text text-anchor="start" x="702.082" y="-693.9" font-family="Arial" font-size="14.00" fill="#666666">[char(36)]</text>
<polygon fill="none" stroke="#000000" points="623.5,-652.5 623.5,-682.5 816.5,-682.5 816.5,-652.5 623.5,-652.5"/>
<text text-anchor="start" x="630.5" y="-663.9" font-family="Arial" font-size="14.00" fill="#000000">text </text>
<text text-anchor="start" x="656.9544" y="-663.9" font-family="Arial" font-size="14.00" fill="#666666">[text]</text>
<polygon fill="none" stroke="#000000" points="623.5,-622.5 623.5,-652.5 816.5,-652.5 816.5,-622.5 623.5,-622.5"/>
<text text-anchor="start" x="630.5" y="-633.9" font-family="Arial" font-size="14.00" fill="#000000">created_at </text>
<text text-anchor="start" x="700.528" y="-633.9" font-family="Arial" font-size="14.00" fill="#666666">[datetime(6)]</text>
<polygon fill="none" stroke="#000000" points="623.5,-592.5 623.5,-622.5 816.5,-622.5 816.5,-592.5 623.5,-592.5"/>
<text text-anchor="start" x="630.5" y="-603.9" font-family="Arial" font-size="14.00" fill="#000000">updated_at </text>
<text text-anchor="start" x="704.4326" y="-603.9" font-family="Arial" font-size="14.00" fill="#666666">[datetime(6)]</text>
<polygon fill="none" stroke="#000000" points="623.5,-562.5 623.5,-592.5 816.5,-592.5 816.5,-562.5 623.5,-562.5"/>
<text text-anchor="start" x="630.5" y="-573.9" font-family="Arial" font-size="14.00" fill="#000000">deleted_at </text>
<text text-anchor="start" x="699.7566" y="-573.9" font-family="Arial" font-size="14.00" fill="#666666">[datetime(6)]</text>
<polygon fill="none" stroke="#000000" stroke-width="3" points="621.5,-561.5 621.5,-809.5 817.5,-809.5 817.5,-561.5 621.5,-561.5"/>
</g>
<!-- users -->
<g id="node6" class="node">
<title>users</title>
<polygon fill="#efefef" stroke="transparent" points="485.5,-387.5 485.5,-422.5 668.5,-422.5 668.5,-387.5 485.5,-387.5"/>
<polygon fill="none" stroke="#000000" points="485.5,-387.5 485.5,-422.5 668.5,-422.5 668.5,-387.5 485.5,-387.5"/>
<text text-anchor="start" x="506.3708" y="-400.3" font-family="Arial Bold" font-size="18.00" fill="#000000">users</text>
<text text-anchor="start" x="550.3754" y="-400.3" font-family="Arial" font-size="14.00" fill="#000000"> </text>
<text text-anchor="start" x="554.266" y="-400.3" font-family="Arial" font-size="14.00" fill="#666666">[BASE TABLE]</text>
<polygon fill="none" stroke="#000000" points="485.5,-357.5 485.5,-387.5 668.5,-387.5 668.5,-357.5 485.5,-357.5"/>
<text text-anchor="start" x="492.5" y="-368.9" font-family="Arial" font-size="14.00" fill="#000000">id </text>
<text text-anchor="start" x="507.2798" y="-368.9" font-family="Arial" font-size="14.00" fill="#666666">[char(36)]</text>
<polygon fill="none" stroke="#000000" points="485.5,-327.5 485.5,-357.5 668.5,-357.5 668.5,-327.5 485.5,-327.5"/>
<text text-anchor="start" x="492.5" y="-338.9" font-family="Arial" font-size="14.00" fill="#000000">name </text>
<text text-anchor="start" x="531.399" y="-338.9" font-family="Arial" font-size="14.00" fill="#666666">[varchar(32)]</text>
<polygon fill="none" stroke="#000000" points="485.5,-297.5 485.5,-327.5 668.5,-327.5 668.5,-297.5 485.5,-297.5"/>
<text text-anchor="start" x="492.2104" y="-308.9" font-family="Arial" font-size="14.00" fill="#000000">display_name </text>
<text text-anchor="start" x="582.453" y="-308.9" font-family="Arial" font-size="14.00" fill="#666666">[varchar(32)]</text>
<polygon fill="none" stroke="#000000" points="485.5,-267.5 485.5,-297.5 668.5,-297.5 668.5,-267.5 485.5,-267.5"/>
<text text-anchor="start" x="492.5" y="-278.9" font-family="Arial" font-size="14.00" fill="#000000">password </text>
<text text-anchor="start" x="556.2882" y="-278.9" font-family="Arial" font-size="14.00" fill="#666666">[char(128)]</text>
<polygon fill="none" stroke="#000000" points="485.5,-237.5 485.5,-267.5 668.5,-267.5 668.5,-237.5 485.5,-237.5"/>
<text text-anchor="start" x="492.5" y="-248.9" font-family="Arial" font-size="14.00" fill="#000000">salt </text>
<text text-anchor="start" x="518.1704" y="-248.9" font-family="Arial" font-size="14.00" fill="#666666">[char(128)]</text>
<polygon fill="none" stroke="#000000" points="485.5,-207.5 485.5,-237.5 668.5,-237.5 668.5,-207.5 485.5,-207.5"/>
<text text-anchor="start" x="492.5" y="-218.9" font-family="Arial" font-size="14.00" fill="#000000">icon </text>
<text text-anchor="start" x="522.0624" y="-218.9" font-family="Arial" font-size="14.00" fill="#666666">[char(36)]</text>
<polygon fill="none" stroke="#000000" points="485.5,-177.5 485.5,-207.5 668.5,-207.5 668.5,-177.5 485.5,-177.5"/>
<text text-anchor="start" x="492.5" y="-188.9" font-family="Arial" font-size="14.00" fill="#000000">status </text>
<text text-anchor="start" x="533.737" y="-188.9" font-family="Arial" font-size="14.00" fill="#666666">[tinyint(4)]</text>
<polygon fill="none" stroke="#000000" points="485.5,-147.5 485.5,-177.5 668.5,-177.5 668.5,-147.5 485.5,-147.5"/>
<text text-anchor="start" x="492.5" y="-158.9" font-family="Arial" font-size="14.00" fill="#000000">bot </text>
<text text-anchor="start" x="515.8464" y="-158.9" font-family="Arial" font-size="14.00" fill="#666666">[tinyint(1)]</text>
<polygon fill="none" stroke="#000000" points="485.5,-117.5 485.5,-147.5 668.5,-147.5 668.5,-117.5 485.5,-117.5"/>
<text text-anchor="start" x="492.5" y="-128.9" font-family="Arial" font-size="14.00" fill="#000000">role </text>
<text text-anchor="start" x="519.723" y="-128.9" font-family="Arial" font-size="14.00" fill="#666666">[varchar(30)]</text>
<polygon fill="none" stroke="#000000" points="485.5,-87.5 485.5,-117.5 668.5,-117.5 668.5,-87.5 485.5,-87.5"/>
<text text-anchor="start" x="492.5" y="-98.9" font-family="Arial" font-size="14.00" fill="#000000">created_at </text>
<text text-anchor="start" x="562.528" y="-98.9" font-family="Arial" font-size="14.00" fill="#666666">[datetime(6)]</text>
<polygon fill="none" stroke="#000000" points="485.5,-57.5 485.5,-87.5 668.5,-87.5 668.5,-57.5 485.5,-57.5"/>
<text text-anchor="start" x="492.5" y="-68.9" font-family="Arial" font-size="14.00" fill="#000000">updated_at </text>
<text text-anchor="start" x="566.4326" y="-68.9" font-family="Arial" font-size="14.00" fill="#666666">[datetime(6)]</text>
</g>
<!-- messages&#45;&gt;users -->
<g id="edge5" class="edge">
<title>messages:user_id&#45;&gt;users:id</title>
<path fill="none" stroke="#000000" d="M613.2307,-726.9464C534.6267,-717.9455 591.7049,-601.0908 623.5,-517 634.1909,-488.7249 657.8091,-494.2751 668.5,-466 683.1969,-427.1301 710.0556,-372.5 668.5,-372.5"/>
<polygon fill="#000000" stroke="#000000" points="613.5145,-726.9616 623.2577,-731.9935 618.5072,-727.2308 623.5,-727.5 623.5,-727.5 623.5,-727.5 618.5072,-727.2308 623.7423,-723.0065 613.5145,-726.9616 613.5145,-726.9616"/>
<text text-anchor="start" x="390.445" y="-737.5" font-family="Arial" font-size="10.00" fill="#000000">FOREIGN KEY (user_id) REFERENCES users (id)</text>
</g>
<!-- channels -->
<g id="node7" class="node">
<title>channels</title>
<polygon fill="#efefef" stroke="transparent" points="772.5,-402.5 772.5,-437.5 955.5,-437.5 955.5,-402.5 772.5,-402.5"/>
<polygon fill="none" stroke="#000000" points="772.5,-402.5 772.5,-437.5 955.5,-437.5 955.5,-402.5 772.5,-402.5"/>
<text text-anchor="start" x="779.3605" y="-415.3" font-family="Arial Bold" font-size="18.00" fill="#000000">channels</text>
<text text-anchor="start" x="851.3857" y="-415.3" font-family="Arial" font-size="14.00" fill="#000000"> </text>
<text text-anchor="start" x="855.2763" y="-415.3" font-family="Arial" font-size="14.00" fill="#666666">[BASE TABLE]</text>
<polygon fill="none" stroke="#000000" points="772.5,-372.5 772.5,-402.5 955.5,-402.5 955.5,-372.5 772.5,-372.5"/>
<text text-anchor="start" x="779.5" y="-383.9" font-family="Arial" font-size="14.00" fill="#000000">id </text>
<text text-anchor="start" x="794.2798" y="-383.9" font-family="Arial" font-size="14.00" fill="#666666">[char(36)]</text>
<polygon fill="none" stroke="#000000" points="772.5,-342.5 772.5,-372.5 955.5,-372.5 955.5,-342.5 772.5,-342.5"/>
<text text-anchor="start" x="779.5" y="-353.9" font-family="Arial" font-size="14.00" fill="#000000">name </text>
<text text-anchor="start" x="818.399" y="-353.9" font-family="Arial" font-size="14.00" fill="#666666">[varchar(20)]</text>
<polygon fill="none" stroke="#000000" points="772.5,-312.5 772.5,-342.5 955.5,-342.5 955.5,-312.5 772.5,-312.5"/>
<text text-anchor="start" x="779.5" y="-323.9" font-family="Arial" font-size="14.00" fill="#000000">parent_id </text>
<text text-anchor="start" x="841.744" y="-323.9" font-family="Arial" font-size="14.00" fill="#666666">[char(36)]</text>
<polygon fill="none" stroke="#000000" points="772.5,-282.5 772.5,-312.5 955.5,-312.5 955.5,-282.5 772.5,-282.5"/>
<text text-anchor="start" x="779.5" y="-293.9" font-family="Arial" font-size="14.00" fill="#000000">topic </text>
<text text-anchor="start" x="812.953" y="-293.9" font-family="Arial" font-size="14.00" fill="#666666">[text]</text>
<polygon fill="none" stroke="#000000" points="772.5,-252.5 772.5,-282.5 955.5,-282.5 955.5,-252.5 772.5,-252.5"/>
<text text-anchor="start" x="779.5" y="-263.9" font-family="Arial" font-size="14.00" fill="#000000">is_forced </text>
<text text-anchor="start" x="840.1788" y="-263.9" font-family="Arial" font-size="14.00" fill="#666666">[tinyint(1)]</text>
<polygon fill="none" stroke="#000000" points="772.5,-222.5 772.5,-252.5 955.5,-252.5 955.5,-222.5 772.5,-222.5"/>
<text text-anchor="start" x="779.5" y="-233.9" font-family="Arial" font-size="14.00" fill="#000000">is_public </text>
<text text-anchor="start" x="837.8408" y="-233.9" font-family="Arial" font-size="14.00" fill="#666666">[tinyint(1)]</text>
<polygon fill="none" stroke="#000000" points="772.5,-192.5 772.5,-222.5 955.5,-222.5 955.5,-192.5 772.5,-192.5"/>
<text text-anchor="start" x="779.5" y="-203.9" font-family="Arial" font-size="14.00" fill="#000000">is_visible </text>
<text text-anchor="start" x="840.1648" y="-203.9" font-family="Arial" font-size="14.00" fill="#666666">[tinyint(1)]</text>
<polygon fill="none" stroke="#000000" points="772.5,-162.5 772.5,-192.5 955.5,-192.5 955.5,-162.5 772.5,-162.5"/>
<text text-anchor="start" x="779.5" y="-173.9" font-family="Arial" font-size="14.00" fill="#000000">creator_id </text>
<text text-anchor="start" x="845.622" y="-173.9" font-family="Arial" font-size="14.00" fill="#666666">[char(36)]</text>
<polygon fill="none" stroke="#000000" points="772.5,-132.5 772.5,-162.5 955.5,-162.5 955.5,-132.5 772.5,-132.5"/>
<text text-anchor="start" x="779.5" y="-143.9" font-family="Arial" font-size="14.00" fill="#000000">updater_id </text>
<text text-anchor="start" x="849.5266" y="-143.9" font-family="Arial" font-size="14.00" fill="#666666">[char(36)]</text>
<polygon fill="none" stroke="#000000" points="772.5,-102.5 772.5,-132.5 955.5,-132.5 955.5,-102.5 772.5,-102.5"/>
<text text-anchor="start" x="779.5" y="-113.9" font-family="Arial" font-size="14.00" fill="#000000">created_at </text>
<text text-anchor="start" x="849.528" y="-113.9" font-family="Arial" font-size="14.00" fill="#666666">[datetime(6)]</text>
<polygon fill="none" stroke="#000000" points="772.5,-72.5 772.5,-102.5 955.5,-102.5 955.5,-72.5 772.5,-72.5"/>
<text text-anchor="start" x="779.5" y="-83.9" font-family="Arial" font-size="14.00" fill="#000000">updated_at </text>
<text text-anchor="start" x="853.4326" y="-83.9" font-family="Arial" font-size="14.00" fill="#666666">[datetime(6)]</text>
<polygon fill="none" stroke="#000000" points="772.5,-42.5 772.5,-72.5 955.5,-72.5 955.5,-42.5 772.5,-42.5"/>
<text text-anchor="start" x="779.5" y="-53.9" font-family="Arial" font-size="14.00" fill="#000000">deleted_at </text>
<text text-anchor="start" x="848.7566" y="-53.9" font-family="Arial" font-size="14.00" fill="#666666">[datetime(6)]</text>
</g>
<!-- messages&#45;&gt;channels -->
<g id="edge6" class="edge">
<title>messages:channel_id&#45;&gt;channels:id</title>
<path fill="none" stroke="#000000" d="M826.5603,-696.8592C892.6244,-687.868 849.3104,-586.2378 816.5,-517 805.6799,-494.167 783.3201,-503.833 772.5,-481 754.7047,-443.4475 730.9444,-387.5 772.5,-387.5"/>
<polygon fill="#000000" stroke="#000000" points="826.4798,-696.8642 816.2139,-693.0091 821.4899,-697.1821 816.5,-697.5 816.5,-697.5 816.5,-697.5 821.4899,-697.1821 816.7861,-701.9909 826.4798,-696.8642 826.4798,-696.8642"/>
<text text-anchor="start" x="823.878" y="-707.5" font-family="Arial" font-size="10.00" fill="#000000">FOREIGN KEY (channel_id) REFERENCES channels (id)</text>
</g>
<!-- clip_folder_messages -->
<g id="node2" class="node">
<title>clip_folder_messages</title>
<polygon fill="#efefef" stroke="transparent" points="43.5,-1067.5 43.5,-1102.5 328.5,-1102.5 328.5,-1067.5 43.5,-1067.5"/>
<polygon fill="none" stroke="#000000" points="43.5,-1067.5 43.5,-1102.5 328.5,-1102.5 328.5,-1067.5 43.5,-1067.5"/>
<text text-anchor="start" x="50.3575" y="-1080.3" font-family="Arial Bold" font-size="18.00" fill="#000000">clip_folder_messages</text>
<text text-anchor="start" x="224.3887" y="-1080.3" font-family="Arial" font-size="14.00" fill="#000000"> </text>
<text text-anchor="start" x="228.2793" y="-1080.3" font-family="Arial" font-size="14.00" fill="#666666">[BASE TABLE]</text>
<polygon fill="none" stroke="#000000" points="43.5,-1037.5 43.5,-1067.5 328.5,-1067.5 328.5,-1037.5 43.5,-1037.5"/>
<text text-anchor="start" x="50.5" y="-1048.9" font-family="Arial" font-size="14.00" fill="#000000">folder_id </text>
<text text-anchor="start" x="108.068" y="-1048.9" font-family="Arial" font-size="14.00" fill="#666666">[char(36)]</text>
<polygon fill="none" stroke="#000000" points="43.5,-1007.5 43.5,-1037.5 328.5,-1037.5 328.5,-1007.5 43.5,-1007.5"/>
<text text-anchor="start" x="50.5" y="-1018.9" font-family="Arial" font-size="14.00" fill="#000000">message_id </text>
<text text-anchor="start" x="129.8534" y="-1018.9" font-family="Arial" font-size="14.00" fill="#666666">[char(36)]</text>
<polygon fill="none" stroke="#000000" points="43.5,-977.5 43.5,-1007.5 328.5,-1007.5 328.5,-977.5 43.5,-977.5"/>
<text text-anchor="start" x="50.5" y="-988.9" font-family="Arial" font-size="14.00" fill="#000000">created_at </text>
<text text-anchor="start" x="120.528" y="-988.9" font-family="Arial" font-size="14.00" fill="#666666">[datetime(6)]</text>
</g>
<!-- clip_folder_messages&#45;&gt;messages -->
<g id="edge1" class="edge">
<title>clip_folder_messages:message_id&#45;&gt;messages:id</title>
<path fill="none" stroke="#000000" d="M338.7239,-1021.5916C385.4442,-1012.3358 340.3951,-934.5525 379.5,-890 460.904,-797.2558 500.0978,-757.5 623.5,-757.5"/>
<polygon fill="#000000" stroke="#000000" points="338.4608,-1021.6149 328.1017,-1018.0177 333.4804,-1022.0574 328.5,-1022.5 328.5,-1022.5 328.5,-1022.5 333.4804,-1022.0574 328.8983,-1026.9823 338.4608,-1021.6149 338.4608,-1021.6149"/>
<text text-anchor="start" x="194.327" y="-1006.5" font-family="Arial" font-size="10.00" fill="#000000">FOREIGN KEY (message_id) REFERENCES messages (id)</text>
</g>
<!-- messages_stamps -->
<g id="node3" class="node">
<title>messages_stamps</title>
<polygon fill="#efefef" stroke="transparent" points="432.5,-1112.5 432.5,-1147.5 693.5,-1147.5 693.5,-1112.5 432.5,-1112.5"/>
<polygon fill="none" stroke="#000000" points="432.5,-1112.5 432.5,-1147.5 693.5,-1147.5 693.5,-1112.5 432.5,-1112.5"/>
<text text-anchor="start" x="439.3581" y="-1125.3" font-family="Arial Bold" font-size="18.00" fill="#000000">messages_stamps</text>
<text text-anchor="start" x="589.3881" y="-1125.3" font-family="Arial" font-size="14.00" fill="#000000"> </text>
<text text-anchor="start" x="593.2787" y="-1125.3" font-family="Arial" font-size="14.00" fill="#666666">[BASE TABLE]</text>
<polygon fill="none" stroke="#000000" points="432.5,-1082.5 432.5,-1112.5 693.5,-1112.5 693.5,-1082.5 432.5,-1082.5"/>
<text text-anchor="start" x="439.5" y="-1093.9" font-family="Arial" font-size="14.00" fill="#000000">message_id </text>
<text text-anchor="start" x="518.8534" y="-1093.9" font-family="Arial" font-size="14.00" fill="#666666">[char(36)]</text>
<polygon fill="none" stroke="#000000" points="432.5,-1052.5 432.5,-1082.5 693.5,-1082.5 693.5,-1052.5 432.5,-1052.5"/>
<text text-anchor="start" x="439.5" y="-1063.9" font-family="Arial" font-size="14.00" fill="#000000">stamp_id </text>
<text text-anchor="start" x="500.1788" y="-1063.9" font-family="Arial" font-size="14.00" fill="#666666">[char(36)]</text>
<polygon fill="none" stroke="#000000" points="432.5,-1022.5 432.5,-1052.5 693.5,-1052.5 693.5,-1022.5 432.5,-1022.5"/>
<text text-anchor="start" x="439.5" y="-1033.9" font-family="Arial" font-size="14.00" fill="#000000">user_id </text>
<text text-anchor="start" x="489.2882" y="-1033.9" font-family="Arial" font-size="14.00" fill="#666666">[char(36)]</text>
<polygon fill="none" stroke="#000000" points="432.5,-992.5 432.5,-1022.5 693.5,-1022.5 693.5,-992.5 432.5,-992.5"/>
<text text-anchor="start" x="439.5" y="-1003.9" font-family="Arial" font-size="14.00" fill="#000000">count </text>
<text text-anchor="start" x="477.629" y="-1003.9" font-family="Arial" font-size="14.00" fill="#666666">[bigint(20)]</text>
<polygon fill="none" stroke="#000000" points="432.5,-962.5 432.5,-992.5 693.5,-992.5 693.5,-962.5 432.5,-962.5"/>
<text text-anchor="start" x="439.5" y="-973.9" font-family="Arial" font-size="14.00" fill="#000000">created_at </text>
<text text-anchor="start" x="509.528" y="-973.9" font-family="Arial" font-size="14.00" fill="#666666">[datetime(6)]</text>
<polygon fill="none" stroke="#000000" points="432.5,-932.5 432.5,-962.5 693.5,-962.5 693.5,-932.5 432.5,-932.5"/>
<text text-anchor="start" x="439.5" y="-943.9" font-family="Arial" font-size="14.00" fill="#000000">updated_at </text>
<text text-anchor="start" x="513.4326" y="-943.9" font-family="Arial" font-size="14.00" fill="#666666">[datetime(6)]</text>
</g>
<!-- messages_stamps&#45;&gt;messages -->
<g id="edge2" class="edge">
<title>messages_stamps:message_id&#45;&gt;messages:id</title>
<path fill="none" stroke="#000000" d="M703.0901,-1094.5629C736.1474,-1072.0144 715.6423,-926.2864 693.5,-890 675.277,-860.1366 641.723,-883.8634 623.5,-854 601.1596,-817.389 580.6111,-757.5 623.5,-757.5"/>
<polygon fill="#000000" stroke="#000000" points="703.0616,-1094.5715 692.1822,-1093.1973 698.2808,-1096.0358 693.5,-1097.5 693.5,-1097.5 693.5,-1097.5 698.2808,-1096.0358 694.8178,-1101.8027 703.0616,-1094.5715 703.0616,-1094.5715"/>
<text text-anchor="start" x="700.327" y="-1107.5" font-family="Arial" font-size="10.00" fill="#000000">FOREIGN KEY (message_id) REFERENCES messages (id)</text>
</g>
<!-- pins -->
<g id="node4" class="node">
<title>pins</title>
<polygon fill="#efefef" stroke="transparent" points="797.5,-1082.5 797.5,-1117.5 959.5,-1117.5 959.5,-1082.5 797.5,-1082.5"/>
<polygon fill="none" stroke="#000000" points="797.5,-1082.5 797.5,-1117.5 959.5,-1117.5 959.5,-1082.5 797.5,-1082.5"/>
<text text-anchor="start" x="813.3698" y="-1095.3" font-family="Arial Bold" font-size="18.00" fill="#000000">pins</text>
<text text-anchor="start" x="846.3764" y="-1095.3" font-family="Arial" font-size="14.00" fill="#000000"> </text>
<text text-anchor="start" x="850.267" y="-1095.3" font-family="Arial" font-size="14.00" fill="#666666">[BASE TABLE]</text>
<polygon fill="none" stroke="#000000" points="797.5,-1052.5 797.5,-1082.5 959.5,-1082.5 959.5,-1052.5 797.5,-1052.5"/>
<text text-anchor="start" x="804.5" y="-1063.9" font-family="Arial" font-size="14.00" fill="#000000">id </text>
<text text-anchor="start" x="819.2798" y="-1063.9" font-family="Arial" font-size="14.00" fill="#666666">[char(36)]</text>
<polygon fill="none" stroke="#000000" points="797.5,-1022.5 797.5,-1052.5 959.5,-1052.5 959.5,-1022.5 797.5,-1022.5"/>
<text text-anchor="start" x="804.5" y="-1033.9" font-family="Arial" font-size="14.00" fill="#000000">message_id </text>
<text text-anchor="start" x="883.8534" y="-1033.9" font-family="Arial" font-size="14.00" fill="#666666">[char(36)]</text>
<polygon fill="none" stroke="#000000" points="797.5,-992.5 797.5,-1022.5 959.5,-1022.5 959.5,-992.5 797.5,-992.5"/>
<text text-anchor="start" x="804.5" y="-1003.9" font-family="Arial" font-size="14.00" fill="#000000">user_id </text>
<text text-anchor="start" x="854.2882" y="-1003.9" font-family="Arial" font-size="14.00" fill="#666666">[char(36)]</text>
<polygon fill="none" stroke="#000000" points="797.5,-962.5 797.5,-992.5 959.5,-992.5 959.5,-962.5 797.5,-962.5"/>
<text text-anchor="start" x="804.2041" y="-973.9" font-family="Arial" font-size="14.00" fill="#000000">created_at </text>
<text text-anchor="start" x="874.2321" y="-973.9" font-family="Arial" font-size="14.00" fill="#666666">[datetime(6)]</text>
</g>
<!-- pins&#45;&gt;messages -->
<g id="edge3" class="edge">
<title>pins:message_id&#45;&gt;messages:id</title>
<path fill="none" stroke="#000000" d="M787.2312,-1036.7457C688.6635,-1020.8035 937.4546,-757.5 816.5,-757.5"/>
<polygon fill="#000000" stroke="#000000" points="787.5269,-1036.7673 797.1703,-1041.9879 792.5134,-1037.1337 797.5,-1037.5 797.5,-1037.5 797.5,-1037.5 792.5134,-1037.1337 797.8297,-1033.0121 787.5269,-1036.7673 787.5269,-1036.7673"/>
<text text-anchor="start" x="804.327" y="-1047.5" font-family="Arial" font-size="10.00" fill="#000000">FOREIGN KEY (message_id) REFERENCES messages (id)</text>
</g>
<!-- unreads -->
<g id="node5" class="node">
<title>unreads</title>
<polygon fill="#efefef" stroke="transparent" points="1063.5,-1082.5 1063.5,-1117.5 1239.5,-1117.5 1239.5,-1082.5 1063.5,-1082.5"/>
<polygon fill="none" stroke="#000000" points="1063.5,-1082.5 1063.5,-1117.5 1239.5,-1117.5 1239.5,-1082.5 1063.5,-1082.5"/>
<text text-anchor="start" x="1070.3615" y="-1095.3" font-family="Arial Bold" font-size="18.00" fill="#000000">unreads</text>
<text text-anchor="start" x="1135.3847" y="-1095.3" font-family="Arial" font-size="14.00" fill="#000000"> </text>
<text text-anchor="start" x="1139.2753" y="-1095.3" font-family="Arial" font-size="14.00" fill="#666666">[BASE TABLE]</text>
<polygon fill="none" stroke="#000000" points="1063.5,-1052.5 1063.5,-1082.5 1239.5,-1082.5 1239.5,-1052.5 1063.5,-1052.5"/>
<text text-anchor="start" x="1070.5" y="-1063.9" font-family="Arial" font-size="14.00" fill="#000000">user_id </text>
<text text-anchor="start" x="1120.2882" y="-1063.9" font-family="Arial" font-size="14.00" fill="#666666">[char(36)]</text>
<polygon fill="none" stroke="#000000" points="1063.5,-1022.5 1063.5,-1052.5 1239.5,-1052.5 1239.5,-1022.5 1063.5,-1022.5"/>
<text text-anchor="start" x="1070.5" y="-1033.9" font-family="Arial" font-size="14.00" fill="#000000">message_id </text>
<text text-anchor="start" x="1149.8534" y="-1033.9" font-family="Arial" font-size="14.00" fill="#666666">[char(36)]</text>
<polygon fill="none" stroke="#000000" points="1063.5,-992.5 1063.5,-1022.5 1239.5,-1022.5 1239.5,-992.5 1063.5,-992.5"/>
<text text-anchor="start" x="1070.5" y="-1003.9" font-family="Arial" font-size="14.00" fill="#000000">noticeable </text>
<text text-anchor="start" x="1138.19" y="-1003.9" font-family="Arial" font-size="14.00" fill="#666666">[tinyint(1)]</text>
<polygon fill="none" stroke="#000000" points="1063.5,-962.5 1063.5,-992.5 1239.5,-992.5 1239.5,-962.5 1063.5,-962.5"/>
<text text-anchor="start" x="1070.5" y="-973.9" font-family="Arial" font-size="14.00" fill="#000000">created_at </text>
<text text-anchor="start" x="1140.528" y="-973.9" font-family="Arial" font-size="14.00" fill="#666666">[datetime(6)]</text>
</g>
<!-- unreads&#45;&gt;messages -->
<g id="edge4" class="edge">
<title>unreads:message_id&#45;&gt;messages:id</title>
<path fill="none" stroke="#000000" d="M1053.2195,-1036.6919C1000.2389,-1027.5015 1051.6028,-942.0519 1011.5,-890 947.551,-806.9967 921.2808,-757.5 816.5,-757.5"/>
<polygon fill="#000000" stroke="#000000" points="1053.5308,-1036.7163 1063.1473,-1041.9862 1058.5154,-1037.1081 1063.5,-1037.5 1063.5,-1037.5 1063.5,-1037.5 1058.5154,-1037.1081 1063.8527,-1033.0138 1053.5308,-1036.7163 1053.5308,-1036.7163"/>
<text text-anchor="start" x="1070.327" y="-1021.5" font-family="Arial" font-size="10.00" fill="#000000">FOREIGN KEY (message_id) REFERENCES messages (id)</text>
</g>
</g>
</svg>
