<?xml version="1.0" encoding="UTF-8" standalone="no"?>
<!DOCTYPE svg PUBLIC "-//W3C//DTD SVG 1.1//EN"
 "http://www.w3.org/Graphics/SVG/1.1/DTD/svg11.dtd">
<!-- Generated by graphviz version 2.40.1 (20161225.0304)
 -->
<!-- Title: messages_stamps Pages: 1 -->
<svg width="847pt" height="802pt"
 viewBox="0.00 0.00 847.00 802.00" xmlns="http://www.w3.org/2000/svg" xmlns:xlink="http://www.w3.org/1999/xlink">
<g id="graph0" class="graph" transform="scale(1 1) rotate(0) translate(4 798)">
<title>messages_stamps</title>
<polygon fill="#ffffff" stroke="transparent" points="-4,4 -4,-798 843,-798 843,4 -4,4"/>
<!-- messages_stamps -->
<g id="node1" class="node">
<title>messages_stamps</title>
<polygon fill="#efefef" stroke="transparent" points="294.5,-712.5 294.5,-747.5 555.5,-747.5 555.5,-712.5 294.5,-712.5"/>
<polygon fill="none" stroke="#000000" points="294.5,-712.5 294.5,-747.5 555.5,-747.5 555.5,-712.5 294.5,-712.5"/>
<text text-anchor="start" x="301.3581" y="-725.3" font-family="Arial Bold" font-size="18.00" fill="#000000">messages_stamps</text>
<text text-anchor="start" x="451.3881" y="-725.3" font-family="Arial" font-size="14.00" fill="#000000"> </text>
<text text-anchor="start" x="455.2787" y="-725.3" font-family="Arial" font-size="14.00" fill="#666666">[BASE TABLE]</text>
<polygon fill="none" stroke="#000000" points="294.5,-682.5 294.5,-712.5 555.5,-712.5 555.5,-682.5 294.5,-682.5"/>
<text text-anchor="start" x="301.5" y="-693.9" font-family="Arial" font-size="14.00" fill="#000000">message_id </text>
<text text-anchor="start" x="380.8534" y="-693.9" font-family="Arial" font-size="14.00" fill="#666666">[char(36)]</text>
<polygon fill="none" stroke="#000000" points="294.5,-652.5 294.5,-682.5 555.5,-682.5 555.5,-652.5 294.5,-652.5"/>
<text text-anchor="start" x="301.5" y="-663.9" font-family="Arial" font-size="14.00" fill="#000000">stamp_id </text>
<text text-anchor="start" x="362.1788" y="-663.9" font-family="Arial" font-size="14.00" fill="#666666">[char(36)]</text>
<polygon fill="none" stroke="#000000" points="294.5,-622.5 294.5,-652.5 555.5,-652.5 555.5,-622.5 294.5,-622.5"/>
<text text-anchor="start" x="301.5" y="-633.9" font-family="Arial" font-size="14.00" fill="#000000">user_id </text>
<text text-anchor="start" x="351.2882" y="-633.9" font-family="Arial" font-size="14.00" fill="#666666">[char(36)]</text>
<polygon fill="none" stroke="#000000" points="294.5,-592.5 294.5,-622.5 555.5,-622.5 555.5,-592.5 294.5,-592.5"/>
<text text-anchor="start" x="301.5" y="-603.9" font-family="Arial" font-size="14.00" fill="#000000">count </text>
<text text-anchor="start" x="339.629" y="-603.9" font-family="Arial" font-size="14.00" fill="#666666">[int(11)]</text>
<polygon fill="none" stroke="#000000" points="294.5,-562.5 294.5,-592.5 555.5,-592.5 555.5,-562.5 294.5,-562.5"/>
<text text-anchor="start" x="301.5" y="-573.9" font-family="Arial" font-size="14.00" fill="#000000">created_at </text>
<text text-anchor="start" x="371.528" y="-573.9" font-family="Arial" font-size="14.00" fill="#666666">[datetime(6)]</text>
<polygon fill="none" stroke="#000000" points="294.5,-532.5 294.5,-562.5 555.5,-562.5 555.5,-532.5 294.5,-532.5"/>
<text text-anchor="start" x="301.5" y="-543.9" font-family="Arial" font-size="14.00" fill="#000000">updated_at </text>
<text text-anchor="start" x="375.4326" y="-543.9" font-family="Arial" font-size="14.00" fill="#666666">[datetime(6)]</text>
<polygon fill="none" stroke="#000000" stroke-width="3" points="292.5,-531.5 292.5,-749.5 556.5,-749.5 556.5,-531.5 292.5,-531.5"/>
</g>
<!-- messages -->
<g id="node2" class="node">
<title>messages</title>
<polygon fill="#efefef" stroke="transparent" points="43.5,-312.5 43.5,-347.5 236.5,-347.5 236.5,-312.5 43.5,-312.5"/>
<polygon fill="none" stroke="#000000" points="43.5,-312.5 43.5,-347.5 236.5,-347.5 236.5,-312.5 43.5,-312.5"/>
<text text-anchor="start" x="50.3646" y="-325.3" font-family="Arial Bold" font-size="18.00" fill="#000000">messages</text>
<text text-anchor="start" x="132.3816" y="-325.3" font-family="Arial" font-size="14.00" fill="#000000"> </text>
<text text-anchor="start" x="136.2722" y="-325.3" font-family="Arial" font-size="14.00" fill="#666666">[BASE TABLE]</text>
<polygon fill="none" stroke="#000000" points="43.5,-282.5 43.5,-312.5 236.5,-312.5 236.5,-282.5 43.5,-282.5"/>
<text text-anchor="start" x="50.5" y="-293.9" font-family="Arial" font-size="14.00" fill="#000000">id </text>
<text text-anchor="start" x="65.2798" y="-293.9" font-family="Arial" font-size="14.00" fill="#666666">[char(36)]</text>
<polygon fill="none" stroke="#000000" points="43.5,-252.5 43.5,-282.5 236.5,-282.5 236.5,-252.5 43.5,-252.5"/>
<text text-anchor="start" x="50.5" y="-263.9" font-family="Arial" font-size="14.00" fill="#000000">user_id </text>
<text text-anchor="start" x="100.2882" y="-263.9" font-family="Arial" font-size="14.00" fill="#666666">[char(36)]</text>
<polygon fill="none" stroke="#000000" points="43.5,-222.5 43.5,-252.5 236.5,-252.5 236.5,-222.5 43.5,-222.5"/>
<text text-anchor="start" x="50.5" y="-233.9" font-family="Arial" font-size="14.00" fill="#000000">channel_id </text>
<text text-anchor="start" x="122.082" y="-233.9" font-family="Arial" font-size="14.00" fill="#666666">[char(36)]</text>
<polygon fill="none" stroke="#000000" points="43.5,-192.5 43.5,-222.5 236.5,-222.5 236.5,-192.5 43.5,-192.5"/>
<text text-anchor="start" x="50.5" y="-203.9" font-family="Arial" font-size="14.00" fill="#000000">text </text>
<text text-anchor="start" x="76.9544" y="-203.9" font-family="Arial" font-size="14.00" fill="#666666">[text]</text>
<polygon fill="none" stroke="#000000" points="43.5,-162.5 43.5,-192.5 236.5,-192.5 236.5,-162.5 43.5,-162.5"/>
<text text-anchor="start" x="50.5" y="-173.9" font-family="Arial" font-size="14.00" fill="#000000">created_at </text>
<text text-anchor="start" x="120.528" y="-173.9" font-family="Arial" font-size="14.00" fill="#666666">[datetime(6)]</text>
<polygon fill="none" stroke="#000000" points="43.5,-132.5 43.5,-162.5 236.5,-162.5 236.5,-132.5 43.5,-132.5"/>
<text text-anchor="start" x="50.5" y="-143.9" font-family="Arial" font-size="14.00" fill="#000000">updated_at </text>
<text text-anchor="start" x="124.4326" y="-143.9" font-family="Arial" font-size="14.00" fill="#666666">[datetime(6)]</text>
<polygon fill="none" stroke="#000000" points="43.5,-102.5 43.5,-132.5 236.5,-132.5 236.5,-102.5 43.5,-102.5"/>
<text text-anchor="start" x="50.5" y="-113.9" font-family="Arial" font-size="14.00" fill="#000000">deleted_at </text>
<text text-anchor="start" x="119.7566" y="-113.9" font-family="Arial" font-size="14.00" fill="#666666">[datetime(6)]</text>
</g>
<!-- messages_stamps&#45;&gt;messages -->
<g id="edge1" class="edge">
<title>messages_stamps:message_id&#45;&gt;messages:id</title>
<path fill="none" stroke="#000000" d="M284.4861,-695.5365C214.3038,-665.3604 322.6345,-297.5 236.5,-297.5"/>
<polygon fill="#000000" stroke="#000000" points="284.6869,-695.5757 293.6341,-701.9159 289.5934,-696.5379 294.5,-697.5 294.5,-697.5 294.5,-697.5 289.5934,-696.5379 295.3659,-693.0841 284.6869,-695.5757 284.6869,-695.5757"/>
<text text-anchor="start" x="19.327" y="-707.5" font-family="Arial" font-size="10.00" fill="#000000">FOREIGN KEY (message_id) REFERENCES messages (id)</text>
</g>
<!-- stamps -->
<g id="node3" class="node">
<title>stamps</title>
<polygon fill="#efefef" stroke="transparent" points="340.5,-327.5 340.5,-362.5 509.5,-362.5 509.5,-327.5 340.5,-327.5"/>
<polygon fill="none" stroke="#000000" points="340.5,-327.5 340.5,-362.5 509.5,-362.5 509.5,-327.5 340.5,-327.5"/>
<text text-anchor="start" x="347.3697" y="-340.3" font-family="Arial Bold" font-size="18.00" fill="#000000">stamps</text>
<text text-anchor="start" x="405.3765" y="-340.3" font-family="Arial" font-size="14.00" fill="#000000"> </text>
<text text-anchor="start" x="409.2671" y="-340.3" font-family="Arial" font-size="14.00" fill="#666666">[BASE TABLE]</text>
<polygon fill="none" stroke="#000000" points="340.5,-297.5 340.5,-327.5 509.5,-327.5 509.5,-297.5 340.5,-297.5"/>
<text text-anchor="start" x="347.5" y="-308.9" font-family="Arial" font-size="14.00" fill="#000000">id </text>
<text text-anchor="start" x="362.2798" y="-308.9" font-family="Arial" font-size="14.00" fill="#666666">[char(36)]</text>
<polygon fill="none" stroke="#000000" points="340.5,-267.5 340.5,-297.5 509.5,-297.5 509.5,-267.5 340.5,-267.5"/>
<text text-anchor="start" x="347.5" y="-278.9" font-family="Arial" font-size="14.00" fill="#000000">name </text>
<text text-anchor="start" x="386.399" y="-278.9" font-family="Arial" font-size="14.00" fill="#666666">[varchar(32)]</text>
<polygon fill="none" stroke="#000000" points="340.5,-237.5 340.5,-267.5 509.5,-267.5 509.5,-237.5 340.5,-237.5"/>
<text text-anchor="start" x="347.5" y="-248.9" font-family="Arial" font-size="14.00" fill="#000000">creator_id </text>
<text text-anchor="start" x="413.622" y="-248.9" font-family="Arial" font-size="14.00" fill="#666666">[char(36)]</text>
<polygon fill="none" stroke="#000000" points="340.5,-207.5 340.5,-237.5 509.5,-237.5 509.5,-207.5 340.5,-207.5"/>
<text text-anchor="start" x="347.5" y="-218.9" font-family="Arial" font-size="14.00" fill="#000000">file_id </text>
<text text-anchor="start" x="387.9488" y="-218.9" font-family="Arial" font-size="14.00" fill="#666666">[char(36)]</text>
<polygon fill="none" stroke="#000000" points="340.5,-177.5 340.5,-207.5 509.5,-207.5 509.5,-177.5 340.5,-177.5"/>
<text text-anchor="start" x="347.5" y="-188.9" font-family="Arial" font-size="14.00" fill="#000000">is_unicode </text>
<text text-anchor="start" x="418.2994" y="-188.9" font-family="Arial" font-size="14.00" fill="#666666">[tinyint(1)]</text>
<polygon fill="none" stroke="#000000" points="340.5,-147.5 340.5,-177.5 509.5,-177.5 509.5,-147.5 340.5,-147.5"/>
<text text-anchor="start" x="347.5" y="-158.9" font-family="Arial" font-size="14.00" fill="#000000">created_at </text>
<text text-anchor="start" x="417.528" y="-158.9" font-family="Arial" font-size="14.00" fill="#666666">[datetime(6)]</text>
<polygon fill="none" stroke="#000000" points="340.5,-117.5 340.5,-147.5 509.5,-147.5 509.5,-117.5 340.5,-117.5"/>
<text text-anchor="start" x="347.5" y="-128.9" font-family="Arial" font-size="14.00" fill="#000000">updated_at </text>
<text text-anchor="start" x="421.4326" y="-128.9" font-family="Arial" font-size="14.00" fill="#666666">[datetime(6)]</text>
<polygon fill="none" stroke="#000000" points="340.5,-87.5 340.5,-117.5 509.5,-117.5 509.5,-87.5 340.5,-87.5"/>
<text text-anchor="start" x="347.5" y="-98.9" font-family="Arial" font-size="14.00" fill="#000000">deleted_at </text>
<text text-anchor="start" x="416.7566" y="-98.9" font-family="Arial" font-size="14.00" fill="#666666">[datetime(6)]</text>
</g>
<!-- messages_stamps&#45;&gt;stamps -->
<g id="edge2" class="edge">
<title>messages_stamps:stamp_id&#45;&gt;stamps:id</title>
<path fill="none" stroke="#000000" d="M286.5477,-661.0353C262.0531,-612.921 303.9108,-312.5 340.5,-312.5"/>
<polygon fill="#000000" stroke="#000000" points="286.7405,-661.192 291.6614,-670.9918 290.6203,-664.346 294.5,-667.5 294.5,-667.5 294.5,-667.5 290.6203,-664.346 297.3386,-664.0082 286.7405,-661.192 286.7405,-661.192"/>
<text text-anchor="start" x="46.666" y="-677.5" font-family="Arial" font-size="10.00" fill="#000000">FOREIGN KEY (stamp_id) REFERENCES stamps (id)</text>
</g>
<!-- users -->
<g id="node4" class="node">
<title>users</title>
<polygon fill="#efefef" stroke="transparent" points="613.5,-372.5 613.5,-407.5 796.5,-407.5 796.5,-372.5 613.5,-372.5"/>
<polygon fill="none" stroke="#000000" points="613.5,-372.5 613.5,-407.5 796.5,-407.5 796.5,-372.5 613.5,-372.5"/>
<text text-anchor="start" x="634.3708" y="-385.3" font-family="Arial Bold" font-size="18.00" fill="#000000">users</text>
<text text-anchor="start" x="678.3754" y="-385.3" font-family="Arial" font-size="14.00" fill="#000000"> </text>
<text text-anchor="start" x="682.266" y="-385.3" font-family="Arial" font-size="14.00" fill="#666666">[BASE TABLE]</text>
<polygon fill="none" stroke="#000000" points="613.5,-342.5 613.5,-372.5 796.5,-372.5 796.5,-342.5 613.5,-342.5"/>
<text text-anchor="start" x="620.5" y="-353.9" font-family="Arial" font-size="14.00" fill="#000000">id </text>
<text text-anchor="start" x="635.2798" y="-353.9" font-family="Arial" font-size="14.00" fill="#666666">[char(36)]</text>
<polygon fill="none" stroke="#000000" points="613.5,-312.5 613.5,-342.5 796.5,-342.5 796.5,-312.5 613.5,-312.5"/>
<text text-anchor="start" x="620.5" y="-323.9" font-family="Arial" font-size="14.00" fill="#000000">name </text>
<text text-anchor="start" x="659.399" y="-323.9" font-family="Arial" font-size="14.00" fill="#666666">[varchar(32)]</text>
<polygon fill="none" stroke="#000000" points="613.5,-282.5 613.5,-312.5 796.5,-312.5 796.5,-282.5 613.5,-282.5"/>
<text text-anchor="start" x="620.2104" y="-293.9" font-family="Arial" font-size="14.00" fill="#000000">display_name </text>
<text text-anchor="start" x="710.453" y="-293.9" font-family="Arial" font-size="14.00" fill="#666666">[varchar(64)]</text>
<polygon fill="none" stroke="#000000" points="613.5,-252.5 613.5,-282.5 796.5,-282.5 796.5,-252.5 613.5,-252.5"/>
<text text-anchor="start" x="620.5" y="-263.9" font-family="Arial" font-size="14.00" fill="#000000">password </text>
<text text-anchor="start" x="684.2882" y="-263.9" font-family="Arial" font-size="14.00" fill="#666666">[char(128)]</text>
<polygon fill="none" stroke="#000000" points="613.5,-222.5 613.5,-252.5 796.5,-252.5 796.5,-222.5 613.5,-222.5"/>
<text text-anchor="start" x="620.5" y="-233.9" font-family="Arial" font-size="14.00" fill="#000000">salt </text>
<text text-anchor="start" x="646.1704" y="-233.9" font-family="Arial" font-size="14.00" fill="#666666">[char(128)]</text>
<polygon fill="none" stroke="#000000" points="613.5,-192.5 613.5,-222.5 796.5,-222.5 796.5,-192.5 613.5,-192.5"/>
<text text-anchor="start" x="620.5" y="-203.9" font-family="Arial" font-size="14.00" fill="#000000">icon </text>
<text text-anchor="start" x="650.0624" y="-203.9" font-family="Arial" font-size="14.00" fill="#666666">[char(36)]</text>
<polygon fill="none" stroke="#000000" points="613.5,-162.5 613.5,-192.5 796.5,-192.5 796.5,-162.5 613.5,-162.5"/>
<text text-anchor="start" x="620.5" y="-173.9" font-family="Arial" font-size="14.00" fill="#000000">status </text>
<text text-anchor="start" x="661.737" y="-173.9" font-family="Arial" font-size="14.00" fill="#666666">[tinyint(4)]</text>
<polygon fill="none" stroke="#000000" points="613.5,-132.5 613.5,-162.5 796.5,-162.5 796.5,-132.5 613.5,-132.5"/>
<text text-anchor="start" x="620.5" y="-143.9" font-family="Arial" font-size="14.00" fill="#000000">bot </text>
<text text-anchor="start" x="643.8464" y="-143.9" font-family="Arial" font-size="14.00" fill="#666666">[tinyint(1)]</text>
<polygon fill="none" stroke="#000000" points="613.5,-102.5 613.5,-132.5 796.5,-132.5 796.5,-102.5 613.5,-102.5"/>
<text text-anchor="start" x="620.5" y="-113.9" font-family="Arial" font-size="14.00" fill="#000000">role </text>
<text text-anchor="start" x="647.723" y="-113.9" font-family="Arial" font-size="14.00" fill="#666666">[varchar(30)]</text>
<polygon fill="none" stroke="#000000" points="613.5,-72.5 613.5,-102.5 796.5,-102.5 796.5,-72.5 613.5,-72.5"/>
<text text-anchor="start" x="620.5" y="-83.9" font-family="Arial" font-size="14.00" fill="#000000">created_at </text>
<text text-anchor="start" x="690.528" y="-83.9" font-family="Arial" font-size="14.00" fill="#666666">[datetime(6)]</text>
<polygon fill="none" stroke="#000000" points="613.5,-42.5 613.5,-72.5 796.5,-72.5 796.5,-42.5 613.5,-42.5"/>
<text text-anchor="start" x="620.5" y="-53.9" font-family="Arial" font-size="14.00" fill="#000000">updated_at </text>
<text text-anchor="start" x="694.4326" y="-53.9" font-family="Arial" font-size="14.00" fill="#666666">[datetime(6)]</text>
</g>
<!-- messages_stamps&#45;&gt;users -->
<g id="edge3" class="edge">
<title>messages_stamps:user_id&#45;&gt;users:id</title>
<path fill="none" stroke="#000000" d="M565.5343,-636.839C671.7342,-621.8652 490.0129,-357.5 613.5,-357.5"/>
<polygon fill="#000000" stroke="#000000" points="565.4784,-636.8426 555.2042,-633.0097 560.4892,-637.1713 555.5,-637.5 555.5,-637.5 555.5,-637.5 560.4892,-637.1713 555.7958,-641.9903 565.4784,-636.8426 565.4784,-636.8426"/>
<text text-anchor="start" x="562.445" y="-647.5" font-family="Arial" font-size="10.00" fill="#000000">FOREIGN KEY (user_id) REFERENCES users (id)</text>
</g>
</g>
</svg>
