<?xml version="1.0" encoding="UTF-8" standalone="no"?>
<!DOCTYPE svg PUBLIC "-//W3C//DTD SVG 1.1//EN"
        "http://www.w3.org/Graphics/SVG/1.1/DTD/svg11.dtd">
<!-- Generated by graphviz version 2.40.1 (20161225.0304)
 -->
<!-- Title: message_reports Pages: 1 -->
<svg width="359pt" height="314pt"
     viewBox="0.00 0.00 359.00 314.00" xmlns="http://www.w3.org/2000/svg">
    <g id="graph0" class="graph" transform="scale(1 1) rotate(0) translate(4 310)">
        <title>message_reports</title>
        <polygon fill="#ffffff" stroke="transparent" points="-4,4 -4,-310 355,-310 355,4 -4,4"/>
        <!-- message_reports -->
        <g id="node1" class="node">
            <title>message_reports</title>
            <polygon fill="#efefef" stroke="transparent" points="46.5,-226 46.5,-260 305.5,-260 305.5,-226 46.5,-226"/>
            <polygon fill="none" stroke="#000000" points="46.5,-226 46.5,-260 305.5,-260 305.5,-226 46.5,-226"/>
            <text text-anchor="start" x="53.4751" y="-239.6" font-family="Arial Bold" font-size="18.00" fill="#000000">
                message_reports
            </text>
            <text text-anchor="start" x="202.5552" y="-239.6" font-family="Arial" font-size="14.00"
                  fill="#000000"></text>
            <text text-anchor="start" x="206.4448" y="-239.6" font-family="Arial" font-size="14.00" fill="#666666">[BASE
                TABLE]
            </text>
            <polygon fill="none" stroke="#000000" points="46.5,-196 46.5,-226 305.5,-226 305.5,-196 46.5,-196"/>
            <text text-anchor="start" x="53.5" y="-208.8" font-family="Arial" font-size="14.00" fill="#000000">id</text>
            <text text-anchor="start" x="68.2861" y="-208.8" font-family="Arial" font-size="14.00" fill="#666666">
                [char(36)]
            </text>
            <polygon fill="none" stroke="#000000" points="46.5,-166 46.5,-196 305.5,-196 305.5,-166 46.5,-166"/>
            <text text-anchor="start" x="53.5" y="-178.8" font-family="Arial" font-size="14.00" fill="#000000">
                message_id
            </text>
            <text text-anchor="start" x="132.8789" y="-178.8" font-family="Arial" font-size="14.00" fill="#666666">
                [char(36)]
            </text>
            <polygon fill="none" stroke="#000000" points="46.5,-136 46.5,-166 305.5,-166 305.5,-136 46.5,-136"/>
            <text text-anchor="start" x="53.5" y="-148.8" font-family="Arial" font-size="14.00" fill="#000000">
                reporter
            </text>
            <text text-anchor="start" x="106.4102" y="-148.8" font-family="Arial" font-size="14.00" fill="#666666">
                [char(36)]
            </text>
            <polygon fill="none" stroke="#000000" points="46.5,-106 46.5,-136 305.5,-136 305.5,-106 46.5,-106"/>
            <text text-anchor="start" x="53.5" y="-118.8" font-family="Arial" font-size="14.00" fill="#000000">reason
            </text>
            <text text-anchor="start" x="100.1963" y="-118.8" font-family="Arial" font-size="14.00" fill="#666666">
                [text]
            </text>
            <polygon fill="none" stroke="#000000" points="46.5,-76 46.5,-106 305.5,-106 305.5,-76 46.5,-76"/>
            <text text-anchor="start" x="53.5" y="-88.8" font-family="Arial" font-size="14.00" fill="#000000">
                created_at
            </text>
            <text text-anchor="start" x="123.5479" y="-88.8" font-family="Arial" font-size="14.00" fill="#666666">
                [timestamp(6)]
            </text>
            <polygon fill="none" stroke="#000000" points="46.5,-46 46.5,-76 305.5,-76 305.5,-46 46.5,-46"/>
            <text text-anchor="start" x="53.5" y="-58.8" font-family="Arial" font-size="14.00" fill="#000000">
                deleted_at
            </text>
            <text text-anchor="start" x="122.7822" y="-58.8" font-family="Arial" font-size="14.00" fill="#666666">
                [timestamp(6)]
            </text>
            <polygon fill="none" stroke="#000000" stroke-width="3"
                     points="44.5,-44.5 44.5,-261.5 306.5,-261.5 306.5,-44.5 44.5,-44.5"/>
        </g>
    </g>
</svg>
