<?xml version="1.0" encoding="UTF-8" standalone="no"?>
<!DOCTYPE svg PUBLIC "-//W3C//DTD SVG 1.1//EN"
 "http://www.w3.org/Graphics/SVG/1.1/DTD/svg11.dtd">
<!-- Generated by graphviz version 2.40.1 (20161225.0304)
 -->
<!-- Title: messages Pages: 1 -->
<svg width="1051pt" height="1226pt"
 viewBox="0.00 0.00 1051.00 1226.00" xmlns="http://www.w3.org/2000/svg" xmlns:xlink="http://www.w3.org/1999/xlink">
<g id="graph0" class="graph" transform="scale(1 1) rotate(0) translate(4 1222)">
<title>messages</title>
<polygon fill="#ffffff" stroke="transparent" points="-4,4 -4,-1222 1047,-1222 1047,4 -4,4"/>
<!-- messages -->
<g id="node1" class="node">
<title>messages</title>
<polygon fill="#efefef" stroke="transparent" points="422,-802 422,-836 619,-836 619,-802 422,-802"/>
<polygon fill="none" stroke="#000000" points="422,-802 422,-836 619,-836 619,-802 422,-802"/>
<text text-anchor="start" x="428.9829" y="-815.6" font-family="Arial Bold" font-size="18.00" fill="#000000">messages</text>
<text text-anchor="start" x="516.0474" y="-815.6" font-family="Arial" font-size="14.00" fill="#000000"> </text>
<text text-anchor="start" x="519.937" y="-815.6" font-family="Arial" font-size="14.00" fill="#666666">[BASE TABLE]</text>
<polygon fill="none" stroke="#000000" points="422,-772 422,-802 619,-802 619,-772 422,-772"/>
<text text-anchor="start" x="429" y="-784.8" font-family="Arial" font-size="14.00" fill="#000000">id </text>
<text text-anchor="start" x="443.7861" y="-784.8" font-family="Arial" font-size="14.00" fill="#666666">[char(36)]</text>
<polygon fill="none" stroke="#000000" points="422,-742 422,-772 619,-772 619,-742 422,-742"/>
<text text-anchor="start" x="429" y="-754.8" font-family="Arial" font-size="14.00" fill="#000000">user_id </text>
<text text-anchor="start" x="478.8066" y="-754.8" font-family="Arial" font-size="14.00" fill="#666666">[char(36)]</text>
<polygon fill="none" stroke="#000000" points="422,-712 422,-742 619,-742 619,-712 422,-712"/>
<text text-anchor="start" x="429" y="-724.8" font-family="Arial" font-size="14.00" fill="#000000">channel_id </text>
<text text-anchor="start" x="500.6133" y="-724.8" font-family="Arial" font-size="14.00" fill="#666666">[char(36)]</text>
<polygon fill="none" stroke="#000000" points="422,-682 422,-712 619,-712 619,-682 422,-682"/>
<text text-anchor="start" x="429" y="-694.8" font-family="Arial" font-size="14.00" fill="#000000">text </text>
<text text-anchor="start" x="455.4551" y="-694.8" font-family="Arial" font-size="14.00" fill="#666666">[text]</text>
<polygon fill="none" stroke="#000000" points="422,-652 422,-682 619,-682 619,-652 422,-652"/>
<text text-anchor="start" x="429" y="-664.8" font-family="Arial" font-size="14.00" fill="#000000">created_at </text>
<text text-anchor="start" x="499.0479" y="-664.8" font-family="Arial" font-size="14.00" fill="#666666">[timestamp(6)]</text>
<polygon fill="none" stroke="#000000" points="422,-622 422,-652 619,-652 619,-622 422,-622"/>
<text text-anchor="start" x="429" y="-634.8" font-family="Arial" font-size="14.00" fill="#000000">updated_at </text>
<text text-anchor="start" x="502.958" y="-634.8" font-family="Arial" font-size="14.00" fill="#666666">[timestamp(6)]</text>
<polygon fill="none" stroke="#000000" points="422,-592 422,-622 619,-622 619,-592 422,-592"/>
<text text-anchor="start" x="429" y="-604.8" font-family="Arial" font-size="14.00" fill="#000000">deleted_at </text>
<text text-anchor="start" x="498.2822" y="-604.8" font-family="Arial" font-size="14.00" fill="#666666">[timestamp(6)]</text>
<polygon fill="none" stroke="#000000" stroke-width="3" points="420,-590.5 420,-837.5 620,-837.5 620,-590.5 420,-590.5"/>
</g>
<!-- users -->
<g id="node5" class="node">
<title>users</title>
<polygon fill="#efefef" stroke="transparent" points="285,-433 285,-467 468,-467 468,-433 285,-433"/>
<polygon fill="none" stroke="#000000" points="285,-433 285,-467 468,-467 468,-433 285,-433"/>
<text text-anchor="start" x="304.499" y="-446.6" font-family="Arial Bold" font-size="18.00" fill="#000000">users</text>
<text text-anchor="start" x="352.5313" y="-446.6" font-family="Arial" font-size="14.00" fill="#000000"> </text>
<text text-anchor="start" x="356.4209" y="-446.6" font-family="Arial" font-size="14.00" fill="#666666">[BASE TABLE]</text>
<polygon fill="none" stroke="#000000" points="285,-403 285,-433 468,-433 468,-403 285,-403"/>
<text text-anchor="start" x="292" y="-415.8" font-family="Arial" font-size="14.00" fill="#000000">id </text>
<text text-anchor="start" x="306.7861" y="-415.8" font-family="Arial" font-size="14.00" fill="#666666">[char(36)]</text>
<polygon fill="none" stroke="#000000" points="285,-373 285,-403 468,-403 468,-373 285,-373"/>
<text text-anchor="start" x="292" y="-385.8" font-family="Arial" font-size="14.00" fill="#000000">name </text>
<text text-anchor="start" x="330.9102" y="-385.8" font-family="Arial" font-size="14.00" fill="#666666">[varchar(32)]</text>
<polygon fill="none" stroke="#000000" points="285,-343 285,-373 468,-373 468,-343 285,-343"/>
<text text-anchor="start" x="291.6831" y="-355.8" font-family="Arial" font-size="14.00" fill="#000000">display_name </text>
<text text-anchor="start" x="381.9585" y="-355.8" font-family="Arial" font-size="14.00" fill="#666666">[varchar(64)]</text>
<polygon fill="none" stroke="#000000" points="285,-313 285,-343 468,-343 468,-313 285,-313"/>
<text text-anchor="start" x="292" y="-325.8" font-family="Arial" font-size="14.00" fill="#000000">password </text>
<text text-anchor="start" x="355.8066" y="-325.8" font-family="Arial" font-size="14.00" fill="#666666">[char(128)]</text>
<polygon fill="none" stroke="#000000" points="285,-283 285,-313 468,-313 468,-283 285,-283"/>
<text text-anchor="start" x="292" y="-295.8" font-family="Arial" font-size="14.00" fill="#000000">salt </text>
<text text-anchor="start" x="317.6758" y="-295.8" font-family="Arial" font-size="14.00" fill="#666666">[char(128)]</text>
<polygon fill="none" stroke="#000000" points="285,-253 285,-283 468,-283 468,-253 285,-253"/>
<text text-anchor="start" x="292" y="-265.8" font-family="Arial" font-size="14.00" fill="#000000">icon </text>
<text text-anchor="start" x="321.5723" y="-265.8" font-family="Arial" font-size="14.00" fill="#666666">[char(36)]</text>
<polygon fill="none" stroke="#000000" points="285,-223 285,-253 468,-253 468,-223 285,-223"/>
<text text-anchor="start" x="292" y="-235.8" font-family="Arial" font-size="14.00" fill="#000000">status </text>
<text text-anchor="start" x="333.2412" y="-235.8" font-family="Arial" font-size="14.00" fill="#666666">[tinyint(4)]</text>
<polygon fill="none" stroke="#000000" points="285,-193 285,-223 468,-223 468,-193 285,-193"/>
<text text-anchor="start" x="292" y="-205.8" font-family="Arial" font-size="14.00" fill="#000000">bot </text>
<text text-anchor="start" x="315.3516" y="-205.8" font-family="Arial" font-size="14.00" fill="#666666">[tinyint(1)]</text>
<polygon fill="none" stroke="#000000" points="285,-163 285,-193 468,-193 468,-163 285,-163"/>
<text text-anchor="start" x="292" y="-175.8" font-family="Arial" font-size="14.00" fill="#000000">role </text>
<text text-anchor="start" x="319.2344" y="-175.8" font-family="Arial" font-size="14.00" fill="#666666">[varchar(30)]</text>
<polygon fill="none" stroke="#000000" points="285,-133 285,-163 468,-163 468,-133 285,-133"/>
<text text-anchor="start" x="292" y="-145.8" font-family="Arial" font-size="14.00" fill="#000000">twitter_id </text>
<text text-anchor="start" x="351.9102" y="-145.8" font-family="Arial" font-size="14.00" fill="#666666">[varchar(15)]</text>
<polygon fill="none" stroke="#000000" points="285,-103 285,-133 468,-133 468,-103 285,-103"/>
<text text-anchor="start" x="292" y="-115.8" font-family="Arial" font-size="14.00" fill="#000000">last_online </text>
<text text-anchor="start" x="362.8271" y="-115.8" font-family="Arial" font-size="14.00" fill="#666666">[timestamp(6)]</text>
<polygon fill="none" stroke="#000000" points="285,-73 285,-103 468,-103 468,-73 285,-73"/>
<text text-anchor="start" x="292" y="-85.8" font-family="Arial" font-size="14.00" fill="#000000">created_at </text>
<text text-anchor="start" x="362.0479" y="-85.8" font-family="Arial" font-size="14.00" fill="#666666">[timestamp(6)]</text>
<polygon fill="none" stroke="#000000" points="285,-43 285,-73 468,-73 468,-43 285,-43"/>
<text text-anchor="start" x="292" y="-55.8" font-family="Arial" font-size="14.00" fill="#000000">updated_at </text>
<text text-anchor="start" x="365.958" y="-55.8" font-family="Arial" font-size="14.00" fill="#666666">[timestamp(6)]</text>
</g>
<!-- messages&#45;&gt;users -->
<g id="edge4" class="edge">
<title>messages:user_id&#45;&gt;users:id</title>
<path fill="none" stroke="#000000" d="M411.6715,-756.4301C332.3219,-747.1665 382.5296,-627.0107 422,-546 433.371,-522.6617 456.629,-533.3383 468,-510 485.9094,-473.242 508.8889,-418 468,-418"/>
<polygon fill="#000000" stroke="#000000" points="412.0152,-756.449 421.752,-761.4932 417.0076,-756.7245 422,-757 422,-757 422,-757 417.0076,-756.7245 422.248,-752.5068 412.0152,-756.449 412.0152,-756.449"/>
<text text-anchor="start" x="190.0117" y="-766.5" font-family="Arial" font-size="10.00" fill="#000000">FOREIGN KEY (user_id) REFERENCES users (id)</text>
</g>
<!-- channels -->
<g id="node6" class="node">
<title>channels</title>
<polygon fill="#efefef" stroke="transparent" points="572,-418 572,-452 759,-452 759,-418 572,-418"/>
<polygon fill="none" stroke="#000000" points="572,-418 572,-452 759,-452 759,-418 572,-418"/>
<text text-anchor="start" x="578.5005" y="-431.6" font-family="Arial Bold" font-size="18.00" fill="#000000">channels</text>
<text text-anchor="start" x="656.5298" y="-431.6" font-family="Arial" font-size="14.00" fill="#000000"> </text>
<text text-anchor="start" x="660.4194" y="-431.6" font-family="Arial" font-size="14.00" fill="#666666">[BASE TABLE]</text>
<polygon fill="none" stroke="#000000" points="572,-388 572,-418 759,-418 759,-388 572,-388"/>
<text text-anchor="start" x="579" y="-400.8" font-family="Arial" font-size="14.00" fill="#000000">id </text>
<text text-anchor="start" x="593.7861" y="-400.8" font-family="Arial" font-size="14.00" fill="#666666">[char(36)]</text>
<polygon fill="none" stroke="#000000" points="572,-358 572,-388 759,-388 759,-358 572,-358"/>
<text text-anchor="start" x="579" y="-370.8" font-family="Arial" font-size="14.00" fill="#000000">name </text>
<text text-anchor="start" x="617.9102" y="-370.8" font-family="Arial" font-size="14.00" fill="#666666">[varchar(20)]</text>
<polygon fill="none" stroke="#000000" points="572,-328 572,-358 759,-358 759,-328 572,-328"/>
<text text-anchor="start" x="579" y="-340.8" font-family="Arial" font-size="14.00" fill="#000000">parent_id </text>
<text text-anchor="start" x="641.2686" y="-340.8" font-family="Arial" font-size="14.00" fill="#666666">[char(36)]</text>
<polygon fill="none" stroke="#000000" points="572,-298 572,-328 759,-328 759,-298 572,-298"/>
<text text-anchor="start" x="579" y="-310.8" font-family="Arial" font-size="14.00" fill="#000000">topic </text>
<text text-anchor="start" x="612.4619" y="-310.8" font-family="Arial" font-size="14.00" fill="#666666">[text]</text>
<polygon fill="none" stroke="#000000" points="572,-268 572,-298 759,-298 759,-268 572,-268"/>
<text text-anchor="start" x="579" y="-280.8" font-family="Arial" font-size="14.00" fill="#000000">is_forced </text>
<text text-anchor="start" x="639.6963" y="-280.8" font-family="Arial" font-size="14.00" fill="#666666">[tinyint(1)]</text>
<polygon fill="none" stroke="#000000" points="572,-238 572,-268 759,-268 759,-238 572,-238"/>
<text text-anchor="start" x="579" y="-250.8" font-family="Arial" font-size="14.00" fill="#000000">is_public </text>
<text text-anchor="start" x="637.3652" y="-250.8" font-family="Arial" font-size="14.00" fill="#666666">[tinyint(1)]</text>
<polygon fill="none" stroke="#000000" points="572,-208 572,-238 759,-238 759,-208 572,-208"/>
<text text-anchor="start" x="579" y="-220.8" font-family="Arial" font-size="14.00" fill="#000000">is_visible </text>
<text text-anchor="start" x="639.6895" y="-220.8" font-family="Arial" font-size="14.00" fill="#666666">[tinyint(1)]</text>
<polygon fill="none" stroke="#000000" points="572,-178 572,-208 759,-208 759,-178 572,-178"/>
<text text-anchor="start" x="579" y="-190.8" font-family="Arial" font-size="14.00" fill="#000000">creator_id </text>
<text text-anchor="start" x="645.1445" y="-190.8" font-family="Arial" font-size="14.00" fill="#666666">[char(36)]</text>
<polygon fill="none" stroke="#000000" points="572,-148 572,-178 759,-178 759,-148 572,-148"/>
<text text-anchor="start" x="579" y="-160.8" font-family="Arial" font-size="14.00" fill="#000000">updater_id </text>
<text text-anchor="start" x="649.0547" y="-160.8" font-family="Arial" font-size="14.00" fill="#666666">[char(36)]</text>
<polygon fill="none" stroke="#000000" points="572,-118 572,-148 759,-148 759,-118 572,-118"/>
<text text-anchor="start" x="579" y="-130.8" font-family="Arial" font-size="14.00" fill="#000000">created_at </text>
<text text-anchor="start" x="649.0479" y="-130.8" font-family="Arial" font-size="14.00" fill="#666666">[timestamp(6)]</text>
<polygon fill="none" stroke="#000000" points="572,-88 572,-118 759,-118 759,-88 572,-88"/>
<text text-anchor="start" x="579" y="-100.8" font-family="Arial" font-size="14.00" fill="#000000">updated_at </text>
<text text-anchor="start" x="652.958" y="-100.8" font-family="Arial" font-size="14.00" fill="#666666">[timestamp(6)]</text>
<polygon fill="none" stroke="#000000" points="572,-58 572,-88 759,-88 759,-58 572,-58"/>
<text text-anchor="start" x="579" y="-70.8" font-family="Arial" font-size="14.00" fill="#000000">deleted_at </text>
<text text-anchor="start" x="648.2822" y="-70.8" font-family="Arial" font-size="14.00" fill="#666666">[timestamp(6)]</text>
</g>
<!-- messages&#45;&gt;channels -->
<g id="edge5" class="edge">
<title>messages:channel_id&#45;&gt;channels:id</title>
<path fill="none" stroke="#000000" d="M629.0582,-726.3703C694.8903,-717.5334 646.948,-617.5672 619,-546 607.7874,-517.2876 583.2126,-523.7124 572,-495 557.1262,-456.9123 531.1111,-403 572,-403"/>
<polygon fill="#000000" stroke="#000000" points="628.9805,-726.3751 618.7188,-722.5088 623.9902,-726.6875 619,-727 619,-727 619,-727 623.9902,-726.6875 619.2812,-731.4912 628.9805,-726.3751 628.9805,-726.3751"/>
<text text-anchor="start" x="626.4355" y="-736.5" font-family="Arial" font-size="10.00" fill="#000000">FOREIGN KEY (channel_id) REFERENCES channels (id)</text>
</g>
<!-- clips -->
<g id="node2" class="node">
<title>clips</title>
<polygon fill="#efefef" stroke="transparent" points="105,-1141 105,-1175 282,-1175 282,-1141 105,-1141"/>
<polygon fill="none" stroke="#000000" points="105,-1141 105,-1175 282,-1175 282,-1141 105,-1141"/>
<text text-anchor="start" x="125.0059" y="-1154.6" font-family="Arial Bold" font-size="18.00" fill="#000000">clips</text>
<text text-anchor="start" x="166.0244" y="-1154.6" font-family="Arial" font-size="14.00" fill="#000000"> </text>
<text text-anchor="start" x="169.9141" y="-1154.6" font-family="Arial" font-size="14.00" fill="#666666">[BASE TABLE]</text>
<polygon fill="none" stroke="#000000" points="105,-1111 105,-1141 282,-1141 282,-1111 105,-1111"/>
<text text-anchor="start" x="112" y="-1123.8" font-family="Arial" font-size="14.00" fill="#000000">id </text>
<text text-anchor="start" x="126.7861" y="-1123.8" font-family="Arial" font-size="14.00" fill="#666666">[char(36)]</text>
<polygon fill="none" stroke="#000000" points="105,-1081 105,-1111 282,-1111 282,-1081 105,-1081"/>
<text text-anchor="start" x="112" y="-1093.8" font-family="Arial" font-size="14.00" fill="#000000">user_id </text>
<text text-anchor="start" x="161.8066" y="-1093.8" font-family="Arial" font-size="14.00" fill="#666666">[char(36)]</text>
<polygon fill="none" stroke="#000000" points="105,-1051 105,-1081 282,-1081 282,-1051 105,-1051"/>
<text text-anchor="start" x="112" y="-1063.8" font-family="Arial" font-size="14.00" fill="#000000">message_id </text>
<text text-anchor="start" x="191.3789" y="-1063.8" font-family="Arial" font-size="14.00" fill="#666666">[char(36)]</text>
<polygon fill="none" stroke="#000000" points="105,-1021 105,-1051 282,-1051 282,-1021 105,-1021"/>
<text text-anchor="start" x="112" y="-1033.8" font-family="Arial" font-size="14.00" fill="#000000">folder_id </text>
<text text-anchor="start" x="169.5928" y="-1033.8" font-family="Arial" font-size="14.00" fill="#666666">[char(36)]</text>
<polygon fill="none" stroke="#000000" points="105,-991 105,-1021 282,-1021 282,-991 105,-991"/>
<text text-anchor="start" x="112" y="-1003.8" font-family="Arial" font-size="14.00" fill="#000000">created_at </text>
<text text-anchor="start" x="182.0479" y="-1003.8" font-family="Arial" font-size="14.00" fill="#666666">[timestamp(6)]</text>
<polygon fill="none" stroke="#000000" points="105,-961 105,-991 282,-991 282,-961 105,-961"/>
<text text-anchor="start" x="111.79" y="-973.8" font-family="Arial" font-size="14.00" fill="#000000">updated_at </text>
<text text-anchor="start" x="185.748" y="-973.8" font-family="Arial" font-size="14.00" fill="#666666">[timestamp(6)]</text>
</g>
<!-- clips&#45;&gt;messages -->
<g id="edge1" class="edge">
<title>clips:message_id&#45;&gt;messages:id</title>
<path fill="none" stroke="#000000" d="M292.0689,-1065.3012C346.7785,-1057.029 304.4026,-977.0397 334,-918 365.4331,-855.2986 351.8608,-787 422,-787"/>
<polygon fill="#000000" stroke="#000000" points="291.976,-1065.3076 281.6884,-1061.5108 286.988,-1065.6538 282,-1066 282,-1066 282,-1066 286.988,-1065.6538 282.3116,-1070.4892 291.976,-1065.3076 291.976,-1065.3076"/>
<text text-anchor="start" x="6.8887" y="-1075.5" font-family="Arial" font-size="10.00" fill="#000000">FOREIGN KEY (message_id) REFERENCES messages (id)</text>
</g>
<!-- messages_stamps -->
<g id="node3" class="node">
<title>messages_stamps</title>
<polygon fill="#efefef" stroke="transparent" points="386,-1141 386,-1175 656,-1175 656,-1141 386,-1141"/>
<polygon fill="none" stroke="#000000" points="386,-1141 386,-1175 656,-1175 656,-1141 386,-1141"/>
<text text-anchor="start" x="392.9644" y="-1154.6" font-family="Arial Bold" font-size="18.00" fill="#000000">messages_stamps</text>
<text text-anchor="start" x="553.0659" y="-1154.6" font-family="Arial" font-size="14.00" fill="#000000"> </text>
<text text-anchor="start" x="556.9556" y="-1154.6" font-family="Arial" font-size="14.00" fill="#666666">[BASE TABLE]</text>
<polygon fill="none" stroke="#000000" points="386,-1111 386,-1141 656,-1141 656,-1111 386,-1111"/>
<text text-anchor="start" x="393" y="-1123.8" font-family="Arial" font-size="14.00" fill="#000000">message_id </text>
<text text-anchor="start" x="472.3789" y="-1123.8" font-family="Arial" font-size="14.00" fill="#666666">[char(36)]</text>
<polygon fill="none" stroke="#000000" points="386,-1081 386,-1111 656,-1111 656,-1081 386,-1081"/>
<text text-anchor="start" x="393" y="-1093.8" font-family="Arial" font-size="14.00" fill="#000000">stamp_id </text>
<text text-anchor="start" x="453.6963" y="-1093.8" font-family="Arial" font-size="14.00" fill="#666666">[char(36)]</text>
<polygon fill="none" stroke="#000000" points="386,-1051 386,-1081 656,-1081 656,-1051 386,-1051"/>
<text text-anchor="start" x="393" y="-1063.8" font-family="Arial" font-size="14.00" fill="#000000">user_id </text>
<text text-anchor="start" x="442.8066" y="-1063.8" font-family="Arial" font-size="14.00" fill="#666666">[char(36)]</text>
<polygon fill="none" stroke="#000000" points="386,-1021 386,-1051 656,-1051 656,-1021 386,-1021"/>
<text text-anchor="start" x="393" y="-1033.8" font-family="Arial" font-size="14.00" fill="#000000">count </text>
<text text-anchor="start" x="431.1377" y="-1033.8" font-family="Arial" font-size="14.00" fill="#666666">[int(11)]</text>
<polygon fill="none" stroke="#000000" points="386,-991 386,-1021 656,-1021 656,-991 386,-991"/>
<text text-anchor="start" x="393" y="-1003.8" font-family="Arial" font-size="14.00" fill="#000000">created_at </text>
<text text-anchor="start" x="463.0479" y="-1003.8" font-family="Arial" font-size="14.00" fill="#666666">[timestamp(6)]</text>
<polygon fill="none" stroke="#000000" points="386,-961 386,-991 656,-991 656,-961 386,-961"/>
<text text-anchor="start" x="393" y="-973.8" font-family="Arial" font-size="14.00" fill="#000000">updated_at </text>
<text text-anchor="start" x="466.958" y="-973.8" font-family="Arial" font-size="14.00" fill="#666666">[timestamp(6)]</text>
</g>
<!-- messages_stamps&#45;&gt;messages -->
<g id="edge2" class="edge">
<title>messages_stamps:message_id&#45;&gt;messages:id</title>
<path fill="none" stroke="#000000" d="M376.2854,-1122.9821C342.3843,-1099.8241 358.265,-950.3493 386,-918 454.2027,-838.4503 550.7973,-961.5497 619,-882 646.4819,-849.9459 661.2222,-787 619,-787"/>
<polygon fill="#000000" stroke="#000000" points="376.4502,-1123.0332 384.665,-1130.2974 381.2251,-1124.5166 386,-1126 386,-1126 386,-1126 381.2251,-1124.5166 387.335,-1121.7026 376.4502,-1123.0332 376.4502,-1123.0332"/>
<text text-anchor="start" x="392.8887" y="-1135.5" font-family="Arial" font-size="10.00" fill="#000000">FOREIGN KEY (message_id) REFERENCES messages (id)</text>
</g>
<!-- unreads -->
<g id="node4" class="node">
<title>unreads</title>
<polygon fill="#efefef" stroke="transparent" points="761,-1111 761,-1145 940,-1145 940,-1111 761,-1111"/>
<polygon fill="none" stroke="#000000" points="761,-1111 761,-1145 940,-1145 940,-1111 761,-1111"/>
<text text-anchor="start" x="767.5039" y="-1124.6" font-family="Arial Bold" font-size="18.00" fill="#000000">unreads</text>
<text text-anchor="start" x="837.5264" y="-1124.6" font-family="Arial" font-size="14.00" fill="#000000"> </text>
<text text-anchor="start" x="841.416" y="-1124.6" font-family="Arial" font-size="14.00" fill="#666666">[BASE TABLE]</text>
<polygon fill="none" stroke="#000000" points="761,-1081 761,-1111 940,-1111 940,-1081 761,-1081"/>
<text text-anchor="start" x="768" y="-1093.8" font-family="Arial" font-size="14.00" fill="#000000">user_id </text>
<text text-anchor="start" x="817.8066" y="-1093.8" font-family="Arial" font-size="14.00" fill="#666666">[char(36)]</text>
<polygon fill="none" stroke="#000000" points="761,-1051 761,-1081 940,-1081 940,-1051 761,-1051"/>
<text text-anchor="start" x="768" y="-1063.8" font-family="Arial" font-size="14.00" fill="#000000">message_id </text>
<text text-anchor="start" x="847.3789" y="-1063.8" font-family="Arial" font-size="14.00" fill="#666666">[char(36)]</text>
<polygon fill="none" stroke="#000000" points="761,-1021 761,-1051 940,-1051 940,-1021 761,-1021"/>
<text text-anchor="start" x="768" y="-1033.8" font-family="Arial" font-size="14.00" fill="#000000">noticeable </text>
<text text-anchor="start" x="835.7168" y="-1033.8" font-family="Arial" font-size="14.00" fill="#666666">[tinyint(1)]</text>
<polygon fill="none" stroke="#000000" points="761,-991 761,-1021 940,-1021 940,-991 761,-991"/>
<text text-anchor="start" x="768" y="-1003.8" font-family="Arial" font-size="14.00" fill="#000000">created_at </text>
<text text-anchor="start" x="838.0479" y="-1003.8" font-family="Arial" font-size="14.00" fill="#666666">[timestamp(6)]</text>
</g>
<!-- unreads&#45;&gt;messages -->
<g id="edge3" class="edge">
<title>unreads:message_id&#45;&gt;messages:id</title>
<path fill="none" stroke="#000000" d="M750.9053,-1065.3009C696.0271,-1057.0246 737.9926,-976.9978 708,-918 676.1022,-855.2545 689.388,-787 619,-787"/>
<polygon fill="#000000" stroke="#000000" points="751.0239,-1065.309 760.6891,-1070.4892 756.0119,-1065.6545 761,-1066 761,-1066 761,-1066 756.0119,-1065.6545 761.3109,-1061.5108 751.0239,-1065.309 751.0239,-1065.309"/>
<text text-anchor="start" x="767.8887" y="-1075.5" font-family="Arial" font-size="10.00" fill="#000000">FOREIGN KEY (message_id) REFERENCES messages (id)</text>
</g>
</g>
</svg>
