<?xml version="1.0" encoding="UTF-8" standalone="no"?>
<!DOCTYPE svg PUBLIC "-//W3C//DTD SVG 1.1//EN"
 "http://www.w3.org/Graphics/SVG/1.1/DTD/svg11.dtd">
<!-- Generated by graphviz version 2.40.1 (20161225.0304)
 -->
<!-- Title: messages Pages: 1 -->
<svg width="720pt" height="1226pt"
     viewBox="0.00 0.00 720.00 1226.00" xmlns="http://www.w3.org/2000/svg">
<g id="graph0" class="graph" transform="scale(1 1) rotate(0) translate(4 1222)">
<title>messages</title>
<polygon fill="#ffffff" stroke="transparent" points="-4,4 -4,-1222 716,-1222 716,4 -4,4"/>
<!-- messages -->
<g id="node1" class="node">
<title>messages</title>
<polygon fill="#efefef" stroke="transparent" points="244,-802 244,-836 441,-836 441,-802 244,-802"/>
<polygon fill="none" stroke="#000000" points="244,-802 244,-836 441,-836 441,-802 244,-802"/>
<text text-anchor="start" x="250.9829" y="-815.6" font-family="Arial Bold" font-size="18.00" fill="#000000">messages</text>
<text text-anchor="start" x="338.0474" y="-815.6" font-family="Arial" font-size="14.00" fill="#000000"> </text>
<text text-anchor="start" x="341.937" y="-815.6" font-family="Arial" font-size="14.00" fill="#666666">[BASE TABLE]</text>
<polygon fill="none" stroke="#000000" points="244,-772 244,-802 441,-802 441,-772 244,-772"/>
<text text-anchor="start" x="251" y="-784.8" font-family="Arial" font-size="14.00" fill="#000000">id </text>
<text text-anchor="start" x="265.7861" y="-784.8" font-family="Arial" font-size="14.00" fill="#666666">[char(36)]</text>
<polygon fill="none" stroke="#000000" points="244,-742 244,-772 441,-772 441,-742 244,-742"/>
<text text-anchor="start" x="251" y="-754.8" font-family="Arial" font-size="14.00" fill="#000000">user_id </text>
<text text-anchor="start" x="300.8066" y="-754.8" font-family="Arial" font-size="14.00" fill="#666666">[char(36)]</text>
<polygon fill="none" stroke="#000000" points="244,-712 244,-742 441,-742 441,-712 244,-712"/>
<text text-anchor="start" x="251" y="-724.8" font-family="Arial" font-size="14.00" fill="#000000">channel_id </text>
<text text-anchor="start" x="322.6133" y="-724.8" font-family="Arial" font-size="14.00" fill="#666666">[char(36)]</text>
<polygon fill="none" stroke="#000000" points="244,-682 244,-712 441,-712 441,-682 244,-682"/>
<text text-anchor="start" x="251" y="-694.8" font-family="Arial" font-size="14.00" fill="#000000">text </text>
<text text-anchor="start" x="277.4551" y="-694.8" font-family="Arial" font-size="14.00" fill="#666666">[text]</text>
<polygon fill="none" stroke="#000000" points="244,-652 244,-682 441,-682 441,-652 244,-652"/>
<text text-anchor="start" x="251" y="-664.8" font-family="Arial" font-size="14.00" fill="#000000">created_at </text>
<text text-anchor="start" x="321.0479" y="-664.8" font-family="Arial" font-size="14.00" fill="#666666">[timestamp(6)]</text>
<polygon fill="none" stroke="#000000" points="244,-622 244,-652 441,-652 441,-622 244,-622"/>
<text text-anchor="start" x="251" y="-634.8" font-family="Arial" font-size="14.00" fill="#000000">updated_at </text>
<text text-anchor="start" x="324.958" y="-634.8" font-family="Arial" font-size="14.00" fill="#666666">[timestamp(6)]</text>
<polygon fill="none" stroke="#000000" points="244,-592 244,-622 441,-622 441,-592 244,-592"/>
<text text-anchor="start" x="251" y="-604.8" font-family="Arial" font-size="14.00" fill="#000000">deleted_at </text>
<text text-anchor="start" x="320.2822" y="-604.8" font-family="Arial" font-size="14.00" fill="#666666">[timestamp(6)]</text>
<polygon fill="none" stroke="#000000" stroke-width="3" points="242,-590.5 242,-837.5 442,-837.5 442,-590.5 242,-590.5"/>
</g>
<!-- users -->
<g id="node4" class="node">
<title>users</title>
<polygon fill="#efefef" stroke="transparent" points="107,-433 107,-467 290,-467 290,-433 107,-433"/>
<polygon fill="none" stroke="#000000" points="107,-433 107,-467 290,-467 290,-433 107,-433"/>
<text text-anchor="start" x="126.499" y="-446.6" font-family="Arial Bold" font-size="18.00" fill="#000000">users</text>
<text text-anchor="start" x="174.5313" y="-446.6" font-family="Arial" font-size="14.00" fill="#000000"> </text>
<text text-anchor="start" x="178.4209" y="-446.6" font-family="Arial" font-size="14.00" fill="#666666">[BASE TABLE]</text>
<polygon fill="none" stroke="#000000" points="107,-403 107,-433 290,-433 290,-403 107,-403"/>
<text text-anchor="start" x="114" y="-415.8" font-family="Arial" font-size="14.00" fill="#000000">id </text>
<text text-anchor="start" x="128.7861" y="-415.8" font-family="Arial" font-size="14.00" fill="#666666">[char(36)]</text>
<polygon fill="none" stroke="#000000" points="107,-373 107,-403 290,-403 290,-373 107,-373"/>
<text text-anchor="start" x="114" y="-385.8" font-family="Arial" font-size="14.00" fill="#000000">name </text>
<text text-anchor="start" x="152.9102" y="-385.8" font-family="Arial" font-size="14.00" fill="#666666">[varchar(32)]</text>
<polygon fill="none" stroke="#000000" points="107,-343 107,-373 290,-373 290,-343 107,-343"/>
<text text-anchor="start" x="113.6831" y="-355.8" font-family="Arial" font-size="14.00" fill="#000000">display_name </text>
<text text-anchor="start" x="203.9585" y="-355.8" font-family="Arial" font-size="14.00" fill="#666666">[varchar(64)]</text>
<polygon fill="none" stroke="#000000" points="107,-313 107,-343 290,-343 290,-313 107,-313"/>
<text text-anchor="start" x="114" y="-325.8" font-family="Arial" font-size="14.00" fill="#000000">password </text>
<text text-anchor="start" x="177.8066" y="-325.8" font-family="Arial" font-size="14.00" fill="#666666">[char(128)]</text>
<polygon fill="none" stroke="#000000" points="107,-283 107,-313 290,-313 290,-283 107,-283"/>
<text text-anchor="start" x="114" y="-295.8" font-family="Arial" font-size="14.00" fill="#000000">salt </text>
<text text-anchor="start" x="139.6758" y="-295.8" font-family="Arial" font-size="14.00" fill="#666666">[char(128)]</text>
<polygon fill="none" stroke="#000000" points="107,-253 107,-283 290,-283 290,-253 107,-253"/>
<text text-anchor="start" x="114" y="-265.8" font-family="Arial" font-size="14.00" fill="#000000">icon </text>
<text text-anchor="start" x="143.5723" y="-265.8" font-family="Arial" font-size="14.00" fill="#666666">[char(36)]</text>
<polygon fill="none" stroke="#000000" points="107,-223 107,-253 290,-253 290,-223 107,-223"/>
<text text-anchor="start" x="114" y="-235.8" font-family="Arial" font-size="14.00" fill="#000000">status </text>
<text text-anchor="start" x="155.2412" y="-235.8" font-family="Arial" font-size="14.00" fill="#666666">[tinyint(4)]</text>
<polygon fill="none" stroke="#000000" points="107,-193 107,-223 290,-223 290,-193 107,-193"/>
<text text-anchor="start" x="114" y="-205.8" font-family="Arial" font-size="14.00" fill="#000000">bot </text>
<text text-anchor="start" x="137.3516" y="-205.8" font-family="Arial" font-size="14.00" fill="#666666">[tinyint(1)]</text>
<polygon fill="none" stroke="#000000" points="107,-163 107,-193 290,-193 290,-163 107,-163"/>
<text text-anchor="start" x="114" y="-175.8" font-family="Arial" font-size="14.00" fill="#000000">role </text>
<text text-anchor="start" x="141.2344" y="-175.8" font-family="Arial" font-size="14.00" fill="#666666">[varchar(30)]</text>
<polygon fill="none" stroke="#000000" points="107,-133 107,-163 290,-163 290,-133 107,-133"/>
<text text-anchor="start" x="114" y="-145.8" font-family="Arial" font-size="14.00" fill="#000000">twitter_id </text>
<text text-anchor="start" x="173.9102" y="-145.8" font-family="Arial" font-size="14.00" fill="#666666">[varchar(15)]</text>
<polygon fill="none" stroke="#000000" points="107,-103 107,-133 290,-133 290,-103 107,-103"/>
<text text-anchor="start" x="114" y="-115.8" font-family="Arial" font-size="14.00" fill="#000000">last_online </text>
<text text-anchor="start" x="184.8271" y="-115.8" font-family="Arial" font-size="14.00" fill="#666666">[timestamp(6)]</text>
<polygon fill="none" stroke="#000000" points="107,-73 107,-103 290,-103 290,-73 107,-73"/>
<text text-anchor="start" x="114" y="-85.8" font-family="Arial" font-size="14.00" fill="#000000">created_at </text>
<text text-anchor="start" x="184.0479" y="-85.8" font-family="Arial" font-size="14.00" fill="#666666">[timestamp(6)]</text>
<polygon fill="none" stroke="#000000" points="107,-43 107,-73 290,-73 290,-43 107,-43"/>
<text text-anchor="start" x="114" y="-55.8" font-family="Arial" font-size="14.00" fill="#000000">updated_at </text>
<text text-anchor="start" x="187.958" y="-55.8" font-family="Arial" font-size="14.00" fill="#666666">[timestamp(6)]</text>
</g>
<!-- messages&#45;&gt;users -->
<g id="edge3" class="edge">
<title>messages:user_id&#45;&gt;users:id</title>
<path fill="none" stroke="#000000" d="M233.6715,-756.4301C154.3219,-747.1665 204.5296,-627.0107 244,-546 255.371,-522.6617 278.629,-533.3383 290,-510 307.9094,-473.242 330.8889,-418 290,-418"/>
<polygon fill="#000000" stroke="#000000" points="234.0152,-756.449 243.752,-761.4932 239.0076,-756.7245 244,-757 244,-757 244,-757 239.0076,-756.7245 244.248,-752.5068 234.0152,-756.449 234.0152,-756.449"/>
<text text-anchor="start" x="12.0117" y="-766.5" font-family="Arial" font-size="10.00" fill="#000000">FOREIGN KEY (user_id) REFERENCES users (id)</text>
</g>
<!-- channels -->
<g id="node5" class="node">
<title>channels</title>
<polygon fill="#efefef" stroke="transparent" points="394,-418 394,-452 581,-452 581,-418 394,-418"/>
<polygon fill="none" stroke="#000000" points="394,-418 394,-452 581,-452 581,-418 394,-418"/>
<text text-anchor="start" x="400.5005" y="-431.6" font-family="Arial Bold" font-size="18.00" fill="#000000">channels</text>
<text text-anchor="start" x="478.5298" y="-431.6" font-family="Arial" font-size="14.00" fill="#000000"> </text>
<text text-anchor="start" x="482.4194" y="-431.6" font-family="Arial" font-size="14.00" fill="#666666">[BASE TABLE]</text>
<polygon fill="none" stroke="#000000" points="394,-388 394,-418 581,-418 581,-388 394,-388"/>
<text text-anchor="start" x="401" y="-400.8" font-family="Arial" font-size="14.00" fill="#000000">id </text>
<text text-anchor="start" x="415.7861" y="-400.8" font-family="Arial" font-size="14.00" fill="#666666">[char(36)]</text>
<polygon fill="none" stroke="#000000" points="394,-358 394,-388 581,-388 581,-358 394,-358"/>
<text text-anchor="start" x="401" y="-370.8" font-family="Arial" font-size="14.00" fill="#000000">name </text>
<text text-anchor="start" x="439.9102" y="-370.8" font-family="Arial" font-size="14.00" fill="#666666">[varchar(20)]</text>
<polygon fill="none" stroke="#000000" points="394,-328 394,-358 581,-358 581,-328 394,-328"/>
<text text-anchor="start" x="401" y="-340.8" font-family="Arial" font-size="14.00" fill="#000000">parent_id </text>
<text text-anchor="start" x="463.2686" y="-340.8" font-family="Arial" font-size="14.00" fill="#666666">[char(36)]</text>
<polygon fill="none" stroke="#000000" points="394,-298 394,-328 581,-328 581,-298 394,-298"/>
<text text-anchor="start" x="401" y="-310.8" font-family="Arial" font-size="14.00" fill="#000000">topic </text>
<text text-anchor="start" x="434.4619" y="-310.8" font-family="Arial" font-size="14.00" fill="#666666">[text]</text>
<polygon fill="none" stroke="#000000" points="394,-268 394,-298 581,-298 581,-268 394,-268"/>
<text text-anchor="start" x="401" y="-280.8" font-family="Arial" font-size="14.00" fill="#000000">is_forced </text>
<text text-anchor="start" x="461.6963" y="-280.8" font-family="Arial" font-size="14.00" fill="#666666">[tinyint(1)]</text>
<polygon fill="none" stroke="#000000" points="394,-238 394,-268 581,-268 581,-238 394,-238"/>
<text text-anchor="start" x="401" y="-250.8" font-family="Arial" font-size="14.00" fill="#000000">is_public </text>
<text text-anchor="start" x="459.3652" y="-250.8" font-family="Arial" font-size="14.00" fill="#666666">[tinyint(1)]</text>
<polygon fill="none" stroke="#000000" points="394,-208 394,-238 581,-238 581,-208 394,-208"/>
<text text-anchor="start" x="401" y="-220.8" font-family="Arial" font-size="14.00" fill="#000000">is_visible </text>
<text text-anchor="start" x="461.6895" y="-220.8" font-family="Arial" font-size="14.00" fill="#666666">[tinyint(1)]</text>
<polygon fill="none" stroke="#000000" points="394,-178 394,-208 581,-208 581,-178 394,-178"/>
<text text-anchor="start" x="401" y="-190.8" font-family="Arial" font-size="14.00" fill="#000000">creator_id </text>
<text text-anchor="start" x="467.1445" y="-190.8" font-family="Arial" font-size="14.00" fill="#666666">[char(36)]</text>
<polygon fill="none" stroke="#000000" points="394,-148 394,-178 581,-178 581,-148 394,-148"/>
<text text-anchor="start" x="401" y="-160.8" font-family="Arial" font-size="14.00" fill="#000000">updater_id </text>
<text text-anchor="start" x="471.0547" y="-160.8" font-family="Arial" font-size="14.00" fill="#666666">[char(36)]</text>
<polygon fill="none" stroke="#000000" points="394,-118 394,-148 581,-148 581,-118 394,-118"/>
<text text-anchor="start" x="401" y="-130.8" font-family="Arial" font-size="14.00" fill="#000000">created_at </text>
<text text-anchor="start" x="471.0479" y="-130.8" font-family="Arial" font-size="14.00" fill="#666666">[timestamp(6)]</text>
<polygon fill="none" stroke="#000000" points="394,-88 394,-118 581,-118 581,-88 394,-88"/>
<text text-anchor="start" x="401" y="-100.8" font-family="Arial" font-size="14.00" fill="#000000">updated_at </text>
<text text-anchor="start" x="474.958" y="-100.8" font-family="Arial" font-size="14.00" fill="#666666">[timestamp(6)]</text>
<polygon fill="none" stroke="#000000" points="394,-58 394,-88 581,-88 581,-58 394,-58"/>
<text text-anchor="start" x="401" y="-70.8" font-family="Arial" font-size="14.00" fill="#000000">deleted_at </text>
<text text-anchor="start" x="470.2822" y="-70.8" font-family="Arial" font-size="14.00" fill="#666666">[timestamp(6)]</text>
</g>
<!-- messages&#45;&gt;channels -->
<g id="edge4" class="edge">
<title>messages:channel_id&#45;&gt;channels:id</title>
<path fill="none" stroke="#000000" d="M451.0582,-726.3703C516.8903,-717.5334 468.948,-617.5672 441,-546 429.7874,-517.2876 405.2126,-523.7124 394,-495 379.1262,-456.9123 353.1111,-403 394,-403"/>
<polygon fill="#000000" stroke="#000000" points="450.9805,-726.3751 440.7188,-722.5088 445.9902,-726.6875 441,-727 441,-727 441,-727 445.9902,-726.6875 441.2812,-731.4912 450.9805,-726.3751 450.9805,-726.3751"/>
<text text-anchor="start" x="448.4355" y="-736.5" font-family="Arial" font-size="10.00" fill="#000000">FOREIGN KEY (channel_id) REFERENCES channels (id)</text>
</g>
<!-- messages_stamps -->
<g id="node2" class="node">
<title>messages_stamps</title>
<polygon fill="#efefef" stroke="transparent" points="43,-1141 43,-1175 313,-1175 313,-1141 43,-1141"/>
<polygon fill="none" stroke="#000000" points="43,-1141 43,-1175 313,-1175 313,-1141 43,-1141"/>
<text text-anchor="start" x="49.9644" y="-1154.6" font-family="Arial Bold" font-size="18.00" fill="#000000">messages_stamps</text>
<text text-anchor="start" x="210.0659" y="-1154.6" font-family="Arial" font-size="14.00" fill="#000000"> </text>
<text text-anchor="start" x="213.9556" y="-1154.6" font-family="Arial" font-size="14.00" fill="#666666">[BASE TABLE]</text>
<polygon fill="none" stroke="#000000" points="43,-1111 43,-1141 313,-1141 313,-1111 43,-1111"/>
<text text-anchor="start" x="50" y="-1123.8" font-family="Arial" font-size="14.00" fill="#000000">message_id </text>
<text text-anchor="start" x="129.3789" y="-1123.8" font-family="Arial" font-size="14.00" fill="#666666">[char(36)]</text>
<polygon fill="none" stroke="#000000" points="43,-1081 43,-1111 313,-1111 313,-1081 43,-1081"/>
<text text-anchor="start" x="50" y="-1093.8" font-family="Arial" font-size="14.00" fill="#000000">stamp_id </text>
<text text-anchor="start" x="110.6963" y="-1093.8" font-family="Arial" font-size="14.00" fill="#666666">[char(36)]</text>
<polygon fill="none" stroke="#000000" points="43,-1051 43,-1081 313,-1081 313,-1051 43,-1051"/>
<text text-anchor="start" x="50" y="-1063.8" font-family="Arial" font-size="14.00" fill="#000000">user_id </text>
<text text-anchor="start" x="99.8066" y="-1063.8" font-family="Arial" font-size="14.00" fill="#666666">[char(36)]</text>
<polygon fill="none" stroke="#000000" points="43,-1021 43,-1051 313,-1051 313,-1021 43,-1021"/>
<text text-anchor="start" x="50" y="-1033.8" font-family="Arial" font-size="14.00" fill="#000000">count </text>
<text text-anchor="start" x="88.1377" y="-1033.8" font-family="Arial" font-size="14.00" fill="#666666">[int(11)]</text>
<polygon fill="none" stroke="#000000" points="43,-991 43,-1021 313,-1021 313,-991 43,-991"/>
<text text-anchor="start" x="50" y="-1003.8" font-family="Arial" font-size="14.00" fill="#000000">created_at </text>
<text text-anchor="start" x="120.0479" y="-1003.8" font-family="Arial" font-size="14.00" fill="#666666">[timestamp(6)]</text>
<polygon fill="none" stroke="#000000" points="43,-961 43,-991 313,-991 313,-961 43,-961"/>
<text text-anchor="start" x="50" y="-973.8" font-family="Arial" font-size="14.00" fill="#000000">updated_at </text>
<text text-anchor="start" x="123.958" y="-973.8" font-family="Arial" font-size="14.00" fill="#666666">[timestamp(6)]</text>
</g>
<!-- messages_stamps&#45;&gt;messages -->
<g id="edge1" class="edge">
<title>messages_stamps:message_id&#45;&gt;messages:id</title>
<path fill="none" stroke="#000000" d="M322.6112,-1123.057C355.7335,-1100.4631 335.0887,-954.4389 313,-918 295.0694,-888.4206 261.9306,-911.5794 244,-882 222.1129,-845.8936 201.7778,-787 244,-787"/>
<polygon fill="#000000" stroke="#000000" points="322.5618,-1123.0721 311.6824,-1121.6972 317.7809,-1124.536 313,-1126 313,-1126 313,-1126 317.7809,-1124.536 314.3176,-1130.3028 322.5618,-1123.0721 322.5618,-1123.0721"/>
<text text-anchor="start" x="319.8887" y="-1135.5" font-family="Arial" font-size="10.00" fill="#000000">FOREIGN KEY (message_id) REFERENCES messages (id)</text>
</g>
<!-- unreads -->
<g id="node3" class="node">
<title>unreads</title>
<polygon fill="#efefef" stroke="transparent" points="418,-1111 418,-1145 597,-1145 597,-1111 418,-1111"/>
<polygon fill="none" stroke="#000000" points="418,-1111 418,-1145 597,-1145 597,-1111 418,-1111"/>
<text text-anchor="start" x="424.5039" y="-1124.6" font-family="Arial Bold" font-size="18.00" fill="#000000">unreads</text>
<text text-anchor="start" x="494.5264" y="-1124.6" font-family="Arial" font-size="14.00" fill="#000000"> </text>
<text text-anchor="start" x="498.416" y="-1124.6" font-family="Arial" font-size="14.00" fill="#666666">[BASE TABLE]</text>
<polygon fill="none" stroke="#000000" points="418,-1081 418,-1111 597,-1111 597,-1081 418,-1081"/>
<text text-anchor="start" x="425" y="-1093.8" font-family="Arial" font-size="14.00" fill="#000000">user_id </text>
<text text-anchor="start" x="474.8066" y="-1093.8" font-family="Arial" font-size="14.00" fill="#666666">[char(36)]</text>
<polygon fill="none" stroke="#000000" points="418,-1051 418,-1081 597,-1081 597,-1051 418,-1051"/>
<text text-anchor="start" x="425" y="-1063.8" font-family="Arial" font-size="14.00" fill="#000000">message_id </text>
<text text-anchor="start" x="504.3789" y="-1063.8" font-family="Arial" font-size="14.00" fill="#666666">[char(36)]</text>
<polygon fill="none" stroke="#000000" points="418,-1021 418,-1051 597,-1051 597,-1021 418,-1021"/>
<text text-anchor="start" x="425" y="-1033.8" font-family="Arial" font-size="14.00" fill="#000000">noticeable </text>
<text text-anchor="start" x="492.7168" y="-1033.8" font-family="Arial" font-size="14.00" fill="#666666">[tinyint(1)]</text>
<polygon fill="none" stroke="#000000" points="418,-991 418,-1021 597,-1021 597,-991 418,-991"/>
<text text-anchor="start" x="425" y="-1003.8" font-family="Arial" font-size="14.00" fill="#000000">created_at </text>
<text text-anchor="start" x="495.0479" y="-1003.8" font-family="Arial" font-size="14.00" fill="#666666">[timestamp(6)]</text>
</g>
<!-- unreads&#45;&gt;messages -->
<g id="edge2" class="edge">
<title>unreads:message_id&#45;&gt;messages:id</title>
<path fill="none" stroke="#000000" d="M407.858,-1064.9376C371.8487,-1056.2403 409.8977,-995.8713 418,-948 423.1838,-917.3721 435.8162,-912.6279 441,-882 448.046,-840.3698 483.2222,-787 441,-787"/>
<polygon fill="#000000" stroke="#000000" points="408.0544,-1064.9581 417.5311,-1070.4755 413.0272,-1065.479 418,-1066 418,-1066 418,-1066 413.0272,-1065.479 418.4689,-1061.5245 408.0544,-1064.9581 408.0544,-1064.9581"/>
<text text-anchor="start" x="424.8887" y="-1075.5" font-family="Arial" font-size="10.00" fill="#000000">FOREIGN KEY (message_id) REFERENCES messages (id)</text>
</g>
</g>
</svg>
