<?xml version="1.0" encoding="UTF-8" standalone="no"?>
<!DOCTYPE svg PUBLIC "-//W3C//DTD SVG 1.1//EN"
 "http://www.w3.org/Graphics/SVG/1.1/DTD/svg11.dtd">
<!-- Generated by graphviz version 2.40.1 (20161225.0304)
 -->
<!-- Title: messages Pages: 1 -->
<svg width="965pt" height="1199pt"
     viewBox="0.00 0.00 964.50 1199.00" xmlns="http://www.w3.org/2000/svg">
<g id="graph0" class="graph" transform="scale(1 1) rotate(0) translate(4 1195)">
<title>messages</title>
<polygon fill="#ffffff" stroke="transparent" points="-4,4 -4,-1195 960.5,-1195 960.5,4 -4,4"/>
<!-- messages -->
<g id="node1" class="node">
<title>messages</title>
<polygon fill="#efefef" stroke="transparent" points="392.5,-772.5 392.5,-807.5 585.5,-807.5 585.5,-772.5 392.5,-772.5"/>
<polygon fill="none" stroke="#000000" points="392.5,-772.5 392.5,-807.5 585.5,-807.5 585.5,-772.5 392.5,-772.5"/>
<text text-anchor="start" x="399.3646" y="-785.3" font-family="Arial Bold" font-size="18.00" fill="#000000">messages</text>
<text text-anchor="start" x="481.3816" y="-785.3" font-family="Arial" font-size="14.00" fill="#000000"> </text>
<text text-anchor="start" x="485.2722" y="-785.3" font-family="Arial" font-size="14.00" fill="#666666">[BASE TABLE]</text>
<polygon fill="none" stroke="#000000" points="392.5,-742.5 392.5,-772.5 585.5,-772.5 585.5,-742.5 392.5,-742.5"/>
<text text-anchor="start" x="399.5" y="-753.9" font-family="Arial" font-size="14.00" fill="#000000">id </text>
<text text-anchor="start" x="414.2798" y="-753.9" font-family="Arial" font-size="14.00" fill="#666666">[char(36)]</text>
<polygon fill="none" stroke="#000000" points="392.5,-712.5 392.5,-742.5 585.5,-742.5 585.5,-712.5 392.5,-712.5"/>
<text text-anchor="start" x="399.5" y="-723.9" font-family="Arial" font-size="14.00" fill="#000000">user_id </text>
<text text-anchor="start" x="449.2882" y="-723.9" font-family="Arial" font-size="14.00" fill="#666666">[char(36)]</text>
<polygon fill="none" stroke="#000000" points="392.5,-682.5 392.5,-712.5 585.5,-712.5 585.5,-682.5 392.5,-682.5"/>
<text text-anchor="start" x="399.5" y="-693.9" font-family="Arial" font-size="14.00" fill="#000000">channel_id </text>
<text text-anchor="start" x="471.082" y="-693.9" font-family="Arial" font-size="14.00" fill="#666666">[char(36)]</text>
<polygon fill="none" stroke="#000000" points="392.5,-652.5 392.5,-682.5 585.5,-682.5 585.5,-652.5 392.5,-652.5"/>
<text text-anchor="start" x="399.5" y="-663.9" font-family="Arial" font-size="14.00" fill="#000000">text </text>
<text text-anchor="start" x="425.9544" y="-663.9" font-family="Arial" font-size="14.00" fill="#666666">[text]</text>
<polygon fill="none" stroke="#000000" points="392.5,-622.5 392.5,-652.5 585.5,-652.5 585.5,-622.5 392.5,-622.5"/>
<text text-anchor="start" x="399.5" y="-633.9" font-family="Arial" font-size="14.00" fill="#000000">created_at </text>
<text text-anchor="start" x="469.528" y="-633.9" font-family="Arial" font-size="14.00" fill="#666666">[datetime(6)]</text>
<polygon fill="none" stroke="#000000" points="392.5,-592.5 392.5,-622.5 585.5,-622.5 585.5,-592.5 392.5,-592.5"/>
<text text-anchor="start" x="399.5" y="-603.9" font-family="Arial" font-size="14.00" fill="#000000">updated_at </text>
<text text-anchor="start" x="473.4326" y="-603.9" font-family="Arial" font-size="14.00" fill="#666666">[datetime(6)]</text>
<polygon fill="none" stroke="#000000" points="392.5,-562.5 392.5,-592.5 585.5,-592.5 585.5,-562.5 392.5,-562.5"/>
<text text-anchor="start" x="399.5" y="-573.9" font-family="Arial" font-size="14.00" fill="#000000">deleted_at </text>
<text text-anchor="start" x="468.7566" y="-573.9" font-family="Arial" font-size="14.00" fill="#666666">[datetime(6)]</text>
<polygon fill="none" stroke="#000000" stroke-width="3" points="390.5,-561.5 390.5,-809.5 586.5,-809.5 586.5,-561.5 390.5,-561.5"/>
</g>
<!-- users -->
<g id="node5" class="node">
<title>users</title>
<polygon fill="#efefef" stroke="transparent" points="254.5,-387.5 254.5,-422.5 437.5,-422.5 437.5,-387.5 254.5,-387.5"/>
<polygon fill="none" stroke="#000000" points="254.5,-387.5 254.5,-422.5 437.5,-422.5 437.5,-387.5 254.5,-387.5"/>
<text text-anchor="start" x="275.3708" y="-400.3" font-family="Arial Bold" font-size="18.00" fill="#000000">users</text>
<text text-anchor="start" x="319.3754" y="-400.3" font-family="Arial" font-size="14.00" fill="#000000"> </text>
<text text-anchor="start" x="323.266" y="-400.3" font-family="Arial" font-size="14.00" fill="#666666">[BASE TABLE]</text>
<polygon fill="none" stroke="#000000" points="254.5,-357.5 254.5,-387.5 437.5,-387.5 437.5,-357.5 254.5,-357.5"/>
<text text-anchor="start" x="261.5" y="-368.9" font-family="Arial" font-size="14.00" fill="#000000">id </text>
<text text-anchor="start" x="276.2798" y="-368.9" font-family="Arial" font-size="14.00" fill="#666666">[char(36)]</text>
<polygon fill="none" stroke="#000000" points="254.5,-327.5 254.5,-357.5 437.5,-357.5 437.5,-327.5 254.5,-327.5"/>
<text text-anchor="start" x="261.5" y="-338.9" font-family="Arial" font-size="14.00" fill="#000000">name </text>
<text text-anchor="start" x="300.399" y="-338.9" font-family="Arial" font-size="14.00" fill="#666666">[varchar(32)]</text>
<polygon fill="none" stroke="#000000" points="254.5,-297.5 254.5,-327.5 437.5,-327.5 437.5,-297.5 254.5,-297.5"/>
<text text-anchor="start" x="261.2104" y="-308.9" font-family="Arial" font-size="14.00" fill="#000000">display_name </text>
<text text-anchor="start" x="351.453" y="-308.9" font-family="Arial" font-size="14.00" fill="#666666">[varchar(64)]</text>
<polygon fill="none" stroke="#000000" points="254.5,-267.5 254.5,-297.5 437.5,-297.5 437.5,-267.5 254.5,-267.5"/>
<text text-anchor="start" x="261.5" y="-278.9" font-family="Arial" font-size="14.00" fill="#000000">password </text>
<text text-anchor="start" x="325.2882" y="-278.9" font-family="Arial" font-size="14.00" fill="#666666">[char(128)]</text>
<polygon fill="none" stroke="#000000" points="254.5,-237.5 254.5,-267.5 437.5,-267.5 437.5,-237.5 254.5,-237.5"/>
<text text-anchor="start" x="261.5" y="-248.9" font-family="Arial" font-size="14.00" fill="#000000">salt </text>
<text text-anchor="start" x="287.1704" y="-248.9" font-family="Arial" font-size="14.00" fill="#666666">[char(128)]</text>
<polygon fill="none" stroke="#000000" points="254.5,-207.5 254.5,-237.5 437.5,-237.5 437.5,-207.5 254.5,-207.5"/>
<text text-anchor="start" x="261.5" y="-218.9" font-family="Arial" font-size="14.00" fill="#000000">icon </text>
<text text-anchor="start" x="291.0624" y="-218.9" font-family="Arial" font-size="14.00" fill="#666666">[char(36)]</text>
<polygon fill="none" stroke="#000000" points="254.5,-177.5 254.5,-207.5 437.5,-207.5 437.5,-177.5 254.5,-177.5"/>
<text text-anchor="start" x="261.5" y="-188.9" font-family="Arial" font-size="14.00" fill="#000000">status </text>
<text text-anchor="start" x="302.737" y="-188.9" font-family="Arial" font-size="14.00" fill="#666666">[tinyint(4)]</text>
<polygon fill="none" stroke="#000000" points="254.5,-147.5 254.5,-177.5 437.5,-177.5 437.5,-147.5 254.5,-147.5"/>
<text text-anchor="start" x="261.5" y="-158.9" font-family="Arial" font-size="14.00" fill="#000000">bot </text>
<text text-anchor="start" x="284.8464" y="-158.9" font-family="Arial" font-size="14.00" fill="#666666">[tinyint(1)]</text>
<polygon fill="none" stroke="#000000" points="254.5,-117.5 254.5,-147.5 437.5,-147.5 437.5,-117.5 254.5,-117.5"/>
<text text-anchor="start" x="261.5" y="-128.9" font-family="Arial" font-size="14.00" fill="#000000">role </text>
<text text-anchor="start" x="288.723" y="-128.9" font-family="Arial" font-size="14.00" fill="#666666">[varchar(30)]</text>
<polygon fill="none" stroke="#000000" points="254.5,-87.5 254.5,-117.5 437.5,-117.5 437.5,-87.5 254.5,-87.5"/>
<text text-anchor="start" x="261.5" y="-98.9" font-family="Arial" font-size="14.00" fill="#000000">created_at </text>
<text text-anchor="start" x="331.528" y="-98.9" font-family="Arial" font-size="14.00" fill="#666666">[datetime(6)]</text>
<polygon fill="none" stroke="#000000" points="254.5,-57.5 254.5,-87.5 437.5,-87.5 437.5,-57.5 254.5,-57.5"/>
<text text-anchor="start" x="261.5" y="-68.9" font-family="Arial" font-size="14.00" fill="#000000">updated_at </text>
<text text-anchor="start" x="335.4326" y="-68.9" font-family="Arial" font-size="14.00" fill="#666666">[datetime(6)]</text>
</g>
<!-- messages&#45;&gt;users -->
<g id="edge4" class="edge">
<title>messages:user_id&#45;&gt;users:id</title>
<path fill="none" stroke="#000000" d="M382.2307,-726.9464C303.6267,-717.9455 360.7049,-601.0908 392.5,-517 403.1909,-488.7249 426.8091,-494.2751 437.5,-466 452.1969,-427.1301 479.0556,-372.5 437.5,-372.5"/>
<polygon fill="#000000" stroke="#000000" points="382.5145,-726.9616 392.2577,-731.9935 387.5072,-727.2308 392.5,-727.5 392.5,-727.5 392.5,-727.5 387.5072,-727.2308 392.7423,-723.0065 382.5145,-726.9616 382.5145,-726.9616"/>
<text text-anchor="start" x="159.445" y="-737.5" font-family="Arial" font-size="10.00" fill="#000000">FOREIGN KEY (user_id) REFERENCES users (id)</text>
</g>
<!-- channels -->
<g id="node6" class="node">
<title>channels</title>
<polygon fill="#efefef" stroke="transparent" points="541.5,-402.5 541.5,-437.5 724.5,-437.5 724.5,-402.5 541.5,-402.5"/>
<polygon fill="none" stroke="#000000" points="541.5,-402.5 541.5,-437.5 724.5,-437.5 724.5,-402.5 541.5,-402.5"/>
<text text-anchor="start" x="548.3605" y="-415.3" font-family="Arial Bold" font-size="18.00" fill="#000000">channels</text>
<text text-anchor="start" x="620.3857" y="-415.3" font-family="Arial" font-size="14.00" fill="#000000"> </text>
<text text-anchor="start" x="624.2763" y="-415.3" font-family="Arial" font-size="14.00" fill="#666666">[BASE TABLE]</text>
<polygon fill="none" stroke="#000000" points="541.5,-372.5 541.5,-402.5 724.5,-402.5 724.5,-372.5 541.5,-372.5"/>
<text text-anchor="start" x="548.5" y="-383.9" font-family="Arial" font-size="14.00" fill="#000000">id </text>
<text text-anchor="start" x="563.2798" y="-383.9" font-family="Arial" font-size="14.00" fill="#666666">[char(36)]</text>
<polygon fill="none" stroke="#000000" points="541.5,-342.5 541.5,-372.5 724.5,-372.5 724.5,-342.5 541.5,-342.5"/>
<text text-anchor="start" x="548.5" y="-353.9" font-family="Arial" font-size="14.00" fill="#000000">name </text>
<text text-anchor="start" x="587.399" y="-353.9" font-family="Arial" font-size="14.00" fill="#666666">[varchar(20)]</text>
<polygon fill="none" stroke="#000000" points="541.5,-312.5 541.5,-342.5 724.5,-342.5 724.5,-312.5 541.5,-312.5"/>
<text text-anchor="start" x="548.5" y="-323.9" font-family="Arial" font-size="14.00" fill="#000000">parent_id </text>
<text text-anchor="start" x="610.744" y="-323.9" font-family="Arial" font-size="14.00" fill="#666666">[char(36)]</text>
<polygon fill="none" stroke="#000000" points="541.5,-282.5 541.5,-312.5 724.5,-312.5 724.5,-282.5 541.5,-282.5"/>
<text text-anchor="start" x="548.5" y="-293.9" font-family="Arial" font-size="14.00" fill="#000000">topic </text>
<text text-anchor="start" x="581.953" y="-293.9" font-family="Arial" font-size="14.00" fill="#666666">[text]</text>
<polygon fill="none" stroke="#000000" points="541.5,-252.5 541.5,-282.5 724.5,-282.5 724.5,-252.5 541.5,-252.5"/>
<text text-anchor="start" x="548.5" y="-263.9" font-family="Arial" font-size="14.00" fill="#000000">is_forced </text>
<text text-anchor="start" x="609.1788" y="-263.9" font-family="Arial" font-size="14.00" fill="#666666">[tinyint(1)]</text>
<polygon fill="none" stroke="#000000" points="541.5,-222.5 541.5,-252.5 724.5,-252.5 724.5,-222.5 541.5,-222.5"/>
<text text-anchor="start" x="548.5" y="-233.9" font-family="Arial" font-size="14.00" fill="#000000">is_public </text>
<text text-anchor="start" x="606.8408" y="-233.9" font-family="Arial" font-size="14.00" fill="#666666">[tinyint(1)]</text>
<polygon fill="none" stroke="#000000" points="541.5,-192.5 541.5,-222.5 724.5,-222.5 724.5,-192.5 541.5,-192.5"/>
<text text-anchor="start" x="548.5" y="-203.9" font-family="Arial" font-size="14.00" fill="#000000">is_visible </text>
<text text-anchor="start" x="609.1648" y="-203.9" font-family="Arial" font-size="14.00" fill="#666666">[tinyint(1)]</text>
<polygon fill="none" stroke="#000000" points="541.5,-162.5 541.5,-192.5 724.5,-192.5 724.5,-162.5 541.5,-162.5"/>
<text text-anchor="start" x="548.5" y="-173.9" font-family="Arial" font-size="14.00" fill="#000000">creator_id </text>
<text text-anchor="start" x="614.622" y="-173.9" font-family="Arial" font-size="14.00" fill="#666666">[char(36)]</text>
<polygon fill="none" stroke="#000000" points="541.5,-132.5 541.5,-162.5 724.5,-162.5 724.5,-132.5 541.5,-132.5"/>
<text text-anchor="start" x="548.5" y="-143.9" font-family="Arial" font-size="14.00" fill="#000000">updater_id </text>
<text text-anchor="start" x="618.5266" y="-143.9" font-family="Arial" font-size="14.00" fill="#666666">[char(36)]</text>
<polygon fill="none" stroke="#000000" points="541.5,-102.5 541.5,-132.5 724.5,-132.5 724.5,-102.5 541.5,-102.5"/>
<text text-anchor="start" x="548.5" y="-113.9" font-family="Arial" font-size="14.00" fill="#000000">created_at </text>
<text text-anchor="start" x="618.528" y="-113.9" font-family="Arial" font-size="14.00" fill="#666666">[datetime(6)]</text>
<polygon fill="none" stroke="#000000" points="541.5,-72.5 541.5,-102.5 724.5,-102.5 724.5,-72.5 541.5,-72.5"/>
<text text-anchor="start" x="548.5" y="-83.9" font-family="Arial" font-size="14.00" fill="#000000">updated_at </text>
<text text-anchor="start" x="622.4326" y="-83.9" font-family="Arial" font-size="14.00" fill="#666666">[datetime(6)]</text>
<polygon fill="none" stroke="#000000" points="541.5,-42.5 541.5,-72.5 724.5,-72.5 724.5,-42.5 541.5,-42.5"/>
<text text-anchor="start" x="548.5" y="-53.9" font-family="Arial" font-size="14.00" fill="#000000">deleted_at </text>
<text text-anchor="start" x="617.7566" y="-53.9" font-family="Arial" font-size="14.00" fill="#666666">[datetime(6)]</text>
</g>
<!-- messages&#45;&gt;channels -->
<g id="edge5" class="edge">
<title>messages:channel_id&#45;&gt;channels:id</title>
<path fill="none" stroke="#000000" d="M595.5603,-696.8592C661.6244,-687.868 618.3104,-586.2378 585.5,-517 574.6799,-494.167 552.3201,-503.833 541.5,-481 523.7047,-443.4475 499.9444,-387.5 541.5,-387.5"/>
<polygon fill="#000000" stroke="#000000" points="595.4798,-696.8642 585.2139,-693.0091 590.4899,-697.1821 585.5,-697.5 585.5,-697.5 585.5,-697.5 590.4899,-697.1821 585.7861,-701.9909 595.4798,-696.8642 595.4798,-696.8642"/>
<text text-anchor="start" x="592.878" y="-707.5" font-family="Arial" font-size="10.00" fill="#000000">FOREIGN KEY (channel_id) REFERENCES channels (id)</text>
</g>
<!-- messages_stamps -->
<g id="node2" class="node">
<title>messages_stamps</title>
<polygon fill="#efefef" stroke="transparent" points="43.5,-1112.5 43.5,-1147.5 304.5,-1147.5 304.5,-1112.5 43.5,-1112.5"/>
<polygon fill="none" stroke="#000000" points="43.5,-1112.5 43.5,-1147.5 304.5,-1147.5 304.5,-1112.5 43.5,-1112.5"/>
<text text-anchor="start" x="50.3581" y="-1125.3" font-family="Arial Bold" font-size="18.00" fill="#000000">messages_stamps</text>
<text text-anchor="start" x="200.3881" y="-1125.3" font-family="Arial" font-size="14.00" fill="#000000"> </text>
<text text-anchor="start" x="204.2787" y="-1125.3" font-family="Arial" font-size="14.00" fill="#666666">[BASE TABLE]</text>
<polygon fill="none" stroke="#000000" points="43.5,-1082.5 43.5,-1112.5 304.5,-1112.5 304.5,-1082.5 43.5,-1082.5"/>
<text text-anchor="start" x="50.5" y="-1093.9" font-family="Arial" font-size="14.00" fill="#000000">message_id </text>
<text text-anchor="start" x="129.8534" y="-1093.9" font-family="Arial" font-size="14.00" fill="#666666">[char(36)]</text>
<polygon fill="none" stroke="#000000" points="43.5,-1052.5 43.5,-1082.5 304.5,-1082.5 304.5,-1052.5 43.5,-1052.5"/>
<text text-anchor="start" x="50.5" y="-1063.9" font-family="Arial" font-size="14.00" fill="#000000">stamp_id </text>
<text text-anchor="start" x="111.1788" y="-1063.9" font-family="Arial" font-size="14.00" fill="#666666">[char(36)]</text>
<polygon fill="none" stroke="#000000" points="43.5,-1022.5 43.5,-1052.5 304.5,-1052.5 304.5,-1022.5 43.5,-1022.5"/>
<text text-anchor="start" x="50.5" y="-1033.9" font-family="Arial" font-size="14.00" fill="#000000">user_id </text>
<text text-anchor="start" x="100.2882" y="-1033.9" font-family="Arial" font-size="14.00" fill="#666666">[char(36)]</text>
<polygon fill="none" stroke="#000000" points="43.5,-992.5 43.5,-1022.5 304.5,-1022.5 304.5,-992.5 43.5,-992.5"/>
<text text-anchor="start" x="50.5" y="-1003.9" font-family="Arial" font-size="14.00" fill="#000000">count </text>
<text text-anchor="start" x="88.629" y="-1003.9" font-family="Arial" font-size="14.00" fill="#666666">[int(11)]</text>
<polygon fill="none" stroke="#000000" points="43.5,-962.5 43.5,-992.5 304.5,-992.5 304.5,-962.5 43.5,-962.5"/>
<text text-anchor="start" x="50.5" y="-973.9" font-family="Arial" font-size="14.00" fill="#000000">created_at </text>
<text text-anchor="start" x="120.528" y="-973.9" font-family="Arial" font-size="14.00" fill="#666666">[datetime(6)]</text>
<polygon fill="none" stroke="#000000" points="43.5,-932.5 43.5,-962.5 304.5,-962.5 304.5,-932.5 43.5,-932.5"/>
<text text-anchor="start" x="50.5" y="-943.9" font-family="Arial" font-size="14.00" fill="#000000">updated_at </text>
<text text-anchor="start" x="124.4326" y="-943.9" font-family="Arial" font-size="14.00" fill="#666666">[datetime(6)]</text>
</g>
<!-- messages_stamps&#45;&gt;messages -->
<g id="edge1" class="edge">
<title>messages_stamps:message_id&#45;&gt;messages:id</title>
<path fill="none" stroke="#000000" d="M314.5419,-1095.3288C376.4829,-1066.3721 318.1131,-757.5 392.5,-757.5"/>
<polygon fill="#000000" stroke="#000000" points="314.2742,-1095.3866 303.549,-1093.1016 309.3871,-1096.4433 304.5,-1097.5 304.5,-1097.5 304.5,-1097.5 309.3871,-1096.4433 305.451,-1101.8984 314.2742,-1095.3866 314.2742,-1095.3866"/>
<text text-anchor="start" x="311.327" y="-1107.5" font-family="Arial" font-size="10.00" fill="#000000">FOREIGN KEY (message_id) REFERENCES messages (id)</text>
</g>
<!-- pins -->
<g id="node3" class="node">
<title>pins</title>
<polygon fill="#efefef" stroke="transparent" points="408.5,-1082.5 408.5,-1117.5 570.5,-1117.5 570.5,-1082.5 408.5,-1082.5"/>
<polygon fill="none" stroke="#000000" points="408.5,-1082.5 408.5,-1117.5 570.5,-1117.5 570.5,-1082.5 408.5,-1082.5"/>
<text text-anchor="start" x="424.3698" y="-1095.3" font-family="Arial Bold" font-size="18.00" fill="#000000">pins</text>
<text text-anchor="start" x="457.3764" y="-1095.3" font-family="Arial" font-size="14.00" fill="#000000"> </text>
<text text-anchor="start" x="461.267" y="-1095.3" font-family="Arial" font-size="14.00" fill="#666666">[BASE TABLE]</text>
<polygon fill="none" stroke="#000000" points="408.5,-1052.5 408.5,-1082.5 570.5,-1082.5 570.5,-1052.5 408.5,-1052.5"/>
<text text-anchor="start" x="415.5" y="-1063.9" font-family="Arial" font-size="14.00" fill="#000000">id </text>
<text text-anchor="start" x="430.2798" y="-1063.9" font-family="Arial" font-size="14.00" fill="#666666">[char(36)]</text>
<polygon fill="none" stroke="#000000" points="408.5,-1022.5 408.5,-1052.5 570.5,-1052.5 570.5,-1022.5 408.5,-1022.5"/>
<text text-anchor="start" x="415.5" y="-1033.9" font-family="Arial" font-size="14.00" fill="#000000">message_id </text>
<text text-anchor="start" x="494.8534" y="-1033.9" font-family="Arial" font-size="14.00" fill="#666666">[char(36)]</text>
<polygon fill="none" stroke="#000000" points="408.5,-992.5 408.5,-1022.5 570.5,-1022.5 570.5,-992.5 408.5,-992.5"/>
<text text-anchor="start" x="415.5" y="-1003.9" font-family="Arial" font-size="14.00" fill="#000000">user_id </text>
<text text-anchor="start" x="465.2882" y="-1003.9" font-family="Arial" font-size="14.00" fill="#666666">[char(36)]</text>
<polygon fill="none" stroke="#000000" points="408.5,-962.5 408.5,-992.5 570.5,-992.5 570.5,-962.5 408.5,-962.5"/>
<text text-anchor="start" x="415.2041" y="-973.9" font-family="Arial" font-size="14.00" fill="#000000">created_at </text>
<text text-anchor="start" x="485.2321" y="-973.9" font-family="Arial" font-size="14.00" fill="#666666">[datetime(6)]</text>
</g>
<!-- pins&#45;&gt;messages -->
<g id="edge2" class="edge">
<title>pins:message_id&#45;&gt;messages:id</title>
<path fill="none" stroke="#000000" d="M398.0786,-1036.3106C359.6487,-1026.6005 380.9252,-959.7115 408.5,-920 456.386,-851.0375 537.614,-922.9625 585.5,-854 609.962,-818.7712 628.3889,-757.5 585.5,-757.5"/>
<polygon fill="#000000" stroke="#000000" points="398.5645,-1036.366 407.9897,-1041.971 403.5322,-1036.933 408.5,-1037.5 408.5,-1037.5 408.5,-1037.5 403.5322,-1036.933 409.0103,-1033.029 398.5645,-1036.366 398.5645,-1036.366"/>
<text text-anchor="start" x="415.327" y="-1047.5" font-family="Arial" font-size="10.00" fill="#000000">FOREIGN KEY (message_id) REFERENCES messages (id)</text>
</g>
<!-- unreads -->
<g id="node4" class="node">
<title>unreads</title>
<polygon fill="#efefef" stroke="transparent" points="674.5,-1082.5 674.5,-1117.5 850.5,-1117.5 850.5,-1082.5 674.5,-1082.5"/>
<polygon fill="none" stroke="#000000" points="674.5,-1082.5 674.5,-1117.5 850.5,-1117.5 850.5,-1082.5 674.5,-1082.5"/>
<text text-anchor="start" x="681.3615" y="-1095.3" font-family="Arial Bold" font-size="18.00" fill="#000000">unreads</text>
<text text-anchor="start" x="746.3847" y="-1095.3" font-family="Arial" font-size="14.00" fill="#000000"> </text>
<text text-anchor="start" x="750.2753" y="-1095.3" font-family="Arial" font-size="14.00" fill="#666666">[BASE TABLE]</text>
<polygon fill="none" stroke="#000000" points="674.5,-1052.5 674.5,-1082.5 850.5,-1082.5 850.5,-1052.5 674.5,-1052.5"/>
<text text-anchor="start" x="681.5" y="-1063.9" font-family="Arial" font-size="14.00" fill="#000000">user_id </text>
<text text-anchor="start" x="731.2882" y="-1063.9" font-family="Arial" font-size="14.00" fill="#666666">[char(36)]</text>
<polygon fill="none" stroke="#000000" points="674.5,-1022.5 674.5,-1052.5 850.5,-1052.5 850.5,-1022.5 674.5,-1022.5"/>
<text text-anchor="start" x="681.5" y="-1033.9" font-family="Arial" font-size="14.00" fill="#000000">message_id </text>
<text text-anchor="start" x="760.8534" y="-1033.9" font-family="Arial" font-size="14.00" fill="#666666">[char(36)]</text>
<polygon fill="none" stroke="#000000" points="674.5,-992.5 674.5,-1022.5 850.5,-1022.5 850.5,-992.5 674.5,-992.5"/>
<text text-anchor="start" x="681.5" y="-1003.9" font-family="Arial" font-size="14.00" fill="#000000">noticeable </text>
<text text-anchor="start" x="749.19" y="-1003.9" font-family="Arial" font-size="14.00" fill="#666666">[tinyint(1)]</text>
<polygon fill="none" stroke="#000000" points="674.5,-962.5 674.5,-992.5 850.5,-992.5 850.5,-962.5 674.5,-962.5"/>
<text text-anchor="start" x="681.5" y="-973.9" font-family="Arial" font-size="14.00" fill="#000000">created_at </text>
<text text-anchor="start" x="751.528" y="-973.9" font-family="Arial" font-size="14.00" fill="#666666">[datetime(6)]</text>
</g>
<!-- unreads&#45;&gt;messages -->
<g id="edge3" class="edge">
<title>unreads:message_id&#45;&gt;messages:id</title>
<path fill="none" stroke="#000000" d="M664.7123,-1035.0794C613.4383,-1007.7124 647.2193,-757.5 585.5,-757.5"/>
<polygon fill="#000000" stroke="#000000" points="664.7925,-1035.0991 673.4196,-1041.8684 669.6462,-1036.2996 674.5,-1037.5 674.5,-1037.5 674.5,-1037.5 669.6462,-1036.2996 675.5804,-1033.1316 664.7925,-1035.0991 664.7925,-1035.0991"/>
<text text-anchor="start" x="681.327" y="-1021.5" font-family="Arial" font-size="10.00" fill="#000000">FOREIGN KEY (message_id) REFERENCES messages (id)</text>
</g>
</g>
</svg>
