<?xml version="1.0" encoding="UTF-8" standalone="no"?>
<!DOCTYPE svg PUBLIC "-//W3C//DTD SVG 1.1//EN"
 "http://www.w3.org/Graphics/SVG/1.1/DTD/svg11.dtd">
<!-- Generated by graphviz version 2.40.1 (20161225.0304)
 -->
<!-- Title: messages_stamps Pages: 1 -->
<svg width="859pt" height="860pt"
     viewBox="0.00 0.00 859.00 860.00" xmlns="http://www.w3.org/2000/svg">
<g id="graph0" class="graph" transform="scale(1 1) rotate(0) translate(4 856)">
<title>messages_stamps</title>
<polygon fill="#ffffff" stroke="transparent" points="-4,4 -4,-856 855,-856 855,4 -4,4"/>
<!-- messages_stamps -->
<g id="node1" class="node">
<title>messages_stamps</title>
<polygon fill="#efefef" stroke="transparent" points="298.5,-772 298.5,-806 568.5,-806 568.5,-772 298.5,-772"/>
<polygon fill="none" stroke="#000000" points="298.5,-772 298.5,-806 568.5,-806 568.5,-772 298.5,-772"/>
<text text-anchor="start" x="305.4644" y="-785.6" font-family="Arial Bold" font-size="18.00" fill="#000000">messages_stamps</text>
<text text-anchor="start" x="465.5659" y="-785.6" font-family="Arial" font-size="14.00" fill="#000000"> </text>
<text text-anchor="start" x="469.4556" y="-785.6" font-family="Arial" font-size="14.00" fill="#666666">[BASE TABLE]</text>
<polygon fill="none" stroke="#000000" points="298.5,-742 298.5,-772 568.5,-772 568.5,-742 298.5,-742"/>
<text text-anchor="start" x="305.5" y="-754.8" font-family="Arial" font-size="14.00" fill="#000000">message_id </text>
<text text-anchor="start" x="384.8789" y="-754.8" font-family="Arial" font-size="14.00" fill="#666666">[char(36)]</text>
<polygon fill="none" stroke="#000000" points="298.5,-712 298.5,-742 568.5,-742 568.5,-712 298.5,-712"/>
<text text-anchor="start" x="305.5" y="-724.8" font-family="Arial" font-size="14.00" fill="#000000">stamp_id </text>
<text text-anchor="start" x="366.1963" y="-724.8" font-family="Arial" font-size="14.00" fill="#666666">[char(36)]</text>
<polygon fill="none" stroke="#000000" points="298.5,-682 298.5,-712 568.5,-712 568.5,-682 298.5,-682"/>
<text text-anchor="start" x="305.5" y="-694.8" font-family="Arial" font-size="14.00" fill="#000000">user_id </text>
<text text-anchor="start" x="355.3066" y="-694.8" font-family="Arial" font-size="14.00" fill="#666666">[char(36)]</text>
<polygon fill="none" stroke="#000000" points="298.5,-652 298.5,-682 568.5,-682 568.5,-652 298.5,-652"/>
<text text-anchor="start" x="305.5" y="-664.8" font-family="Arial" font-size="14.00" fill="#000000">count </text>
<text text-anchor="start" x="343.6377" y="-664.8" font-family="Arial" font-size="14.00" fill="#666666">[int(11)]</text>
<polygon fill="none" stroke="#000000" points="298.5,-622 298.5,-652 568.5,-652 568.5,-622 298.5,-622"/>
<text text-anchor="start" x="305.5" y="-634.8" font-family="Arial" font-size="14.00" fill="#000000">created_at </text>
<text text-anchor="start" x="375.5479" y="-634.8" font-family="Arial" font-size="14.00" fill="#666666">[timestamp(6)]</text>
<polygon fill="none" stroke="#000000" points="298.5,-592 298.5,-622 568.5,-622 568.5,-592 298.5,-592"/>
<text text-anchor="start" x="305.5" y="-604.8" font-family="Arial" font-size="14.00" fill="#000000">updated_at </text>
<text text-anchor="start" x="379.458" y="-604.8" font-family="Arial" font-size="14.00" fill="#666666">[timestamp(6)]</text>
<polygon fill="none" stroke="#000000" stroke-width="3" points="297,-590.5 297,-807.5 570,-807.5 570,-590.5 297,-590.5"/>
</g>
<!-- messages -->
<g id="node2" class="node">
<title>messages</title>
<polygon fill="#efefef" stroke="transparent" points="43.5,-343 43.5,-377 240.5,-377 240.5,-343 43.5,-343"/>
<polygon fill="none" stroke="#000000" points="43.5,-343 43.5,-377 240.5,-377 240.5,-343 43.5,-343"/>
<text text-anchor="start" x="50.4829" y="-356.6" font-family="Arial Bold" font-size="18.00" fill="#000000">messages</text>
<text text-anchor="start" x="137.5474" y="-356.6" font-family="Arial" font-size="14.00" fill="#000000"> </text>
<text text-anchor="start" x="141.437" y="-356.6" font-family="Arial" font-size="14.00" fill="#666666">[BASE TABLE]</text>
<polygon fill="none" stroke="#000000" points="43.5,-313 43.5,-343 240.5,-343 240.5,-313 43.5,-313"/>
<text text-anchor="start" x="50.5" y="-325.8" font-family="Arial" font-size="14.00" fill="#000000">id </text>
<text text-anchor="start" x="65.2861" y="-325.8" font-family="Arial" font-size="14.00" fill="#666666">[char(36)]</text>
<polygon fill="none" stroke="#000000" points="43.5,-283 43.5,-313 240.5,-313 240.5,-283 43.5,-283"/>
<text text-anchor="start" x="50.5" y="-295.8" font-family="Arial" font-size="14.00" fill="#000000">user_id </text>
<text text-anchor="start" x="100.3066" y="-295.8" font-family="Arial" font-size="14.00" fill="#666666">[char(36)]</text>
<polygon fill="none" stroke="#000000" points="43.5,-253 43.5,-283 240.5,-283 240.5,-253 43.5,-253"/>
<text text-anchor="start" x="50.5" y="-265.8" font-family="Arial" font-size="14.00" fill="#000000">channel_id </text>
<text text-anchor="start" x="122.1133" y="-265.8" font-family="Arial" font-size="14.00" fill="#666666">[char(36)]</text>
<polygon fill="none" stroke="#000000" points="43.5,-223 43.5,-253 240.5,-253 240.5,-223 43.5,-223"/>
<text text-anchor="start" x="50.5" y="-235.8" font-family="Arial" font-size="14.00" fill="#000000">text </text>
<text text-anchor="start" x="76.9551" y="-235.8" font-family="Arial" font-size="14.00" fill="#666666">[text]</text>
<polygon fill="none" stroke="#000000" points="43.5,-193 43.5,-223 240.5,-223 240.5,-193 43.5,-193"/>
<text text-anchor="start" x="50.5" y="-205.8" font-family="Arial" font-size="14.00" fill="#000000">created_at </text>
<text text-anchor="start" x="120.5479" y="-205.8" font-family="Arial" font-size="14.00" fill="#666666">[timestamp(6)]</text>
<polygon fill="none" stroke="#000000" points="43.5,-163 43.5,-193 240.5,-193 240.5,-163 43.5,-163"/>
<text text-anchor="start" x="50.5" y="-175.8" font-family="Arial" font-size="14.00" fill="#000000">updated_at </text>
<text text-anchor="start" x="124.458" y="-175.8" font-family="Arial" font-size="14.00" fill="#666666">[timestamp(6)]</text>
<polygon fill="none" stroke="#000000" points="43.5,-133 43.5,-163 240.5,-163 240.5,-133 43.5,-133"/>
<text text-anchor="start" x="50.5" y="-145.8" font-family="Arial" font-size="14.00" fill="#000000">deleted_at </text>
<text text-anchor="start" x="119.7822" y="-145.8" font-family="Arial" font-size="14.00" fill="#666666">[timestamp(6)]</text>
</g>
<!-- messages_stamps&#45;&gt;messages -->
<g id="edge1" class="edge">
<title>messages_stamps:message_id&#45;&gt;messages:id</title>
<path fill="none" stroke="#000000" d="M288.2546,-755.0873C212.4476,-724.139 332.9428,-328 240.5,-328"/>
<polygon fill="#000000" stroke="#000000" points="288.6698,-755.1648 297.6741,-761.4236 293.5849,-756.0824 298.5,-757 298.5,-757 298.5,-757 293.5849,-756.0824 299.3259,-752.5764 288.6698,-755.1648 288.6698,-755.1648"/>
<text text-anchor="start" x="23.3887" y="-766.5" font-family="Arial" font-size="10.00" fill="#000000">FOREIGN KEY (message_id) REFERENCES messages (id)</text>
</g>
<!-- stamps -->
<g id="node3" class="node">
<title>stamps</title>
<polygon fill="#efefef" stroke="transparent" points="344.5,-358 344.5,-392 521.5,-392 521.5,-358 344.5,-358"/>
<polygon fill="none" stroke="#000000" points="344.5,-358 344.5,-392 521.5,-392 521.5,-358 344.5,-358"/>
<text text-anchor="start" x="353.502" y="-371.6" font-family="Arial Bold" font-size="18.00" fill="#000000">stamps</text>
<text text-anchor="start" x="416.5283" y="-371.6" font-family="Arial" font-size="14.00" fill="#000000"> </text>
<text text-anchor="start" x="420.418" y="-371.6" font-family="Arial" font-size="14.00" fill="#666666">[BASE TABLE]</text>
<polygon fill="none" stroke="#000000" points="344.5,-328 344.5,-358 521.5,-358 521.5,-328 344.5,-328"/>
<text text-anchor="start" x="351.5" y="-340.8" font-family="Arial" font-size="14.00" fill="#000000">id </text>
<text text-anchor="start" x="366.2861" y="-340.8" font-family="Arial" font-size="14.00" fill="#666666">[char(36)]</text>
<polygon fill="none" stroke="#000000" points="344.5,-298 344.5,-328 521.5,-328 521.5,-298 344.5,-298"/>
<text text-anchor="start" x="351.5" y="-310.8" font-family="Arial" font-size="14.00" fill="#000000">name </text>
<text text-anchor="start" x="390.4102" y="-310.8" font-family="Arial" font-size="14.00" fill="#666666">[varchar(32)]</text>
<polygon fill="none" stroke="#000000" points="344.5,-268 344.5,-298 521.5,-298 521.5,-268 344.5,-268"/>
<text text-anchor="start" x="351.5" y="-280.8" font-family="Arial" font-size="14.00" fill="#000000">creator_id </text>
<text text-anchor="start" x="417.6445" y="-280.8" font-family="Arial" font-size="14.00" fill="#666666">[char(36)]</text>
<polygon fill="none" stroke="#000000" points="344.5,-238 344.5,-268 521.5,-268 521.5,-238 344.5,-238"/>
<text text-anchor="start" x="351.5" y="-250.8" font-family="Arial" font-size="14.00" fill="#000000">file_id </text>
<text text-anchor="start" x="391.9688" y="-250.8" font-family="Arial" font-size="14.00" fill="#666666">[char(36)]</text>
<polygon fill="none" stroke="#000000" points="344.5,-208 344.5,-238 521.5,-238 521.5,-208 344.5,-208"/>
<text text-anchor="start" x="351.5" y="-220.8" font-family="Arial" font-size="14.00" fill="#000000">is_unicode </text>
<text text-anchor="start" x="422.3271" y="-220.8" font-family="Arial" font-size="14.00" fill="#666666">[tinyint(1)]</text>
<polygon fill="none" stroke="#000000" points="344.5,-178 344.5,-208 521.5,-208 521.5,-178 344.5,-178"/>
<text text-anchor="start" x="351.5" y="-190.8" font-family="Arial" font-size="14.00" fill="#000000">created_at </text>
<text text-anchor="start" x="421.5479" y="-190.8" font-family="Arial" font-size="14.00" fill="#666666">[timestamp(6)]</text>
<polygon fill="none" stroke="#000000" points="344.5,-148 344.5,-178 521.5,-178 521.5,-148 344.5,-148"/>
<text text-anchor="start" x="351.29" y="-160.8" font-family="Arial" font-size="14.00" fill="#000000">updated_at </text>
<text text-anchor="start" x="425.248" y="-160.8" font-family="Arial" font-size="14.00" fill="#666666">[timestamp(6)]</text>
<polygon fill="none" stroke="#000000" points="344.5,-118 344.5,-148 521.5,-148 521.5,-118 344.5,-118"/>
<text text-anchor="start" x="351.5" y="-130.8" font-family="Arial" font-size="14.00" fill="#000000">deleted_at </text>
<text text-anchor="start" x="420.7822" y="-130.8" font-family="Arial" font-size="14.00" fill="#666666">[timestamp(6)]</text>
</g>
<!-- messages_stamps&#45;&gt;stamps -->
<g id="edge2" class="edge">
<title>messages_stamps:stamp_id&#45;&gt;stamps:id</title>
<path fill="none" stroke="#000000" d="M288.3661,-726.3325C221.4864,-716.9721 258.049,-611.3198 298.5,-546 356.7884,-451.8764 463.2116,-529.1236 521.5,-435 543.0278,-400.2371 562.3889,-343 521.5,-343"/>
<polygon fill="#000000" stroke="#000000" points="288.5216,-726.3426 298.2042,-731.4903 293.5108,-726.6713 298.5,-727 298.5,-727 298.5,-727 293.5108,-726.6713 298.7958,-722.5097 288.5216,-726.3426 288.5216,-726.3426"/>
<text text-anchor="start" x="50.7334" y="-736.5" font-family="Arial" font-size="10.00" fill="#000000">FOREIGN KEY (stamp_id) REFERENCES stamps (id)</text>
</g>
<!-- users -->
<g id="node4" class="node">
<title>users</title>
<polygon fill="#efefef" stroke="transparent" points="625.5,-433 625.5,-467 808.5,-467 808.5,-433 625.5,-433"/>
<polygon fill="none" stroke="#000000" points="625.5,-433 625.5,-467 808.5,-467 808.5,-433 625.5,-433"/>
<text text-anchor="start" x="644.999" y="-446.6" font-family="Arial Bold" font-size="18.00" fill="#000000">users</text>
<text text-anchor="start" x="693.0313" y="-446.6" font-family="Arial" font-size="14.00" fill="#000000"> </text>
<text text-anchor="start" x="696.9209" y="-446.6" font-family="Arial" font-size="14.00" fill="#666666">[BASE TABLE]</text>
<polygon fill="none" stroke="#000000" points="625.5,-403 625.5,-433 808.5,-433 808.5,-403 625.5,-403"/>
<text text-anchor="start" x="632.5" y="-415.8" font-family="Arial" font-size="14.00" fill="#000000">id </text>
<text text-anchor="start" x="647.2861" y="-415.8" font-family="Arial" font-size="14.00" fill="#666666">[char(36)]</text>
<polygon fill="none" stroke="#000000" points="625.5,-373 625.5,-403 808.5,-403 808.5,-373 625.5,-373"/>
<text text-anchor="start" x="632.5" y="-385.8" font-family="Arial" font-size="14.00" fill="#000000">name </text>
<text text-anchor="start" x="671.4102" y="-385.8" font-family="Arial" font-size="14.00" fill="#666666">[varchar(32)]</text>
<polygon fill="none" stroke="#000000" points="625.5,-343 625.5,-373 808.5,-373 808.5,-343 625.5,-343"/>
<text text-anchor="start" x="632.1831" y="-355.8" font-family="Arial" font-size="14.00" fill="#000000">display_name </text>
<text text-anchor="start" x="722.4585" y="-355.8" font-family="Arial" font-size="14.00" fill="#666666">[varchar(64)]</text>
<polygon fill="none" stroke="#000000" points="625.5,-313 625.5,-343 808.5,-343 808.5,-313 625.5,-313"/>
<text text-anchor="start" x="632.5" y="-325.8" font-family="Arial" font-size="14.00" fill="#000000">password </text>
<text text-anchor="start" x="696.3066" y="-325.8" font-family="Arial" font-size="14.00" fill="#666666">[char(128)]</text>
<polygon fill="none" stroke="#000000" points="625.5,-283 625.5,-313 808.5,-313 808.5,-283 625.5,-283"/>
<text text-anchor="start" x="632.5" y="-295.8" font-family="Arial" font-size="14.00" fill="#000000">salt </text>
<text text-anchor="start" x="658.1758" y="-295.8" font-family="Arial" font-size="14.00" fill="#666666">[char(128)]</text>
<polygon fill="none" stroke="#000000" points="625.5,-253 625.5,-283 808.5,-283 808.5,-253 625.5,-253"/>
<text text-anchor="start" x="632.5" y="-265.8" font-family="Arial" font-size="14.00" fill="#000000">icon </text>
<text text-anchor="start" x="662.0723" y="-265.8" font-family="Arial" font-size="14.00" fill="#666666">[char(36)]</text>
<polygon fill="none" stroke="#000000" points="625.5,-223 625.5,-253 808.5,-253 808.5,-223 625.5,-223"/>
<text text-anchor="start" x="632.5" y="-235.8" font-family="Arial" font-size="14.00" fill="#000000">status </text>
<text text-anchor="start" x="673.7412" y="-235.8" font-family="Arial" font-size="14.00" fill="#666666">[tinyint(4)]</text>
<polygon fill="none" stroke="#000000" points="625.5,-193 625.5,-223 808.5,-223 808.5,-193 625.5,-193"/>
<text text-anchor="start" x="632.5" y="-205.8" font-family="Arial" font-size="14.00" fill="#000000">bot </text>
<text text-anchor="start" x="655.8516" y="-205.8" font-family="Arial" font-size="14.00" fill="#666666">[tinyint(1)]</text>
<polygon fill="none" stroke="#000000" points="625.5,-163 625.5,-193 808.5,-193 808.5,-163 625.5,-163"/>
<text text-anchor="start" x="632.5" y="-175.8" font-family="Arial" font-size="14.00" fill="#000000">role </text>
<text text-anchor="start" x="659.7344" y="-175.8" font-family="Arial" font-size="14.00" fill="#666666">[varchar(30)]</text>
<polygon fill="none" stroke="#000000" points="625.5,-133 625.5,-163 808.5,-163 808.5,-133 625.5,-133"/>
<text text-anchor="start" x="632.5" y="-145.8" font-family="Arial" font-size="14.00" fill="#000000">twitter_id </text>
<text text-anchor="start" x="692.4102" y="-145.8" font-family="Arial" font-size="14.00" fill="#666666">[varchar(15)]</text>
<polygon fill="none" stroke="#000000" points="625.5,-103 625.5,-133 808.5,-133 808.5,-103 625.5,-103"/>
<text text-anchor="start" x="632.5" y="-115.8" font-family="Arial" font-size="14.00" fill="#000000">last_online </text>
<text text-anchor="start" x="703.3271" y="-115.8" font-family="Arial" font-size="14.00" fill="#666666">[timestamp(6)]</text>
<polygon fill="none" stroke="#000000" points="625.5,-73 625.5,-103 808.5,-103 808.5,-73 625.5,-73"/>
<text text-anchor="start" x="632.5" y="-85.8" font-family="Arial" font-size="14.00" fill="#000000">created_at </text>
<text text-anchor="start" x="702.5479" y="-85.8" font-family="Arial" font-size="14.00" fill="#666666">[timestamp(6)]</text>
<polygon fill="none" stroke="#000000" points="625.5,-43 625.5,-73 808.5,-73 808.5,-43 625.5,-43"/>
<text text-anchor="start" x="632.5" y="-55.8" font-family="Arial" font-size="14.00" fill="#000000">updated_at </text>
<text text-anchor="start" x="706.458" y="-55.8" font-family="Arial" font-size="14.00" fill="#666666">[timestamp(6)]</text>
</g>
<!-- messages_stamps&#45;&gt;users -->
<g id="edge3" class="edge">
<title>messages_stamps:user_id&#45;&gt;users:id</title>
<path fill="none" stroke="#000000" d="M578.491,-696.3414C684.2117,-681.421 502.5229,-418 625.5,-418"/>
<polygon fill="#000000" stroke="#000000" points="578.4783,-696.3421 568.2039,-692.5097 573.4892,-696.6711 568.5,-697 568.5,-697 568.5,-697 573.4892,-696.6711 568.7961,-701.4903 578.4783,-696.3421 578.4783,-696.3421"/>
<text text-anchor="start" x="575.5117" y="-706.5" font-family="Arial" font-size="10.00" fill="#000000">FOREIGN KEY (user_id) REFERENCES users (id)</text>
</g>
</g>
</svg>
