<?xml version="1.0" encoding="UTF-8" standalone="no"?>
<!DOCTYPE svg PUBLIC "-//W3C//DTD SVG 1.1//EN"
 "http://www.w3.org/Graphics/SVG/1.1/DTD/svg11.dtd">
<!-- Generated by graphviz version 2.40.1 (20161225.0304)
 -->
<!-- Title: migrations Pages: 1 -->
<svg width="301pt" height="164pt"
     viewBox="0.00 0.00 301.00 164.00" xmlns="http://www.w3.org/2000/svg">
<g id="graph0" class="graph" transform="scale(1 1) rotate(0) translate(4 160)">
<title>migrations</title>
<polygon fill="#ffffff" stroke="transparent" points="-4,4 -4,-160 297,-160 297,4 -4,4"/>
<!-- migrations -->
<g id="node1" class="node">
<title>migrations</title>
<polygon fill="#efefef" stroke="transparent" points="46.5,-76 46.5,-110 247.5,-110 247.5,-76 46.5,-76"/>
<polygon fill="none" stroke="#000000" points="46.5,-76 46.5,-110 247.5,-110 247.5,-76 46.5,-76"/>
<text text-anchor="start" x="53.0088" y="-89.6" font-family="Arial Bold" font-size="18.00" fill="#000000">migrations</text>
<text text-anchor="start" x="145.0215" y="-89.6" font-family="Arial" font-size="14.00" fill="#000000"> </text>
<text text-anchor="start" x="148.9111" y="-89.6" font-family="Arial" font-size="14.00" fill="#666666">[BASE TABLE]</text>
<polygon fill="none" stroke="#000000" points="46.5,-46 46.5,-76 247.5,-76 247.5,-46 46.5,-46"/>
<text text-anchor="start" x="53.5" y="-58.8" font-family="Arial" font-size="14.00" fill="#000000">id </text>
<text text-anchor="start" x="68.2861" y="-58.8" font-family="Arial" font-size="14.00" fill="#666666">[varchar(190)]</text>
<polygon fill="none" stroke="#000000" stroke-width="3" points="44.5,-44.5 44.5,-111.5 248.5,-111.5 248.5,-44.5 44.5,-44.5"/>
</g>
</g>
</svg>
