<?xml version="1.0" encoding="UTF-8" standalone="no"?>
<!DOCTYPE svg PUBLIC "-//W3C//DTD SVG 1.1//EN"
        "http://www.w3.org/Graphics/SVG/1.1/DTD/svg11.dtd">
<!-- Generated by graphviz version 2.40.1 (20161225.0304)
 -->
<!-- Title: mutes Pages: 1 -->
<svg width="680pt" height="740pt"
     viewBox="0.00 0.00 680.00 740.00" xmlns="http://www.w3.org/2000/svg">
    <g id="graph0" class="graph" transform="scale(1 1) rotate(0) translate(4 736)">
        <title>mutes</title>
        <polygon fill="#ffffff" stroke="transparent" points="-4,4 -4,-736 676,-736 676,4 -4,4"/>
        <!-- mutes -->
        <g id="node1" class="node">
            <title>mutes</title>
            <polygon fill="#efefef" stroke="transparent" points="239,-652 239,-686 401,-686 401,-652 239,-652"/>
            <polygon fill="none" stroke="#000000" points="239,-652 239,-686 401,-686 401,-652 239,-652"/>
            <text text-anchor="start" x="245.5073" y="-665.6" font-family="Arial Bold" font-size="18.00" fill="#000000">
                mutes
            </text>
            <text text-anchor="start" x="298.5229" y="-665.6" font-family="Arial" font-size="14.00"
                  fill="#000000"></text>
            <text text-anchor="start" x="302.4126" y="-665.6" font-family="Arial" font-size="14.00" fill="#666666">[BASE
                TABLE]
            </text>
            <polygon fill="none" stroke="#000000" points="239,-622 239,-652 401,-652 401,-622 239,-622"/>
            <text text-anchor="start" x="246" y="-634.8" font-family="Arial" font-size="14.00" fill="#000000">user_id
            </text>
            <text text-anchor="start" x="295.8066" y="-634.8" font-family="Arial" font-size="14.00" fill="#666666">
                [char(36)]
            </text>
            <polygon fill="none" stroke="#000000" points="239,-592 239,-622 401,-622 401,-592 239,-592"/>
            <text text-anchor="start" x="246" y="-604.8" font-family="Arial" font-size="14.00" fill="#000000">
                channel_id
            </text>
            <text text-anchor="start" x="317.6133" y="-604.8" font-family="Arial" font-size="14.00" fill="#666666">
                [char(36)]
            </text>
            <polygon fill="none" stroke="#000000" stroke-width="3"
                     points="237.5,-590.5 237.5,-687.5 402.5,-687.5 402.5,-590.5 237.5,-590.5"/>
        </g>
        <!-- users -->
        <g id="node2" class="node">
            <title>users</title>
            <polygon fill="#efefef" stroke="transparent" points="84,-433 84,-467 267,-467 267,-433 84,-433"/>
            <polygon fill="none" stroke="#000000" points="84,-433 84,-467 267,-467 267,-433 84,-433"/>
            <text text-anchor="start" x="103.499" y="-446.6" font-family="Arial Bold" font-size="18.00" fill="#000000">
                users
            </text>
            <text text-anchor="start" x="151.5313" y="-446.6" font-family="Arial" font-size="14.00"
                  fill="#000000"></text>
            <text text-anchor="start" x="155.4209" y="-446.6" font-family="Arial" font-size="14.00" fill="#666666">[BASE
                TABLE]
            </text>
            <polygon fill="none" stroke="#000000" points="84,-403 84,-433 267,-433 267,-403 84,-403"/>
            <text text-anchor="start" x="91" y="-415.8" font-family="Arial" font-size="14.00" fill="#000000">id</text>
            <text text-anchor="start" x="105.7861" y="-415.8" font-family="Arial" font-size="14.00" fill="#666666">
                [char(36)]
            </text>
            <polygon fill="none" stroke="#000000" points="84,-373 84,-403 267,-403 267,-373 84,-373"/>
            <text text-anchor="start" x="91" y="-385.8" font-family="Arial" font-size="14.00" fill="#000000">name</text>
            <text text-anchor="start" x="129.9102" y="-385.8" font-family="Arial" font-size="14.00" fill="#666666">
                [varchar(32)]
            </text>
            <polygon fill="none" stroke="#000000" points="84,-343 84,-373 267,-373 267,-343 84,-343"/>
            <text text-anchor="start" x="90.6831" y="-355.8" font-family="Arial" font-size="14.00" fill="#000000">
                display_name
            </text>
            <text text-anchor="start" x="180.9585" y="-355.8" font-family="Arial" font-size="14.00" fill="#666666">
                [varchar(64)]
            </text>
            <polygon fill="none" stroke="#000000" points="84,-313 84,-343 267,-343 267,-313 84,-313"/>
            <text text-anchor="start" x="91" y="-325.8" font-family="Arial" font-size="14.00" fill="#000000">password
            </text>
            <text text-anchor="start" x="154.8066" y="-325.8" font-family="Arial" font-size="14.00" fill="#666666">
                [char(128)]
            </text>
            <polygon fill="none" stroke="#000000" points="84,-283 84,-313 267,-313 267,-283 84,-283"/>
            <text text-anchor="start" x="91" y="-295.8" font-family="Arial" font-size="14.00" fill="#000000">salt</text>
            <text text-anchor="start" x="116.6758" y="-295.8" font-family="Arial" font-size="14.00" fill="#666666">
                [char(128)]
            </text>
            <polygon fill="none" stroke="#000000" points="84,-253 84,-283 267,-283 267,-253 84,-253"/>
            <text text-anchor="start" x="91" y="-265.8" font-family="Arial" font-size="14.00" fill="#000000">icon</text>
            <text text-anchor="start" x="120.5723" y="-265.8" font-family="Arial" font-size="14.00" fill="#666666">
                [char(36)]
            </text>
            <polygon fill="none" stroke="#000000" points="84,-223 84,-253 267,-253 267,-223 84,-223"/>
            <text text-anchor="start" x="91" y="-235.8" font-family="Arial" font-size="14.00" fill="#000000">status
            </text>
            <text text-anchor="start" x="132.2412" y="-235.8" font-family="Arial" font-size="14.00" fill="#666666">
                [tinyint(4)]
            </text>
            <polygon fill="none" stroke="#000000" points="84,-193 84,-223 267,-223 267,-193 84,-193"/>
            <text text-anchor="start" x="91" y="-205.8" font-family="Arial" font-size="14.00" fill="#000000">bot</text>
            <text text-anchor="start" x="114.3516" y="-205.8" font-family="Arial" font-size="14.00" fill="#666666">
                [tinyint(1)]
            </text>
            <polygon fill="none" stroke="#000000" points="84,-163 84,-193 267,-193 267,-163 84,-163"/>
            <text text-anchor="start" x="91" y="-175.8" font-family="Arial" font-size="14.00" fill="#000000">role</text>
            <text text-anchor="start" x="118.2344" y="-175.8" font-family="Arial" font-size="14.00" fill="#666666">
                [varchar(30)]
            </text>
            <polygon fill="none" stroke="#000000" points="84,-133 84,-163 267,-163 267,-133 84,-133"/>
            <text text-anchor="start" x="91" y="-145.8" font-family="Arial" font-size="14.00" fill="#000000">
                twitter_id
            </text>
            <text text-anchor="start" x="150.9102" y="-145.8" font-family="Arial" font-size="14.00" fill="#666666">
                [varchar(15)]
            </text>
            <polygon fill="none" stroke="#000000" points="84,-103 84,-133 267,-133 267,-103 84,-103"/>
            <text text-anchor="start" x="91" y="-115.8" font-family="Arial" font-size="14.00" fill="#000000">
                last_online
            </text>
            <text text-anchor="start" x="161.8271" y="-115.8" font-family="Arial" font-size="14.00" fill="#666666">
                [timestamp(6)]
            </text>
            <polygon fill="none" stroke="#000000" points="84,-73 84,-103 267,-103 267,-73 84,-73"/>
            <text text-anchor="start" x="91" y="-85.8" font-family="Arial" font-size="14.00" fill="#000000">created_at
            </text>
            <text text-anchor="start" x="161.0479" y="-85.8" font-family="Arial" font-size="14.00" fill="#666666">
                [timestamp(6)]
            </text>
            <polygon fill="none" stroke="#000000" points="84,-43 84,-73 267,-73 267,-43 84,-43"/>
            <text text-anchor="start" x="91" y="-55.8" font-family="Arial" font-size="14.00" fill="#000000">updated_at
            </text>
            <text text-anchor="start" x="164.958" y="-55.8" font-family="Arial" font-size="14.00" fill="#666666">
                [timestamp(6)]
            </text>
        </g>
        <!-- mutes&#45;&gt;users -->
        <g id="edge1" class="edge">
            <title>mutes:user_id&#45;&gt;users:id</title>
            <path fill="none" stroke="#000000"
                  d="M229.0134,-635.5536C203.7559,-626.8365 227.1561,-580.5194 239,-546 245.5783,-526.8274 260.4217,-529.1726 267,-510 280.2699,-471.3243 307.8889,-418 267,-418"/>
            <polygon fill="#000000" stroke="#000000"
                     points="229.1033,-635.5665 238.3549,-641.4535 234.0516,-636.2833 239,-637 239,-637 239,-637 234.0516,-636.2833 239.6451,-632.5465 229.1033,-635.5665 229.1033,-635.5665"/>
            <text text-anchor="start" x="7.0117" y="-646.5" font-family="Arial" font-size="10.00" fill="#000000">FOREIGN
                KEY (user_id) REFERENCES users (id)
            </text>
        </g>
        <!-- channels -->
        <g id="node3" class="node">
            <title>channels</title>
            <polygon fill="#efefef" stroke="transparent" points="371,-418 371,-452 558,-452 558,-418 371,-418"/>
            <polygon fill="none" stroke="#000000" points="371,-418 371,-452 558,-452 558,-418 371,-418"/>
            <text text-anchor="start" x="377.5005" y="-431.6" font-family="Arial Bold" font-size="18.00" fill="#000000">
                channels
            </text>
            <text text-anchor="start" x="455.5298" y="-431.6" font-family="Arial" font-size="14.00"
                  fill="#000000"></text>
            <text text-anchor="start" x="459.4194" y="-431.6" font-family="Arial" font-size="14.00" fill="#666666">[BASE
                TABLE]
            </text>
            <polygon fill="none" stroke="#000000" points="371,-388 371,-418 558,-418 558,-388 371,-388"/>
            <text text-anchor="start" x="378" y="-400.8" font-family="Arial" font-size="14.00" fill="#000000">id</text>
            <text text-anchor="start" x="392.7861" y="-400.8" font-family="Arial" font-size="14.00" fill="#666666">
                [char(36)]
            </text>
            <polygon fill="none" stroke="#000000" points="371,-358 371,-388 558,-388 558,-358 371,-358"/>
            <text text-anchor="start" x="378" y="-370.8" font-family="Arial" font-size="14.00" fill="#000000">name
            </text>
            <text text-anchor="start" x="416.9102" y="-370.8" font-family="Arial" font-size="14.00" fill="#666666">
                [varchar(20)]
            </text>
            <polygon fill="none" stroke="#000000" points="371,-328 371,-358 558,-358 558,-328 371,-328"/>
            <text text-anchor="start" x="378" y="-340.8" font-family="Arial" font-size="14.00" fill="#000000">
                parent_id
            </text>
            <text text-anchor="start" x="440.2686" y="-340.8" font-family="Arial" font-size="14.00" fill="#666666">
                [char(36)]
            </text>
            <polygon fill="none" stroke="#000000" points="371,-298 371,-328 558,-328 558,-298 371,-298"/>
            <text text-anchor="start" x="378" y="-310.8" font-family="Arial" font-size="14.00" fill="#000000">topic
            </text>
            <text text-anchor="start" x="411.4619" y="-310.8" font-family="Arial" font-size="14.00" fill="#666666">
                [text]
            </text>
            <polygon fill="none" stroke="#000000" points="371,-268 371,-298 558,-298 558,-268 371,-268"/>
            <text text-anchor="start" x="378" y="-280.8" font-family="Arial" font-size="14.00" fill="#000000">
                is_forced
            </text>
            <text text-anchor="start" x="438.6963" y="-280.8" font-family="Arial" font-size="14.00" fill="#666666">
                [tinyint(1)]
            </text>
            <polygon fill="none" stroke="#000000" points="371,-238 371,-268 558,-268 558,-238 371,-238"/>
            <text text-anchor="start" x="378" y="-250.8" font-family="Arial" font-size="14.00" fill="#000000">
                is_public
            </text>
            <text text-anchor="start" x="436.3652" y="-250.8" font-family="Arial" font-size="14.00" fill="#666666">
                [tinyint(1)]
            </text>
            <polygon fill="none" stroke="#000000" points="371,-208 371,-238 558,-238 558,-208 371,-208"/>
            <text text-anchor="start" x="378" y="-220.8" font-family="Arial" font-size="14.00" fill="#000000">
                is_visible
            </text>
            <text text-anchor="start" x="438.6895" y="-220.8" font-family="Arial" font-size="14.00" fill="#666666">
                [tinyint(1)]
            </text>
            <polygon fill="none" stroke="#000000" points="371,-178 371,-208 558,-208 558,-178 371,-178"/>
            <text text-anchor="start" x="378" y="-190.8" font-family="Arial" font-size="14.00" fill="#000000">
                creator_id
            </text>
            <text text-anchor="start" x="444.1445" y="-190.8" font-family="Arial" font-size="14.00" fill="#666666">
                [char(36)]
            </text>
            <polygon fill="none" stroke="#000000" points="371,-148 371,-178 558,-178 558,-148 371,-148"/>
            <text text-anchor="start" x="378" y="-160.8" font-family="Arial" font-size="14.00" fill="#000000">
                updater_id
            </text>
            <text text-anchor="start" x="448.0547" y="-160.8" font-family="Arial" font-size="14.00" fill="#666666">
                [char(36)]
            </text>
            <polygon fill="none" stroke="#000000" points="371,-118 371,-148 558,-148 558,-118 371,-118"/>
            <text text-anchor="start" x="378" y="-130.8" font-family="Arial" font-size="14.00" fill="#000000">
                created_at
            </text>
            <text text-anchor="start" x="448.0479" y="-130.8" font-family="Arial" font-size="14.00" fill="#666666">
                [timestamp(6)]
            </text>
            <polygon fill="none" stroke="#000000" points="371,-88 371,-118 558,-118 558,-88 371,-88"/>
            <text text-anchor="start" x="378" y="-100.8" font-family="Arial" font-size="14.00" fill="#000000">
                updated_at
            </text>
            <text text-anchor="start" x="451.958" y="-100.8" font-family="Arial" font-size="14.00" fill="#666666">
                [timestamp(6)]
            </text>
            <polygon fill="none" stroke="#000000" points="371,-58 371,-88 558,-88 558,-58 371,-58"/>
            <text text-anchor="start" x="378" y="-70.8" font-family="Arial" font-size="14.00" fill="#000000">
                deleted_at
            </text>
            <text text-anchor="start" x="447.2822" y="-70.8" font-family="Arial" font-size="14.00" fill="#666666">
                [timestamp(6)]
            </text>
        </g>
        <!-- mutes&#45;&gt;channels -->
        <g id="edge2" class="edge">
            <title>mutes:channel_id&#45;&gt;channels:id</title>
            <path fill="none" stroke="#000000"
                  d="M410.8053,-604.3788C421.8989,-595.8014 406.9546,-567.867 401,-546 394.0906,-520.6265 377.9094,-520.3735 371,-495 360.2568,-455.5477 330.1111,-403 371,-403"/>
            <polygon fill="#000000" stroke="#000000"
                     points="410.6608,-604.4173 399.8378,-602.6527 405.8304,-605.7087 401,-607 401,-607 401,-607 405.8304,-605.7087 402.1622,-611.3473 410.6608,-604.4173 410.6608,-604.4173"/>
            <text text-anchor="start" x="408.4355" y="-616.5" font-family="Arial" font-size="10.00" fill="#000000">
                FOREIGN KEY (channel_id) REFERENCES channels (id)
            </text>
        </g>
    </g>
</svg>
