<?xml version="1.0" encoding="UTF-8" standalone="no"?>
<!DOCTYPE svg PUBLIC "-//W3C//DTD SVG 1.1//EN"
        "http://www.w3.org/Graphics/SVG/1.1/DTD/svg11.dtd">
<!-- Generated by graphviz version 2.40.1 (20161225.0304)
 -->
<!-- Title: oauth2_tokens Pages: 1 -->
<svg width="336pt" height="464pt"
     viewBox="0.00 0.00 336.00 464.00" xmlns="http://www.w3.org/2000/svg">
    <g id="graph0" class="graph" transform="scale(1 1) rotate(0) translate(4 460)">
        <title>oauth2_tokens</title>
        <polygon fill="#ffffff" stroke="transparent" points="-4,4 -4,-460 332,-460 332,4 -4,4"/>
        <!-- oauth2_tokens -->
        <g id="node1" class="node">
            <title>oauth2_tokens</title>
            <polygon fill="#efefef" stroke="transparent" points="46,-376 46,-410 282,-410 282,-376 46,-376"/>
            <polygon fill="none" stroke="#000000" points="46,-376 46,-410 282,-410 282,-376 46,-376"/>
            <text text-anchor="start" x="52.501" y="-389.6" font-family="Arial Bold" font-size="18.00" fill="#000000">
                oauth2_tokens
            </text>
            <text text-anchor="start" x="179.5293" y="-389.6" font-family="Arial" font-size="14.00"
                  fill="#000000"></text>
            <text text-anchor="start" x="183.4189" y="-389.6" font-family="Arial" font-size="14.00" fill="#666666">[BASE
                TABLE]
            </text>
            <polygon fill="none" stroke="#000000" points="46,-346 46,-376 282,-376 282,-346 46,-346"/>
            <text text-anchor="start" x="53" y="-358.8" font-family="Arial" font-size="14.00" fill="#000000">id</text>
            <text text-anchor="start" x="67.7861" y="-358.8" font-family="Arial" font-size="14.00" fill="#666666">
                [char(36)]
            </text>
            <polygon fill="none" stroke="#000000" points="46,-316 46,-346 282,-346 282,-316 46,-316"/>
            <text text-anchor="start" x="53" y="-328.8" font-family="Arial" font-size="14.00" fill="#000000">client_id
            </text>
            <text text-anchor="start" x="108.2549" y="-328.8" font-family="Arial" font-size="14.00" fill="#666666">
                [char(36)]
            </text>
            <polygon fill="none" stroke="#000000" points="46,-286 46,-316 282,-316 282,-286 46,-286"/>
            <text text-anchor="start" x="53" y="-298.8" font-family="Arial" font-size="14.00" fill="#000000">user_id
            </text>
            <text text-anchor="start" x="102.8066" y="-298.8" font-family="Arial" font-size="14.00" fill="#666666">
                [char(36)]
            </text>
            <polygon fill="none" stroke="#000000" points="46,-256 46,-286 282,-286 282,-256 46,-256"/>
            <text text-anchor="start" x="53" y="-268.8" font-family="Arial" font-size="14.00" fill="#000000">
                redirect_uri
            </text>
            <text text-anchor="start" x="126.917" y="-268.8" font-family="Arial" font-size="14.00" fill="#666666">
                [text]
            </text>
            <polygon fill="none" stroke="#000000" points="46,-226 46,-256 282,-256 282,-226 46,-226"/>
            <text text-anchor="start" x="53" y="-238.8" font-family="Arial" font-size="14.00" fill="#000000">
                access_token
            </text>
            <text text-anchor="start" x="142.4961" y="-238.8" font-family="Arial" font-size="14.00" fill="#666666">
                [varchar(36)]
            </text>
            <polygon fill="none" stroke="#000000" points="46,-196 46,-226 282,-226 282,-196 46,-196"/>
            <text text-anchor="start" x="53" y="-208.8" font-family="Arial" font-size="14.00" fill="#000000">
                refresh_token
            </text>
            <text text-anchor="start" x="142.4961" y="-208.8" font-family="Arial" font-size="14.00" fill="#666666">
                [varchar(36)]
            </text>
            <polygon fill="none" stroke="#000000" points="46,-166 46,-196 282,-196 282,-166 46,-166"/>
            <text text-anchor="start" x="53" y="-178.8" font-family="Arial" font-size="14.00" fill="#000000">
                refresh_enabled
            </text>
            <text text-anchor="start" x="158.0752" y="-178.8" font-family="Arial" font-size="14.00" fill="#666666">
                [tinyint(1)]
            </text>
            <polygon fill="none" stroke="#000000" points="46,-136 46,-166 282,-166 282,-136 46,-136"/>
            <text text-anchor="start" x="53" y="-148.8" font-family="Arial" font-size="14.00" fill="#000000">scopes
            </text>
            <text text-anchor="start" x="101.248" y="-148.8" font-family="Arial" font-size="14.00" fill="#666666">
                [text]
            </text>
            <polygon fill="none" stroke="#000000" points="46,-106 46,-136 282,-136 282,-106 46,-106"/>
            <text text-anchor="start" x="53" y="-118.8" font-family="Arial" font-size="14.00" fill="#000000">
                expires_in
            </text>
            <text text-anchor="start" x="120.7031" y="-118.8" font-family="Arial" font-size="14.00" fill="#666666">
                [int(11)]
            </text>
            <polygon fill="none" stroke="#000000" points="46,-76 46,-106 282,-106 282,-76 46,-76"/>
            <text text-anchor="start" x="53" y="-88.8" font-family="Arial" font-size="14.00" fill="#000000">created_at
            </text>
            <text text-anchor="start" x="123.0479" y="-88.8" font-family="Arial" font-size="14.00" fill="#666666">
                [timestamp(6)]
            </text>
            <polygon fill="none" stroke="#000000" points="46,-46 46,-76 282,-76 282,-46 46,-46"/>
            <text text-anchor="start" x="53" y="-58.8" font-family="Arial" font-size="14.00" fill="#000000">deleted_at
            </text>
            <text text-anchor="start" x="122.2822" y="-58.8" font-family="Arial" font-size="14.00" fill="#666666">
                [timestamp(6)]
            </text>
            <polygon fill="none" stroke="#000000" stroke-width="3"
                     points="44.5,-44.5 44.5,-411.5 283.5,-411.5 283.5,-44.5 44.5,-44.5"/>
        </g>
    </g>
</svg>
