<?xml version="1.0" encoding="UTF-8" standalone="no"?>
<!DOCTYPE svg PUBLIC "-//W3C//DTD SVG 1.1//EN"
 "http://www.w3.org/Graphics/SVG/1.1/DTD/svg11.dtd">
<!-- Generated by graphviz version 2.40.1 (20161225.0304)
 -->
<!-- Title: oauth2_authorizes Pages: 1 -->
<svg width="368pt" height="464pt"
 viewBox="0.00 0.00 368.00 464.00" xmlns="http://www.w3.org/2000/svg" xmlns:xlink="http://www.w3.org/1999/xlink">
<g id="graph0" class="graph" transform="scale(1 1) rotate(0) translate(4 460)">
<title>oauth2_authorizes</title>
<polygon fill="#ffffff" stroke="transparent" points="-4,4 -4,-460 364,-460 364,4 -4,4"/>
<!-- oauth2_authorizes -->
<g id="node1" class="node">
<title>oauth2_authorizes</title>
<polygon fill="#efefef" stroke="transparent" points="46,-376 46,-410 314,-410 314,-376 46,-376"/>
<polygon fill="none" stroke="#000000" points="46,-376 46,-410 314,-410 314,-376 46,-376"/>
<text text-anchor="start" x="52.5005" y="-389.6" font-family="Arial Bold" font-size="18.00" fill="#000000">oauth2_authorizes</text>
<text text-anchor="start" x="211.5298" y="-389.6" font-family="Arial" font-size="14.00" fill="#000000"> </text>
<text text-anchor="start" x="215.4194" y="-389.6" font-family="Arial" font-size="14.00" fill="#666666">[BASE TABLE]</text>
<polygon fill="none" stroke="#000000" points="46,-346 46,-376 314,-376 314,-346 46,-346"/>
<text text-anchor="start" x="53" y="-358.8" font-family="Arial" font-size="14.00" fill="#000000">code </text>
<text text-anchor="start" x="87.248" y="-358.8" font-family="Arial" font-size="14.00" fill="#666666">[varchar(36)]</text>
<polygon fill="none" stroke="#000000" points="46,-316 46,-346 314,-346 314,-316 46,-316"/>
<text text-anchor="start" x="53" y="-328.8" font-family="Arial" font-size="14.00" fill="#000000">client_id </text>
<text text-anchor="start" x="108.2549" y="-328.8" font-family="Arial" font-size="14.00" fill="#666666">[char(36)]</text>
<polygon fill="none" stroke="#000000" points="46,-286 46,-316 314,-316 314,-286 46,-286"/>
<text text-anchor="start" x="53" y="-298.8" font-family="Arial" font-size="14.00" fill="#000000">user_id </text>
<text text-anchor="start" x="102.8066" y="-298.8" font-family="Arial" font-size="14.00" fill="#666666">[char(36)]</text>
<polygon fill="none" stroke="#000000" points="46,-256 46,-286 314,-286 314,-256 46,-256"/>
<text text-anchor="start" x="53" y="-268.8" font-family="Arial" font-size="14.00" fill="#000000">expires_in </text>
<text text-anchor="start" x="120.7031" y="-268.8" font-family="Arial" font-size="14.00" fill="#666666">[int(11)]</text>
<polygon fill="none" stroke="#000000" points="46,-226 46,-256 314,-256 314,-226 46,-226"/>
<text text-anchor="start" x="53" y="-238.8" font-family="Arial" font-size="14.00" fill="#000000">redirect_uri </text>
<text text-anchor="start" x="126.917" y="-238.8" font-family="Arial" font-size="14.00" fill="#666666">[text]</text>
<polygon fill="none" stroke="#000000" points="46,-196 46,-226 314,-226 314,-196 46,-196"/>
<text text-anchor="start" x="53" y="-208.8" font-family="Arial" font-size="14.00" fill="#000000">scopes </text>
<text text-anchor="start" x="101.248" y="-208.8" font-family="Arial" font-size="14.00" fill="#666666">[text]</text>
<polygon fill="none" stroke="#000000" points="46,-166 46,-196 314,-196 314,-166 46,-166"/>
<text text-anchor="start" x="53" y="-178.8" font-family="Arial" font-size="14.00" fill="#000000">original_scopes </text>
<text text-anchor="start" x="154.1719" y="-178.8" font-family="Arial" font-size="14.00" fill="#666666">[text]</text>
<polygon fill="none" stroke="#000000" points="46,-136 46,-166 314,-166 314,-136 46,-136"/>
<text text-anchor="start" x="53" y="-148.8" font-family="Arial" font-size="14.00" fill="#000000">code_challenge </text>
<text text-anchor="start" x="154.9717" y="-148.8" font-family="Arial" font-size="14.00" fill="#666666">[varchar(128)]</text>
<polygon fill="none" stroke="#000000" points="46,-106 46,-136 314,-136 314,-106 46,-106"/>
<text text-anchor="start" x="53" y="-118.8" font-family="Arial" font-size="14.00" fill="#000000">code_challenge_method </text>
<text text-anchor="start" x="209.4541" y="-118.8" font-family="Arial" font-size="14.00" fill="#666666">[text]</text>
<polygon fill="none" stroke="#000000" points="46,-76 46,-106 314,-106 314,-76 46,-76"/>
<text text-anchor="start" x="53" y="-88.8" font-family="Arial" font-size="14.00" fill="#000000">nonce </text>
<text text-anchor="start" x="95.0342" y="-88.8" font-family="Arial" font-size="14.00" fill="#666666">[text]</text>
<polygon fill="none" stroke="#000000" points="46,-46 46,-76 314,-76 314,-46 46,-46"/>
<text text-anchor="start" x="53" y="-58.8" font-family="Arial" font-size="14.00" fill="#000000">created_at </text>
<text text-anchor="start" x="123.0479" y="-58.8" font-family="Arial" font-size="14.00" fill="#666666">[timestamp(6)]</text>
<polygon fill="none" stroke="#000000" stroke-width="3" points="44.5,-44.5 44.5,-411.5 315.5,-411.5 315.5,-44.5 44.5,-44.5"/>
</g>
</g>
</svg>
