<?xml version="1.0" encoding="UTF-8" standalone="no"?>
<!DOCTYPE svg PUBLIC "-//W3C//DTD SVG 1.1//EN"
 "http://www.w3.org/Graphics/SVG/1.1/DTD/svg11.dtd">
<!-- Generated by graphviz version 2.40.1 (20161225.0304)
 -->
<!-- Title: oauth2_tokens Pages: 1 -->
<svg width="329pt" height="465pt"
     viewBox="0.00 0.00 329.00 465.00" xmlns="http://www.w3.org/2000/svg">
<g id="graph0" class="graph" transform="scale(1 1) rotate(0) translate(4 461)">
<title>oauth2_tokens</title>
<polygon fill="#ffffff" stroke="transparent" points="-4,4 -4,-461 325,-461 325,4 -4,4"/>
<!-- oauth2_tokens -->
<g id="node1" class="node">
<title>oauth2_tokens</title>
<polygon fill="#efefef" stroke="transparent" points="46.5,-375.5 46.5,-410.5 275.5,-410.5 275.5,-375.5 46.5,-375.5"/>
<polygon fill="none" stroke="#000000" points="46.5,-375.5 46.5,-410.5 275.5,-410.5 275.5,-375.5 46.5,-375.5"/>
<text text-anchor="start" x="53.343" y="-388.3" font-family="Arial Bold" font-size="18.00" fill="#000000">oauth2_tokens</text>
<text text-anchor="start" x="171.4032" y="-388.3" font-family="Arial" font-size="14.00" fill="#000000"> </text>
<text text-anchor="start" x="175.2938" y="-388.3" font-family="Arial" font-size="14.00" fill="#666666">[BASE TABLE]</text>
<polygon fill="none" stroke="#000000" points="46.5,-345.5 46.5,-375.5 275.5,-375.5 275.5,-345.5 46.5,-345.5"/>
<text text-anchor="start" x="53.5" y="-356.9" font-family="Arial" font-size="14.00" fill="#000000">id </text>
<text text-anchor="start" x="68.2798" y="-356.9" font-family="Arial" font-size="14.00" fill="#666666">[char(36)]</text>
<polygon fill="none" stroke="#000000" points="46.5,-315.5 46.5,-345.5 275.5,-345.5 275.5,-315.5 46.5,-315.5"/>
<text text-anchor="start" x="53.5" y="-326.9" font-family="Arial" font-size="14.00" fill="#000000">client_id </text>
<text text-anchor="start" x="108.7314" y="-326.9" font-family="Arial" font-size="14.00" fill="#666666">[char(36)]</text>
<polygon fill="none" stroke="#000000" points="46.5,-285.5 46.5,-315.5 275.5,-315.5 275.5,-285.5 46.5,-285.5"/>
<text text-anchor="start" x="53.5" y="-296.9" font-family="Arial" font-size="14.00" fill="#000000">user_id </text>
<text text-anchor="start" x="103.2882" y="-296.9" font-family="Arial" font-size="14.00" fill="#666666">[char(36)]</text>
<polygon fill="none" stroke="#000000" points="46.5,-255.5 46.5,-285.5 275.5,-285.5 275.5,-255.5 46.5,-255.5"/>
<text text-anchor="start" x="53.5" y="-266.9" font-family="Arial" font-size="14.00" fill="#000000">redirect_uri </text>
<text text-anchor="start" x="127.3892" y="-266.9" font-family="Arial" font-size="14.00" fill="#666666">[text]</text>
<polygon fill="none" stroke="#000000" points="46.5,-225.5 46.5,-255.5 275.5,-255.5 275.5,-225.5 46.5,-225.5"/>
<text text-anchor="start" x="53.5" y="-236.9" font-family="Arial" font-size="14.00" fill="#000000">access_token </text>
<text text-anchor="start" x="142.9768" y="-236.9" font-family="Arial" font-size="14.00" fill="#666666">[varchar(36)]</text>
<polygon fill="none" stroke="#000000" points="46.5,-195.5 46.5,-225.5 275.5,-225.5 275.5,-195.5 46.5,-195.5"/>
<text text-anchor="start" x="53.5" y="-206.9" font-family="Arial" font-size="14.00" fill="#000000">refresh_token </text>
<text text-anchor="start" x="142.9712" y="-206.9" font-family="Arial" font-size="14.00" fill="#666666">[varchar(36)]</text>
<polygon fill="none" stroke="#000000" points="46.5,-165.5 46.5,-195.5 275.5,-195.5 275.5,-165.5 46.5,-165.5"/>
<text text-anchor="start" x="53.5" y="-176.9" font-family="Arial" font-size="14.00" fill="#000000">refresh_enabled </text>
<text text-anchor="start" x="158.535" y="-176.9" font-family="Arial" font-size="14.00" fill="#666666">[tinyint(1)]</text>
<polygon fill="none" stroke="#000000" points="46.5,-135.5 46.5,-165.5 275.5,-165.5 275.5,-135.5 46.5,-135.5"/>
<text text-anchor="start" x="53.5" y="-146.9" font-family="Arial" font-size="14.00" fill="#000000">scopes </text>
<text text-anchor="start" x="101.7384" y="-146.9" font-family="Arial" font-size="14.00" fill="#666666">[text]</text>
<polygon fill="none" stroke="#000000" points="46.5,-105.5 46.5,-135.5 275.5,-135.5 275.5,-105.5 46.5,-105.5"/>
<text text-anchor="start" x="53.5" y="-116.9" font-family="Arial" font-size="14.00" fill="#000000">expires_in </text>
<text text-anchor="start" x="121.1774" y="-116.9" font-family="Arial" font-size="14.00" fill="#666666">[int(11)]</text>
<polygon fill="none" stroke="#000000" points="46.5,-75.5 46.5,-105.5 275.5,-105.5 275.5,-75.5 46.5,-75.5"/>
<text text-anchor="start" x="53.5" y="-86.9" font-family="Arial" font-size="14.00" fill="#000000">created_at </text>
<text text-anchor="start" x="123.528" y="-86.9" font-family="Arial" font-size="14.00" fill="#666666">[datetime(6)]</text>
<polygon fill="none" stroke="#000000" points="46.5,-45.5 46.5,-75.5 275.5,-75.5 275.5,-45.5 46.5,-45.5"/>
<text text-anchor="start" x="53.5" y="-56.9" font-family="Arial" font-size="14.00" fill="#000000">deleted_at </text>
<text text-anchor="start" x="122.7566" y="-56.9" font-family="Arial" font-size="14.00" fill="#666666">[datetime(6)]</text>
<polygon fill="none" stroke="#000000" stroke-width="3" points="44.5,-44.5 44.5,-412.5 276.5,-412.5 276.5,-44.5 44.5,-44.5"/>
</g>
</g>
</svg>
