<?xml version="1.0" encoding="UTF-8" standalone="no"?>
<!DOCTYPE svg PUBLIC "-//W3C//DTD SVG 1.1//EN"
        "http://www.w3.org/Graphics/SVG/1.1/DTD/svg11.dtd">
<!-- Generated by graphviz version 2.40.1 (20161225.0304)
 -->
<!-- Title: pins Pages: 1 -->
<svg width="468pt" height="800pt"
     viewBox="0.00 0.00 467.50 800.00" xmlns="http://www.w3.org/2000/svg">
    <g id="graph0" class="graph" transform="scale(1 1) rotate(0) translate(4 796)">
        <title>pins</title>
        <polygon fill="#ffffff" stroke="transparent" points="-4,4 -4,-796 463.5,-796 463.5,4 -4,4"/>
        <!-- pins -->
        <g id="node1" class="node">
            <title>pins</title>
            <polygon fill="#efefef" stroke="transparent" points="239,-712 239,-746 412,-746 412,-712 239,-712"/>
            <polygon fill="none" stroke="#000000" points="239,-712 239,-746 412,-746 412,-712 239,-712"/>
            <text text-anchor="start" x="259.0142" y="-725.6" font-family="Arial Bold" font-size="18.00" fill="#000000">
                pins
            </text>
            <text text-anchor="start" x="296.0161" y="-725.6" font-family="Arial" font-size="14.00"
                  fill="#000000"></text>
            <text text-anchor="start" x="299.9058" y="-725.6" font-family="Arial" font-size="14.00" fill="#666666">[BASE
                TABLE]
            </text>
            <polygon fill="none" stroke="#000000" points="239,-682 239,-712 412,-712 412,-682 239,-682"/>
            <text text-anchor="start" x="246" y="-694.8" font-family="Arial" font-size="14.00" fill="#000000">id</text>
            <text text-anchor="start" x="260.7861" y="-694.8" font-family="Arial" font-size="14.00" fill="#666666">
                [char(36)]
            </text>
            <polygon fill="none" stroke="#000000" points="239,-652 239,-682 412,-682 412,-652 239,-652"/>
            <text text-anchor="start" x="246" y="-664.8" font-family="Arial" font-size="14.00" fill="#000000">
                message_id
            </text>
            <text text-anchor="start" x="325.3789" y="-664.8" font-family="Arial" font-size="14.00" fill="#666666">
                [char(36)]
            </text>
            <polygon fill="none" stroke="#000000" points="239,-622 239,-652 412,-652 412,-622 239,-622"/>
            <text text-anchor="start" x="246" y="-634.8" font-family="Arial" font-size="14.00" fill="#000000">user_id
            </text>
            <text text-anchor="start" x="295.8066" y="-634.8" font-family="Arial" font-size="14.00" fill="#666666">
                [char(36)]
            </text>
            <polygon fill="none" stroke="#000000" points="239,-592 239,-622 412,-622 412,-592 239,-592"/>
            <text text-anchor="start" x="245.7451" y="-604.8" font-family="Arial" font-size="14.00" fill="#000000">
                created_at
            </text>
            <text text-anchor="start" x="315.793" y="-604.8" font-family="Arial" font-size="14.00" fill="#666666">
                [timestamp(6)]
            </text>
            <polygon fill="none" stroke="#000000" stroke-width="3"
                     points="237,-590.5 237,-747.5 413,-747.5 413,-590.5 237,-590.5"/>
        </g>
        <!-- users -->
        <g id="node2" class="node">
            <title>users</title>
            <polygon fill="#efefef" stroke="transparent" points="234,-433 234,-467 417,-467 417,-433 234,-433"/>
            <polygon fill="none" stroke="#000000" points="234,-433 234,-467 417,-467 417,-433 234,-433"/>
            <text text-anchor="start" x="253.499" y="-446.6" font-family="Arial Bold" font-size="18.00" fill="#000000">
                users
            </text>
            <text text-anchor="start" x="301.5313" y="-446.6" font-family="Arial" font-size="14.00"
                  fill="#000000"></text>
            <text text-anchor="start" x="305.4209" y="-446.6" font-family="Arial" font-size="14.00" fill="#666666">[BASE
                TABLE]
            </text>
            <polygon fill="none" stroke="#000000" points="234,-403 234,-433 417,-433 417,-403 234,-403"/>
            <text text-anchor="start" x="241" y="-415.8" font-family="Arial" font-size="14.00" fill="#000000">id</text>
            <text text-anchor="start" x="255.7861" y="-415.8" font-family="Arial" font-size="14.00" fill="#666666">
                [char(36)]
            </text>
            <polygon fill="none" stroke="#000000" points="234,-373 234,-403 417,-403 417,-373 234,-373"/>
            <text text-anchor="start" x="241" y="-385.8" font-family="Arial" font-size="14.00" fill="#000000">name
            </text>
            <text text-anchor="start" x="279.9102" y="-385.8" font-family="Arial" font-size="14.00" fill="#666666">
                [varchar(32)]
            </text>
            <polygon fill="none" stroke="#000000" points="234,-343 234,-373 417,-373 417,-343 234,-343"/>
            <text text-anchor="start" x="240.6831" y="-355.8" font-family="Arial" font-size="14.00" fill="#000000">
                display_name
            </text>
            <text text-anchor="start" x="330.9585" y="-355.8" font-family="Arial" font-size="14.00" fill="#666666">
                [varchar(64)]
            </text>
            <polygon fill="none" stroke="#000000" points="234,-313 234,-343 417,-343 417,-313 234,-313"/>
            <text text-anchor="start" x="241" y="-325.8" font-family="Arial" font-size="14.00" fill="#000000">password
            </text>
            <text text-anchor="start" x="304.8066" y="-325.8" font-family="Arial" font-size="14.00" fill="#666666">
                [char(128)]
            </text>
            <polygon fill="none" stroke="#000000" points="234,-283 234,-313 417,-313 417,-283 234,-283"/>
            <text text-anchor="start" x="241" y="-295.8" font-family="Arial" font-size="14.00" fill="#000000">salt
            </text>
            <text text-anchor="start" x="266.6758" y="-295.8" font-family="Arial" font-size="14.00" fill="#666666">
                [char(128)]
            </text>
            <polygon fill="none" stroke="#000000" points="234,-253 234,-283 417,-283 417,-253 234,-253"/>
            <text text-anchor="start" x="241" y="-265.8" font-family="Arial" font-size="14.00" fill="#000000">icon
            </text>
            <text text-anchor="start" x="270.5723" y="-265.8" font-family="Arial" font-size="14.00" fill="#666666">
                [char(36)]
            </text>
            <polygon fill="none" stroke="#000000" points="234,-223 234,-253 417,-253 417,-223 234,-223"/>
            <text text-anchor="start" x="241" y="-235.8" font-family="Arial" font-size="14.00" fill="#000000">status
            </text>
            <text text-anchor="start" x="282.2412" y="-235.8" font-family="Arial" font-size="14.00" fill="#666666">
                [tinyint(4)]
            </text>
            <polygon fill="none" stroke="#000000" points="234,-193 234,-223 417,-223 417,-193 234,-193"/>
            <text text-anchor="start" x="241" y="-205.8" font-family="Arial" font-size="14.00" fill="#000000">bot</text>
            <text text-anchor="start" x="264.3516" y="-205.8" font-family="Arial" font-size="14.00" fill="#666666">
                [tinyint(1)]
            </text>
            <polygon fill="none" stroke="#000000" points="234,-163 234,-193 417,-193 417,-163 234,-163"/>
            <text text-anchor="start" x="241" y="-175.8" font-family="Arial" font-size="14.00" fill="#000000">role
            </text>
            <text text-anchor="start" x="268.2344" y="-175.8" font-family="Arial" font-size="14.00" fill="#666666">
                [varchar(30)]
            </text>
            <polygon fill="none" stroke="#000000" points="234,-133 234,-163 417,-163 417,-133 234,-133"/>
            <text text-anchor="start" x="241" y="-145.8" font-family="Arial" font-size="14.00" fill="#000000">
                twitter_id
            </text>
            <text text-anchor="start" x="300.9102" y="-145.8" font-family="Arial" font-size="14.00" fill="#666666">
                [varchar(15)]
            </text>
            <polygon fill="none" stroke="#000000" points="234,-103 234,-133 417,-133 417,-103 234,-103"/>
            <text text-anchor="start" x="241" y="-115.8" font-family="Arial" font-size="14.00" fill="#000000">
                last_online
            </text>
            <text text-anchor="start" x="311.8271" y="-115.8" font-family="Arial" font-size="14.00" fill="#666666">
                [timestamp(6)]
            </text>
            <polygon fill="none" stroke="#000000" points="234,-73 234,-103 417,-103 417,-73 234,-73"/>
            <text text-anchor="start" x="241" y="-85.8" font-family="Arial" font-size="14.00" fill="#000000">
                created_at
            </text>
            <text text-anchor="start" x="311.0479" y="-85.8" font-family="Arial" font-size="14.00" fill="#666666">
                [timestamp(6)]
            </text>
            <polygon fill="none" stroke="#000000" points="234,-43 234,-73 417,-73 417,-43 234,-43"/>
            <text text-anchor="start" x="241" y="-55.8" font-family="Arial" font-size="14.00" fill="#000000">
                updated_at
            </text>
            <text text-anchor="start" x="314.958" y="-55.8" font-family="Arial" font-size="14.00" fill="#666666">
                [timestamp(6)]
            </text>
        </g>
        <!-- pins&#45;&gt;users -->
        <g id="edge1" class="edge">
            <title>pins:user_id&#45;&gt;users:id</title>
            <path fill="none" stroke="#000000" d="M228.8087,-636.1629C141.4136,-621.4598 140.1591,-418 234,-418"/>
            <polygon fill="#000000" stroke="#000000"
                     points="229.0336,-636.1813 238.6316,-641.4849 234.0168,-636.5906 239,-637 239,-637 239,-637 234.0168,-636.5906 239.3684,-632.5151 229.0336,-636.1813 229.0336,-636.1813"/>
            <text text-anchor="start" x="7.0117" y="-646.5" font-family="Arial" font-size="10.00" fill="#000000">FOREIGN
                KEY (user_id) REFERENCES users (id)
            </text>
        </g>
    </g>
</svg>
