<?xml version="1.0" encoding="UTF-8" standalone="no"?>
<!DOCTYPE svg PUBLIC "-//W3C//DTD SVG 1.1//EN"
 "http://www.w3.org/Graphics/SVG/1.1/DTD/svg11.dtd">
<!-- Generated by graphviz version 2.40.1 (20161225.0304)
 -->
<!-- Title: pins Pages: 1 -->
<svg width="692pt" height="742pt"
 viewBox="0.00 0.00 692.00 742.00" xmlns="http://www.w3.org/2000/svg" xmlns:xlink="http://www.w3.org/1999/xlink">
<g id="graph0" class="graph" transform="scale(1 1) rotate(0) translate(4 738)">
<title>pins</title>
<polygon fill="#ffffff" stroke="transparent" points="-4,4 -4,-738 688,-738 688,4 -4,4"/>
<!-- pins -->
<g id="node1" class="node">
<title>pins</title>
<polygon fill="#efefef" stroke="transparent" points="282,-652.5 282,-687.5 444,-687.5 444,-652.5 282,-652.5"/>
<polygon fill="none" stroke="#000000" points="282,-652.5 282,-687.5 444,-687.5 444,-652.5 282,-652.5"/>
<text text-anchor="start" x="297.8698" y="-665.3" font-family="Arial Bold" font-size="18.00" fill="#000000">pins</text>
<text text-anchor="start" x="330.8764" y="-665.3" font-family="Arial" font-size="14.00" fill="#000000"> </text>
<text text-anchor="start" x="334.767" y="-665.3" font-family="Arial" font-size="14.00" fill="#666666">[BASE TABLE]</text>
<polygon fill="none" stroke="#000000" points="282,-622.5 282,-652.5 444,-652.5 444,-622.5 282,-622.5"/>
<text text-anchor="start" x="289" y="-633.9" font-family="Arial" font-size="14.00" fill="#000000">id </text>
<text text-anchor="start" x="303.7798" y="-633.9" font-family="Arial" font-size="14.00" fill="#666666">[char(36)]</text>
<polygon fill="none" stroke="#000000" points="282,-592.5 282,-622.5 444,-622.5 444,-592.5 282,-592.5"/>
<text text-anchor="start" x="289" y="-603.9" font-family="Arial" font-size="14.00" fill="#000000">message_id </text>
<text text-anchor="start" x="368.3534" y="-603.9" font-family="Arial" font-size="14.00" fill="#666666">[char(36)]</text>
<polygon fill="none" stroke="#000000" points="282,-562.5 282,-592.5 444,-592.5 444,-562.5 282,-562.5"/>
<text text-anchor="start" x="289" y="-573.9" font-family="Arial" font-size="14.00" fill="#000000">user_id </text>
<text text-anchor="start" x="338.7882" y="-573.9" font-family="Arial" font-size="14.00" fill="#666666">[char(36)]</text>
<polygon fill="none" stroke="#000000" points="282,-532.5 282,-562.5 444,-562.5 444,-532.5 282,-532.5"/>
<text text-anchor="start" x="288.7041" y="-543.9" font-family="Arial" font-size="14.00" fill="#000000">created_at </text>
<text text-anchor="start" x="358.7321" y="-543.9" font-family="Arial" font-size="14.00" fill="#666666">[datetime(6)]</text>
<polygon fill="none" stroke="#000000" stroke-width="3" points="280.5,-531.5 280.5,-689.5 445.5,-689.5 445.5,-531.5 280.5,-531.5"/>
</g>
<!-- messages -->
<g id="node2" class="node">
<title>messages</title>
<polygon fill="#efefef" stroke="transparent" points="120,-312.5 120,-347.5 313,-347.5 313,-312.5 120,-312.5"/>
<polygon fill="none" stroke="#000000" points="120,-312.5 120,-347.5 313,-347.5 313,-312.5 120,-312.5"/>
<text text-anchor="start" x="126.8646" y="-325.3" font-family="Arial Bold" font-size="18.00" fill="#000000">messages</text>
<text text-anchor="start" x="208.8816" y="-325.3" font-family="Arial" font-size="14.00" fill="#000000"> </text>
<text text-anchor="start" x="212.7722" y="-325.3" font-family="Arial" font-size="14.00" fill="#666666">[BASE TABLE]</text>
<polygon fill="none" stroke="#000000" points="120,-282.5 120,-312.5 313,-312.5 313,-282.5 120,-282.5"/>
<text text-anchor="start" x="127" y="-293.9" font-family="Arial" font-size="14.00" fill="#000000">id </text>
<text text-anchor="start" x="141.7798" y="-293.9" font-family="Arial" font-size="14.00" fill="#666666">[char(36)]</text>
<polygon fill="none" stroke="#000000" points="120,-252.5 120,-282.5 313,-282.5 313,-252.5 120,-252.5"/>
<text text-anchor="start" x="127" y="-263.9" font-family="Arial" font-size="14.00" fill="#000000">user_id </text>
<text text-anchor="start" x="176.7882" y="-263.9" font-family="Arial" font-size="14.00" fill="#666666">[char(36)]</text>
<polygon fill="none" stroke="#000000" points="120,-222.5 120,-252.5 313,-252.5 313,-222.5 120,-222.5"/>
<text text-anchor="start" x="127" y="-233.9" font-family="Arial" font-size="14.00" fill="#000000">channel_id </text>
<text text-anchor="start" x="198.582" y="-233.9" font-family="Arial" font-size="14.00" fill="#666666">[char(36)]</text>
<polygon fill="none" stroke="#000000" points="120,-192.5 120,-222.5 313,-222.5 313,-192.5 120,-192.5"/>
<text text-anchor="start" x="127" y="-203.9" font-family="Arial" font-size="14.00" fill="#000000">text </text>
<text text-anchor="start" x="153.4544" y="-203.9" font-family="Arial" font-size="14.00" fill="#666666">[text]</text>
<polygon fill="none" stroke="#000000" points="120,-162.5 120,-192.5 313,-192.5 313,-162.5 120,-162.5"/>
<text text-anchor="start" x="127" y="-173.9" font-family="Arial" font-size="14.00" fill="#000000">created_at </text>
<text text-anchor="start" x="197.028" y="-173.9" font-family="Arial" font-size="14.00" fill="#666666">[datetime(6)]</text>
<polygon fill="none" stroke="#000000" points="120,-132.5 120,-162.5 313,-162.5 313,-132.5 120,-132.5"/>
<text text-anchor="start" x="127" y="-143.9" font-family="Arial" font-size="14.00" fill="#000000">updated_at </text>
<text text-anchor="start" x="200.9326" y="-143.9" font-family="Arial" font-size="14.00" fill="#666666">[datetime(6)]</text>
<polygon fill="none" stroke="#000000" points="120,-102.5 120,-132.5 313,-132.5 313,-102.5 120,-102.5"/>
<text text-anchor="start" x="127" y="-113.9" font-family="Arial" font-size="14.00" fill="#000000">deleted_at </text>
<text text-anchor="start" x="196.2566" y="-113.9" font-family="Arial" font-size="14.00" fill="#666666">[datetime(6)]</text>
</g>
<!-- pins&#45;&gt;messages -->
<g id="edge1" class="edge">
<title>pins:message_id&#45;&gt;messages:id</title>
<path fill="none" stroke="#000000" d="M271.9619,-606.8648C159.4632,-591.3679 447.814,-297.5 313,-297.5"/>
<polygon fill="#000000" stroke="#000000" points="272.02,-606.8684 281.7158,-611.991 277.01,-607.1842 282,-607.5 282,-607.5 282,-607.5 277.01,-607.1842 282.2842,-603.009 272.02,-606.8684 272.02,-606.8684"/>
<text text-anchor="start" x="6.827" y="-617.5" font-family="Arial" font-size="10.00" fill="#000000">FOREIGN KEY (message_id) REFERENCES messages (id)</text>
</g>
<!-- users -->
<g id="node3" class="node">
<title>users</title>
<polygon fill="#efefef" stroke="transparent" points="417,-372.5 417,-407.5 600,-407.5 600,-372.5 417,-372.5"/>
<polygon fill="none" stroke="#000000" points="417,-372.5 417,-407.5 600,-407.5 600,-372.5 417,-372.5"/>
<text text-anchor="start" x="437.8708" y="-385.3" font-family="Arial Bold" font-size="18.00" fill="#000000">users</text>
<text text-anchor="start" x="481.8754" y="-385.3" font-family="Arial" font-size="14.00" fill="#000000"> </text>
<text text-anchor="start" x="485.766" y="-385.3" font-family="Arial" font-size="14.00" fill="#666666">[BASE TABLE]</text>
<polygon fill="none" stroke="#000000" points="417,-342.5 417,-372.5 600,-372.5 600,-342.5 417,-342.5"/>
<text text-anchor="start" x="424" y="-353.9" font-family="Arial" font-size="14.00" fill="#000000">id </text>
<text text-anchor="start" x="438.7798" y="-353.9" font-family="Arial" font-size="14.00" fill="#666666">[char(36)]</text>
<polygon fill="none" stroke="#000000" points="417,-312.5 417,-342.5 600,-342.5 600,-312.5 417,-312.5"/>
<text text-anchor="start" x="424" y="-323.9" font-family="Arial" font-size="14.00" fill="#000000">name </text>
<text text-anchor="start" x="462.899" y="-323.9" font-family="Arial" font-size="14.00" fill="#666666">[varchar(32)]</text>
<polygon fill="none" stroke="#000000" points="417,-282.5 417,-312.5 600,-312.5 600,-282.5 417,-282.5"/>
<text text-anchor="start" x="423.7104" y="-293.9" font-family="Arial" font-size="14.00" fill="#000000">display_name </text>
<text text-anchor="start" x="513.953" y="-293.9" font-family="Arial" font-size="14.00" fill="#666666">[varchar(64)]</text>
<polygon fill="none" stroke="#000000" points="417,-252.5 417,-282.5 600,-282.5 600,-252.5 417,-252.5"/>
<text text-anchor="start" x="424" y="-263.9" font-family="Arial" font-size="14.00" fill="#000000">password </text>
<text text-anchor="start" x="487.7882" y="-263.9" font-family="Arial" font-size="14.00" fill="#666666">[char(128)]</text>
<polygon fill="none" stroke="#000000" points="417,-222.5 417,-252.5 600,-252.5 600,-222.5 417,-222.5"/>
<text text-anchor="start" x="424" y="-233.9" font-family="Arial" font-size="14.00" fill="#000000">salt </text>
<text text-anchor="start" x="449.6704" y="-233.9" font-family="Arial" font-size="14.00" fill="#666666">[char(128)]</text>
<polygon fill="none" stroke="#000000" points="417,-192.5 417,-222.5 600,-222.5 600,-192.5 417,-192.5"/>
<text text-anchor="start" x="424" y="-203.9" font-family="Arial" font-size="14.00" fill="#000000">icon </text>
<text text-anchor="start" x="453.5624" y="-203.9" font-family="Arial" font-size="14.00" fill="#666666">[char(36)]</text>
<polygon fill="none" stroke="#000000" points="417,-162.5 417,-192.5 600,-192.5 600,-162.5 417,-162.5"/>
<text text-anchor="start" x="424" y="-173.9" font-family="Arial" font-size="14.00" fill="#000000">status </text>
<text text-anchor="start" x="465.237" y="-173.9" font-family="Arial" font-size="14.00" fill="#666666">[tinyint(4)]</text>
<polygon fill="none" stroke="#000000" points="417,-132.5 417,-162.5 600,-162.5 600,-132.5 417,-132.5"/>
<text text-anchor="start" x="424" y="-143.9" font-family="Arial" font-size="14.00" fill="#000000">bot </text>
<text text-anchor="start" x="447.3464" y="-143.9" font-family="Arial" font-size="14.00" fill="#666666">[tinyint(1)]</text>
<polygon fill="none" stroke="#000000" points="417,-102.5 417,-132.5 600,-132.5 600,-102.5 417,-102.5"/>
<text text-anchor="start" x="424" y="-113.9" font-family="Arial" font-size="14.00" fill="#000000">role </text>
<text text-anchor="start" x="451.223" y="-113.9" font-family="Arial" font-size="14.00" fill="#666666">[varchar(30)]</text>
<polygon fill="none" stroke="#000000" points="417,-72.5 417,-102.5 600,-102.5 600,-72.5 417,-72.5"/>
<text text-anchor="start" x="424" y="-83.9" font-family="Arial" font-size="14.00" fill="#000000">created_at </text>
<text text-anchor="start" x="494.028" y="-83.9" font-family="Arial" font-size="14.00" fill="#666666">[datetime(6)]</text>
<polygon fill="none" stroke="#000000" points="417,-42.5 417,-72.5 600,-72.5 600,-42.5 417,-42.5"/>
<text text-anchor="start" x="424" y="-53.9" font-family="Arial" font-size="14.00" fill="#000000">updated_at </text>
<text text-anchor="start" x="497.9326" y="-53.9" font-family="Arial" font-size="14.00" fill="#666666">[datetime(6)]</text>
</g>
<!-- pins&#45;&gt;users -->
<g id="edge2" class="edge">
<title>pins:user_id&#45;&gt;users:id</title>
<path fill="none" stroke="#000000" d="M453.9231,-576.0644C478.9916,-567.4122 455.4773,-521.4318 444,-487 437.6754,-468.0263 423.3246,-469.9737 417,-451 403.859,-411.5769 375.4444,-357.5 417,-357.5"/>
<polygon fill="#000000" stroke="#000000" points="453.897,-576.0681 443.3557,-573.0464 448.9485,-576.7841 444,-577.5 444,-577.5 444,-577.5 448.9485,-576.7841 444.6443,-581.9536 453.897,-576.0681 453.897,-576.0681"/>
<text text-anchor="start" x="450.945" y="-587.5" font-family="Arial" font-size="10.00" fill="#000000">FOREIGN KEY (user_id) REFERENCES users (id)</text>
</g>
</g>
</svg>
