<?xml version="1.0" encoding="UTF-8" standalone="no"?>
<!DOCTYPE svg PUBLIC "-//W3C//DTD SVG 1.1//EN"
 "http://www.w3.org/Graphics/SVG/1.1/DTD/svg11.dtd">
<!-- Generated by graphviz version 2.40.1 (20161225.0304)
 -->
<!-- Title: r_sessions Pages: 1 -->
<svg width="304pt" height="374pt"
 viewBox="0.00 0.00 304.00 374.00" xmlns="http://www.w3.org/2000/svg" xmlns:xlink="http://www.w3.org/1999/xlink">
<g id="graph0" class="graph" transform="scale(1 1) rotate(0) translate(4 370)">
<title>r_sessions</title>
<polygon fill="#ffffff" stroke="transparent" points="-4,4 -4,-370 300,-370 300,4 -4,4"/>
<!-- r_sessions -->
<g id="node1" class="node">
<title>r_sessions</title>
<polygon fill="#efefef" stroke="transparent" points="46,-286 46,-320 250,-320 250,-286 46,-286"/>
<polygon fill="none" stroke="#000000" points="46,-286 46,-320 250,-320 250,-286 46,-286"/>
<text text-anchor="start" x="52.9849" y="-299.6" font-family="Arial Bold" font-size="18.00" fill="#000000">r_sessions</text>
<text text-anchor="start" x="147.0454" y="-299.6" font-family="Arial" font-size="14.00" fill="#000000"> </text>
<text text-anchor="start" x="150.9351" y="-299.6" font-family="Arial" font-size="14.00" fill="#666666">[BASE TABLE]</text>
<polygon fill="none" stroke="#000000" points="46,-256 46,-286 250,-286 250,-256 46,-256"/>
<text text-anchor="start" x="53" y="-268.8" font-family="Arial" font-size="14.00" fill="#000000">token </text>
<text text-anchor="start" x="91.1377" y="-268.8" font-family="Arial" font-size="14.00" fill="#666666">[varchar(50)]</text>
<polygon fill="none" stroke="#000000" points="46,-226 46,-256 250,-256 250,-226 46,-226"/>
<text text-anchor="start" x="53" y="-238.8" font-family="Arial" font-size="14.00" fill="#000000">reference_id </text>
<text text-anchor="start" x="134.7168" y="-238.8" font-family="Arial" font-size="14.00" fill="#666666">[char(36)]</text>
<polygon fill="none" stroke="#000000" points="46,-196 46,-226 250,-226 250,-196 46,-196"/>
<text text-anchor="start" x="53" y="-208.8" font-family="Arial" font-size="14.00" fill="#000000">user_id </text>
<text text-anchor="start" x="102.8066" y="-208.8" font-family="Arial" font-size="14.00" fill="#666666">[varchar(36)]</text>
<polygon fill="none" stroke="#000000" points="46,-166 46,-196 250,-196 250,-166 46,-166"/>
<text text-anchor="start" x="53" y="-178.8" font-family="Arial" font-size="14.00" fill="#000000">last_access </text>
<text text-anchor="start" x="130.0342" y="-178.8" font-family="Arial" font-size="14.00" fill="#666666">[timestamp(6)]</text>
<polygon fill="none" stroke="#000000" points="46,-136 46,-166 250,-166 250,-136 46,-136"/>
<text text-anchor="start" x="53" y="-148.8" font-family="Arial" font-size="14.00" fill="#000000">last_ip </text>
<text text-anchor="start" x="97.3584" y="-148.8" font-family="Arial" font-size="14.00" fill="#666666">[text]</text>
<polygon fill="none" stroke="#000000" points="46,-106 46,-136 250,-136 250,-106 46,-106"/>
<text text-anchor="start" x="53" y="-118.8" font-family="Arial" font-size="14.00" fill="#000000">last_user_agent </text>
<text text-anchor="start" x="156.5166" y="-118.8" font-family="Arial" font-size="14.00" fill="#666666">[text]</text>
<polygon fill="none" stroke="#000000" points="46,-76 46,-106 250,-106 250,-76 46,-76"/>
<text text-anchor="start" x="53" y="-88.8" font-family="Arial" font-size="14.00" fill="#000000">data </text>
<text text-anchor="start" x="84.1377" y="-88.8" font-family="Arial" font-size="14.00" fill="#666666">[longblob]</text>
<polygon fill="none" stroke="#000000" points="46,-46 46,-76 250,-76 250,-46 46,-46"/>
<text text-anchor="start" x="53" y="-58.8" font-family="Arial" font-size="14.00" fill="#000000">created </text>
<text text-anchor="start" x="103.5859" y="-58.8" font-family="Arial" font-size="14.00" fill="#666666">[timestamp(6)]</text>
<polygon fill="none" stroke="#000000" stroke-width="3" points="44.5,-44.5 44.5,-321.5 251.5,-321.5 251.5,-44.5 44.5,-44.5"/>
</g>
</g>
</svg>
