<?xml version="1.0" encoding="UTF-8" standalone="no"?>
<!DOCTYPE svg PUBLIC "-//W3C//DTD SVG 1.1//EN"
 "http://www.w3.org/Graphics/SVG/1.1/DTD/svg11.dtd">
<!-- Generated by graphviz version 2.40.1 (20161225.0304)
 -->
<!-- Title: r_sessions Pages: 1 -->
<svg width="297pt" height="285pt"
 viewBox="0.00 0.00 297.00 285.00" xmlns="http://www.w3.org/2000/svg" xmlns:xlink="http://www.w3.org/1999/xlink">
<g id="graph0" class="graph" transform="scale(1 1) rotate(0) translate(4 281)">
<title>r_sessions</title>
<polygon fill="#ffffff" stroke="transparent" points="-4,4 -4,-281 293,-281 293,4 -4,4"/>
<!-- r_sessions -->
<g id="node1" class="node">
<title>r_sessions</title>
<polygon fill="#efefef" stroke="transparent" points="46.5,-195.5 46.5,-230.5 243.5,-230.5 243.5,-195.5 46.5,-195.5"/>
<polygon fill="none" stroke="#000000" points="46.5,-195.5 46.5,-230.5 243.5,-230.5 243.5,-195.5 46.5,-195.5"/>
<text text-anchor="start" x="53.3675" y="-208.3" font-family="Arial Bold" font-size="18.00" fill="#000000">r_sessions</text>
<text text-anchor="start" x="139.3787" y="-208.3" font-family="Arial" font-size="14.00" fill="#000000"> </text>
<text text-anchor="start" x="143.2693" y="-208.3" font-family="Arial" font-size="14.00" fill="#666666">[BASE TABLE]</text>
<polygon fill="none" stroke="#000000" points="46.5,-165.5 46.5,-195.5 243.5,-195.5 243.5,-165.5 46.5,-165.5"/>
<text text-anchor="start" x="53.5" y="-176.9" font-family="Arial" font-size="14.00" fill="#000000">token </text>
<text text-anchor="start" x="91.629" y="-176.9" font-family="Arial" font-size="14.00" fill="#666666">[varchar(50)]</text>
<polygon fill="none" stroke="#000000" points="46.5,-135.5 46.5,-165.5 243.5,-165.5 243.5,-135.5 46.5,-135.5"/>
<text text-anchor="start" x="53.5" y="-146.9" font-family="Arial" font-size="14.00" fill="#000000">reference_id </text>
<text text-anchor="start" x="135.1872" y="-146.9" font-family="Arial" font-size="14.00" fill="#666666">[char(36)]</text>
<polygon fill="none" stroke="#000000" points="46.5,-105.5 46.5,-135.5 243.5,-135.5 243.5,-105.5 46.5,-105.5"/>
<text text-anchor="start" x="53.5" y="-116.9" font-family="Arial" font-size="14.00" fill="#000000">user_id </text>
<text text-anchor="start" x="103.2882" y="-116.9" font-family="Arial" font-size="14.00" fill="#666666">[varchar(36)]</text>
<polygon fill="none" stroke="#000000" points="46.5,-75.5 46.5,-105.5 243.5,-105.5 243.5,-75.5 46.5,-75.5"/>
<text text-anchor="start" x="53.5" y="-86.9" font-family="Arial" font-size="14.00" fill="#000000">data </text>
<text text-anchor="start" x="84.629" y="-86.9" font-family="Arial" font-size="14.00" fill="#666666">[longblob]</text>
<polygon fill="none" stroke="#000000" points="46.5,-45.5 46.5,-75.5 243.5,-75.5 243.5,-45.5 46.5,-45.5"/>
<text text-anchor="start" x="53.5" y="-56.9" font-family="Arial" font-size="14.00" fill="#000000">created </text>
<text text-anchor="start" x="104.0722" y="-56.9" font-family="Arial" font-size="14.00" fill="#666666">[datetime(6)]</text>
<polygon fill="none" stroke="#000000" stroke-width="3" points="44.5,-44.5 44.5,-232.5 244.5,-232.5 244.5,-44.5 44.5,-44.5"/>
</g>
</g>
</svg>
