<?xml version="1.0" encoding="UTF-8" standalone="no"?>
<!DOCTYPE svg PUBLIC "-//W3C//DTD SVG 1.1//EN"
        "http://www.w3.org/Graphics/SVG/1.1/DTD/svg11.dtd">
<!-- Generated by graphviz version 2.40.1 (20161225.0304)
 -->
<!-- Title: rbac_overrides Pages: 1 -->
<svg width="339pt" height="284pt"
     viewBox="0.00 0.00 339.00 284.00" xmlns="http://www.w3.org/2000/svg">
    <g id="graph0" class="graph" transform="scale(1 1) rotate(0) translate(4 280)">
        <title>rbac_overrides</title>
        <polygon fill="#ffffff" stroke="transparent" points="-4,4 -4,-280 335,-280 335,4 -4,4"/>
        <!-- rbac_overrides -->
        <g id="node1" class="node">
            <title>rbac_overrides</title>
            <polygon fill="#efefef" stroke="transparent" points="46.5,-196 46.5,-230 285.5,-230 285.5,-196 46.5,-196"/>
            <polygon fill="none" stroke="#000000" points="46.5,-196 46.5,-230 285.5,-230 285.5,-196 46.5,-196"/>
            <text text-anchor="start" x="53.4771" y="-209.6" font-family="Arial Bold" font-size="18.00" fill="#000000">
                rbac_overrides
            </text>
            <text text-anchor="start" x="182.5532" y="-209.6" font-family="Arial" font-size="14.00"
                  fill="#000000"></text>
            <text text-anchor="start" x="186.4429" y="-209.6" font-family="Arial" font-size="14.00" fill="#666666">[BASE
                TABLE]
            </text>
            <polygon fill="none" stroke="#000000" points="46.5,-166 46.5,-196 285.5,-196 285.5,-166 46.5,-166"/>
            <text text-anchor="start" x="53.5" y="-178.8" font-family="Arial" font-size="14.00" fill="#000000">user_id
            </text>
            <text text-anchor="start" x="103.3066" y="-178.8" font-family="Arial" font-size="14.00" fill="#666666">
                [char(36)]
            </text>
            <polygon fill="none" stroke="#000000" points="46.5,-136 46.5,-166 285.5,-166 285.5,-136 46.5,-136"/>
            <text text-anchor="start" x="53.5" y="-148.8" font-family="Arial" font-size="14.00" fill="#000000">
                permission
            </text>
            <text text-anchor="start" x="125.0791" y="-148.8" font-family="Arial" font-size="14.00" fill="#666666">
                [varchar(50)]
            </text>
            <polygon fill="none" stroke="#000000" points="46.5,-106 46.5,-136 285.5,-136 285.5,-106 46.5,-106"/>
            <text text-anchor="start" x="53.5" y="-118.8" font-family="Arial" font-size="14.00" fill="#000000">
                validity
            </text>
            <text text-anchor="start" x="100.1826" y="-118.8" font-family="Arial" font-size="14.00" fill="#666666">
                [tinyint(1)]
            </text>
            <polygon fill="none" stroke="#000000" points="46.5,-76 46.5,-106 285.5,-106 285.5,-76 46.5,-76"/>
            <text text-anchor="start" x="53.5" y="-88.8" font-family="Arial" font-size="14.00" fill="#000000">
                created_at
            </text>
            <text text-anchor="start" x="123.5479" y="-88.8" font-family="Arial" font-size="14.00" fill="#666666">
                [timestamp(6)]
            </text>
            <polygon fill="none" stroke="#000000" points="46.5,-46 46.5,-76 285.5,-76 285.5,-46 46.5,-46"/>
            <text text-anchor="start" x="53.5" y="-58.8" font-family="Arial" font-size="14.00" fill="#000000">
                updated_at
            </text>
            <text text-anchor="start" x="127.458" y="-58.8" font-family="Arial" font-size="14.00" fill="#666666">
                [timestamp(6)]
            </text>
            <polygon fill="none" stroke="#000000" stroke-width="3"
                     points="44.5,-44.5 44.5,-231.5 286.5,-231.5 286.5,-44.5 44.5,-44.5"/>
        </g>
    </g>
</svg>
