<?xml version="1.0" encoding="UTF-8" standalone="no"?>
<!DOCTYPE svg PUBLIC "-//W3C//DTD SVG 1.1//EN"
 "http://www.w3.org/Graphics/SVG/1.1/DTD/svg11.dtd">
<!-- Generated by graphviz version 2.40.1 (20161225.0304)
 -->
<!-- Title: stamps Pages: 1 -->
<svg width="704pt" height="1199pt"
 viewBox="0.00 0.00 704.00 1199.00" xmlns="http://www.w3.org/2000/svg" xmlns:xlink="http://www.w3.org/1999/xlink">
<g id="graph0" class="graph" transform="scale(1 1) rotate(0) translate(4 1195)">
<title>stamps</title>
<polygon fill="#ffffff" stroke="transparent" points="-4,4 -4,-1195 700,-1195 700,4 -4,4"/>
<!-- stamps -->
<g id="node1" class="node">
<title>stamps</title>
<polygon fill="#efefef" stroke="transparent" points="301,-772.5 301,-807.5 470,-807.5 470,-772.5 301,-772.5"/>
<polygon fill="none" stroke="#000000" points="301,-772.5 301,-807.5 470,-807.5 470,-772.5 301,-772.5"/>
<text text-anchor="start" x="307.8697" y="-785.3" font-family="Arial Bold" font-size="18.00" fill="#000000">stamps</text>
<text text-anchor="start" x="365.8765" y="-785.3" font-family="Arial" font-size="14.00" fill="#000000"> </text>
<text text-anchor="start" x="369.7671" y="-785.3" font-family="Arial" font-size="14.00" fill="#666666">[BASE TABLE]</text>
<polygon fill="none" stroke="#000000" points="301,-742.5 301,-772.5 470,-772.5 470,-742.5 301,-742.5"/>
<text text-anchor="start" x="308" y="-753.9" font-family="Arial" font-size="14.00" fill="#000000">id </text>
<text text-anchor="start" x="322.7798" y="-753.9" font-family="Arial" font-size="14.00" fill="#666666">[char(36)]</text>
<polygon fill="none" stroke="#000000" points="301,-712.5 301,-742.5 470,-742.5 470,-712.5 301,-712.5"/>
<text text-anchor="start" x="308" y="-723.9" font-family="Arial" font-size="14.00" fill="#000000">name </text>
<text text-anchor="start" x="346.899" y="-723.9" font-family="Arial" font-size="14.00" fill="#666666">[varchar(32)]</text>
<polygon fill="none" stroke="#000000" points="301,-682.5 301,-712.5 470,-712.5 470,-682.5 301,-682.5"/>
<text text-anchor="start" x="308" y="-693.9" font-family="Arial" font-size="14.00" fill="#000000">creator_id </text>
<text text-anchor="start" x="374.122" y="-693.9" font-family="Arial" font-size="14.00" fill="#666666">[char(36)]</text>
<polygon fill="none" stroke="#000000" points="301,-652.5 301,-682.5 470,-682.5 470,-652.5 301,-652.5"/>
<text text-anchor="start" x="308" y="-663.9" font-family="Arial" font-size="14.00" fill="#000000">file_id </text>
<text text-anchor="start" x="348.4488" y="-663.9" font-family="Arial" font-size="14.00" fill="#666666">[char(36)]</text>
<polygon fill="none" stroke="#000000" points="301,-622.5 301,-652.5 470,-652.5 470,-622.5 301,-622.5"/>
<text text-anchor="start" x="308" y="-633.9" font-family="Arial" font-size="14.00" fill="#000000">is_unicode </text>
<text text-anchor="start" x="378.7994" y="-633.9" font-family="Arial" font-size="14.00" fill="#666666">[tinyint(1)]</text>
<polygon fill="none" stroke="#000000" points="301,-592.5 301,-622.5 470,-622.5 470,-592.5 301,-592.5"/>
<text text-anchor="start" x="308" y="-603.9" font-family="Arial" font-size="14.00" fill="#000000">created_at </text>
<text text-anchor="start" x="378.028" y="-603.9" font-family="Arial" font-size="14.00" fill="#666666">[datetime(6)]</text>
<polygon fill="none" stroke="#000000" points="301,-562.5 301,-592.5 470,-592.5 470,-562.5 301,-562.5"/>
<text text-anchor="start" x="308" y="-573.9" font-family="Arial" font-size="14.00" fill="#000000">updated_at </text>
<text text-anchor="start" x="381.9326" y="-573.9" font-family="Arial" font-size="14.00" fill="#666666">[datetime(6)]</text>
<polygon fill="none" stroke="#000000" points="301,-532.5 301,-562.5 470,-562.5 470,-532.5 301,-532.5"/>
<text text-anchor="start" x="308" y="-543.9" font-family="Arial" font-size="14.00" fill="#000000">deleted_at </text>
<text text-anchor="start" x="377.2566" y="-543.9" font-family="Arial" font-size="14.00" fill="#666666">[datetime(6)]</text>
<polygon fill="none" stroke="#000000" stroke-width="3" points="299,-531.5 299,-809.5 471,-809.5 471,-531.5 299,-531.5"/>
</g>
<!-- users -->
<g id="node3" class="node">
<title>users</title>
<polygon fill="#efefef" stroke="transparent" points="147,-372.5 147,-407.5 330,-407.5 330,-372.5 147,-372.5"/>
<polygon fill="none" stroke="#000000" points="147,-372.5 147,-407.5 330,-407.5 330,-372.5 147,-372.5"/>
<text text-anchor="start" x="167.8708" y="-385.3" font-family="Arial Bold" font-size="18.00" fill="#000000">users</text>
<text text-anchor="start" x="211.8754" y="-385.3" font-family="Arial" font-size="14.00" fill="#000000"> </text>
<text text-anchor="start" x="215.766" y="-385.3" font-family="Arial" font-size="14.00" fill="#666666">[BASE TABLE]</text>
<polygon fill="none" stroke="#000000" points="147,-342.5 147,-372.5 330,-372.5 330,-342.5 147,-342.5"/>
<text text-anchor="start" x="154" y="-353.9" font-family="Arial" font-size="14.00" fill="#000000">id </text>
<text text-anchor="start" x="168.7798" y="-353.9" font-family="Arial" font-size="14.00" fill="#666666">[char(36)]</text>
<polygon fill="none" stroke="#000000" points="147,-312.5 147,-342.5 330,-342.5 330,-312.5 147,-312.5"/>
<text text-anchor="start" x="154" y="-323.9" font-family="Arial" font-size="14.00" fill="#000000">name </text>
<text text-anchor="start" x="192.899" y="-323.9" font-family="Arial" font-size="14.00" fill="#666666">[varchar(32)]</text>
<polygon fill="none" stroke="#000000" points="147,-282.5 147,-312.5 330,-312.5 330,-282.5 147,-282.5"/>
<text text-anchor="start" x="153.7104" y="-293.9" font-family="Arial" font-size="14.00" fill="#000000">display_name </text>
<text text-anchor="start" x="243.953" y="-293.9" font-family="Arial" font-size="14.00" fill="#666666">[varchar(32)]</text>
<polygon fill="none" stroke="#000000" points="147,-252.5 147,-282.5 330,-282.5 330,-252.5 147,-252.5"/>
<text text-anchor="start" x="154" y="-263.9" font-family="Arial" font-size="14.00" fill="#000000">password </text>
<text text-anchor="start" x="217.7882" y="-263.9" font-family="Arial" font-size="14.00" fill="#666666">[char(128)]</text>
<polygon fill="none" stroke="#000000" points="147,-222.5 147,-252.5 330,-252.5 330,-222.5 147,-222.5"/>
<text text-anchor="start" x="154" y="-233.9" font-family="Arial" font-size="14.00" fill="#000000">salt </text>
<text text-anchor="start" x="179.6704" y="-233.9" font-family="Arial" font-size="14.00" fill="#666666">[char(128)]</text>
<polygon fill="none" stroke="#000000" points="147,-192.5 147,-222.5 330,-222.5 330,-192.5 147,-192.5"/>
<text text-anchor="start" x="154" y="-203.9" font-family="Arial" font-size="14.00" fill="#000000">icon </text>
<text text-anchor="start" x="183.5624" y="-203.9" font-family="Arial" font-size="14.00" fill="#666666">[char(36)]</text>
<polygon fill="none" stroke="#000000" points="147,-162.5 147,-192.5 330,-192.5 330,-162.5 147,-162.5"/>
<text text-anchor="start" x="154" y="-173.9" font-family="Arial" font-size="14.00" fill="#000000">status </text>
<text text-anchor="start" x="195.237" y="-173.9" font-family="Arial" font-size="14.00" fill="#666666">[tinyint(4)]</text>
<polygon fill="none" stroke="#000000" points="147,-132.5 147,-162.5 330,-162.5 330,-132.5 147,-132.5"/>
<text text-anchor="start" x="154" y="-143.9" font-family="Arial" font-size="14.00" fill="#000000">bot </text>
<text text-anchor="start" x="177.3464" y="-143.9" font-family="Arial" font-size="14.00" fill="#666666">[tinyint(1)]</text>
<polygon fill="none" stroke="#000000" points="147,-102.5 147,-132.5 330,-132.5 330,-102.5 147,-102.5"/>
<text text-anchor="start" x="154" y="-113.9" font-family="Arial" font-size="14.00" fill="#000000">role </text>
<text text-anchor="start" x="181.223" y="-113.9" font-family="Arial" font-size="14.00" fill="#666666">[varchar(30)]</text>
<polygon fill="none" stroke="#000000" points="147,-72.5 147,-102.5 330,-102.5 330,-72.5 147,-72.5"/>
<text text-anchor="start" x="154" y="-83.9" font-family="Arial" font-size="14.00" fill="#000000">created_at </text>
<text text-anchor="start" x="224.028" y="-83.9" font-family="Arial" font-size="14.00" fill="#666666">[datetime(6)]</text>
<polygon fill="none" stroke="#000000" points="147,-42.5 147,-72.5 330,-72.5 330,-42.5 147,-42.5"/>
<text text-anchor="start" x="154" y="-53.9" font-family="Arial" font-size="14.00" fill="#000000">updated_at </text>
<text text-anchor="start" x="227.9326" y="-53.9" font-family="Arial" font-size="14.00" fill="#666666">[datetime(6)]</text>
</g>
<!-- stamps&#45;&gt;users -->
<g id="edge2" class="edge">
<title>stamps:creator_id&#45;&gt;users:id</title>
<path fill="none" stroke="#000000" stroke-dasharray="5,2" d="M290.7394,-696.9496C212.2747,-687.9995 271.0989,-571.7828 301,-487 307.8335,-467.6241 323.1665,-470.3759 330,-451 343.8214,-411.8103 371.5556,-357.5 330,-357.5"/>
<polygon fill="#000000" stroke="#000000" points="291.0144,-696.9643 300.7589,-701.9935 296.0072,-697.2321 301,-697.5 301,-697.5 301,-697.5 296.0072,-697.2321 301.2411,-693.0065 291.0144,-696.9643 291.0144,-696.9643"/>
<text text-anchor="start" x="211.3245" y="-707.5" font-family="Arial" font-size="10.00" fill="#000000">Additional Relation</text>
</g>
<!-- files -->
<g id="node4" class="node">
<title>files</title>
<polygon fill="#efefef" stroke="transparent" points="434,-372.5 434,-407.5 634,-407.5 634,-372.5 434,-372.5"/>
<polygon fill="none" stroke="#000000" points="434,-372.5 434,-407.5 634,-407.5 634,-372.5 434,-372.5"/>
<text text-anchor="start" x="469.3747" y="-385.3" font-family="Arial Bold" font-size="18.00" fill="#000000">files</text>
<text text-anchor="start" x="501.3715" y="-385.3" font-family="Arial" font-size="14.00" fill="#000000"> </text>
<text text-anchor="start" x="505.2621" y="-385.3" font-family="Arial" font-size="14.00" fill="#666666">[BASE TABLE]</text>
<polygon fill="none" stroke="#000000" points="434,-342.5 434,-372.5 634,-372.5 634,-342.5 434,-342.5"/>
<text text-anchor="start" x="441" y="-353.9" font-family="Arial" font-size="14.00" fill="#000000">id </text>
<text text-anchor="start" x="455.7798" y="-353.9" font-family="Arial" font-size="14.00" fill="#666666">[char(36)]</text>
<polygon fill="none" stroke="#000000" points="434,-312.5 434,-342.5 634,-342.5 634,-312.5 434,-312.5"/>
<text text-anchor="start" x="441" y="-323.9" font-family="Arial" font-size="14.00" fill="#000000">name </text>
<text text-anchor="start" x="479.899" y="-323.9" font-family="Arial" font-size="14.00" fill="#666666">[text]</text>
<polygon fill="none" stroke="#000000" points="434,-282.5 434,-312.5 634,-312.5 634,-282.5 434,-282.5"/>
<text text-anchor="start" x="441" y="-293.9" font-family="Arial" font-size="14.00" fill="#000000">mime </text>
<text text-anchor="start" x="479.101" y="-293.9" font-family="Arial" font-size="14.00" fill="#666666">[text]</text>
<polygon fill="none" stroke="#000000" points="434,-252.5 434,-282.5 634,-282.5 634,-252.5 434,-252.5"/>
<text text-anchor="start" x="441" y="-263.9" font-family="Arial" font-size="14.00" fill="#000000">size </text>
<text text-anchor="start" x="469.7798" y="-263.9" font-family="Arial" font-size="14.00" fill="#666666">[bigint(20)]</text>
<polygon fill="none" stroke="#000000" points="434,-222.5 434,-252.5 634,-252.5 634,-222.5 434,-222.5"/>
<text text-anchor="start" x="441" y="-233.9" font-family="Arial" font-size="14.00" fill="#000000">creator_id </text>
<text text-anchor="start" x="507.122" y="-233.9" font-family="Arial" font-size="14.00" fill="#666666">[char(36)]</text>
<polygon fill="none" stroke="#000000" points="434,-192.5 434,-222.5 634,-222.5 634,-192.5 434,-192.5"/>
<text text-anchor="start" x="441" y="-203.9" font-family="Arial" font-size="14.00" fill="#000000">hash </text>
<text text-anchor="start" x="475.2384" y="-203.9" font-family="Arial" font-size="14.00" fill="#666666">[char(32)]</text>
<polygon fill="none" stroke="#000000" points="434,-162.5 434,-192.5 634,-192.5 634,-162.5 434,-162.5"/>
<text text-anchor="start" x="441" y="-173.9" font-family="Arial" font-size="14.00" fill="#000000">type </text>
<text text-anchor="start" x="471.3464" y="-173.9" font-family="Arial" font-size="14.00" fill="#666666">[varchar(30)]</text>
<polygon fill="none" stroke="#000000" points="434,-132.5 434,-162.5 634,-162.5 634,-132.5 434,-132.5"/>
<text text-anchor="start" x="440.6536" y="-143.9" font-family="Arial" font-size="14.00" fill="#000000">is_animated_image </text>
<text text-anchor="start" x="565.9018" y="-143.9" font-family="Arial" font-size="14.00" fill="#666666">[tinyint(1)]</text>
<polygon fill="none" stroke="#000000" points="434,-102.5 434,-132.5 634,-132.5 634,-102.5 434,-102.5"/>
<text text-anchor="start" x="441" y="-113.9" font-family="Arial" font-size="14.00" fill="#000000">channel_id </text>
<text text-anchor="start" x="512.582" y="-113.9" font-family="Arial" font-size="14.00" fill="#666666">[char(36)]</text>
<polygon fill="none" stroke="#000000" points="434,-72.5 434,-102.5 634,-102.5 634,-72.5 434,-72.5"/>
<text text-anchor="start" x="441" y="-83.9" font-family="Arial" font-size="14.00" fill="#000000">created_at </text>
<text text-anchor="start" x="511.028" y="-83.9" font-family="Arial" font-size="14.00" fill="#666666">[datetime(6)]</text>
<polygon fill="none" stroke="#000000" points="434,-42.5 434,-72.5 634,-72.5 634,-42.5 434,-42.5"/>
<text text-anchor="start" x="441" y="-53.9" font-family="Arial" font-size="14.00" fill="#000000">deleted_at </text>
<text text-anchor="start" x="510.2566" y="-53.9" font-family="Arial" font-size="14.00" fill="#666666">[datetime(6)]</text>
</g>
<!-- stamps&#45;&gt;files -->
<g id="edge3" class="edge">
<title>stamps:file_id&#45;&gt;files:id</title>
<path fill="none" stroke="#000000" d="M480.0392,-666.8685C545.8109,-658.0072 499.3206,-557.7863 470,-487 461.3409,-466.095 442.6591,-471.905 434,-451 418.0974,-412.6077 392.4444,-357.5 434,-357.5"/>
<polygon fill="#000000" stroke="#000000" points="479.9803,-666.8721 469.7175,-663.0089 474.9901,-667.1861 470,-667.5 470,-667.5 470,-667.5 474.9901,-667.1861 470.2825,-671.9911 479.9803,-666.8721 479.9803,-666.8721"/>
<text text-anchor="start" x="476.616" y="-677.5" font-family="Arial" font-size="10.00" fill="#000000">FOREIGN KEY (file_id) REFERENCES files (id)</text>
</g>
<!-- messages_stamps -->
<g id="node2" class="node">
<title>messages_stamps</title>
<polygon fill="#efefef" stroke="transparent" points="255,-1112.5 255,-1147.5 516,-1147.5 516,-1112.5 255,-1112.5"/>
<polygon fill="none" stroke="#000000" points="255,-1112.5 255,-1147.5 516,-1147.5 516,-1112.5 255,-1112.5"/>
<text text-anchor="start" x="261.8581" y="-1125.3" font-family="Arial Bold" font-size="18.00" fill="#000000">messages_stamps</text>
<text text-anchor="start" x="411.8881" y="-1125.3" font-family="Arial" font-size="14.00" fill="#000000"> </text>
<text text-anchor="start" x="415.7787" y="-1125.3" font-family="Arial" font-size="14.00" fill="#666666">[BASE TABLE]</text>
<polygon fill="none" stroke="#000000" points="255,-1082.5 255,-1112.5 516,-1112.5 516,-1082.5 255,-1082.5"/>
<text text-anchor="start" x="262" y="-1093.9" font-family="Arial" font-size="14.00" fill="#000000">message_id </text>
<text text-anchor="start" x="341.3534" y="-1093.9" font-family="Arial" font-size="14.00" fill="#666666">[char(36)]</text>
<polygon fill="none" stroke="#000000" points="255,-1052.5 255,-1082.5 516,-1082.5 516,-1052.5 255,-1052.5"/>
<text text-anchor="start" x="262" y="-1063.9" font-family="Arial" font-size="14.00" fill="#000000">stamp_id </text>
<text text-anchor="start" x="322.6788" y="-1063.9" font-family="Arial" font-size="14.00" fill="#666666">[char(36)]</text>
<polygon fill="none" stroke="#000000" points="255,-1022.5 255,-1052.5 516,-1052.5 516,-1022.5 255,-1022.5"/>
<text text-anchor="start" x="262" y="-1033.9" font-family="Arial" font-size="14.00" fill="#000000">user_id </text>
<text text-anchor="start" x="311.7882" y="-1033.9" font-family="Arial" font-size="14.00" fill="#666666">[char(36)]</text>
<polygon fill="none" stroke="#000000" points="255,-992.5 255,-1022.5 516,-1022.5 516,-992.5 255,-992.5"/>
<text text-anchor="start" x="262" y="-1003.9" font-family="Arial" font-size="14.00" fill="#000000">count </text>
<text text-anchor="start" x="300.129" y="-1003.9" font-family="Arial" font-size="14.00" fill="#666666">[bigint(20)]</text>
<polygon fill="none" stroke="#000000" points="255,-962.5 255,-992.5 516,-992.5 516,-962.5 255,-962.5"/>
<text text-anchor="start" x="262" y="-973.9" font-family="Arial" font-size="14.00" fill="#000000">created_at </text>
<text text-anchor="start" x="332.028" y="-973.9" font-family="Arial" font-size="14.00" fill="#666666">[datetime(6)]</text>
<polygon fill="none" stroke="#000000" points="255,-932.5 255,-962.5 516,-962.5 516,-932.5 255,-932.5"/>
<text text-anchor="start" x="262" y="-943.9" font-family="Arial" font-size="14.00" fill="#000000">updated_at </text>
<text text-anchor="start" x="335.9326" y="-943.9" font-family="Arial" font-size="14.00" fill="#666666">[datetime(6)]</text>
</g>
<!-- messages_stamps&#45;&gt;stamps -->
<g id="edge1" class="edge">
<title>messages_stamps:stamp_id&#45;&gt;stamps:id</title>
<path fill="none" stroke="#000000" d="M244.7471,-1066.9106C118.1097,-1051.9577 165.2502,-757.5 301,-757.5"/>
<polygon fill="#000000" stroke="#000000" points="245.0165,-1066.926 254.7417,-1071.9926 250.0082,-1067.213 255,-1067.5 255,-1067.5 255,-1067.5 250.0082,-1067.213 255.2583,-1063.0074 245.0165,-1066.926 245.0165,-1066.926"/>
<text text-anchor="start" x="7.166" y="-1077.5" font-family="Arial" font-size="10.00" fill="#000000">FOREIGN KEY (stamp_id) REFERENCES stamps (id)</text>
</g>
</g>
</svg>
