<?xml version="1.0" encoding="UTF-8" standalone="no"?>
<!DOCTYPE svg PUBLIC "-//W3C//DTD SVG 1.1//EN"
 "http://www.w3.org/Graphics/SVG/1.1/DTD/svg11.dtd">
<!-- Generated by graphviz version 2.40.1 (20161225.0304)
 -->
<!-- Title: stamps Pages: 1 -->
<svg width="704pt" height="1289pt"
 viewBox="0.00 0.00 704.00 1289.00" xmlns="http://www.w3.org/2000/svg" xmlns:xlink="http://www.w3.org/1999/xlink">
<g id="graph0" class="graph" transform="scale(1 1) rotate(0) translate(4 1285)">
<title>stamps</title>
<polygon fill="#ffffff" stroke="transparent" points="-4,4 -4,-1285 700,-1285 700,4 -4,4"/>
<!-- stamps -->
<g id="node1" class="node">
<title>stamps</title>
<polygon fill="#efefef" stroke="transparent" points="301,-862.5 301,-897.5 470,-897.5 470,-862.5 301,-862.5"/>
<polygon fill="none" stroke="#000000" points="301,-862.5 301,-897.5 470,-897.5 470,-862.5 301,-862.5"/>
<text text-anchor="start" x="307.8697" y="-875.3" font-family="Arial Bold" font-size="18.00" fill="#000000">stamps</text>
<text text-anchor="start" x="365.8765" y="-875.3" font-family="Arial" font-size="14.00" fill="#000000"> </text>
<text text-anchor="start" x="369.7671" y="-875.3" font-family="Arial" font-size="14.00" fill="#666666">[BASE TABLE]</text>
<polygon fill="none" stroke="#000000" points="301,-832.5 301,-862.5 470,-862.5 470,-832.5 301,-832.5"/>
<text text-anchor="start" x="308" y="-843.9" font-family="Arial" font-size="14.00" fill="#000000">id </text>
<text text-anchor="start" x="322.7798" y="-843.9" font-family="Arial" font-size="14.00" fill="#666666">[char(36)]</text>
<polygon fill="none" stroke="#000000" points="301,-802.5 301,-832.5 470,-832.5 470,-802.5 301,-802.5"/>
<text text-anchor="start" x="308" y="-813.9" font-family="Arial" font-size="14.00" fill="#000000">name </text>
<text text-anchor="start" x="346.899" y="-813.9" font-family="Arial" font-size="14.00" fill="#666666">[varchar(32)]</text>
<polygon fill="none" stroke="#000000" points="301,-772.5 301,-802.5 470,-802.5 470,-772.5 301,-772.5"/>
<text text-anchor="start" x="308" y="-783.9" font-family="Arial" font-size="14.00" fill="#000000">creator_id </text>
<text text-anchor="start" x="374.122" y="-783.9" font-family="Arial" font-size="14.00" fill="#666666">[char(36)]</text>
<polygon fill="none" stroke="#000000" points="301,-742.5 301,-772.5 470,-772.5 470,-742.5 301,-742.5"/>
<text text-anchor="start" x="308" y="-753.9" font-family="Arial" font-size="14.00" fill="#000000">file_id </text>
<text text-anchor="start" x="348.4488" y="-753.9" font-family="Arial" font-size="14.00" fill="#666666">[char(36)]</text>
<polygon fill="none" stroke="#000000" points="301,-712.5 301,-742.5 470,-742.5 470,-712.5 301,-712.5"/>
<text text-anchor="start" x="308" y="-723.9" font-family="Arial" font-size="14.00" fill="#000000">is_unicode </text>
<text text-anchor="start" x="378.7994" y="-723.9" font-family="Arial" font-size="14.00" fill="#666666">[tinyint(1)]</text>
<polygon fill="none" stroke="#000000" points="301,-682.5 301,-712.5 470,-712.5 470,-682.5 301,-682.5"/>
<text text-anchor="start" x="308" y="-693.9" font-family="Arial" font-size="14.00" fill="#000000">created_at </text>
<text text-anchor="start" x="378.028" y="-693.9" font-family="Arial" font-size="14.00" fill="#666666">[datetime(6)]</text>
<polygon fill="none" stroke="#000000" points="301,-652.5 301,-682.5 470,-682.5 470,-652.5 301,-652.5"/>
<text text-anchor="start" x="308" y="-663.9" font-family="Arial" font-size="14.00" fill="#000000">updated_at </text>
<text text-anchor="start" x="381.9326" y="-663.9" font-family="Arial" font-size="14.00" fill="#666666">[datetime(6)]</text>
<polygon fill="none" stroke="#000000" points="301,-622.5 301,-652.5 470,-652.5 470,-622.5 301,-622.5"/>
<text text-anchor="start" x="308" y="-633.9" font-family="Arial" font-size="14.00" fill="#000000">deleted_at </text>
<text text-anchor="start" x="377.2566" y="-633.9" font-family="Arial" font-size="14.00" fill="#666666">[datetime(6)]</text>
<polygon fill="none" stroke="#000000" stroke-width="3" points="299,-621.5 299,-899.5 471,-899.5 471,-621.5 299,-621.5"/>
</g>
<!-- users -->
<g id="node3" class="node">
<title>users</title>
<polygon fill="#efefef" stroke="transparent" points="154,-417.5 154,-452.5 337,-452.5 337,-417.5 154,-417.5"/>
<polygon fill="none" stroke="#000000" points="154,-417.5 154,-452.5 337,-452.5 337,-417.5 154,-417.5"/>
<text text-anchor="start" x="174.8708" y="-430.3" font-family="Arial Bold" font-size="18.00" fill="#000000">users</text>
<text text-anchor="start" x="218.8754" y="-430.3" font-family="Arial" font-size="14.00" fill="#000000"> </text>
<text text-anchor="start" x="222.766" y="-430.3" font-family="Arial" font-size="14.00" fill="#666666">[BASE TABLE]</text>
<polygon fill="none" stroke="#000000" points="154,-387.5 154,-417.5 337,-417.5 337,-387.5 154,-387.5"/>
<text text-anchor="start" x="161" y="-398.9" font-family="Arial" font-size="14.00" fill="#000000">id </text>
<text text-anchor="start" x="175.7798" y="-398.9" font-family="Arial" font-size="14.00" fill="#666666">[char(36)]</text>
<polygon fill="none" stroke="#000000" points="154,-357.5 154,-387.5 337,-387.5 337,-357.5 154,-357.5"/>
<text text-anchor="start" x="161" y="-368.9" font-family="Arial" font-size="14.00" fill="#000000">name </text>
<text text-anchor="start" x="199.899" y="-368.9" font-family="Arial" font-size="14.00" fill="#666666">[varchar(32)]</text>
<polygon fill="none" stroke="#000000" points="154,-327.5 154,-357.5 337,-357.5 337,-327.5 154,-327.5"/>
<text text-anchor="start" x="160.7104" y="-338.9" font-family="Arial" font-size="14.00" fill="#000000">display_name </text>
<text text-anchor="start" x="250.953" y="-338.9" font-family="Arial" font-size="14.00" fill="#666666">[varchar(64)]</text>
<polygon fill="none" stroke="#000000" points="154,-297.5 154,-327.5 337,-327.5 337,-297.5 154,-297.5"/>
<text text-anchor="start" x="161" y="-308.9" font-family="Arial" font-size="14.00" fill="#000000">password </text>
<text text-anchor="start" x="224.7882" y="-308.9" font-family="Arial" font-size="14.00" fill="#666666">[char(128)]</text>
<polygon fill="none" stroke="#000000" points="154,-267.5 154,-297.5 337,-297.5 337,-267.5 154,-267.5"/>
<text text-anchor="start" x="161" y="-278.9" font-family="Arial" font-size="14.00" fill="#000000">salt </text>
<text text-anchor="start" x="186.6704" y="-278.9" font-family="Arial" font-size="14.00" fill="#666666">[char(128)]</text>
<polygon fill="none" stroke="#000000" points="154,-237.5 154,-267.5 337,-267.5 337,-237.5 154,-237.5"/>
<text text-anchor="start" x="161" y="-248.9" font-family="Arial" font-size="14.00" fill="#000000">icon </text>
<text text-anchor="start" x="190.5624" y="-248.9" font-family="Arial" font-size="14.00" fill="#666666">[char(36)]</text>
<polygon fill="none" stroke="#000000" points="154,-207.5 154,-237.5 337,-237.5 337,-207.5 154,-207.5"/>
<text text-anchor="start" x="161" y="-218.9" font-family="Arial" font-size="14.00" fill="#000000">status </text>
<text text-anchor="start" x="202.237" y="-218.9" font-family="Arial" font-size="14.00" fill="#666666">[tinyint(4)]</text>
<polygon fill="none" stroke="#000000" points="154,-177.5 154,-207.5 337,-207.5 337,-177.5 154,-177.5"/>
<text text-anchor="start" x="161" y="-188.9" font-family="Arial" font-size="14.00" fill="#000000">bot </text>
<text text-anchor="start" x="184.3464" y="-188.9" font-family="Arial" font-size="14.00" fill="#666666">[tinyint(1)]</text>
<polygon fill="none" stroke="#000000" points="154,-147.5 154,-177.5 337,-177.5 337,-147.5 154,-147.5"/>
<text text-anchor="start" x="161" y="-158.9" font-family="Arial" font-size="14.00" fill="#000000">role </text>
<text text-anchor="start" x="188.223" y="-158.9" font-family="Arial" font-size="14.00" fill="#666666">[varchar(30)]</text>
<polygon fill="none" stroke="#000000" points="154,-117.5 154,-147.5 337,-147.5 337,-117.5 154,-117.5"/>
<text text-anchor="start" x="161" y="-128.9" font-family="Arial" font-size="14.00" fill="#000000">created_at </text>
<text text-anchor="start" x="231.028" y="-128.9" font-family="Arial" font-size="14.00" fill="#666666">[datetime(6)]</text>
<polygon fill="none" stroke="#000000" points="154,-87.5 154,-117.5 337,-117.5 337,-87.5 154,-87.5"/>
<text text-anchor="start" x="161" y="-98.9" font-family="Arial" font-size="14.00" fill="#000000">updated_at </text>
<text text-anchor="start" x="234.9326" y="-98.9" font-family="Arial" font-size="14.00" fill="#666666">[datetime(6)]</text>
</g>
<!-- stamps&#45;&gt;users -->
<g id="edge2" class="edge">
<title>stamps:creator_id&#45;&gt;users:id</title>
<path fill="none" stroke="#000000" stroke-dasharray="5,2" d="M290.7908,-786.9641C213.1527,-778.2464 282.3373,-664.9426 301,-577 309.1782,-538.4628 328.8218,-534.5372 337,-496 345.6266,-455.3497 378.5556,-402.5 337,-402.5"/>
<polygon fill="#000000" stroke="#000000" points="291.0138,-786.9757 300.7641,-791.9938 296.0069,-787.2378 301,-787.5 301,-787.5 301,-787.5 296.0069,-787.2378 301.2359,-783.0062 291.0138,-786.9757 291.0138,-786.9757"/>
<text text-anchor="start" x="211.3245" y="-797.5" font-family="Arial" font-size="10.00" fill="#000000">Additional Relation</text>
</g>
<!-- files -->
<g id="node4" class="node">
<title>files</title>
<polygon fill="#efefef" stroke="transparent" points="441,-462.5 441,-497.5 612,-497.5 612,-462.5 441,-462.5"/>
<polygon fill="none" stroke="#000000" points="441,-462.5 441,-497.5 612,-497.5 612,-462.5 441,-462.5"/>
<text text-anchor="start" x="461.8747" y="-475.3" font-family="Arial Bold" font-size="18.00" fill="#000000">files</text>
<text text-anchor="start" x="493.8715" y="-475.3" font-family="Arial" font-size="14.00" fill="#000000"> </text>
<text text-anchor="start" x="497.7621" y="-475.3" font-family="Arial" font-size="14.00" fill="#666666">[BASE TABLE]</text>
<polygon fill="none" stroke="#000000" points="441,-432.5 441,-462.5 612,-462.5 612,-432.5 441,-432.5"/>
<text text-anchor="start" x="448" y="-443.9" font-family="Arial" font-size="14.00" fill="#000000">id </text>
<text text-anchor="start" x="462.7798" y="-443.9" font-family="Arial" font-size="14.00" fill="#666666">[char(36)]</text>
<polygon fill="none" stroke="#000000" points="441,-402.5 441,-432.5 612,-432.5 612,-402.5 441,-402.5"/>
<text text-anchor="start" x="448" y="-413.9" font-family="Arial" font-size="14.00" fill="#000000">name </text>
<text text-anchor="start" x="486.899" y="-413.9" font-family="Arial" font-size="14.00" fill="#666666">[text]</text>
<polygon fill="none" stroke="#000000" points="441,-372.5 441,-402.5 612,-402.5 612,-372.5 441,-372.5"/>
<text text-anchor="start" x="448" y="-383.9" font-family="Arial" font-size="14.00" fill="#000000">mime </text>
<text text-anchor="start" x="486.101" y="-383.9" font-family="Arial" font-size="14.00" fill="#666666">[text]</text>
<polygon fill="none" stroke="#000000" points="441,-342.5 441,-372.5 612,-372.5 612,-342.5 441,-342.5"/>
<text text-anchor="start" x="448" y="-353.9" font-family="Arial" font-size="14.00" fill="#000000">size </text>
<text text-anchor="start" x="476.7798" y="-353.9" font-family="Arial" font-size="14.00" fill="#666666">[bigint(20)]</text>
<polygon fill="none" stroke="#000000" points="441,-312.5 441,-342.5 612,-342.5 612,-312.5 441,-312.5"/>
<text text-anchor="start" x="448" y="-323.9" font-family="Arial" font-size="14.00" fill="#000000">creator_id </text>
<text text-anchor="start" x="514.122" y="-323.9" font-family="Arial" font-size="14.00" fill="#666666">[char(36)]</text>
<polygon fill="none" stroke="#000000" points="441,-282.5 441,-312.5 612,-312.5 612,-282.5 441,-282.5"/>
<text text-anchor="start" x="448" y="-293.9" font-family="Arial" font-size="14.00" fill="#000000">hash </text>
<text text-anchor="start" x="482.2384" y="-293.9" font-family="Arial" font-size="14.00" fill="#666666">[char(32)]</text>
<polygon fill="none" stroke="#000000" points="441,-252.5 441,-282.5 612,-282.5 612,-252.5 441,-252.5"/>
<text text-anchor="start" x="448" y="-263.9" font-family="Arial" font-size="14.00" fill="#000000">type </text>
<text text-anchor="start" x="478.3464" y="-263.9" font-family="Arial" font-size="14.00" fill="#666666">[varchar(30)]</text>
<polygon fill="none" stroke="#000000" points="441,-222.5 441,-252.5 612,-252.5 612,-222.5 441,-222.5"/>
<text text-anchor="start" x="448" y="-233.9" font-family="Arial" font-size="14.00" fill="#000000">has_thumbnail </text>
<text text-anchor="start" x="542.9158" y="-233.9" font-family="Arial" font-size="14.00" fill="#666666">[tinyint(1)]</text>
<polygon fill="none" stroke="#000000" points="441,-192.5 441,-222.5 612,-222.5 612,-192.5 441,-192.5"/>
<text text-anchor="start" x="448" y="-203.9" font-family="Arial" font-size="14.00" fill="#000000">thumbnail_mime </text>
<text text-anchor="start" x="554.561" y="-203.9" font-family="Arial" font-size="14.00" fill="#666666">[text]</text>
<polygon fill="none" stroke="#000000" points="441,-162.5 441,-192.5 612,-192.5 612,-162.5 441,-162.5"/>
<text text-anchor="start" x="448" y="-173.9" font-family="Arial" font-size="14.00" fill="#000000">thumbnail_width </text>
<text text-anchor="start" x="553.0196" y="-173.9" font-family="Arial" font-size="14.00" fill="#666666">[int(11)]</text>
<polygon fill="none" stroke="#000000" points="441,-132.5 441,-162.5 612,-162.5 612,-132.5 441,-132.5"/>
<text text-anchor="start" x="447.5372" y="-143.9" font-family="Arial" font-size="14.00" fill="#000000">thumbnail_height </text>
<text text-anchor="start" x="558.0154" y="-143.9" font-family="Arial" font-size="14.00" fill="#666666">[int(11)]</text>
<polygon fill="none" stroke="#000000" points="441,-102.5 441,-132.5 612,-132.5 612,-102.5 441,-102.5"/>
<text text-anchor="start" x="448" y="-113.9" font-family="Arial" font-size="14.00" fill="#000000">channel_id </text>
<text text-anchor="start" x="519.582" y="-113.9" font-family="Arial" font-size="14.00" fill="#666666">[char(36)]</text>
<polygon fill="none" stroke="#000000" points="441,-72.5 441,-102.5 612,-102.5 612,-72.5 441,-72.5"/>
<text text-anchor="start" x="448" y="-83.9" font-family="Arial" font-size="14.00" fill="#000000">created_at </text>
<text text-anchor="start" x="518.028" y="-83.9" font-family="Arial" font-size="14.00" fill="#666666">[datetime(6)]</text>
<polygon fill="none" stroke="#000000" points="441,-42.5 441,-72.5 612,-72.5 612,-42.5 441,-42.5"/>
<text text-anchor="start" x="448" y="-53.9" font-family="Arial" font-size="14.00" fill="#000000">deleted_at </text>
<text text-anchor="start" x="517.2566" y="-53.9" font-family="Arial" font-size="14.00" fill="#666666">[datetime(6)]</text>
</g>
<!-- stamps&#45;&gt;files -->
<g id="edge3" class="edge">
<title>stamps:file_id&#45;&gt;files:id</title>
<path fill="none" stroke="#000000" d="M480.016,-756.8774C545.4662,-748.1392 495.4833,-649.2564 470,-577 463.1665,-557.6241 447.8335,-560.3759 441,-541 427.1786,-501.8103 399.4444,-447.5 441,-447.5"/>
<polygon fill="#000000" stroke="#000000" points="479.9807,-756.8795 469.7208,-753.0087 474.9904,-757.1898 470,-757.5 470,-757.5 470,-757.5 474.9904,-757.1898 470.2792,-761.9913 479.9807,-756.8795 479.9807,-756.8795"/>
<text text-anchor="start" x="476.616" y="-767.5" font-family="Arial" font-size="10.00" fill="#000000">FOREIGN KEY (file_id) REFERENCES files (id)</text>
</g>
<!-- messages_stamps -->
<g id="node2" class="node">
<title>messages_stamps</title>
<polygon fill="#efefef" stroke="transparent" points="255,-1202.5 255,-1237.5 516,-1237.5 516,-1202.5 255,-1202.5"/>
<polygon fill="none" stroke="#000000" points="255,-1202.5 255,-1237.5 516,-1237.5 516,-1202.5 255,-1202.5"/>
<text text-anchor="start" x="261.8581" y="-1215.3" font-family="Arial Bold" font-size="18.00" fill="#000000">messages_stamps</text>
<text text-anchor="start" x="411.8881" y="-1215.3" font-family="Arial" font-size="14.00" fill="#000000"> </text>
<text text-anchor="start" x="415.7787" y="-1215.3" font-family="Arial" font-size="14.00" fill="#666666">[BASE TABLE]</text>
<polygon fill="none" stroke="#000000" points="255,-1172.5 255,-1202.5 516,-1202.5 516,-1172.5 255,-1172.5"/>
<text text-anchor="start" x="262" y="-1183.9" font-family="Arial" font-size="14.00" fill="#000000">message_id </text>
<text text-anchor="start" x="341.3534" y="-1183.9" font-family="Arial" font-size="14.00" fill="#666666">[char(36)]</text>
<polygon fill="none" stroke="#000000" points="255,-1142.5 255,-1172.5 516,-1172.5 516,-1142.5 255,-1142.5"/>
<text text-anchor="start" x="262" y="-1153.9" font-family="Arial" font-size="14.00" fill="#000000">stamp_id </text>
<text text-anchor="start" x="322.6788" y="-1153.9" font-family="Arial" font-size="14.00" fill="#666666">[char(36)]</text>
<polygon fill="none" stroke="#000000" points="255,-1112.5 255,-1142.5 516,-1142.5 516,-1112.5 255,-1112.5"/>
<text text-anchor="start" x="262" y="-1123.9" font-family="Arial" font-size="14.00" fill="#000000">user_id </text>
<text text-anchor="start" x="311.7882" y="-1123.9" font-family="Arial" font-size="14.00" fill="#666666">[char(36)]</text>
<polygon fill="none" stroke="#000000" points="255,-1082.5 255,-1112.5 516,-1112.5 516,-1082.5 255,-1082.5"/>
<text text-anchor="start" x="262" y="-1093.9" font-family="Arial" font-size="14.00" fill="#000000">count </text>
<text text-anchor="start" x="300.129" y="-1093.9" font-family="Arial" font-size="14.00" fill="#666666">[int(11)]</text>
<polygon fill="none" stroke="#000000" points="255,-1052.5 255,-1082.5 516,-1082.5 516,-1052.5 255,-1052.5"/>
<text text-anchor="start" x="262" y="-1063.9" font-family="Arial" font-size="14.00" fill="#000000">created_at </text>
<text text-anchor="start" x="332.028" y="-1063.9" font-family="Arial" font-size="14.00" fill="#666666">[datetime(6)]</text>
<polygon fill="none" stroke="#000000" points="255,-1022.5 255,-1052.5 516,-1052.5 516,-1022.5 255,-1022.5"/>
<text text-anchor="start" x="262" y="-1033.9" font-family="Arial" font-size="14.00" fill="#000000">updated_at </text>
<text text-anchor="start" x="335.9326" y="-1033.9" font-family="Arial" font-size="14.00" fill="#666666">[datetime(6)]</text>
</g>
<!-- messages_stamps&#45;&gt;stamps -->
<g id="edge1" class="edge">
<title>messages_stamps:stamp_id&#45;&gt;stamps:id</title>
<path fill="none" stroke="#000000" d="M244.7471,-1156.9106C118.1097,-1141.9577 165.2502,-847.5 301,-847.5"/>
<polygon fill="#000000" stroke="#000000" points="245.0165,-1156.926 254.7417,-1161.9926 250.0082,-1157.213 255,-1157.5 255,-1157.5 255,-1157.5 250.0082,-1157.213 255.2583,-1153.0074 245.0165,-1156.926 245.0165,-1156.926"/>
<text text-anchor="start" x="7.166" y="-1167.5" font-family="Arial" font-size="10.00" fill="#000000">FOREIGN KEY (stamp_id) REFERENCES stamps (id)</text>
</g>
</g>
</svg>
