<?xml version="1.0" encoding="UTF-8" standalone="no"?>
<!DOCTYPE svg PUBLIC "-//W3C//DTD SVG 1.1//EN"
 "http://www.w3.org/Graphics/SVG/1.1/DTD/svg11.dtd">
<!-- Generated by graphviz version 2.40.1 (20161225.0304)
 -->
<!-- Title: stamps Pages: 1 -->
<svg width="712pt" height="1256pt"
     viewBox="0.00 0.00 712.00 1256.00" xmlns="http://www.w3.org/2000/svg">
<g id="graph0" class="graph" transform="scale(1 1) rotate(0) translate(4 1252)">
<title>stamps</title>
<polygon fill="#ffffff" stroke="transparent" points="-4,4 -4,-1252 708,-1252 708,4 -4,4"/>
<!-- stamps -->
<g id="node1" class="node">
<title>stamps</title>
<polygon fill="#efefef" stroke="transparent" points="301,-832 301,-866 478,-866 478,-832 301,-832"/>
<polygon fill="none" stroke="#000000" points="301,-832 301,-866 478,-866 478,-832 301,-832"/>
<text text-anchor="start" x="310.002" y="-845.6" font-family="Arial Bold" font-size="18.00" fill="#000000">stamps</text>
<text text-anchor="start" x="373.0283" y="-845.6" font-family="Arial" font-size="14.00" fill="#000000"> </text>
<text text-anchor="start" x="376.918" y="-845.6" font-family="Arial" font-size="14.00" fill="#666666">[BASE TABLE]</text>
<polygon fill="none" stroke="#000000" points="301,-802 301,-832 478,-832 478,-802 301,-802"/>
<text text-anchor="start" x="308" y="-814.8" font-family="Arial" font-size="14.00" fill="#000000">id </text>
<text text-anchor="start" x="322.7861" y="-814.8" font-family="Arial" font-size="14.00" fill="#666666">[char(36)]</text>
<polygon fill="none" stroke="#000000" points="301,-772 301,-802 478,-802 478,-772 301,-772"/>
<text text-anchor="start" x="308" y="-784.8" font-family="Arial" font-size="14.00" fill="#000000">name </text>
<text text-anchor="start" x="346.9102" y="-784.8" font-family="Arial" font-size="14.00" fill="#666666">[varchar(32)]</text>
<polygon fill="none" stroke="#000000" points="301,-742 301,-772 478,-772 478,-742 301,-742"/>
<text text-anchor="start" x="308" y="-754.8" font-family="Arial" font-size="14.00" fill="#000000">creator_id </text>
<text text-anchor="start" x="374.1445" y="-754.8" font-family="Arial" font-size="14.00" fill="#666666">[char(36)]</text>
<polygon fill="none" stroke="#000000" points="301,-712 301,-742 478,-742 478,-712 301,-712"/>
<text text-anchor="start" x="308" y="-724.8" font-family="Arial" font-size="14.00" fill="#000000">file_id </text>
<text text-anchor="start" x="348.4688" y="-724.8" font-family="Arial" font-size="14.00" fill="#666666">[char(36)]</text>
<polygon fill="none" stroke="#000000" points="301,-682 301,-712 478,-712 478,-682 301,-682"/>
<text text-anchor="start" x="308" y="-694.8" font-family="Arial" font-size="14.00" fill="#000000">created_at </text>
<text text-anchor="start" x="378.0479" y="-694.8" font-family="Arial" font-size="14.00" fill="#666666">[timestamp(6)]</text>
<polygon fill="none" stroke="#000000" points="301,-652 301,-682 478,-682 478,-652 301,-652"/>
<text text-anchor="start" x="307.79" y="-664.8" font-family="Arial" font-size="14.00" fill="#000000">updated_at </text>
<text text-anchor="start" x="381.748" y="-664.8" font-family="Arial" font-size="14.00" fill="#666666">[timestamp(6)]</text>
<polygon fill="none" stroke="#000000" points="301,-622 301,-652 478,-652 478,-622 301,-622"/>
<text text-anchor="start" x="308" y="-634.8" font-family="Arial" font-size="14.00" fill="#000000">deleted_at </text>
<text text-anchor="start" x="377.2822" y="-634.8" font-family="Arial" font-size="14.00" fill="#666666">[timestamp(6)]</text>
<polygon fill="none" stroke="#000000" points="301,-592 301,-622 478,-622 478,-592 301,-592"/>
<text text-anchor="start" x="308" y="-604.8" font-family="Arial" font-size="14.00" fill="#000000">is_unicode </text>
<text text-anchor="start" x="378.8271" y="-604.8" font-family="Arial" font-size="14.00" fill="#666666">[tinyint(1)]</text>
<polygon fill="none" stroke="#000000" stroke-width="3" points="299,-590.5 299,-867.5 479,-867.5 479,-590.5 299,-590.5"/>
</g>
<!-- users -->
<g id="node3" class="node">
<title>users</title>
<polygon fill="#efefef" stroke="transparent" points="157,-433 157,-467 340,-467 340,-433 157,-433"/>
<polygon fill="none" stroke="#000000" points="157,-433 157,-467 340,-467 340,-433 157,-433"/>
<text text-anchor="start" x="176.499" y="-446.6" font-family="Arial Bold" font-size="18.00" fill="#000000">users</text>
<text text-anchor="start" x="224.5313" y="-446.6" font-family="Arial" font-size="14.00" fill="#000000"> </text>
<text text-anchor="start" x="228.4209" y="-446.6" font-family="Arial" font-size="14.00" fill="#666666">[BASE TABLE]</text>
<polygon fill="none" stroke="#000000" points="157,-403 157,-433 340,-433 340,-403 157,-403"/>
<text text-anchor="start" x="164" y="-415.8" font-family="Arial" font-size="14.00" fill="#000000">id </text>
<text text-anchor="start" x="178.7861" y="-415.8" font-family="Arial" font-size="14.00" fill="#666666">[char(36)]</text>
<polygon fill="none" stroke="#000000" points="157,-373 157,-403 340,-403 340,-373 157,-373"/>
<text text-anchor="start" x="164" y="-385.8" font-family="Arial" font-size="14.00" fill="#000000">name </text>
<text text-anchor="start" x="202.9102" y="-385.8" font-family="Arial" font-size="14.00" fill="#666666">[varchar(32)]</text>
<polygon fill="none" stroke="#000000" points="157,-343 157,-373 340,-373 340,-343 157,-343"/>
<text text-anchor="start" x="163.6831" y="-355.8" font-family="Arial" font-size="14.00" fill="#000000">display_name </text>
<text text-anchor="start" x="253.9585" y="-355.8" font-family="Arial" font-size="14.00" fill="#666666">[varchar(64)]</text>
<polygon fill="none" stroke="#000000" points="157,-313 157,-343 340,-343 340,-313 157,-313"/>
<text text-anchor="start" x="164" y="-325.8" font-family="Arial" font-size="14.00" fill="#000000">password </text>
<text text-anchor="start" x="227.8066" y="-325.8" font-family="Arial" font-size="14.00" fill="#666666">[char(128)]</text>
<polygon fill="none" stroke="#000000" points="157,-283 157,-313 340,-313 340,-283 157,-283"/>
<text text-anchor="start" x="164" y="-295.8" font-family="Arial" font-size="14.00" fill="#000000">salt </text>
<text text-anchor="start" x="189.6758" y="-295.8" font-family="Arial" font-size="14.00" fill="#666666">[char(128)]</text>
<polygon fill="none" stroke="#000000" points="157,-253 157,-283 340,-283 340,-253 157,-253"/>
<text text-anchor="start" x="164" y="-265.8" font-family="Arial" font-size="14.00" fill="#000000">icon </text>
<text text-anchor="start" x="193.5723" y="-265.8" font-family="Arial" font-size="14.00" fill="#666666">[char(36)]</text>
<polygon fill="none" stroke="#000000" points="157,-223 157,-253 340,-253 340,-223 157,-223"/>
<text text-anchor="start" x="164" y="-235.8" font-family="Arial" font-size="14.00" fill="#000000">status </text>
<text text-anchor="start" x="205.2412" y="-235.8" font-family="Arial" font-size="14.00" fill="#666666">[tinyint(4)]</text>
<polygon fill="none" stroke="#000000" points="157,-193 157,-223 340,-223 340,-193 157,-193"/>
<text text-anchor="start" x="164" y="-205.8" font-family="Arial" font-size="14.00" fill="#000000">bot </text>
<text text-anchor="start" x="187.3516" y="-205.8" font-family="Arial" font-size="14.00" fill="#666666">[tinyint(1)]</text>
<polygon fill="none" stroke="#000000" points="157,-163 157,-193 340,-193 340,-163 157,-163"/>
<text text-anchor="start" x="164" y="-175.8" font-family="Arial" font-size="14.00" fill="#000000">role </text>
<text text-anchor="start" x="191.2344" y="-175.8" font-family="Arial" font-size="14.00" fill="#666666">[varchar(30)]</text>
<polygon fill="none" stroke="#000000" points="157,-133 157,-163 340,-163 340,-133 157,-133"/>
<text text-anchor="start" x="164" y="-145.8" font-family="Arial" font-size="14.00" fill="#000000">twitter_id </text>
<text text-anchor="start" x="223.9102" y="-145.8" font-family="Arial" font-size="14.00" fill="#666666">[varchar(15)]</text>
<polygon fill="none" stroke="#000000" points="157,-103 157,-133 340,-133 340,-103 157,-103"/>
<text text-anchor="start" x="164" y="-115.8" font-family="Arial" font-size="14.00" fill="#000000">last_online </text>
<text text-anchor="start" x="234.8271" y="-115.8" font-family="Arial" font-size="14.00" fill="#666666">[timestamp(6)]</text>
<polygon fill="none" stroke="#000000" points="157,-73 157,-103 340,-103 340,-73 157,-73"/>
<text text-anchor="start" x="164" y="-85.8" font-family="Arial" font-size="14.00" fill="#000000">created_at </text>
<text text-anchor="start" x="234.0479" y="-85.8" font-family="Arial" font-size="14.00" fill="#666666">[timestamp(6)]</text>
<polygon fill="none" stroke="#000000" points="157,-43 157,-73 340,-73 340,-43 157,-43"/>
<text text-anchor="start" x="164" y="-55.8" font-family="Arial" font-size="14.00" fill="#000000">updated_at </text>
<text text-anchor="start" x="237.958" y="-55.8" font-family="Arial" font-size="14.00" fill="#666666">[timestamp(6)]</text>
</g>
<!-- stamps&#45;&gt;users -->
<g id="edge2" class="edge">
<title>stamps:creator_id&#45;&gt;users:id</title>
<path fill="none" stroke="#000000" stroke-dasharray="5,2" d="M290.6868,-756.4372C211.5819,-747.2867 264.8574,-628.5491 301,-546 310.461,-524.3913 330.539,-531.6087 340,-510 356.3994,-472.5439 380.8889,-418 340,-418"/>
<polygon fill="#000000" stroke="#000000" points="291.0149,-756.455 300.7547,-761.4933 296.0074,-756.7275 301,-757 301,-757 301,-757 296.0074,-756.7275 301.2453,-752.5067 291.0149,-756.455 291.0149,-756.455"/>
<text text-anchor="start" x="211.3057" y="-766.5" font-family="Arial" font-size="10.00" fill="#000000">Additional Relation</text>
</g>
<!-- files -->
<g id="node4" class="node">
<title>files</title>
<polygon fill="#efefef" stroke="transparent" points="444,-418 444,-452 617,-452 617,-418 444,-418"/>
<polygon fill="none" stroke="#000000" points="444,-418 444,-452 617,-452 617,-418 444,-418"/>
<text text-anchor="start" x="464.5063" y="-431.6" font-family="Arial Bold" font-size="18.00" fill="#000000">files</text>
<text text-anchor="start" x="500.5239" y="-431.6" font-family="Arial" font-size="14.00" fill="#000000"> </text>
<text text-anchor="start" x="504.4136" y="-431.6" font-family="Arial" font-size="14.00" fill="#666666">[BASE TABLE]</text>
<polygon fill="none" stroke="#000000" points="444,-388 444,-418 617,-418 617,-388 444,-388"/>
<text text-anchor="start" x="451" y="-400.8" font-family="Arial" font-size="14.00" fill="#000000">id </text>
<text text-anchor="start" x="465.7861" y="-400.8" font-family="Arial" font-size="14.00" fill="#666666">[char(36)]</text>
<polygon fill="none" stroke="#000000" points="444,-358 444,-388 617,-388 617,-358 444,-358"/>
<text text-anchor="start" x="451" y="-370.8" font-family="Arial" font-size="14.00" fill="#000000">name </text>
<text text-anchor="start" x="489.9102" y="-370.8" font-family="Arial" font-size="14.00" fill="#666666">[text]</text>
<polygon fill="none" stroke="#000000" points="444,-328 444,-358 617,-358 617,-328 444,-328"/>
<text text-anchor="start" x="451" y="-340.8" font-family="Arial" font-size="14.00" fill="#000000">mime </text>
<text text-anchor="start" x="489.1104" y="-340.8" font-family="Arial" font-size="14.00" fill="#666666">[text]</text>
<polygon fill="none" stroke="#000000" points="444,-298 444,-328 617,-328 617,-298 444,-298"/>
<text text-anchor="start" x="451" y="-310.8" font-family="Arial" font-size="14.00" fill="#000000">size </text>
<text text-anchor="start" x="479.7861" y="-310.8" font-family="Arial" font-size="14.00" fill="#666666">[bigint(20)]</text>
<polygon fill="none" stroke="#000000" points="444,-268 444,-298 617,-298 617,-268 444,-268"/>
<text text-anchor="start" x="451" y="-280.8" font-family="Arial" font-size="14.00" fill="#000000">creator_id </text>
<text text-anchor="start" x="517.1445" y="-280.8" font-family="Arial" font-size="14.00" fill="#666666">[char(36)]</text>
<polygon fill="none" stroke="#000000" points="444,-238 444,-268 617,-268 617,-238 444,-238"/>
<text text-anchor="start" x="451" y="-250.8" font-family="Arial" font-size="14.00" fill="#000000">hash </text>
<text text-anchor="start" x="485.248" y="-250.8" font-family="Arial" font-size="14.00" fill="#666666">[char(32)]</text>
<polygon fill="none" stroke="#000000" points="444,-208 444,-238 617,-238 617,-208 444,-208"/>
<text text-anchor="start" x="451" y="-220.8" font-family="Arial" font-size="14.00" fill="#000000">type </text>
<text text-anchor="start" x="481.3516" y="-220.8" font-family="Arial" font-size="14.00" fill="#666666">[varchar(30)]</text>
<polygon fill="none" stroke="#000000" points="444,-178 444,-208 617,-208 617,-178 444,-178"/>
<text text-anchor="start" x="451" y="-190.8" font-family="Arial" font-size="14.00" fill="#000000">has_thumbnail </text>
<text text-anchor="start" x="545.9512" y="-190.8" font-family="Arial" font-size="14.00" fill="#666666">[tinyint(1)]</text>
<polygon fill="none" stroke="#000000" points="444,-148 444,-178 617,-178 617,-148 444,-148"/>
<text text-anchor="start" x="451" y="-160.8" font-family="Arial" font-size="14.00" fill="#000000">thumbnail_width </text>
<text text-anchor="start" x="556.0615" y="-160.8" font-family="Arial" font-size="14.00" fill="#666666">[int(11)]</text>
<polygon fill="none" stroke="#000000" points="444,-118 444,-148 617,-148 617,-118 444,-118"/>
<text text-anchor="start" x="451" y="-130.8" font-family="Arial" font-size="14.00" fill="#000000">thumbnail_height </text>
<text text-anchor="start" x="561.5234" y="-130.8" font-family="Arial" font-size="14.00" fill="#666666">[int(11)]</text>
<polygon fill="none" stroke="#000000" points="444,-88 444,-118 617,-118 617,-88 444,-88"/>
<text text-anchor="start" x="450.7451" y="-100.8" font-family="Arial" font-size="14.00" fill="#000000">created_at </text>
<text text-anchor="start" x="520.793" y="-100.8" font-family="Arial" font-size="14.00" fill="#666666">[timestamp(6)]</text>
<polygon fill="none" stroke="#000000" points="444,-58 444,-88 617,-88 617,-58 444,-58"/>
<text text-anchor="start" x="451" y="-70.8" font-family="Arial" font-size="14.00" fill="#000000">deleted_at </text>
<text text-anchor="start" x="520.2822" y="-70.8" font-family="Arial" font-size="14.00" fill="#666666">[timestamp(6)]</text>
</g>
<!-- stamps&#45;&gt;files -->
<g id="edge3" class="edge">
<title>stamps:file_id&#45;&gt;files:id</title>
<path fill="none" stroke="#000000" d="M488.0238,-726.3822C553.3797,-717.7101 500.2643,-619.5341 478,-546 470.1057,-519.927 451.8943,-521.073 444,-495 432.151,-455.8656 403.1111,-403 444,-403"/>
<polygon fill="#000000" stroke="#000000" points="487.9811,-726.3848 477.7231,-722.5085 482.9905,-726.6924 478,-727 478,-727 478,-727 482.9905,-726.6924 478.2769,-731.4915 487.9811,-726.3848 487.9811,-726.3848"/>
<text text-anchor="start" x="484.6816" y="-736.5" font-family="Arial" font-size="10.00" fill="#000000">FOREIGN KEY (file_id) REFERENCES files (id)</text>
</g>
<!-- messages_stamps -->
<g id="node2" class="node">
<title>messages_stamps</title>
<polygon fill="#efefef" stroke="transparent" points="255,-1171 255,-1205 525,-1205 525,-1171 255,-1171"/>
<polygon fill="none" stroke="#000000" points="255,-1171 255,-1205 525,-1205 525,-1171 255,-1171"/>
<text text-anchor="start" x="261.9644" y="-1184.6" font-family="Arial Bold" font-size="18.00" fill="#000000">messages_stamps</text>
<text text-anchor="start" x="422.0659" y="-1184.6" font-family="Arial" font-size="14.00" fill="#000000"> </text>
<text text-anchor="start" x="425.9556" y="-1184.6" font-family="Arial" font-size="14.00" fill="#666666">[BASE TABLE]</text>
<polygon fill="none" stroke="#000000" points="255,-1141 255,-1171 525,-1171 525,-1141 255,-1141"/>
<text text-anchor="start" x="262" y="-1153.8" font-family="Arial" font-size="14.00" fill="#000000">message_id </text>
<text text-anchor="start" x="341.3789" y="-1153.8" font-family="Arial" font-size="14.00" fill="#666666">[char(36)]</text>
<polygon fill="none" stroke="#000000" points="255,-1111 255,-1141 525,-1141 525,-1111 255,-1111"/>
<text text-anchor="start" x="262" y="-1123.8" font-family="Arial" font-size="14.00" fill="#000000">stamp_id </text>
<text text-anchor="start" x="322.6963" y="-1123.8" font-family="Arial" font-size="14.00" fill="#666666">[char(36)]</text>
<polygon fill="none" stroke="#000000" points="255,-1081 255,-1111 525,-1111 525,-1081 255,-1081"/>
<text text-anchor="start" x="262" y="-1093.8" font-family="Arial" font-size="14.00" fill="#000000">user_id </text>
<text text-anchor="start" x="311.8066" y="-1093.8" font-family="Arial" font-size="14.00" fill="#666666">[char(36)]</text>
<polygon fill="none" stroke="#000000" points="255,-1051 255,-1081 525,-1081 525,-1051 255,-1051"/>
<text text-anchor="start" x="262" y="-1063.8" font-family="Arial" font-size="14.00" fill="#000000">count </text>
<text text-anchor="start" x="300.1377" y="-1063.8" font-family="Arial" font-size="14.00" fill="#666666">[int(11)]</text>
<polygon fill="none" stroke="#000000" points="255,-1021 255,-1051 525,-1051 525,-1021 255,-1021"/>
<text text-anchor="start" x="262" y="-1033.8" font-family="Arial" font-size="14.00" fill="#000000">created_at </text>
<text text-anchor="start" x="332.0479" y="-1033.8" font-family="Arial" font-size="14.00" fill="#666666">[timestamp(6)]</text>
<polygon fill="none" stroke="#000000" points="255,-991 255,-1021 525,-1021 525,-991 255,-991"/>
<text text-anchor="start" x="262" y="-1003.8" font-family="Arial" font-size="14.00" fill="#000000">updated_at </text>
<text text-anchor="start" x="335.958" y="-1003.8" font-family="Arial" font-size="14.00" fill="#666666">[timestamp(6)]</text>
</g>
<!-- messages_stamps&#45;&gt;stamps -->
<g id="edge1" class="edge">
<title>messages_stamps:stamp_id&#45;&gt;stamps:id</title>
<path fill="none" stroke="#000000" d="M244.9783,-1125.3029C178.4359,-1115.5355 206.015,-1005.5271 255,-948 320.0873,-871.5627 412.9127,-988.4373 478,-912 505.3734,-879.8532 520.2222,-817 478,-817"/>
<polygon fill="#000000" stroke="#000000" points="245.0241,-1125.306 254.6877,-1130.4892 250.0121,-1125.653 255,-1126 255,-1126 255,-1126 250.0121,-1125.653 255.3123,-1121.5108 245.0241,-1125.306 245.0241,-1125.306"/>
<text text-anchor="start" x="7.2334" y="-1135.5" font-family="Arial" font-size="10.00" fill="#000000">FOREIGN KEY (stamp_id) REFERENCES stamps (id)</text>
</g>
</g>
</svg>
