<?xml version="1.0" encoding="UTF-8" standalone="no"?>
<!DOCTYPE svg PUBLIC "-//W3C//DTD SVG 1.1//EN"
 "http://www.w3.org/Graphics/SVG/1.1/DTD/svg11.dtd">
<!-- Generated by graphviz version 2.40.1 (20161225.0304)
 -->
<!-- Title: stamps Pages: 1 -->
<svg width="704pt" height="1259pt"
     viewBox="0.00 0.00 704.00 1259.00" xmlns="http://www.w3.org/2000/svg">
<g id="graph0" class="graph" transform="scale(1 1) rotate(0) translate(4 1255)">
<title>stamps</title>
<polygon fill="#ffffff" stroke="transparent" points="-4,4 -4,-1255 700,-1255 700,4 -4,4"/>
<!-- stamps -->
<g id="node1" class="node">
<title>stamps</title>
<polygon fill="#efefef" stroke="transparent" points="301,-832.5 301,-867.5 470,-867.5 470,-832.5 301,-832.5"/>
<polygon fill="none" stroke="#000000" points="301,-832.5 301,-867.5 470,-867.5 470,-832.5 301,-832.5"/>
<text text-anchor="start" x="307.8697" y="-845.3" font-family="Arial Bold" font-size="18.00" fill="#000000">stamps</text>
<text text-anchor="start" x="365.8765" y="-845.3" font-family="Arial" font-size="14.00" fill="#000000"> </text>
<text text-anchor="start" x="369.7671" y="-845.3" font-family="Arial" font-size="14.00" fill="#666666">[BASE TABLE]</text>
<polygon fill="none" stroke="#000000" points="301,-802.5 301,-832.5 470,-832.5 470,-802.5 301,-802.5"/>
<text text-anchor="start" x="308" y="-813.9" font-family="Arial" font-size="14.00" fill="#000000">id </text>
<text text-anchor="start" x="322.7798" y="-813.9" font-family="Arial" font-size="14.00" fill="#666666">[char(36)]</text>
<polygon fill="none" stroke="#000000" points="301,-772.5 301,-802.5 470,-802.5 470,-772.5 301,-772.5"/>
<text text-anchor="start" x="308" y="-783.9" font-family="Arial" font-size="14.00" fill="#000000">name </text>
<text text-anchor="start" x="346.899" y="-783.9" font-family="Arial" font-size="14.00" fill="#666666">[varchar(32)]</text>
<polygon fill="none" stroke="#000000" points="301,-742.5 301,-772.5 470,-772.5 470,-742.5 301,-742.5"/>
<text text-anchor="start" x="308" y="-753.9" font-family="Arial" font-size="14.00" fill="#000000">creator_id </text>
<text text-anchor="start" x="374.122" y="-753.9" font-family="Arial" font-size="14.00" fill="#666666">[char(36)]</text>
<polygon fill="none" stroke="#000000" points="301,-712.5 301,-742.5 470,-742.5 470,-712.5 301,-712.5"/>
<text text-anchor="start" x="308" y="-723.9" font-family="Arial" font-size="14.00" fill="#000000">file_id </text>
<text text-anchor="start" x="348.4488" y="-723.9" font-family="Arial" font-size="14.00" fill="#666666">[char(36)]</text>
<polygon fill="none" stroke="#000000" points="301,-682.5 301,-712.5 470,-712.5 470,-682.5 301,-682.5"/>
<text text-anchor="start" x="308" y="-693.9" font-family="Arial" font-size="14.00" fill="#000000">is_unicode </text>
<text text-anchor="start" x="378.7994" y="-693.9" font-family="Arial" font-size="14.00" fill="#666666">[tinyint(1)]</text>
<polygon fill="none" stroke="#000000" points="301,-652.5 301,-682.5 470,-682.5 470,-652.5 301,-652.5"/>
<text text-anchor="start" x="308" y="-663.9" font-family="Arial" font-size="14.00" fill="#000000">created_at </text>
<text text-anchor="start" x="378.028" y="-663.9" font-family="Arial" font-size="14.00" fill="#666666">[datetime(6)]</text>
<polygon fill="none" stroke="#000000" points="301,-622.5 301,-652.5 470,-652.5 470,-622.5 301,-622.5"/>
<text text-anchor="start" x="308" y="-633.9" font-family="Arial" font-size="14.00" fill="#000000">updated_at </text>
<text text-anchor="start" x="381.9326" y="-633.9" font-family="Arial" font-size="14.00" fill="#666666">[datetime(6)]</text>
<polygon fill="none" stroke="#000000" points="301,-592.5 301,-622.5 470,-622.5 470,-592.5 301,-592.5"/>
<text text-anchor="start" x="308" y="-603.9" font-family="Arial" font-size="14.00" fill="#000000">deleted_at </text>
<text text-anchor="start" x="377.2566" y="-603.9" font-family="Arial" font-size="14.00" fill="#666666">[datetime(6)]</text>
<polygon fill="none" stroke="#000000" stroke-width="3" points="299,-591.5 299,-869.5 471,-869.5 471,-591.5 299,-591.5"/>
</g>
<!-- users -->
<g id="node3" class="node">
<title>users</title>
<polygon fill="#efefef" stroke="transparent" points="154,-432.5 154,-467.5 337,-467.5 337,-432.5 154,-432.5"/>
<polygon fill="none" stroke="#000000" points="154,-432.5 154,-467.5 337,-467.5 337,-432.5 154,-432.5"/>
<text text-anchor="start" x="174.8708" y="-445.3" font-family="Arial Bold" font-size="18.00" fill="#000000">users</text>
<text text-anchor="start" x="218.8754" y="-445.3" font-family="Arial" font-size="14.00" fill="#000000"> </text>
<text text-anchor="start" x="222.766" y="-445.3" font-family="Arial" font-size="14.00" fill="#666666">[BASE TABLE]</text>
<polygon fill="none" stroke="#000000" points="154,-402.5 154,-432.5 337,-432.5 337,-402.5 154,-402.5"/>
<text text-anchor="start" x="161" y="-413.9" font-family="Arial" font-size="14.00" fill="#000000">id </text>
<text text-anchor="start" x="175.7798" y="-413.9" font-family="Arial" font-size="14.00" fill="#666666">[char(36)]</text>
<polygon fill="none" stroke="#000000" points="154,-372.5 154,-402.5 337,-402.5 337,-372.5 154,-372.5"/>
<text text-anchor="start" x="161" y="-383.9" font-family="Arial" font-size="14.00" fill="#000000">name </text>
<text text-anchor="start" x="199.899" y="-383.9" font-family="Arial" font-size="14.00" fill="#666666">[varchar(32)]</text>
<polygon fill="none" stroke="#000000" points="154,-342.5 154,-372.5 337,-372.5 337,-342.5 154,-342.5"/>
<text text-anchor="start" x="160.7104" y="-353.9" font-family="Arial" font-size="14.00" fill="#000000">display_name </text>
<text text-anchor="start" x="250.953" y="-353.9" font-family="Arial" font-size="14.00" fill="#666666">[varchar(64)]</text>
<polygon fill="none" stroke="#000000" points="154,-312.5 154,-342.5 337,-342.5 337,-312.5 154,-312.5"/>
<text text-anchor="start" x="161" y="-323.9" font-family="Arial" font-size="14.00" fill="#000000">password </text>
<text text-anchor="start" x="224.7882" y="-323.9" font-family="Arial" font-size="14.00" fill="#666666">[char(128)]</text>
<polygon fill="none" stroke="#000000" points="154,-282.5 154,-312.5 337,-312.5 337,-282.5 154,-282.5"/>
<text text-anchor="start" x="161" y="-293.9" font-family="Arial" font-size="14.00" fill="#000000">salt </text>
<text text-anchor="start" x="186.6704" y="-293.9" font-family="Arial" font-size="14.00" fill="#666666">[char(128)]</text>
<polygon fill="none" stroke="#000000" points="154,-252.5 154,-282.5 337,-282.5 337,-252.5 154,-252.5"/>
<text text-anchor="start" x="161" y="-263.9" font-family="Arial" font-size="14.00" fill="#000000">icon </text>
<text text-anchor="start" x="190.5624" y="-263.9" font-family="Arial" font-size="14.00" fill="#666666">[char(36)]</text>
<polygon fill="none" stroke="#000000" points="154,-222.5 154,-252.5 337,-252.5 337,-222.5 154,-222.5"/>
<text text-anchor="start" x="161" y="-233.9" font-family="Arial" font-size="14.00" fill="#000000">status </text>
<text text-anchor="start" x="202.237" y="-233.9" font-family="Arial" font-size="14.00" fill="#666666">[tinyint(4)]</text>
<polygon fill="none" stroke="#000000" points="154,-192.5 154,-222.5 337,-222.5 337,-192.5 154,-192.5"/>
<text text-anchor="start" x="161" y="-203.9" font-family="Arial" font-size="14.00" fill="#000000">bot </text>
<text text-anchor="start" x="184.3464" y="-203.9" font-family="Arial" font-size="14.00" fill="#666666">[tinyint(1)]</text>
<polygon fill="none" stroke="#000000" points="154,-162.5 154,-192.5 337,-192.5 337,-162.5 154,-162.5"/>
<text text-anchor="start" x="161" y="-173.9" font-family="Arial" font-size="14.00" fill="#000000">role </text>
<text text-anchor="start" x="188.223" y="-173.9" font-family="Arial" font-size="14.00" fill="#666666">[varchar(30)]</text>
<polygon fill="none" stroke="#000000" points="154,-132.5 154,-162.5 337,-162.5 337,-132.5 154,-132.5"/>
<text text-anchor="start" x="161" y="-143.9" font-family="Arial" font-size="14.00" fill="#000000">twitter_id </text>
<text text-anchor="start" x="220.8906" y="-143.9" font-family="Arial" font-size="14.00" fill="#666666">[varchar(15)]</text>
<polygon fill="none" stroke="#000000" points="154,-102.5 154,-132.5 337,-132.5 337,-102.5 154,-102.5"/>
<text text-anchor="start" x="161" y="-113.9" font-family="Arial" font-size="14.00" fill="#000000">last_online </text>
<text text-anchor="start" x="231.7966" y="-113.9" font-family="Arial" font-size="14.00" fill="#666666">[datetime(6)]</text>
<polygon fill="none" stroke="#000000" points="154,-72.5 154,-102.5 337,-102.5 337,-72.5 154,-72.5"/>
<text text-anchor="start" x="161" y="-83.9" font-family="Arial" font-size="14.00" fill="#000000">created_at </text>
<text text-anchor="start" x="231.028" y="-83.9" font-family="Arial" font-size="14.00" fill="#666666">[datetime(6)]</text>
<polygon fill="none" stroke="#000000" points="154,-42.5 154,-72.5 337,-72.5 337,-42.5 154,-42.5"/>
<text text-anchor="start" x="161" y="-53.9" font-family="Arial" font-size="14.00" fill="#000000">updated_at </text>
<text text-anchor="start" x="234.9326" y="-53.9" font-family="Arial" font-size="14.00" fill="#666666">[datetime(6)]</text>
</g>
<!-- stamps&#45;&gt;users -->
<g id="edge2" class="edge">
<title>stamps:creator_id&#45;&gt;users:id</title>
<path fill="none" stroke="#000000" stroke-dasharray="5,2" d="M290.7188,-756.9417C211.9229,-747.8648 266.5964,-630.0577 301,-547 309.6591,-526.095 328.3409,-531.905 337,-511 352.9026,-472.6077 378.5556,-417.5 337,-417.5"/>
<polygon fill="#000000" stroke="#000000" points="291.0147,-756.9577 300.756,-761.9934 296.0074,-757.2288 301,-757.5 301,-757.5 301,-757.5 296.0074,-757.2288 301.244,-753.0066 291.0147,-756.9577 291.0147,-756.9577"/>
<text text-anchor="start" x="211.3245" y="-767.5" font-family="Arial" font-size="10.00" fill="#000000">Additional Relation</text>
</g>
<!-- files -->
<g id="node4" class="node">
<title>files</title>
<polygon fill="#efefef" stroke="transparent" points="441,-417.5 441,-452.5 612,-452.5 612,-417.5 441,-417.5"/>
<polygon fill="none" stroke="#000000" points="441,-417.5 441,-452.5 612,-452.5 612,-417.5 441,-417.5"/>
<text text-anchor="start" x="461.8747" y="-430.3" font-family="Arial Bold" font-size="18.00" fill="#000000">files</text>
<text text-anchor="start" x="493.8715" y="-430.3" font-family="Arial" font-size="14.00" fill="#000000"> </text>
<text text-anchor="start" x="497.7621" y="-430.3" font-family="Arial" font-size="14.00" fill="#666666">[BASE TABLE]</text>
<polygon fill="none" stroke="#000000" points="441,-387.5 441,-417.5 612,-417.5 612,-387.5 441,-387.5"/>
<text text-anchor="start" x="448" y="-398.9" font-family="Arial" font-size="14.00" fill="#000000">id </text>
<text text-anchor="start" x="462.7798" y="-398.9" font-family="Arial" font-size="14.00" fill="#666666">[char(36)]</text>
<polygon fill="none" stroke="#000000" points="441,-357.5 441,-387.5 612,-387.5 612,-357.5 441,-357.5"/>
<text text-anchor="start" x="448" y="-368.9" font-family="Arial" font-size="14.00" fill="#000000">name </text>
<text text-anchor="start" x="486.899" y="-368.9" font-family="Arial" font-size="14.00" fill="#666666">[text]</text>
<polygon fill="none" stroke="#000000" points="441,-327.5 441,-357.5 612,-357.5 612,-327.5 441,-327.5"/>
<text text-anchor="start" x="448" y="-338.9" font-family="Arial" font-size="14.00" fill="#000000">mime </text>
<text text-anchor="start" x="486.101" y="-338.9" font-family="Arial" font-size="14.00" fill="#666666">[text]</text>
<polygon fill="none" stroke="#000000" points="441,-297.5 441,-327.5 612,-327.5 612,-297.5 441,-297.5"/>
<text text-anchor="start" x="448" y="-308.9" font-family="Arial" font-size="14.00" fill="#000000">size </text>
<text text-anchor="start" x="476.7798" y="-308.9" font-family="Arial" font-size="14.00" fill="#666666">[bigint(20)]</text>
<polygon fill="none" stroke="#000000" points="441,-267.5 441,-297.5 612,-297.5 612,-267.5 441,-267.5"/>
<text text-anchor="start" x="448" y="-278.9" font-family="Arial" font-size="14.00" fill="#000000">creator_id </text>
<text text-anchor="start" x="514.122" y="-278.9" font-family="Arial" font-size="14.00" fill="#666666">[char(36)]</text>
<polygon fill="none" stroke="#000000" points="441,-237.5 441,-267.5 612,-267.5 612,-237.5 441,-237.5"/>
<text text-anchor="start" x="448" y="-248.9" font-family="Arial" font-size="14.00" fill="#000000">hash </text>
<text text-anchor="start" x="482.2384" y="-248.9" font-family="Arial" font-size="14.00" fill="#666666">[char(32)]</text>
<polygon fill="none" stroke="#000000" points="441,-207.5 441,-237.5 612,-237.5 612,-207.5 441,-207.5"/>
<text text-anchor="start" x="448" y="-218.9" font-family="Arial" font-size="14.00" fill="#000000">type </text>
<text text-anchor="start" x="478.3464" y="-218.9" font-family="Arial" font-size="14.00" fill="#666666">[varchar(30)]</text>
<polygon fill="none" stroke="#000000" points="441,-177.5 441,-207.5 612,-207.5 612,-177.5 441,-177.5"/>
<text text-anchor="start" x="448" y="-188.9" font-family="Arial" font-size="14.00" fill="#000000">has_thumbnail </text>
<text text-anchor="start" x="542.9158" y="-188.9" font-family="Arial" font-size="14.00" fill="#666666">[tinyint(1)]</text>
<polygon fill="none" stroke="#000000" points="441,-147.5 441,-177.5 612,-177.5 612,-147.5 441,-147.5"/>
<text text-anchor="start" x="448" y="-158.9" font-family="Arial" font-size="14.00" fill="#000000">thumbnail_width </text>
<text text-anchor="start" x="553.0196" y="-158.9" font-family="Arial" font-size="14.00" fill="#666666">[int(11)]</text>
<polygon fill="none" stroke="#000000" points="441,-117.5 441,-147.5 612,-147.5 612,-117.5 441,-117.5"/>
<text text-anchor="start" x="447.5372" y="-128.9" font-family="Arial" font-size="14.00" fill="#000000">thumbnail_height </text>
<text text-anchor="start" x="558.0154" y="-128.9" font-family="Arial" font-size="14.00" fill="#666666">[int(11)]</text>
<polygon fill="none" stroke="#000000" points="441,-87.5 441,-117.5 612,-117.5 612,-87.5 441,-87.5"/>
<text text-anchor="start" x="448" y="-98.9" font-family="Arial" font-size="14.00" fill="#000000">created_at </text>
<text text-anchor="start" x="518.028" y="-98.9" font-family="Arial" font-size="14.00" fill="#666666">[datetime(6)]</text>
<polygon fill="none" stroke="#000000" points="441,-57.5 441,-87.5 612,-87.5 612,-57.5 441,-57.5"/>
<text text-anchor="start" x="448" y="-68.9" font-family="Arial" font-size="14.00" fill="#000000">deleted_at </text>
<text text-anchor="start" x="517.2566" y="-68.9" font-family="Arial" font-size="14.00" fill="#666666">[datetime(6)]</text>
</g>
<!-- stamps&#45;&gt;files -->
<g id="edge3" class="edge">
<title>stamps:file_id&#45;&gt;files:id</title>
<path fill="none" stroke="#000000" d="M480.3773,-726.8346C544.7102,-717.9048 489.5472,-620.921 470,-547 463.334,-521.7915 447.666,-521.2085 441,-496 430.3765,-455.8253 399.4444,-402.5 441,-402.5"/>
<polygon fill="#000000" stroke="#000000" points="479.9795,-726.86 469.712,-723.0092 474.9898,-727.18 470,-727.5 470,-727.5 470,-727.5 474.9898,-727.18 470.288,-731.9908 479.9795,-726.86 479.9795,-726.86"/>
<text text-anchor="start" x="476.616" y="-737.5" font-family="Arial" font-size="10.00" fill="#000000">FOREIGN KEY (file_id) REFERENCES files (id)</text>
</g>
<!-- messages_stamps -->
<g id="node2" class="node">
<title>messages_stamps</title>
<polygon fill="#efefef" stroke="transparent" points="255,-1172.5 255,-1207.5 516,-1207.5 516,-1172.5 255,-1172.5"/>
<polygon fill="none" stroke="#000000" points="255,-1172.5 255,-1207.5 516,-1207.5 516,-1172.5 255,-1172.5"/>
<text text-anchor="start" x="261.8581" y="-1185.3" font-family="Arial Bold" font-size="18.00" fill="#000000">messages_stamps</text>
<text text-anchor="start" x="411.8881" y="-1185.3" font-family="Arial" font-size="14.00" fill="#000000"> </text>
<text text-anchor="start" x="415.7787" y="-1185.3" font-family="Arial" font-size="14.00" fill="#666666">[BASE TABLE]</text>
<polygon fill="none" stroke="#000000" points="255,-1142.5 255,-1172.5 516,-1172.5 516,-1142.5 255,-1142.5"/>
<text text-anchor="start" x="262" y="-1153.9" font-family="Arial" font-size="14.00" fill="#000000">message_id </text>
<text text-anchor="start" x="341.3534" y="-1153.9" font-family="Arial" font-size="14.00" fill="#666666">[char(36)]</text>
<polygon fill="none" stroke="#000000" points="255,-1112.5 255,-1142.5 516,-1142.5 516,-1112.5 255,-1112.5"/>
<text text-anchor="start" x="262" y="-1123.9" font-family="Arial" font-size="14.00" fill="#000000">stamp_id </text>
<text text-anchor="start" x="322.6788" y="-1123.9" font-family="Arial" font-size="14.00" fill="#666666">[char(36)]</text>
<polygon fill="none" stroke="#000000" points="255,-1082.5 255,-1112.5 516,-1112.5 516,-1082.5 255,-1082.5"/>
<text text-anchor="start" x="262" y="-1093.9" font-family="Arial" font-size="14.00" fill="#000000">user_id </text>
<text text-anchor="start" x="311.7882" y="-1093.9" font-family="Arial" font-size="14.00" fill="#666666">[char(36)]</text>
<polygon fill="none" stroke="#000000" points="255,-1052.5 255,-1082.5 516,-1082.5 516,-1052.5 255,-1052.5"/>
<text text-anchor="start" x="262" y="-1063.9" font-family="Arial" font-size="14.00" fill="#000000">count </text>
<text text-anchor="start" x="300.129" y="-1063.9" font-family="Arial" font-size="14.00" fill="#666666">[int(11)]</text>
<polygon fill="none" stroke="#000000" points="255,-1022.5 255,-1052.5 516,-1052.5 516,-1022.5 255,-1022.5"/>
<text text-anchor="start" x="262" y="-1033.9" font-family="Arial" font-size="14.00" fill="#000000">created_at </text>
<text text-anchor="start" x="332.028" y="-1033.9" font-family="Arial" font-size="14.00" fill="#666666">[datetime(6)]</text>
<polygon fill="none" stroke="#000000" points="255,-992.5 255,-1022.5 516,-1022.5 516,-992.5 255,-992.5"/>
<text text-anchor="start" x="262" y="-1003.9" font-family="Arial" font-size="14.00" fill="#000000">updated_at </text>
<text text-anchor="start" x="335.9326" y="-1003.9" font-family="Arial" font-size="14.00" fill="#666666">[datetime(6)]</text>
</g>
<!-- messages_stamps&#45;&gt;stamps -->
<g id="edge1" class="edge">
<title>messages_stamps:stamp_id&#45;&gt;stamps:id</title>
<path fill="none" stroke="#000000" d="M244.7471,-1126.9106C118.1097,-1111.9577 165.2502,-817.5 301,-817.5"/>
<polygon fill="#000000" stroke="#000000" points="245.0165,-1126.926 254.7417,-1131.9926 250.0082,-1127.213 255,-1127.5 255,-1127.5 255,-1127.5 250.0082,-1127.213 255.2583,-1123.0074 245.0165,-1126.926 245.0165,-1126.926"/>
<text text-anchor="start" x="7.166" y="-1137.5" font-family="Arial" font-size="10.00" fill="#000000">FOREIGN KEY (stamp_id) REFERENCES stamps (id)</text>
</g>
</g>
</svg>
