<?xml version="1.0" encoding="UTF-8" standalone="no"?>
<!DOCTYPE svg PUBLIC "-//W3C//DTD SVG 1.1//EN"
        "http://www.w3.org/Graphics/SVG/1.1/DTD/svg11.dtd">
<!-- Generated by graphviz version 2.40.1 (20161225.0304)
 -->
<!-- Title: stamps Pages: 1 -->
<svg width="576pt" height="1196pt"
     viewBox="0.00 0.00 576.00 1196.00" xmlns="http://www.w3.org/2000/svg">
    <g id="graph0" class="graph" transform="scale(1 1) rotate(0) translate(4 1192)">
        <title>stamps</title>
        <polygon fill="#ffffff" stroke="transparent" points="-4,4 -4,-1192 572,-1192 572,4 -4,4"/>
        <!-- stamps -->
        <g id="node1" class="node">
            <title>stamps</title>
            <polygon fill="#efefef" stroke="transparent" points="301,-772 301,-806 478,-806 478,-772 301,-772"/>
            <polygon fill="none" stroke="#000000" points="301,-772 301,-806 478,-806 478,-772 301,-772"/>
            <text text-anchor="start" x="310.002" y="-785.6" font-family="Arial Bold" font-size="18.00" fill="#000000">
                stamps
            </text>
            <text text-anchor="start" x="373.0283" y="-785.6" font-family="Arial" font-size="14.00"
                  fill="#000000"></text>
            <text text-anchor="start" x="376.918" y="-785.6" font-family="Arial" font-size="14.00" fill="#666666">[BASE
                TABLE]
            </text>
            <polygon fill="none" stroke="#000000" points="301,-742 301,-772 478,-772 478,-742 301,-742"/>
            <text text-anchor="start" x="308" y="-754.8" font-family="Arial" font-size="14.00" fill="#000000">id</text>
            <text text-anchor="start" x="322.7861" y="-754.8" font-family="Arial" font-size="14.00" fill="#666666">
                [char(36)]
            </text>
            <polygon fill="none" stroke="#000000" points="301,-712 301,-742 478,-742 478,-712 301,-712"/>
            <text text-anchor="start" x="308" y="-724.8" font-family="Arial" font-size="14.00" fill="#000000">name
            </text>
            <text text-anchor="start" x="346.9102" y="-724.8" font-family="Arial" font-size="14.00" fill="#666666">
                [varchar(32)]
            </text>
            <polygon fill="none" stroke="#000000" points="301,-682 301,-712 478,-712 478,-682 301,-682"/>
            <text text-anchor="start" x="308" y="-694.8" font-family="Arial" font-size="14.00" fill="#000000">
                creator_id
            </text>
            <text text-anchor="start" x="374.1445" y="-694.8" font-family="Arial" font-size="14.00" fill="#666666">
                [char(36)]
            </text>
            <polygon fill="none" stroke="#000000" points="301,-652 301,-682 478,-682 478,-652 301,-652"/>
            <text text-anchor="start" x="308" y="-664.8" font-family="Arial" font-size="14.00" fill="#000000">file_id
            </text>
            <text text-anchor="start" x="348.4688" y="-664.8" font-family="Arial" font-size="14.00" fill="#666666">
                [char(36)]
            </text>
            <polygon fill="none" stroke="#000000" points="301,-622 301,-652 478,-652 478,-622 301,-622"/>
            <text text-anchor="start" x="308" y="-634.8" font-family="Arial" font-size="14.00" fill="#000000">
                created_at
            </text>
            <text text-anchor="start" x="378.0479" y="-634.8" font-family="Arial" font-size="14.00" fill="#666666">
                [timestamp(6)]
            </text>
            <polygon fill="none" stroke="#000000" points="301,-592 301,-622 478,-622 478,-592 301,-592"/>
            <text text-anchor="start" x="307.79" y="-604.8" font-family="Arial" font-size="14.00" fill="#000000">
                updated_at
            </text>
            <text text-anchor="start" x="381.748" y="-604.8" font-family="Arial" font-size="14.00" fill="#666666">
                [timestamp(6)]
            </text>
            <polygon fill="none" stroke="#000000" points="301,-562 301,-592 478,-592 478,-562 301,-562"/>
            <text text-anchor="start" x="308" y="-574.8" font-family="Arial" font-size="14.00" fill="#000000">
                deleted_at
            </text>
            <text text-anchor="start" x="377.2822" y="-574.8" font-family="Arial" font-size="14.00" fill="#666666">
                [timestamp(6)]
            </text>
            <polygon fill="none" stroke="#000000" stroke-width="3"
                     points="299,-560.5 299,-807.5 479,-807.5 479,-560.5 299,-560.5"/>
        </g>
        <!-- files -->
        <g id="node3" class="node">
            <title>files</title>
            <polygon fill="#efefef" stroke="transparent" points="303,-403 303,-437 476,-437 476,-403 303,-403"/>
            <polygon fill="none" stroke="#000000" points="303,-403 303,-437 476,-437 476,-403 303,-403"/>
            <text text-anchor="start" x="323.5063" y="-416.6" font-family="Arial Bold" font-size="18.00" fill="#000000">
                files
            </text>
            <text text-anchor="start" x="359.5239" y="-416.6" font-family="Arial" font-size="14.00"
                  fill="#000000"></text>
            <text text-anchor="start" x="363.4136" y="-416.6" font-family="Arial" font-size="14.00" fill="#666666">[BASE
                TABLE]
            </text>
            <polygon fill="none" stroke="#000000" points="303,-373 303,-403 476,-403 476,-373 303,-373"/>
            <text text-anchor="start" x="310" y="-385.8" font-family="Arial" font-size="14.00" fill="#000000">id</text>
            <text text-anchor="start" x="324.7861" y="-385.8" font-family="Arial" font-size="14.00" fill="#666666">
                [char(36)]
            </text>
            <polygon fill="none" stroke="#000000" points="303,-343 303,-373 476,-373 476,-343 303,-343"/>
            <text text-anchor="start" x="310" y="-355.8" font-family="Arial" font-size="14.00" fill="#000000">name
            </text>
            <text text-anchor="start" x="348.9102" y="-355.8" font-family="Arial" font-size="14.00" fill="#666666">
                [text]
            </text>
            <polygon fill="none" stroke="#000000" points="303,-313 303,-343 476,-343 476,-313 303,-313"/>
            <text text-anchor="start" x="310" y="-325.8" font-family="Arial" font-size="14.00" fill="#000000">mime
            </text>
            <text text-anchor="start" x="348.1104" y="-325.8" font-family="Arial" font-size="14.00" fill="#666666">
                [text]
            </text>
            <polygon fill="none" stroke="#000000" points="303,-283 303,-313 476,-313 476,-283 303,-283"/>
            <text text-anchor="start" x="310" y="-295.8" font-family="Arial" font-size="14.00" fill="#000000">size
            </text>
            <text text-anchor="start" x="338.7861" y="-295.8" font-family="Arial" font-size="14.00" fill="#666666">
                [bigint(20)]
            </text>
            <polygon fill="none" stroke="#000000" points="303,-253 303,-283 476,-283 476,-253 303,-253"/>
            <text text-anchor="start" x="310" y="-265.8" font-family="Arial" font-size="14.00" fill="#000000">
                creator_id
            </text>
            <text text-anchor="start" x="376.1445" y="-265.8" font-family="Arial" font-size="14.00" fill="#666666">
                [char(36)]
            </text>
            <polygon fill="none" stroke="#000000" points="303,-223 303,-253 476,-253 476,-223 303,-223"/>
            <text text-anchor="start" x="310" y="-235.8" font-family="Arial" font-size="14.00" fill="#000000">hash
            </text>
            <text text-anchor="start" x="344.248" y="-235.8" font-family="Arial" font-size="14.00" fill="#666666">
                [char(32)]
            </text>
            <polygon fill="none" stroke="#000000" points="303,-193 303,-223 476,-223 476,-193 303,-193"/>
            <text text-anchor="start" x="310" y="-205.8" font-family="Arial" font-size="14.00" fill="#000000">type
            </text>
            <text text-anchor="start" x="340.3516" y="-205.8" font-family="Arial" font-size="14.00" fill="#666666">
                [varchar(30)]
            </text>
            <polygon fill="none" stroke="#000000" points="303,-163 303,-193 476,-193 476,-163 303,-163"/>
            <text text-anchor="start" x="310" y="-175.8" font-family="Arial" font-size="14.00" fill="#000000">
                has_thumbnail
            </text>
            <text text-anchor="start" x="404.9512" y="-175.8" font-family="Arial" font-size="14.00" fill="#666666">
                [tinyint(1)]
            </text>
            <polygon fill="none" stroke="#000000" points="303,-133 303,-163 476,-163 476,-133 303,-133"/>
            <text text-anchor="start" x="310" y="-145.8" font-family="Arial" font-size="14.00" fill="#000000">
                thumbnail_width
            </text>
            <text text-anchor="start" x="415.0615" y="-145.8" font-family="Arial" font-size="14.00" fill="#666666">
                [int(11)]
            </text>
            <polygon fill="none" stroke="#000000" points="303,-103 303,-133 476,-133 476,-103 303,-103"/>
            <text text-anchor="start" x="310" y="-115.8" font-family="Arial" font-size="14.00" fill="#000000">
                thumbnail_height
            </text>
            <text text-anchor="start" x="420.5234" y="-115.8" font-family="Arial" font-size="14.00" fill="#666666">
                [int(11)]
            </text>
            <polygon fill="none" stroke="#000000" points="303,-73 303,-103 476,-103 476,-73 303,-73"/>
            <text text-anchor="start" x="309.7451" y="-85.8" font-family="Arial" font-size="14.00" fill="#000000">
                created_at
            </text>
            <text text-anchor="start" x="379.793" y="-85.8" font-family="Arial" font-size="14.00" fill="#666666">
                [timestamp(6)]
            </text>
            <polygon fill="none" stroke="#000000" points="303,-43 303,-73 476,-73 476,-43 303,-43"/>
            <text text-anchor="start" x="310" y="-55.8" font-family="Arial" font-size="14.00" fill="#000000">
                deleted_at
            </text>
            <text text-anchor="start" x="379.2822" y="-55.8" font-family="Arial" font-size="14.00" fill="#666666">
                [timestamp(6)]
            </text>
        </g>
        <!-- stamps&#45;&gt;files -->
        <g id="edge2" class="edge">
            <title>stamps:file_id&#45;&gt;files:id</title>
            <path fill="none" stroke="#000000" d="M290.7677,-666.3414C177.2079,-651.421 182.5086,-388 303,-388"/>
            <polygon fill="#000000" stroke="#000000"
                     points="291.0207,-666.3576 300.7109,-671.4907 296.0103,-666.6788 301,-667 301,-667 301,-667 296.0103,-666.6788 301.2891,-662.5093 291.0207,-666.3576 291.0207,-666.3576"/>
            <text text-anchor="start" x="81.6816" y="-676.5" font-family="Arial" font-size="10.00" fill="#000000">
                FOREIGN KEY (file_id) REFERENCES files (id)
            </text>
        </g>
        <!-- messages_stamps -->
        <g id="node2" class="node">
            <title>messages_stamps</title>
            <polygon fill="#efefef" stroke="transparent" points="255,-1111 255,-1145 525,-1145 525,-1111 255,-1111"/>
            <polygon fill="none" stroke="#000000" points="255,-1111 255,-1145 525,-1145 525,-1111 255,-1111"/>
            <text text-anchor="start" x="261.9644" y="-1124.6" font-family="Arial Bold" font-size="18.00"
                  fill="#000000">messages_stamps
            </text>
            <text text-anchor="start" x="422.0659" y="-1124.6" font-family="Arial" font-size="14.00"
                  fill="#000000"></text>
            <text text-anchor="start" x="425.9556" y="-1124.6" font-family="Arial" font-size="14.00" fill="#666666">
                [BASE TABLE]
            </text>
            <polygon fill="none" stroke="#000000" points="255,-1081 255,-1111 525,-1111 525,-1081 255,-1081"/>
            <text text-anchor="start" x="262" y="-1093.8" font-family="Arial" font-size="14.00" fill="#000000">
                message_id
            </text>
            <text text-anchor="start" x="341.3789" y="-1093.8" font-family="Arial" font-size="14.00" fill="#666666">
                [char(36)]
            </text>
            <polygon fill="none" stroke="#000000" points="255,-1051 255,-1081 525,-1081 525,-1051 255,-1051"/>
            <text text-anchor="start" x="262" y="-1063.8" font-family="Arial" font-size="14.00" fill="#000000">
                stamp_id
            </text>
            <text text-anchor="start" x="322.6963" y="-1063.8" font-family="Arial" font-size="14.00" fill="#666666">
                [char(36)]
            </text>
            <polygon fill="none" stroke="#000000" points="255,-1021 255,-1051 525,-1051 525,-1021 255,-1021"/>
            <text text-anchor="start" x="262" y="-1033.8" font-family="Arial" font-size="14.00" fill="#000000">user_id
            </text>
            <text text-anchor="start" x="311.8066" y="-1033.8" font-family="Arial" font-size="14.00" fill="#666666">
                [char(36)]
            </text>
            <polygon fill="none" stroke="#000000" points="255,-991 255,-1021 525,-1021 525,-991 255,-991"/>
            <text text-anchor="start" x="262" y="-1003.8" font-family="Arial" font-size="14.00" fill="#000000">count
            </text>
            <text text-anchor="start" x="300.1377" y="-1003.8" font-family="Arial" font-size="14.00" fill="#666666">
                [int(11)]
            </text>
            <polygon fill="none" stroke="#000000" points="255,-961 255,-991 525,-991 525,-961 255,-961"/>
            <text text-anchor="start" x="262" y="-973.8" font-family="Arial" font-size="14.00" fill="#000000">
                created_at
            </text>
            <text text-anchor="start" x="332.0479" y="-973.8" font-family="Arial" font-size="14.00" fill="#666666">
                [timestamp(6)]
            </text>
            <polygon fill="none" stroke="#000000" points="255,-931 255,-961 525,-961 525,-931 255,-931"/>
            <text text-anchor="start" x="262" y="-943.8" font-family="Arial" font-size="14.00" fill="#000000">
                updated_at
            </text>
            <text text-anchor="start" x="335.958" y="-943.8" font-family="Arial" font-size="14.00" fill="#666666">
                [timestamp(6)]
            </text>
        </g>
        <!-- messages_stamps&#45;&gt;stamps -->
        <g id="edge1" class="edge">
            <title>messages_stamps:stamp_id&#45;&gt;stamps:id</title>
            <path fill="none" stroke="#000000"
                  d="M244.9783,-1065.3029C178.4359,-1055.5355 206.015,-945.5271 255,-888 320.0873,-811.5627 412.9127,-928.4373 478,-852 505.3734,-819.8532 520.2222,-757 478,-757"/>
            <polygon fill="#000000" stroke="#000000"
                     points="245.0241,-1065.306 254.6877,-1070.4892 250.0121,-1065.653 255,-1066 255,-1066 255,-1066 250.0121,-1065.653 255.3123,-1061.5108 245.0241,-1065.306 245.0241,-1065.306"/>
            <text text-anchor="start" x="7.2334" y="-1075.5" font-family="Arial" font-size="10.00" fill="#000000">
                FOREIGN KEY (stamp_id) REFERENCES stamps (id)
            </text>
        </g>
    </g>
</svg>
