<?xml version="1.0" encoding="UTF-8" standalone="no"?>
<!DOCTYPE svg PUBLIC "-//W3C//DTD SVG 1.1//EN"
 "http://www.w3.org/Graphics/SVG/1.1/DTD/svg11.dtd">
<!-- Generated by graphviz version 2.40.1 (20161225.0304)
 -->
<!-- Title: stamp_palettes Pages: 1 -->
<svg width="538pt" height="832pt"
 viewBox="0.00 0.00 537.50 832.00" xmlns="http://www.w3.org/2000/svg" xmlns:xlink="http://www.w3.org/1999/xlink">
<g id="graph0" class="graph" transform="scale(1 1) rotate(0) translate(4 828)">
<title>stamp_palettes</title>
<polygon fill="#ffffff" stroke="transparent" points="-4,4 -4,-828 533.5,-828 533.5,4 -4,4"/>
<!-- stamp_palettes -->
<g id="node1" class="node">
<title>stamp_palettes</title>
<polygon fill="#efefef" stroke="transparent" points="251,-742.5 251,-777.5 484,-777.5 484,-742.5 251,-742.5"/>
<polygon fill="none" stroke="#000000" points="251,-742.5 251,-777.5 484,-777.5 484,-742.5 251,-742.5"/>
<text text-anchor="start" x="257.8549" y="-755.3" font-family="Arial Bold" font-size="18.00" fill="#000000">stamp_palettes</text>
<text text-anchor="start" x="379.8913" y="-755.3" font-family="Arial" font-size="14.00" fill="#000000"> </text>
<text text-anchor="start" x="383.7819" y="-755.3" font-family="Arial" font-size="14.00" fill="#666666">[BASE TABLE]</text>
<polygon fill="none" stroke="#000000" points="251,-712.5 251,-742.5 484,-742.5 484,-712.5 251,-712.5"/>
<text text-anchor="start" x="258" y="-723.9" font-family="Arial" font-size="14.00" fill="#000000">id </text>
<text text-anchor="start" x="272.7798" y="-723.9" font-family="Arial" font-size="14.00" fill="#666666">[char(36)]</text>
<polygon fill="none" stroke="#000000" points="251,-682.5 251,-712.5 484,-712.5 484,-682.5 251,-682.5"/>
<text text-anchor="start" x="258" y="-693.9" font-family="Arial" font-size="14.00" fill="#000000">name </text>
<text text-anchor="start" x="296.899" y="-693.9" font-family="Arial" font-size="14.00" fill="#666666">[varchar(30)]</text>
<polygon fill="none" stroke="#000000" points="251,-652.5 251,-682.5 484,-682.5 484,-652.5 251,-652.5"/>
<text text-anchor="start" x="258" y="-663.9" font-family="Arial" font-size="14.00" fill="#000000">description </text>
<text text-anchor="start" x="329.568" y="-663.9" font-family="Arial" font-size="14.00" fill="#666666">[text]</text>
<polygon fill="none" stroke="#000000" points="251,-622.5 251,-652.5 484,-652.5 484,-622.5 251,-622.5"/>
<text text-anchor="start" x="258" y="-633.9" font-family="Arial" font-size="14.00" fill="#000000">stamps </text>
<text text-anchor="start" x="307.007" y="-633.9" font-family="Arial" font-size="14.00" fill="#666666">[text]</text>
<polygon fill="none" stroke="#000000" points="251,-592.5 251,-622.5 484,-622.5 484,-592.5 251,-592.5"/>
<text text-anchor="start" x="258" y="-603.9" font-family="Arial" font-size="14.00" fill="#000000">creator_id </text>
<text text-anchor="start" x="324.122" y="-603.9" font-family="Arial" font-size="14.00" fill="#666666">[char(36)]</text>
<polygon fill="none" stroke="#000000" points="251,-562.5 251,-592.5 484,-592.5 484,-562.5 251,-562.5"/>
<text text-anchor="start" x="258" y="-573.9" font-family="Arial" font-size="14.00" fill="#000000">created_at </text>
<text text-anchor="start" x="328.028" y="-573.9" font-family="Arial" font-size="14.00" fill="#666666">[datetime(6)]</text>
<polygon fill="none" stroke="#000000" points="251,-532.5 251,-562.5 484,-562.5 484,-532.5 251,-532.5"/>
<text text-anchor="start" x="258" y="-543.9" font-family="Arial" font-size="14.00" fill="#000000">updated_at </text>
<text text-anchor="start" x="331.9326" y="-543.9" font-family="Arial" font-size="14.00" fill="#666666">[datetime(6)]</text>
<polygon fill="none" stroke="#000000" stroke-width="3" points="249,-531.5 249,-779.5 485,-779.5 485,-531.5 249,-531.5"/>
</g>
<!-- users -->
<g id="node2" class="node">
<title>users</title>
<polygon fill="#efefef" stroke="transparent" points="276,-372.5 276,-407.5 459,-407.5 459,-372.5 276,-372.5"/>
<polygon fill="none" stroke="#000000" points="276,-372.5 276,-407.5 459,-407.5 459,-372.5 276,-372.5"/>
<text text-anchor="start" x="296.8708" y="-385.3" font-family="Arial Bold" font-size="18.00" fill="#000000">users</text>
<text text-anchor="start" x="340.8754" y="-385.3" font-family="Arial" font-size="14.00" fill="#000000"> </text>
<text text-anchor="start" x="344.766" y="-385.3" font-family="Arial" font-size="14.00" fill="#666666">[BASE TABLE]</text>
<polygon fill="none" stroke="#000000" points="276,-342.5 276,-372.5 459,-372.5 459,-342.5 276,-342.5"/>
<text text-anchor="start" x="283" y="-353.9" font-family="Arial" font-size="14.00" fill="#000000">id </text>
<text text-anchor="start" x="297.7798" y="-353.9" font-family="Arial" font-size="14.00" fill="#666666">[char(36)]</text>
<polygon fill="none" stroke="#000000" points="276,-312.5 276,-342.5 459,-342.5 459,-312.5 276,-312.5"/>
<text text-anchor="start" x="283" y="-323.9" font-family="Arial" font-size="14.00" fill="#000000">name </text>
<text text-anchor="start" x="321.899" y="-323.9" font-family="Arial" font-size="14.00" fill="#666666">[varchar(32)]</text>
<polygon fill="none" stroke="#000000" points="276,-282.5 276,-312.5 459,-312.5 459,-282.5 276,-282.5"/>
<text text-anchor="start" x="282.7104" y="-293.9" font-family="Arial" font-size="14.00" fill="#000000">display_name </text>
<text text-anchor="start" x="372.953" y="-293.9" font-family="Arial" font-size="14.00" fill="#666666">[varchar(32)]</text>
<polygon fill="none" stroke="#000000" points="276,-252.5 276,-282.5 459,-282.5 459,-252.5 276,-252.5"/>
<text text-anchor="start" x="283" y="-263.9" font-family="Arial" font-size="14.00" fill="#000000">password </text>
<text text-anchor="start" x="346.7882" y="-263.9" font-family="Arial" font-size="14.00" fill="#666666">[char(128)]</text>
<polygon fill="none" stroke="#000000" points="276,-222.5 276,-252.5 459,-252.5 459,-222.5 276,-222.5"/>
<text text-anchor="start" x="283" y="-233.9" font-family="Arial" font-size="14.00" fill="#000000">salt </text>
<text text-anchor="start" x="308.6704" y="-233.9" font-family="Arial" font-size="14.00" fill="#666666">[char(128)]</text>
<polygon fill="none" stroke="#000000" points="276,-192.5 276,-222.5 459,-222.5 459,-192.5 276,-192.5"/>
<text text-anchor="start" x="283" y="-203.9" font-family="Arial" font-size="14.00" fill="#000000">icon </text>
<text text-anchor="start" x="312.5624" y="-203.9" font-family="Arial" font-size="14.00" fill="#666666">[char(36)]</text>
<polygon fill="none" stroke="#000000" points="276,-162.5 276,-192.5 459,-192.5 459,-162.5 276,-162.5"/>
<text text-anchor="start" x="283" y="-173.9" font-family="Arial" font-size="14.00" fill="#000000">status </text>
<text text-anchor="start" x="324.237" y="-173.9" font-family="Arial" font-size="14.00" fill="#666666">[tinyint(4)]</text>
<polygon fill="none" stroke="#000000" points="276,-132.5 276,-162.5 459,-162.5 459,-132.5 276,-132.5"/>
<text text-anchor="start" x="283" y="-143.9" font-family="Arial" font-size="14.00" fill="#000000">bot </text>
<text text-anchor="start" x="306.3464" y="-143.9" font-family="Arial" font-size="14.00" fill="#666666">[tinyint(1)]</text>
<polygon fill="none" stroke="#000000" points="276,-102.5 276,-132.5 459,-132.5 459,-102.5 276,-102.5"/>
<text text-anchor="start" x="283" y="-113.9" font-family="Arial" font-size="14.00" fill="#000000">role </text>
<text text-anchor="start" x="310.223" y="-113.9" font-family="Arial" font-size="14.00" fill="#666666">[varchar(30)]</text>
<polygon fill="none" stroke="#000000" points="276,-72.5 276,-102.5 459,-102.5 459,-72.5 276,-72.5"/>
<text text-anchor="start" x="283" y="-83.9" font-family="Arial" font-size="14.00" fill="#000000">created_at </text>
<text text-anchor="start" x="353.028" y="-83.9" font-family="Arial" font-size="14.00" fill="#666666">[datetime(6)]</text>
<polygon fill="none" stroke="#000000" points="276,-42.5 276,-72.5 459,-72.5 459,-42.5 276,-42.5"/>
<text text-anchor="start" x="283" y="-53.9" font-family="Arial" font-size="14.00" fill="#000000">updated_at </text>
<text text-anchor="start" x="356.9326" y="-53.9" font-family="Arial" font-size="14.00" fill="#666666">[datetime(6)]</text>
</g>
<!-- stamp_palettes&#45;&gt;users -->
<g id="edge1" class="edge">
<title>stamp_palettes:creator_id&#45;&gt;users:id</title>
<path fill="none" stroke="#000000" d="M240.9302,-606.7828C140.9818,-592.1191 167.8243,-357.5 276,-357.5"/>
<polygon fill="#000000" stroke="#000000" points="241.0253,-606.7895 250.6803,-611.9886 246.0126,-607.1448 251,-607.5 251,-607.5 251,-607.5 246.0126,-607.1448 251.3197,-603.0114 241.0253,-606.7895 241.0253,-606.7895"/>
<text text-anchor="start" x="7.1115" y="-617.5" font-family="Arial" font-size="10.00" fill="#000000">FOREIGN KEY (creator_id) REFERENCES users (id)</text>
</g>
</g>
</svg>
