<?xml version="1.0" encoding="UTF-8" standalone="no"?>
<!DOCTYPE svg PUBLIC "-//W3C//DTD SVG 1.1//EN"
 "http://www.w3.org/Graphics/SVG/1.1/DTD/svg11.dtd">
<!-- Generated by graphviz version 2.40.1 (20161225.0304)
 -->
<!-- Title: stamps Pages: 1 -->
<svg width="704pt" height="1319pt"
 viewBox="0.00 0.00 704.00 1319.00" xmlns="http://www.w3.org/2000/svg" xmlns:xlink="http://www.w3.org/1999/xlink">
<g id="graph0" class="graph" transform="scale(1 1) rotate(0) translate(4 1315)">
<title>stamps</title>
<polygon fill="#ffffff" stroke="transparent" points="-4,4 -4,-1315 700,-1315 700,4 -4,4"/>
<!-- stamps -->
<g id="node1" class="node">
<title>stamps</title>
<polygon fill="#efefef" stroke="transparent" points="301,-892.5 301,-927.5 470,-927.5 470,-892.5 301,-892.5"/>
<polygon fill="none" stroke="#000000" points="301,-892.5 301,-927.5 470,-927.5 470,-892.5 301,-892.5"/>
<text text-anchor="start" x="307.8697" y="-905.3" font-family="Arial Bold" font-size="18.00" fill="#000000">stamps</text>
<text text-anchor="start" x="365.8765" y="-905.3" font-family="Arial" font-size="14.00" fill="#000000"> </text>
<text text-anchor="start" x="369.7671" y="-905.3" font-family="Arial" font-size="14.00" fill="#666666">[BASE TABLE]</text>
<polygon fill="none" stroke="#000000" points="301,-862.5 301,-892.5 470,-892.5 470,-862.5 301,-862.5"/>
<text text-anchor="start" x="308" y="-873.9" font-family="Arial" font-size="14.00" fill="#000000">id </text>
<text text-anchor="start" x="322.7798" y="-873.9" font-family="Arial" font-size="14.00" fill="#666666">[char(36)]</text>
<polygon fill="none" stroke="#000000" points="301,-832.5 301,-862.5 470,-862.5 470,-832.5 301,-832.5"/>
<text text-anchor="start" x="308" y="-843.9" font-family="Arial" font-size="14.00" fill="#000000">name </text>
<text text-anchor="start" x="346.899" y="-843.9" font-family="Arial" font-size="14.00" fill="#666666">[varchar(32)]</text>
<polygon fill="none" stroke="#000000" points="301,-802.5 301,-832.5 470,-832.5 470,-802.5 301,-802.5"/>
<text text-anchor="start" x="308" y="-813.9" font-family="Arial" font-size="14.00" fill="#000000">creator_id </text>
<text text-anchor="start" x="374.122" y="-813.9" font-family="Arial" font-size="14.00" fill="#666666">[char(36)]</text>
<polygon fill="none" stroke="#000000" points="301,-772.5 301,-802.5 470,-802.5 470,-772.5 301,-772.5"/>
<text text-anchor="start" x="308" y="-783.9" font-family="Arial" font-size="14.00" fill="#000000">file_id </text>
<text text-anchor="start" x="348.4488" y="-783.9" font-family="Arial" font-size="14.00" fill="#666666">[char(36)]</text>
<polygon fill="none" stroke="#000000" points="301,-742.5 301,-772.5 470,-772.5 470,-742.5 301,-742.5"/>
<text text-anchor="start" x="308" y="-753.9" font-family="Arial" font-size="14.00" fill="#000000">is_unicode </text>
<text text-anchor="start" x="378.7994" y="-753.9" font-family="Arial" font-size="14.00" fill="#666666">[tinyint(1)]</text>
<polygon fill="none" stroke="#000000" points="301,-712.5 301,-742.5 470,-742.5 470,-712.5 301,-712.5"/>
<text text-anchor="start" x="308" y="-723.9" font-family="Arial" font-size="14.00" fill="#000000">created_at </text>
<text text-anchor="start" x="378.028" y="-723.9" font-family="Arial" font-size="14.00" fill="#666666">[datetime(6)]</text>
<polygon fill="none" stroke="#000000" points="301,-682.5 301,-712.5 470,-712.5 470,-682.5 301,-682.5"/>
<text text-anchor="start" x="308" y="-693.9" font-family="Arial" font-size="14.00" fill="#000000">updated_at </text>
<text text-anchor="start" x="381.9326" y="-693.9" font-family="Arial" font-size="14.00" fill="#666666">[datetime(6)]</text>
<polygon fill="none" stroke="#000000" points="301,-652.5 301,-682.5 470,-682.5 470,-652.5 301,-652.5"/>
<text text-anchor="start" x="308" y="-663.9" font-family="Arial" font-size="14.00" fill="#000000">deleted_at </text>
<text text-anchor="start" x="377.2566" y="-663.9" font-family="Arial" font-size="14.00" fill="#666666">[datetime(6)]</text>
<polygon fill="none" stroke="#000000" stroke-width="3" points="299,-651.5 299,-929.5 471,-929.5 471,-651.5 299,-651.5"/>
</g>
<!-- users -->
<g id="node3" class="node">
<title>users</title>
<polygon fill="#efefef" stroke="transparent" points="147,-432.5 147,-467.5 330,-467.5 330,-432.5 147,-432.5"/>
<polygon fill="none" stroke="#000000" points="147,-432.5 147,-467.5 330,-467.5 330,-432.5 147,-432.5"/>
<text text-anchor="start" x="167.8708" y="-445.3" font-family="Arial Bold" font-size="18.00" fill="#000000">users</text>
<text text-anchor="start" x="211.8754" y="-445.3" font-family="Arial" font-size="14.00" fill="#000000"> </text>
<text text-anchor="start" x="215.766" y="-445.3" font-family="Arial" font-size="14.00" fill="#666666">[BASE TABLE]</text>
<polygon fill="none" stroke="#000000" points="147,-402.5 147,-432.5 330,-432.5 330,-402.5 147,-402.5"/>
<text text-anchor="start" x="154" y="-413.9" font-family="Arial" font-size="14.00" fill="#000000">id </text>
<text text-anchor="start" x="168.7798" y="-413.9" font-family="Arial" font-size="14.00" fill="#666666">[char(36)]</text>
<polygon fill="none" stroke="#000000" points="147,-372.5 147,-402.5 330,-402.5 330,-372.5 147,-372.5"/>
<text text-anchor="start" x="154" y="-383.9" font-family="Arial" font-size="14.00" fill="#000000">name </text>
<text text-anchor="start" x="192.899" y="-383.9" font-family="Arial" font-size="14.00" fill="#666666">[varchar(32)]</text>
<polygon fill="none" stroke="#000000" points="147,-342.5 147,-372.5 330,-372.5 330,-342.5 147,-342.5"/>
<text text-anchor="start" x="153.7104" y="-353.9" font-family="Arial" font-size="14.00" fill="#000000">display_name </text>
<text text-anchor="start" x="243.953" y="-353.9" font-family="Arial" font-size="14.00" fill="#666666">[varchar(64)]</text>
<polygon fill="none" stroke="#000000" points="147,-312.5 147,-342.5 330,-342.5 330,-312.5 147,-312.5"/>
<text text-anchor="start" x="154" y="-323.9" font-family="Arial" font-size="14.00" fill="#000000">password </text>
<text text-anchor="start" x="217.7882" y="-323.9" font-family="Arial" font-size="14.00" fill="#666666">[char(128)]</text>
<polygon fill="none" stroke="#000000" points="147,-282.5 147,-312.5 330,-312.5 330,-282.5 147,-282.5"/>
<text text-anchor="start" x="154" y="-293.9" font-family="Arial" font-size="14.00" fill="#000000">salt </text>
<text text-anchor="start" x="179.6704" y="-293.9" font-family="Arial" font-size="14.00" fill="#666666">[char(128)]</text>
<polygon fill="none" stroke="#000000" points="147,-252.5 147,-282.5 330,-282.5 330,-252.5 147,-252.5"/>
<text text-anchor="start" x="154" y="-263.9" font-family="Arial" font-size="14.00" fill="#000000">icon </text>
<text text-anchor="start" x="183.5624" y="-263.9" font-family="Arial" font-size="14.00" fill="#666666">[char(36)]</text>
<polygon fill="none" stroke="#000000" points="147,-222.5 147,-252.5 330,-252.5 330,-222.5 147,-222.5"/>
<text text-anchor="start" x="154" y="-233.9" font-family="Arial" font-size="14.00" fill="#000000">status </text>
<text text-anchor="start" x="195.237" y="-233.9" font-family="Arial" font-size="14.00" fill="#666666">[tinyint(4)]</text>
<polygon fill="none" stroke="#000000" points="147,-192.5 147,-222.5 330,-222.5 330,-192.5 147,-192.5"/>
<text text-anchor="start" x="154" y="-203.9" font-family="Arial" font-size="14.00" fill="#000000">bot </text>
<text text-anchor="start" x="177.3464" y="-203.9" font-family="Arial" font-size="14.00" fill="#666666">[tinyint(1)]</text>
<polygon fill="none" stroke="#000000" points="147,-162.5 147,-192.5 330,-192.5 330,-162.5 147,-162.5"/>
<text text-anchor="start" x="154" y="-173.9" font-family="Arial" font-size="14.00" fill="#000000">role </text>
<text text-anchor="start" x="181.223" y="-173.9" font-family="Arial" font-size="14.00" fill="#666666">[varchar(30)]</text>
<polygon fill="none" stroke="#000000" points="147,-132.5 147,-162.5 330,-162.5 330,-132.5 147,-132.5"/>
<text text-anchor="start" x="154" y="-143.9" font-family="Arial" font-size="14.00" fill="#000000">created_at </text>
<text text-anchor="start" x="224.028" y="-143.9" font-family="Arial" font-size="14.00" fill="#666666">[datetime(6)]</text>
<polygon fill="none" stroke="#000000" points="147,-102.5 147,-132.5 330,-132.5 330,-102.5 147,-102.5"/>
<text text-anchor="start" x="154" y="-113.9" font-family="Arial" font-size="14.00" fill="#000000">updated_at </text>
<text text-anchor="start" x="227.9326" y="-113.9" font-family="Arial" font-size="14.00" fill="#666666">[datetime(6)]</text>
</g>
<!-- stamps&#45;&gt;users -->
<g id="edge2" class="edge">
<title>stamps:creator_id&#45;&gt;users:id</title>
<path fill="none" stroke="#000000" stroke-dasharray="5,2" d="M290.8161,-816.9686C213.5842,-808.324 287.8602,-695.9356 301,-607 307.5144,-562.9077 323.4856,-555.0923 330,-511 336.0737,-469.8907 371.5556,-417.5 330,-417.5"/>
<polygon fill="#000000" stroke="#000000" points="291.0136,-816.9788 300.7655,-821.9939 296.0068,-817.2394 301,-817.5 301,-817.5 301,-817.5 296.0068,-817.2394 301.2345,-813.0061 291.0136,-816.9788 291.0136,-816.9788"/>
<text text-anchor="start" x="211.3245" y="-827.5" font-family="Arial" font-size="10.00" fill="#000000">Additional Relation</text>
</g>
<!-- files -->
<g id="node4" class="node">
<title>files</title>
<polygon fill="#efefef" stroke="transparent" points="434,-492.5 434,-527.5 634,-527.5 634,-492.5 434,-492.5"/>
<polygon fill="none" stroke="#000000" points="434,-492.5 434,-527.5 634,-527.5 634,-492.5 434,-492.5"/>
<text text-anchor="start" x="469.3747" y="-505.3" font-family="Arial Bold" font-size="18.00" fill="#000000">files</text>
<text text-anchor="start" x="501.3715" y="-505.3" font-family="Arial" font-size="14.00" fill="#000000"> </text>
<text text-anchor="start" x="505.2621" y="-505.3" font-family="Arial" font-size="14.00" fill="#666666">[BASE TABLE]</text>
<polygon fill="none" stroke="#000000" points="434,-462.5 434,-492.5 634,-492.5 634,-462.5 434,-462.5"/>
<text text-anchor="start" x="441" y="-473.9" font-family="Arial" font-size="14.00" fill="#000000">id </text>
<text text-anchor="start" x="455.7798" y="-473.9" font-family="Arial" font-size="14.00" fill="#666666">[char(36)]</text>
<polygon fill="none" stroke="#000000" points="434,-432.5 434,-462.5 634,-462.5 634,-432.5 434,-432.5"/>
<text text-anchor="start" x="441" y="-443.9" font-family="Arial" font-size="14.00" fill="#000000">name </text>
<text text-anchor="start" x="479.899" y="-443.9" font-family="Arial" font-size="14.00" fill="#666666">[text]</text>
<polygon fill="none" stroke="#000000" points="434,-402.5 434,-432.5 634,-432.5 634,-402.5 434,-402.5"/>
<text text-anchor="start" x="441" y="-413.9" font-family="Arial" font-size="14.00" fill="#000000">mime </text>
<text text-anchor="start" x="479.101" y="-413.9" font-family="Arial" font-size="14.00" fill="#666666">[text]</text>
<polygon fill="none" stroke="#000000" points="434,-372.5 434,-402.5 634,-402.5 634,-372.5 434,-372.5"/>
<text text-anchor="start" x="441" y="-383.9" font-family="Arial" font-size="14.00" fill="#000000">size </text>
<text text-anchor="start" x="469.7798" y="-383.9" font-family="Arial" font-size="14.00" fill="#666666">[bigint(20)]</text>
<polygon fill="none" stroke="#000000" points="434,-342.5 434,-372.5 634,-372.5 634,-342.5 434,-342.5"/>
<text text-anchor="start" x="441" y="-353.9" font-family="Arial" font-size="14.00" fill="#000000">creator_id </text>
<text text-anchor="start" x="507.122" y="-353.9" font-family="Arial" font-size="14.00" fill="#666666">[char(36)]</text>
<polygon fill="none" stroke="#000000" points="434,-312.5 434,-342.5 634,-342.5 634,-312.5 434,-312.5"/>
<text text-anchor="start" x="441" y="-323.9" font-family="Arial" font-size="14.00" fill="#000000">hash </text>
<text text-anchor="start" x="475.2384" y="-323.9" font-family="Arial" font-size="14.00" fill="#666666">[char(32)]</text>
<polygon fill="none" stroke="#000000" points="434,-282.5 434,-312.5 634,-312.5 634,-282.5 434,-282.5"/>
<text text-anchor="start" x="441" y="-293.9" font-family="Arial" font-size="14.00" fill="#000000">type </text>
<text text-anchor="start" x="471.3464" y="-293.9" font-family="Arial" font-size="14.00" fill="#666666">[varchar(30)]</text>
<polygon fill="none" stroke="#000000" points="434,-252.5 434,-282.5 634,-282.5 634,-252.5 434,-252.5"/>
<text text-anchor="start" x="441" y="-263.9" font-family="Arial" font-size="14.00" fill="#000000">has_thumbnail </text>
<text text-anchor="start" x="535.9158" y="-263.9" font-family="Arial" font-size="14.00" fill="#666666">[tinyint(1)]</text>
<polygon fill="none" stroke="#000000" points="434,-222.5 434,-252.5 634,-252.5 634,-222.5 434,-222.5"/>
<text text-anchor="start" x="441" y="-233.9" font-family="Arial" font-size="14.00" fill="#000000">thumbnail_mime </text>
<text text-anchor="start" x="547.561" y="-233.9" font-family="Arial" font-size="14.00" fill="#666666">[text]</text>
<polygon fill="none" stroke="#000000" points="434,-192.5 434,-222.5 634,-222.5 634,-192.5 434,-192.5"/>
<text text-anchor="start" x="441" y="-203.9" font-family="Arial" font-size="14.00" fill="#000000">thumbnail_width </text>
<text text-anchor="start" x="546.0196" y="-203.9" font-family="Arial" font-size="14.00" fill="#666666">[int(11)]</text>
<polygon fill="none" stroke="#000000" points="434,-162.5 434,-192.5 634,-192.5 634,-162.5 434,-162.5"/>
<text text-anchor="start" x="441" y="-173.9" font-family="Arial" font-size="14.00" fill="#000000">thumbnail_height </text>
<text text-anchor="start" x="551.4782" y="-173.9" font-family="Arial" font-size="14.00" fill="#666666">[int(11)]</text>
<polygon fill="none" stroke="#000000" points="434,-132.5 434,-162.5 634,-162.5 634,-132.5 434,-132.5"/>
<text text-anchor="start" x="440.6536" y="-143.9" font-family="Arial" font-size="14.00" fill="#000000">is_animated_image </text>
<text text-anchor="start" x="565.9018" y="-143.9" font-family="Arial" font-size="14.00" fill="#666666">[tinyint(1)]</text>
<polygon fill="none" stroke="#000000" points="434,-102.5 434,-132.5 634,-132.5 634,-102.5 434,-102.5"/>
<text text-anchor="start" x="441" y="-113.9" font-family="Arial" font-size="14.00" fill="#000000">channel_id </text>
<text text-anchor="start" x="512.582" y="-113.9" font-family="Arial" font-size="14.00" fill="#666666">[char(36)]</text>
<polygon fill="none" stroke="#000000" points="434,-72.5 434,-102.5 634,-102.5 634,-72.5 434,-72.5"/>
<text text-anchor="start" x="441" y="-83.9" font-family="Arial" font-size="14.00" fill="#000000">created_at </text>
<text text-anchor="start" x="511.028" y="-83.9" font-family="Arial" font-size="14.00" fill="#666666">[datetime(6)]</text>
<polygon fill="none" stroke="#000000" points="434,-42.5 434,-72.5 634,-72.5 634,-42.5 434,-42.5"/>
<text text-anchor="start" x="441" y="-53.9" font-family="Arial" font-size="14.00" fill="#000000">deleted_at </text>
<text text-anchor="start" x="510.2566" y="-53.9" font-family="Arial" font-size="14.00" fill="#666666">[datetime(6)]</text>
</g>
<!-- stamps&#45;&gt;files -->
<g id="edge3" class="edge">
<title>stamps:file_id&#45;&gt;files:id</title>
<path fill="none" stroke="#000000" d="M480.0392,-786.8685C545.8109,-778.0072 499.3206,-677.7863 470,-607 461.3409,-586.095 442.6591,-591.905 434,-571 418.0974,-532.6077 392.4444,-477.5 434,-477.5"/>
<polygon fill="#000000" stroke="#000000" points="479.9803,-786.8721 469.7175,-783.0089 474.9901,-787.1861 470,-787.5 470,-787.5 470,-787.5 474.9901,-787.1861 470.2825,-791.9911 479.9803,-786.8721 479.9803,-786.8721"/>
<text text-anchor="start" x="476.616" y="-797.5" font-family="Arial" font-size="10.00" fill="#000000">FOREIGN KEY (file_id) REFERENCES files (id)</text>
</g>
<!-- messages_stamps -->
<g id="node2" class="node">
<title>messages_stamps</title>
<polygon fill="#efefef" stroke="transparent" points="255,-1232.5 255,-1267.5 516,-1267.5 516,-1232.5 255,-1232.5"/>
<polygon fill="none" stroke="#000000" points="255,-1232.5 255,-1267.5 516,-1267.5 516,-1232.5 255,-1232.5"/>
<text text-anchor="start" x="261.8581" y="-1245.3" font-family="Arial Bold" font-size="18.00" fill="#000000">messages_stamps</text>
<text text-anchor="start" x="411.8881" y="-1245.3" font-family="Arial" font-size="14.00" fill="#000000"> </text>
<text text-anchor="start" x="415.7787" y="-1245.3" font-family="Arial" font-size="14.00" fill="#666666">[BASE TABLE]</text>
<polygon fill="none" stroke="#000000" points="255,-1202.5 255,-1232.5 516,-1232.5 516,-1202.5 255,-1202.5"/>
<text text-anchor="start" x="262" y="-1213.9" font-family="Arial" font-size="14.00" fill="#000000">message_id </text>
<text text-anchor="start" x="341.3534" y="-1213.9" font-family="Arial" font-size="14.00" fill="#666666">[char(36)]</text>
<polygon fill="none" stroke="#000000" points="255,-1172.5 255,-1202.5 516,-1202.5 516,-1172.5 255,-1172.5"/>
<text text-anchor="start" x="262" y="-1183.9" font-family="Arial" font-size="14.00" fill="#000000">stamp_id </text>
<text text-anchor="start" x="322.6788" y="-1183.9" font-family="Arial" font-size="14.00" fill="#666666">[char(36)]</text>
<polygon fill="none" stroke="#000000" points="255,-1142.5 255,-1172.5 516,-1172.5 516,-1142.5 255,-1142.5"/>
<text text-anchor="start" x="262" y="-1153.9" font-family="Arial" font-size="14.00" fill="#000000">user_id </text>
<text text-anchor="start" x="311.7882" y="-1153.9" font-family="Arial" font-size="14.00" fill="#666666">[char(36)]</text>
<polygon fill="none" stroke="#000000" points="255,-1112.5 255,-1142.5 516,-1142.5 516,-1112.5 255,-1112.5"/>
<text text-anchor="start" x="262" y="-1123.9" font-family="Arial" font-size="14.00" fill="#000000">count </text>
<text text-anchor="start" x="300.129" y="-1123.9" font-family="Arial" font-size="14.00" fill="#666666">[int(11)]</text>
<polygon fill="none" stroke="#000000" points="255,-1082.5 255,-1112.5 516,-1112.5 516,-1082.5 255,-1082.5"/>
<text text-anchor="start" x="262" y="-1093.9" font-family="Arial" font-size="14.00" fill="#000000">created_at </text>
<text text-anchor="start" x="332.028" y="-1093.9" font-family="Arial" font-size="14.00" fill="#666666">[datetime(6)]</text>
<polygon fill="none" stroke="#000000" points="255,-1052.5 255,-1082.5 516,-1082.5 516,-1052.5 255,-1052.5"/>
<text text-anchor="start" x="262" y="-1063.9" font-family="Arial" font-size="14.00" fill="#000000">updated_at </text>
<text text-anchor="start" x="335.9326" y="-1063.9" font-family="Arial" font-size="14.00" fill="#666666">[datetime(6)]</text>
</g>
<!-- messages_stamps&#45;&gt;stamps -->
<g id="edge1" class="edge">
<title>messages_stamps:stamp_id&#45;&gt;stamps:id</title>
<path fill="none" stroke="#000000" d="M244.7471,-1186.9106C118.1097,-1171.9577 165.2502,-877.5 301,-877.5"/>
<polygon fill="#000000" stroke="#000000" points="245.0165,-1186.926 254.7417,-1191.9926 250.0082,-1187.213 255,-1187.5 255,-1187.5 255,-1187.5 250.0082,-1187.213 255.2583,-1183.0074 245.0165,-1186.926 245.0165,-1186.926"/>
<text text-anchor="start" x="7.166" y="-1197.5" font-family="Arial" font-size="10.00" fill="#000000">FOREIGN KEY (stamp_id) REFERENCES stamps (id)</text>
</g>
</g>
</svg>
