<?xml version="1.0" encoding="UTF-8" standalone="no"?>
<!DOCTYPE svg PUBLIC "-//W3C//DTD SVG 1.1//EN"
 "http://www.w3.org/Graphics/SVG/1.1/DTD/svg11.dtd">
<!-- Generated by graphviz version 2.40.1 (20161225.0304)
 -->
<!-- Title: stars Pages: 1 -->
<svg width="669pt" height="742pt"
     viewBox="0.00 0.00 669.00 742.00" xmlns="http://www.w3.org/2000/svg">
<g id="graph0" class="graph" transform="scale(1 1) rotate(0) translate(4 738)">
<title>stars</title>
<polygon fill="#ffffff" stroke="transparent" points="-4,4 -4,-738 665,-738 665,4 -4,4"/>
<!-- stars -->
<g id="node1" class="node">
<title>stars</title>
<polygon fill="#efefef" stroke="transparent" points="240,-652.5 240,-687.5 390,-687.5 390,-652.5 240,-652.5"/>
<polygon fill="none" stroke="#000000" points="240,-652.5 240,-687.5 390,-687.5 390,-652.5 240,-652.5"/>
<text text-anchor="start" x="246.8728" y="-665.3" font-family="Arial Bold" font-size="18.00" fill="#000000">stars</text>
<text text-anchor="start" x="285.8734" y="-665.3" font-family="Arial" font-size="14.00" fill="#000000"> </text>
<text text-anchor="start" x="289.764" y="-665.3" font-family="Arial" font-size="14.00" fill="#666666">[BASE TABLE]</text>
<polygon fill="none" stroke="#000000" points="240,-622.5 240,-652.5 390,-652.5 390,-622.5 240,-622.5"/>
<text text-anchor="start" x="247" y="-633.9" font-family="Arial" font-size="14.00" fill="#000000">user_id </text>
<text text-anchor="start" x="296.7882" y="-633.9" font-family="Arial" font-size="14.00" fill="#666666">[char(36)]</text>
<polygon fill="none" stroke="#000000" points="240,-592.5 240,-622.5 390,-622.5 390,-592.5 240,-592.5"/>
<text text-anchor="start" x="247" y="-603.9" font-family="Arial" font-size="14.00" fill="#000000">channel_id </text>
<text text-anchor="start" x="318.582" y="-603.9" font-family="Arial" font-size="14.00" fill="#666666">[char(36)]</text>
<polygon fill="none" stroke="#000000" stroke-width="3" points="238.5,-591.5 238.5,-689.5 391.5,-689.5 391.5,-591.5 238.5,-591.5"/>
</g>
<!-- users -->
<g id="node2" class="node">
<title>users</title>
<polygon fill="#efefef" stroke="transparent" points="80,-432.5 80,-467.5 263,-467.5 263,-432.5 80,-432.5"/>
<polygon fill="none" stroke="#000000" points="80,-432.5 80,-467.5 263,-467.5 263,-432.5 80,-432.5"/>
<text text-anchor="start" x="100.8708" y="-445.3" font-family="Arial Bold" font-size="18.00" fill="#000000">users</text>
<text text-anchor="start" x="144.8754" y="-445.3" font-family="Arial" font-size="14.00" fill="#000000"> </text>
<text text-anchor="start" x="148.766" y="-445.3" font-family="Arial" font-size="14.00" fill="#666666">[BASE TABLE]</text>
<polygon fill="none" stroke="#000000" points="80,-402.5 80,-432.5 263,-432.5 263,-402.5 80,-402.5"/>
<text text-anchor="start" x="87" y="-413.9" font-family="Arial" font-size="14.00" fill="#000000">id </text>
<text text-anchor="start" x="101.7798" y="-413.9" font-family="Arial" font-size="14.00" fill="#666666">[char(36)]</text>
<polygon fill="none" stroke="#000000" points="80,-372.5 80,-402.5 263,-402.5 263,-372.5 80,-372.5"/>
<text text-anchor="start" x="87" y="-383.9" font-family="Arial" font-size="14.00" fill="#000000">name </text>
<text text-anchor="start" x="125.899" y="-383.9" font-family="Arial" font-size="14.00" fill="#666666">[varchar(32)]</text>
<polygon fill="none" stroke="#000000" points="80,-342.5 80,-372.5 263,-372.5 263,-342.5 80,-342.5"/>
<text text-anchor="start" x="86.7104" y="-353.9" font-family="Arial" font-size="14.00" fill="#000000">display_name </text>
<text text-anchor="start" x="176.953" y="-353.9" font-family="Arial" font-size="14.00" fill="#666666">[varchar(64)]</text>
<polygon fill="none" stroke="#000000" points="80,-312.5 80,-342.5 263,-342.5 263,-312.5 80,-312.5"/>
<text text-anchor="start" x="87" y="-323.9" font-family="Arial" font-size="14.00" fill="#000000">password </text>
<text text-anchor="start" x="150.7882" y="-323.9" font-family="Arial" font-size="14.00" fill="#666666">[char(128)]</text>
<polygon fill="none" stroke="#000000" points="80,-282.5 80,-312.5 263,-312.5 263,-282.5 80,-282.5"/>
<text text-anchor="start" x="87" y="-293.9" font-family="Arial" font-size="14.00" fill="#000000">salt </text>
<text text-anchor="start" x="112.6704" y="-293.9" font-family="Arial" font-size="14.00" fill="#666666">[char(128)]</text>
<polygon fill="none" stroke="#000000" points="80,-252.5 80,-282.5 263,-282.5 263,-252.5 80,-252.5"/>
<text text-anchor="start" x="87" y="-263.9" font-family="Arial" font-size="14.00" fill="#000000">icon </text>
<text text-anchor="start" x="116.5624" y="-263.9" font-family="Arial" font-size="14.00" fill="#666666">[char(36)]</text>
<polygon fill="none" stroke="#000000" points="80,-222.5 80,-252.5 263,-252.5 263,-222.5 80,-222.5"/>
<text text-anchor="start" x="87" y="-233.9" font-family="Arial" font-size="14.00" fill="#000000">status </text>
<text text-anchor="start" x="128.237" y="-233.9" font-family="Arial" font-size="14.00" fill="#666666">[tinyint(4)]</text>
<polygon fill="none" stroke="#000000" points="80,-192.5 80,-222.5 263,-222.5 263,-192.5 80,-192.5"/>
<text text-anchor="start" x="87" y="-203.9" font-family="Arial" font-size="14.00" fill="#000000">bot </text>
<text text-anchor="start" x="110.3464" y="-203.9" font-family="Arial" font-size="14.00" fill="#666666">[tinyint(1)]</text>
<polygon fill="none" stroke="#000000" points="80,-162.5 80,-192.5 263,-192.5 263,-162.5 80,-162.5"/>
<text text-anchor="start" x="87" y="-173.9" font-family="Arial" font-size="14.00" fill="#000000">role </text>
<text text-anchor="start" x="114.223" y="-173.9" font-family="Arial" font-size="14.00" fill="#666666">[varchar(30)]</text>
<polygon fill="none" stroke="#000000" points="80,-132.5 80,-162.5 263,-162.5 263,-132.5 80,-132.5"/>
<text text-anchor="start" x="87" y="-143.9" font-family="Arial" font-size="14.00" fill="#000000">twitter_id </text>
<text text-anchor="start" x="146.8906" y="-143.9" font-family="Arial" font-size="14.00" fill="#666666">[varchar(15)]</text>
<polygon fill="none" stroke="#000000" points="80,-102.5 80,-132.5 263,-132.5 263,-102.5 80,-102.5"/>
<text text-anchor="start" x="87" y="-113.9" font-family="Arial" font-size="14.00" fill="#000000">last_online </text>
<text text-anchor="start" x="157.7966" y="-113.9" font-family="Arial" font-size="14.00" fill="#666666">[datetime(6)]</text>
<polygon fill="none" stroke="#000000" points="80,-72.5 80,-102.5 263,-102.5 263,-72.5 80,-72.5"/>
<text text-anchor="start" x="87" y="-83.9" font-family="Arial" font-size="14.00" fill="#000000">created_at </text>
<text text-anchor="start" x="157.028" y="-83.9" font-family="Arial" font-size="14.00" fill="#666666">[datetime(6)]</text>
<polygon fill="none" stroke="#000000" points="80,-42.5 80,-72.5 263,-72.5 263,-42.5 80,-42.5"/>
<text text-anchor="start" x="87" y="-53.9" font-family="Arial" font-size="14.00" fill="#000000">updated_at </text>
<text text-anchor="start" x="160.9326" y="-53.9" font-family="Arial" font-size="14.00" fill="#666666">[datetime(6)]</text>
</g>
<!-- stars&#45;&gt;users -->
<g id="edge1" class="edge">
<title>stars:user_id&#45;&gt;users:id</title>
<path fill="none" stroke="#000000" d="M229.7941,-635.9625C205.4744,-627.0965 229.8654,-581.6869 240,-547 245.3248,-528.7753 257.6752,-529.2247 263,-511 274.6542,-471.1121 304.5556,-417.5 263,-417.5"/>
<polygon fill="#000000" stroke="#000000" points="230.1116,-636.0102 239.3296,-641.9498 235.0558,-636.7551 240,-637.5 240,-637.5 240,-637.5 235.0558,-636.7551 240.6704,-633.0502 230.1116,-636.0102 230.1116,-636.0102"/>
<text text-anchor="start" x="6.945" y="-647.5" font-family="Arial" font-size="10.00" fill="#000000">FOREIGN KEY (user_id) REFERENCES users (id)</text>
</g>
<!-- channels -->
<g id="node3" class="node">
<title>channels</title>
<polygon fill="#efefef" stroke="transparent" points="367,-417.5 367,-452.5 550,-452.5 550,-417.5 367,-417.5"/>
<polygon fill="none" stroke="#000000" points="367,-417.5 367,-452.5 550,-452.5 550,-417.5 367,-417.5"/>
<text text-anchor="start" x="373.8605" y="-430.3" font-family="Arial Bold" font-size="18.00" fill="#000000">channels</text>
<text text-anchor="start" x="445.8857" y="-430.3" font-family="Arial" font-size="14.00" fill="#000000"> </text>
<text text-anchor="start" x="449.7763" y="-430.3" font-family="Arial" font-size="14.00" fill="#666666">[BASE TABLE]</text>
<polygon fill="none" stroke="#000000" points="367,-387.5 367,-417.5 550,-417.5 550,-387.5 367,-387.5"/>
<text text-anchor="start" x="374" y="-398.9" font-family="Arial" font-size="14.00" fill="#000000">id </text>
<text text-anchor="start" x="388.7798" y="-398.9" font-family="Arial" font-size="14.00" fill="#666666">[char(36)]</text>
<polygon fill="none" stroke="#000000" points="367,-357.5 367,-387.5 550,-387.5 550,-357.5 367,-357.5"/>
<text text-anchor="start" x="374" y="-368.9" font-family="Arial" font-size="14.00" fill="#000000">name </text>
<text text-anchor="start" x="412.899" y="-368.9" font-family="Arial" font-size="14.00" fill="#666666">[varchar(20)]</text>
<polygon fill="none" stroke="#000000" points="367,-327.5 367,-357.5 550,-357.5 550,-327.5 367,-327.5"/>
<text text-anchor="start" x="374" y="-338.9" font-family="Arial" font-size="14.00" fill="#000000">parent_id </text>
<text text-anchor="start" x="436.244" y="-338.9" font-family="Arial" font-size="14.00" fill="#666666">[char(36)]</text>
<polygon fill="none" stroke="#000000" points="367,-297.5 367,-327.5 550,-327.5 550,-297.5 367,-297.5"/>
<text text-anchor="start" x="374" y="-308.9" font-family="Arial" font-size="14.00" fill="#000000">topic </text>
<text text-anchor="start" x="407.453" y="-308.9" font-family="Arial" font-size="14.00" fill="#666666">[text]</text>
<polygon fill="none" stroke="#000000" points="367,-267.5 367,-297.5 550,-297.5 550,-267.5 367,-267.5"/>
<text text-anchor="start" x="374" y="-278.9" font-family="Arial" font-size="14.00" fill="#000000">is_forced </text>
<text text-anchor="start" x="434.6788" y="-278.9" font-family="Arial" font-size="14.00" fill="#666666">[tinyint(1)]</text>
<polygon fill="none" stroke="#000000" points="367,-237.5 367,-267.5 550,-267.5 550,-237.5 367,-237.5"/>
<text text-anchor="start" x="374" y="-248.9" font-family="Arial" font-size="14.00" fill="#000000">is_public </text>
<text text-anchor="start" x="432.3408" y="-248.9" font-family="Arial" font-size="14.00" fill="#666666">[tinyint(1)]</text>
<polygon fill="none" stroke="#000000" points="367,-207.5 367,-237.5 550,-237.5 550,-207.5 367,-207.5"/>
<text text-anchor="start" x="374" y="-218.9" font-family="Arial" font-size="14.00" fill="#000000">is_visible </text>
<text text-anchor="start" x="434.6648" y="-218.9" font-family="Arial" font-size="14.00" fill="#666666">[tinyint(1)]</text>
<polygon fill="none" stroke="#000000" points="367,-177.5 367,-207.5 550,-207.5 550,-177.5 367,-177.5"/>
<text text-anchor="start" x="374" y="-188.9" font-family="Arial" font-size="14.00" fill="#000000">creator_id </text>
<text text-anchor="start" x="440.122" y="-188.9" font-family="Arial" font-size="14.00" fill="#666666">[char(36)]</text>
<polygon fill="none" stroke="#000000" points="367,-147.5 367,-177.5 550,-177.5 550,-147.5 367,-147.5"/>
<text text-anchor="start" x="374" y="-158.9" font-family="Arial" font-size="14.00" fill="#000000">updater_id </text>
<text text-anchor="start" x="444.0266" y="-158.9" font-family="Arial" font-size="14.00" fill="#666666">[char(36)]</text>
<polygon fill="none" stroke="#000000" points="367,-117.5 367,-147.5 550,-147.5 550,-117.5 367,-117.5"/>
<text text-anchor="start" x="374" y="-128.9" font-family="Arial" font-size="14.00" fill="#000000">created_at </text>
<text text-anchor="start" x="444.028" y="-128.9" font-family="Arial" font-size="14.00" fill="#666666">[datetime(6)]</text>
<polygon fill="none" stroke="#000000" points="367,-87.5 367,-117.5 550,-117.5 550,-87.5 367,-87.5"/>
<text text-anchor="start" x="374" y="-98.9" font-family="Arial" font-size="14.00" fill="#000000">updated_at </text>
<text text-anchor="start" x="447.9326" y="-98.9" font-family="Arial" font-size="14.00" fill="#666666">[datetime(6)]</text>
<polygon fill="none" stroke="#000000" points="367,-57.5 367,-87.5 550,-87.5 550,-57.5 367,-57.5"/>
<text text-anchor="start" x="374" y="-68.9" font-family="Arial" font-size="14.00" fill="#000000">deleted_at </text>
<text text-anchor="start" x="443.2566" y="-68.9" font-family="Arial" font-size="14.00" fill="#666666">[datetime(6)]</text>
</g>
<!-- stars&#45;&gt;channels -->
<g id="edge2" class="edge">
<title>stars:channel_id&#45;&gt;channels:id</title>
<path fill="none" stroke="#000000" d="M399.9231,-604.682C410.0495,-595.9737 394.6818,-568.7696 390,-547 384.772,-522.6907 372.228,-520.3093 367,-496 358.2628,-455.3733 325.4444,-402.5 367,-402.5"/>
<polygon fill="#000000" stroke="#000000" points="399.6196,-604.7681 388.7706,-603.1712 394.8098,-606.134 390,-607.5 390,-607.5 390,-607.5 394.8098,-606.134 391.2294,-611.8288 399.6196,-604.7681 399.6196,-604.7681"/>
<text text-anchor="start" x="397.378" y="-617.5" font-family="Arial" font-size="10.00" fill="#000000">FOREIGN KEY (channel_id) REFERENCES channels (id)</text>
</g>
</g>
</svg>
