<?xml version="1.0" encoding="UTF-8" standalone="no"?>
<!DOCTYPE svg PUBLIC "-//W3C//DTD SVG 1.1//EN"
        "http://www.w3.org/Graphics/SVG/1.1/DTD/svg11.dtd">
<!-- Generated by graphviz version 2.40.1 (20161225.0304)
 -->
<!-- Title: stars Pages: 1 -->
<svg width="671pt" height="740pt"
     viewBox="0.00 0.00 671.00 740.00" xmlns="http://www.w3.org/2000/svg">
    <g id="graph0" class="graph" transform="scale(1 1) rotate(0) translate(4 736)">
        <title>stars</title>
        <polygon fill="#ffffff" stroke="transparent" points="-4,4 -4,-736 667,-736 667,4 -4,4"/>
        <!-- stars -->
        <g id="node1" class="node">
            <title>stars</title>
            <polygon fill="#efefef" stroke="transparent" points="239,-652 239,-686 392,-686 392,-652 239,-652"/>
            <polygon fill="none" stroke="#000000" points="239,-652 239,-686 392,-686 392,-652 239,-652"/>
            <text text-anchor="start" x="245.9995" y="-665.6" font-family="Arial Bold" font-size="18.00" fill="#000000">
                stars
            </text>
            <text text-anchor="start" x="289.0308" y="-665.6" font-family="Arial" font-size="14.00"
                  fill="#000000"></text>
            <text text-anchor="start" x="292.9204" y="-665.6" font-family="Arial" font-size="14.00" fill="#666666">[BASE
                TABLE]
            </text>
            <polygon fill="none" stroke="#000000" points="239,-622 239,-652 392,-652 392,-622 239,-622"/>
            <text text-anchor="start" x="246" y="-634.8" font-family="Arial" font-size="14.00" fill="#000000">user_id
            </text>
            <text text-anchor="start" x="295.8066" y="-634.8" font-family="Arial" font-size="14.00" fill="#666666">
                [char(36)]
            </text>
            <polygon fill="none" stroke="#000000" points="239,-592 239,-622 392,-622 392,-592 239,-592"/>
            <text text-anchor="start" x="246" y="-604.8" font-family="Arial" font-size="14.00" fill="#000000">
                channel_id
            </text>
            <text text-anchor="start" x="317.6133" y="-604.8" font-family="Arial" font-size="14.00" fill="#666666">
                [char(36)]
            </text>
            <polygon fill="none" stroke="#000000" stroke-width="3"
                     points="237,-590.5 237,-687.5 393,-687.5 393,-590.5 237,-590.5"/>
        </g>
        <!-- users -->
        <g id="node2" class="node">
            <title>users</title>
            <polygon fill="#efefef" stroke="transparent" points="80,-433 80,-467 263,-467 263,-433 80,-433"/>
            <polygon fill="none" stroke="#000000" points="80,-433 80,-467 263,-467 263,-433 80,-433"/>
            <text text-anchor="start" x="99.499" y="-446.6" font-family="Arial Bold" font-size="18.00" fill="#000000">
                users
            </text>
            <text text-anchor="start" x="147.5313" y="-446.6" font-family="Arial" font-size="14.00"
                  fill="#000000"></text>
            <text text-anchor="start" x="151.4209" y="-446.6" font-family="Arial" font-size="14.00" fill="#666666">[BASE
                TABLE]
            </text>
            <polygon fill="none" stroke="#000000" points="80,-403 80,-433 263,-433 263,-403 80,-403"/>
            <text text-anchor="start" x="87" y="-415.8" font-family="Arial" font-size="14.00" fill="#000000">id</text>
            <text text-anchor="start" x="101.7861" y="-415.8" font-family="Arial" font-size="14.00" fill="#666666">
                [char(36)]
            </text>
            <polygon fill="none" stroke="#000000" points="80,-373 80,-403 263,-403 263,-373 80,-373"/>
            <text text-anchor="start" x="87" y="-385.8" font-family="Arial" font-size="14.00" fill="#000000">name</text>
            <text text-anchor="start" x="125.9102" y="-385.8" font-family="Arial" font-size="14.00" fill="#666666">
                [varchar(32)]
            </text>
            <polygon fill="none" stroke="#000000" points="80,-343 80,-373 263,-373 263,-343 80,-343"/>
            <text text-anchor="start" x="86.6831" y="-355.8" font-family="Arial" font-size="14.00" fill="#000000">
                display_name
            </text>
            <text text-anchor="start" x="176.9585" y="-355.8" font-family="Arial" font-size="14.00" fill="#666666">
                [varchar(64)]
            </text>
            <polygon fill="none" stroke="#000000" points="80,-313 80,-343 263,-343 263,-313 80,-313"/>
            <text text-anchor="start" x="87" y="-325.8" font-family="Arial" font-size="14.00" fill="#000000">password
            </text>
            <text text-anchor="start" x="150.8066" y="-325.8" font-family="Arial" font-size="14.00" fill="#666666">
                [char(128)]
            </text>
            <polygon fill="none" stroke="#000000" points="80,-283 80,-313 263,-313 263,-283 80,-283"/>
            <text text-anchor="start" x="87" y="-295.8" font-family="Arial" font-size="14.00" fill="#000000">salt</text>
            <text text-anchor="start" x="112.6758" y="-295.8" font-family="Arial" font-size="14.00" fill="#666666">
                [char(128)]
            </text>
            <polygon fill="none" stroke="#000000" points="80,-253 80,-283 263,-283 263,-253 80,-253"/>
            <text text-anchor="start" x="87" y="-265.8" font-family="Arial" font-size="14.00" fill="#000000">icon</text>
            <text text-anchor="start" x="116.5723" y="-265.8" font-family="Arial" font-size="14.00" fill="#666666">
                [char(36)]
            </text>
            <polygon fill="none" stroke="#000000" points="80,-223 80,-253 263,-253 263,-223 80,-223"/>
            <text text-anchor="start" x="87" y="-235.8" font-family="Arial" font-size="14.00" fill="#000000">status
            </text>
            <text text-anchor="start" x="128.2412" y="-235.8" font-family="Arial" font-size="14.00" fill="#666666">
                [tinyint(4)]
            </text>
            <polygon fill="none" stroke="#000000" points="80,-193 80,-223 263,-223 263,-193 80,-193"/>
            <text text-anchor="start" x="87" y="-205.8" font-family="Arial" font-size="14.00" fill="#000000">bot</text>
            <text text-anchor="start" x="110.3516" y="-205.8" font-family="Arial" font-size="14.00" fill="#666666">
                [tinyint(1)]
            </text>
            <polygon fill="none" stroke="#000000" points="80,-163 80,-193 263,-193 263,-163 80,-163"/>
            <text text-anchor="start" x="87" y="-175.8" font-family="Arial" font-size="14.00" fill="#000000">role</text>
            <text text-anchor="start" x="114.2344" y="-175.8" font-family="Arial" font-size="14.00" fill="#666666">
                [varchar(30)]
            </text>
            <polygon fill="none" stroke="#000000" points="80,-133 80,-163 263,-163 263,-133 80,-133"/>
            <text text-anchor="start" x="87" y="-145.8" font-family="Arial" font-size="14.00" fill="#000000">
                twitter_id
            </text>
            <text text-anchor="start" x="146.9102" y="-145.8" font-family="Arial" font-size="14.00" fill="#666666">
                [varchar(15)]
            </text>
            <polygon fill="none" stroke="#000000" points="80,-103 80,-133 263,-133 263,-103 80,-103"/>
            <text text-anchor="start" x="87" y="-115.8" font-family="Arial" font-size="14.00" fill="#000000">
                last_online
            </text>
            <text text-anchor="start" x="157.8271" y="-115.8" font-family="Arial" font-size="14.00" fill="#666666">
                [timestamp(6)]
            </text>
            <polygon fill="none" stroke="#000000" points="80,-73 80,-103 263,-103 263,-73 80,-73"/>
            <text text-anchor="start" x="87" y="-85.8" font-family="Arial" font-size="14.00" fill="#000000">created_at
            </text>
            <text text-anchor="start" x="157.0479" y="-85.8" font-family="Arial" font-size="14.00" fill="#666666">
                [timestamp(6)]
            </text>
            <polygon fill="none" stroke="#000000" points="80,-43 80,-73 263,-73 263,-43 80,-43"/>
            <text text-anchor="start" x="87" y="-55.8" font-family="Arial" font-size="14.00" fill="#000000">updated_at
            </text>
            <text text-anchor="start" x="160.958" y="-55.8" font-family="Arial" font-size="14.00" fill="#666666">
                [timestamp(6)]
            </text>
        </g>
        <!-- stars&#45;&gt;users -->
        <g id="edge1" class="edge">
            <title>stars:user_id&#45;&gt;users:id</title>
            <path fill="none" stroke="#000000"
                  d="M229.0497,-635.5653C204.0036,-626.9165 228.4244,-580.9289 239,-546 244.5724,-527.5955 257.4276,-528.4045 263,-510 274.849,-470.8656 303.8889,-418 263,-418"/>
            <polygon fill="#000000" stroke="#000000"
                     points="229.1024,-635.5728 238.3578,-641.4539 234.0512,-636.2864 239,-637 239,-637 239,-637 234.0512,-636.2864 239.6422,-632.5461 229.1024,-635.5728 229.1024,-635.5728"/>
            <text text-anchor="start" x="7.0117" y="-646.5" font-family="Arial" font-size="10.00" fill="#000000">FOREIGN
                KEY (user_id) REFERENCES users (id)
            </text>
        </g>
        <!-- channels -->
        <g id="node3" class="node">
            <title>channels</title>
            <polygon fill="#efefef" stroke="transparent" points="367,-418 367,-452 554,-452 554,-418 367,-418"/>
            <polygon fill="none" stroke="#000000" points="367,-418 367,-452 554,-452 554,-418 367,-418"/>
            <text text-anchor="start" x="373.5005" y="-431.6" font-family="Arial Bold" font-size="18.00" fill="#000000">
                channels
            </text>
            <text text-anchor="start" x="451.5298" y="-431.6" font-family="Arial" font-size="14.00"
                  fill="#000000"></text>
            <text text-anchor="start" x="455.4194" y="-431.6" font-family="Arial" font-size="14.00" fill="#666666">[BASE
                TABLE]
            </text>
            <polygon fill="none" stroke="#000000" points="367,-388 367,-418 554,-418 554,-388 367,-388"/>
            <text text-anchor="start" x="374" y="-400.8" font-family="Arial" font-size="14.00" fill="#000000">id</text>
            <text text-anchor="start" x="388.7861" y="-400.8" font-family="Arial" font-size="14.00" fill="#666666">
                [char(36)]
            </text>
            <polygon fill="none" stroke="#000000" points="367,-358 367,-388 554,-388 554,-358 367,-358"/>
            <text text-anchor="start" x="374" y="-370.8" font-family="Arial" font-size="14.00" fill="#000000">name
            </text>
            <text text-anchor="start" x="412.9102" y="-370.8" font-family="Arial" font-size="14.00" fill="#666666">
                [varchar(20)]
            </text>
            <polygon fill="none" stroke="#000000" points="367,-328 367,-358 554,-358 554,-328 367,-328"/>
            <text text-anchor="start" x="374" y="-340.8" font-family="Arial" font-size="14.00" fill="#000000">
                parent_id
            </text>
            <text text-anchor="start" x="436.2686" y="-340.8" font-family="Arial" font-size="14.00" fill="#666666">
                [char(36)]
            </text>
            <polygon fill="none" stroke="#000000" points="367,-298 367,-328 554,-328 554,-298 367,-298"/>
            <text text-anchor="start" x="374" y="-310.8" font-family="Arial" font-size="14.00" fill="#000000">topic
            </text>
            <text text-anchor="start" x="407.4619" y="-310.8" font-family="Arial" font-size="14.00" fill="#666666">
                [text]
            </text>
            <polygon fill="none" stroke="#000000" points="367,-268 367,-298 554,-298 554,-268 367,-268"/>
            <text text-anchor="start" x="374" y="-280.8" font-family="Arial" font-size="14.00" fill="#000000">
                is_forced
            </text>
            <text text-anchor="start" x="434.6963" y="-280.8" font-family="Arial" font-size="14.00" fill="#666666">
                [tinyint(1)]
            </text>
            <polygon fill="none" stroke="#000000" points="367,-238 367,-268 554,-268 554,-238 367,-238"/>
            <text text-anchor="start" x="374" y="-250.8" font-family="Arial" font-size="14.00" fill="#000000">
                is_public
            </text>
            <text text-anchor="start" x="432.3652" y="-250.8" font-family="Arial" font-size="14.00" fill="#666666">
                [tinyint(1)]
            </text>
            <polygon fill="none" stroke="#000000" points="367,-208 367,-238 554,-238 554,-208 367,-208"/>
            <text text-anchor="start" x="374" y="-220.8" font-family="Arial" font-size="14.00" fill="#000000">
                is_visible
            </text>
            <text text-anchor="start" x="434.6895" y="-220.8" font-family="Arial" font-size="14.00" fill="#666666">
                [tinyint(1)]
            </text>
            <polygon fill="none" stroke="#000000" points="367,-178 367,-208 554,-208 554,-178 367,-178"/>
            <text text-anchor="start" x="374" y="-190.8" font-family="Arial" font-size="14.00" fill="#000000">
                creator_id
            </text>
            <text text-anchor="start" x="440.1445" y="-190.8" font-family="Arial" font-size="14.00" fill="#666666">
                [char(36)]
            </text>
            <polygon fill="none" stroke="#000000" points="367,-148 367,-178 554,-178 554,-148 367,-148"/>
            <text text-anchor="start" x="374" y="-160.8" font-family="Arial" font-size="14.00" fill="#000000">
                updater_id
            </text>
            <text text-anchor="start" x="444.0547" y="-160.8" font-family="Arial" font-size="14.00" fill="#666666">
                [char(36)]
            </text>
            <polygon fill="none" stroke="#000000" points="367,-118 367,-148 554,-148 554,-118 367,-118"/>
            <text text-anchor="start" x="374" y="-130.8" font-family="Arial" font-size="14.00" fill="#000000">
                created_at
            </text>
            <text text-anchor="start" x="444.0479" y="-130.8" font-family="Arial" font-size="14.00" fill="#666666">
                [timestamp(6)]
            </text>
            <polygon fill="none" stroke="#000000" points="367,-88 367,-118 554,-118 554,-88 367,-88"/>
            <text text-anchor="start" x="374" y="-100.8" font-family="Arial" font-size="14.00" fill="#000000">
                updated_at
            </text>
            <text text-anchor="start" x="447.958" y="-100.8" font-family="Arial" font-size="14.00" fill="#666666">
                [timestamp(6)]
            </text>
            <polygon fill="none" stroke="#000000" points="367,-58 367,-88 554,-88 554,-58 367,-58"/>
            <text text-anchor="start" x="374" y="-70.8" font-family="Arial" font-size="14.00" fill="#000000">
                deleted_at
            </text>
            <text text-anchor="start" x="443.2822" y="-70.8" font-family="Arial" font-size="14.00" fill="#666666">
                [timestamp(6)]
            </text>
        </g>
        <!-- stars&#45;&gt;channels -->
        <g id="edge2" class="edge">
            <title>stars:channel_id&#45;&gt;channels:id</title>
            <path fill="none" stroke="#000000"
                  d="M401.7379,-604.3958C412.625,-595.8704 397.1201,-568.0773 392,-546 386.297,-521.4091 372.703,-519.5909 367,-495 357.7624,-455.1683 326.1111,-403 367,-403"/>
            <polygon fill="#000000" stroke="#000000"
                     points="401.6605,-604.4164 390.8374,-602.6528 396.8303,-605.7082 392,-607 392,-607 392,-607 396.8303,-605.7082 393.1626,-611.3472 401.6605,-604.4164 401.6605,-604.4164"/>
            <text text-anchor="start" x="399.4355" y="-616.5" font-family="Arial" font-size="10.00" fill="#000000">
                FOREIGN KEY (channel_id) REFERENCES channels (id)
            </text>
        </g>
    </g>
</svg>
