<?xml version="1.0" encoding="UTF-8" standalone="no"?>
<!DOCTYPE svg PUBLIC "-//W3C//DTD SVG 1.1//EN"
 "http://www.w3.org/Graphics/SVG/1.1/DTD/svg11.dtd">
<!-- Generated by graphviz version 2.40.1 (20161225.0304)
 -->
<!-- Title: stars Pages: 1 -->
<svg width="669pt" height="712pt"
 viewBox="0.00 0.00 669.00 712.00" xmlns="http://www.w3.org/2000/svg" xmlns:xlink="http://www.w3.org/1999/xlink">
<g id="graph0" class="graph" transform="scale(1 1) rotate(0) translate(4 708)">
<title>stars</title>
<polygon fill="#ffffff" stroke="transparent" points="-4,4 -4,-708 665,-708 665,4 -4,4"/>
<!-- stars -->
<g id="node1" class="node">
<title>stars</title>
<polygon fill="#efefef" stroke="transparent" points="240,-622.5 240,-657.5 390,-657.5 390,-622.5 240,-622.5"/>
<polygon fill="none" stroke="#000000" points="240,-622.5 240,-657.5 390,-657.5 390,-622.5 240,-622.5"/>
<text text-anchor="start" x="246.8728" y="-635.3" font-family="Arial Bold" font-size="18.00" fill="#000000">stars</text>
<text text-anchor="start" x="285.8734" y="-635.3" font-family="Arial" font-size="14.00" fill="#000000"> </text>
<text text-anchor="start" x="289.764" y="-635.3" font-family="Arial" font-size="14.00" fill="#666666">[BASE TABLE]</text>
<polygon fill="none" stroke="#000000" points="240,-592.5 240,-622.5 390,-622.5 390,-592.5 240,-592.5"/>
<text text-anchor="start" x="247" y="-603.9" font-family="Arial" font-size="14.00" fill="#000000">user_id </text>
<text text-anchor="start" x="296.7882" y="-603.9" font-family="Arial" font-size="14.00" fill="#666666">[char(36)]</text>
<polygon fill="none" stroke="#000000" points="240,-562.5 240,-592.5 390,-592.5 390,-562.5 240,-562.5"/>
<text text-anchor="start" x="247" y="-573.9" font-family="Arial" font-size="14.00" fill="#000000">channel_id </text>
<text text-anchor="start" x="318.582" y="-573.9" font-family="Arial" font-size="14.00" fill="#666666">[char(36)]</text>
<polygon fill="none" stroke="#000000" stroke-width="3" points="238.5,-561.5 238.5,-659.5 391.5,-659.5 391.5,-561.5 238.5,-561.5"/>
</g>
<!-- users -->
<g id="node2" class="node">
<title>users</title>
<polygon fill="#efefef" stroke="transparent" points="80,-387.5 80,-422.5 263,-422.5 263,-387.5 80,-387.5"/>
<polygon fill="none" stroke="#000000" points="80,-387.5 80,-422.5 263,-422.5 263,-387.5 80,-387.5"/>
<text text-anchor="start" x="100.8708" y="-400.3" font-family="Arial Bold" font-size="18.00" fill="#000000">users</text>
<text text-anchor="start" x="144.8754" y="-400.3" font-family="Arial" font-size="14.00" fill="#000000"> </text>
<text text-anchor="start" x="148.766" y="-400.3" font-family="Arial" font-size="14.00" fill="#666666">[BASE TABLE]</text>
<polygon fill="none" stroke="#000000" points="80,-357.5 80,-387.5 263,-387.5 263,-357.5 80,-357.5"/>
<text text-anchor="start" x="87" y="-368.9" font-family="Arial" font-size="14.00" fill="#000000">id </text>
<text text-anchor="start" x="101.7798" y="-368.9" font-family="Arial" font-size="14.00" fill="#666666">[char(36)]</text>
<polygon fill="none" stroke="#000000" points="80,-327.5 80,-357.5 263,-357.5 263,-327.5 80,-327.5"/>
<text text-anchor="start" x="87" y="-338.9" font-family="Arial" font-size="14.00" fill="#000000">name </text>
<text text-anchor="start" x="125.899" y="-338.9" font-family="Arial" font-size="14.00" fill="#666666">[varchar(32)]</text>
<polygon fill="none" stroke="#000000" points="80,-297.5 80,-327.5 263,-327.5 263,-297.5 80,-297.5"/>
<text text-anchor="start" x="86.7104" y="-308.9" font-family="Arial" font-size="14.00" fill="#000000">display_name </text>
<text text-anchor="start" x="176.953" y="-308.9" font-family="Arial" font-size="14.00" fill="#666666">[varchar(64)]</text>
<polygon fill="none" stroke="#000000" points="80,-267.5 80,-297.5 263,-297.5 263,-267.5 80,-267.5"/>
<text text-anchor="start" x="87" y="-278.9" font-family="Arial" font-size="14.00" fill="#000000">password </text>
<text text-anchor="start" x="150.7882" y="-278.9" font-family="Arial" font-size="14.00" fill="#666666">[char(128)]</text>
<polygon fill="none" stroke="#000000" points="80,-237.5 80,-267.5 263,-267.5 263,-237.5 80,-237.5"/>
<text text-anchor="start" x="87" y="-248.9" font-family="Arial" font-size="14.00" fill="#000000">salt </text>
<text text-anchor="start" x="112.6704" y="-248.9" font-family="Arial" font-size="14.00" fill="#666666">[char(128)]</text>
<polygon fill="none" stroke="#000000" points="80,-207.5 80,-237.5 263,-237.5 263,-207.5 80,-207.5"/>
<text text-anchor="start" x="87" y="-218.9" font-family="Arial" font-size="14.00" fill="#000000">icon </text>
<text text-anchor="start" x="116.5624" y="-218.9" font-family="Arial" font-size="14.00" fill="#666666">[char(36)]</text>
<polygon fill="none" stroke="#000000" points="80,-177.5 80,-207.5 263,-207.5 263,-177.5 80,-177.5"/>
<text text-anchor="start" x="87" y="-188.9" font-family="Arial" font-size="14.00" fill="#000000">status </text>
<text text-anchor="start" x="128.237" y="-188.9" font-family="Arial" font-size="14.00" fill="#666666">[tinyint(4)]</text>
<polygon fill="none" stroke="#000000" points="80,-147.5 80,-177.5 263,-177.5 263,-147.5 80,-147.5"/>
<text text-anchor="start" x="87" y="-158.9" font-family="Arial" font-size="14.00" fill="#000000">bot </text>
<text text-anchor="start" x="110.3464" y="-158.9" font-family="Arial" font-size="14.00" fill="#666666">[tinyint(1)]</text>
<polygon fill="none" stroke="#000000" points="80,-117.5 80,-147.5 263,-147.5 263,-117.5 80,-117.5"/>
<text text-anchor="start" x="87" y="-128.9" font-family="Arial" font-size="14.00" fill="#000000">role </text>
<text text-anchor="start" x="114.223" y="-128.9" font-family="Arial" font-size="14.00" fill="#666666">[varchar(30)]</text>
<polygon fill="none" stroke="#000000" points="80,-87.5 80,-117.5 263,-117.5 263,-87.5 80,-87.5"/>
<text text-anchor="start" x="87" y="-98.9" font-family="Arial" font-size="14.00" fill="#000000">created_at </text>
<text text-anchor="start" x="157.028" y="-98.9" font-family="Arial" font-size="14.00" fill="#666666">[datetime(6)]</text>
<polygon fill="none" stroke="#000000" points="80,-57.5 80,-87.5 263,-87.5 263,-57.5 80,-57.5"/>
<text text-anchor="start" x="87" y="-68.9" font-family="Arial" font-size="14.00" fill="#000000">updated_at </text>
<text text-anchor="start" x="160.9326" y="-68.9" font-family="Arial" font-size="14.00" fill="#666666">[datetime(6)]</text>
</g>
<!-- stars&#45;&gt;users -->
<g id="edge1" class="edge">
<title>stars:user_id&#45;&gt;users:id</title>
<path fill="none" stroke="#000000" d="M229.678,-606.5532C151.8759,-590.3822 364.0491,-372.5 263,-372.5"/>
<polygon fill="#000000" stroke="#000000" points="230.0418,-606.5864 239.5889,-611.9812 235.0209,-607.0432 240,-607.5 240,-607.5 240,-607.5 235.0209,-607.0432 240.4111,-603.0188 230.0418,-606.5864 230.0418,-606.5864"/>
<text text-anchor="start" x="6.945" y="-617.5" font-family="Arial" font-size="10.00" fill="#000000">FOREIGN KEY (user_id) REFERENCES users (id)</text>
</g>
<!-- channels -->
<g id="node3" class="node">
<title>channels</title>
<polygon fill="#efefef" stroke="transparent" points="367,-402.5 367,-437.5 550,-437.5 550,-402.5 367,-402.5"/>
<polygon fill="none" stroke="#000000" points="367,-402.5 367,-437.5 550,-437.5 550,-402.5 367,-402.5"/>
<text text-anchor="start" x="373.8605" y="-415.3" font-family="Arial Bold" font-size="18.00" fill="#000000">channels</text>
<text text-anchor="start" x="445.8857" y="-415.3" font-family="Arial" font-size="14.00" fill="#000000"> </text>
<text text-anchor="start" x="449.7763" y="-415.3" font-family="Arial" font-size="14.00" fill="#666666">[BASE TABLE]</text>
<polygon fill="none" stroke="#000000" points="367,-372.5 367,-402.5 550,-402.5 550,-372.5 367,-372.5"/>
<text text-anchor="start" x="374" y="-383.9" font-family="Arial" font-size="14.00" fill="#000000">id </text>
<text text-anchor="start" x="388.7798" y="-383.9" font-family="Arial" font-size="14.00" fill="#666666">[char(36)]</text>
<polygon fill="none" stroke="#000000" points="367,-342.5 367,-372.5 550,-372.5 550,-342.5 367,-342.5"/>
<text text-anchor="start" x="374" y="-353.9" font-family="Arial" font-size="14.00" fill="#000000">name </text>
<text text-anchor="start" x="412.899" y="-353.9" font-family="Arial" font-size="14.00" fill="#666666">[varchar(20)]</text>
<polygon fill="none" stroke="#000000" points="367,-312.5 367,-342.5 550,-342.5 550,-312.5 367,-312.5"/>
<text text-anchor="start" x="374" y="-323.9" font-family="Arial" font-size="14.00" fill="#000000">parent_id </text>
<text text-anchor="start" x="436.244" y="-323.9" font-family="Arial" font-size="14.00" fill="#666666">[char(36)]</text>
<polygon fill="none" stroke="#000000" points="367,-282.5 367,-312.5 550,-312.5 550,-282.5 367,-282.5"/>
<text text-anchor="start" x="374" y="-293.9" font-family="Arial" font-size="14.00" fill="#000000">topic </text>
<text text-anchor="start" x="407.453" y="-293.9" font-family="Arial" font-size="14.00" fill="#666666">[text]</text>
<polygon fill="none" stroke="#000000" points="367,-252.5 367,-282.5 550,-282.5 550,-252.5 367,-252.5"/>
<text text-anchor="start" x="374" y="-263.9" font-family="Arial" font-size="14.00" fill="#000000">is_forced </text>
<text text-anchor="start" x="434.6788" y="-263.9" font-family="Arial" font-size="14.00" fill="#666666">[tinyint(1)]</text>
<polygon fill="none" stroke="#000000" points="367,-222.5 367,-252.5 550,-252.5 550,-222.5 367,-222.5"/>
<text text-anchor="start" x="374" y="-233.9" font-family="Arial" font-size="14.00" fill="#000000">is_public </text>
<text text-anchor="start" x="432.3408" y="-233.9" font-family="Arial" font-size="14.00" fill="#666666">[tinyint(1)]</text>
<polygon fill="none" stroke="#000000" points="367,-192.5 367,-222.5 550,-222.5 550,-192.5 367,-192.5"/>
<text text-anchor="start" x="374" y="-203.9" font-family="Arial" font-size="14.00" fill="#000000">is_visible </text>
<text text-anchor="start" x="434.6648" y="-203.9" font-family="Arial" font-size="14.00" fill="#666666">[tinyint(1)]</text>
<polygon fill="none" stroke="#000000" points="367,-162.5 367,-192.5 550,-192.5 550,-162.5 367,-162.5"/>
<text text-anchor="start" x="374" y="-173.9" font-family="Arial" font-size="14.00" fill="#000000">creator_id </text>
<text text-anchor="start" x="440.122" y="-173.9" font-family="Arial" font-size="14.00" fill="#666666">[char(36)]</text>
<polygon fill="none" stroke="#000000" points="367,-132.5 367,-162.5 550,-162.5 550,-132.5 367,-132.5"/>
<text text-anchor="start" x="374" y="-143.9" font-family="Arial" font-size="14.00" fill="#000000">updater_id </text>
<text text-anchor="start" x="444.0266" y="-143.9" font-family="Arial" font-size="14.00" fill="#666666">[char(36)]</text>
<polygon fill="none" stroke="#000000" points="367,-102.5 367,-132.5 550,-132.5 550,-102.5 367,-102.5"/>
<text text-anchor="start" x="374" y="-113.9" font-family="Arial" font-size="14.00" fill="#000000">created_at </text>
<text text-anchor="start" x="444.028" y="-113.9" font-family="Arial" font-size="14.00" fill="#666666">[datetime(6)]</text>
<polygon fill="none" stroke="#000000" points="367,-72.5 367,-102.5 550,-102.5 550,-72.5 367,-72.5"/>
<text text-anchor="start" x="374" y="-83.9" font-family="Arial" font-size="14.00" fill="#000000">updated_at </text>
<text text-anchor="start" x="447.9326" y="-83.9" font-family="Arial" font-size="14.00" fill="#666666">[datetime(6)]</text>
<polygon fill="none" stroke="#000000" points="367,-42.5 367,-72.5 550,-72.5 550,-42.5 367,-42.5"/>
<text text-anchor="start" x="374" y="-53.9" font-family="Arial" font-size="14.00" fill="#000000">deleted_at </text>
<text text-anchor="start" x="443.2566" y="-53.9" font-family="Arial" font-size="14.00" fill="#666666">[datetime(6)]</text>
</g>
<!-- stars&#45;&gt;channels -->
<g id="edge2" class="edge">
<title>stars:channel_id&#45;&gt;channels:id</title>
<path fill="none" stroke="#000000" d="M399.7571,-574.8912C410.8582,-566.3563 396.3038,-538.5754 390,-517 384.6752,-498.7753 372.3248,-499.2247 367,-481 355.3458,-441.1121 325.4444,-387.5 367,-387.5"/>
<polygon fill="#000000" stroke="#000000" points="399.6606,-574.9169 388.8376,-573.1527 394.8303,-576.2085 390,-577.5 390,-577.5 390,-577.5 394.8303,-576.2085 391.1624,-581.8473 399.6606,-574.9169 399.6606,-574.9169"/>
<text text-anchor="start" x="397.378" y="-587.5" font-family="Arial" font-size="10.00" fill="#000000">FOREIGN KEY (channel_id) REFERENCES channels (id)</text>
</g>
</g>
</svg>
