<?xml version="1.0" encoding="UTF-8" standalone="no"?>
<!DOCTYPE svg PUBLIC "-//W3C//DTD SVG 1.1//EN"
 "http://www.w3.org/Graphics/SVG/1.1/DTD/svg11.dtd">
<!-- Generated by graphviz version 2.40.1 (20161225.0304)
 -->
<!-- Title: tags Pages: 1 -->
<svg width="480pt" height="562pt"
 viewBox="0.00 0.00 479.50 562.00" xmlns="http://www.w3.org/2000/svg" xmlns:xlink="http://www.w3.org/1999/xlink">
<g id="graph0" class="graph" transform="scale(1 1) rotate(0) translate(4 558)">
<title>tags</title>
<polygon fill="#ffffff" stroke="transparent" points="-4,4 -4,-558 475.5,-558 475.5,4 -4,4"/>
<!-- tags -->
<g id="node1" class="node">
<title>tags</title>
<polygon fill="#efefef" stroke="transparent" points="60.5,-165.5 60.5,-200.5 226.5,-200.5 226.5,-165.5 60.5,-165.5"/>
<polygon fill="none" stroke="#000000" points="60.5,-165.5 60.5,-200.5 226.5,-200.5 226.5,-165.5 60.5,-165.5"/>
<text text-anchor="start" x="77.8658" y="-178.3" font-family="Arial Bold" font-size="18.00" fill="#000000">tags</text>
<text text-anchor="start" x="111.8804" y="-178.3" font-family="Arial" font-size="14.00" fill="#000000"> </text>
<text text-anchor="start" x="115.771" y="-178.3" font-family="Arial" font-size="14.00" fill="#666666">[BASE TABLE]</text>
<polygon fill="none" stroke="#000000" points="60.5,-135.5 60.5,-165.5 226.5,-165.5 226.5,-135.5 60.5,-135.5"/>
<text text-anchor="start" x="67.5" y="-146.9" font-family="Arial" font-size="14.00" fill="#000000">id </text>
<text text-anchor="start" x="82.2798" y="-146.9" font-family="Arial" font-size="14.00" fill="#666666">[char(36)]</text>
<polygon fill="none" stroke="#000000" points="60.5,-105.5 60.5,-135.5 226.5,-135.5 226.5,-105.5 60.5,-105.5"/>
<text text-anchor="start" x="67.5" y="-116.9" font-family="Arial" font-size="14.00" fill="#000000">name </text>
<text text-anchor="start" x="106.399" y="-116.9" font-family="Arial" font-size="14.00" fill="#666666">[varchar(30)]</text>
<polygon fill="none" stroke="#000000" points="60.5,-75.5 60.5,-105.5 226.5,-105.5 226.5,-75.5 60.5,-75.5"/>
<text text-anchor="start" x="67.5" y="-86.9" font-family="Arial" font-size="14.00" fill="#000000">created_at </text>
<text text-anchor="start" x="137.528" y="-86.9" font-family="Arial" font-size="14.00" fill="#666666">[datetime(6)]</text>
<polygon fill="none" stroke="#000000" points="60.5,-45.5 60.5,-75.5 226.5,-75.5 226.5,-45.5 60.5,-45.5"/>
<text text-anchor="start" x="67.2518" y="-56.9" font-family="Arial" font-size="14.00" fill="#000000">updated_at </text>
<text text-anchor="start" x="141.1844" y="-56.9" font-family="Arial" font-size="14.00" fill="#666666">[datetime(6)]</text>
<polygon fill="none" stroke="#000000" stroke-width="3" points="59,-44.5 59,-202.5 228,-202.5 228,-44.5 59,-44.5"/>
</g>
<!-- users_tags -->
<g id="node2" class="node">
<title>users_tags</title>
<polygon fill="#efefef" stroke="transparent" points="43.5,-475.5 43.5,-510.5 242.5,-510.5 242.5,-475.5 43.5,-475.5"/>
<polygon fill="none" stroke="#000000" points="43.5,-475.5 43.5,-510.5 242.5,-510.5 242.5,-475.5 43.5,-475.5"/>
<text text-anchor="start" x="50.3604" y="-488.3" font-family="Arial Bold" font-size="18.00" fill="#000000">users_tags</text>
<text text-anchor="start" x="138.3858" y="-488.3" font-family="Arial" font-size="14.00" fill="#000000"> </text>
<text text-anchor="start" x="142.2764" y="-488.3" font-family="Arial" font-size="14.00" fill="#666666">[BASE TABLE]</text>
<polygon fill="none" stroke="#000000" points="43.5,-445.5 43.5,-475.5 242.5,-475.5 242.5,-445.5 43.5,-445.5"/>
<text text-anchor="start" x="50.5" y="-456.9" font-family="Arial" font-size="14.00" fill="#000000">user_id </text>
<text text-anchor="start" x="100.2882" y="-456.9" font-family="Arial" font-size="14.00" fill="#666666">[char(36)]</text>
<polygon fill="none" stroke="#000000" points="43.5,-415.5 43.5,-445.5 242.5,-445.5 242.5,-415.5 43.5,-415.5"/>
<text text-anchor="start" x="50.5" y="-426.9" font-family="Arial" font-size="14.00" fill="#000000">tag_id </text>
<text text-anchor="start" x="92.5182" y="-426.9" font-family="Arial" font-size="14.00" fill="#666666">[char(36)]</text>
<polygon fill="none" stroke="#000000" points="43.5,-385.5 43.5,-415.5 242.5,-415.5 242.5,-385.5 43.5,-385.5"/>
<text text-anchor="start" x="50.5" y="-396.9" font-family="Arial" font-size="14.00" fill="#000000">is_locked </text>
<text text-anchor="start" x="112.7342" y="-396.9" font-family="Arial" font-size="14.00" fill="#666666">[tinyint(1)]</text>
<polygon fill="none" stroke="#000000" points="43.5,-355.5 43.5,-385.5 242.5,-385.5 242.5,-355.5 43.5,-355.5"/>
<text text-anchor="start" x="50.5" y="-366.9" font-family="Arial" font-size="14.00" fill="#000000">created_at </text>
<text text-anchor="start" x="120.528" y="-366.9" font-family="Arial" font-size="14.00" fill="#666666">[datetime(6)]</text>
<polygon fill="none" stroke="#000000" points="43.5,-325.5 43.5,-355.5 242.5,-355.5 242.5,-325.5 43.5,-325.5"/>
<text text-anchor="start" x="50.5" y="-336.9" font-family="Arial" font-size="14.00" fill="#000000">updated_at </text>
<text text-anchor="start" x="124.4326" y="-336.9" font-family="Arial" font-size="14.00" fill="#666666">[datetime(6)]</text>
</g>
<!-- users_tags&#45;&gt;tags -->
<g id="edge1" class="edge">
<title>users_tags:tag_id&#45;&gt;tags:id</title>
<path fill="none" stroke="#000000" d="M252.791,-429.5939C305.2868,-419.6772 281.758,-330.7839 242.5,-283 190.1564,-219.2885 112.8436,-310.7115 60.5,-247 33.2739,-213.861 17.6111,-150.5 60.5,-150.5"/>
<polygon fill="#000000" stroke="#000000" points="252.4615,-429.6228 242.1053,-426.0173 247.4807,-430.0614 242.5,-430.5 242.5,-430.5 242.5,-430.5 247.4807,-430.0614 242.8947,-434.9827 252.4615,-429.6228 252.4615,-429.6228"/>
<text text-anchor="start" x="249.995" y="-440.5" font-family="Arial" font-size="10.00" fill="#000000">FOREIGN KEY (tag_id) REFERENCES tags (id)</text>
</g>
</g>
</svg>
IGN KEY (tag_id) REFERENCES tags (id)</text>
</g>
</g>
</svg>
