<?xml version="1.0" encoding="UTF-8" standalone="no"?>
<!DOCTYPE svg PUBLIC "-//W3C//DTD SVG 1.1//EN"
        "http://www.w3.org/Graphics/SVG/1.1/DTD/svg11.dtd">
<!-- Generated by graphviz version 2.40.1 (20161225.0304)
 -->
<!-- Title: tags Pages: 1 -->
<svg width="484pt" height="560pt"
     viewBox="0.00 0.00 483.50 560.00" xmlns="http://www.w3.org/2000/svg">
    <g id="graph0" class="graph" transform="scale(1 1) rotate(0) translate(4 556)">
        <title>tags</title>
        <polygon fill="#ffffff" stroke="transparent" points="-4,4 -4,-556 479.5,-556 479.5,4 -4,4"/>
        <!-- tags -->
        <g id="node1" class="node">
            <title>tags</title>
            <polygon fill="#efefef" stroke="transparent" points="242,-166 242,-200 419,-200 419,-166 242,-166"/>
            <polygon fill="none" stroke="#000000" points="242,-166 242,-200 419,-200 419,-166 242,-166"/>
            <text text-anchor="start" x="264.0098" y="-179.6" font-family="Arial Bold" font-size="18.00" fill="#000000">
                tags
            </text>
            <text text-anchor="start" x="301.0205" y="-179.6" font-family="Arial" font-size="14.00"
                  fill="#000000"></text>
            <text text-anchor="start" x="304.9102" y="-179.6" font-family="Arial" font-size="14.00" fill="#666666">[BASE
                TABLE]
            </text>
            <polygon fill="none" stroke="#000000" points="242,-136 242,-166 419,-166 419,-136 242,-136"/>
            <text text-anchor="start" x="249" y="-148.8" font-family="Arial" font-size="14.00" fill="#000000">id</text>
            <text text-anchor="start" x="263.7861" y="-148.8" font-family="Arial" font-size="14.00" fill="#666666">
                [char(36)]
            </text>
            <polygon fill="none" stroke="#000000" points="242,-106 242,-136 419,-136 419,-106 242,-106"/>
            <text text-anchor="start" x="249" y="-118.8" font-family="Arial" font-size="14.00" fill="#000000">name
            </text>
            <text text-anchor="start" x="287.9102" y="-118.8" font-family="Arial" font-size="14.00" fill="#666666">
                [varchar(30)]
            </text>
            <polygon fill="none" stroke="#000000" points="242,-76 242,-106 419,-106 419,-76 242,-76"/>
            <text text-anchor="start" x="249" y="-88.8" font-family="Arial" font-size="14.00" fill="#000000">
                created_at
            </text>
            <text text-anchor="start" x="319.0479" y="-88.8" font-family="Arial" font-size="14.00" fill="#666666">
                [timestamp(6)]
            </text>
            <polygon fill="none" stroke="#000000" points="242,-46 242,-76 419,-76 419,-46 242,-46"/>
            <text text-anchor="start" x="248.79" y="-58.8" font-family="Arial" font-size="14.00" fill="#000000">
                updated_at
            </text>
            <text text-anchor="start" x="322.748" y="-58.8" font-family="Arial" font-size="14.00" fill="#666666">
                [timestamp(6)]
            </text>
            <polygon fill="none" stroke="#000000" stroke-width="3"
                     points="240,-44.5 240,-201.5 420,-201.5 420,-44.5 240,-44.5"/>
        </g>
        <!-- users_tags -->
        <g id="node2" class="node">
            <title>users_tags</title>
            <polygon fill="#efefef" stroke="transparent" points="228,-475 228,-509 433,-509 433,-475 228,-475"/>
            <polygon fill="none" stroke="#000000" points="228,-475 228,-509 433,-509 433,-475 228,-475"/>
            <text text-anchor="start" x="234.9883" y="-488.6" font-family="Arial Bold" font-size="18.00" fill="#000000">
                users_tags
            </text>
            <text text-anchor="start" x="330.042" y="-488.6" font-family="Arial" font-size="14.00"
                  fill="#000000"></text>
            <text text-anchor="start" x="333.9316" y="-488.6" font-family="Arial" font-size="14.00" fill="#666666">[BASE
                TABLE]
            </text>
            <polygon fill="none" stroke="#000000" points="228,-445 228,-475 433,-475 433,-445 228,-445"/>
            <text text-anchor="start" x="235" y="-457.8" font-family="Arial" font-size="14.00" fill="#000000">user_id
            </text>
            <text text-anchor="start" x="284.8066" y="-457.8" font-family="Arial" font-size="14.00" fill="#666666">
                [char(36)]
            </text>
            <polygon fill="none" stroke="#000000" points="228,-415 228,-445 433,-445 433,-415 228,-415"/>
            <text text-anchor="start" x="235" y="-427.8" font-family="Arial" font-size="14.00" fill="#000000">tag_id
            </text>
            <text text-anchor="start" x="277.0342" y="-427.8" font-family="Arial" font-size="14.00" fill="#666666">
                [char(36)]
            </text>
            <polygon fill="none" stroke="#000000" points="228,-385 228,-415 433,-415 433,-385 228,-385"/>
            <text text-anchor="start" x="235" y="-397.8" font-family="Arial" font-size="14.00" fill="#000000">
                is_locked
            </text>
            <text text-anchor="start" x="297.2549" y="-397.8" font-family="Arial" font-size="14.00" fill="#666666">
                [tinyint(1)]
            </text>
            <polygon fill="none" stroke="#000000" points="228,-355 228,-385 433,-385 433,-355 228,-355"/>
            <text text-anchor="start" x="235" y="-367.8" font-family="Arial" font-size="14.00" fill="#000000">
                created_at
            </text>
            <text text-anchor="start" x="305.0479" y="-367.8" font-family="Arial" font-size="14.00" fill="#666666">
                [timestamp(6)]
            </text>
            <polygon fill="none" stroke="#000000" points="228,-325 228,-355 433,-355 433,-325 228,-325"/>
            <text text-anchor="start" x="235" y="-337.8" font-family="Arial" font-size="14.00" fill="#000000">
                updated_at
            </text>
            <text text-anchor="start" x="308.958" y="-337.8" font-family="Arial" font-size="14.00" fill="#666666">
                [timestamp(6)]
            </text>
        </g>
        <!-- users_tags&#45;&gt;tags -->
        <g id="edge1" class="edge">
            <title>users_tags:tag_id&#45;&gt;tags:id</title>
            <path fill="none" stroke="#000000" d="M218.1787,-427.4162C167.6622,-399.2896 183.4381,-151 242,-151"/>
            <polygon fill="#000000" stroke="#000000"
                     points="218.3291,-427.4557 226.855,-434.3519 223.1645,-428.7278 228,-430 228,-430 228,-430 223.1645,-428.7278 229.145,-425.6481 218.3291,-427.4557 218.3291,-427.4557"/>
            <text text-anchor="start" x="6.5635" y="-439.5" font-family="Arial" font-size="10.00" fill="#000000">FOREIGN
                KEY (tag_id) REFERENCES tags (id)
            </text>
        </g>
    </g>
</svg>
