<?xml version="1.0" encoding="UTF-8" standalone="no"?>
<!DOCTYPE svg PUBLIC "-//W3C//DTD SVG 1.1//EN"
 "http://www.w3.org/Graphics/SVG/1.1/DTD/svg11.dtd">
<!-- Generated by graphviz version 2.40.1 (20161225.0304)
 -->
<!-- Title: unreads Pages: 1 -->
<svg width="708pt" height="800pt"
 viewBox="0.00 0.00 708.00 800.00" xmlns="http://www.w3.org/2000/svg" xmlns:xlink="http://www.w3.org/1999/xlink">
<g id="graph0" class="graph" transform="scale(1 1) rotate(0) translate(4 796)">
<title>unreads</title>
<polygon fill="#ffffff" stroke="transparent" points="-4,4 -4,-796 704,-796 704,4 -4,4"/>
<!-- unreads -->
<g id="node1" class="node">
<title>unreads</title>
<polygon fill="#efefef" stroke="transparent" points="239,-712 239,-746 418,-746 418,-712 239,-712"/>
<polygon fill="none" stroke="#000000" points="239,-712 239,-746 418,-746 418,-712 239,-712"/>
<text text-anchor="start" x="245.5039" y="-725.6" font-family="Arial Bold" font-size="18.00" fill="#000000">unreads</text>
<text text-anchor="start" x="315.5264" y="-725.6" font-family="Arial" font-size="14.00" fill="#000000"> </text>
<text text-anchor="start" x="319.416" y="-725.6" font-family="Arial" font-size="14.00" fill="#666666">[BASE TABLE]</text>
<polygon fill="none" stroke="#000000" points="239,-682 239,-712 418,-712 418,-682 239,-682"/>
<text text-anchor="start" x="246" y="-694.8" font-family="Arial" font-size="14.00" fill="#000000">user_id </text>
<text text-anchor="start" x="295.8066" y="-694.8" font-family="Arial" font-size="14.00" fill="#666666">[char(36)]</text>
<polygon fill="none" stroke="#000000" points="239,-652 239,-682 418,-682 418,-652 239,-652"/>
<text text-anchor="start" x="246" y="-664.8" font-family="Arial" font-size="14.00" fill="#000000">message_id </text>
<text text-anchor="start" x="325.3789" y="-664.8" font-family="Arial" font-size="14.00" fill="#666666">[char(36)]</text>
<polygon fill="none" stroke="#000000" points="239,-622 239,-652 418,-652 418,-622 239,-622"/>
<text text-anchor="start" x="246" y="-634.8" font-family="Arial" font-size="14.00" fill="#000000">noticeable </text>
<text text-anchor="start" x="313.7168" y="-634.8" font-family="Arial" font-size="14.00" fill="#666666">[tinyint(1)]</text>
<polygon fill="none" stroke="#000000" points="239,-592 239,-622 418,-622 418,-592 239,-592"/>
<text text-anchor="start" x="246" y="-604.8" font-family="Arial" font-size="14.00" fill="#000000">created_at </text>
<text text-anchor="start" x="316.0479" y="-604.8" font-family="Arial" font-size="14.00" fill="#666666">[timestamp(6)]</text>
<polygon fill="none" stroke="#000000" stroke-width="3" points="237,-590.5 237,-747.5 419,-747.5 419,-590.5 237,-590.5"/>
</g>
<!-- users -->
<g id="node2" class="node">
<title>users</title>
<polygon fill="#efefef" stroke="transparent" points="90,-433 90,-467 273,-467 273,-433 90,-433"/>
<polygon fill="none" stroke="#000000" points="90,-433 90,-467 273,-467 273,-433 90,-433"/>
<text text-anchor="start" x="109.499" y="-446.6" font-family="Arial Bold" font-size="18.00" fill="#000000">users</text>
<text text-anchor="start" x="157.5313" y="-446.6" font-family="Arial" font-size="14.00" fill="#000000"> </text>
<text text-anchor="start" x="161.4209" y="-446.6" font-family="Arial" font-size="14.00" fill="#666666">[BASE TABLE]</text>
<polygon fill="none" stroke="#000000" points="90,-403 90,-433 273,-433 273,-403 90,-403"/>
<text text-anchor="start" x="97" y="-415.8" font-family="Arial" font-size="14.00" fill="#000000">id </text>
<text text-anchor="start" x="111.7861" y="-415.8" font-family="Arial" font-size="14.00" fill="#666666">[char(36)]</text>
<polygon fill="none" stroke="#000000" points="90,-373 90,-403 273,-403 273,-373 90,-373"/>
<text text-anchor="start" x="97" y="-385.8" font-family="Arial" font-size="14.00" fill="#000000">name </text>
<text text-anchor="start" x="135.9102" y="-385.8" font-family="Arial" font-size="14.00" fill="#666666">[varchar(32)]</text>
<polygon fill="none" stroke="#000000" points="90,-343 90,-373 273,-373 273,-343 90,-343"/>
<text text-anchor="start" x="96.6831" y="-355.8" font-family="Arial" font-size="14.00" fill="#000000">display_name </text>
<text text-anchor="start" x="186.9585" y="-355.8" font-family="Arial" font-size="14.00" fill="#666666">[varchar(64)]</text>
<polygon fill="none" stroke="#000000" points="90,-313 90,-343 273,-343 273,-313 90,-313"/>
<text text-anchor="start" x="97" y="-325.8" font-family="Arial" font-size="14.00" fill="#000000">password </text>
<text text-anchor="start" x="160.8066" y="-325.8" font-family="Arial" font-size="14.00" fill="#666666">[char(128)]</text>
<polygon fill="none" stroke="#000000" points="90,-283 90,-313 273,-313 273,-283 90,-283"/>
<text text-anchor="start" x="97" y="-295.8" font-family="Arial" font-size="14.00" fill="#000000">salt </text>
<text text-anchor="start" x="122.6758" y="-295.8" font-family="Arial" font-size="14.00" fill="#666666">[char(128)]</text>
<polygon fill="none" stroke="#000000" points="90,-253 90,-283 273,-283 273,-253 90,-253"/>
<text text-anchor="start" x="97" y="-265.8" font-family="Arial" font-size="14.00" fill="#000000">icon </text>
<text text-anchor="start" x="126.5723" y="-265.8" font-family="Arial" font-size="14.00" fill="#666666">[char(36)]</text>
<polygon fill="none" stroke="#000000" points="90,-223 90,-253 273,-253 273,-223 90,-223"/>
<text text-anchor="start" x="97" y="-235.8" font-family="Arial" font-size="14.00" fill="#000000">status </text>
<text text-anchor="start" x="138.2412" y="-235.8" font-family="Arial" font-size="14.00" fill="#666666">[tinyint(4)]</text>
<polygon fill="none" stroke="#000000" points="90,-193 90,-223 273,-223 273,-193 90,-193"/>
<text text-anchor="start" x="97" y="-205.8" font-family="Arial" font-size="14.00" fill="#000000">bot </text>
<text text-anchor="start" x="120.3516" y="-205.8" font-family="Arial" font-size="14.00" fill="#666666">[tinyint(1)]</text>
<polygon fill="none" stroke="#000000" points="90,-163 90,-193 273,-193 273,-163 90,-163"/>
<text text-anchor="start" x="97" y="-175.8" font-family="Arial" font-size="14.00" fill="#000000">role </text>
<text text-anchor="start" x="124.2344" y="-175.8" font-family="Arial" font-size="14.00" fill="#666666">[varchar(30)]</text>
<polygon fill="none" stroke="#000000" points="90,-133 90,-163 273,-163 273,-133 90,-133"/>
<text text-anchor="start" x="97" y="-145.8" font-family="Arial" font-size="14.00" fill="#000000">twitter_id </text>
<text text-anchor="start" x="156.9102" y="-145.8" font-family="Arial" font-size="14.00" fill="#666666">[varchar(15)]</text>
<polygon fill="none" stroke="#000000" points="90,-103 90,-133 273,-133 273,-103 90,-103"/>
<text text-anchor="start" x="97" y="-115.8" font-family="Arial" font-size="14.00" fill="#000000">last_online </text>
<text text-anchor="start" x="167.8271" y="-115.8" font-family="Arial" font-size="14.00" fill="#666666">[timestamp(6)]</text>
<polygon fill="none" stroke="#000000" points="90,-73 90,-103 273,-103 273,-73 90,-73"/>
<text text-anchor="start" x="97" y="-85.8" font-family="Arial" font-size="14.00" fill="#000000">created_at </text>
<text text-anchor="start" x="167.0479" y="-85.8" font-family="Arial" font-size="14.00" fill="#666666">[timestamp(6)]</text>
<polygon fill="none" stroke="#000000" points="90,-43 90,-73 273,-73 273,-43 90,-43"/>
<text text-anchor="start" x="97" y="-55.8" font-family="Arial" font-size="14.00" fill="#000000">updated_at </text>
<text text-anchor="start" x="170.958" y="-55.8" font-family="Arial" font-size="14.00" fill="#666666">[timestamp(6)]</text>
</g>
<!-- unreads&#45;&gt;users -->
<g id="edge1" class="edge">
<title>unreads:user_id&#45;&gt;users:id</title>
<path fill="none" stroke="#000000" d="M228.9506,-696.2235C176.4649,-687.3839 215.5617,-604.9526 239,-546 247.1308,-525.5492 264.8692,-530.4508 273,-510 288.1064,-472.004 313.8889,-418 273,-418"/>
<polygon fill="#000000" stroke="#000000" points="229.0297,-696.2295 238.6533,-701.4866 234.0149,-696.6148 239,-697 239,-697 239,-697 234.0149,-696.6148 239.3467,-692.5134 229.0297,-696.2295 229.0297,-696.2295"/>
<text text-anchor="start" x="7.0117" y="-706.5" font-family="Arial" font-size="10.00" fill="#000000">FOREIGN KEY (user_id) REFERENCES users (id)</text>
</g>
<!-- messages -->
<g id="node3" class="node">
<title>messages</title>
<polygon fill="#efefef" stroke="transparent" points="377,-343 377,-377 574,-377 574,-343 377,-343"/>
<polygon fill="none" stroke="#000000" points="377,-343 377,-377 574,-377 574,-343 377,-343"/>
<text text-anchor="start" x="383.9829" y="-356.6" font-family="Arial Bold" font-size="18.00" fill="#000000">messages</text>
<text text-anchor="start" x="471.0474" y="-356.6" font-family="Arial" font-size="14.00" fill="#000000"> </text>
<text text-anchor="start" x="474.937" y="-356.6" font-family="Arial" font-size="14.00" fill="#666666">[BASE TABLE]</text>
<polygon fill="none" stroke="#000000" points="377,-313 377,-343 574,-343 574,-313 377,-313"/>
<text text-anchor="start" x="384" y="-325.8" font-family="Arial" font-size="14.00" fill="#000000">id </text>
<text text-anchor="start" x="398.7861" y="-325.8" font-family="Arial" font-size="14.00" fill="#666666">[char(36)]</text>
<polygon fill="none" stroke="#000000" points="377,-283 377,-313 574,-313 574,-283 377,-283"/>
<text text-anchor="start" x="384" y="-295.8" font-family="Arial" font-size="14.00" fill="#000000">user_id </text>
<text text-anchor="start" x="433.8066" y="-295.8" font-family="Arial" font-size="14.00" fill="#666666">[char(36)]</text>
<polygon fill="none" stroke="#000000" points="377,-253 377,-283 574,-283 574,-253 377,-253"/>
<text text-anchor="start" x="384" y="-265.8" font-family="Arial" font-size="14.00" fill="#000000">channel_id </text>
<text text-anchor="start" x="455.6133" y="-265.8" font-family="Arial" font-size="14.00" fill="#666666">[char(36)]</text>
<polygon fill="none" stroke="#000000" points="377,-223 377,-253 574,-253 574,-223 377,-223"/>
<text text-anchor="start" x="384" y="-235.8" font-family="Arial" font-size="14.00" fill="#000000">text </text>
<text text-anchor="start" x="410.4551" y="-235.8" font-family="Arial" font-size="14.00" fill="#666666">[text]</text>
<polygon fill="none" stroke="#000000" points="377,-193 377,-223 574,-223 574,-193 377,-193"/>
<text text-anchor="start" x="384" y="-205.8" font-family="Arial" font-size="14.00" fill="#000000">created_at </text>
<text text-anchor="start" x="454.0479" y="-205.8" font-family="Arial" font-size="14.00" fill="#666666">[timestamp(6)]</text>
<polygon fill="none" stroke="#000000" points="377,-163 377,-193 574,-193 574,-163 377,-163"/>
<text text-anchor="start" x="384" y="-175.8" font-family="Arial" font-size="14.00" fill="#000000">updated_at </text>
<text text-anchor="start" x="457.958" y="-175.8" font-family="Arial" font-size="14.00" fill="#666666">[timestamp(6)]</text>
<polygon fill="none" stroke="#000000" points="377,-133 377,-163 574,-163 574,-133 377,-133"/>
<text text-anchor="start" x="384" y="-145.8" font-family="Arial" font-size="14.00" fill="#000000">deleted_at </text>
<text text-anchor="start" x="453.2822" y="-145.8" font-family="Arial" font-size="14.00" fill="#666666">[timestamp(6)]</text>
</g>
<!-- unreads&#45;&gt;messages -->
<g id="edge2" class="edge">
<title>unreads:message_id&#45;&gt;messages:id</title>
<path fill="none" stroke="#000000" d="M428.2426,-666.4037C553.2377,-650.6493 228.9406,-328 377,-328"/>
<polygon fill="#000000" stroke="#000000" points="427.9831,-666.4187 417.7384,-662.5076 422.9915,-666.7094 418,-667 418,-667 418,-667 422.9915,-666.7094 418.2616,-671.4924 427.9831,-666.4187 427.9831,-666.4187"/>
<text text-anchor="start" x="424.8887" y="-676.5" font-family="Arial" font-size="10.00" fill="#000000">FOREIGN KEY (message_id) REFERENCES messages (id)</text>
</g>
</g>
</svg>
