<?xml version="1.0" encoding="UTF-8" standalone="no"?>
<!DOCTYPE svg PUBLIC "-//W3C//DTD SVG 1.1//EN"
 "http://www.w3.org/Graphics/SVG/1.1/DTD/svg11.dtd">
<!-- Generated by graphviz version 2.40.1 (20161225.0304)
 -->
<!-- Title: unreads Pages: 1 -->
<svg width="861pt" height="802pt"
 viewBox="0.00 0.00 861.00 802.00" xmlns="http://www.w3.org/2000/svg" xmlns:xlink="http://www.w3.org/1999/xlink">
<g id="graph0" class="graph" transform="scale(1 1) rotate(0) translate(4 798)">
<title>unreads</title>
<polygon fill="#ffffff" stroke="transparent" points="-4,4 -4,-798 857,-798 857,4 -4,4"/>
<!-- unreads -->
<g id="node1" class="node">
<title>unreads</title>
<polygon fill="#efefef" stroke="transparent" points="334.5,-712.5 334.5,-747.5 510.5,-747.5 510.5,-712.5 334.5,-712.5"/>
<polygon fill="none" stroke="#000000" points="334.5,-712.5 334.5,-747.5 510.5,-747.5 510.5,-712.5 334.5,-712.5"/>
<text text-anchor="start" x="341.3615" y="-725.3" font-family="Arial Bold" font-size="18.00" fill="#000000">unreads</text>
<text text-anchor="start" x="406.3847" y="-725.3" font-family="Arial" font-size="14.00" fill="#000000"> </text>
<text text-anchor="start" x="410.2753" y="-725.3" font-family="Arial" font-size="14.00" fill="#666666">[BASE TABLE]</text>
<polygon fill="none" stroke="#000000" points="334.5,-682.5 334.5,-712.5 510.5,-712.5 510.5,-682.5 334.5,-682.5"/>
<text text-anchor="start" x="341.5" y="-693.9" font-family="Arial" font-size="14.00" fill="#000000">user_id </text>
<text text-anchor="start" x="391.2882" y="-693.9" font-family="Arial" font-size="14.00" fill="#666666">[char(36)]</text>
<polygon fill="none" stroke="#000000" points="334.5,-652.5 334.5,-682.5 510.5,-682.5 510.5,-652.5 334.5,-652.5"/>
<text text-anchor="start" x="341.5" y="-663.9" font-family="Arial" font-size="14.00" fill="#000000">channel_id </text>
<text text-anchor="start" x="413.082" y="-663.9" font-family="Arial" font-size="14.00" fill="#666666">[char(36)]</text>
<polygon fill="none" stroke="#000000" points="334.5,-622.5 334.5,-652.5 510.5,-652.5 510.5,-622.5 334.5,-622.5"/>
<text text-anchor="start" x="341.5" y="-633.9" font-family="Arial" font-size="14.00" fill="#000000">message_id </text>
<text text-anchor="start" x="420.8534" y="-633.9" font-family="Arial" font-size="14.00" fill="#666666">[char(36)]</text>
<polygon fill="none" stroke="#000000" points="334.5,-592.5 334.5,-622.5 510.5,-622.5 510.5,-592.5 334.5,-592.5"/>
<text text-anchor="start" x="341.5" y="-603.9" font-family="Arial" font-size="14.00" fill="#000000">noticeable </text>
<text text-anchor="start" x="409.19" y="-603.9" font-family="Arial" font-size="14.00" fill="#666666">[tinyint(1)]</text>
<polygon fill="none" stroke="#000000" points="334.5,-562.5 334.5,-592.5 510.5,-592.5 510.5,-562.5 334.5,-562.5"/>
<text text-anchor="start" x="341.5" y="-573.9" font-family="Arial" font-size="14.00" fill="#000000">created_at </text>
<text text-anchor="start" x="411.528" y="-573.9" font-family="Arial" font-size="14.00" fill="#666666">[datetime(6)]</text>
<polygon fill="none" stroke="#000000" stroke-width="3" points="333,-561.5 333,-749.5 512,-749.5 512,-561.5 333,-561.5"/>
</g>
<!-- users -->
<g id="node2" class="node">
<title>users</title>
<polygon fill="#efefef" stroke="transparent" points="43.5,-387.5 43.5,-422.5 226.5,-422.5 226.5,-387.5 43.5,-387.5"/>
<polygon fill="none" stroke="#000000" points="43.5,-387.5 43.5,-422.5 226.5,-422.5 226.5,-387.5 43.5,-387.5"/>
<text text-anchor="start" x="64.3708" y="-400.3" font-family="Arial Bold" font-size="18.00" fill="#000000">users</text>
<text text-anchor="start" x="108.3754" y="-400.3" font-family="Arial" font-size="14.00" fill="#000000"> </text>
<text text-anchor="start" x="112.266" y="-400.3" font-family="Arial" font-size="14.00" fill="#666666">[BASE TABLE]</text>
<polygon fill="none" stroke="#000000" points="43.5,-357.5 43.5,-387.5 226.5,-387.5 226.5,-357.5 43.5,-357.5"/>
<text text-anchor="start" x="50.5" y="-368.9" font-family="Arial" font-size="14.00" fill="#000000">id </text>
<text text-anchor="start" x="65.2798" y="-368.9" font-family="Arial" font-size="14.00" fill="#666666">[char(36)]</text>
<polygon fill="none" stroke="#000000" points="43.5,-327.5 43.5,-357.5 226.5,-357.5 226.5,-327.5 43.5,-327.5"/>
<text text-anchor="start" x="50.5" y="-338.9" font-family="Arial" font-size="14.00" fill="#000000">name </text>
<text text-anchor="start" x="89.399" y="-338.9" font-family="Arial" font-size="14.00" fill="#666666">[varchar(32)]</text>
<polygon fill="none" stroke="#000000" points="43.5,-297.5 43.5,-327.5 226.5,-327.5 226.5,-297.5 43.5,-297.5"/>
<text text-anchor="start" x="50.2104" y="-308.9" font-family="Arial" font-size="14.00" fill="#000000">display_name </text>
<text text-anchor="start" x="140.453" y="-308.9" font-family="Arial" font-size="14.00" fill="#666666">[varchar(32)]</text>
<polygon fill="none" stroke="#000000" points="43.5,-267.5 43.5,-297.5 226.5,-297.5 226.5,-267.5 43.5,-267.5"/>
<text text-anchor="start" x="50.5" y="-278.9" font-family="Arial" font-size="14.00" fill="#000000">password </text>
<text text-anchor="start" x="114.2882" y="-278.9" font-family="Arial" font-size="14.00" fill="#666666">[char(128)]</text>
<polygon fill="none" stroke="#000000" points="43.5,-237.5 43.5,-267.5 226.5,-267.5 226.5,-237.5 43.5,-237.5"/>
<text text-anchor="start" x="50.5" y="-248.9" font-family="Arial" font-size="14.00" fill="#000000">salt </text>
<text text-anchor="start" x="76.1704" y="-248.9" font-family="Arial" font-size="14.00" fill="#666666">[char(128)]</text>
<polygon fill="none" stroke="#000000" points="43.5,-207.5 43.5,-237.5 226.5,-237.5 226.5,-207.5 43.5,-207.5"/>
<text text-anchor="start" x="50.5" y="-218.9" font-family="Arial" font-size="14.00" fill="#000000">icon </text>
<text text-anchor="start" x="80.0624" y="-218.9" font-family="Arial" font-size="14.00" fill="#666666">[char(36)]</text>
<polygon fill="none" stroke="#000000" points="43.5,-177.5 43.5,-207.5 226.5,-207.5 226.5,-177.5 43.5,-177.5"/>
<text text-anchor="start" x="50.5" y="-188.9" font-family="Arial" font-size="14.00" fill="#000000">status </text>
<text text-anchor="start" x="91.737" y="-188.9" font-family="Arial" font-size="14.00" fill="#666666">[tinyint(4)]</text>
<polygon fill="none" stroke="#000000" points="43.5,-147.5 43.5,-177.5 226.5,-177.5 226.5,-147.5 43.5,-147.5"/>
<text text-anchor="start" x="50.5" y="-158.9" font-family="Arial" font-size="14.00" fill="#000000">bot </text>
<text text-anchor="start" x="73.8464" y="-158.9" font-family="Arial" font-size="14.00" fill="#666666">[tinyint(1)]</text>
<polygon fill="none" stroke="#000000" points="43.5,-117.5 43.5,-147.5 226.5,-147.5 226.5,-117.5 43.5,-117.5"/>
<text text-anchor="start" x="50.5" y="-128.9" font-family="Arial" font-size="14.00" fill="#000000">role </text>
<text text-anchor="start" x="77.723" y="-128.9" font-family="Arial" font-size="14.00" fill="#666666">[varchar(30)]</text>
<polygon fill="none" stroke="#000000" points="43.5,-87.5 43.5,-117.5 226.5,-117.5 226.5,-87.5 43.5,-87.5"/>
<text text-anchor="start" x="50.5" y="-98.9" font-family="Arial" font-size="14.00" fill="#000000">created_at </text>
<text text-anchor="start" x="120.528" y="-98.9" font-family="Arial" font-size="14.00" fill="#666666">[datetime(6)]</text>
<polygon fill="none" stroke="#000000" points="43.5,-57.5 43.5,-87.5 226.5,-87.5 226.5,-57.5 43.5,-57.5"/>
<text text-anchor="start" x="50.5" y="-68.9" font-family="Arial" font-size="14.00" fill="#000000">updated_at </text>
<text text-anchor="start" x="124.4326" y="-68.9" font-family="Arial" font-size="14.00" fill="#666666">[datetime(6)]</text>
</g>
<!-- unreads&#45;&gt;users -->
<g id="edge1" class="edge">
<title>unreads:user_id&#45;&gt;users:id</title>
<path fill="none" stroke="#000000" d="M324.566,-695.4246C262.2749,-667.7454 299.0381,-372.5 226.5,-372.5"/>
<polygon fill="#000000" stroke="#000000" points="324.7113,-695.4549 333.5797,-701.9049 329.6057,-696.4775 334.5,-697.5 334.5,-697.5 334.5,-697.5 329.6057,-696.4775 335.4203,-693.0951 324.7113,-695.4549 324.7113,-695.4549"/>
<text text-anchor="start" x="101.445" y="-707.5" font-family="Arial" font-size="10.00" fill="#000000">FOREIGN KEY (user_id) REFERENCES users (id)</text>
</g>
<!-- channels -->
<g id="node3" class="node">
<title>channels</title>
<polygon fill="#efefef" stroke="transparent" points="330.5,-402.5 330.5,-437.5 513.5,-437.5 513.5,-402.5 330.5,-402.5"/>
<polygon fill="none" stroke="#000000" points="330.5,-402.5 330.5,-437.5 513.5,-437.5 513.5,-402.5 330.5,-402.5"/>
<text text-anchor="start" x="337.3605" y="-415.3" font-family="Arial Bold" font-size="18.00" fill="#000000">channels</text>
<text text-anchor="start" x="409.3857" y="-415.3" font-family="Arial" font-size="14.00" fill="#000000"> </text>
<text text-anchor="start" x="413.2763" y="-415.3" font-family="Arial" font-size="14.00" fill="#666666">[BASE TABLE]</text>
<polygon fill="none" stroke="#000000" points="330.5,-372.5 330.5,-402.5 513.5,-402.5 513.5,-372.5 330.5,-372.5"/>
<text text-anchor="start" x="337.5" y="-383.9" font-family="Arial" font-size="14.00" fill="#000000">id </text>
<text text-anchor="start" x="352.2798" y="-383.9" font-family="Arial" font-size="14.00" fill="#666666">[char(36)]</text>
<polygon fill="none" stroke="#000000" points="330.5,-342.5 330.5,-372.5 513.5,-372.5 513.5,-342.5 330.5,-342.5"/>
<text text-anchor="start" x="337.5" y="-353.9" font-family="Arial" font-size="14.00" fill="#000000">name </text>
<text text-anchor="start" x="376.399" y="-353.9" font-family="Arial" font-size="14.00" fill="#666666">[varchar(20)]</text>
<polygon fill="none" stroke="#000000" points="330.5,-312.5 330.5,-342.5 513.5,-342.5 513.5,-312.5 330.5,-312.5"/>
<text text-anchor="start" x="337.5" y="-323.9" font-family="Arial" font-size="14.00" fill="#000000">parent_id </text>
<text text-anchor="start" x="399.744" y="-323.9" font-family="Arial" font-size="14.00" fill="#666666">[char(36)]</text>
<polygon fill="none" stroke="#000000" points="330.5,-282.5 330.5,-312.5 513.5,-312.5 513.5,-282.5 330.5,-282.5"/>
<text text-anchor="start" x="337.5" y="-293.9" font-family="Arial" font-size="14.00" fill="#000000">topic </text>
<text text-anchor="start" x="370.953" y="-293.9" font-family="Arial" font-size="14.00" fill="#666666">[text]</text>
<polygon fill="none" stroke="#000000" points="330.5,-252.5 330.5,-282.5 513.5,-282.5 513.5,-252.5 330.5,-252.5"/>
<text text-anchor="start" x="337.5" y="-263.9" font-family="Arial" font-size="14.00" fill="#000000">is_forced </text>
<text text-anchor="start" x="398.1788" y="-263.9" font-family="Arial" font-size="14.00" fill="#666666">[tinyint(1)]</text>
<polygon fill="none" stroke="#000000" points="330.5,-222.5 330.5,-252.5 513.5,-252.5 513.5,-222.5 330.5,-222.5"/>
<text text-anchor="start" x="337.5" y="-233.9" font-family="Arial" font-size="14.00" fill="#000000">is_public </text>
<text text-anchor="start" x="395.8408" y="-233.9" font-family="Arial" font-size="14.00" fill="#666666">[tinyint(1)]</text>
<polygon fill="none" stroke="#000000" points="330.5,-192.5 330.5,-222.5 513.5,-222.5 513.5,-192.5 330.5,-192.5"/>
<text text-anchor="start" x="337.5" y="-203.9" font-family="Arial" font-size="14.00" fill="#000000">is_visible </text>
<text text-anchor="start" x="398.1648" y="-203.9" font-family="Arial" font-size="14.00" fill="#666666">[tinyint(1)]</text>
<polygon fill="none" stroke="#000000" points="330.5,-162.5 330.5,-192.5 513.5,-192.5 513.5,-162.5 330.5,-162.5"/>
<text text-anchor="start" x="337.5" y="-173.9" font-family="Arial" font-size="14.00" fill="#000000">creator_id </text>
<text text-anchor="start" x="403.622" y="-173.9" font-family="Arial" font-size="14.00" fill="#666666">[char(36)]</text>
<polygon fill="none" stroke="#000000" points="330.5,-132.5 330.5,-162.5 513.5,-162.5 513.5,-132.5 330.5,-132.5"/>
<text text-anchor="start" x="337.5" y="-143.9" font-family="Arial" font-size="14.00" fill="#000000">updater_id </text>
<text text-anchor="start" x="407.5266" y="-143.9" font-family="Arial" font-size="14.00" fill="#666666">[char(36)]</text>
<polygon fill="none" stroke="#000000" points="330.5,-102.5 330.5,-132.5 513.5,-132.5 513.5,-102.5 330.5,-102.5"/>
<text text-anchor="start" x="337.5" y="-113.9" font-family="Arial" font-size="14.00" fill="#000000">created_at </text>
<text text-anchor="start" x="407.528" y="-113.9" font-family="Arial" font-size="14.00" fill="#666666">[datetime(6)]</text>
<polygon fill="none" stroke="#000000" points="330.5,-72.5 330.5,-102.5 513.5,-102.5 513.5,-72.5 330.5,-72.5"/>
<text text-anchor="start" x="337.5" y="-83.9" font-family="Arial" font-size="14.00" fill="#000000">updated_at </text>
<text text-anchor="start" x="411.4326" y="-83.9" font-family="Arial" font-size="14.00" fill="#666666">[datetime(6)]</text>
<polygon fill="none" stroke="#000000" points="330.5,-42.5 330.5,-72.5 513.5,-72.5 513.5,-42.5 330.5,-42.5"/>
<text text-anchor="start" x="337.5" y="-53.9" font-family="Arial" font-size="14.00" fill="#000000">deleted_at </text>
<text text-anchor="start" x="406.7566" y="-53.9" font-family="Arial" font-size="14.00" fill="#666666">[datetime(6)]</text>
</g>
<!-- unreads&#45;&gt;channels -->
<g id="edge2" class="edge">
<title>unreads:channel_id&#45;&gt;channels:id</title>
<path fill="none" stroke="#000000" d="M324.3341,-666.6378C270.3453,-656.8399 294.4386,-565.9206 334.5,-517 385.9136,-454.2168 462.0864,-543.7832 513.5,-481 539.8285,-448.8492 555.0556,-387.5 513.5,-387.5"/>
<polygon fill="#000000" stroke="#000000" points="324.5358,-666.6549 334.1197,-671.9839 329.5179,-667.0774 334.5,-667.5 334.5,-667.5 334.5,-667.5 329.5179,-667.0774 334.8803,-663.0161 324.5358,-666.6549 324.5358,-666.6549"/>
<text text-anchor="start" x="70.878" y="-677.5" font-family="Arial" font-size="10.00" fill="#000000">FOREIGN KEY (channel_id) REFERENCES channels (id)</text>
</g>
<!-- messages -->
<g id="node4" class="node">
<title>messages</title>
<polygon fill="#efefef" stroke="transparent" points="617.5,-327.5 617.5,-362.5 810.5,-362.5 810.5,-327.5 617.5,-327.5"/>
<polygon fill="none" stroke="#000000" points="617.5,-327.5 617.5,-362.5 810.5,-362.5 810.5,-327.5 617.5,-327.5"/>
<text text-anchor="start" x="624.3646" y="-340.3" font-family="Arial Bold" font-size="18.00" fill="#000000">messages</text>
<text text-anchor="start" x="706.3816" y="-340.3" font-family="Arial" font-size="14.00" fill="#000000"> </text>
<text text-anchor="start" x="710.2722" y="-340.3" font-family="Arial" font-size="14.00" fill="#666666">[BASE TABLE]</text>
<polygon fill="none" stroke="#000000" points="617.5,-297.5 617.5,-327.5 810.5,-327.5 810.5,-297.5 617.5,-297.5"/>
<text text-anchor="start" x="624.5" y="-308.9" font-family="Arial" font-size="14.00" fill="#000000">id </text>
<text text-anchor="start" x="639.2798" y="-308.9" font-family="Arial" font-size="14.00" fill="#666666">[char(36)]</text>
<polygon fill="none" stroke="#000000" points="617.5,-267.5 617.5,-297.5 810.5,-297.5 810.5,-267.5 617.5,-267.5"/>
<text text-anchor="start" x="624.5" y="-278.9" font-family="Arial" font-size="14.00" fill="#000000">user_id </text>
<text text-anchor="start" x="674.2882" y="-278.9" font-family="Arial" font-size="14.00" fill="#666666">[char(36)]</text>
<polygon fill="none" stroke="#000000" points="617.5,-237.5 617.5,-267.5 810.5,-267.5 810.5,-237.5 617.5,-237.5"/>
<text text-anchor="start" x="624.5" y="-248.9" font-family="Arial" font-size="14.00" fill="#000000">channel_id </text>
<text text-anchor="start" x="696.082" y="-248.9" font-family="Arial" font-size="14.00" fill="#666666">[char(36)]</text>
<polygon fill="none" stroke="#000000" points="617.5,-207.5 617.5,-237.5 810.5,-237.5 810.5,-207.5 617.5,-207.5"/>
<text text-anchor="start" x="624.5" y="-218.9" font-family="Arial" font-size="14.00" fill="#000000">text </text>
<text text-anchor="start" x="650.9544" y="-218.9" font-family="Arial" font-size="14.00" fill="#666666">[text]</text>
<polygon fill="none" stroke="#000000" points="617.5,-177.5 617.5,-207.5 810.5,-207.5 810.5,-177.5 617.5,-177.5"/>
<text text-anchor="start" x="624.5" y="-188.9" font-family="Arial" font-size="14.00" fill="#000000">created_at </text>
<text text-anchor="start" x="694.528" y="-188.9" font-family="Arial" font-size="14.00" fill="#666666">[datetime(6)]</text>
<polygon fill="none" stroke="#000000" points="617.5,-147.5 617.5,-177.5 810.5,-177.5 810.5,-147.5 617.5,-147.5"/>
<text text-anchor="start" x="624.5" y="-158.9" font-family="Arial" font-size="14.00" fill="#000000">updated_at </text>
<text text-anchor="start" x="698.4326" y="-158.9" font-family="Arial" font-size="14.00" fill="#666666">[datetime(6)]</text>
<polygon fill="none" stroke="#000000" points="617.5,-117.5 617.5,-147.5 810.5,-147.5 810.5,-117.5 617.5,-117.5"/>
<text text-anchor="start" x="624.5" y="-128.9" font-family="Arial" font-size="14.00" fill="#000000">deleted_at </text>
<text text-anchor="start" x="693.7566" y="-128.9" font-family="Arial" font-size="14.00" fill="#666666">[datetime(6)]</text>
</g>
<!-- unreads&#45;&gt;messages -->
<g id="edge3" class="edge">
<title>unreads:message_id&#45;&gt;messages:id</title>
<path fill="none" stroke="#000000" d="M520.4942,-636.8934C580.2964,-629.0934 543.531,-547.5959 565.5,-481 590.0529,-406.5713 539.1261,-312.5 617.5,-312.5"/>
<polygon fill="#000000" stroke="#000000" points="520.4816,-636.8941 510.2273,-633.0083 515.4908,-637.197 510.5,-637.5 510.5,-637.5 510.5,-637.5 515.4908,-637.197 510.7727,-641.9917 520.4816,-636.8941 520.4816,-636.8941"/>
<text text-anchor="start" x="517.327" y="-647.5" font-family="Arial" font-size="10.00" fill="#000000">FOREIGN KEY (message_id) REFERENCES messages (id)</text>
</g>
</g>
</svg>
