<?xml version="1.0" encoding="UTF-8" standalone="no"?>
<!DOCTYPE svg PUBLIC "-//W3C//DTD SVG 1.1//EN"
 "http://www.w3.org/Graphics/SVG/1.1/DTD/svg11.dtd">
<!-- Generated by graphviz version 2.40.1 (20161225.0304)
 -->
<!-- Title: unreads Pages: 1 -->
<svg width="706pt" height="802pt"
     viewBox="0.00 0.00 706.00 802.00" xmlns="http://www.w3.org/2000/svg">
<g id="graph0" class="graph" transform="scale(1 1) rotate(0) translate(4 798)">
<title>unreads</title>
<polygon fill="#ffffff" stroke="transparent" points="-4,4 -4,-798 702,-798 702,4 -4,4"/>
<!-- unreads -->
<g id="node1" class="node">
<title>unreads</title>
<polygon fill="#efefef" stroke="transparent" points="240,-712.5 240,-747.5 416,-747.5 416,-712.5 240,-712.5"/>
<polygon fill="none" stroke="#000000" points="240,-712.5 240,-747.5 416,-747.5 416,-712.5 240,-712.5"/>
<text text-anchor="start" x="246.8615" y="-725.3" font-family="Arial Bold" font-size="18.00" fill="#000000">unreads</text>
<text text-anchor="start" x="311.8847" y="-725.3" font-family="Arial" font-size="14.00" fill="#000000"> </text>
<text text-anchor="start" x="315.7753" y="-725.3" font-family="Arial" font-size="14.00" fill="#666666">[BASE TABLE]</text>
<polygon fill="none" stroke="#000000" points="240,-682.5 240,-712.5 416,-712.5 416,-682.5 240,-682.5"/>
<text text-anchor="start" x="247" y="-693.9" font-family="Arial" font-size="14.00" fill="#000000">user_id </text>
<text text-anchor="start" x="296.7882" y="-693.9" font-family="Arial" font-size="14.00" fill="#666666">[char(36)]</text>
<polygon fill="none" stroke="#000000" points="240,-652.5 240,-682.5 416,-682.5 416,-652.5 240,-652.5"/>
<text text-anchor="start" x="247" y="-663.9" font-family="Arial" font-size="14.00" fill="#000000">message_id </text>
<text text-anchor="start" x="326.3534" y="-663.9" font-family="Arial" font-size="14.00" fill="#666666">[char(36)]</text>
<polygon fill="none" stroke="#000000" points="240,-622.5 240,-652.5 416,-652.5 416,-622.5 240,-622.5"/>
<text text-anchor="start" x="247" y="-633.9" font-family="Arial" font-size="14.00" fill="#000000">noticeable </text>
<text text-anchor="start" x="314.69" y="-633.9" font-family="Arial" font-size="14.00" fill="#666666">[tinyint(1)]</text>
<polygon fill="none" stroke="#000000" points="240,-592.5 240,-622.5 416,-622.5 416,-592.5 240,-592.5"/>
<text text-anchor="start" x="247" y="-603.9" font-family="Arial" font-size="14.00" fill="#000000">created_at </text>
<text text-anchor="start" x="317.028" y="-603.9" font-family="Arial" font-size="14.00" fill="#666666">[datetime(6)]</text>
<polygon fill="none" stroke="#000000" stroke-width="3" points="238.5,-591.5 238.5,-749.5 417.5,-749.5 417.5,-591.5 238.5,-591.5"/>
</g>
<!-- users -->
<g id="node2" class="node">
<title>users</title>
<polygon fill="#efefef" stroke="transparent" points="90,-432.5 90,-467.5 273,-467.5 273,-432.5 90,-432.5"/>
<polygon fill="none" stroke="#000000" points="90,-432.5 90,-467.5 273,-467.5 273,-432.5 90,-432.5"/>
<text text-anchor="start" x="110.8708" y="-445.3" font-family="Arial Bold" font-size="18.00" fill="#000000">users</text>
<text text-anchor="start" x="154.8754" y="-445.3" font-family="Arial" font-size="14.00" fill="#000000"> </text>
<text text-anchor="start" x="158.766" y="-445.3" font-family="Arial" font-size="14.00" fill="#666666">[BASE TABLE]</text>
<polygon fill="none" stroke="#000000" points="90,-402.5 90,-432.5 273,-432.5 273,-402.5 90,-402.5"/>
<text text-anchor="start" x="97" y="-413.9" font-family="Arial" font-size="14.00" fill="#000000">id </text>
<text text-anchor="start" x="111.7798" y="-413.9" font-family="Arial" font-size="14.00" fill="#666666">[char(36)]</text>
<polygon fill="none" stroke="#000000" points="90,-372.5 90,-402.5 273,-402.5 273,-372.5 90,-372.5"/>
<text text-anchor="start" x="97" y="-383.9" font-family="Arial" font-size="14.00" fill="#000000">name </text>
<text text-anchor="start" x="135.899" y="-383.9" font-family="Arial" font-size="14.00" fill="#666666">[varchar(32)]</text>
<polygon fill="none" stroke="#000000" points="90,-342.5 90,-372.5 273,-372.5 273,-342.5 90,-342.5"/>
<text text-anchor="start" x="96.7104" y="-353.9" font-family="Arial" font-size="14.00" fill="#000000">display_name </text>
<text text-anchor="start" x="186.953" y="-353.9" font-family="Arial" font-size="14.00" fill="#666666">[varchar(64)]</text>
<polygon fill="none" stroke="#000000" points="90,-312.5 90,-342.5 273,-342.5 273,-312.5 90,-312.5"/>
<text text-anchor="start" x="97" y="-323.9" font-family="Arial" font-size="14.00" fill="#000000">password </text>
<text text-anchor="start" x="160.7882" y="-323.9" font-family="Arial" font-size="14.00" fill="#666666">[char(128)]</text>
<polygon fill="none" stroke="#000000" points="90,-282.5 90,-312.5 273,-312.5 273,-282.5 90,-282.5"/>
<text text-anchor="start" x="97" y="-293.9" font-family="Arial" font-size="14.00" fill="#000000">salt </text>
<text text-anchor="start" x="122.6704" y="-293.9" font-family="Arial" font-size="14.00" fill="#666666">[char(128)]</text>
<polygon fill="none" stroke="#000000" points="90,-252.5 90,-282.5 273,-282.5 273,-252.5 90,-252.5"/>
<text text-anchor="start" x="97" y="-263.9" font-family="Arial" font-size="14.00" fill="#000000">icon </text>
<text text-anchor="start" x="126.5624" y="-263.9" font-family="Arial" font-size="14.00" fill="#666666">[char(36)]</text>
<polygon fill="none" stroke="#000000" points="90,-222.5 90,-252.5 273,-252.5 273,-222.5 90,-222.5"/>
<text text-anchor="start" x="97" y="-233.9" font-family="Arial" font-size="14.00" fill="#000000">status </text>
<text text-anchor="start" x="138.237" y="-233.9" font-family="Arial" font-size="14.00" fill="#666666">[tinyint(4)]</text>
<polygon fill="none" stroke="#000000" points="90,-192.5 90,-222.5 273,-222.5 273,-192.5 90,-192.5"/>
<text text-anchor="start" x="97" y="-203.9" font-family="Arial" font-size="14.00" fill="#000000">bot </text>
<text text-anchor="start" x="120.3464" y="-203.9" font-family="Arial" font-size="14.00" fill="#666666">[tinyint(1)]</text>
<polygon fill="none" stroke="#000000" points="90,-162.5 90,-192.5 273,-192.5 273,-162.5 90,-162.5"/>
<text text-anchor="start" x="97" y="-173.9" font-family="Arial" font-size="14.00" fill="#000000">role </text>
<text text-anchor="start" x="124.223" y="-173.9" font-family="Arial" font-size="14.00" fill="#666666">[varchar(30)]</text>
<polygon fill="none" stroke="#000000" points="90,-132.5 90,-162.5 273,-162.5 273,-132.5 90,-132.5"/>
<text text-anchor="start" x="97" y="-143.9" font-family="Arial" font-size="14.00" fill="#000000">twitter_id </text>
<text text-anchor="start" x="156.8906" y="-143.9" font-family="Arial" font-size="14.00" fill="#666666">[varchar(15)]</text>
<polygon fill="none" stroke="#000000" points="90,-102.5 90,-132.5 273,-132.5 273,-102.5 90,-102.5"/>
<text text-anchor="start" x="97" y="-113.9" font-family="Arial" font-size="14.00" fill="#000000">last_online </text>
<text text-anchor="start" x="167.7966" y="-113.9" font-family="Arial" font-size="14.00" fill="#666666">[datetime(6)]</text>
<polygon fill="none" stroke="#000000" points="90,-72.5 90,-102.5 273,-102.5 273,-72.5 90,-72.5"/>
<text text-anchor="start" x="97" y="-83.9" font-family="Arial" font-size="14.00" fill="#000000">created_at </text>
<text text-anchor="start" x="167.028" y="-83.9" font-family="Arial" font-size="14.00" fill="#666666">[datetime(6)]</text>
<polygon fill="none" stroke="#000000" points="90,-42.5 90,-72.5 273,-72.5 273,-42.5 90,-42.5"/>
<text text-anchor="start" x="97" y="-53.9" font-family="Arial" font-size="14.00" fill="#000000">updated_at </text>
<text text-anchor="start" x="170.9326" y="-53.9" font-family="Arial" font-size="14.00" fill="#666666">[datetime(6)]</text>
</g>
<!-- unreads&#45;&gt;users -->
<g id="edge1" class="edge">
<title>unreads:user_id&#45;&gt;users:id</title>
<path fill="none" stroke="#000000" d="M229.9878,-696.7276C177.7199,-687.9346 217.0773,-605.9296 240,-547 247.8686,-526.7714 265.1314,-531.2286 273,-511 288.0648,-472.2713 314.5556,-417.5 273,-417.5"/>
<polygon fill="#000000" stroke="#000000" points="230.0296,-696.7308 239.6538,-701.9867 235.0148,-697.1154 240,-697.5 240,-697.5 240,-697.5 235.0148,-697.1154 240.3462,-693.0133 230.0296,-696.7308 230.0296,-696.7308"/>
<text text-anchor="start" x="6.945" y="-707.5" font-family="Arial" font-size="10.00" fill="#000000">FOREIGN KEY (user_id) REFERENCES users (id)</text>
</g>
<!-- messages -->
<g id="node3" class="node">
<title>messages</title>
<polygon fill="#efefef" stroke="transparent" points="377,-342.5 377,-377.5 570,-377.5 570,-342.5 377,-342.5"/>
<polygon fill="none" stroke="#000000" points="377,-342.5 377,-377.5 570,-377.5 570,-342.5 377,-342.5"/>
<text text-anchor="start" x="383.8646" y="-355.3" font-family="Arial Bold" font-size="18.00" fill="#000000">messages</text>
<text text-anchor="start" x="465.8816" y="-355.3" font-family="Arial" font-size="14.00" fill="#000000"> </text>
<text text-anchor="start" x="469.7722" y="-355.3" font-family="Arial" font-size="14.00" fill="#666666">[BASE TABLE]</text>
<polygon fill="none" stroke="#000000" points="377,-312.5 377,-342.5 570,-342.5 570,-312.5 377,-312.5"/>
<text text-anchor="start" x="384" y="-323.9" font-family="Arial" font-size="14.00" fill="#000000">id </text>
<text text-anchor="start" x="398.7798" y="-323.9" font-family="Arial" font-size="14.00" fill="#666666">[char(36)]</text>
<polygon fill="none" stroke="#000000" points="377,-282.5 377,-312.5 570,-312.5 570,-282.5 377,-282.5"/>
<text text-anchor="start" x="384" y="-293.9" font-family="Arial" font-size="14.00" fill="#000000">user_id </text>
<text text-anchor="start" x="433.7882" y="-293.9" font-family="Arial" font-size="14.00" fill="#666666">[char(36)]</text>
<polygon fill="none" stroke="#000000" points="377,-252.5 377,-282.5 570,-282.5 570,-252.5 377,-252.5"/>
<text text-anchor="start" x="384" y="-263.9" font-family="Arial" font-size="14.00" fill="#000000">channel_id </text>
<text text-anchor="start" x="455.582" y="-263.9" font-family="Arial" font-size="14.00" fill="#666666">[char(36)]</text>
<polygon fill="none" stroke="#000000" points="377,-222.5 377,-252.5 570,-252.5 570,-222.5 377,-222.5"/>
<text text-anchor="start" x="384" y="-233.9" font-family="Arial" font-size="14.00" fill="#000000">text </text>
<text text-anchor="start" x="410.4544" y="-233.9" font-family="Arial" font-size="14.00" fill="#666666">[text]</text>
<polygon fill="none" stroke="#000000" points="377,-192.5 377,-222.5 570,-222.5 570,-192.5 377,-192.5"/>
<text text-anchor="start" x="384" y="-203.9" font-family="Arial" font-size="14.00" fill="#000000">created_at </text>
<text text-anchor="start" x="454.028" y="-203.9" font-family="Arial" font-size="14.00" fill="#666666">[datetime(6)]</text>
<polygon fill="none" stroke="#000000" points="377,-162.5 377,-192.5 570,-192.5 570,-162.5 377,-162.5"/>
<text text-anchor="start" x="384" y="-173.9" font-family="Arial" font-size="14.00" fill="#000000">updated_at </text>
<text text-anchor="start" x="457.9326" y="-173.9" font-family="Arial" font-size="14.00" fill="#666666">[datetime(6)]</text>
<polygon fill="none" stroke="#000000" points="377,-132.5 377,-162.5 570,-162.5 570,-132.5 377,-132.5"/>
<text text-anchor="start" x="384" y="-143.9" font-family="Arial" font-size="14.00" fill="#000000">deleted_at </text>
<text text-anchor="start" x="453.2566" y="-143.9" font-family="Arial" font-size="14.00" fill="#666666">[datetime(6)]</text>
</g>
<!-- unreads&#45;&gt;messages -->
<g id="edge2" class="edge">
<title>unreads:message_id&#45;&gt;messages:id</title>
<path fill="none" stroke="#000000" d="M426.269,-666.9019C551.6392,-651.1011 228.6114,-327.5 377,-327.5"/>
<polygon fill="#000000" stroke="#000000" points="425.9831,-666.9185 415.7383,-663.0076 420.9915,-667.2092 416,-667.5 416,-667.5 416,-667.5 420.9915,-667.2092 416.2617,-671.9924 425.9831,-666.9185 425.9831,-666.9185"/>
<text text-anchor="start" x="422.827" y="-677.5" font-family="Arial" font-size="10.00" fill="#000000">FOREIGN KEY (message_id) REFERENCES messages (id)</text>
</g>
</g>
</svg>
