<?xml version="1.0" encoding="UTF-8" standalone="no"?>
<!DOCTYPE svg PUBLIC "-//W3C//DTD SVG 1.1//EN"
 "http://www.w3.org/Graphics/SVG/1.1/DTD/svg11.dtd">
<!-- Generated by graphviz version 2.40.1 (20161225.0304)
 -->
<!-- Title: unreads Pages: 1 -->
<svg width="706pt" height="742pt"
     viewBox="0.00 0.00 706.00 742.00" xmlns="http://www.w3.org/2000/svg">
<g id="graph0" class="graph" transform="scale(1 1) rotate(0) translate(4 738)">
<title>unreads</title>
<polygon fill="#ffffff" stroke="transparent" points="-4,4 -4,-738 702,-738 702,4 -4,4"/>
<!-- unreads -->
<g id="node1" class="node">
<title>unreads</title>
<polygon fill="#efefef" stroke="transparent" points="240,-652.5 240,-687.5 416,-687.5 416,-652.5 240,-652.5"/>
<polygon fill="none" stroke="#000000" points="240,-652.5 240,-687.5 416,-687.5 416,-652.5 240,-652.5"/>
<text text-anchor="start" x="246.8615" y="-665.3" font-family="Arial Bold" font-size="18.00" fill="#000000">unreads</text>
<text text-anchor="start" x="311.8847" y="-665.3" font-family="Arial" font-size="14.00" fill="#000000"> </text>
<text text-anchor="start" x="315.7753" y="-665.3" font-family="Arial" font-size="14.00" fill="#666666">[BASE TABLE]</text>
<polygon fill="none" stroke="#000000" points="240,-622.5 240,-652.5 416,-652.5 416,-622.5 240,-622.5"/>
<text text-anchor="start" x="247" y="-633.9" font-family="Arial" font-size="14.00" fill="#000000">user_id </text>
<text text-anchor="start" x="296.7882" y="-633.9" font-family="Arial" font-size="14.00" fill="#666666">[char(36)]</text>
<polygon fill="none" stroke="#000000" points="240,-592.5 240,-622.5 416,-622.5 416,-592.5 240,-592.5"/>
<text text-anchor="start" x="247" y="-603.9" font-family="Arial" font-size="14.00" fill="#000000">message_id </text>
<text text-anchor="start" x="326.3534" y="-603.9" font-family="Arial" font-size="14.00" fill="#666666">[char(36)]</text>
<polygon fill="none" stroke="#000000" points="240,-562.5 240,-592.5 416,-592.5 416,-562.5 240,-562.5"/>
<text text-anchor="start" x="247" y="-573.9" font-family="Arial" font-size="14.00" fill="#000000">noticeable </text>
<text text-anchor="start" x="314.69" y="-573.9" font-family="Arial" font-size="14.00" fill="#666666">[tinyint(1)]</text>
<polygon fill="none" stroke="#000000" points="240,-532.5 240,-562.5 416,-562.5 416,-532.5 240,-532.5"/>
<text text-anchor="start" x="247" y="-543.9" font-family="Arial" font-size="14.00" fill="#000000">created_at </text>
<text text-anchor="start" x="317.028" y="-543.9" font-family="Arial" font-size="14.00" fill="#666666">[datetime(6)]</text>
<polygon fill="none" stroke="#000000" stroke-width="3" points="238.5,-531.5 238.5,-689.5 417.5,-689.5 417.5,-531.5 238.5,-531.5"/>
</g>
<!-- users -->
<g id="node2" class="node">
<title>users</title>
<polygon fill="#efefef" stroke="transparent" points="90,-372.5 90,-407.5 273,-407.5 273,-372.5 90,-372.5"/>
<polygon fill="none" stroke="#000000" points="90,-372.5 90,-407.5 273,-407.5 273,-372.5 90,-372.5"/>
<text text-anchor="start" x="110.8708" y="-385.3" font-family="Arial Bold" font-size="18.00" fill="#000000">users</text>
<text text-anchor="start" x="154.8754" y="-385.3" font-family="Arial" font-size="14.00" fill="#000000"> </text>
<text text-anchor="start" x="158.766" y="-385.3" font-family="Arial" font-size="14.00" fill="#666666">[BASE TABLE]</text>
<polygon fill="none" stroke="#000000" points="90,-342.5 90,-372.5 273,-372.5 273,-342.5 90,-342.5"/>
<text text-anchor="start" x="97" y="-353.9" font-family="Arial" font-size="14.00" fill="#000000">id </text>
<text text-anchor="start" x="111.7798" y="-353.9" font-family="Arial" font-size="14.00" fill="#666666">[char(36)]</text>
<polygon fill="none" stroke="#000000" points="90,-312.5 90,-342.5 273,-342.5 273,-312.5 90,-312.5"/>
<text text-anchor="start" x="97" y="-323.9" font-family="Arial" font-size="14.00" fill="#000000">name </text>
<text text-anchor="start" x="135.899" y="-323.9" font-family="Arial" font-size="14.00" fill="#666666">[varchar(32)]</text>
<polygon fill="none" stroke="#000000" points="90,-282.5 90,-312.5 273,-312.5 273,-282.5 90,-282.5"/>
<text text-anchor="start" x="96.7104" y="-293.9" font-family="Arial" font-size="14.00" fill="#000000">display_name </text>
<text text-anchor="start" x="186.953" y="-293.9" font-family="Arial" font-size="14.00" fill="#666666">[varchar(64)]</text>
<polygon fill="none" stroke="#000000" points="90,-252.5 90,-282.5 273,-282.5 273,-252.5 90,-252.5"/>
<text text-anchor="start" x="97" y="-263.9" font-family="Arial" font-size="14.00" fill="#000000">password </text>
<text text-anchor="start" x="160.7882" y="-263.9" font-family="Arial" font-size="14.00" fill="#666666">[char(128)]</text>
<polygon fill="none" stroke="#000000" points="90,-222.5 90,-252.5 273,-252.5 273,-222.5 90,-222.5"/>
<text text-anchor="start" x="97" y="-233.9" font-family="Arial" font-size="14.00" fill="#000000">salt </text>
<text text-anchor="start" x="122.6704" y="-233.9" font-family="Arial" font-size="14.00" fill="#666666">[char(128)]</text>
<polygon fill="none" stroke="#000000" points="90,-192.5 90,-222.5 273,-222.5 273,-192.5 90,-192.5"/>
<text text-anchor="start" x="97" y="-203.9" font-family="Arial" font-size="14.00" fill="#000000">icon </text>
<text text-anchor="start" x="126.5624" y="-203.9" font-family="Arial" font-size="14.00" fill="#666666">[char(36)]</text>
<polygon fill="none" stroke="#000000" points="90,-162.5 90,-192.5 273,-192.5 273,-162.5 90,-162.5"/>
<text text-anchor="start" x="97" y="-173.9" font-family="Arial" font-size="14.00" fill="#000000">status </text>
<text text-anchor="start" x="138.237" y="-173.9" font-family="Arial" font-size="14.00" fill="#666666">[tinyint(4)]</text>
<polygon fill="none" stroke="#000000" points="90,-132.5 90,-162.5 273,-162.5 273,-132.5 90,-132.5"/>
<text text-anchor="start" x="97" y="-143.9" font-family="Arial" font-size="14.00" fill="#000000">bot </text>
<text text-anchor="start" x="120.3464" y="-143.9" font-family="Arial" font-size="14.00" fill="#666666">[tinyint(1)]</text>
<polygon fill="none" stroke="#000000" points="90,-102.5 90,-132.5 273,-132.5 273,-102.5 90,-102.5"/>
<text text-anchor="start" x="97" y="-113.9" font-family="Arial" font-size="14.00" fill="#000000">role </text>
<text text-anchor="start" x="124.223" y="-113.9" font-family="Arial" font-size="14.00" fill="#666666">[varchar(30)]</text>
<polygon fill="none" stroke="#000000" points="90,-72.5 90,-102.5 273,-102.5 273,-72.5 90,-72.5"/>
<text text-anchor="start" x="97" y="-83.9" font-family="Arial" font-size="14.00" fill="#000000">created_at </text>
<text text-anchor="start" x="167.028" y="-83.9" font-family="Arial" font-size="14.00" fill="#666666">[datetime(6)]</text>
<polygon fill="none" stroke="#000000" points="90,-42.5 90,-72.5 273,-72.5 273,-42.5 90,-42.5"/>
<text text-anchor="start" x="97" y="-53.9" font-family="Arial" font-size="14.00" fill="#000000">updated_at </text>
<text text-anchor="start" x="170.9326" y="-53.9" font-family="Arial" font-size="14.00" fill="#666666">[datetime(6)]</text>
</g>
<!-- unreads&#45;&gt;users -->
<g id="edge1" class="edge">
<title>unreads:user_id&#45;&gt;users:id</title>
<path fill="none" stroke="#000000" d="M229.9878,-636.7276C177.7199,-627.9346 217.0773,-545.9296 240,-487 247.8686,-466.7714 265.1314,-471.2286 273,-451 288.0648,-412.2713 314.5556,-357.5 273,-357.5"/>
<polygon fill="#000000" stroke="#000000" points="230.0296,-636.7308 239.6538,-641.9867 235.0148,-637.1154 240,-637.5 240,-637.5 240,-637.5 235.0148,-637.1154 240.3462,-633.0133 230.0296,-636.7308 230.0296,-636.7308"/>
<text text-anchor="start" x="6.945" y="-647.5" font-family="Arial" font-size="10.00" fill="#000000">FOREIGN KEY (user_id) REFERENCES users (id)</text>
</g>
<!-- messages -->
<g id="node3" class="node">
<title>messages</title>
<polygon fill="#efefef" stroke="transparent" points="377,-312.5 377,-347.5 570,-347.5 570,-312.5 377,-312.5"/>
<polygon fill="none" stroke="#000000" points="377,-312.5 377,-347.5 570,-347.5 570,-312.5 377,-312.5"/>
<text text-anchor="start" x="383.8646" y="-325.3" font-family="Arial Bold" font-size="18.00" fill="#000000">messages</text>
<text text-anchor="start" x="465.8816" y="-325.3" font-family="Arial" font-size="14.00" fill="#000000"> </text>
<text text-anchor="start" x="469.7722" y="-325.3" font-family="Arial" font-size="14.00" fill="#666666">[BASE TABLE]</text>
<polygon fill="none" stroke="#000000" points="377,-282.5 377,-312.5 570,-312.5 570,-282.5 377,-282.5"/>
<text text-anchor="start" x="384" y="-293.9" font-family="Arial" font-size="14.00" fill="#000000">id </text>
<text text-anchor="start" x="398.7798" y="-293.9" font-family="Arial" font-size="14.00" fill="#666666">[char(36)]</text>
<polygon fill="none" stroke="#000000" points="377,-252.5 377,-282.5 570,-282.5 570,-252.5 377,-252.5"/>
<text text-anchor="start" x="384" y="-263.9" font-family="Arial" font-size="14.00" fill="#000000">user_id </text>
<text text-anchor="start" x="433.7882" y="-263.9" font-family="Arial" font-size="14.00" fill="#666666">[char(36)]</text>
<polygon fill="none" stroke="#000000" points="377,-222.5 377,-252.5 570,-252.5 570,-222.5 377,-222.5"/>
<text text-anchor="start" x="384" y="-233.9" font-family="Arial" font-size="14.00" fill="#000000">channel_id </text>
<text text-anchor="start" x="455.582" y="-233.9" font-family="Arial" font-size="14.00" fill="#666666">[char(36)]</text>
<polygon fill="none" stroke="#000000" points="377,-192.5 377,-222.5 570,-222.5 570,-192.5 377,-192.5"/>
<text text-anchor="start" x="384" y="-203.9" font-family="Arial" font-size="14.00" fill="#000000">text </text>
<text text-anchor="start" x="410.4544" y="-203.9" font-family="Arial" font-size="14.00" fill="#666666">[text]</text>
<polygon fill="none" stroke="#000000" points="377,-162.5 377,-192.5 570,-192.5 570,-162.5 377,-162.5"/>
<text text-anchor="start" x="384" y="-173.9" font-family="Arial" font-size="14.00" fill="#000000">created_at </text>
<text text-anchor="start" x="454.028" y="-173.9" font-family="Arial" font-size="14.00" fill="#666666">[datetime(6)]</text>
<polygon fill="none" stroke="#000000" points="377,-132.5 377,-162.5 570,-162.5 570,-132.5 377,-132.5"/>
<text text-anchor="start" x="384" y="-143.9" font-family="Arial" font-size="14.00" fill="#000000">updated_at </text>
<text text-anchor="start" x="457.9326" y="-143.9" font-family="Arial" font-size="14.00" fill="#666666">[datetime(6)]</text>
<polygon fill="none" stroke="#000000" points="377,-102.5 377,-132.5 570,-132.5 570,-102.5 377,-102.5"/>
<text text-anchor="start" x="384" y="-113.9" font-family="Arial" font-size="14.00" fill="#000000">deleted_at </text>
<text text-anchor="start" x="453.2566" y="-113.9" font-family="Arial" font-size="14.00" fill="#666666">[datetime(6)]</text>
</g>
<!-- unreads&#45;&gt;messages -->
<g id="edge2" class="edge">
<title>unreads:message_id&#45;&gt;messages:id</title>
<path fill="none" stroke="#000000" d="M426.0508,-606.8648C538.4781,-591.3679 241.7976,-297.5 377,-297.5"/>
<polygon fill="#000000" stroke="#000000" points="425.9801,-606.8692 415.7161,-603.009 420.99,-607.1846 416,-607.5 416,-607.5 416,-607.5 420.99,-607.1846 416.2839,-611.991 425.9801,-606.8692 425.9801,-606.8692"/>
<text text-anchor="start" x="422.827" y="-617.5" font-family="Arial" font-size="10.00" fill="#000000">FOREIGN KEY (message_id) REFERENCES messages (id)</text>
</g>
</g>
</svg>
