<?xml version="1.0" encoding="UTF-8" standalone="no"?>
<!DOCTYPE svg PUBLIC "-//W3C//DTD SVG 1.1//EN"
 "http://www.w3.org/Graphics/SVG/1.1/DTD/svg11.dtd">
<!-- Generated by graphviz version 2.40.1 (20161225.0304)
 -->
<!-- Title: user_roles Pages: 1 -->
<svg width="1003pt" height="442pt"
 viewBox="0.00 0.00 1003.00 442.00" xmlns="http://www.w3.org/2000/svg" xmlns:xlink="http://www.w3.org/1999/xlink">
<g id="graph0" class="graph" transform="scale(1 1) rotate(0) translate(4 438)">
<title>user_roles</title>
<polygon fill="#ffffff" stroke="transparent" points="-4,4 -4,-438 999,-438 999,4 -4,4"/>
<!-- user_roles -->
<g id="node1" class="node">
<title>user_roles</title>
<polygon fill="#efefef" stroke="transparent" points="312,-135.5 312,-170.5 507,-170.5 507,-135.5 312,-135.5"/>
<polygon fill="none" stroke="#000000" points="312,-135.5 312,-170.5 507,-170.5 507,-135.5 312,-135.5"/>
<text text-anchor="start" x="318.8683" y="-148.3" font-family="Arial Bold" font-size="18.00" fill="#000000">user_roles</text>
<text text-anchor="start" x="402.8779" y="-148.3" font-family="Arial" font-size="14.00" fill="#000000"> </text>
<text text-anchor="start" x="406.7685" y="-148.3" font-family="Arial" font-size="14.00" fill="#666666">[BASE TABLE]</text>
<polygon fill="none" stroke="#000000" points="312,-105.5 312,-135.5 507,-135.5 507,-105.5 312,-105.5"/>
<text text-anchor="start" x="319" y="-116.9" font-family="Arial" font-size="14.00" fill="#000000">name </text>
<text text-anchor="start" x="357.899" y="-116.9" font-family="Arial" font-size="14.00" fill="#666666">[varchar(30)]</text>
<polygon fill="none" stroke="#000000" points="312,-75.5 312,-105.5 507,-105.5 507,-75.5 312,-75.5"/>
<text text-anchor="start" x="319" y="-86.9" font-family="Arial" font-size="14.00" fill="#000000">oauth2_scope </text>
<text text-anchor="start" x="410.8246" y="-86.9" font-family="Arial" font-size="14.00" fill="#666666">[tinyint(1)]</text>
<polygon fill="none" stroke="#000000" points="312,-45.5 312,-75.5 507,-75.5 507,-45.5 312,-45.5"/>
<text text-anchor="start" x="319" y="-56.9" font-family="Arial" font-size="14.00" fill="#000000">system </text>
<text text-anchor="start" x="367.2244" y="-56.9" font-family="Arial" font-size="14.00" fill="#666666">[tinyint(1)]</text>
<polygon fill="none" stroke="#000000" stroke-width="3" points="310,-44.5 310,-172.5 508,-172.5 508,-44.5 310,-44.5"/>
</g>
<!-- user_role_inheritances -->
<g id="node2" class="node">
<title>user_role_inheritances</title>
<polygon fill="#efefef" stroke="transparent" points="263,-355.5 263,-390.5 556,-390.5 556,-355.5 263,-355.5"/>
<polygon fill="none" stroke="#000000" points="263,-355.5 263,-390.5 556,-390.5 556,-355.5 263,-355.5"/>
<text text-anchor="start" x="269.8552" y="-368.3" font-family="Arial Bold" font-size="18.00" fill="#000000">user_role_inheritances</text>
<text text-anchor="start" x="451.891" y="-368.3" font-family="Arial" font-size="14.00" fill="#000000"> </text>
<text text-anchor="start" x="455.7816" y="-368.3" font-family="Arial" font-size="14.00" fill="#666666">[BASE TABLE]</text>
<polygon fill="none" stroke="#000000" points="263,-325.5 263,-355.5 556,-355.5 556,-325.5 263,-325.5"/>
<text text-anchor="start" x="270" y="-336.9" font-family="Arial" font-size="14.00" fill="#000000">role </text>
<text text-anchor="start" x="297.223" y="-336.9" font-family="Arial" font-size="14.00" fill="#666666">[varchar(30)]</text>
<polygon fill="none" stroke="#000000" points="263,-295.5 263,-325.5 556,-325.5 556,-295.5 263,-295.5"/>
<text text-anchor="start" x="270" y="-306.9" font-family="Arial" font-size="14.00" fill="#000000">sub_role </text>
<text text-anchor="start" x="327.5708" y="-306.9" font-family="Arial" font-size="14.00" fill="#666666">[varchar(30)]</text>
</g>
<!-- user_role_inheritances&#45;&gt;user_roles -->
<g id="edge1" class="edge">
<title>user_role_inheritances:role&#45;&gt;user_roles:name</title>
<path fill="none" stroke="#000000" d="M252.9837,-339.7034C166.3349,-325.3032 215.3481,-120.5 312,-120.5"/>
<polygon fill="#000000" stroke="#000000" points="253.0315,-339.7071 262.6432,-344.9858 258.0157,-340.1035 263,-340.5 263,-340.5 263,-340.5 258.0157,-340.1035 263.3568,-336.0142 253.0315,-339.7071 253.0315,-339.7071"/>
<text text-anchor="start" x="7.2775" y="-350.5" font-family="Arial" font-size="10.00" fill="#000000">FOREIGN KEY (role) REFERENCES user_roles (name)</text>
</g>
<!-- user_role_inheritances&#45;&gt;user_roles -->
<g id="edge2" class="edge">
<title>user_role_inheritances:sub_role&#45;&gt;user_roles:name</title>
<path fill="none" stroke="#000000" d="M409.0593,-285.4387C400.4121,-243.0175 334.5546,-263.9651 312,-217 293.433,-178.3383 269.1111,-120.5 312,-120.5"/>
<polygon fill="#000000" stroke="#000000" points="409.069,-285.5434 405.5195,-295.9189 409.5345,-290.5217 410,-295.5 410,-295.5 410,-295.5 409.5345,-290.5217 414.4805,-295.0811 409.069,-285.5434 409.069,-285.5434"/>
<text text-anchor="start" x="132.439" y="-305.5" font-family="Arial" font-size="10.00" fill="#000000">FOREIGN KEY (sub_role) REFERENCES user_roles (name)</text>
</g>
<!-- user_role_permissions -->
<g id="node3" class="node">
<title>user_role_permissions</title>
<polygon fill="#efefef" stroke="transparent" points="660,-355.5 660,-390.5 952,-390.5 952,-355.5 660,-355.5"/>
<polygon fill="none" stroke="#000000" points="660,-355.5 660,-390.5 952,-390.5 952,-355.5 660,-355.5"/>
<text text-anchor="start" x="666.8664" y="-368.3" font-family="Arial Bold" font-size="18.00" fill="#000000">user_role_permissions</text>
<text text-anchor="start" x="847.8798" y="-368.3" font-family="Arial" font-size="14.00" fill="#000000"> </text>
<text text-anchor="start" x="851.7704" y="-368.3" font-family="Arial" font-size="14.00" fill="#666666">[BASE TABLE]</text>
<polygon fill="none" stroke="#000000" points="660,-325.5 660,-355.5 952,-355.5 952,-325.5 660,-325.5"/>
<text text-anchor="start" x="667" y="-336.9" font-family="Arial" font-size="14.00" fill="#000000">role </text>
<text text-anchor="start" x="694.223" y="-336.9" font-family="Arial" font-size="14.00" fill="#666666">[varchar(30)]</text>
<polygon fill="none" stroke="#000000" points="660,-295.5 660,-325.5 952,-325.5 952,-295.5 660,-295.5"/>
<text text-anchor="start" x="667" y="-306.9" font-family="Arial" font-size="14.00" fill="#000000">permission </text>
<text text-anchor="start" x="738.5554" y="-306.9" font-family="Arial" font-size="14.00" fill="#666666">[varchar(30)]</text>
</g>
<!-- user_role_permissions&#45;&gt;user_roles -->
<g id="edge3" class="edge">
<title>user_role_permissions:role&#45;&gt;user_roles:name</title>
<path fill="none" stroke="#000000" d="M649.682,-339.4318C617.626,-331.9978 631.1346,-287.273 608,-253 566.5725,-191.6267 581.0467,-120.5 507,-120.5"/>
<polygon fill="#000000" stroke="#000000" points="650.0532,-339.4701 659.5366,-344.9761 655.0266,-339.9851 660,-340.5 660,-340.5 660,-340.5 655.0266,-339.9851 660.4634,-336.0239 650.0532,-339.4701 650.0532,-339.4701"/>
<text text-anchor="start" x="667.2775" y="-350.5" font-family="Arial" font-size="10.00" fill="#000000">FOREIGN KEY (role) REFERENCES user_roles (name)</text>
</g>
</g>
</svg>
