<?xml version="1.0" encoding="UTF-8" standalone="no"?>
<!DOCTYPE svg PUBLIC "-//W3C//DTD SVG 1.1//EN"
 "http://www.w3.org/Graphics/SVG/1.1/DTD/svg11.dtd">
<!-- Generated by graphviz version 2.40.1 (20161225.0304)
 -->
<!-- Title: users_subscribe_channels Pages: 1 -->
<svg width="843pt" height="772pt"
     viewBox="0.00 0.00 843.00 772.00" xmlns="http://www.w3.org/2000/svg">
<g id="graph0" class="graph" transform="scale(1 1) rotate(0) translate(4 768)">
<title>users_subscribe_channels</title>
<polygon fill="#ffffff" stroke="transparent" points="-4,4 -4,-768 839,-768 839,4 -4,4"/>
<!-- users_subscribe_channels -->
<g id="node1" class="node">
<title>users_subscribe_channels</title>
<polygon fill="#efefef" stroke="transparent" points="240,-682.5 240,-717.5 564,-717.5 564,-682.5 240,-682.5"/>
<polygon fill="none" stroke="#000000" points="240,-682.5 240,-717.5 564,-717.5 564,-682.5 240,-682.5"/>
<text text-anchor="start" x="246.8464" y="-695.3" font-family="Arial Bold" font-size="18.00" fill="#000000">users_subscribe_channels</text>
<text text-anchor="start" x="459.8998" y="-695.3" font-family="Arial" font-size="14.00" fill="#000000"> </text>
<text text-anchor="start" x="463.7904" y="-695.3" font-family="Arial" font-size="14.00" fill="#666666">[BASE TABLE]</text>
<polygon fill="none" stroke="#000000" points="240,-652.5 240,-682.5 564,-682.5 564,-652.5 240,-652.5"/>
<text text-anchor="start" x="247" y="-663.9" font-family="Arial" font-size="14.00" fill="#000000">user_id </text>
<text text-anchor="start" x="296.7882" y="-663.9" font-family="Arial" font-size="14.00" fill="#666666">[char(36)]</text>
<polygon fill="none" stroke="#000000" points="240,-622.5 240,-652.5 564,-652.5 564,-622.5 240,-622.5"/>
<text text-anchor="start" x="247" y="-633.9" font-family="Arial" font-size="14.00" fill="#000000">channel_id </text>
<text text-anchor="start" x="318.582" y="-633.9" font-family="Arial" font-size="14.00" fill="#666666">[char(36)]</text>
<polygon fill="none" stroke="#000000" points="240,-592.5 240,-622.5 564,-622.5 564,-592.5 240,-592.5"/>
<text text-anchor="start" x="247" y="-603.9" font-family="Arial" font-size="14.00" fill="#000000">mark </text>
<text text-anchor="start" x="281.9944" y="-603.9" font-family="Arial" font-size="14.00" fill="#666666">[tinyint(1)]</text>
<polygon fill="none" stroke="#000000" points="240,-562.5 240,-592.5 564,-592.5 564,-562.5 240,-562.5"/>
<text text-anchor="start" x="247" y="-573.9" font-family="Arial" font-size="14.00" fill="#000000">notify </text>
<text text-anchor="start" x="284.3436" y="-573.9" font-family="Arial" font-size="14.00" fill="#666666">[tinyint(1)]</text>
<polygon fill="none" stroke="#000000" stroke-width="3" points="238.5,-561.5 238.5,-719.5 565.5,-719.5 565.5,-561.5 238.5,-561.5"/>
</g>
<!-- users -->
<g id="node2" class="node">
<title>users</title>
<polygon fill="#efefef" stroke="transparent" points="167,-387.5 167,-422.5 350,-422.5 350,-387.5 167,-387.5"/>
<polygon fill="none" stroke="#000000" points="167,-387.5 167,-422.5 350,-422.5 350,-387.5 167,-387.5"/>
<text text-anchor="start" x="187.8708" y="-400.3" font-family="Arial Bold" font-size="18.00" fill="#000000">users</text>
<text text-anchor="start" x="231.8754" y="-400.3" font-family="Arial" font-size="14.00" fill="#000000"> </text>
<text text-anchor="start" x="235.766" y="-400.3" font-family="Arial" font-size="14.00" fill="#666666">[BASE TABLE]</text>
<polygon fill="none" stroke="#000000" points="167,-357.5 167,-387.5 350,-387.5 350,-357.5 167,-357.5"/>
<text text-anchor="start" x="174" y="-368.9" font-family="Arial" font-size="14.00" fill="#000000">id </text>
<text text-anchor="start" x="188.7798" y="-368.9" font-family="Arial" font-size="14.00" fill="#666666">[char(36)]</text>
<polygon fill="none" stroke="#000000" points="167,-327.5 167,-357.5 350,-357.5 350,-327.5 167,-327.5"/>
<text text-anchor="start" x="174" y="-338.9" font-family="Arial" font-size="14.00" fill="#000000">name </text>
<text text-anchor="start" x="212.899" y="-338.9" font-family="Arial" font-size="14.00" fill="#666666">[varchar(32)]</text>
<polygon fill="none" stroke="#000000" points="167,-297.5 167,-327.5 350,-327.5 350,-297.5 167,-297.5"/>
<text text-anchor="start" x="173.7104" y="-308.9" font-family="Arial" font-size="14.00" fill="#000000">display_name </text>
<text text-anchor="start" x="263.953" y="-308.9" font-family="Arial" font-size="14.00" fill="#666666">[varchar(64)]</text>
<polygon fill="none" stroke="#000000" points="167,-267.5 167,-297.5 350,-297.5 350,-267.5 167,-267.5"/>
<text text-anchor="start" x="174" y="-278.9" font-family="Arial" font-size="14.00" fill="#000000">password </text>
<text text-anchor="start" x="237.7882" y="-278.9" font-family="Arial" font-size="14.00" fill="#666666">[char(128)]</text>
<polygon fill="none" stroke="#000000" points="167,-237.5 167,-267.5 350,-267.5 350,-237.5 167,-237.5"/>
<text text-anchor="start" x="174" y="-248.9" font-family="Arial" font-size="14.00" fill="#000000">salt </text>
<text text-anchor="start" x="199.6704" y="-248.9" font-family="Arial" font-size="14.00" fill="#666666">[char(128)]</text>
<polygon fill="none" stroke="#000000" points="167,-207.5 167,-237.5 350,-237.5 350,-207.5 167,-207.5"/>
<text text-anchor="start" x="174" y="-218.9" font-family="Arial" font-size="14.00" fill="#000000">icon </text>
<text text-anchor="start" x="203.5624" y="-218.9" font-family="Arial" font-size="14.00" fill="#666666">[char(36)]</text>
<polygon fill="none" stroke="#000000" points="167,-177.5 167,-207.5 350,-207.5 350,-177.5 167,-177.5"/>
<text text-anchor="start" x="174" y="-188.9" font-family="Arial" font-size="14.00" fill="#000000">status </text>
<text text-anchor="start" x="215.237" y="-188.9" font-family="Arial" font-size="14.00" fill="#666666">[tinyint(4)]</text>
<polygon fill="none" stroke="#000000" points="167,-147.5 167,-177.5 350,-177.5 350,-147.5 167,-147.5"/>
<text text-anchor="start" x="174" y="-158.9" font-family="Arial" font-size="14.00" fill="#000000">bot </text>
<text text-anchor="start" x="197.3464" y="-158.9" font-family="Arial" font-size="14.00" fill="#666666">[tinyint(1)]</text>
<polygon fill="none" stroke="#000000" points="167,-117.5 167,-147.5 350,-147.5 350,-117.5 167,-117.5"/>
<text text-anchor="start" x="174" y="-128.9" font-family="Arial" font-size="14.00" fill="#000000">role </text>
<text text-anchor="start" x="201.223" y="-128.9" font-family="Arial" font-size="14.00" fill="#666666">[varchar(30)]</text>
<polygon fill="none" stroke="#000000" points="167,-87.5 167,-117.5 350,-117.5 350,-87.5 167,-87.5"/>
<text text-anchor="start" x="174" y="-98.9" font-family="Arial" font-size="14.00" fill="#000000">created_at </text>
<text text-anchor="start" x="244.028" y="-98.9" font-family="Arial" font-size="14.00" fill="#666666">[datetime(6)]</text>
<polygon fill="none" stroke="#000000" points="167,-57.5 167,-87.5 350,-87.5 350,-57.5 167,-57.5"/>
<text text-anchor="start" x="174" y="-68.9" font-family="Arial" font-size="14.00" fill="#000000">updated_at </text>
<text text-anchor="start" x="247.9326" y="-68.9" font-family="Arial" font-size="14.00" fill="#666666">[datetime(6)]</text>
</g>
<!-- users_subscribe_channels&#45;&gt;users -->
<g id="edge1" class="edge">
<title>users_subscribe_channels:user_id&#45;&gt;users:id</title>
<path fill="none" stroke="#000000" d="M229.8882,-666.6771C176.5047,-657.3179 205.9675,-570.2911 240,-517 269.0038,-471.5833 320.9962,-511.4167 350,-466 372.3663,-430.9769 391.5556,-372.5 350,-372.5"/>
<polygon fill="#000000" stroke="#000000" points="230.033,-666.6887 239.6349,-671.9852 235.0165,-667.0944 240,-667.5 240,-667.5 240,-667.5 235.0165,-667.0944 240.3651,-663.0148 230.033,-666.6887 230.033,-666.6887"/>
<text text-anchor="start" x="6.945" y="-677.5" font-family="Arial" font-size="10.00" fill="#000000">FOREIGN KEY (user_id) REFERENCES users (id)</text>
</g>
<!-- channels -->
<g id="node3" class="node">
<title>channels</title>
<polygon fill="#efefef" stroke="transparent" points="454,-402.5 454,-437.5 637,-437.5 637,-402.5 454,-402.5"/>
<polygon fill="none" stroke="#000000" points="454,-402.5 454,-437.5 637,-437.5 637,-402.5 454,-402.5"/>
<text text-anchor="start" x="460.8605" y="-415.3" font-family="Arial Bold" font-size="18.00" fill="#000000">channels</text>
<text text-anchor="start" x="532.8857" y="-415.3" font-family="Arial" font-size="14.00" fill="#000000"> </text>
<text text-anchor="start" x="536.7763" y="-415.3" font-family="Arial" font-size="14.00" fill="#666666">[BASE TABLE]</text>
<polygon fill="none" stroke="#000000" points="454,-372.5 454,-402.5 637,-402.5 637,-372.5 454,-372.5"/>
<text text-anchor="start" x="461" y="-383.9" font-family="Arial" font-size="14.00" fill="#000000">id </text>
<text text-anchor="start" x="475.7798" y="-383.9" font-family="Arial" font-size="14.00" fill="#666666">[char(36)]</text>
<polygon fill="none" stroke="#000000" points="454,-342.5 454,-372.5 637,-372.5 637,-342.5 454,-342.5"/>
<text text-anchor="start" x="461" y="-353.9" font-family="Arial" font-size="14.00" fill="#000000">name </text>
<text text-anchor="start" x="499.899" y="-353.9" font-family="Arial" font-size="14.00" fill="#666666">[varchar(20)]</text>
<polygon fill="none" stroke="#000000" points="454,-312.5 454,-342.5 637,-342.5 637,-312.5 454,-312.5"/>
<text text-anchor="start" x="461" y="-323.9" font-family="Arial" font-size="14.00" fill="#000000">parent_id </text>
<text text-anchor="start" x="523.244" y="-323.9" font-family="Arial" font-size="14.00" fill="#666666">[char(36)]</text>
<polygon fill="none" stroke="#000000" points="454,-282.5 454,-312.5 637,-312.5 637,-282.5 454,-282.5"/>
<text text-anchor="start" x="461" y="-293.9" font-family="Arial" font-size="14.00" fill="#000000">topic </text>
<text text-anchor="start" x="494.453" y="-293.9" font-family="Arial" font-size="14.00" fill="#666666">[text]</text>
<polygon fill="none" stroke="#000000" points="454,-252.5 454,-282.5 637,-282.5 637,-252.5 454,-252.5"/>
<text text-anchor="start" x="461" y="-263.9" font-family="Arial" font-size="14.00" fill="#000000">is_forced </text>
<text text-anchor="start" x="521.6788" y="-263.9" font-family="Arial" font-size="14.00" fill="#666666">[tinyint(1)]</text>
<polygon fill="none" stroke="#000000" points="454,-222.5 454,-252.5 637,-252.5 637,-222.5 454,-222.5"/>
<text text-anchor="start" x="461" y="-233.9" font-family="Arial" font-size="14.00" fill="#000000">is_public </text>
<text text-anchor="start" x="519.3408" y="-233.9" font-family="Arial" font-size="14.00" fill="#666666">[tinyint(1)]</text>
<polygon fill="none" stroke="#000000" points="454,-192.5 454,-222.5 637,-222.5 637,-192.5 454,-192.5"/>
<text text-anchor="start" x="461" y="-203.9" font-family="Arial" font-size="14.00" fill="#000000">is_visible </text>
<text text-anchor="start" x="521.6648" y="-203.9" font-family="Arial" font-size="14.00" fill="#666666">[tinyint(1)]</text>
<polygon fill="none" stroke="#000000" points="454,-162.5 454,-192.5 637,-192.5 637,-162.5 454,-162.5"/>
<text text-anchor="start" x="461" y="-173.9" font-family="Arial" font-size="14.00" fill="#000000">creator_id </text>
<text text-anchor="start" x="527.122" y="-173.9" font-family="Arial" font-size="14.00" fill="#666666">[char(36)]</text>
<polygon fill="none" stroke="#000000" points="454,-132.5 454,-162.5 637,-162.5 637,-132.5 454,-132.5"/>
<text text-anchor="start" x="461" y="-143.9" font-family="Arial" font-size="14.00" fill="#000000">updater_id </text>
<text text-anchor="start" x="531.0266" y="-143.9" font-family="Arial" font-size="14.00" fill="#666666">[char(36)]</text>
<polygon fill="none" stroke="#000000" points="454,-102.5 454,-132.5 637,-132.5 637,-102.5 454,-102.5"/>
<text text-anchor="start" x="461" y="-113.9" font-family="Arial" font-size="14.00" fill="#000000">created_at </text>
<text text-anchor="start" x="531.028" y="-113.9" font-family="Arial" font-size="14.00" fill="#666666">[datetime(6)]</text>
<polygon fill="none" stroke="#000000" points="454,-72.5 454,-102.5 637,-102.5 637,-72.5 454,-72.5"/>
<text text-anchor="start" x="461" y="-83.9" font-family="Arial" font-size="14.00" fill="#000000">updated_at </text>
<text text-anchor="start" x="534.9326" y="-83.9" font-family="Arial" font-size="14.00" fill="#666666">[datetime(6)]</text>
<polygon fill="none" stroke="#000000" points="454,-42.5 454,-72.5 637,-72.5 637,-42.5 454,-42.5"/>
<text text-anchor="start" x="461" y="-53.9" font-family="Arial" font-size="14.00" fill="#000000">deleted_at </text>
<text text-anchor="start" x="530.2566" y="-53.9" font-family="Arial" font-size="14.00" fill="#666666">[datetime(6)]</text>
</g>
<!-- users_subscribe_channels&#45;&gt;channels -->
<g id="edge2" class="edge">
<title>users_subscribe_channels:channel_id&#45;&gt;channels:id</title>
<path fill="none" stroke="#000000" d="M574.1975,-636.3945C614.3986,-626.8193 593.2229,-557.312 564,-517 533.8083,-475.3516 484.1917,-522.6484 454,-481 429.61,-447.3549 412.4444,-387.5 454,-387.5"/>
<polygon fill="#000000" stroke="#000000" points="573.9417,-636.4221 563.5149,-633.0262 568.9709,-636.9611 564,-637.5 564,-637.5 564,-637.5 568.9709,-636.9611 564.4851,-641.9738 573.9417,-636.4221 573.9417,-636.4221"/>
<text text-anchor="start" x="571.378" y="-647.5" font-family="Arial" font-size="10.00" fill="#000000">FOREIGN KEY (channel_id) REFERENCES channels (id)</text>
</g>
</g>
</svg>
