<?xml version="1.0" encoding="UTF-8" standalone="no"?>
<!DOCTYPE svg PUBLIC "-//W3C//DTD SVG 1.1//EN"
 "http://www.w3.org/Graphics/SVG/1.1/DTD/svg11.dtd">
<!-- Generated by graphviz version 2.40.1 (20161225.0304)
 -->
<!-- Title: user_role_permissions Pages: 1 -->
<svg width="624pt" height="440pt"
     viewBox="0.00 0.00 623.50 440.00" xmlns="http://www.w3.org/2000/svg">
<g id="graph0" class="graph" transform="scale(1 1) rotate(0) translate(4 436)">
<title>user_role_permissions</title>
<polygon fill="#ffffff" stroke="transparent" points="-4,4 -4,-436 619.5,-436 619.5,4 -4,4"/>
<!-- user_role_permissions -->
<g id="node1" class="node">
<title>user_role_permissions</title>
<polygon fill="#efefef" stroke="transparent" points="263,-352 263,-386 570,-386 570,-352 263,-352"/>
<polygon fill="none" stroke="#000000" points="263,-352 263,-386 570,-386 570,-352 263,-352"/>
<text text-anchor="start" x="269.9678" y="-365.6" font-family="Arial Bold" font-size="18.00" fill="#000000">user_role_permissions</text>
<text text-anchor="start" x="467.0625" y="-365.6" font-family="Arial" font-size="14.00" fill="#000000"> </text>
<text text-anchor="start" x="470.9521" y="-365.6" font-family="Arial" font-size="14.00" fill="#666666">[BASE TABLE]</text>
<polygon fill="none" stroke="#000000" points="263,-322 263,-352 570,-352 570,-322 263,-322"/>
<text text-anchor="start" x="270" y="-334.8" font-family="Arial" font-size="14.00" fill="#000000">role </text>
<text text-anchor="start" x="297.2344" y="-334.8" font-family="Arial" font-size="14.00" fill="#666666">[varchar(30)]</text>
<polygon fill="none" stroke="#000000" points="263,-292 263,-322 570,-322 570,-292 263,-292"/>
<text text-anchor="start" x="270" y="-304.8" font-family="Arial" font-size="14.00" fill="#000000">permission </text>
<text text-anchor="start" x="341.5791" y="-304.8" font-family="Arial" font-size="14.00" fill="#666666">[varchar(30)]</text>
<polygon fill="none" stroke="#000000" stroke-width="3" points="261,-290.5 261,-387.5 571,-387.5 571,-290.5 261,-290.5"/>
</g>
<!-- user_roles -->
<g id="node2" class="node">
<title>user_roles</title>
<polygon fill="#efefef" stroke="transparent" points="316,-133 316,-167 517,-167 517,-133 316,-133"/>
<polygon fill="none" stroke="#000000" points="316,-133 316,-167 517,-167 517,-133 316,-133"/>
<text text-anchor="start" x="322.9878" y="-146.6" font-family="Arial Bold" font-size="18.00" fill="#000000">user_roles</text>
<text text-anchor="start" x="414.0425" y="-146.6" font-family="Arial" font-size="14.00" fill="#000000"> </text>
<text text-anchor="start" x="417.9321" y="-146.6" font-family="Arial" font-size="14.00" fill="#666666">[BASE TABLE]</text>
<polygon fill="none" stroke="#000000" points="316,-103 316,-133 517,-133 517,-103 316,-103"/>
<text text-anchor="start" x="323" y="-115.8" font-family="Arial" font-size="14.00" fill="#000000">name </text>
<text text-anchor="start" x="361.9102" y="-115.8" font-family="Arial" font-size="14.00" fill="#666666">[varchar(30)]</text>
<polygon fill="none" stroke="#000000" points="316,-73 316,-103 517,-103 517,-73 316,-73"/>
<text text-anchor="start" x="323" y="-85.8" font-family="Arial" font-size="14.00" fill="#000000">oauth2_scope </text>
<text text-anchor="start" x="414.8545" y="-85.8" font-family="Arial" font-size="14.00" fill="#666666">[tinyint(1)]</text>
<polygon fill="none" stroke="#000000" points="316,-43 316,-73 517,-73 517,-43 316,-43"/>
<text text-anchor="start" x="323" y="-55.8" font-family="Arial" font-size="14.00" fill="#000000">system </text>
<text text-anchor="start" x="371.2275" y="-55.8" font-family="Arial" font-size="14.00" fill="#666666">[tinyint(1)]</text>
</g>
<!-- user_role_permissions&#45;&gt;user_roles -->
<g id="edge1" class="edge">
<title>user_role_permissions:role&#45;&gt;user_roles:name</title>
<path fill="none" stroke="#000000" d="M253.0013,-336.207C166.6417,-321.8722 219.3775,-118 316,-118"/>
<polygon fill="#000000" stroke="#000000" points="253.0313,-336.2093 262.6442,-341.4859 258.0157,-336.6046 263,-337 263,-337 263,-337 258.0157,-336.6046 263.3558,-332.5141 253.0313,-336.2093 253.0313,-336.2093"/>
<text text-anchor="start" x="7.3394" y="-346.5" font-family="Arial" font-size="10.00" fill="#000000">FOREIGN KEY (role) REFERENCES user_roles (name)</text>
</g>
</g>
</svg>
