<?xml version="1.0" encoding="UTF-8" standalone="no"?>
<!DOCTYPE svg PUBLIC "-//W3C//DTD SVG 1.1//EN"
 "http://www.w3.org/Graphics/SVG/1.1/DTD/svg11.dtd">
<!-- Generated by graphviz version 2.40.1 (20161225.0304)
 -->
<!-- Title: user_group_members Pages: 1 -->
<svg width="618pt" height="592pt"
 viewBox="0.00 0.00 617.50 592.00" xmlns="http://www.w3.org/2000/svg" xmlns:xlink="http://www.w3.org/1999/xlink">
<g id="graph0" class="graph" transform="scale(1 1) rotate(0) translate(4 588)">
<title>user_group_members</title>
<polygon fill="#ffffff" stroke="transparent" points="-4,4 -4,-588 613.5,-588 613.5,4 -4,4"/>
<!-- user_group_members -->
<g id="node1" class="node">
<title>user_group_members</title>
<polygon fill="#efefef" stroke="transparent" points="277,-502.5 277,-537.5 564,-537.5 564,-502.5 277,-502.5"/>
<polygon fill="none" stroke="#000000" points="277,-502.5 277,-537.5 564,-537.5 564,-502.5 277,-502.5"/>
<text text-anchor="start" x="283.8585" y="-515.3" font-family="Arial Bold" font-size="18.00" fill="#000000">user_group_members</text>
<text text-anchor="start" x="459.8877" y="-515.3" font-family="Arial" font-size="14.00" fill="#000000"> </text>
<text text-anchor="start" x="463.7783" y="-515.3" font-family="Arial" font-size="14.00" fill="#666666">[BASE TABLE]</text>
<polygon fill="none" stroke="#000000" points="277,-472.5 277,-502.5 564,-502.5 564,-472.5 277,-472.5"/>
<text text-anchor="start" x="284" y="-483.9" font-family="Arial" font-size="14.00" fill="#000000">group_id </text>
<text text-anchor="start" x="342.3534" y="-483.9" font-family="Arial" font-size="14.00" fill="#666666">[char(36)]</text>
<polygon fill="none" stroke="#000000" points="277,-442.5 277,-472.5 564,-472.5 564,-442.5 277,-442.5"/>
<text text-anchor="start" x="284" y="-453.9" font-family="Arial" font-size="14.00" fill="#000000">user_id </text>
<text text-anchor="start" x="333.7882" y="-453.9" font-family="Arial" font-size="14.00" fill="#666666">[char(36)]</text>
<polygon fill="none" stroke="#000000" points="277,-412.5 277,-442.5 564,-442.5 564,-412.5 277,-412.5"/>
<text text-anchor="start" x="284" y="-423.9" font-family="Arial" font-size="14.00" fill="#000000">role </text>
<text text-anchor="start" x="311.223" y="-423.9" font-family="Arial" font-size="14.00" fill="#666666">[varchar(100)]</text>
<polygon fill="none" stroke="#000000" stroke-width="3" points="275,-411.5 275,-539.5 565,-539.5 565,-411.5 275,-411.5"/>
</g>
<!-- user_groups -->
<g id="node2" class="node">
<title>user_groups</title>
<polygon fill="#efefef" stroke="transparent" points="315,-252.5 315,-287.5 526,-287.5 526,-252.5 315,-252.5"/>
<polygon fill="none" stroke="#000000" points="315,-252.5 315,-287.5 526,-287.5 526,-252.5 315,-252.5"/>
<text text-anchor="start" x="321.8592" y="-265.3" font-family="Arial Bold" font-size="18.00" fill="#000000">user_groups</text>
<text text-anchor="start" x="421.887" y="-265.3" font-family="Arial" font-size="14.00" fill="#000000"> </text>
<text text-anchor="start" x="425.7776" y="-265.3" font-family="Arial" font-size="14.00" fill="#666666">[BASE TABLE]</text>
<polygon fill="none" stroke="#000000" points="315,-222.5 315,-252.5 526,-252.5 526,-222.5 315,-222.5"/>
<text text-anchor="start" x="322" y="-233.9" font-family="Arial" font-size="14.00" fill="#000000">id </text>
<text text-anchor="start" x="336.7798" y="-233.9" font-family="Arial" font-size="14.00" fill="#666666">[char(36)]</text>
<polygon fill="none" stroke="#000000" points="315,-192.5 315,-222.5 526,-222.5 526,-192.5 315,-192.5"/>
<text text-anchor="start" x="322" y="-203.9" font-family="Arial" font-size="14.00" fill="#000000">name </text>
<text text-anchor="start" x="360.899" y="-203.9" font-family="Arial" font-size="14.00" fill="#666666">[varchar(30)]</text>
<polygon fill="none" stroke="#000000" points="315,-162.5 315,-192.5 526,-192.5 526,-162.5 315,-162.5"/>
<text text-anchor="start" x="322" y="-173.9" font-family="Arial" font-size="14.00" fill="#000000">description </text>
<text text-anchor="start" x="393.568" y="-173.9" font-family="Arial" font-size="14.00" fill="#666666">[text]</text>
<polygon fill="none" stroke="#000000" points="315,-132.5 315,-162.5 526,-162.5 526,-132.5 315,-132.5"/>
<text text-anchor="start" x="322" y="-143.9" font-family="Arial" font-size="14.00" fill="#000000">type </text>
<text text-anchor="start" x="352.3464" y="-143.9" font-family="Arial" font-size="14.00" fill="#666666">[varchar(30)]</text>
<polygon fill="none" stroke="#000000" points="315,-102.5 315,-132.5 526,-132.5 526,-102.5 315,-102.5"/>
<text text-anchor="start" x="322" y="-113.9" font-family="Arial" font-size="14.00" fill="#000000">icon </text>
<text text-anchor="start" x="351.5624" y="-113.9" font-family="Arial" font-size="14.00" fill="#666666">[char(36)]</text>
<polygon fill="none" stroke="#000000" points="315,-72.5 315,-102.5 526,-102.5 526,-72.5 315,-72.5"/>
<text text-anchor="start" x="322" y="-83.9" font-family="Arial" font-size="14.00" fill="#000000">created_at </text>
<text text-anchor="start" x="392.028" y="-83.9" font-family="Arial" font-size="14.00" fill="#666666">[datetime(6)]</text>
<polygon fill="none" stroke="#000000" points="315,-42.5 315,-72.5 526,-72.5 526,-42.5 315,-42.5"/>
<text text-anchor="start" x="322" y="-53.9" font-family="Arial" font-size="14.00" fill="#000000">updated_at </text>
<text text-anchor="start" x="395.9326" y="-53.9" font-family="Arial" font-size="14.00" fill="#666666">[datetime(6)]</text>
</g>
<!-- user_group_members&#45;&gt;user_groups -->
<g id="edge1" class="edge">
<title>user_group_members:group_id&#45;&gt;user_groups:id</title>
<path fill="none" stroke="#000000" d="M266.902,-486.7828C167.0603,-472.1191 206.1248,-237.5 315,-237.5"/>
<polygon fill="#000000" stroke="#000000" points="267.0251,-486.7915 276.6812,-491.9887 272.0126,-487.1457 277,-487.5 277,-487.5 277,-487.5 272.0126,-487.1457 277.3188,-483.0113 267.0251,-486.7915 267.0251,-486.7915"/>
<text text-anchor="start" x="7.324" y="-497.5" font-family="Arial" font-size="10.00" fill="#000000">FOREIGN KEY (group_id) REFERENCES user_groups (id)</text>
</g>
</g>
</svg>
