<?xml version="1.0" encoding="UTF-8" standalone="no"?>
<!DOCTYPE svg PUBLIC "-//W3C//DTD SVG 1.1//EN"
 "http://www.w3.org/Graphics/SVG/1.1/DTD/svg11.dtd">
<!-- Generated by graphviz version 2.40.1 (20161225.0304)
 -->
<!-- Title: users_subscribe_channels Pages: 1 -->
<svg width="859pt" height="740pt"
 viewBox="0.00 0.00 859.00 740.00" xmlns="http://www.w3.org/2000/svg" xmlns:xlink="http://www.w3.org/1999/xlink">
<g id="graph0" class="graph" transform="scale(1 1) rotate(0) translate(4 736)">
<title>users_subscribe_channels</title>
<polygon fill="#ffffff" stroke="transparent" points="-4,4 -4,-736 855,-736 855,4 -4,4"/>
<!-- users_subscribe_channels -->
<g id="node1" class="node">
<title>users_subscribe_channels</title>
<polygon fill="#efefef" stroke="transparent" points="239,-652 239,-686 580,-686 580,-652 239,-652"/>
<polygon fill="none" stroke="#000000" points="239,-652 239,-686 580,-686 580,-652 239,-652"/>
<text text-anchor="start" x="245.9565" y="-665.6" font-family="Arial Bold" font-size="18.00" fill="#000000">users_subscribe_channels</text>
<text text-anchor="start" x="477.0737" y="-665.6" font-family="Arial" font-size="14.00" fill="#000000"> </text>
<text text-anchor="start" x="480.9634" y="-665.6" font-family="Arial" font-size="14.00" fill="#666666">[BASE TABLE]</text>
<polygon fill="none" stroke="#000000" points="239,-622 239,-652 580,-652 580,-622 239,-622"/>
<text text-anchor="start" x="246" y="-634.8" font-family="Arial" font-size="14.00" fill="#000000">user_id </text>
<text text-anchor="start" x="295.8066" y="-634.8" font-family="Arial" font-size="14.00" fill="#666666">[char(36)]</text>
<polygon fill="none" stroke="#000000" points="239,-592 239,-622 580,-622 580,-592 239,-592"/>
<text text-anchor="start" x="246" y="-604.8" font-family="Arial" font-size="14.00" fill="#000000">channel_id </text>
<text text-anchor="start" x="317.6133" y="-604.8" font-family="Arial" font-size="14.00" fill="#666666">[char(36)]</text>
<polygon fill="none" stroke="#000000" stroke-width="3" points="237,-590.5 237,-687.5 581,-687.5 581,-590.5 237,-590.5"/>
</g>
<!-- users -->
<g id="node2" class="node">
<title>users</title>
<polygon fill="#efefef" stroke="transparent" points="174,-433 174,-467 357,-467 357,-433 174,-433"/>
<polygon fill="none" stroke="#000000" points="174,-433 174,-467 357,-467 357,-433 174,-433"/>
<text text-anchor="start" x="193.499" y="-446.6" font-family="Arial Bold" font-size="18.00" fill="#000000">users</text>
<text text-anchor="start" x="241.5313" y="-446.6" font-family="Arial" font-size="14.00" fill="#000000"> </text>
<text text-anchor="start" x="245.4209" y="-446.6" font-family="Arial" font-size="14.00" fill="#666666">[BASE TABLE]</text>
<polygon fill="none" stroke="#000000" points="174,-403 174,-433 357,-433 357,-403 174,-403"/>
<text text-anchor="start" x="181" y="-415.8" font-family="Arial" font-size="14.00" fill="#000000">id </text>
<text text-anchor="start" x="195.7861" y="-415.8" font-family="Arial" font-size="14.00" fill="#666666">[char(36)]</text>
<polygon fill="none" stroke="#000000" points="174,-373 174,-403 357,-403 357,-373 174,-373"/>
<text text-anchor="start" x="181" y="-385.8" font-family="Arial" font-size="14.00" fill="#000000">name </text>
<text text-anchor="start" x="219.9102" y="-385.8" font-family="Arial" font-size="14.00" fill="#666666">[varchar(32)]</text>
<polygon fill="none" stroke="#000000" points="174,-343 174,-373 357,-373 357,-343 174,-343"/>
<text text-anchor="start" x="180.6831" y="-355.8" font-family="Arial" font-size="14.00" fill="#000000">display_name </text>
<text text-anchor="start" x="270.9585" y="-355.8" font-family="Arial" font-size="14.00" fill="#666666">[varchar(64)]</text>
<polygon fill="none" stroke="#000000" points="174,-313 174,-343 357,-343 357,-313 174,-313"/>
<text text-anchor="start" x="181" y="-325.8" font-family="Arial" font-size="14.00" fill="#000000">password </text>
<text text-anchor="start" x="244.8066" y="-325.8" font-family="Arial" font-size="14.00" fill="#666666">[char(128)]</text>
<polygon fill="none" stroke="#000000" points="174,-283 174,-313 357,-313 357,-283 174,-283"/>
<text text-anchor="start" x="181" y="-295.8" font-family="Arial" font-size="14.00" fill="#000000">salt </text>
<text text-anchor="start" x="206.6758" y="-295.8" font-family="Arial" font-size="14.00" fill="#666666">[char(128)]</text>
<polygon fill="none" stroke="#000000" points="174,-253 174,-283 357,-283 357,-253 174,-253"/>
<text text-anchor="start" x="181" y="-265.8" font-family="Arial" font-size="14.00" fill="#000000">icon </text>
<text text-anchor="start" x="210.5723" y="-265.8" font-family="Arial" font-size="14.00" fill="#666666">[char(36)]</text>
<polygon fill="none" stroke="#000000" points="174,-223 174,-253 357,-253 357,-223 174,-223"/>
<text text-anchor="start" x="181" y="-235.8" font-family="Arial" font-size="14.00" fill="#000000">status </text>
<text text-anchor="start" x="222.2412" y="-235.8" font-family="Arial" font-size="14.00" fill="#666666">[tinyint(4)]</text>
<polygon fill="none" stroke="#000000" points="174,-193 174,-223 357,-223 357,-193 174,-193"/>
<text text-anchor="start" x="181" y="-205.8" font-family="Arial" font-size="14.00" fill="#000000">bot </text>
<text text-anchor="start" x="204.3516" y="-205.8" font-family="Arial" font-size="14.00" fill="#666666">[tinyint(1)]</text>
<polygon fill="none" stroke="#000000" points="174,-163 174,-193 357,-193 357,-163 174,-163"/>
<text text-anchor="start" x="181" y="-175.8" font-family="Arial" font-size="14.00" fill="#000000">role </text>
<text text-anchor="start" x="208.2344" y="-175.8" font-family="Arial" font-size="14.00" fill="#666666">[varchar(30)]</text>
<polygon fill="none" stroke="#000000" points="174,-133 174,-163 357,-163 357,-133 174,-133"/>
<text text-anchor="start" x="181" y="-145.8" font-family="Arial" font-size="14.00" fill="#000000">twitter_id </text>
<text text-anchor="start" x="240.9102" y="-145.8" font-family="Arial" font-size="14.00" fill="#666666">[varchar(15)]</text>
<polygon fill="none" stroke="#000000" points="174,-103 174,-133 357,-133 357,-103 174,-103"/>
<text text-anchor="start" x="181" y="-115.8" font-family="Arial" font-size="14.00" fill="#000000">last_online </text>
<text text-anchor="start" x="251.8271" y="-115.8" font-family="Arial" font-size="14.00" fill="#666666">[timestamp(6)]</text>
<polygon fill="none" stroke="#000000" points="174,-73 174,-103 357,-103 357,-73 174,-73"/>
<text text-anchor="start" x="181" y="-85.8" font-family="Arial" font-size="14.00" fill="#000000">created_at </text>
<text text-anchor="start" x="251.0479" y="-85.8" font-family="Arial" font-size="14.00" fill="#666666">[timestamp(6)]</text>
<polygon fill="none" stroke="#000000" points="174,-43 174,-73 357,-73 357,-43 174,-43"/>
<text text-anchor="start" x="181" y="-55.8" font-family="Arial" font-size="14.00" fill="#000000">updated_at </text>
<text text-anchor="start" x="254.958" y="-55.8" font-family="Arial" font-size="14.00" fill="#666666">[timestamp(6)]</text>
</g>
<!-- users_subscribe_channels&#45;&gt;users -->
<g id="edge1" class="edge">
<title>users_subscribe_channels:user_id&#45;&gt;users:id</title>
<path fill="none" stroke="#000000" d="M229.0828,-635.5273C201.6939,-626.2605 217.1894,-575.4571 239,-546 271.6276,-501.9335 324.3724,-554.0665 357,-510 381.3314,-477.1384 397.8889,-418 357,-418"/>
<polygon fill="#000000" stroke="#000000" points="229.1085,-635.531 238.3389,-641.4512 234.0542,-636.2655 239,-637 239,-637 239,-637 234.0542,-636.2655 239.6611,-632.5488 229.1085,-635.531 229.1085,-635.531"/>
<text text-anchor="start" x="7.0117" y="-646.5" font-family="Arial" font-size="10.00" fill="#000000">FOREIGN KEY (user_id) REFERENCES users (id)</text>
</g>
<!-- channels -->
<g id="node3" class="node">
<title>channels</title>
<polygon fill="#efefef" stroke="transparent" points="461,-418 461,-452 648,-452 648,-418 461,-418"/>
<polygon fill="none" stroke="#000000" points="461,-418 461,-452 648,-452 648,-418 461,-418"/>
<text text-anchor="start" x="467.5005" y="-431.6" font-family="Arial Bold" font-size="18.00" fill="#000000">channels</text>
<text text-anchor="start" x="545.5298" y="-431.6" font-family="Arial" font-size="14.00" fill="#000000"> </text>
<text text-anchor="start" x="549.4194" y="-431.6" font-family="Arial" font-size="14.00" fill="#666666">[BASE TABLE]</text>
<polygon fill="none" stroke="#000000" points="461,-388 461,-418 648,-418 648,-388 461,-388"/>
<text text-anchor="start" x="468" y="-400.8" font-family="Arial" font-size="14.00" fill="#000000">id </text>
<text text-anchor="start" x="482.7861" y="-400.8" font-family="Arial" font-size="14.00" fill="#666666">[char(36)]</text>
<polygon fill="none" stroke="#000000" points="461,-358 461,-388 648,-388 648,-358 461,-358"/>
<text text-anchor="start" x="468" y="-370.8" font-family="Arial" font-size="14.00" fill="#000000">name </text>
<text text-anchor="start" x="506.9102" y="-370.8" font-family="Arial" font-size="14.00" fill="#666666">[varchar(20)]</text>
<polygon fill="none" stroke="#000000" points="461,-328 461,-358 648,-358 648,-328 461,-328"/>
<text text-anchor="start" x="468" y="-340.8" font-family="Arial" font-size="14.00" fill="#000000">parent_id </text>
<text text-anchor="start" x="530.2686" y="-340.8" font-family="Arial" font-size="14.00" fill="#666666">[char(36)]</text>
<polygon fill="none" stroke="#000000" points="461,-298 461,-328 648,-328 648,-298 461,-298"/>
<text text-anchor="start" x="468" y="-310.8" font-family="Arial" font-size="14.00" fill="#000000">topic </text>
<text text-anchor="start" x="501.4619" y="-310.8" font-family="Arial" font-size="14.00" fill="#666666">[text]</text>
<polygon fill="none" stroke="#000000" points="461,-268 461,-298 648,-298 648,-268 461,-268"/>
<text text-anchor="start" x="468" y="-280.8" font-family="Arial" font-size="14.00" fill="#000000">is_forced </text>
<text text-anchor="start" x="528.6963" y="-280.8" font-family="Arial" font-size="14.00" fill="#666666">[tinyint(1)]</text>
<polygon fill="none" stroke="#000000" points="461,-238 461,-268 648,-268 648,-238 461,-238"/>
<text text-anchor="start" x="468" y="-250.8" font-family="Arial" font-size="14.00" fill="#000000">is_public </text>
<text text-anchor="start" x="526.3652" y="-250.8" font-family="Arial" font-size="14.00" fill="#666666">[tinyint(1)]</text>
<polygon fill="none" stroke="#000000" points="461,-208 461,-238 648,-238 648,-208 461,-208"/>
<text text-anchor="start" x="468" y="-220.8" font-family="Arial" font-size="14.00" fill="#000000">is_visible </text>
<text text-anchor="start" x="528.6895" y="-220.8" font-family="Arial" font-size="14.00" fill="#666666">[tinyint(1)]</text>
<polygon fill="none" stroke="#000000" points="461,-178 461,-208 648,-208 648,-178 461,-178"/>
<text text-anchor="start" x="468" y="-190.8" font-family="Arial" font-size="14.00" fill="#000000">creator_id </text>
<text text-anchor="start" x="534.1445" y="-190.8" font-family="Arial" font-size="14.00" fill="#666666">[char(36)]</text>
<polygon fill="none" stroke="#000000" points="461,-148 461,-178 648,-178 648,-148 461,-148"/>
<text text-anchor="start" x="468" y="-160.8" font-family="Arial" font-size="14.00" fill="#000000">updater_id </text>
<text text-anchor="start" x="538.0547" y="-160.8" font-family="Arial" font-size="14.00" fill="#666666">[char(36)]</text>
<polygon fill="none" stroke="#000000" points="461,-118 461,-148 648,-148 648,-118 461,-118"/>
<text text-anchor="start" x="468" y="-130.8" font-family="Arial" font-size="14.00" fill="#000000">created_at </text>
<text text-anchor="start" x="538.0479" y="-130.8" font-family="Arial" font-size="14.00" fill="#666666">[timestamp(6)]</text>
<polygon fill="none" stroke="#000000" points="461,-88 461,-118 648,-118 648,-88 461,-88"/>
<text text-anchor="start" x="468" y="-100.8" font-family="Arial" font-size="14.00" fill="#000000">updated_at </text>
<text text-anchor="start" x="541.958" y="-100.8" font-family="Arial" font-size="14.00" fill="#666666">[timestamp(6)]</text>
<polygon fill="none" stroke="#000000" points="461,-58 461,-88 648,-88 648,-58 461,-58"/>
<text text-anchor="start" x="468" y="-70.8" font-family="Arial" font-size="14.00" fill="#000000">deleted_at </text>
<text text-anchor="start" x="537.2822" y="-70.8" font-family="Arial" font-size="14.00" fill="#666666">[timestamp(6)]</text>
</g>
<!-- users_subscribe_channels&#45;&gt;channels -->
<g id="edge2" class="edge">
<title>users_subscribe_channels:channel_id&#45;&gt;channels:id</title>
<path fill="none" stroke="#000000" d="M589.9695,-604.3963C603.2359,-595.3946 592.5925,-565.097 580,-546 548.324,-497.9621 492.676,-543.0379 461,-495 438.491,-460.8643 420.1111,-403 461,-403"/>
<polygon fill="#000000" stroke="#000000" points="589.6755,-604.4731 578.8629,-602.646 584.8377,-605.7365 580,-607 580,-607 580,-607 584.8377,-605.7365 581.1371,-611.354 589.6755,-604.4731 589.6755,-604.4731"/>
<text text-anchor="start" x="587.4355" y="-616.5" font-family="Arial" font-size="10.00" fill="#000000">FOREIGN KEY (channel_id) REFERENCES channels (id)</text>
</g>
</g>
</svg>
