<?xml version="1.0" encoding="UTF-8" standalone="no"?>
<!DOCTYPE svg PUBLIC "-//W3C//DTD SVG 1.1//EN"
 "http://www.w3.org/Graphics/SVG/1.1/DTD/svg11.dtd">
<!-- Generated by graphviz version 2.40.1 (20161225.0304)
 -->
<!-- Title: user_roles Pages: 1 -->
<svg width="1032pt" height="440pt"
     viewBox="0.00 0.00 1031.50 440.00" xmlns="http://www.w3.org/2000/svg">
<g id="graph0" class="graph" transform="scale(1 1) rotate(0) translate(4 436)">
<title>user_roles</title>
<polygon fill="#ffffff" stroke="transparent" points="-4,4 -4,-436 1027.5,-436 1027.5,4 -4,4"/>
<!-- user_roles -->
<g id="node1" class="node">
<title>user_roles</title>
<polygon fill="#efefef" stroke="transparent" points="316,-136 316,-170 517,-170 517,-136 316,-136"/>
<polygon fill="none" stroke="#000000" points="316,-136 316,-170 517,-170 517,-136 316,-136"/>
<text text-anchor="start" x="322.9878" y="-149.6" font-family="Arial Bold" font-size="18.00" fill="#000000">user_roles</text>
<text text-anchor="start" x="414.0425" y="-149.6" font-family="Arial" font-size="14.00" fill="#000000"> </text>
<text text-anchor="start" x="417.9321" y="-149.6" font-family="Arial" font-size="14.00" fill="#666666">[BASE TABLE]</text>
<polygon fill="none" stroke="#000000" points="316,-106 316,-136 517,-136 517,-106 316,-106"/>
<text text-anchor="start" x="323" y="-118.8" font-family="Arial" font-size="14.00" fill="#000000">name </text>
<text text-anchor="start" x="361.9102" y="-118.8" font-family="Arial" font-size="14.00" fill="#666666">[varchar(30)]</text>
<polygon fill="none" stroke="#000000" points="316,-76 316,-106 517,-106 517,-76 316,-76"/>
<text text-anchor="start" x="323" y="-88.8" font-family="Arial" font-size="14.00" fill="#000000">oauth2_scope </text>
<text text-anchor="start" x="414.8545" y="-88.8" font-family="Arial" font-size="14.00" fill="#666666">[tinyint(1)]</text>
<polygon fill="none" stroke="#000000" points="316,-46 316,-76 517,-76 517,-46 316,-46"/>
<text text-anchor="start" x="323" y="-58.8" font-family="Arial" font-size="14.00" fill="#000000">system </text>
<text text-anchor="start" x="371.2275" y="-58.8" font-family="Arial" font-size="14.00" fill="#666666">[tinyint(1)]</text>
<polygon fill="none" stroke="#000000" stroke-width="3" points="314,-44.5 314,-171.5 518,-171.5 518,-44.5 314,-44.5"/>
</g>
<!-- user_role_inheritances -->
<g id="node2" class="node">
<title>user_role_inheritances</title>
<polygon fill="#efefef" stroke="transparent" points="263,-355 263,-389 570,-389 570,-355 263,-355"/>
<polygon fill="none" stroke="#000000" points="263,-355 263,-389 570,-389 570,-355 263,-355"/>
<text text-anchor="start" x="269.9678" y="-368.6" font-family="Arial Bold" font-size="18.00" fill="#000000">user_role_inheritances</text>
<text text-anchor="start" x="467.0625" y="-368.6" font-family="Arial" font-size="14.00" fill="#000000"> </text>
<text text-anchor="start" x="470.9521" y="-368.6" font-family="Arial" font-size="14.00" fill="#666666">[BASE TABLE]</text>
<polygon fill="none" stroke="#000000" points="263,-325 263,-355 570,-355 570,-325 263,-325"/>
<text text-anchor="start" x="270" y="-337.8" font-family="Arial" font-size="14.00" fill="#000000">role </text>
<text text-anchor="start" x="297.2344" y="-337.8" font-family="Arial" font-size="14.00" fill="#666666">[varchar(30)]</text>
<polygon fill="none" stroke="#000000" points="263,-295 263,-325 570,-325 570,-295 263,-295"/>
<text text-anchor="start" x="270" y="-307.8" font-family="Arial" font-size="14.00" fill="#000000">sub_role </text>
<text text-anchor="start" x="327.5928" y="-307.8" font-family="Arial" font-size="14.00" fill="#666666">[varchar(30)]</text>
</g>
<!-- user_role_inheritances&#45;&gt;user_roles -->
<g id="edge1" class="edge">
<title>user_role_inheritances:role&#45;&gt;user_roles:name</title>
<path fill="none" stroke="#000000" d="M253.0013,-339.207C166.6417,-324.8722 219.3775,-121 316,-121"/>
<polygon fill="#000000" stroke="#000000" points="253.0313,-339.2093 262.6442,-344.4859 258.0157,-339.6046 263,-340 263,-340 263,-340 258.0157,-339.6046 263.3558,-335.5141 253.0313,-339.2093 253.0313,-339.2093"/>
<text text-anchor="start" x="7.3394" y="-349.5" font-family="Arial" font-size="10.00" fill="#000000">FOREIGN KEY (role) REFERENCES user_roles (name)</text>
</g>
<!-- user_role_inheritances&#45;&gt;user_roles -->
<g id="edge2" class="edge">
<title>user_role_inheritances:sub_role&#45;&gt;user_roles:name</title>
<path fill="none" stroke="#000000" d="M416.0865,-285.0103C407.4112,-241.4427 339.3591,-263.9269 316,-216 297.5015,-178.0458 273.7778,-121 316,-121"/>
<polygon fill="#000000" stroke="#000000" points="416.0892,-285.0416 412.5187,-295.4098 416.5446,-290.0208 417,-295 417,-295 417,-295 416.5446,-290.0208 421.4813,-294.5902 416.0892,-285.0416 416.0892,-285.0416"/>
<text text-anchor="start" x="139.4971" y="-304.5" font-family="Arial" font-size="10.00" fill="#000000">FOREIGN KEY (sub_role) REFERENCES user_roles (name)</text>
</g>
<!-- user_role_permissions -->
<g id="node3" class="node">
<title>user_role_permissions</title>
<polygon fill="#efefef" stroke="transparent" points="674,-355 674,-389 981,-389 981,-355 674,-355"/>
<polygon fill="none" stroke="#000000" points="674,-355 674,-389 981,-389 981,-355 674,-355"/>
<text text-anchor="start" x="680.9678" y="-368.6" font-family="Arial Bold" font-size="18.00" fill="#000000">user_role_permissions</text>
<text text-anchor="start" x="878.0625" y="-368.6" font-family="Arial" font-size="14.00" fill="#000000"> </text>
<text text-anchor="start" x="881.9521" y="-368.6" font-family="Arial" font-size="14.00" fill="#666666">[BASE TABLE]</text>
<polygon fill="none" stroke="#000000" points="674,-325 674,-355 981,-355 981,-325 674,-325"/>
<text text-anchor="start" x="681" y="-337.8" font-family="Arial" font-size="14.00" fill="#000000">role </text>
<text text-anchor="start" x="708.2344" y="-337.8" font-family="Arial" font-size="14.00" fill="#666666">[varchar(30)]</text>
<polygon fill="none" stroke="#000000" points="674,-295 674,-325 981,-325 981,-295 674,-295"/>
<text text-anchor="start" x="681" y="-307.8" font-family="Arial" font-size="14.00" fill="#000000">permission </text>
<text text-anchor="start" x="752.5791" y="-307.8" font-family="Arial" font-size="14.00" fill="#666666">[varchar(30)]</text>
</g>
<!-- user_role_permissions&#45;&gt;user_roles -->
<g id="edge3" class="edge">
<title>user_role_permissions:role&#45;&gt;user_roles:name</title>
<path fill="none" stroke="#000000" d="M663.6513,-338.9189C631.5476,-331.3965 645.6073,-286.1618 622,-252 579.5801,-190.6147 591.6164,-121 517,-121"/>
<polygon fill="#000000" stroke="#000000" points="664.0541,-338.9609 673.5324,-344.4756 669.0271,-339.4804 674,-340 674,-340 674,-340 669.0271,-339.4804 674.4676,-335.5244 664.0541,-338.9609 664.0541,-338.9609"/>
<text text-anchor="start" x="681.3394" y="-349.5" font-family="Arial" font-size="10.00" fill="#000000">FOREIGN KEY (role) REFERENCES user_roles (name)</text>
</g>
</g>
</svg>
