<?xml version="1.0" encoding="UTF-8" standalone="no"?>
<!DOCTYPE svg PUBLIC "-//W3C//DTD SVG 1.1//EN"
 "http://www.w3.org/Graphics/SVG/1.1/DTD/svg11.dtd">
<!-- Generated by graphviz version 2.40.1 (20161225.0304)
 -->
<!-- Title: user_defined_roles Pages: 1 -->
<svg width="1218pt" height="410pt"
     viewBox="0.00 0.00 1217.50 410.00" xmlns="http://www.w3.org/2000/svg">
<g id="graph0" class="graph" transform="scale(1 1) rotate(0) translate(4 406)">
<title>user_defined_roles</title>
<polygon fill="#ffffff" stroke="transparent" points="-4,4 -4,-406 1213.5,-406 1213.5,4 -4,4"/>
<!-- user_defined_roles -->
<g id="node1" class="node">
<title>user_defined_roles</title>
<polygon fill="#efefef" stroke="transparent" points="354,-106 354,-140 629,-140 629,-106 354,-106"/>
<polygon fill="none" stroke="#000000" points="354,-106 354,-140 629,-140 629,-106 354,-106"/>
<text text-anchor="start" x="360.9814" y="-119.6" font-family="Arial Bold" font-size="18.00" fill="#000000">user_defined_roles</text>
<text text-anchor="start" x="526.0488" y="-119.6" font-family="Arial" font-size="14.00" fill="#000000"> </text>
<text text-anchor="start" x="529.9385" y="-119.6" font-family="Arial" font-size="14.00" fill="#666666">[BASE TABLE]</text>
<polygon fill="none" stroke="#000000" points="354,-76 354,-106 629,-106 629,-76 354,-76"/>
<text text-anchor="start" x="361" y="-88.8" font-family="Arial" font-size="14.00" fill="#000000">name </text>
<text text-anchor="start" x="399.9102" y="-88.8" font-family="Arial" font-size="14.00" fill="#666666">[varchar(30)]</text>
<polygon fill="none" stroke="#000000" points="354,-46 354,-76 629,-76 629,-46 354,-46"/>
<text text-anchor="start" x="361" y="-58.8" font-family="Arial" font-size="14.00" fill="#000000">o_auth2_scope </text>
<text text-anchor="start" x="460.6406" y="-58.8" font-family="Arial" font-size="14.00" fill="#666666">[tinyint(1)]</text>
<polygon fill="none" stroke="#000000" stroke-width="3" points="352,-44.5 352,-141.5 630,-141.5 630,-44.5 352,-44.5"/>
</g>
<!-- user_defined_role_inheritances -->
<g id="node2" class="node">
<title>user_defined_role_inheritances</title>
<polygon fill="#efefef" stroke="transparent" points="301,-325 301,-359 682,-359 682,-325 301,-325"/>
<polygon fill="none" stroke="#000000" points="301,-325 301,-359 682,-359 682,-325 301,-325"/>
<text text-anchor="start" x="307.9614" y="-338.6" font-family="Arial Bold" font-size="18.00" fill="#000000">user_defined_role_inheritances</text>
<text text-anchor="start" x="579.0688" y="-338.6" font-family="Arial" font-size="14.00" fill="#000000"> </text>
<text text-anchor="start" x="582.9585" y="-338.6" font-family="Arial" font-size="14.00" fill="#666666">[BASE TABLE]</text>
<polygon fill="none" stroke="#000000" points="301,-295 301,-325 682,-325 682,-295 301,-295"/>
<text text-anchor="start" x="308" y="-307.8" font-family="Arial" font-size="14.00" fill="#000000">role </text>
<text text-anchor="start" x="335.2344" y="-307.8" font-family="Arial" font-size="14.00" fill="#666666">[varchar(30)]</text>
<polygon fill="none" stroke="#000000" points="301,-265 301,-295 682,-295 682,-265 301,-265"/>
<text text-anchor="start" x="308" y="-277.8" font-family="Arial" font-size="14.00" fill="#000000">sub_role </text>
<text text-anchor="start" x="365.5928" y="-277.8" font-family="Arial" font-size="14.00" fill="#666666">[varchar(30)]</text>
</g>
<!-- user_defined_role_inheritances&#45;&gt;user_defined_roles -->
<g id="edge1" class="edge">
<title>user_defined_role_inheritances:role&#45;&gt;user_defined_roles:name</title>
<path fill="none" stroke="#000000" d="M291.0013,-309.207C204.6417,-294.8722 257.3775,-91 354,-91"/>
<polygon fill="#000000" stroke="#000000" points="291.0313,-309.2093 300.6442,-314.4859 296.0157,-309.6046 301,-310 301,-310 301,-310 296.0157,-309.6046 301.3558,-305.5141 291.0313,-309.2093 291.0313,-309.2093"/>
<text text-anchor="start" x="7.1548" y="-319.5" font-family="Arial" font-size="10.00" fill="#000000">FOREIGN KEY (role) REFERENCES user_defined_roles (name)</text>
</g>
<!-- user_defined_role_inheritances&#45;&gt;user_defined_roles -->
<g id="edge2" class="edge">
<title>user_defined_role_inheritances:sub_role&#45;&gt;user_defined_roles:name</title>
<path fill="none" stroke="#000000" d="M491.1693,-254.8148C481.3706,-199.5808 387.5791,-243.9149 354,-186 332.8218,-149.4733 311.7778,-91 354,-91"/>
<polygon fill="#000000" stroke="#000000" points="491.187,-255.0331 487.5149,-265.3658 491.5935,-260.0165 492,-265 492,-265 492,-265 491.5935,-260.0165 496.4851,-264.6342 491.187,-255.0331 491.187,-255.0331"/>
<text text-anchor="start" x="176.3125" y="-274.5" font-family="Arial" font-size="10.00" fill="#000000">FOREIGN KEY (sub_role) REFERENCES user_defined_roles (name)</text>
</g>
<!-- user_defined_role_permissions -->
<g id="node3" class="node">
<title>user_defined_role_permissions</title>
<polygon fill="#efefef" stroke="transparent" points="786,-325 786,-359 1167,-359 1167,-325 786,-325"/>
<polygon fill="none" stroke="#000000" points="786,-325 786,-359 1167,-359 1167,-325 786,-325"/>
<text text-anchor="start" x="792.9614" y="-338.6" font-family="Arial Bold" font-size="18.00" fill="#000000">user_defined_role_permissions</text>
<text text-anchor="start" x="1064.0688" y="-338.6" font-family="Arial" font-size="14.00" fill="#000000"> </text>
<text text-anchor="start" x="1067.9585" y="-338.6" font-family="Arial" font-size="14.00" fill="#666666">[BASE TABLE]</text>
<polygon fill="none" stroke="#000000" points="786,-295 786,-325 1167,-325 1167,-295 786,-295"/>
<text text-anchor="start" x="793" y="-307.8" font-family="Arial" font-size="14.00" fill="#000000">role </text>
<text text-anchor="start" x="820.2344" y="-307.8" font-family="Arial" font-size="14.00" fill="#666666">[varchar(30)]</text>
<polygon fill="none" stroke="#000000" points="786,-265 786,-295 1167,-295 1167,-265 786,-265"/>
<text text-anchor="start" x="793" y="-277.8" font-family="Arial" font-size="14.00" fill="#000000">permission </text>
<text text-anchor="start" x="864.5791" y="-277.8" font-family="Arial" font-size="14.00" fill="#666666">[varchar(30)]</text>
</g>
<!-- user_defined_role_permissions&#45;&gt;user_defined_roles -->
<g id="edge3" class="edge">
<title>user_defined_role_permissions:role&#45;&gt;user_defined_roles:name</title>
<path fill="none" stroke="#000000" d="M775.6513,-308.9189C743.5476,-301.3965 757.6073,-256.1618 734,-222 691.5801,-160.6147 703.6164,-91 629,-91"/>
<polygon fill="#000000" stroke="#000000" points="776.0541,-308.9609 785.5324,-314.4756 781.0271,-309.4804 786,-310 786,-310 786,-310 781.0271,-309.4804 786.4676,-305.5244 776.0541,-308.9609 776.0541,-308.9609"/>
<text text-anchor="start" x="793.1548" y="-319.5" font-family="Arial" font-size="10.00" fill="#000000">FOREIGN KEY (role) REFERENCES user_defined_roles (name)</text>
</g>
</g>
</svg>
