<?xml version="1.0" encoding="UTF-8" standalone="no"?>
<!DOCTYPE svg PUBLIC "-//W3C//DTD SVG 1.1//EN"
 "http://www.w3.org/Graphics/SVG/1.1/DTD/svg11.dtd">
<!-- Generated by graphviz version 2.40.1 (20161225.0304)
 -->
<!-- Title: users_private_channels Pages: 1 -->
<svg width="820pt" height="742pt"
     viewBox="0.00 0.00 820.00 742.00" xmlns="http://www.w3.org/2000/svg">
<g id="graph0" class="graph" transform="scale(1 1) rotate(0) translate(4 738)">
<title>users_private_channels</title>
<polygon fill="#ffffff" stroke="transparent" points="-4,4 -4,-738 816,-738 816,4 -4,4"/>
<!-- users_private_channels -->
<g id="node1" class="node">
<title>users_private_channels</title>
<polygon fill="#efefef" stroke="transparent" points="240,-652.5 240,-687.5 541,-687.5 541,-652.5 240,-652.5"/>
<polygon fill="none" stroke="#000000" points="240,-652.5 240,-687.5 541,-687.5 541,-652.5 240,-652.5"/>
<text text-anchor="start" x="246.8484" y="-665.3" font-family="Arial Bold" font-size="18.00" fill="#000000">users_private_channels</text>
<text text-anchor="start" x="436.8978" y="-665.3" font-family="Arial" font-size="14.00" fill="#000000"> </text>
<text text-anchor="start" x="440.7884" y="-665.3" font-family="Arial" font-size="14.00" fill="#666666">[BASE TABLE]</text>
<polygon fill="none" stroke="#000000" points="240,-622.5 240,-652.5 541,-652.5 541,-622.5 240,-622.5"/>
<text text-anchor="start" x="247" y="-633.9" font-family="Arial" font-size="14.00" fill="#000000">user_id </text>
<text text-anchor="start" x="296.7882" y="-633.9" font-family="Arial" font-size="14.00" fill="#666666">[char(36)]</text>
<polygon fill="none" stroke="#000000" points="240,-592.5 240,-622.5 541,-622.5 541,-592.5 240,-592.5"/>
<text text-anchor="start" x="247" y="-603.9" font-family="Arial" font-size="14.00" fill="#000000">channel_id </text>
<text text-anchor="start" x="318.582" y="-603.9" font-family="Arial" font-size="14.00" fill="#666666">[char(36)]</text>
<polygon fill="none" stroke="#000000" stroke-width="3" points="238,-591.5 238,-689.5 542,-689.5 542,-591.5 238,-591.5"/>
</g>
<!-- users -->
<g id="node2" class="node">
<title>users</title>
<polygon fill="#efefef" stroke="transparent" points="156,-432.5 156,-467.5 339,-467.5 339,-432.5 156,-432.5"/>
<polygon fill="none" stroke="#000000" points="156,-432.5 156,-467.5 339,-467.5 339,-432.5 156,-432.5"/>
<text text-anchor="start" x="176.8708" y="-445.3" font-family="Arial Bold" font-size="18.00" fill="#000000">users</text>
<text text-anchor="start" x="220.8754" y="-445.3" font-family="Arial" font-size="14.00" fill="#000000"> </text>
<text text-anchor="start" x="224.766" y="-445.3" font-family="Arial" font-size="14.00" fill="#666666">[BASE TABLE]</text>
<polygon fill="none" stroke="#000000" points="156,-402.5 156,-432.5 339,-432.5 339,-402.5 156,-402.5"/>
<text text-anchor="start" x="163" y="-413.9" font-family="Arial" font-size="14.00" fill="#000000">id </text>
<text text-anchor="start" x="177.7798" y="-413.9" font-family="Arial" font-size="14.00" fill="#666666">[char(36)]</text>
<polygon fill="none" stroke="#000000" points="156,-372.5 156,-402.5 339,-402.5 339,-372.5 156,-372.5"/>
<text text-anchor="start" x="163" y="-383.9" font-family="Arial" font-size="14.00" fill="#000000">name </text>
<text text-anchor="start" x="201.899" y="-383.9" font-family="Arial" font-size="14.00" fill="#666666">[varchar(32)]</text>
<polygon fill="none" stroke="#000000" points="156,-342.5 156,-372.5 339,-372.5 339,-342.5 156,-342.5"/>
<text text-anchor="start" x="162.7104" y="-353.9" font-family="Arial" font-size="14.00" fill="#000000">display_name </text>
<text text-anchor="start" x="252.953" y="-353.9" font-family="Arial" font-size="14.00" fill="#666666">[varchar(64)]</text>
<polygon fill="none" stroke="#000000" points="156,-312.5 156,-342.5 339,-342.5 339,-312.5 156,-312.5"/>
<text text-anchor="start" x="163" y="-323.9" font-family="Arial" font-size="14.00" fill="#000000">password </text>
<text text-anchor="start" x="226.7882" y="-323.9" font-family="Arial" font-size="14.00" fill="#666666">[char(128)]</text>
<polygon fill="none" stroke="#000000" points="156,-282.5 156,-312.5 339,-312.5 339,-282.5 156,-282.5"/>
<text text-anchor="start" x="163" y="-293.9" font-family="Arial" font-size="14.00" fill="#000000">salt </text>
<text text-anchor="start" x="188.6704" y="-293.9" font-family="Arial" font-size="14.00" fill="#666666">[char(128)]</text>
<polygon fill="none" stroke="#000000" points="156,-252.5 156,-282.5 339,-282.5 339,-252.5 156,-252.5"/>
<text text-anchor="start" x="163" y="-263.9" font-family="Arial" font-size="14.00" fill="#000000">icon </text>
<text text-anchor="start" x="192.5624" y="-263.9" font-family="Arial" font-size="14.00" fill="#666666">[char(36)]</text>
<polygon fill="none" stroke="#000000" points="156,-222.5 156,-252.5 339,-252.5 339,-222.5 156,-222.5"/>
<text text-anchor="start" x="163" y="-233.9" font-family="Arial" font-size="14.00" fill="#000000">status </text>
<text text-anchor="start" x="204.237" y="-233.9" font-family="Arial" font-size="14.00" fill="#666666">[tinyint(4)]</text>
<polygon fill="none" stroke="#000000" points="156,-192.5 156,-222.5 339,-222.5 339,-192.5 156,-192.5"/>
<text text-anchor="start" x="163" y="-203.9" font-family="Arial" font-size="14.00" fill="#000000">bot </text>
<text text-anchor="start" x="186.3464" y="-203.9" font-family="Arial" font-size="14.00" fill="#666666">[tinyint(1)]</text>
<polygon fill="none" stroke="#000000" points="156,-162.5 156,-192.5 339,-192.5 339,-162.5 156,-162.5"/>
<text text-anchor="start" x="163" y="-173.9" font-family="Arial" font-size="14.00" fill="#000000">role </text>
<text text-anchor="start" x="190.223" y="-173.9" font-family="Arial" font-size="14.00" fill="#666666">[varchar(30)]</text>
<polygon fill="none" stroke="#000000" points="156,-132.5 156,-162.5 339,-162.5 339,-132.5 156,-132.5"/>
<text text-anchor="start" x="163" y="-143.9" font-family="Arial" font-size="14.00" fill="#000000">twitter_id </text>
<text text-anchor="start" x="222.8906" y="-143.9" font-family="Arial" font-size="14.00" fill="#666666">[varchar(15)]</text>
<polygon fill="none" stroke="#000000" points="156,-102.5 156,-132.5 339,-132.5 339,-102.5 156,-102.5"/>
<text text-anchor="start" x="163" y="-113.9" font-family="Arial" font-size="14.00" fill="#000000">last_online </text>
<text text-anchor="start" x="233.7966" y="-113.9" font-family="Arial" font-size="14.00" fill="#666666">[datetime(6)]</text>
<polygon fill="none" stroke="#000000" points="156,-72.5 156,-102.5 339,-102.5 339,-72.5 156,-72.5"/>
<text text-anchor="start" x="163" y="-83.9" font-family="Arial" font-size="14.00" fill="#000000">created_at </text>
<text text-anchor="start" x="233.028" y="-83.9" font-family="Arial" font-size="14.00" fill="#666666">[datetime(6)]</text>
<polygon fill="none" stroke="#000000" points="156,-42.5 156,-72.5 339,-72.5 339,-42.5 156,-42.5"/>
<text text-anchor="start" x="163" y="-53.9" font-family="Arial" font-size="14.00" fill="#000000">updated_at </text>
<text text-anchor="start" x="236.9326" y="-53.9" font-family="Arial" font-size="14.00" fill="#666666">[datetime(6)]</text>
</g>
<!-- users_private_channels&#45;&gt;users -->
<g id="edge1" class="edge">
<title>users_private_channels:user_id&#45;&gt;users:id</title>
<path fill="none" stroke="#000000" d="M229.8096,-635.9299C203.1833,-626.4934 219.1781,-576.7275 240,-547 266.8598,-508.6522 312.1402,-549.3478 339,-511 362.8403,-476.9632 380.5556,-417.5 339,-417.5"/>
<polygon fill="#000000" stroke="#000000" points="230.1166,-635.9771 239.3147,-641.9475 235.0583,-636.7385 240,-637.5 240,-637.5 240,-637.5 235.0583,-636.7385 240.6853,-633.0525 230.1166,-635.9771 230.1166,-635.9771"/>
<text text-anchor="start" x="6.945" y="-647.5" font-family="Arial" font-size="10.00" fill="#000000">FOREIGN KEY (user_id) REFERENCES users (id)</text>
</g>
<!-- channels -->
<g id="node3" class="node">
<title>channels</title>
<polygon fill="#efefef" stroke="transparent" points="443,-417.5 443,-452.5 626,-452.5 626,-417.5 443,-417.5"/>
<polygon fill="none" stroke="#000000" points="443,-417.5 443,-452.5 626,-452.5 626,-417.5 443,-417.5"/>
<text text-anchor="start" x="449.8605" y="-430.3" font-family="Arial Bold" font-size="18.00" fill="#000000">channels</text>
<text text-anchor="start" x="521.8857" y="-430.3" font-family="Arial" font-size="14.00" fill="#000000"> </text>
<text text-anchor="start" x="525.7763" y="-430.3" font-family="Arial" font-size="14.00" fill="#666666">[BASE TABLE]</text>
<polygon fill="none" stroke="#000000" points="443,-387.5 443,-417.5 626,-417.5 626,-387.5 443,-387.5"/>
<text text-anchor="start" x="450" y="-398.9" font-family="Arial" font-size="14.00" fill="#000000">id </text>
<text text-anchor="start" x="464.7798" y="-398.9" font-family="Arial" font-size="14.00" fill="#666666">[char(36)]</text>
<polygon fill="none" stroke="#000000" points="443,-357.5 443,-387.5 626,-387.5 626,-357.5 443,-357.5"/>
<text text-anchor="start" x="450" y="-368.9" font-family="Arial" font-size="14.00" fill="#000000">name </text>
<text text-anchor="start" x="488.899" y="-368.9" font-family="Arial" font-size="14.00" fill="#666666">[varchar(20)]</text>
<polygon fill="none" stroke="#000000" points="443,-327.5 443,-357.5 626,-357.5 626,-327.5 443,-327.5"/>
<text text-anchor="start" x="450" y="-338.9" font-family="Arial" font-size="14.00" fill="#000000">parent_id </text>
<text text-anchor="start" x="512.244" y="-338.9" font-family="Arial" font-size="14.00" fill="#666666">[char(36)]</text>
<polygon fill="none" stroke="#000000" points="443,-297.5 443,-327.5 626,-327.5 626,-297.5 443,-297.5"/>
<text text-anchor="start" x="450" y="-308.9" font-family="Arial" font-size="14.00" fill="#000000">topic </text>
<text text-anchor="start" x="483.453" y="-308.9" font-family="Arial" font-size="14.00" fill="#666666">[text]</text>
<polygon fill="none" stroke="#000000" points="443,-267.5 443,-297.5 626,-297.5 626,-267.5 443,-267.5"/>
<text text-anchor="start" x="450" y="-278.9" font-family="Arial" font-size="14.00" fill="#000000">is_forced </text>
<text text-anchor="start" x="510.6788" y="-278.9" font-family="Arial" font-size="14.00" fill="#666666">[tinyint(1)]</text>
<polygon fill="none" stroke="#000000" points="443,-237.5 443,-267.5 626,-267.5 626,-237.5 443,-237.5"/>
<text text-anchor="start" x="450" y="-248.9" font-family="Arial" font-size="14.00" fill="#000000">is_public </text>
<text text-anchor="start" x="508.3408" y="-248.9" font-family="Arial" font-size="14.00" fill="#666666">[tinyint(1)]</text>
<polygon fill="none" stroke="#000000" points="443,-207.5 443,-237.5 626,-237.5 626,-207.5 443,-207.5"/>
<text text-anchor="start" x="450" y="-218.9" font-family="Arial" font-size="14.00" fill="#000000">is_visible </text>
<text text-anchor="start" x="510.6648" y="-218.9" font-family="Arial" font-size="14.00" fill="#666666">[tinyint(1)]</text>
<polygon fill="none" stroke="#000000" points="443,-177.5 443,-207.5 626,-207.5 626,-177.5 443,-177.5"/>
<text text-anchor="start" x="450" y="-188.9" font-family="Arial" font-size="14.00" fill="#000000">creator_id </text>
<text text-anchor="start" x="516.122" y="-188.9" font-family="Arial" font-size="14.00" fill="#666666">[char(36)]</text>
<polygon fill="none" stroke="#000000" points="443,-147.5 443,-177.5 626,-177.5 626,-147.5 443,-147.5"/>
<text text-anchor="start" x="450" y="-158.9" font-family="Arial" font-size="14.00" fill="#000000">updater_id </text>
<text text-anchor="start" x="520.0266" y="-158.9" font-family="Arial" font-size="14.00" fill="#666666">[char(36)]</text>
<polygon fill="none" stroke="#000000" points="443,-117.5 443,-147.5 626,-147.5 626,-117.5 443,-117.5"/>
<text text-anchor="start" x="450" y="-128.9" font-family="Arial" font-size="14.00" fill="#000000">created_at </text>
<text text-anchor="start" x="520.028" y="-128.9" font-family="Arial" font-size="14.00" fill="#666666">[datetime(6)]</text>
<polygon fill="none" stroke="#000000" points="443,-87.5 443,-117.5 626,-117.5 626,-87.5 443,-87.5"/>
<text text-anchor="start" x="450" y="-98.9" font-family="Arial" font-size="14.00" fill="#000000">updated_at </text>
<text text-anchor="start" x="523.9326" y="-98.9" font-family="Arial" font-size="14.00" fill="#666666">[datetime(6)]</text>
<polygon fill="none" stroke="#000000" points="443,-57.5 443,-87.5 626,-87.5 626,-57.5 443,-57.5"/>
<text text-anchor="start" x="450" y="-68.9" font-family="Arial" font-size="14.00" fill="#000000">deleted_at </text>
<text text-anchor="start" x="519.2566" y="-68.9" font-family="Arial" font-size="14.00" fill="#666666">[datetime(6)]</text>
</g>
<!-- users_private_channels&#45;&gt;channels -->
<g id="edge2" class="edge">
<title>users_private_channels:channel_id&#45;&gt;channels:id</title>
<path fill="none" stroke="#000000" d="M550.8352,-604.951C563.821,-596.1318 552.7709,-566.3951 541,-547 515.5253,-505.0249 468.4747,-537.9751 443,-496 421.4399,-460.475 401.4444,-402.5 443,-402.5"/>
<polygon fill="#000000" stroke="#000000" points="550.6802,-604.9911 539.871,-603.1439 545.8401,-606.2455 541,-607.5 541,-607.5 541,-607.5 545.8401,-606.2455 542.129,-611.8561 550.6802,-604.9911 550.6802,-604.9911"/>
<text text-anchor="start" x="548.378" y="-617.5" font-family="Arial" font-size="10.00" fill="#000000">FOREIGN KEY (channel_id) REFERENCES channels (id)</text>
</g>
</g>
</svg>
