<?xml version="1.0" encoding="UTF-8" standalone="no"?>
<!DOCTYPE svg PUBLIC "-//W3C//DTD SVG 1.1//EN"
 "http://www.w3.org/Graphics/SVG/1.1/DTD/svg11.dtd">
<!-- Generated by graphviz version 2.40.1 (20161225.0304)
 -->
<!-- Title: users_subscribe_channels Pages: 1 -->
<svg width="843pt" height="742pt"
     viewBox="0.00 0.00 843.00 742.00" xmlns="http://www.w3.org/2000/svg">
<g id="graph0" class="graph" transform="scale(1 1) rotate(0) translate(4 738)">
<title>users_subscribe_channels</title>
<polygon fill="#ffffff" stroke="transparent" points="-4,4 -4,-738 839,-738 839,4 -4,4"/>
<!-- users_subscribe_channels -->
<g id="node1" class="node">
<title>users_subscribe_channels</title>
<polygon fill="#efefef" stroke="transparent" points="240,-652.5 240,-687.5 564,-687.5 564,-652.5 240,-652.5"/>
<polygon fill="none" stroke="#000000" points="240,-652.5 240,-687.5 564,-687.5 564,-652.5 240,-652.5"/>
<text text-anchor="start" x="246.8464" y="-665.3" font-family="Arial Bold" font-size="18.00" fill="#000000">users_subscribe_channels</text>
<text text-anchor="start" x="459.8998" y="-665.3" font-family="Arial" font-size="14.00" fill="#000000"> </text>
<text text-anchor="start" x="463.7904" y="-665.3" font-family="Arial" font-size="14.00" fill="#666666">[BASE TABLE]</text>
<polygon fill="none" stroke="#000000" points="240,-622.5 240,-652.5 564,-652.5 564,-622.5 240,-622.5"/>
<text text-anchor="start" x="247" y="-633.9" font-family="Arial" font-size="14.00" fill="#000000">user_id </text>
<text text-anchor="start" x="296.7882" y="-633.9" font-family="Arial" font-size="14.00" fill="#666666">[char(36)]</text>
<polygon fill="none" stroke="#000000" points="240,-592.5 240,-622.5 564,-622.5 564,-592.5 240,-592.5"/>
<text text-anchor="start" x="247" y="-603.9" font-family="Arial" font-size="14.00" fill="#000000">channel_id </text>
<text text-anchor="start" x="318.582" y="-603.9" font-family="Arial" font-size="14.00" fill="#666666">[char(36)]</text>
<polygon fill="none" stroke="#000000" stroke-width="3" points="238.5,-591.5 238.5,-689.5 565.5,-689.5 565.5,-591.5 238.5,-591.5"/>
</g>
<!-- users -->
<g id="node2" class="node">
<title>users</title>
<polygon fill="#efefef" stroke="transparent" points="167,-432.5 167,-467.5 350,-467.5 350,-432.5 167,-432.5"/>
<polygon fill="none" stroke="#000000" points="167,-432.5 167,-467.5 350,-467.5 350,-432.5 167,-432.5"/>
<text text-anchor="start" x="187.8708" y="-445.3" font-family="Arial Bold" font-size="18.00" fill="#000000">users</text>
<text text-anchor="start" x="231.8754" y="-445.3" font-family="Arial" font-size="14.00" fill="#000000"> </text>
<text text-anchor="start" x="235.766" y="-445.3" font-family="Arial" font-size="14.00" fill="#666666">[BASE TABLE]</text>
<polygon fill="none" stroke="#000000" points="167,-402.5 167,-432.5 350,-432.5 350,-402.5 167,-402.5"/>
<text text-anchor="start" x="174" y="-413.9" font-family="Arial" font-size="14.00" fill="#000000">id </text>
<text text-anchor="start" x="188.7798" y="-413.9" font-family="Arial" font-size="14.00" fill="#666666">[char(36)]</text>
<polygon fill="none" stroke="#000000" points="167,-372.5 167,-402.5 350,-402.5 350,-372.5 167,-372.5"/>
<text text-anchor="start" x="174" y="-383.9" font-family="Arial" font-size="14.00" fill="#000000">name </text>
<text text-anchor="start" x="212.899" y="-383.9" font-family="Arial" font-size="14.00" fill="#666666">[varchar(32)]</text>
<polygon fill="none" stroke="#000000" points="167,-342.5 167,-372.5 350,-372.5 350,-342.5 167,-342.5"/>
<text text-anchor="start" x="173.7104" y="-353.9" font-family="Arial" font-size="14.00" fill="#000000">display_name </text>
<text text-anchor="start" x="263.953" y="-353.9" font-family="Arial" font-size="14.00" fill="#666666">[varchar(64)]</text>
<polygon fill="none" stroke="#000000" points="167,-312.5 167,-342.5 350,-342.5 350,-312.5 167,-312.5"/>
<text text-anchor="start" x="174" y="-323.9" font-family="Arial" font-size="14.00" fill="#000000">password </text>
<text text-anchor="start" x="237.7882" y="-323.9" font-family="Arial" font-size="14.00" fill="#666666">[char(128)]</text>
<polygon fill="none" stroke="#000000" points="167,-282.5 167,-312.5 350,-312.5 350,-282.5 167,-282.5"/>
<text text-anchor="start" x="174" y="-293.9" font-family="Arial" font-size="14.00" fill="#000000">salt </text>
<text text-anchor="start" x="199.6704" y="-293.9" font-family="Arial" font-size="14.00" fill="#666666">[char(128)]</text>
<polygon fill="none" stroke="#000000" points="167,-252.5 167,-282.5 350,-282.5 350,-252.5 167,-252.5"/>
<text text-anchor="start" x="174" y="-263.9" font-family="Arial" font-size="14.00" fill="#000000">icon </text>
<text text-anchor="start" x="203.5624" y="-263.9" font-family="Arial" font-size="14.00" fill="#666666">[char(36)]</text>
<polygon fill="none" stroke="#000000" points="167,-222.5 167,-252.5 350,-252.5 350,-222.5 167,-222.5"/>
<text text-anchor="start" x="174" y="-233.9" font-family="Arial" font-size="14.00" fill="#000000">status </text>
<text text-anchor="start" x="215.237" y="-233.9" font-family="Arial" font-size="14.00" fill="#666666">[tinyint(4)]</text>
<polygon fill="none" stroke="#000000" points="167,-192.5 167,-222.5 350,-222.5 350,-192.5 167,-192.5"/>
<text text-anchor="start" x="174" y="-203.9" font-family="Arial" font-size="14.00" fill="#000000">bot </text>
<text text-anchor="start" x="197.3464" y="-203.9" font-family="Arial" font-size="14.00" fill="#666666">[tinyint(1)]</text>
<polygon fill="none" stroke="#000000" points="167,-162.5 167,-192.5 350,-192.5 350,-162.5 167,-162.5"/>
<text text-anchor="start" x="174" y="-173.9" font-family="Arial" font-size="14.00" fill="#000000">role </text>
<text text-anchor="start" x="201.223" y="-173.9" font-family="Arial" font-size="14.00" fill="#666666">[varchar(30)]</text>
<polygon fill="none" stroke="#000000" points="167,-132.5 167,-162.5 350,-162.5 350,-132.5 167,-132.5"/>
<text text-anchor="start" x="174" y="-143.9" font-family="Arial" font-size="14.00" fill="#000000">twitter_id </text>
<text text-anchor="start" x="233.8906" y="-143.9" font-family="Arial" font-size="14.00" fill="#666666">[varchar(15)]</text>
<polygon fill="none" stroke="#000000" points="167,-102.5 167,-132.5 350,-132.5 350,-102.5 167,-102.5"/>
<text text-anchor="start" x="174" y="-113.9" font-family="Arial" font-size="14.00" fill="#000000">last_online </text>
<text text-anchor="start" x="244.7966" y="-113.9" font-family="Arial" font-size="14.00" fill="#666666">[datetime(6)]</text>
<polygon fill="none" stroke="#000000" points="167,-72.5 167,-102.5 350,-102.5 350,-72.5 167,-72.5"/>
<text text-anchor="start" x="174" y="-83.9" font-family="Arial" font-size="14.00" fill="#000000">created_at </text>
<text text-anchor="start" x="244.028" y="-83.9" font-family="Arial" font-size="14.00" fill="#666666">[datetime(6)]</text>
<polygon fill="none" stroke="#000000" points="167,-42.5 167,-72.5 350,-72.5 350,-42.5 167,-42.5"/>
<text text-anchor="start" x="174" y="-53.9" font-family="Arial" font-size="14.00" fill="#000000">updated_at </text>
<text text-anchor="start" x="247.9326" y="-53.9" font-family="Arial" font-size="14.00" fill="#666666">[datetime(6)]</text>
</g>
<!-- users_subscribe_channels&#45;&gt;users -->
<g id="edge1" class="edge">
<title>users_subscribe_channels:user_id&#45;&gt;users:id</title>
<path fill="none" stroke="#000000" d="M229.7958,-635.9201C203.0895,-626.4266 218.698,-576.3854 240,-547 270.1917,-505.3516 319.8083,-552.6484 350,-511 374.39,-477.3549 391.5556,-417.5 350,-417.5"/>
<polygon fill="#000000" stroke="#000000" points="230.1178,-635.9698 239.3114,-641.947 235.0589,-636.7349 240,-637.5 240,-637.5 240,-637.5 235.0589,-636.7349 240.6886,-633.053 230.1178,-635.9698 230.1178,-635.9698"/>
<text text-anchor="start" x="6.945" y="-647.5" font-family="Arial" font-size="10.00" fill="#000000">FOREIGN KEY (user_id) REFERENCES users (id)</text>
</g>
<!-- channels -->
<g id="node3" class="node">
<title>channels</title>
<polygon fill="#efefef" stroke="transparent" points="454,-417.5 454,-452.5 637,-452.5 637,-417.5 454,-417.5"/>
<polygon fill="none" stroke="#000000" points="454,-417.5 454,-452.5 637,-452.5 637,-417.5 454,-417.5"/>
<text text-anchor="start" x="460.8605" y="-430.3" font-family="Arial Bold" font-size="18.00" fill="#000000">channels</text>
<text text-anchor="start" x="532.8857" y="-430.3" font-family="Arial" font-size="14.00" fill="#000000"> </text>
<text text-anchor="start" x="536.7763" y="-430.3" font-family="Arial" font-size="14.00" fill="#666666">[BASE TABLE]</text>
<polygon fill="none" stroke="#000000" points="454,-387.5 454,-417.5 637,-417.5 637,-387.5 454,-387.5"/>
<text text-anchor="start" x="461" y="-398.9" font-family="Arial" font-size="14.00" fill="#000000">id </text>
<text text-anchor="start" x="475.7798" y="-398.9" font-family="Arial" font-size="14.00" fill="#666666">[char(36)]</text>
<polygon fill="none" stroke="#000000" points="454,-357.5 454,-387.5 637,-387.5 637,-357.5 454,-357.5"/>
<text text-anchor="start" x="461" y="-368.9" font-family="Arial" font-size="14.00" fill="#000000">name </text>
<text text-anchor="start" x="499.899" y="-368.9" font-family="Arial" font-size="14.00" fill="#666666">[varchar(20)]</text>
<polygon fill="none" stroke="#000000" points="454,-327.5 454,-357.5 637,-357.5 637,-327.5 454,-327.5"/>
<text text-anchor="start" x="461" y="-338.9" font-family="Arial" font-size="14.00" fill="#000000">parent_id </text>
<text text-anchor="start" x="523.244" y="-338.9" font-family="Arial" font-size="14.00" fill="#666666">[char(36)]</text>
<polygon fill="none" stroke="#000000" points="454,-297.5 454,-327.5 637,-327.5 637,-297.5 454,-297.5"/>
<text text-anchor="start" x="461" y="-308.9" font-family="Arial" font-size="14.00" fill="#000000">topic </text>
<text text-anchor="start" x="494.453" y="-308.9" font-family="Arial" font-size="14.00" fill="#666666">[text]</text>
<polygon fill="none" stroke="#000000" points="454,-267.5 454,-297.5 637,-297.5 637,-267.5 454,-267.5"/>
<text text-anchor="start" x="461" y="-278.9" font-family="Arial" font-size="14.00" fill="#000000">is_forced </text>
<text text-anchor="start" x="521.6788" y="-278.9" font-family="Arial" font-size="14.00" fill="#666666">[tinyint(1)]</text>
<polygon fill="none" stroke="#000000" points="454,-237.5 454,-267.5 637,-267.5 637,-237.5 454,-237.5"/>
<text text-anchor="start" x="461" y="-248.9" font-family="Arial" font-size="14.00" fill="#000000">is_public </text>
<text text-anchor="start" x="519.3408" y="-248.9" font-family="Arial" font-size="14.00" fill="#666666">[tinyint(1)]</text>
<polygon fill="none" stroke="#000000" points="454,-207.5 454,-237.5 637,-237.5 637,-207.5 454,-207.5"/>
<text text-anchor="start" x="461" y="-218.9" font-family="Arial" font-size="14.00" fill="#000000">is_visible </text>
<text text-anchor="start" x="521.6648" y="-218.9" font-family="Arial" font-size="14.00" fill="#666666">[tinyint(1)]</text>
<polygon fill="none" stroke="#000000" points="454,-177.5 454,-207.5 637,-207.5 637,-177.5 454,-177.5"/>
<text text-anchor="start" x="461" y="-188.9" font-family="Arial" font-size="14.00" fill="#000000">creator_id </text>
<text text-anchor="start" x="527.122" y="-188.9" font-family="Arial" font-size="14.00" fill="#666666">[char(36)]</text>
<polygon fill="none" stroke="#000000" points="454,-147.5 454,-177.5 637,-177.5 637,-147.5 454,-147.5"/>
<text text-anchor="start" x="461" y="-158.9" font-family="Arial" font-size="14.00" fill="#000000">updater_id </text>
<text text-anchor="start" x="531.0266" y="-158.9" font-family="Arial" font-size="14.00" fill="#666666">[char(36)]</text>
<polygon fill="none" stroke="#000000" points="454,-117.5 454,-147.5 637,-147.5 637,-117.5 454,-117.5"/>
<text text-anchor="start" x="461" y="-128.9" font-family="Arial" font-size="14.00" fill="#000000">created_at </text>
<text text-anchor="start" x="531.028" y="-128.9" font-family="Arial" font-size="14.00" fill="#666666">[datetime(6)]</text>
<polygon fill="none" stroke="#000000" points="454,-87.5 454,-117.5 637,-117.5 637,-87.5 454,-87.5"/>
<text text-anchor="start" x="461" y="-98.9" font-family="Arial" font-size="14.00" fill="#000000">updated_at </text>
<text text-anchor="start" x="534.9326" y="-98.9" font-family="Arial" font-size="14.00" fill="#666666">[datetime(6)]</text>
<polygon fill="none" stroke="#000000" points="454,-57.5 454,-87.5 637,-87.5 637,-57.5 454,-57.5"/>
<text text-anchor="start" x="461" y="-68.9" font-family="Arial" font-size="14.00" fill="#000000">deleted_at </text>
<text text-anchor="start" x="530.2566" y="-68.9" font-family="Arial" font-size="14.00" fill="#666666">[datetime(6)]</text>
</g>
<!-- users_subscribe_channels&#45;&gt;channels -->
<g id="edge2" class="edge">
<title>users_subscribe_channels:channel_id&#45;&gt;channels:id</title>
<path fill="none" stroke="#000000" d="M573.8674,-604.9309C586.9585,-596.0461 576.211,-566.121 564,-547 534.9962,-501.5833 483.0038,-541.4167 454,-496 431.6337,-460.9769 412.4444,-402.5 454,-402.5"/>
<polygon fill="#000000" stroke="#000000" points="573.6774,-604.9803 562.8661,-603.1452 568.8387,-606.2402 564,-607.5 564,-607.5 564,-607.5 568.8387,-606.2402 565.1339,-611.8548 573.6774,-604.9803 573.6774,-604.9803"/>
<text text-anchor="start" x="571.378" y="-617.5" font-family="Arial" font-size="10.00" fill="#000000">FOREIGN KEY (channel_id) REFERENCES channels (id)</text>
</g>
</g>
</svg>
