<?xml version="1.0" encoding="UTF-8" standalone="no"?>
<!DOCTYPE svg PUBLIC "-//W3C//DTD SVG 1.1//EN"
 "http://www.w3.org/Graphics/SVG/1.1/DTD/svg11.dtd">
<!-- Generated by graphviz version 2.40.1 (20161225.0304)
 -->
<!-- Title: users Pages: 1 -->
<svg width="4213pt" height="890pt"
 viewBox="0.00 0.00 4213.00 890.00" xmlns="http://www.w3.org/2000/svg" xmlns:xlink="http://www.w3.org/1999/xlink">
<g id="graph0" class="graph" transform="scale(1 1) rotate(0) translate(4 886)">
<title>users</title>
<polygon fill="#ffffff" stroke="transparent" points="-4,4 -4,-886 4209,-886 4209,4 -4,4"/>
<!-- users -->
<g id="node1" class="node">
<title>users</title>
<polygon fill="#efefef" stroke="transparent" points="1838.5,-436 1838.5,-470 2021.5,-470 2021.5,-436 1838.5,-436"/>
<polygon fill="none" stroke="#000000" points="1838.5,-436 1838.5,-470 2021.5,-470 2021.5,-436 1838.5,-436"/>
<text text-anchor="start" x="1857.999" y="-449.6" font-family="Arial Bold" font-size="18.00" fill="#000000">users</text>
<text text-anchor="start" x="1906.0313" y="-449.6" font-family="Arial" font-size="14.00" fill="#000000"> </text>
<text text-anchor="start" x="1909.9209" y="-449.6" font-family="Arial" font-size="14.00" fill="#666666">[BASE TABLE]</text>
<polygon fill="none" stroke="#000000" points="1838.5,-406 1838.5,-436 2021.5,-436 2021.5,-406 1838.5,-406"/>
<text text-anchor="start" x="1845.5" y="-418.8" font-family="Arial" font-size="14.00" fill="#000000">id </text>
<text text-anchor="start" x="1860.2861" y="-418.8" font-family="Arial" font-size="14.00" fill="#666666">[char(36)]</text>
<polygon fill="none" stroke="#000000" points="1838.5,-376 1838.5,-406 2021.5,-406 2021.5,-376 1838.5,-376"/>
<text text-anchor="start" x="1845.5" y="-388.8" font-family="Arial" font-size="14.00" fill="#000000">name </text>
<text text-anchor="start" x="1884.4102" y="-388.8" font-family="Arial" font-size="14.00" fill="#666666">[varchar(32)]</text>
<polygon fill="none" stroke="#000000" points="1838.5,-346 1838.5,-376 2021.5,-376 2021.5,-346 1838.5,-346"/>
<text text-anchor="start" x="1845.1831" y="-358.8" font-family="Arial" font-size="14.00" fill="#000000">display_name </text>
<text text-anchor="start" x="1935.4585" y="-358.8" font-family="Arial" font-size="14.00" fill="#666666">[varchar(64)]</text>
<polygon fill="none" stroke="#000000" points="1838.5,-316 1838.5,-346 2021.5,-346 2021.5,-316 1838.5,-316"/>
<text text-anchor="start" x="1845.5" y="-328.8" font-family="Arial" font-size="14.00" fill="#000000">password </text>
<text text-anchor="start" x="1909.3066" y="-328.8" font-family="Arial" font-size="14.00" fill="#666666">[char(128)]</text>
<polygon fill="none" stroke="#000000" points="1838.5,-286 1838.5,-316 2021.5,-316 2021.5,-286 1838.5,-286"/>
<text text-anchor="start" x="1845.5" y="-298.8" font-family="Arial" font-size="14.00" fill="#000000">salt </text>
<text text-anchor="start" x="1871.1758" y="-298.8" font-family="Arial" font-size="14.00" fill="#666666">[char(128)]</text>
<polygon fill="none" stroke="#000000" points="1838.5,-256 1838.5,-286 2021.5,-286 2021.5,-256 1838.5,-256"/>
<text text-anchor="start" x="1845.5" y="-268.8" font-family="Arial" font-size="14.00" fill="#000000">icon </text>
<text text-anchor="start" x="1875.0723" y="-268.8" font-family="Arial" font-size="14.00" fill="#666666">[char(36)]</text>
<polygon fill="none" stroke="#000000" points="1838.5,-226 1838.5,-256 2021.5,-256 2021.5,-226 1838.5,-226"/>
<text text-anchor="start" x="1845.5" y="-238.8" font-family="Arial" font-size="14.00" fill="#000000">status </text>
<text text-anchor="start" x="1886.7412" y="-238.8" font-family="Arial" font-size="14.00" fill="#666666">[tinyint(4)]</text>
<polygon fill="none" stroke="#000000" points="1838.5,-196 1838.5,-226 2021.5,-226 2021.5,-196 1838.5,-196"/>
<text text-anchor="start" x="1845.5" y="-208.8" font-family="Arial" font-size="14.00" fill="#000000">bot </text>
<text text-anchor="start" x="1868.8516" y="-208.8" font-family="Arial" font-size="14.00" fill="#666666">[tinyint(1)]</text>
<polygon fill="none" stroke="#000000" points="1838.5,-166 1838.5,-196 2021.5,-196 2021.5,-166 1838.5,-166"/>
<text text-anchor="start" x="1845.5" y="-178.8" font-family="Arial" font-size="14.00" fill="#000000">role </text>
<text text-anchor="start" x="1872.7344" y="-178.8" font-family="Arial" font-size="14.00" fill="#666666">[varchar(30)]</text>
<polygon fill="none" stroke="#000000" points="1838.5,-136 1838.5,-166 2021.5,-166 2021.5,-136 1838.5,-136"/>
<text text-anchor="start" x="1845.5" y="-148.8" font-family="Arial" font-size="14.00" fill="#000000">twitter_id </text>
<text text-anchor="start" x="1905.4102" y="-148.8" font-family="Arial" font-size="14.00" fill="#666666">[varchar(15)]</text>
<polygon fill="none" stroke="#000000" points="1838.5,-106 1838.5,-136 2021.5,-136 2021.5,-106 1838.5,-106"/>
<text text-anchor="start" x="1845.5" y="-118.8" font-family="Arial" font-size="14.00" fill="#000000">last_online </text>
<text text-anchor="start" x="1916.3271" y="-118.8" font-family="Arial" font-size="14.00" fill="#666666">[timestamp(6)]</text>
<polygon fill="none" stroke="#000000" points="1838.5,-76 1838.5,-106 2021.5,-106 2021.5,-76 1838.5,-76"/>
<text text-anchor="start" x="1845.5" y="-88.8" font-family="Arial" font-size="14.00" fill="#000000">created_at </text>
<text text-anchor="start" x="1915.5479" y="-88.8" font-family="Arial" font-size="14.00" fill="#666666">[timestamp(6)]</text>
<polygon fill="none" stroke="#000000" points="1838.5,-46 1838.5,-76 2021.5,-76 2021.5,-46 1838.5,-46"/>
<text text-anchor="start" x="1845.5" y="-58.8" font-family="Arial" font-size="14.00" fill="#000000">updated_at </text>
<text text-anchor="start" x="1919.458" y="-58.8" font-family="Arial" font-size="14.00" fill="#666666">[timestamp(6)]</text>
<polygon fill="none" stroke="#000000" stroke-width="3" points="1836.5,-44.5 1836.5,-471.5 2022.5,-471.5 2022.5,-44.5 1836.5,-44.5"/>
</g>
<!-- clip_folders -->
<g id="node2" class="node">
<title>clip_folders</title>
<polygon fill="#efefef" stroke="transparent" points="43.5,-775 43.5,-809 254.5,-809 254.5,-775 43.5,-775"/>
<polygon fill="none" stroke="#000000" points="43.5,-775 43.5,-809 254.5,-809 254.5,-775 43.5,-775"/>
<text text-anchor="start" x="50.5" y="-788.6" font-family="Arial Bold" font-size="18.00" fill="#000000">clip_folders</text>
<text text-anchor="start" x="151.5303" y="-788.6" font-family="Arial" font-size="14.00" fill="#000000"> </text>
<text text-anchor="start" x="155.4199" y="-788.6" font-family="Arial" font-size="14.00" fill="#666666">[BASE TABLE]</text>
<polygon fill="none" stroke="#000000" points="43.5,-745 43.5,-775 254.5,-775 254.5,-745 43.5,-745"/>
<text text-anchor="start" x="50.5" y="-757.8" font-family="Arial" font-size="14.00" fill="#000000">id </text>
<text text-anchor="start" x="65.2861" y="-757.8" font-family="Arial" font-size="14.00" fill="#666666">[char(36)]</text>
<polygon fill="none" stroke="#000000" points="43.5,-715 43.5,-745 254.5,-745 254.5,-715 43.5,-715"/>
<text text-anchor="start" x="50.5" y="-727.8" font-family="Arial" font-size="14.00" fill="#000000">user_id </text>
<text text-anchor="start" x="100.3066" y="-727.8" font-family="Arial" font-size="14.00" fill="#666666">[char(36)]</text>
<polygon fill="none" stroke="#000000" points="43.5,-685 43.5,-715 254.5,-715 254.5,-685 43.5,-685"/>
<text text-anchor="start" x="50.5" y="-697.8" font-family="Arial" font-size="14.00" fill="#000000">name </text>
<text text-anchor="start" x="89.4102" y="-697.8" font-family="Arial" font-size="14.00" fill="#666666">[varchar(30)]</text>
<polygon fill="none" stroke="#000000" points="43.5,-655 43.5,-685 254.5,-685 254.5,-655 43.5,-655"/>
<text text-anchor="start" x="50.5" y="-667.8" font-family="Arial" font-size="14.00" fill="#000000">created_at </text>
<text text-anchor="start" x="120.5479" y="-667.8" font-family="Arial" font-size="14.00" fill="#666666">[timestamp(6)]</text>
<polygon fill="none" stroke="#000000" points="43.5,-625 43.5,-655 254.5,-655 254.5,-625 43.5,-625"/>
<text text-anchor="start" x="50.5" y="-637.8" font-family="Arial" font-size="14.00" fill="#000000">updated_at </text>
<text text-anchor="start" x="124.458" y="-637.8" font-family="Arial" font-size="14.00" fill="#666666">[timestamp(6)]</text>
</g>
<!-- clip_folders&#45;&gt;users -->
<g id="edge1" class="edge">
<title>clip_folders:user_id&#45;&gt;users:id</title>
<path fill="none" stroke="#000000" d="M264.5485,-729.257C328.5929,-718.8537 244.8071,-601.9392 305.5,-552 437.5107,-443.3792 1667.5459,-421 1838.5,-421"/>
<polygon fill="#000000" stroke="#000000" points="264.4728,-729.2625 254.1681,-725.5123 259.4864,-729.6313 254.5,-730 254.5,-730 254.5,-730 259.4864,-729.6313 254.8319,-734.4877 264.4728,-729.2625 264.4728,-729.2625"/>
<text text-anchor="start" x="261.5117" y="-739.5" font-family="Arial" font-size="10.00" fill="#000000">FOREIGN KEY (user_id) REFERENCES users (id)</text>
</g>
<!-- clips -->
<g id="node3" class="node">
<title>clips</title>
<polygon fill="#efefef" stroke="transparent" points="358.5,-790 358.5,-824 535.5,-824 535.5,-790 358.5,-790"/>
<polygon fill="none" stroke="#000000" points="358.5,-790 358.5,-824 535.5,-824 535.5,-790 358.5,-790"/>
<text text-anchor="start" x="378.5059" y="-803.6" font-family="Arial Bold" font-size="18.00" fill="#000000">clips</text>
<text text-anchor="start" x="419.5244" y="-803.6" font-family="Arial" font-size="14.00" fill="#000000"> </text>
<text text-anchor="start" x="423.4141" y="-803.6" font-family="Arial" font-size="14.00" fill="#666666">[BASE TABLE]</text>
<polygon fill="none" stroke="#000000" points="358.5,-760 358.5,-790 535.5,-790 535.5,-760 358.5,-760"/>
<text text-anchor="start" x="365.5" y="-772.8" font-family="Arial" font-size="14.00" fill="#000000">id </text>
<text text-anchor="start" x="380.2861" y="-772.8" font-family="Arial" font-size="14.00" fill="#666666">[char(36)]</text>
<polygon fill="none" stroke="#000000" points="358.5,-730 358.5,-760 535.5,-760 535.5,-730 358.5,-730"/>
<text text-anchor="start" x="365.5" y="-742.8" font-family="Arial" font-size="14.00" fill="#000000">user_id </text>
<text text-anchor="start" x="415.3066" y="-742.8" font-family="Arial" font-size="14.00" fill="#666666">[char(36)]</text>
<polygon fill="none" stroke="#000000" points="358.5,-700 358.5,-730 535.5,-730 535.5,-700 358.5,-700"/>
<text text-anchor="start" x="365.5" y="-712.8" font-family="Arial" font-size="14.00" fill="#000000">message_id </text>
<text text-anchor="start" x="444.8789" y="-712.8" font-family="Arial" font-size="14.00" fill="#666666">[char(36)]</text>
<polygon fill="none" stroke="#000000" points="358.5,-670 358.5,-700 535.5,-700 535.5,-670 358.5,-670"/>
<text text-anchor="start" x="365.5" y="-682.8" font-family="Arial" font-size="14.00" fill="#000000">folder_id </text>
<text text-anchor="start" x="423.0928" y="-682.8" font-family="Arial" font-size="14.00" fill="#666666">[char(36)]</text>
<polygon fill="none" stroke="#000000" points="358.5,-640 358.5,-670 535.5,-670 535.5,-640 358.5,-640"/>
<text text-anchor="start" x="365.5" y="-652.8" font-family="Arial" font-size="14.00" fill="#000000">created_at </text>
<text text-anchor="start" x="435.5479" y="-652.8" font-family="Arial" font-size="14.00" fill="#666666">[timestamp(6)]</text>
<polygon fill="none" stroke="#000000" points="358.5,-610 358.5,-640 535.5,-640 535.5,-610 358.5,-610"/>
<text text-anchor="start" x="365.29" y="-622.8" font-family="Arial" font-size="14.00" fill="#000000">updated_at </text>
<text text-anchor="start" x="439.248" y="-622.8" font-family="Arial" font-size="14.00" fill="#666666">[timestamp(6)]</text>
</g>
<!-- clips&#45;&gt;users -->
<g id="edge2" class="edge">
<title>clips:user_id&#45;&gt;users:id</title>
<path fill="none" stroke="#000000" d="M545.4808,-744.3315C616.0588,-734.0266 522.67,-607.2712 587.5,-552 693.8544,-461.3269 1698.74,-421 1838.5,-421"/>
<polygon fill="#000000" stroke="#000000" points="545.4776,-744.3317 535.1992,-740.5101 540.4888,-744.6658 535.5,-745 535.5,-745 535.5,-745 540.4888,-744.6658 535.8008,-749.4899 545.4776,-744.3317 545.4776,-744.3317"/>
<text text-anchor="start" x="542.5117" y="-754.5" font-family="Arial" font-size="10.00" fill="#000000">FOREIGN KEY (user_id) REFERENCES users (id)</text>
</g>
<!-- devices -->
<g id="node4" class="node">
<title>devices</title>
<polygon fill="#efefef" stroke="transparent" points="639.5,-745 639.5,-779 815.5,-779 815.5,-745 639.5,-745"/>
<polygon fill="none" stroke="#000000" points="639.5,-745 639.5,-779 815.5,-779 815.5,-745 639.5,-745"/>
<text text-anchor="start" x="646.4902" y="-758.6" font-family="Arial Bold" font-size="18.00" fill="#000000">devices</text>
<text text-anchor="start" x="712.54" y="-758.6" font-family="Arial" font-size="14.00" fill="#000000"> </text>
<text text-anchor="start" x="716.4297" y="-758.6" font-family="Arial" font-size="14.00" fill="#666666">[BASE TABLE]</text>
<polygon fill="none" stroke="#000000" points="639.5,-715 639.5,-745 815.5,-745 815.5,-715 639.5,-715"/>
<text text-anchor="start" x="646.5" y="-727.8" font-family="Arial" font-size="14.00" fill="#000000">token </text>
<text text-anchor="start" x="684.6377" y="-727.8" font-family="Arial" font-size="14.00" fill="#666666">[varchar(190)]</text>
<polygon fill="none" stroke="#000000" points="639.5,-685 639.5,-715 815.5,-715 815.5,-685 639.5,-685"/>
<text text-anchor="start" x="646.5" y="-697.8" font-family="Arial" font-size="14.00" fill="#000000">user_id </text>
<text text-anchor="start" x="696.3066" y="-697.8" font-family="Arial" font-size="14.00" fill="#666666">[char(36)]</text>
<polygon fill="none" stroke="#000000" points="639.5,-655 639.5,-685 815.5,-685 815.5,-655 639.5,-655"/>
<text text-anchor="start" x="646.5" y="-667.8" font-family="Arial" font-size="14.00" fill="#000000">created_at </text>
<text text-anchor="start" x="716.5479" y="-667.8" font-family="Arial" font-size="14.00" fill="#666666">[timestamp(6)]</text>
</g>
<!-- devices&#45;&gt;users -->
<g id="edge3" class="edge">
<title>devices:user_id&#45;&gt;users:id</title>
<path fill="none" stroke="#000000" d="M825.7126,-699.094C877.7454,-688.8075 816.3984,-593.6215 867.5,-552 951.9107,-483.2489 1729.6337,-421 1838.5,-421"/>
<polygon fill="#000000" stroke="#000000" points="825.4609,-699.1162 815.1023,-695.5176 820.4804,-699.5581 815.5,-700 815.5,-700 815.5,-700 820.4804,-699.5581 815.8977,-704.4824 825.4609,-699.1162 825.4609,-699.1162"/>
<text text-anchor="start" x="583.5117" y="-709.5" font-family="Arial" font-size="10.00" fill="#000000">FOREIGN KEY (user_id) REFERENCES users (id)</text>
</g>
<!-- dm_channel_mappings -->
<g id="node5" class="node">
<title>dm_channel_mappings</title>
<polygon fill="#efefef" stroke="transparent" points="919.5,-745 919.5,-779 1229.5,-779 1229.5,-745 919.5,-745"/>
<polygon fill="none" stroke="#000000" points="919.5,-745 919.5,-779 1229.5,-779 1229.5,-745 919.5,-745"/>
<text text-anchor="start" x="926.4912" y="-758.6" font-family="Arial Bold" font-size="18.00" fill="#000000">dm_channel_mappings</text>
<text text-anchor="start" x="1126.5391" y="-758.6" font-family="Arial" font-size="14.00" fill="#000000"> </text>
<text text-anchor="start" x="1130.4287" y="-758.6" font-family="Arial" font-size="14.00" fill="#666666">[BASE TABLE]</text>
<polygon fill="none" stroke="#000000" points="919.5,-715 919.5,-745 1229.5,-745 1229.5,-715 919.5,-715"/>
<text text-anchor="start" x="926.5" y="-727.8" font-family="Arial" font-size="14.00" fill="#000000">channel_id </text>
<text text-anchor="start" x="998.1133" y="-727.8" font-family="Arial" font-size="14.00" fill="#666666">[char(36)]</text>
<polygon fill="none" stroke="#000000" points="919.5,-685 919.5,-715 1229.5,-715 1229.5,-685 919.5,-685"/>
<text text-anchor="start" x="926.5" y="-697.8" font-family="Arial" font-size="14.00" fill="#000000">user1 </text>
<text text-anchor="start" x="965.4102" y="-697.8" font-family="Arial" font-size="14.00" fill="#666666">[char(36)]</text>
<polygon fill="none" stroke="#000000" points="919.5,-655 919.5,-685 1229.5,-685 1229.5,-655 919.5,-655"/>
<text text-anchor="start" x="926.5" y="-667.8" font-family="Arial" font-size="14.00" fill="#000000">user2 </text>
<text text-anchor="start" x="965.4102" y="-667.8" font-family="Arial" font-size="14.00" fill="#666666">[char(36)]</text>
</g>
<!-- dm_channel_mappings&#45;&gt;users -->
<g id="edge4" class="edge">
<title>dm_channel_mappings:user1&#45;&gt;users:id</title>
<path fill="none" stroke="#000000" d="M1239.7312,-699.1157C1291.9724,-689.0728 1232.4738,-596.0472 1281.5,-552 1376.0868,-467.0192 1711.345,-421 1838.5,-421"/>
<polygon fill="#000000" stroke="#000000" points="1239.4629,-699.1388 1229.1125,-695.5167 1234.4814,-699.5694 1229.5,-700 1229.5,-700 1229.5,-700 1234.4814,-699.5694 1229.8875,-704.4833 1239.4629,-699.1388 1239.4629,-699.1388"/>
<text text-anchor="start" x="1120.4033" y="-684.5" font-family="Arial" font-size="10.00" fill="#000000">FOREIGN KEY (user1) REFERENCES users (id)</text>
</g>
<!-- dm_channel_mappings&#45;&gt;users -->
<g id="edge5" class="edge">
<title>dm_channel_mappings:user2&#45;&gt;users:id</title>
<path fill="none" stroke="#000000" d="M1239.5645,-668.9604C1280.6636,-659.3902 1240.3489,-586.1963 1281.5,-552 1379.2956,-470.7324 1711.345,-421 1838.5,-421"/>
<polygon fill="#000000" stroke="#000000" points="1239.4471,-668.9725 1229.0376,-665.5238 1234.4735,-669.4862 1229.5,-670 1229.5,-670 1229.5,-670 1234.4735,-669.4862 1229.9624,-674.4762 1239.4471,-668.9725 1239.4471,-668.9725"/>
<text text-anchor="start" x="1120.4033" y="-654.5" font-family="Arial" font-size="10.00" fill="#000000">FOREIGN KEY (user2) REFERENCES users (id)</text>
</g>
<!-- messages -->
<g id="node6" class="node">
<title>messages</title>
<polygon fill="#efefef" stroke="transparent" points="1334.5,-805 1334.5,-839 1531.5,-839 1531.5,-805 1334.5,-805"/>
<polygon fill="none" stroke="#000000" points="1334.5,-805 1334.5,-839 1531.5,-839 1531.5,-805 1334.5,-805"/>
<text text-anchor="start" x="1341.4829" y="-818.6" font-family="Arial Bold" font-size="18.00" fill="#000000">messages</text>
<text text-anchor="start" x="1428.5474" y="-818.6" font-family="Arial" font-size="14.00" fill="#000000"> </text>
<text text-anchor="start" x="1432.437" y="-818.6" font-family="Arial" font-size="14.00" fill="#666666">[BASE TABLE]</text>
<polygon fill="none" stroke="#000000" points="1334.5,-775 1334.5,-805 1531.5,-805 1531.5,-775 1334.5,-775"/>
<text text-anchor="start" x="1341.5" y="-787.8" font-family="Arial" font-size="14.00" fill="#000000">id </text>
<text text-anchor="start" x="1356.2861" y="-787.8" font-family="Arial" font-size="14.00" fill="#666666">[char(36)]</text>
<polygon fill="none" stroke="#000000" points="1334.5,-745 1334.5,-775 1531.5,-775 1531.5,-745 1334.5,-745"/>
<text text-anchor="start" x="1341.5" y="-757.8" font-family="Arial" font-size="14.00" fill="#000000">user_id </text>
<text text-anchor="start" x="1391.3066" y="-757.8" font-family="Arial" font-size="14.00" fill="#666666">[char(36)]</text>
<polygon fill="none" stroke="#000000" points="1334.5,-715 1334.5,-745 1531.5,-745 1531.5,-715 1334.5,-715"/>
<text text-anchor="start" x="1341.5" y="-727.8" font-family="Arial" font-size="14.00" fill="#000000">channel_id </text>
<text text-anchor="start" x="1413.1133" y="-727.8" font-family="Arial" font-size="14.00" fill="#666666">[char(36)]</text>
<polygon fill="none" stroke="#000000" points="1334.5,-685 1334.5,-715 1531.5,-715 1531.5,-685 1334.5,-685"/>
<text text-anchor="start" x="1341.5" y="-697.8" font-family="Arial" font-size="14.00" fill="#000000">text </text>
<text text-anchor="start" x="1367.9551" y="-697.8" font-family="Arial" font-size="14.00" fill="#666666">[text]</text>
<polygon fill="none" stroke="#000000" points="1334.5,-655 1334.5,-685 1531.5,-685 1531.5,-655 1334.5,-655"/>
<text text-anchor="start" x="1341.5" y="-667.8" font-family="Arial" font-size="14.00" fill="#000000">created_at </text>
<text text-anchor="start" x="1411.5479" y="-667.8" font-family="Arial" font-size="14.00" fill="#666666">[timestamp(6)]</text>
<polygon fill="none" stroke="#000000" points="1334.5,-625 1334.5,-655 1531.5,-655 1531.5,-625 1334.5,-625"/>
<text text-anchor="start" x="1341.5" y="-637.8" font-family="Arial" font-size="14.00" fill="#000000">updated_at </text>
<text text-anchor="start" x="1415.458" y="-637.8" font-family="Arial" font-size="14.00" fill="#666666">[timestamp(6)]</text>
<polygon fill="none" stroke="#000000" points="1334.5,-595 1334.5,-625 1531.5,-625 1531.5,-595 1334.5,-595"/>
<text text-anchor="start" x="1341.5" y="-607.8" font-family="Arial" font-size="14.00" fill="#000000">deleted_at </text>
<text text-anchor="start" x="1410.7822" y="-607.8" font-family="Arial" font-size="14.00" fill="#666666">[timestamp(6)]</text>
</g>
<!-- messages&#45;&gt;users -->
<g id="edge6" class="edge">
<title>messages:user_id&#45;&gt;users:id</title>
<path fill="none" stroke="#000000" d="M1541.7827,-759.401C1619.0279,-749.6719 1526.5947,-623.7381 1583.5,-552 1662.6824,-452.1781 1711.0862,-421 1838.5,-421"/>
<polygon fill="#000000" stroke="#000000" points="1541.4831,-759.4184 1531.2383,-755.5076 1536.4915,-759.7092 1531.5,-760 1531.5,-760 1531.5,-760 1536.4915,-759.7092 1531.7617,-764.4924 1541.4831,-759.4184 1541.4831,-759.4184"/>
<text text-anchor="start" x="1419.0117" y="-744.5" font-family="Arial" font-size="10.00" fill="#000000">FOREIGN KEY (user_id) REFERENCES users (id)</text>
</g>
<!-- messages_stamps -->
<g id="node7" class="node">
<title>messages_stamps</title>
<polygon fill="#efefef" stroke="transparent" points="1635.5,-790 1635.5,-824 1905.5,-824 1905.5,-790 1635.5,-790"/>
<polygon fill="none" stroke="#000000" points="1635.5,-790 1635.5,-824 1905.5,-824 1905.5,-790 1635.5,-790"/>
<text text-anchor="start" x="1642.4644" y="-803.6" font-family="Arial Bold" font-size="18.00" fill="#000000">messages_stamps</text>
<text text-anchor="start" x="1802.5659" y="-803.6" font-family="Arial" font-size="14.00" fill="#000000"> </text>
<text text-anchor="start" x="1806.4556" y="-803.6" font-family="Arial" font-size="14.00" fill="#666666">[BASE TABLE]</text>
<polygon fill="none" stroke="#000000" points="1635.5,-760 1635.5,-790 1905.5,-790 1905.5,-760 1635.5,-760"/>
<text text-anchor="start" x="1642.5" y="-772.8" font-family="Arial" font-size="14.00" fill="#000000">message_id </text>
<text text-anchor="start" x="1721.8789" y="-772.8" font-family="Arial" font-size="14.00" fill="#666666">[char(36)]</text>
<polygon fill="none" stroke="#000000" points="1635.5,-730 1635.5,-760 1905.5,-760 1905.5,-730 1635.5,-730"/>
<text text-anchor="start" x="1642.5" y="-742.8" font-family="Arial" font-size="14.00" fill="#000000">stamp_id </text>
<text text-anchor="start" x="1703.1963" y="-742.8" font-family="Arial" font-size="14.00" fill="#666666">[char(36)]</text>
<polygon fill="none" stroke="#000000" points="1635.5,-700 1635.5,-730 1905.5,-730 1905.5,-700 1635.5,-700"/>
<text text-anchor="start" x="1642.5" y="-712.8" font-family="Arial" font-size="14.00" fill="#000000">user_id </text>
<text text-anchor="start" x="1692.3066" y="-712.8" font-family="Arial" font-size="14.00" fill="#666666">[char(36)]</text>
<polygon fill="none" stroke="#000000" points="1635.5,-670 1635.5,-700 1905.5,-700 1905.5,-670 1635.5,-670"/>
<text text-anchor="start" x="1642.5" y="-682.8" font-family="Arial" font-size="14.00" fill="#000000">count </text>
<text text-anchor="start" x="1680.6377" y="-682.8" font-family="Arial" font-size="14.00" fill="#666666">[int(11)]</text>
<polygon fill="none" stroke="#000000" points="1635.5,-640 1635.5,-670 1905.5,-670 1905.5,-640 1635.5,-640"/>
<text text-anchor="start" x="1642.5" y="-652.8" font-family="Arial" font-size="14.00" fill="#000000">created_at </text>
<text text-anchor="start" x="1712.5479" y="-652.8" font-family="Arial" font-size="14.00" fill="#666666">[timestamp(6)]</text>
<polygon fill="none" stroke="#000000" points="1635.5,-610 1635.5,-640 1905.5,-640 1905.5,-610 1635.5,-610"/>
<text text-anchor="start" x="1642.5" y="-622.8" font-family="Arial" font-size="14.00" fill="#000000">updated_at </text>
<text text-anchor="start" x="1716.458" y="-622.8" font-family="Arial" font-size="14.00" fill="#666666">[timestamp(6)]</text>
</g>
<!-- messages_stamps&#45;&gt;users -->
<g id="edge7" class="edge">
<title>messages_stamps:user_id&#45;&gt;users:id</title>
<path fill="none" stroke="#000000" d="M1915.712,-714.1645C1967.1586,-705.0076 1933.0526,-622.5996 1905.5,-567 1888.8832,-533.4683 1855.1168,-549.5317 1838.5,-516 1819.7523,-478.1683 1796.2778,-421 1838.5,-421"/>
<polygon fill="#000000" stroke="#000000" points="1915.4667,-714.1845 1905.133,-710.515 1910.4833,-714.5922 1905.5,-715 1905.5,-715 1905.5,-715 1910.4833,-714.5922 1905.867,-719.485 1915.4667,-714.1845 1915.4667,-714.1845"/>
<text text-anchor="start" x="1912.5117" y="-724.5" font-family="Arial" font-size="10.00" fill="#000000">FOREIGN KEY (user_id) REFERENCES users (id)</text>
</g>
<!-- mutes -->
<g id="node8" class="node">
<title>mutes</title>
<polygon fill="#efefef" stroke="transparent" points="2009.5,-730 2009.5,-764 2171.5,-764 2171.5,-730 2009.5,-730"/>
<polygon fill="none" stroke="#000000" points="2009.5,-730 2009.5,-764 2171.5,-764 2171.5,-730 2009.5,-730"/>
<text text-anchor="start" x="2016.0073" y="-743.6" font-family="Arial Bold" font-size="18.00" fill="#000000">mutes</text>
<text text-anchor="start" x="2069.0229" y="-743.6" font-family="Arial" font-size="14.00" fill="#000000"> </text>
<text text-anchor="start" x="2072.9126" y="-743.6" font-family="Arial" font-size="14.00" fill="#666666">[BASE TABLE]</text>
<polygon fill="none" stroke="#000000" points="2009.5,-700 2009.5,-730 2171.5,-730 2171.5,-700 2009.5,-700"/>
<text text-anchor="start" x="2016.5" y="-712.8" font-family="Arial" font-size="14.00" fill="#000000">user_id </text>
<text text-anchor="start" x="2066.3066" y="-712.8" font-family="Arial" font-size="14.00" fill="#666666">[char(36)]</text>
<polygon fill="none" stroke="#000000" points="2009.5,-670 2009.5,-700 2171.5,-700 2171.5,-670 2009.5,-670"/>
<text text-anchor="start" x="2016.5" y="-682.8" font-family="Arial" font-size="14.00" fill="#000000">channel_id </text>
<text text-anchor="start" x="2088.1133" y="-682.8" font-family="Arial" font-size="14.00" fill="#666666">[char(36)]</text>
</g>
<!-- mutes&#45;&gt;users -->
<g id="edge8" class="edge">
<title>mutes:user_id&#45;&gt;users:id</title>
<path fill="none" stroke="#000000" d="M1999.3437,-714.306C1893.8943,-698.5835 2148.5719,-421 2021.5,-421"/>
<polygon fill="#000000" stroke="#000000" points="1999.5233,-714.3181 2009.1932,-719.4895 2004.5116,-714.6591 2009.5,-715 2009.5,-715 2009.5,-715 2004.5116,-714.6591 2009.8068,-710.5105 1999.5233,-714.3181 1999.5233,-714.3181"/>
<text text-anchor="start" x="1956.7617" y="-699.5" font-family="Arial" font-size="10.00" fill="#000000">FOREIGN KEY (user_id) REFERENCES users (id)</text>
</g>
<!-- pins -->
<g id="node9" class="node">
<title>pins</title>
<polygon fill="#efefef" stroke="transparent" points="2276.5,-760 2276.5,-794 2449.5,-794 2449.5,-760 2276.5,-760"/>
<polygon fill="none" stroke="#000000" points="2276.5,-760 2276.5,-794 2449.5,-794 2449.5,-760 2276.5,-760"/>
<text text-anchor="start" x="2296.5142" y="-773.6" font-family="Arial Bold" font-size="18.00" fill="#000000">pins</text>
<text text-anchor="start" x="2333.5161" y="-773.6" font-family="Arial" font-size="14.00" fill="#000000"> </text>
<text text-anchor="start" x="2337.4058" y="-773.6" font-family="Arial" font-size="14.00" fill="#666666">[BASE TABLE]</text>
<polygon fill="none" stroke="#000000" points="2276.5,-730 2276.5,-760 2449.5,-760 2449.5,-730 2276.5,-730"/>
<text text-anchor="start" x="2283.5" y="-742.8" font-family="Arial" font-size="14.00" fill="#000000">id </text>
<text text-anchor="start" x="2298.2861" y="-742.8" font-family="Arial" font-size="14.00" fill="#666666">[char(36)]</text>
<polygon fill="none" stroke="#000000" points="2276.5,-700 2276.5,-730 2449.5,-730 2449.5,-700 2276.5,-700"/>
<text text-anchor="start" x="2283.5" y="-712.8" font-family="Arial" font-size="14.00" fill="#000000">message_id </text>
<text text-anchor="start" x="2362.8789" y="-712.8" font-family="Arial" font-size="14.00" fill="#666666">[char(36)]</text>
<polygon fill="none" stroke="#000000" points="2276.5,-670 2276.5,-700 2449.5,-700 2449.5,-670 2276.5,-670"/>
<text text-anchor="start" x="2283.5" y="-682.8" font-family="Arial" font-size="14.00" fill="#000000">user_id </text>
<text text-anchor="start" x="2333.3066" y="-682.8" font-family="Arial" font-size="14.00" fill="#666666">[char(36)]</text>
<polygon fill="none" stroke="#000000" points="2276.5,-640 2276.5,-670 2449.5,-670 2449.5,-640 2276.5,-640"/>
<text text-anchor="start" x="2283.2451" y="-652.8" font-family="Arial" font-size="14.00" fill="#000000">created_at </text>
<text text-anchor="start" x="2353.293" y="-652.8" font-family="Arial" font-size="14.00" fill="#666666">[timestamp(6)]</text>
</g>
<!-- pins&#45;&gt;users -->
<g id="edge9" class="edge">
<title>pins:user_id&#45;&gt;users:id</title>
<path fill="none" stroke="#000000" d="M2266.454,-684.1605C2218.5317,-675.2966 2261.5075,-598.3015 2223.5,-552 2155.6079,-469.2925 2128.5041,-421 2021.5,-421"/>
<polygon fill="#000000" stroke="#000000" points="2266.5347,-684.1672 2276.1252,-689.4844 2271.5174,-684.5836 2276.5,-685 2276.5,-685 2276.5,-685 2271.5174,-684.5836 2276.8748,-680.5156 2266.5347,-684.1672 2266.5347,-684.1672"/>
<text text-anchor="start" x="2283.5117" y="-694.5" font-family="Arial" font-size="10.00" fill="#000000">FOREIGN KEY (user_id) REFERENCES users (id)</text>
</g>
<!-- stars -->
<g id="node10" class="node">
<title>stars</title>
<polygon fill="#efefef" stroke="transparent" points="2553.5,-730 2553.5,-764 2706.5,-764 2706.5,-730 2553.5,-730"/>
<polygon fill="none" stroke="#000000" points="2553.5,-730 2553.5,-764 2706.5,-764 2706.5,-730 2553.5,-730"/>
<text text-anchor="start" x="2560.4995" y="-743.6" font-family="Arial Bold" font-size="18.00" fill="#000000">stars</text>
<text text-anchor="start" x="2603.5308" y="-743.6" font-family="Arial" font-size="14.00" fill="#000000"> </text>
<text text-anchor="start" x="2607.4204" y="-743.6" font-family="Arial" font-size="14.00" fill="#666666">[BASE TABLE]</text>
<polygon fill="none" stroke="#000000" points="2553.5,-700 2553.5,-730 2706.5,-730 2706.5,-700 2553.5,-700"/>
<text text-anchor="start" x="2560.5" y="-712.8" font-family="Arial" font-size="14.00" fill="#000000">user_id </text>
<text text-anchor="start" x="2610.3066" y="-712.8" font-family="Arial" font-size="14.00" fill="#666666">[char(36)]</text>
<polygon fill="none" stroke="#000000" points="2553.5,-670 2553.5,-700 2706.5,-700 2706.5,-670 2553.5,-670"/>
<text text-anchor="start" x="2560.5" y="-682.8" font-family="Arial" font-size="14.00" fill="#000000">channel_id </text>
<text text-anchor="start" x="2632.1133" y="-682.8" font-family="Arial" font-size="14.00" fill="#666666">[char(36)]</text>
</g>
<!-- stars&#45;&gt;users -->
<g id="edge10" class="edge">
<title>stars:user_id&#45;&gt;users:id</title>
<path fill="none" stroke="#000000" d="M2543.436,-714.2301C2484.8482,-704.3582 2553.7163,-602.0488 2501.5,-552 2421.6776,-475.4911 2132.0678,-421 2021.5,-421"/>
<polygon fill="#000000" stroke="#000000" points="2543.5291,-714.2371 2553.1567,-719.4869 2548.5146,-714.6185 2553.5,-715 2553.5,-715 2553.5,-715 2548.5146,-714.6185 2553.8433,-710.5131 2543.5291,-714.2371 2543.5291,-714.2371"/>
<text text-anchor="start" x="2321.5117" y="-724.5" font-family="Arial" font-size="10.00" fill="#000000">FOREIGN KEY (user_id) REFERENCES users (id)</text>
</g>
<!-- unreads -->
<g id="node11" class="node">
<title>unreads</title>
<polygon fill="#efefef" stroke="transparent" points="2810.5,-760 2810.5,-794 2989.5,-794 2989.5,-760 2810.5,-760"/>
<polygon fill="none" stroke="#000000" points="2810.5,-760 2810.5,-794 2989.5,-794 2989.5,-760 2810.5,-760"/>
<text text-anchor="start" x="2817.0039" y="-773.6" font-family="Arial Bold" font-size="18.00" fill="#000000">unreads</text>
<text text-anchor="start" x="2887.0264" y="-773.6" font-family="Arial" font-size="14.00" fill="#000000"> </text>
<text text-anchor="start" x="2890.916" y="-773.6" font-family="Arial" font-size="14.00" fill="#666666">[BASE TABLE]</text>
<polygon fill="none" stroke="#000000" points="2810.5,-730 2810.5,-760 2989.5,-760 2989.5,-730 2810.5,-730"/>
<text text-anchor="start" x="2817.5" y="-742.8" font-family="Arial" font-size="14.00" fill="#000000">user_id </text>
<text text-anchor="start" x="2867.3066" y="-742.8" font-family="Arial" font-size="14.00" fill="#666666">[char(36)]</text>
<polygon fill="none" stroke="#000000" points="2810.5,-700 2810.5,-730 2989.5,-730 2989.5,-700 2810.5,-700"/>
<text text-anchor="start" x="2817.5" y="-712.8" font-family="Arial" font-size="14.00" fill="#000000">message_id </text>
<text text-anchor="start" x="2896.8789" y="-712.8" font-family="Arial" font-size="14.00" fill="#666666">[char(36)]</text>
<polygon fill="none" stroke="#000000" points="2810.5,-670 2810.5,-700 2989.5,-700 2989.5,-670 2810.5,-670"/>
<text text-anchor="start" x="2817.5" y="-682.8" font-family="Arial" font-size="14.00" fill="#000000">noticeable </text>
<text text-anchor="start" x="2885.2168" y="-682.8" font-family="Arial" font-size="14.00" fill="#666666">[tinyint(1)]</text>
<polygon fill="none" stroke="#000000" points="2810.5,-640 2810.5,-670 2989.5,-670 2989.5,-640 2810.5,-640"/>
<text text-anchor="start" x="2817.5" y="-652.8" font-family="Arial" font-size="14.00" fill="#000000">created_at </text>
<text text-anchor="start" x="2887.5479" y="-652.8" font-family="Arial" font-size="14.00" fill="#666666">[timestamp(6)]</text>
</g>
<!-- unreads&#45;&gt;users -->
<g id="edge11" class="edge">
<title>unreads:user_id&#45;&gt;users:id</title>
<path fill="none" stroke="#000000" d="M2800.509,-744.3431C2729.7756,-734.214 2821.3109,-609.5554 2758.5,-552 2635.8575,-439.6193 2187.8449,-421 2021.5,-421"/>
<polygon fill="#000000" stroke="#000000" points="2800.5215,-744.3438 2810.2047,-749.4903 2805.5108,-744.6719 2810.5,-745 2810.5,-745 2810.5,-745 2805.5108,-744.6719 2810.7953,-740.5097 2800.5215,-744.3438 2800.5215,-744.3438"/>
<text text-anchor="start" x="2578.5117" y="-754.5" font-family="Arial" font-size="10.00" fill="#000000">FOREIGN KEY (user_id) REFERENCES users (id)</text>
</g>
<!-- users_private_channels -->
<g id="node12" class="node">
<title>users_private_channels</title>
<polygon fill="#efefef" stroke="transparent" points="3093.5,-730 3093.5,-764 3408.5,-764 3408.5,-730 3093.5,-730"/>
<polygon fill="none" stroke="#000000" points="3093.5,-730 3093.5,-764 3408.5,-764 3408.5,-730 3093.5,-730"/>
<text text-anchor="start" x="3100.46" y="-743.6" font-family="Arial Bold" font-size="18.00" fill="#000000">users_private_channels</text>
<text text-anchor="start" x="3305.5703" y="-743.6" font-family="Arial" font-size="14.00" fill="#000000"> </text>
<text text-anchor="start" x="3309.46" y="-743.6" font-family="Arial" font-size="14.00" fill="#666666">[BASE TABLE]</text>
<polygon fill="none" stroke="#000000" points="3093.5,-700 3093.5,-730 3408.5,-730 3408.5,-700 3093.5,-700"/>
<text text-anchor="start" x="3100.5" y="-712.8" font-family="Arial" font-size="14.00" fill="#000000">user_id </text>
<text text-anchor="start" x="3150.3066" y="-712.8" font-family="Arial" font-size="14.00" fill="#666666">[char(36)]</text>
<polygon fill="none" stroke="#000000" points="3093.5,-670 3093.5,-700 3408.5,-700 3408.5,-670 3093.5,-670"/>
<text text-anchor="start" x="3100.5" y="-682.8" font-family="Arial" font-size="14.00" fill="#000000">channel_id </text>
<text text-anchor="start" x="3172.1133" y="-682.8" font-family="Arial" font-size="14.00" fill="#666666">[char(36)]</text>
</g>
<!-- users_private_channels&#45;&gt;users -->
<g id="edge12" class="edge">
<title>users_private_channels:user_id&#45;&gt;users:id</title>
<path fill="none" stroke="#000000" d="M3083.4599,-714.2033C3025.1746,-703.9931 3097.0588,-598.3103 3041.5,-552 2953.7286,-478.8393 2135.7642,-421 2021.5,-421"/>
<polygon fill="#000000" stroke="#000000" points="3083.5313,-714.2089 3093.144,-719.4859 3088.5157,-714.6044 3093.5,-715 3093.5,-715 3093.5,-715 3088.5157,-714.6044 3093.856,-710.5141 3083.5313,-714.2089 3083.5313,-714.2089"/>
<text text-anchor="start" x="2861.5117" y="-724.5" font-family="Arial" font-size="10.00" fill="#000000">FOREIGN KEY (user_id) REFERENCES users (id)</text>
</g>
<!-- users_subscribe_channels -->
<g id="node13" class="node">
<title>users_subscribe_channels</title>
<polygon fill="#efefef" stroke="transparent" points="3512.5,-730 3512.5,-764 3853.5,-764 3853.5,-730 3512.5,-730"/>
<polygon fill="none" stroke="#000000" points="3512.5,-730 3512.5,-764 3853.5,-764 3853.5,-730 3512.5,-730"/>
<text text-anchor="start" x="3519.4565" y="-743.6" font-family="Arial Bold" font-size="18.00" fill="#000000">users_subscribe_channels</text>
<text text-anchor="start" x="3750.5737" y="-743.6" font-family="Arial" font-size="14.00" fill="#000000"> </text>
<text text-anchor="start" x="3754.4634" y="-743.6" font-family="Arial" font-size="14.00" fill="#666666">[BASE TABLE]</text>
<polygon fill="none" stroke="#000000" points="3512.5,-700 3512.5,-730 3853.5,-730 3853.5,-700 3512.5,-700"/>
<text text-anchor="start" x="3519.5" y="-712.8" font-family="Arial" font-size="14.00" fill="#000000">user_id </text>
<text text-anchor="start" x="3569.3066" y="-712.8" font-family="Arial" font-size="14.00" fill="#666666">[char(36)]</text>
<polygon fill="none" stroke="#000000" points="3512.5,-670 3512.5,-700 3853.5,-700 3853.5,-670 3512.5,-670"/>
<text text-anchor="start" x="3519.5" y="-682.8" font-family="Arial" font-size="14.00" fill="#000000">channel_id </text>
<text text-anchor="start" x="3591.1133" y="-682.8" font-family="Arial" font-size="14.00" fill="#666666">[char(36)]</text>
</g>
<!-- users_subscribe_channels&#45;&gt;users -->
<g id="edge13" class="edge">
<title>users_subscribe_channels:user_id&#45;&gt;users:id</title>
<path fill="none" stroke="#000000" d="M3502.4659,-714.1959C3444.2572,-703.8921 3516.9048,-597.2761 3460.5,-552 3335.2965,-451.4992 2182.0501,-421 2021.5,-421"/>
<polygon fill="#000000" stroke="#000000" points="3502.532,-714.2011 3512.1405,-719.4856 3507.516,-714.6006 3512.5,-715 3512.5,-715 3512.5,-715 3507.516,-714.6006 3512.8595,-710.5144 3502.532,-714.2011 3502.532,-714.2011"/>
<text text-anchor="start" x="3459.7617" y="-699.5" font-family="Arial" font-size="10.00" fill="#000000">FOREIGN KEY (user_id) REFERENCES users (id)</text>
</g>
<!-- users_tags -->
<g id="node14" class="node">
<title>users_tags</title>
<polygon fill="#efefef" stroke="transparent" points="3957.5,-775 3957.5,-809 4162.5,-809 4162.5,-775 3957.5,-775"/>
<polygon fill="none" stroke="#000000" points="3957.5,-775 3957.5,-809 4162.5,-809 4162.5,-775 3957.5,-775"/>
<text text-anchor="start" x="3964.4883" y="-788.6" font-family="Arial Bold" font-size="18.00" fill="#000000">users_tags</text>
<text text-anchor="start" x="4059.542" y="-788.6" font-family="Arial" font-size="14.00" fill="#000000"> </text>
<text text-anchor="start" x="4063.4316" y="-788.6" font-family="Arial" font-size="14.00" fill="#666666">[BASE TABLE]</text>
<polygon fill="none" stroke="#000000" points="3957.5,-745 3957.5,-775 4162.5,-775 4162.5,-745 3957.5,-745"/>
<text text-anchor="start" x="3964.5" y="-757.8" font-family="Arial" font-size="14.00" fill="#000000">user_id </text>
<text text-anchor="start" x="4014.3066" y="-757.8" font-family="Arial" font-size="14.00" fill="#666666">[char(36)]</text>
<polygon fill="none" stroke="#000000" points="3957.5,-715 3957.5,-745 4162.5,-745 4162.5,-715 3957.5,-715"/>
<text text-anchor="start" x="3964.5" y="-727.8" font-family="Arial" font-size="14.00" fill="#000000">tag_id </text>
<text text-anchor="start" x="4006.5342" y="-727.8" font-family="Arial" font-size="14.00" fill="#666666">[char(36)]</text>
<polygon fill="none" stroke="#000000" points="3957.5,-685 3957.5,-715 4162.5,-715 4162.5,-685 3957.5,-685"/>
<text text-anchor="start" x="3964.5" y="-697.8" font-family="Arial" font-size="14.00" fill="#000000">is_locked </text>
<text text-anchor="start" x="4026.7549" y="-697.8" font-family="Arial" font-size="14.00" fill="#666666">[tinyint(1)]</text>
<polygon fill="none" stroke="#000000" points="3957.5,-655 3957.5,-685 4162.5,-685 4162.5,-655 3957.5,-655"/>
<text text-anchor="start" x="3964.5" y="-667.8" font-family="Arial" font-size="14.00" fill="#000000">created_at </text>
<text text-anchor="start" x="4034.5479" y="-667.8" font-family="Arial" font-size="14.00" fill="#666666">[timestamp(6)]</text>
<polygon fill="none" stroke="#000000" points="3957.5,-625 3957.5,-655 4162.5,-655 4162.5,-625 3957.5,-625"/>
<text text-anchor="start" x="3964.5" y="-637.8" font-family="Arial" font-size="14.00" fill="#000000">updated_at </text>
<text text-anchor="start" x="4038.458" y="-637.8" font-family="Arial" font-size="14.00" fill="#666666">[timestamp(6)]</text>
</g>
<!-- users_tags&#45;&gt;users -->
<g id="edge14" class="edge">
<title>users_tags:user_id&#45;&gt;users:id</title>
<path fill="none" stroke="#000000" d="M3947.278,-759.3419C3871.0088,-748.6629 3975.6748,-610.8224 3905.5,-552 3825.0926,-484.6003 2126.4194,-421 2021.5,-421"/>
<polygon fill="#000000" stroke="#000000" points="3947.5207,-759.3574 3957.2109,-764.4907 3952.5103,-759.6787 3957.5,-760 3957.5,-760 3957.5,-760 3952.5103,-759.6787 3957.7891,-755.5093 3947.5207,-759.3574 3947.5207,-759.3574"/>
<text text-anchor="start" x="3725.5117" y="-769.5" font-family="Arial" font-size="10.00" fill="#000000">FOREIGN KEY (user_id) REFERENCES users (id)</text>
</g>
</g>
</svg>
