<?xml version="1.0" encoding="UTF-8" standalone="no"?>
<!DOCTYPE svg PUBLIC "-//W3C//DTD SVG 1.1//EN"
 "http://www.w3.org/Graphics/SVG/1.1/DTD/svg11.dtd">
<!-- Generated by graphviz version 2.40.1 (20161225.0304)
 -->
<!-- Title: user_role_inheritances Pages: 1 -->
<svg width="703pt" height="442pt"
 viewBox="0.00 0.00 703.00 442.00" xmlns="http://www.w3.org/2000/svg" xmlns:xlink="http://www.w3.org/1999/xlink">
<g id="graph0" class="graph" transform="scale(1 1) rotate(0) translate(4 438)">
<title>user_role_inheritances</title>
<polygon fill="#ffffff" stroke="transparent" points="-4,4 -4,-438 699,-438 699,4 -4,4"/>
<!-- user_role_inheritances -->
<g id="node1" class="node">
<title>user_role_inheritances</title>
<polygon fill="#efefef" stroke="transparent" points="263,-352.5 263,-387.5 556,-387.5 556,-352.5 263,-352.5"/>
<polygon fill="none" stroke="#000000" points="263,-352.5 263,-387.5 556,-387.5 556,-352.5 263,-352.5"/>
<text text-anchor="start" x="269.8552" y="-365.3" font-family="Arial Bold" font-size="18.00" fill="#000000">user_role_inheritances</text>
<text text-anchor="start" x="451.891" y="-365.3" font-family="Arial" font-size="14.00" fill="#000000"> </text>
<text text-anchor="start" x="455.7816" y="-365.3" font-family="Arial" font-size="14.00" fill="#666666">[BASE TABLE]</text>
<polygon fill="none" stroke="#000000" points="263,-322.5 263,-352.5 556,-352.5 556,-322.5 263,-322.5"/>
<text text-anchor="start" x="270" y="-333.9" font-family="Arial" font-size="14.00" fill="#000000">role </text>
<text text-anchor="start" x="297.223" y="-333.9" font-family="Arial" font-size="14.00" fill="#666666">[varchar(30)]</text>
<polygon fill="none" stroke="#000000" points="263,-292.5 263,-322.5 556,-322.5 556,-292.5 263,-292.5"/>
<text text-anchor="start" x="270" y="-303.9" font-family="Arial" font-size="14.00" fill="#000000">sub_role </text>
<text text-anchor="start" x="327.5708" y="-303.9" font-family="Arial" font-size="14.00" fill="#666666">[varchar(30)]</text>
<polygon fill="none" stroke="#000000" stroke-width="3" points="261,-291.5 261,-389.5 557,-389.5 557,-291.5 261,-291.5"/>
</g>
<!-- user_roles -->
<g id="node2" class="node">
<title>user_roles</title>
<polygon fill="#efefef" stroke="transparent" points="312,-132.5 312,-167.5 507,-167.5 507,-132.5 312,-132.5"/>
<polygon fill="none" stroke="#000000" points="312,-132.5 312,-167.5 507,-167.5 507,-132.5 312,-132.5"/>
<text text-anchor="start" x="318.8683" y="-145.3" font-family="Arial Bold" font-size="18.00" fill="#000000">user_roles</text>
<text text-anchor="start" x="402.8779" y="-145.3" font-family="Arial" font-size="14.00" fill="#000000"> </text>
<text text-anchor="start" x="406.7685" y="-145.3" font-family="Arial" font-size="14.00" fill="#666666">[BASE TABLE]</text>
<polygon fill="none" stroke="#000000" points="312,-102.5 312,-132.5 507,-132.5 507,-102.5 312,-102.5"/>
<text text-anchor="start" x="319" y="-113.9" font-family="Arial" font-size="14.00" fill="#000000">name </text>
<text text-anchor="start" x="357.899" y="-113.9" font-family="Arial" font-size="14.00" fill="#666666">[varchar(30)]</text>
<polygon fill="none" stroke="#000000" points="312,-72.5 312,-102.5 507,-102.5 507,-72.5 312,-72.5"/>
<text text-anchor="start" x="319" y="-83.9" font-family="Arial" font-size="14.00" fill="#000000">oauth2_scope </text>
<text text-anchor="start" x="410.8246" y="-83.9" font-family="Arial" font-size="14.00" fill="#666666">[tinyint(1)]</text>
<polygon fill="none" stroke="#000000" points="312,-42.5 312,-72.5 507,-72.5 507,-42.5 312,-42.5"/>
<text text-anchor="start" x="319" y="-53.9" font-family="Arial" font-size="14.00" fill="#000000">system </text>
<text text-anchor="start" x="367.2244" y="-53.9" font-family="Arial" font-size="14.00" fill="#666666">[tinyint(1)]</text>
</g>
<!-- user_role_inheritances&#45;&gt;user_roles -->
<g id="edge1" class="edge">
<title>user_role_inheritances:role&#45;&gt;user_roles:name</title>
<path fill="none" stroke="#000000" d="M252.9837,-336.7034C166.3349,-322.3032 215.3481,-117.5 312,-117.5"/>
<polygon fill="#000000" stroke="#000000" points="253.0315,-336.7071 262.6432,-341.9858 258.0157,-337.1035 263,-337.5 263,-337.5 263,-337.5 258.0157,-337.1035 263.3568,-333.0142 253.0315,-336.7071 253.0315,-336.7071"/>
<text text-anchor="start" x="7.2775" y="-347.5" font-family="Arial" font-size="10.00" fill="#000000">FOREIGN KEY (role) REFERENCES user_roles (name)</text>
</g>
<!-- user_role_inheritances&#45;&gt;user_roles -->
<g id="edge2" class="edge">
<title>user_role_inheritances:sub_role&#45;&gt;user_roles:name</title>
<path fill="none" stroke="#000000" d="M409.1116,-282.5388C400.6751,-238.9359 334.5035,-258.9831 312,-211 294.3551,-173.3766 270.4444,-117.5 312,-117.5"/>
<polygon fill="#000000" stroke="#000000" points="409.1116,-282.5395 405.5178,-292.8998 409.5558,-287.5198 410,-292.5 410,-292.5 410,-292.5 409.5558,-287.5198 414.4822,-292.1002 409.1116,-282.5395 409.1116,-282.5395"/>
<text text-anchor="start" x="417.439" y="-302.5" font-family="Arial" font-size="10.00" fill="#000000">FOREIGN KEY (sub_role) REFERENCES user_roles (name)</text>
</g>
</g>
</svg>
le) REFERENCES user_roles (name)</text>
</g>
</g>
</svg>
