<?xml version="1.0" encoding="UTF-8" standalone="no"?>
<!DOCTYPE svg PUBLIC "-//W3C//DTD SVG 1.1//EN"
 "http://www.w3.org/Graphics/SVG/1.1/DTD/svg11.dtd">
<!-- Generated by graphviz version 2.40.1 (20161225.0304)
 -->
<!-- Title: user_group_members Pages: 1 -->
<svg width="399pt" height="194pt"
 viewBox="0.00 0.00 399.00 194.00" xmlns="http://www.w3.org/2000/svg" xmlns:xlink="http://www.w3.org/1999/xlink">
<g id="graph0" class="graph" transform="scale(1 1) rotate(0) translate(4 190)">
<title>user_group_members</title>
<polygon fill="#ffffff" stroke="transparent" points="-4,4 -4,-190 395,-190 395,4 -4,4"/>
<!-- user_group_members -->
<g id="node1" class="node">
<title>user_group_members</title>
<polygon fill="#efefef" stroke="transparent" points="46.5,-106 46.5,-140 345.5,-140 345.5,-106 46.5,-106"/>
<polygon fill="none" stroke="#000000" points="46.5,-106 46.5,-140 345.5,-140 345.5,-106 46.5,-106"/>
<text text-anchor="start" x="53.48" y="-119.6" font-family="Arial Bold" font-size="18.00" fill="#000000">user_group_members</text>
<text text-anchor="start" x="242.5503" y="-119.6" font-family="Arial" font-size="14.00" fill="#000000"> </text>
<text text-anchor="start" x="246.4399" y="-119.6" font-family="Arial" font-size="14.00" fill="#666666">[BASE TABLE]</text>
<polygon fill="none" stroke="#000000" points="46.5,-76 46.5,-106 345.5,-106 345.5,-76 46.5,-76"/>
<text text-anchor="start" x="53.5" y="-88.8" font-family="Arial" font-size="14.00" fill="#000000">group_id </text>
<text text-anchor="start" x="111.8789" y="-88.8" font-family="Arial" font-size="14.00" fill="#666666">[char(36)]</text>
<polygon fill="none" stroke="#000000" points="46.5,-46 46.5,-76 345.5,-76 345.5,-46 46.5,-46"/>
<text text-anchor="start" x="53.5" y="-58.8" font-family="Arial" font-size="14.00" fill="#000000">user_id </text>
<text text-anchor="start" x="103.3066" y="-58.8" font-family="Arial" font-size="14.00" fill="#666666">[char(36)]</text>
<polygon fill="none" stroke="#000000" stroke-width="3" points="44.5,-44.5 44.5,-141.5 346.5,-141.5 346.5,-44.5 44.5,-44.5"/>
</g>
</g>
</svg>
