<?xml version="1.0" encoding="UTF-8" standalone="no"?>
<!DOCTYPE svg PUBLIC "-//W3C//DTD SVG 1.1//EN"
 "http://www.w3.org/Graphics/SVG/1.1/DTD/svg11.dtd">
<!-- Generated by graphviz version 2.40.1 (20161225.0304)
 -->
<!-- Title: user_groups Pages: 1 -->
<svg width="756pt" height="1079pt"
 viewBox="0.00 0.00 755.50 1079.00" xmlns="http://www.w3.org/2000/svg" xmlns:xlink="http://www.w3.org/1999/xlink">
<g id="graph0" class="graph" transform="scale(1 1) rotate(0) translate(4 1075)">
<title>user_groups</title>
<polygon fill="#ffffff" stroke="transparent" points="-4,4 -4,-1075 751.5,-1075 751.5,4 -4,4"/>
<!-- user_groups -->
<g id="node1" class="node">
<title>user_groups</title>
<polygon fill="#efefef" stroke="transparent" points="264,-742.5 264,-777.5 475,-777.5 475,-742.5 264,-742.5"/>
<polygon fill="none" stroke="#000000" points="264,-742.5 264,-777.5 475,-777.5 475,-742.5 264,-742.5"/>
<text text-anchor="start" x="270.8592" y="-755.3" font-family="Arial Bold" font-size="18.00" fill="#000000">user_groups</text>
<text text-anchor="start" x="370.887" y="-755.3" font-family="Arial" font-size="14.00" fill="#000000"> </text>
<text text-anchor="start" x="374.7776" y="-755.3" font-family="Arial" font-size="14.00" fill="#666666">[BASE TABLE]</text>
<polygon fill="none" stroke="#000000" points="264,-712.5 264,-742.5 475,-742.5 475,-712.5 264,-712.5"/>
<text text-anchor="start" x="271" y="-723.9" font-family="Arial" font-size="14.00" fill="#000000">id </text>
<text text-anchor="start" x="285.7798" y="-723.9" font-family="Arial" font-size="14.00" fill="#666666">[char(36)]</text>
<polygon fill="none" stroke="#000000" points="264,-682.5 264,-712.5 475,-712.5 475,-682.5 264,-682.5"/>
<text text-anchor="start" x="271" y="-693.9" font-family="Arial" font-size="14.00" fill="#000000">name </text>
<text text-anchor="start" x="309.899" y="-693.9" font-family="Arial" font-size="14.00" fill="#666666">[varchar(30)]</text>
<polygon fill="none" stroke="#000000" points="264,-652.5 264,-682.5 475,-682.5 475,-652.5 264,-652.5"/>
<text text-anchor="start" x="271" y="-663.9" font-family="Arial" font-size="14.00" fill="#000000">description </text>
<text text-anchor="start" x="342.568" y="-663.9" font-family="Arial" font-size="14.00" fill="#666666">[text]</text>
<polygon fill="none" stroke="#000000" points="264,-622.5 264,-652.5 475,-652.5 475,-622.5 264,-622.5"/>
<text text-anchor="start" x="271" y="-633.9" font-family="Arial" font-size="14.00" fill="#000000">type </text>
<text text-anchor="start" x="301.3464" y="-633.9" font-family="Arial" font-size="14.00" fill="#666666">[varchar(30)]</text>
<polygon fill="none" stroke="#000000" points="264,-592.5 264,-622.5 475,-622.5 475,-592.5 264,-592.5"/>
<text text-anchor="start" x="271" y="-603.9" font-family="Arial" font-size="14.00" fill="#000000">icon </text>
<text text-anchor="start" x="300.5624" y="-603.9" font-family="Arial" font-size="14.00" fill="#666666">[char(36)]</text>
<polygon fill="none" stroke="#000000" points="264,-562.5 264,-592.5 475,-592.5 475,-562.5 264,-562.5"/>
<text text-anchor="start" x="271" y="-573.9" font-family="Arial" font-size="14.00" fill="#000000">created_at </text>
<text text-anchor="start" x="341.028" y="-573.9" font-family="Arial" font-size="14.00" fill="#666666">[datetime(6)]</text>
<polygon fill="none" stroke="#000000" points="264,-532.5 264,-562.5 475,-562.5 475,-532.5 264,-532.5"/>
<text text-anchor="start" x="271" y="-543.9" font-family="Arial" font-size="14.00" fill="#000000">updated_at </text>
<text text-anchor="start" x="344.9326" y="-543.9" font-family="Arial" font-size="14.00" fill="#666666">[datetime(6)]</text>
<polygon fill="none" stroke="#000000" stroke-width="3" points="262,-531.5 262,-779.5 476,-779.5 476,-531.5 262,-531.5"/>
</g>
<!-- files -->
<g id="node4" class="node">
<title>files</title>
<polygon fill="#efefef" stroke="transparent" points="270,-372.5 270,-407.5 470,-407.5 470,-372.5 270,-372.5"/>
<polygon fill="none" stroke="#000000" points="270,-372.5 270,-407.5 470,-407.5 470,-372.5 270,-372.5"/>
<text text-anchor="start" x="305.3747" y="-385.3" font-family="Arial Bold" font-size="18.00" fill="#000000">files</text>
<text text-anchor="start" x="337.3715" y="-385.3" font-family="Arial" font-size="14.00" fill="#000000"> </text>
<text text-anchor="start" x="341.2621" y="-385.3" font-family="Arial" font-size="14.00" fill="#666666">[BASE TABLE]</text>
<polygon fill="none" stroke="#000000" points="270,-342.5 270,-372.5 470,-372.5 470,-342.5 270,-342.5"/>
<text text-anchor="start" x="277" y="-353.9" font-family="Arial" font-size="14.00" fill="#000000">id </text>
<text text-anchor="start" x="291.7798" y="-353.9" font-family="Arial" font-size="14.00" fill="#666666">[char(36)]</text>
<polygon fill="none" stroke="#000000" points="270,-312.5 270,-342.5 470,-342.5 470,-312.5 270,-312.5"/>
<text text-anchor="start" x="277" y="-323.9" font-family="Arial" font-size="14.00" fill="#000000">name </text>
<text text-anchor="start" x="315.899" y="-323.9" font-family="Arial" font-size="14.00" fill="#666666">[text]</text>
<polygon fill="none" stroke="#000000" points="270,-282.5 270,-312.5 470,-312.5 470,-282.5 270,-282.5"/>
<text text-anchor="start" x="277" y="-293.9" font-family="Arial" font-size="14.00" fill="#000000">mime </text>
<text text-anchor="start" x="315.101" y="-293.9" font-family="Arial" font-size="14.00" fill="#666666">[text]</text>
<polygon fill="none" stroke="#000000" points="270,-252.5 270,-282.5 470,-282.5 470,-252.5 270,-252.5"/>
<text text-anchor="start" x="277" y="-263.9" font-family="Arial" font-size="14.00" fill="#000000">size </text>
<text text-anchor="start" x="305.7798" y="-263.9" font-family="Arial" font-size="14.00" fill="#666666">[bigint(20)]</text>
<polygon fill="none" stroke="#000000" points="270,-222.5 270,-252.5 470,-252.5 470,-222.5 270,-222.5"/>
<text text-anchor="start" x="277" y="-233.9" font-family="Arial" font-size="14.00" fill="#000000">creator_id </text>
<text text-anchor="start" x="343.122" y="-233.9" font-family="Arial" font-size="14.00" fill="#666666">[char(36)]</text>
<polygon fill="none" stroke="#000000" points="270,-192.5 270,-222.5 470,-222.5 470,-192.5 270,-192.5"/>
<text text-anchor="start" x="277" y="-203.9" font-family="Arial" font-size="14.00" fill="#000000">hash </text>
<text text-anchor="start" x="311.2384" y="-203.9" font-family="Arial" font-size="14.00" fill="#666666">[char(32)]</text>
<polygon fill="none" stroke="#000000" points="270,-162.5 270,-192.5 470,-192.5 470,-162.5 270,-162.5"/>
<text text-anchor="start" x="277" y="-173.9" font-family="Arial" font-size="14.00" fill="#000000">type </text>
<text text-anchor="start" x="307.3464" y="-173.9" font-family="Arial" font-size="14.00" fill="#666666">[varchar(30)]</text>
<polygon fill="none" stroke="#000000" points="270,-132.5 270,-162.5 470,-162.5 470,-132.5 270,-132.5"/>
<text text-anchor="start" x="276.6536" y="-143.9" font-family="Arial" font-size="14.00" fill="#000000">is_animated_image </text>
<text text-anchor="start" x="401.9018" y="-143.9" font-family="Arial" font-size="14.00" fill="#666666">[tinyint(1)]</text>
<polygon fill="none" stroke="#000000" points="270,-102.5 270,-132.5 470,-132.5 470,-102.5 270,-102.5"/>
<text text-anchor="start" x="277" y="-113.9" font-family="Arial" font-size="14.00" fill="#000000">channel_id </text>
<text text-anchor="start" x="348.582" y="-113.9" font-family="Arial" font-size="14.00" fill="#666666">[char(36)]</text>
<polygon fill="none" stroke="#000000" points="270,-72.5 270,-102.5 470,-102.5 470,-72.5 270,-72.5"/>
<text text-anchor="start" x="277" y="-83.9" font-family="Arial" font-size="14.00" fill="#000000">created_at </text>
<text text-anchor="start" x="347.028" y="-83.9" font-family="Arial" font-size="14.00" fill="#666666">[datetime(6)]</text>
<polygon fill="none" stroke="#000000" points="270,-42.5 270,-72.5 470,-72.5 470,-42.5 270,-42.5"/>
<text text-anchor="start" x="277" y="-53.9" font-family="Arial" font-size="14.00" fill="#000000">deleted_at </text>
<text text-anchor="start" x="346.2566" y="-53.9" font-family="Arial" font-size="14.00" fill="#666666">[datetime(6)]</text>
</g>
<!-- user_groups&#45;&gt;files -->
<g id="edge3" class="edge">
<title>user_groups:icon&#45;&gt;files:id</title>
<path fill="none" stroke="#000000" d="M484.9826,-606.4234C525.8704,-596.8125 507.0849,-525.2103 475,-487 415.5141,-416.1575 329.4859,-521.8425 270,-451 243.2775,-419.1759 228.4444,-357.5 270,-357.5"/>
<polygon fill="#000000" stroke="#000000" points="484.9423,-606.4276 474.5174,-603.0259 479.9712,-606.9638 475,-607.5 475,-607.5 475,-607.5 479.9712,-606.9638 475.4826,-611.9741 484.9423,-606.4276 484.9423,-606.4276"/>
<text text-anchor="start" x="481.504" y="-617.5" font-family="Arial" font-size="10.00" fill="#000000">FOREIGN KEY (icon) REFERENCES files (id)</text>
</g>
<!-- user_group_admins -->
<g id="node2" class="node">
<title>user_group_admins</title>
<polygon fill="#efefef" stroke="transparent" points="43,-977.5 43,-1012.5 313,-1012.5 313,-977.5 43,-977.5"/>
<polygon fill="none" stroke="#000000" points="43,-977.5 43,-1012.5 313,-1012.5 313,-977.5 43,-977.5"/>
<text text-anchor="start" x="49.8536" y="-990.3" font-family="Arial Bold" font-size="18.00" fill="#000000">user_group_admins</text>
<text text-anchor="start" x="208.8926" y="-990.3" font-family="Arial" font-size="14.00" fill="#000000"> </text>
<text text-anchor="start" x="212.7832" y="-990.3" font-family="Arial" font-size="14.00" fill="#666666">[BASE TABLE]</text>
<polygon fill="none" stroke="#000000" points="43,-947.5 43,-977.5 313,-977.5 313,-947.5 43,-947.5"/>
<text text-anchor="start" x="50" y="-958.9" font-family="Arial" font-size="14.00" fill="#000000">group_id </text>
<text text-anchor="start" x="108.3534" y="-958.9" font-family="Arial" font-size="14.00" fill="#666666">[char(36)]</text>
<polygon fill="none" stroke="#000000" points="43,-917.5 43,-947.5 313,-947.5 313,-917.5 43,-917.5"/>
<text text-anchor="start" x="50" y="-928.9" font-family="Arial" font-size="14.00" fill="#000000">user_id </text>
<text text-anchor="start" x="99.7882" y="-928.9" font-family="Arial" font-size="14.00" fill="#666666">[char(36)]</text>
</g>
<!-- user_group_admins&#45;&gt;user_groups -->
<g id="edge1" class="edge">
<title>user_group_admins:group_id&#45;&gt;user_groups:id</title>
<path fill="none" stroke="#000000" d="M322.9681,-960.9786C347.0409,-952.2128 326.0473,-907.4117 313,-875 301.262,-845.8406 275.738,-853.1594 264,-824 247.9841,-784.2137 221.1111,-727.5 264,-727.5"/>
<polygon fill="#000000" stroke="#000000" points="322.8855,-960.9912 312.321,-958.0515 317.9428,-961.7456 313,-962.5 313,-962.5 313,-962.5 317.9428,-961.7456 313.679,-966.9485 322.8855,-960.9912 322.8855,-960.9912"/>
<text text-anchor="start" x="320.324" y="-972.5" font-family="Arial" font-size="10.00" fill="#000000">FOREIGN KEY (group_id) REFERENCES user_groups (id)</text>
</g>
<!-- user_group_members -->
<g id="node3" class="node">
<title>user_group_members</title>
<polygon fill="#efefef" stroke="transparent" points="418,-992.5 418,-1027.5 705,-1027.5 705,-992.5 418,-992.5"/>
<polygon fill="none" stroke="#000000" points="418,-992.5 418,-1027.5 705,-1027.5 705,-992.5 418,-992.5"/>
<text text-anchor="start" x="424.8585" y="-1005.3" font-family="Arial Bold" font-size="18.00" fill="#000000">user_group_members</text>
<text text-anchor="start" x="600.8877" y="-1005.3" font-family="Arial" font-size="14.00" fill="#000000"> </text>
<text text-anchor="start" x="604.7783" y="-1005.3" font-family="Arial" font-size="14.00" fill="#666666">[BASE TABLE]</text>
<polygon fill="none" stroke="#000000" points="418,-962.5 418,-992.5 705,-992.5 705,-962.5 418,-962.5"/>
<text text-anchor="start" x="425" y="-973.9" font-family="Arial" font-size="14.00" fill="#000000">group_id </text>
<text text-anchor="start" x="483.3534" y="-973.9" font-family="Arial" font-size="14.00" fill="#666666">[char(36)]</text>
<polygon fill="none" stroke="#000000" points="418,-932.5 418,-962.5 705,-962.5 705,-932.5 418,-932.5"/>
<text text-anchor="start" x="425" y="-943.9" font-family="Arial" font-size="14.00" fill="#000000">user_id </text>
<text text-anchor="start" x="474.7882" y="-943.9" font-family="Arial" font-size="14.00" fill="#666666">[char(36)]</text>
<polygon fill="none" stroke="#000000" points="418,-902.5 418,-932.5 705,-932.5 705,-902.5 418,-902.5"/>
<text text-anchor="start" x="425" y="-913.9" font-family="Arial" font-size="14.00" fill="#000000">role </text>
<text text-anchor="start" x="452.223" y="-913.9" font-family="Arial" font-size="14.00" fill="#666666">[varchar(100)]</text>
</g>
<!-- user_group_members&#45;&gt;user_groups -->
<g id="edge2" class="edge">
<title>user_group_members:group_id&#45;&gt;user_groups:id</title>
<path fill="none" stroke="#000000" d="M407.6487,-976.3541C369.7778,-966.9908 394.663,-902.3409 418,-860 432.4632,-833.759 460.5368,-850.241 475,-824 495.7027,-786.4386 517.8889,-727.5 475,-727.5"/>
<polygon fill="#000000" stroke="#000000" points="408.0607,-976.3996 417.5048,-981.9727 413.0304,-976.9498 418,-977.5 418,-977.5 418,-977.5 413.0304,-976.9498 418.4952,-973.0273 408.0607,-976.3996 408.0607,-976.3996"/>
<text text-anchor="start" x="425.324" y="-987.5" font-family="Arial" font-size="10.00" fill="#000000">FOREIGN KEY (group_id) REFERENCES user_groups (id)</text>
</g>
</g>
</svg>
