<?xml version="1.0" encoding="UTF-8" standalone="no"?>
<!DOCTYPE svg PUBLIC "-//W3C//DTD SVG 1.1//EN"
 "http://www.w3.org/Graphics/SVG/1.1/DTD/svg11.dtd">
<!-- Generated by graphviz version 2.40.1 (20161225.0304)
 -->
<!-- Title: users_private_channels Pages: 1 -->
<svg width="820pt" height="712pt"
 viewBox="0.00 0.00 820.00 712.00" xmlns="http://www.w3.org/2000/svg" xmlns:xlink="http://www.w3.org/1999/xlink">
<g id="graph0" class="graph" transform="scale(1 1) rotate(0) translate(4 708)">
<title>users_private_channels</title>
<polygon fill="#ffffff" stroke="transparent" points="-4,4 -4,-708 816,-708 816,4 -4,4"/>
<!-- users_private_channels -->
<g id="node1" class="node">
<title>users_private_channels</title>
<polygon fill="#efefef" stroke="transparent" points="240,-622.5 240,-657.5 541,-657.5 541,-622.5 240,-622.5"/>
<polygon fill="none" stroke="#000000" points="240,-622.5 240,-657.5 541,-657.5 541,-622.5 240,-622.5"/>
<text text-anchor="start" x="246.8484" y="-635.3" font-family="Arial Bold" font-size="18.00" fill="#000000">users_private_channels</text>
<text text-anchor="start" x="436.8978" y="-635.3" font-family="Arial" font-size="14.00" fill="#000000"> </text>
<text text-anchor="start" x="440.7884" y="-635.3" font-family="Arial" font-size="14.00" fill="#666666">[BASE TABLE]</text>
<polygon fill="none" stroke="#000000" points="240,-592.5 240,-622.5 541,-622.5 541,-592.5 240,-592.5"/>
<text text-anchor="start" x="247" y="-603.9" font-family="Arial" font-size="14.00" fill="#000000">user_id </text>
<text text-anchor="start" x="296.7882" y="-603.9" font-family="Arial" font-size="14.00" fill="#666666">[char(36)]</text>
<polygon fill="none" stroke="#000000" points="240,-562.5 240,-592.5 541,-592.5 541,-562.5 240,-562.5"/>
<text text-anchor="start" x="247" y="-573.9" font-family="Arial" font-size="14.00" fill="#000000">channel_id </text>
<text text-anchor="start" x="318.582" y="-573.9" font-family="Arial" font-size="14.00" fill="#666666">[char(36)]</text>
<polygon fill="none" stroke="#000000" stroke-width="3" points="238,-561.5 238,-659.5 542,-659.5 542,-561.5 238,-561.5"/>
</g>
<!-- users -->
<g id="node2" class="node">
<title>users</title>
<polygon fill="#efefef" stroke="transparent" points="156,-387.5 156,-422.5 339,-422.5 339,-387.5 156,-387.5"/>
<polygon fill="none" stroke="#000000" points="156,-387.5 156,-422.5 339,-422.5 339,-387.5 156,-387.5"/>
<text text-anchor="start" x="176.8708" y="-400.3" font-family="Arial Bold" font-size="18.00" fill="#000000">users</text>
<text text-anchor="start" x="220.8754" y="-400.3" font-family="Arial" font-size="14.00" fill="#000000"> </text>
<text text-anchor="start" x="224.766" y="-400.3" font-family="Arial" font-size="14.00" fill="#666666">[BASE TABLE]</text>
<polygon fill="none" stroke="#000000" points="156,-357.5 156,-387.5 339,-387.5 339,-357.5 156,-357.5"/>
<text text-anchor="start" x="163" y="-368.9" font-family="Arial" font-size="14.00" fill="#000000">id </text>
<text text-anchor="start" x="177.7798" y="-368.9" font-family="Arial" font-size="14.00" fill="#666666">[char(36)]</text>
<polygon fill="none" stroke="#000000" points="156,-327.5 156,-357.5 339,-357.5 339,-327.5 156,-327.5"/>
<text text-anchor="start" x="163" y="-338.9" font-family="Arial" font-size="14.00" fill="#000000">name </text>
<text text-anchor="start" x="201.899" y="-338.9" font-family="Arial" font-size="14.00" fill="#666666">[varchar(32)]</text>
<polygon fill="none" stroke="#000000" points="156,-297.5 156,-327.5 339,-327.5 339,-297.5 156,-297.5"/>
<text text-anchor="start" x="162.7104" y="-308.9" font-family="Arial" font-size="14.00" fill="#000000">display_name </text>
<text text-anchor="start" x="252.953" y="-308.9" font-family="Arial" font-size="14.00" fill="#666666">[varchar(32)]</text>
<polygon fill="none" stroke="#000000" points="156,-267.5 156,-297.5 339,-297.5 339,-267.5 156,-267.5"/>
<text text-anchor="start" x="163" y="-278.9" font-family="Arial" font-size="14.00" fill="#000000">password </text>
<text text-anchor="start" x="226.7882" y="-278.9" font-family="Arial" font-size="14.00" fill="#666666">[char(128)]</text>
<polygon fill="none" stroke="#000000" points="156,-237.5 156,-267.5 339,-267.5 339,-237.5 156,-237.5"/>
<text text-anchor="start" x="163" y="-248.9" font-family="Arial" font-size="14.00" fill="#000000">salt </text>
<text text-anchor="start" x="188.6704" y="-248.9" font-family="Arial" font-size="14.00" fill="#666666">[char(128)]</text>
<polygon fill="none" stroke="#000000" points="156,-207.5 156,-237.5 339,-237.5 339,-207.5 156,-207.5"/>
<text text-anchor="start" x="163" y="-218.9" font-family="Arial" font-size="14.00" fill="#000000">icon </text>
<text text-anchor="start" x="192.5624" y="-218.9" font-family="Arial" font-size="14.00" fill="#666666">[char(36)]</text>
<polygon fill="none" stroke="#000000" points="156,-177.5 156,-207.5 339,-207.5 339,-177.5 156,-177.5"/>
<text text-anchor="start" x="163" y="-188.9" font-family="Arial" font-size="14.00" fill="#000000">status </text>
<text text-anchor="start" x="204.237" y="-188.9" font-family="Arial" font-size="14.00" fill="#666666">[tinyint(4)]</text>
<polygon fill="none" stroke="#000000" points="156,-147.5 156,-177.5 339,-177.5 339,-147.5 156,-147.5"/>
<text text-anchor="start" x="163" y="-158.9" font-family="Arial" font-size="14.00" fill="#000000">bot </text>
<text text-anchor="start" x="186.3464" y="-158.9" font-family="Arial" font-size="14.00" fill="#666666">[tinyint(1)]</text>
<polygon fill="none" stroke="#000000" points="156,-117.5 156,-147.5 339,-147.5 339,-117.5 156,-117.5"/>
<text text-anchor="start" x="163" y="-128.9" font-family="Arial" font-size="14.00" fill="#000000">role </text>
<text text-anchor="start" x="190.223" y="-128.9" font-family="Arial" font-size="14.00" fill="#666666">[varchar(30)]</text>
<polygon fill="none" stroke="#000000" points="156,-87.5 156,-117.5 339,-117.5 339,-87.5 156,-87.5"/>
<text text-anchor="start" x="163" y="-98.9" font-family="Arial" font-size="14.00" fill="#000000">created_at </text>
<text text-anchor="start" x="233.028" y="-98.9" font-family="Arial" font-size="14.00" fill="#666666">[datetime(6)]</text>
<polygon fill="none" stroke="#000000" points="156,-57.5 156,-87.5 339,-87.5 339,-57.5 156,-57.5"/>
<text text-anchor="start" x="163" y="-68.9" font-family="Arial" font-size="14.00" fill="#000000">updated_at </text>
<text text-anchor="start" x="236.9326" y="-68.9" font-family="Arial" font-size="14.00" fill="#666666">[datetime(6)]</text>
</g>
<!-- users_private_channels&#45;&gt;users -->
<g id="edge1" class="edge">
<title>users_private_channels:user_id&#45;&gt;users:id</title>
<path fill="none" stroke="#000000" d="M229.8647,-605.9659C203.5597,-596.7397 221.1053,-547.9881 240,-517 265.7671,-474.7409 313.2329,-508.2591 339,-466 360.6337,-430.5198 380.5556,-372.5 339,-372.5"/>
<polygon fill="#000000" stroke="#000000" points="230.1126,-606.0034 239.3265,-611.9493 235.0563,-606.7517 240,-607.5 240,-607.5 240,-607.5 235.0563,-606.7517 240.6735,-603.0507 230.1126,-606.0034 230.1126,-606.0034"/>
<text text-anchor="start" x="6.945" y="-617.5" font-family="Arial" font-size="10.00" fill="#000000">FOREIGN KEY (user_id) REFERENCES users (id)</text>
</g>
<!-- channels -->
<g id="node3" class="node">
<title>channels</title>
<polygon fill="#efefef" stroke="transparent" points="443,-402.5 443,-437.5 626,-437.5 626,-402.5 443,-402.5"/>
<polygon fill="none" stroke="#000000" points="443,-402.5 443,-437.5 626,-437.5 626,-402.5 443,-402.5"/>
<text text-anchor="start" x="449.8605" y="-415.3" font-family="Arial Bold" font-size="18.00" fill="#000000">channels</text>
<text text-anchor="start" x="521.8857" y="-415.3" font-family="Arial" font-size="14.00" fill="#000000"> </text>
<text text-anchor="start" x="525.7763" y="-415.3" font-family="Arial" font-size="14.00" fill="#666666">[BASE TABLE]</text>
<polygon fill="none" stroke="#000000" points="443,-372.5 443,-402.5 626,-402.5 626,-372.5 443,-372.5"/>
<text text-anchor="start" x="450" y="-383.9" font-family="Arial" font-size="14.00" fill="#000000">id </text>
<text text-anchor="start" x="464.7798" y="-383.9" font-family="Arial" font-size="14.00" fill="#666666">[char(36)]</text>
<polygon fill="none" stroke="#000000" points="443,-342.5 443,-372.5 626,-372.5 626,-342.5 443,-342.5"/>
<text text-anchor="start" x="450" y="-353.9" font-family="Arial" font-size="14.00" fill="#000000">name </text>
<text text-anchor="start" x="488.899" y="-353.9" font-family="Arial" font-size="14.00" fill="#666666">[varchar(20)]</text>
<polygon fill="none" stroke="#000000" points="443,-312.5 443,-342.5 626,-342.5 626,-312.5 443,-312.5"/>
<text text-anchor="start" x="450" y="-323.9" font-family="Arial" font-size="14.00" fill="#000000">parent_id </text>
<text text-anchor="start" x="512.244" y="-323.9" font-family="Arial" font-size="14.00" fill="#666666">[char(36)]</text>
<polygon fill="none" stroke="#000000" points="443,-282.5 443,-312.5 626,-312.5 626,-282.5 443,-282.5"/>
<text text-anchor="start" x="450" y="-293.9" font-family="Arial" font-size="14.00" fill="#000000">topic </text>
<text text-anchor="start" x="483.453" y="-293.9" font-family="Arial" font-size="14.00" fill="#666666">[text]</text>
<polygon fill="none" stroke="#000000" points="443,-252.5 443,-282.5 626,-282.5 626,-252.5 443,-252.5"/>
<text text-anchor="start" x="450" y="-263.9" font-family="Arial" font-size="14.00" fill="#000000">is_forced </text>
<text text-anchor="start" x="510.6788" y="-263.9" font-family="Arial" font-size="14.00" fill="#666666">[tinyint(1)]</text>
<polygon fill="none" stroke="#000000" points="443,-222.5 443,-252.5 626,-252.5 626,-222.5 443,-222.5"/>
<text text-anchor="start" x="450" y="-233.9" font-family="Arial" font-size="14.00" fill="#000000">is_public </text>
<text text-anchor="start" x="508.3408" y="-233.9" font-family="Arial" font-size="14.00" fill="#666666">[tinyint(1)]</text>
<polygon fill="none" stroke="#000000" points="443,-192.5 443,-222.5 626,-222.5 626,-192.5 443,-192.5"/>
<text text-anchor="start" x="450" y="-203.9" font-family="Arial" font-size="14.00" fill="#000000">is_visible </text>
<text text-anchor="start" x="510.6648" y="-203.9" font-family="Arial" font-size="14.00" fill="#666666">[tinyint(1)]</text>
<polygon fill="none" stroke="#000000" points="443,-162.5 443,-192.5 626,-192.5 626,-162.5 443,-162.5"/>
<text text-anchor="start" x="450" y="-173.9" font-family="Arial" font-size="14.00" fill="#000000">creator_id </text>
<text text-anchor="start" x="516.122" y="-173.9" font-family="Arial" font-size="14.00" fill="#666666">[char(36)]</text>
<polygon fill="none" stroke="#000000" points="443,-132.5 443,-162.5 626,-162.5 626,-132.5 443,-132.5"/>
<text text-anchor="start" x="450" y="-143.9" font-family="Arial" font-size="14.00" fill="#000000">updater_id </text>
<text text-anchor="start" x="520.0266" y="-143.9" font-family="Arial" font-size="14.00" fill="#666666">[char(36)]</text>
<polygon fill="none" stroke="#000000" points="443,-102.5 443,-132.5 626,-132.5 626,-102.5 443,-102.5"/>
<text text-anchor="start" x="450" y="-113.9" font-family="Arial" font-size="14.00" fill="#000000">created_at </text>
<text text-anchor="start" x="520.028" y="-113.9" font-family="Arial" font-size="14.00" fill="#666666">[datetime(6)]</text>
<polygon fill="none" stroke="#000000" points="443,-72.5 443,-102.5 626,-102.5 626,-72.5 443,-72.5"/>
<text text-anchor="start" x="450" y="-83.9" font-family="Arial" font-size="14.00" fill="#000000">updated_at </text>
<text text-anchor="start" x="523.9326" y="-83.9" font-family="Arial" font-size="14.00" fill="#666666">[datetime(6)]</text>
<polygon fill="none" stroke="#000000" points="443,-42.5 443,-72.5 626,-72.5 626,-42.5 443,-42.5"/>
<text text-anchor="start" x="450" y="-53.9" font-family="Arial" font-size="14.00" fill="#000000">deleted_at </text>
<text text-anchor="start" x="519.2566" y="-53.9" font-family="Arial" font-size="14.00" fill="#666666">[datetime(6)]</text>
</g>
<!-- users_private_channels&#45;&gt;channels -->
<g id="edge2" class="edge">
<title>users_private_channels:channel_id&#45;&gt;channels:id</title>
<path fill="none" stroke="#000000" d="M550.9242,-574.893C564.2005,-565.8845 553.9853,-535.6039 541,-517 514.4419,-478.9506 469.5581,-519.0494 443,-481 419.2154,-446.9242 401.4444,-387.5 443,-387.5"/>
<polygon fill="#000000" stroke="#000000" points="550.6719,-574.9592 539.8566,-573.1477 545.8359,-576.2296 541,-577.5 541,-577.5 541,-577.5 545.8359,-576.2296 542.1434,-581.8523 550.6719,-574.9592 550.6719,-574.9592"/>
<text text-anchor="start" x="548.378" y="-587.5" font-family="Arial" font-size="10.00" fill="#000000">FOREIGN KEY (channel_id) REFERENCES channels (id)</text>
</g>
</g>
</svg>
