<?xml version="1.0" encoding="UTF-8" standalone="no"?>
<!DOCTYPE svg PUBLIC "-//W3C//DTD SVG 1.1//EN"
 "http://www.w3.org/Graphics/SVG/1.1/DTD/svg11.dtd">
<!-- Generated by graphviz version 2.40.1 (20161225.0304)
 -->
<!-- Title: user_defined_role_inheritances Pages: 1 -->
<svg width="823pt" height="410pt"
     viewBox="0.00 0.00 823.00 410.00" xmlns="http://www.w3.org/2000/svg">
<g id="graph0" class="graph" transform="scale(1 1) rotate(0) translate(4 406)">
<title>user_defined_role_inheritances</title>
<polygon fill="#ffffff" stroke="transparent" points="-4,4 -4,-406 819,-406 819,4 -4,4"/>
<!-- user_defined_role_inheritances -->
<g id="node1" class="node">
<title>user_defined_role_inheritances</title>
<polygon fill="#efefef" stroke="transparent" points="301,-322 301,-356 682,-356 682,-322 301,-322"/>
<polygon fill="none" stroke="#000000" points="301,-322 301,-356 682,-356 682,-322 301,-322"/>
<text text-anchor="start" x="307.9614" y="-335.6" font-family="Arial Bold" font-size="18.00" fill="#000000">user_defined_role_inheritances</text>
<text text-anchor="start" x="579.0688" y="-335.6" font-family="Arial" font-size="14.00" fill="#000000"> </text>
<text text-anchor="start" x="582.9585" y="-335.6" font-family="Arial" font-size="14.00" fill="#666666">[BASE TABLE]</text>
<polygon fill="none" stroke="#000000" points="301,-292 301,-322 682,-322 682,-292 301,-292"/>
<text text-anchor="start" x="308" y="-304.8" font-family="Arial" font-size="14.00" fill="#000000">role </text>
<text text-anchor="start" x="335.2344" y="-304.8" font-family="Arial" font-size="14.00" fill="#666666">[varchar(30)]</text>
<polygon fill="none" stroke="#000000" points="301,-262 301,-292 682,-292 682,-262 301,-262"/>
<text text-anchor="start" x="308" y="-274.8" font-family="Arial" font-size="14.00" fill="#000000">sub_role </text>
<text text-anchor="start" x="365.5928" y="-274.8" font-family="Arial" font-size="14.00" fill="#666666">[varchar(30)]</text>
<polygon fill="none" stroke="#000000" stroke-width="3" points="299,-260.5 299,-357.5 683,-357.5 683,-260.5 299,-260.5"/>
</g>
<!-- user_defined_roles -->
<g id="node2" class="node">
<title>user_defined_roles</title>
<polygon fill="#efefef" stroke="transparent" points="354,-103 354,-137 629,-137 629,-103 354,-103"/>
<polygon fill="none" stroke="#000000" points="354,-103 354,-137 629,-137 629,-103 354,-103"/>
<text text-anchor="start" x="360.9814" y="-116.6" font-family="Arial Bold" font-size="18.00" fill="#000000">user_defined_roles</text>
<text text-anchor="start" x="526.0488" y="-116.6" font-family="Arial" font-size="14.00" fill="#000000"> </text>
<text text-anchor="start" x="529.9385" y="-116.6" font-family="Arial" font-size="14.00" fill="#666666">[BASE TABLE]</text>
<polygon fill="none" stroke="#000000" points="354,-73 354,-103 629,-103 629,-73 354,-73"/>
<text text-anchor="start" x="361" y="-85.8" font-family="Arial" font-size="14.00" fill="#000000">name </text>
<text text-anchor="start" x="399.9102" y="-85.8" font-family="Arial" font-size="14.00" fill="#666666">[varchar(30)]</text>
<polygon fill="none" stroke="#000000" points="354,-43 354,-73 629,-73 629,-43 354,-43"/>
<text text-anchor="start" x="361" y="-55.8" font-family="Arial" font-size="14.00" fill="#000000">o_auth2_scope </text>
<text text-anchor="start" x="460.6406" y="-55.8" font-family="Arial" font-size="14.00" fill="#666666">[tinyint(1)]</text>
</g>
<!-- user_defined_role_inheritances&#45;&gt;user_defined_roles -->
<g id="edge1" class="edge">
<title>user_defined_role_inheritances:role&#45;&gt;user_defined_roles:name</title>
<path fill="none" stroke="#000000" d="M291.0013,-306.207C204.6417,-291.8722 257.3775,-88 354,-88"/>
<polygon fill="#000000" stroke="#000000" points="291.0313,-306.2093 300.6442,-311.4859 296.0157,-306.6046 301,-307 301,-307 301,-307 296.0157,-306.6046 301.3558,-302.5141 291.0313,-306.2093 291.0313,-306.2093"/>
<text text-anchor="start" x="7.1548" y="-316.5" font-family="Arial" font-size="10.00" fill="#000000">FOREIGN KEY (role) REFERENCES user_defined_roles (name)</text>
</g>
<!-- user_defined_role_inheritances&#45;&gt;user_defined_roles -->
<g id="edge2" class="edge">
<title>user_defined_role_inheritances:sub_role&#45;&gt;user_defined_roles:name</title>
<path fill="none" stroke="#000000" d="M491.168,-251.7022C481.3542,-195.7568 387.423,-238.7384 354,-180 333.7781,-144.4616 313.1111,-88 354,-88"/>
<polygon fill="#000000" stroke="#000000" points="491.1946,-252.0325 487.5146,-262.3624 491.5973,-257.0162 492,-262 492,-262 492,-262 491.5973,-257.0162 496.4854,-261.6376 491.1946,-252.0325 491.1946,-252.0325"/>
<text text-anchor="start" x="499.3125" y="-271.5" font-family="Arial" font-size="10.00" fill="#000000">FOREIGN KEY (sub_role) REFERENCES user_defined_roles (name)</text>
</g>
</g>
</svg>
