<?xml version="1.0" encoding="UTF-8" standalone="no"?>
<!DOCTYPE svg PUBLIC "-//W3C//DTD SVG 1.1//EN"
 "http://www.w3.org/Graphics/SVG/1.1/DTD/svg11.dtd">
<!-- Generated by graphviz version 2.40.1 (20161225.0304)
 -->
<!-- Title: user_groups Pages: 1 -->
<svg width="756pt" height="562pt"
 viewBox="0.00 0.00 755.50 562.00" xmlns="http://www.w3.org/2000/svg" xmlns:xlink="http://www.w3.org/1999/xlink">
<g id="graph0" class="graph" transform="scale(1 1) rotate(0) translate(4 558)">
<title>user_groups</title>
<polygon fill="#ffffff" stroke="transparent" points="-4,4 -4,-558 751.5,-558 751.5,4 -4,4"/>
<!-- user_groups -->
<g id="node1" class="node">
<title>user_groups</title>
<polygon fill="#efefef" stroke="transparent" points="264,-225.5 264,-260.5 475,-260.5 475,-225.5 264,-225.5"/>
<polygon fill="none" stroke="#000000" points="264,-225.5 264,-260.5 475,-260.5 475,-225.5 264,-225.5"/>
<text text-anchor="start" x="270.8592" y="-238.3" font-family="Arial Bold" font-size="18.00" fill="#000000">user_groups</text>
<text text-anchor="start" x="370.887" y="-238.3" font-family="Arial" font-size="14.00" fill="#000000"> </text>
<text text-anchor="start" x="374.7776" y="-238.3" font-family="Arial" font-size="14.00" fill="#666666">[BASE TABLE]</text>
<polygon fill="none" stroke="#000000" points="264,-195.5 264,-225.5 475,-225.5 475,-195.5 264,-195.5"/>
<text text-anchor="start" x="271" y="-206.9" font-family="Arial" font-size="14.00" fill="#000000">id </text>
<text text-anchor="start" x="285.7798" y="-206.9" font-family="Arial" font-size="14.00" fill="#666666">[char(36)]</text>
<polygon fill="none" stroke="#000000" points="264,-165.5 264,-195.5 475,-195.5 475,-165.5 264,-165.5"/>
<text text-anchor="start" x="271" y="-176.9" font-family="Arial" font-size="14.00" fill="#000000">name </text>
<text text-anchor="start" x="309.899" y="-176.9" font-family="Arial" font-size="14.00" fill="#666666">[varchar(30)]</text>
<polygon fill="none" stroke="#000000" points="264,-135.5 264,-165.5 475,-165.5 475,-135.5 264,-135.5"/>
<text text-anchor="start" x="271" y="-146.9" font-family="Arial" font-size="14.00" fill="#000000">description </text>
<text text-anchor="start" x="342.568" y="-146.9" font-family="Arial" font-size="14.00" fill="#666666">[text]</text>
<polygon fill="none" stroke="#000000" points="264,-105.5 264,-135.5 475,-135.5 475,-105.5 264,-105.5"/>
<text text-anchor="start" x="271" y="-116.9" font-family="Arial" font-size="14.00" fill="#000000">type </text>
<text text-anchor="start" x="301.3464" y="-116.9" font-family="Arial" font-size="14.00" fill="#666666">[varchar(30)]</text>
<polygon fill="none" stroke="#000000" points="264,-75.5 264,-105.5 475,-105.5 475,-75.5 264,-75.5"/>
<text text-anchor="start" x="271" y="-86.9" font-family="Arial" font-size="14.00" fill="#000000">created_at </text>
<text text-anchor="start" x="341.028" y="-86.9" font-family="Arial" font-size="14.00" fill="#666666">[datetime(6)]</text>
<polygon fill="none" stroke="#000000" points="264,-45.5 264,-75.5 475,-75.5 475,-45.5 264,-45.5"/>
<text text-anchor="start" x="271" y="-56.9" font-family="Arial" font-size="14.00" fill="#000000">updated_at </text>
<text text-anchor="start" x="344.9326" y="-56.9" font-family="Arial" font-size="14.00" fill="#666666">[datetime(6)]</text>
<polygon fill="none" stroke="#000000" stroke-width="3" points="262,-44.5 262,-262.5 476,-262.5 476,-44.5 262,-44.5"/>
</g>
<!-- user_group_admins -->
<g id="node2" class="node">
<title>user_group_admins</title>
<polygon fill="#efefef" stroke="transparent" points="43,-460.5 43,-495.5 313,-495.5 313,-460.5 43,-460.5"/>
<polygon fill="none" stroke="#000000" points="43,-460.5 43,-495.5 313,-495.5 313,-460.5 43,-460.5"/>
<text text-anchor="start" x="49.8536" y="-473.3" font-family="Arial Bold" font-size="18.00" fill="#000000">user_group_admins</text>
<text text-anchor="start" x="208.8926" y="-473.3" font-family="Arial" font-size="14.00" fill="#000000"> </text>
<text text-anchor="start" x="212.7832" y="-473.3" font-family="Arial" font-size="14.00" fill="#666666">[BASE TABLE]</text>
<polygon fill="none" stroke="#000000" points="43,-430.5 43,-460.5 313,-460.5 313,-430.5 43,-430.5"/>
<text text-anchor="start" x="50" y="-441.9" font-family="Arial" font-size="14.00" fill="#000000">group_id </text>
<text text-anchor="start" x="108.3534" y="-441.9" font-family="Arial" font-size="14.00" fill="#666666">[char(36)]</text>
<polygon fill="none" stroke="#000000" points="43,-400.5 43,-430.5 313,-430.5 313,-400.5 43,-400.5"/>
<text text-anchor="start" x="50" y="-411.9" font-family="Arial" font-size="14.00" fill="#000000">user_id </text>
<text text-anchor="start" x="99.7882" y="-411.9" font-family="Arial" font-size="14.00" fill="#666666">[char(36)]</text>
</g>
<!-- user_group_admins&#45;&gt;user_groups -->
<g id="edge1" class="edge">
<title>user_group_admins:group_id&#45;&gt;user_groups:id</title>
<path fill="none" stroke="#000000" d="M322.9681,-443.9786C347.0409,-435.2128 326.0473,-390.4117 313,-358 301.262,-328.8406 275.738,-336.1594 264,-307 247.9841,-267.2137 221.1111,-210.5 264,-210.5"/>
<polygon fill="#000000" stroke="#000000" points="322.8855,-443.9912 312.321,-441.0515 317.9428,-444.7456 313,-445.5 313,-445.5 313,-445.5 317.9428,-444.7456 313.679,-449.9485 322.8855,-443.9912 322.8855,-443.9912"/>
<text text-anchor="start" x="320.324" y="-455.5" font-family="Arial" font-size="10.00" fill="#000000">FOREIGN KEY (group_id) REFERENCES user_groups (id)</text>
</g>
<!-- user_group_members -->
<g id="node3" class="node">
<title>user_group_members</title>
<polygon fill="#efefef" stroke="transparent" points="418,-475.5 418,-510.5 705,-510.5 705,-475.5 418,-475.5"/>
<polygon fill="none" stroke="#000000" points="418,-475.5 418,-510.5 705,-510.5 705,-475.5 418,-475.5"/>
<text text-anchor="start" x="424.8585" y="-488.3" font-family="Arial Bold" font-size="18.00" fill="#000000">user_group_members</text>
<text text-anchor="start" x="600.8877" y="-488.3" font-family="Arial" font-size="14.00" fill="#000000"> </text>
<text text-anchor="start" x="604.7783" y="-488.3" font-family="Arial" font-size="14.00" fill="#666666">[BASE TABLE]</text>
<polygon fill="none" stroke="#000000" points="418,-445.5 418,-475.5 705,-475.5 705,-445.5 418,-445.5"/>
<text text-anchor="start" x="425" y="-456.9" font-family="Arial" font-size="14.00" fill="#000000">group_id </text>
<text text-anchor="start" x="483.3534" y="-456.9" font-family="Arial" font-size="14.00" fill="#666666">[char(36)]</text>
<polygon fill="none" stroke="#000000" points="418,-415.5 418,-445.5 705,-445.5 705,-415.5 418,-415.5"/>
<text text-anchor="start" x="425" y="-426.9" font-family="Arial" font-size="14.00" fill="#000000">user_id </text>
<text text-anchor="start" x="474.7882" y="-426.9" font-family="Arial" font-size="14.00" fill="#666666">[char(36)]</text>
<polygon fill="none" stroke="#000000" points="418,-385.5 418,-415.5 705,-415.5 705,-385.5 418,-385.5"/>
<text text-anchor="start" x="425" y="-396.9" font-family="Arial" font-size="14.00" fill="#000000">role </text>
<text text-anchor="start" x="452.223" y="-396.9" font-family="Arial" font-size="14.00" fill="#666666">[varchar(100)]</text>
</g>
<!-- user_group_members&#45;&gt;user_groups -->
<g id="edge2" class="edge">
<title>user_group_members:group_id&#45;&gt;user_groups:id</title>
<path fill="none" stroke="#000000" d="M407.6487,-459.3541C369.7778,-449.9908 394.663,-385.3409 418,-343 432.4632,-316.759 460.5368,-333.241 475,-307 495.7027,-269.4386 517.8889,-210.5 475,-210.5"/>
<polygon fill="#000000" stroke="#000000" points="408.0607,-459.3996 417.5048,-464.9727 413.0304,-459.9498 418,-460.5 418,-460.5 418,-460.5 413.0304,-459.9498 418.4952,-456.0273 408.0607,-459.3996 408.0607,-459.3996"/>
<text text-anchor="start" x="425.324" y="-470.5" font-family="Arial" font-size="10.00" fill="#000000">FOREIGN KEY (group_id) REFERENCES user_groups (id)</text>
</g>
</g>
</svg>
