<?xml version="1.0" encoding="UTF-8" standalone="no"?>
<!DOCTYPE svg PUBLIC "-//W3C//DTD SVG 1.1//EN"
 "http://www.w3.org/Graphics/SVG/1.1/DTD/svg11.dtd">
<!-- Generated by graphviz version 2.40.1 (20161225.0304)
 -->
<!-- Title: users Pages: 1 -->
<svg width="3799pt" height="890pt"
     viewBox="0.00 0.00 3799.00 890.00" xmlns="http://www.w3.org/2000/svg">
<g id="graph0" class="graph" transform="scale(1 1) rotate(0) translate(4 886)">
<title>users</title>
<polygon fill="#ffffff" stroke="transparent" points="-4,4 -4,-886 3795,-886 3795,4 -4,4"/>
<!-- users -->
<g id="node1" class="node">
<title>users</title>
<polygon fill="#efefef" stroke="transparent" points="1720.5,-436 1720.5,-470 1903.5,-470 1903.5,-436 1720.5,-436"/>
<polygon fill="none" stroke="#000000" points="1720.5,-436 1720.5,-470 1903.5,-470 1903.5,-436 1720.5,-436"/>
<text text-anchor="start" x="1739.999" y="-449.6" font-family="Arial Bold" font-size="18.00" fill="#000000">users</text>
<text text-anchor="start" x="1788.0313" y="-449.6" font-family="Arial" font-size="14.00" fill="#000000"> </text>
<text text-anchor="start" x="1791.9209" y="-449.6" font-family="Arial" font-size="14.00" fill="#666666">[BASE TABLE]</text>
<polygon fill="none" stroke="#000000" points="1720.5,-406 1720.5,-436 1903.5,-436 1903.5,-406 1720.5,-406"/>
<text text-anchor="start" x="1727.5" y="-418.8" font-family="Arial" font-size="14.00" fill="#000000">id </text>
<text text-anchor="start" x="1742.2861" y="-418.8" font-family="Arial" font-size="14.00" fill="#666666">[char(36)]</text>
<polygon fill="none" stroke="#000000" points="1720.5,-376 1720.5,-406 1903.5,-406 1903.5,-376 1720.5,-376"/>
<text text-anchor="start" x="1727.5" y="-388.8" font-family="Arial" font-size="14.00" fill="#000000">name </text>
<text text-anchor="start" x="1766.4102" y="-388.8" font-family="Arial" font-size="14.00" fill="#666666">[varchar(32)]</text>
<polygon fill="none" stroke="#000000" points="1720.5,-346 1720.5,-376 1903.5,-376 1903.5,-346 1720.5,-346"/>
<text text-anchor="start" x="1727.1831" y="-358.8" font-family="Arial" font-size="14.00" fill="#000000">display_name </text>
<text text-anchor="start" x="1817.4585" y="-358.8" font-family="Arial" font-size="14.00" fill="#666666">[varchar(64)]</text>
<polygon fill="none" stroke="#000000" points="1720.5,-316 1720.5,-346 1903.5,-346 1903.5,-316 1720.5,-316"/>
<text text-anchor="start" x="1727.5" y="-328.8" font-family="Arial" font-size="14.00" fill="#000000">password </text>
<text text-anchor="start" x="1791.3066" y="-328.8" font-family="Arial" font-size="14.00" fill="#666666">[char(128)]</text>
<polygon fill="none" stroke="#000000" points="1720.5,-286 1720.5,-316 1903.5,-316 1903.5,-286 1720.5,-286"/>
<text text-anchor="start" x="1727.5" y="-298.8" font-family="Arial" font-size="14.00" fill="#000000">salt </text>
<text text-anchor="start" x="1753.1758" y="-298.8" font-family="Arial" font-size="14.00" fill="#666666">[char(128)]</text>
<polygon fill="none" stroke="#000000" points="1720.5,-256 1720.5,-286 1903.5,-286 1903.5,-256 1720.5,-256"/>
<text text-anchor="start" x="1727.5" y="-268.8" font-family="Arial" font-size="14.00" fill="#000000">icon </text>
<text text-anchor="start" x="1757.0723" y="-268.8" font-family="Arial" font-size="14.00" fill="#666666">[char(36)]</text>
<polygon fill="none" stroke="#000000" points="1720.5,-226 1720.5,-256 1903.5,-256 1903.5,-226 1720.5,-226"/>
<text text-anchor="start" x="1727.5" y="-238.8" font-family="Arial" font-size="14.00" fill="#000000">status </text>
<text text-anchor="start" x="1768.7412" y="-238.8" font-family="Arial" font-size="14.00" fill="#666666">[tinyint(4)]</text>
<polygon fill="none" stroke="#000000" points="1720.5,-196 1720.5,-226 1903.5,-226 1903.5,-196 1720.5,-196"/>
<text text-anchor="start" x="1727.5" y="-208.8" font-family="Arial" font-size="14.00" fill="#000000">bot </text>
<text text-anchor="start" x="1750.8516" y="-208.8" font-family="Arial" font-size="14.00" fill="#666666">[tinyint(1)]</text>
<polygon fill="none" stroke="#000000" points="1720.5,-166 1720.5,-196 1903.5,-196 1903.5,-166 1720.5,-166"/>
<text text-anchor="start" x="1727.5" y="-178.8" font-family="Arial" font-size="14.00" fill="#000000">role </text>
<text text-anchor="start" x="1754.7344" y="-178.8" font-family="Arial" font-size="14.00" fill="#666666">[varchar(30)]</text>
<polygon fill="none" stroke="#000000" points="1720.5,-136 1720.5,-166 1903.5,-166 1903.5,-136 1720.5,-136"/>
<text text-anchor="start" x="1727.5" y="-148.8" font-family="Arial" font-size="14.00" fill="#000000">twitter_id </text>
<text text-anchor="start" x="1787.4102" y="-148.8" font-family="Arial" font-size="14.00" fill="#666666">[varchar(15)]</text>
<polygon fill="none" stroke="#000000" points="1720.5,-106 1720.5,-136 1903.5,-136 1903.5,-106 1720.5,-106"/>
<text text-anchor="start" x="1727.5" y="-118.8" font-family="Arial" font-size="14.00" fill="#000000">last_online </text>
<text text-anchor="start" x="1798.3271" y="-118.8" font-family="Arial" font-size="14.00" fill="#666666">[timestamp(6)]</text>
<polygon fill="none" stroke="#000000" points="1720.5,-76 1720.5,-106 1903.5,-106 1903.5,-76 1720.5,-76"/>
<text text-anchor="start" x="1727.5" y="-88.8" font-family="Arial" font-size="14.00" fill="#000000">created_at </text>
<text text-anchor="start" x="1797.5479" y="-88.8" font-family="Arial" font-size="14.00" fill="#666666">[timestamp(6)]</text>
<polygon fill="none" stroke="#000000" points="1720.5,-46 1720.5,-76 1903.5,-76 1903.5,-46 1720.5,-46"/>
<text text-anchor="start" x="1727.5" y="-58.8" font-family="Arial" font-size="14.00" fill="#000000">updated_at </text>
<text text-anchor="start" x="1801.458" y="-58.8" font-family="Arial" font-size="14.00" fill="#666666">[timestamp(6)]</text>
<polygon fill="none" stroke="#000000" stroke-width="3" points="1718.5,-44.5 1718.5,-471.5 1904.5,-471.5 1904.5,-44.5 1718.5,-44.5"/>
</g>
<!-- clip_folders -->
<g id="node2" class="node">
<title>clip_folders</title>
<polygon fill="#efefef" stroke="transparent" points="43.5,-775 43.5,-809 254.5,-809 254.5,-775 43.5,-775"/>
<polygon fill="none" stroke="#000000" points="43.5,-775 43.5,-809 254.5,-809 254.5,-775 43.5,-775"/>
<text text-anchor="start" x="50.5" y="-788.6" font-family="Arial Bold" font-size="18.00" fill="#000000">clip_folders</text>
<text text-anchor="start" x="151.5303" y="-788.6" font-family="Arial" font-size="14.00" fill="#000000"> </text>
<text text-anchor="start" x="155.4199" y="-788.6" font-family="Arial" font-size="14.00" fill="#666666">[BASE TABLE]</text>
<polygon fill="none" stroke="#000000" points="43.5,-745 43.5,-775 254.5,-775 254.5,-745 43.5,-745"/>
<text text-anchor="start" x="50.5" y="-757.8" font-family="Arial" font-size="14.00" fill="#000000">id </text>
<text text-anchor="start" x="65.2861" y="-757.8" font-family="Arial" font-size="14.00" fill="#666666">[char(36)]</text>
<polygon fill="none" stroke="#000000" points="43.5,-715 43.5,-745 254.5,-745 254.5,-715 43.5,-715"/>
<text text-anchor="start" x="50.5" y="-727.8" font-family="Arial" font-size="14.00" fill="#000000">user_id </text>
<text text-anchor="start" x="100.3066" y="-727.8" font-family="Arial" font-size="14.00" fill="#666666">[char(36)]</text>
<polygon fill="none" stroke="#000000" points="43.5,-685 43.5,-715 254.5,-715 254.5,-685 43.5,-685"/>
<text text-anchor="start" x="50.5" y="-697.8" font-family="Arial" font-size="14.00" fill="#000000">name </text>
<text text-anchor="start" x="89.4102" y="-697.8" font-family="Arial" font-size="14.00" fill="#666666">[varchar(30)]</text>
<polygon fill="none" stroke="#000000" points="43.5,-655 43.5,-685 254.5,-685 254.5,-655 43.5,-655"/>
<text text-anchor="start" x="50.5" y="-667.8" font-family="Arial" font-size="14.00" fill="#000000">created_at </text>
<text text-anchor="start" x="120.5479" y="-667.8" font-family="Arial" font-size="14.00" fill="#666666">[timestamp(6)]</text>
<polygon fill="none" stroke="#000000" points="43.5,-625 43.5,-655 254.5,-655 254.5,-625 43.5,-625"/>
<text text-anchor="start" x="50.5" y="-637.8" font-family="Arial" font-size="14.00" fill="#000000">updated_at </text>
<text text-anchor="start" x="124.458" y="-637.8" font-family="Arial" font-size="14.00" fill="#666666">[timestamp(6)]</text>
</g>
<!-- clip_folders&#45;&gt;users -->
<g id="edge1" class="edge">
<title>clip_folders:user_id&#45;&gt;users:id</title>
<path fill="none" stroke="#000000" d="M264.5496,-729.2583C328.6088,-718.873 244.984,-602.1535 305.5,-552 427.0707,-451.2466 1562.6054,-421 1720.5,-421"/>
<polygon fill="#000000" stroke="#000000" points="264.4729,-729.2639 254.1687,-725.5122 259.4864,-729.6319 254.5,-730 254.5,-730 254.5,-730 259.4864,-729.6319 254.8313,-734.4878 264.4729,-729.2639 264.4729,-729.2639"/>
<text text-anchor="start" x="261.5117" y="-739.5" font-family="Arial" font-size="10.00" fill="#000000">FOREIGN KEY (user_id) REFERENCES users (id)</text>
</g>
<!-- clips -->
<g id="node3" class="node">
<title>clips</title>
<polygon fill="#efefef" stroke="transparent" points="358.5,-790 358.5,-824 535.5,-824 535.5,-790 358.5,-790"/>
<polygon fill="none" stroke="#000000" points="358.5,-790 358.5,-824 535.5,-824 535.5,-790 358.5,-790"/>
<text text-anchor="start" x="378.5059" y="-803.6" font-family="Arial Bold" font-size="18.00" fill="#000000">clips</text>
<text text-anchor="start" x="419.5244" y="-803.6" font-family="Arial" font-size="14.00" fill="#000000"> </text>
<text text-anchor="start" x="423.4141" y="-803.6" font-family="Arial" font-size="14.00" fill="#666666">[BASE TABLE]</text>
<polygon fill="none" stroke="#000000" points="358.5,-760 358.5,-790 535.5,-790 535.5,-760 358.5,-760"/>
<text text-anchor="start" x="365.5" y="-772.8" font-family="Arial" font-size="14.00" fill="#000000">id </text>
<text text-anchor="start" x="380.2861" y="-772.8" font-family="Arial" font-size="14.00" fill="#666666">[char(36)]</text>
<polygon fill="none" stroke="#000000" points="358.5,-730 358.5,-760 535.5,-760 535.5,-730 358.5,-730"/>
<text text-anchor="start" x="365.5" y="-742.8" font-family="Arial" font-size="14.00" fill="#000000">user_id </text>
<text text-anchor="start" x="415.3066" y="-742.8" font-family="Arial" font-size="14.00" fill="#666666">[char(36)]</text>
<polygon fill="none" stroke="#000000" points="358.5,-700 358.5,-730 535.5,-730 535.5,-700 358.5,-700"/>
<text text-anchor="start" x="365.5" y="-712.8" font-family="Arial" font-size="14.00" fill="#000000">message_id </text>
<text text-anchor="start" x="444.8789" y="-712.8" font-family="Arial" font-size="14.00" fill="#666666">[char(36)]</text>
<polygon fill="none" stroke="#000000" points="358.5,-670 358.5,-700 535.5,-700 535.5,-670 358.5,-670"/>
<text text-anchor="start" x="365.5" y="-682.8" font-family="Arial" font-size="14.00" fill="#000000">folder_id </text>
<text text-anchor="start" x="423.0928" y="-682.8" font-family="Arial" font-size="14.00" fill="#666666">[char(36)]</text>
<polygon fill="none" stroke="#000000" points="358.5,-640 358.5,-670 535.5,-670 535.5,-640 358.5,-640"/>
<text text-anchor="start" x="365.5" y="-652.8" font-family="Arial" font-size="14.00" fill="#000000">created_at </text>
<text text-anchor="start" x="435.5479" y="-652.8" font-family="Arial" font-size="14.00" fill="#666666">[timestamp(6)]</text>
<polygon fill="none" stroke="#000000" points="358.5,-610 358.5,-640 535.5,-640 535.5,-610 358.5,-610"/>
<text text-anchor="start" x="365.29" y="-622.8" font-family="Arial" font-size="14.00" fill="#000000">updated_at </text>
<text text-anchor="start" x="439.248" y="-622.8" font-family="Arial" font-size="14.00" fill="#666666">[timestamp(6)]</text>
</g>
<!-- clips&#45;&gt;users -->
<g id="edge2" class="edge">
<title>clips:user_id&#45;&gt;users:id</title>
<path fill="none" stroke="#000000" d="M545.4824,-744.3333C616.0833,-734.0552 522.9687,-607.6197 587.5,-552 683.4926,-469.2637 1593.7724,-421 1720.5,-421"/>
<polygon fill="#000000" stroke="#000000" points="545.4778,-744.3335 535.2001,-740.51 540.4889,-744.6668 535.5,-745 535.5,-745 535.5,-745 540.4889,-744.6668 535.7999,-749.49 545.4778,-744.3335 545.4778,-744.3335"/>
<text text-anchor="start" x="423.0117" y="-729.5" font-family="Arial" font-size="10.00" fill="#000000">FOREIGN KEY (user_id) REFERENCES users (id)</text>
</g>
<!-- devices -->
<g id="node4" class="node">
<title>devices</title>
<polygon fill="#efefef" stroke="transparent" points="639.5,-745 639.5,-779 815.5,-779 815.5,-745 639.5,-745"/>
<polygon fill="none" stroke="#000000" points="639.5,-745 639.5,-779 815.5,-779 815.5,-745 639.5,-745"/>
<text text-anchor="start" x="646.4902" y="-758.6" font-family="Arial Bold" font-size="18.00" fill="#000000">devices</text>
<text text-anchor="start" x="712.54" y="-758.6" font-family="Arial" font-size="14.00" fill="#000000"> </text>
<text text-anchor="start" x="716.4297" y="-758.6" font-family="Arial" font-size="14.00" fill="#666666">[BASE TABLE]</text>
<polygon fill="none" stroke="#000000" points="639.5,-715 639.5,-745 815.5,-745 815.5,-715 639.5,-715"/>
<text text-anchor="start" x="646.5" y="-727.8" font-family="Arial" font-size="14.00" fill="#000000">token </text>
<text text-anchor="start" x="684.6377" y="-727.8" font-family="Arial" font-size="14.00" fill="#666666">[varchar(190)]</text>
<polygon fill="none" stroke="#000000" points="639.5,-685 639.5,-715 815.5,-715 815.5,-685 639.5,-685"/>
<text text-anchor="start" x="646.5" y="-697.8" font-family="Arial" font-size="14.00" fill="#000000">user_id </text>
<text text-anchor="start" x="696.3066" y="-697.8" font-family="Arial" font-size="14.00" fill="#666666">[char(36)]</text>
<polygon fill="none" stroke="#000000" points="639.5,-655 639.5,-685 815.5,-685 815.5,-655 639.5,-655"/>
<text text-anchor="start" x="646.5" y="-667.8" font-family="Arial" font-size="14.00" fill="#000000">created_at </text>
<text text-anchor="start" x="716.5479" y="-667.8" font-family="Arial" font-size="14.00" fill="#666666">[timestamp(6)]</text>
</g>
<!-- devices&#45;&gt;users -->
<g id="edge3" class="edge">
<title>devices:user_id&#45;&gt;users:id</title>
<path fill="none" stroke="#000000" d="M825.716,-699.0981C877.7872,-688.8584 816.781,-594.0868 867.5,-552 1015.0837,-429.5345 1528.7221,-421 1720.5,-421"/>
<polygon fill="#000000" stroke="#000000" points="825.4613,-699.1205 815.1042,-695.5174 820.4806,-699.5603 815.5,-700 815.5,-700 815.5,-700 820.4806,-699.5603 815.8958,-704.4826 825.4613,-699.1205 825.4613,-699.1205"/>
<text text-anchor="start" x="703.0117" y="-684.5" font-family="Arial" font-size="10.00" fill="#000000">FOREIGN KEY (user_id) REFERENCES users (id)</text>
</g>
<!-- messages -->
<g id="node5" class="node">
<title>messages</title>
<polygon fill="#efefef" stroke="transparent" points="920.5,-805 920.5,-839 1117.5,-839 1117.5,-805 920.5,-805"/>
<polygon fill="none" stroke="#000000" points="920.5,-805 920.5,-839 1117.5,-839 1117.5,-805 920.5,-805"/>
<text text-anchor="start" x="927.4829" y="-818.6" font-family="Arial Bold" font-size="18.00" fill="#000000">messages</text>
<text text-anchor="start" x="1014.5474" y="-818.6" font-family="Arial" font-size="14.00" fill="#000000"> </text>
<text text-anchor="start" x="1018.437" y="-818.6" font-family="Arial" font-size="14.00" fill="#666666">[BASE TABLE]</text>
<polygon fill="none" stroke="#000000" points="920.5,-775 920.5,-805 1117.5,-805 1117.5,-775 920.5,-775"/>
<text text-anchor="start" x="927.5" y="-787.8" font-family="Arial" font-size="14.00" fill="#000000">id </text>
<text text-anchor="start" x="942.2861" y="-787.8" font-family="Arial" font-size="14.00" fill="#666666">[char(36)]</text>
<polygon fill="none" stroke="#000000" points="920.5,-745 920.5,-775 1117.5,-775 1117.5,-745 920.5,-745"/>
<text text-anchor="start" x="927.5" y="-757.8" font-family="Arial" font-size="14.00" fill="#000000">user_id </text>
<text text-anchor="start" x="977.3066" y="-757.8" font-family="Arial" font-size="14.00" fill="#666666">[char(36)]</text>
<polygon fill="none" stroke="#000000" points="920.5,-715 920.5,-745 1117.5,-745 1117.5,-715 920.5,-715"/>
<text text-anchor="start" x="927.5" y="-727.8" font-family="Arial" font-size="14.00" fill="#000000">channel_id </text>
<text text-anchor="start" x="999.1133" y="-727.8" font-family="Arial" font-size="14.00" fill="#666666">[char(36)]</text>
<polygon fill="none" stroke="#000000" points="920.5,-685 920.5,-715 1117.5,-715 1117.5,-685 920.5,-685"/>
<text text-anchor="start" x="927.5" y="-697.8" font-family="Arial" font-size="14.00" fill="#000000">text </text>
<text text-anchor="start" x="953.9551" y="-697.8" font-family="Arial" font-size="14.00" fill="#666666">[text]</text>
<polygon fill="none" stroke="#000000" points="920.5,-655 920.5,-685 1117.5,-685 1117.5,-655 920.5,-655"/>
<text text-anchor="start" x="927.5" y="-667.8" font-family="Arial" font-size="14.00" fill="#000000">created_at </text>
<text text-anchor="start" x="997.5479" y="-667.8" font-family="Arial" font-size="14.00" fill="#666666">[timestamp(6)]</text>
<polygon fill="none" stroke="#000000" points="920.5,-625 920.5,-655 1117.5,-655 1117.5,-625 920.5,-625"/>
<text text-anchor="start" x="927.5" y="-637.8" font-family="Arial" font-size="14.00" fill="#000000">updated_at </text>
<text text-anchor="start" x="1001.458" y="-637.8" font-family="Arial" font-size="14.00" fill="#666666">[timestamp(6)]</text>
<polygon fill="none" stroke="#000000" points="920.5,-595 920.5,-625 1117.5,-625 1117.5,-595 920.5,-595"/>
<text text-anchor="start" x="927.5" y="-607.8" font-family="Arial" font-size="14.00" fill="#000000">deleted_at </text>
<text text-anchor="start" x="996.7822" y="-607.8" font-family="Arial" font-size="14.00" fill="#666666">[timestamp(6)]</text>
</g>
<!-- messages&#45;&gt;users -->
<g id="edge4" class="edge">
<title>messages:user_id&#45;&gt;users:id</title>
<path fill="none" stroke="#000000" d="M1127.7451,-759.3673C1204.386,-749.0965 1104.3789,-616.3725 1169.5,-552 1259.0077,-463.5213 1594.6425,-421 1720.5,-421"/>
<polygon fill="#000000" stroke="#000000" points="1127.481,-759.3835 1117.2226,-755.5086 1122.4905,-759.6918 1117.5,-760 1117.5,-760 1117.5,-760 1122.4905,-759.6918 1117.7774,-764.4914 1127.481,-759.3835 1127.481,-759.3835"/>
<text text-anchor="start" x="1124.5117" y="-769.5" font-family="Arial" font-size="10.00" fill="#000000">FOREIGN KEY (user_id) REFERENCES users (id)</text>
</g>
<!-- messages_stamps -->
<g id="node6" class="node">
<title>messages_stamps</title>
<polygon fill="#efefef" stroke="transparent" points="1221.5,-790 1221.5,-824 1491.5,-824 1491.5,-790 1221.5,-790"/>
<polygon fill="none" stroke="#000000" points="1221.5,-790 1221.5,-824 1491.5,-824 1491.5,-790 1221.5,-790"/>
<text text-anchor="start" x="1228.4644" y="-803.6" font-family="Arial Bold" font-size="18.00" fill="#000000">messages_stamps</text>
<text text-anchor="start" x="1388.5659" y="-803.6" font-family="Arial" font-size="14.00" fill="#000000"> </text>
<text text-anchor="start" x="1392.4556" y="-803.6" font-family="Arial" font-size="14.00" fill="#666666">[BASE TABLE]</text>
<polygon fill="none" stroke="#000000" points="1221.5,-760 1221.5,-790 1491.5,-790 1491.5,-760 1221.5,-760"/>
<text text-anchor="start" x="1228.5" y="-772.8" font-family="Arial" font-size="14.00" fill="#000000">message_id </text>
<text text-anchor="start" x="1307.8789" y="-772.8" font-family="Arial" font-size="14.00" fill="#666666">[char(36)]</text>
<polygon fill="none" stroke="#000000" points="1221.5,-730 1221.5,-760 1491.5,-760 1491.5,-730 1221.5,-730"/>
<text text-anchor="start" x="1228.5" y="-742.8" font-family="Arial" font-size="14.00" fill="#000000">stamp_id </text>
<text text-anchor="start" x="1289.1963" y="-742.8" font-family="Arial" font-size="14.00" fill="#666666">[char(36)]</text>
<polygon fill="none" stroke="#000000" points="1221.5,-700 1221.5,-730 1491.5,-730 1491.5,-700 1221.5,-700"/>
<text text-anchor="start" x="1228.5" y="-712.8" font-family="Arial" font-size="14.00" fill="#000000">user_id </text>
<text text-anchor="start" x="1278.3066" y="-712.8" font-family="Arial" font-size="14.00" fill="#666666">[char(36)]</text>
<polygon fill="none" stroke="#000000" points="1221.5,-670 1221.5,-700 1491.5,-700 1491.5,-670 1221.5,-670"/>
<text text-anchor="start" x="1228.5" y="-682.8" font-family="Arial" font-size="14.00" fill="#000000">count </text>
<text text-anchor="start" x="1266.6377" y="-682.8" font-family="Arial" font-size="14.00" fill="#666666">[int(11)]</text>
<polygon fill="none" stroke="#000000" points="1221.5,-640 1221.5,-670 1491.5,-670 1491.5,-640 1221.5,-640"/>
<text text-anchor="start" x="1228.5" y="-652.8" font-family="Arial" font-size="14.00" fill="#000000">created_at </text>
<text text-anchor="start" x="1298.5479" y="-652.8" font-family="Arial" font-size="14.00" fill="#666666">[timestamp(6)]</text>
<polygon fill="none" stroke="#000000" points="1221.5,-610 1221.5,-640 1491.5,-640 1491.5,-610 1221.5,-610"/>
<text text-anchor="start" x="1228.5" y="-622.8" font-family="Arial" font-size="14.00" fill="#000000">updated_at </text>
<text text-anchor="start" x="1302.458" y="-622.8" font-family="Arial" font-size="14.00" fill="#666666">[timestamp(6)]</text>
</g>
<!-- messages_stamps&#45;&gt;users -->
<g id="edge5" class="edge">
<title>messages_stamps:user_id&#45;&gt;users:id</title>
<path fill="none" stroke="#000000" d="M1501.6364,-714.2928C1561.14,-705.2143 1501.402,-610.8148 1543.5,-552 1600.4633,-472.417 1622.6314,-421 1720.5,-421"/>
<polygon fill="#000000" stroke="#000000" points="1501.4757,-714.3039 1491.1867,-710.5109 1496.4879,-714.6519 1491.5,-715 1491.5,-715 1491.5,-715 1496.4879,-714.6519 1491.8133,-719.4891 1501.4757,-714.3039 1501.4757,-714.3039"/>
<text text-anchor="start" x="1498.5117" y="-724.5" font-family="Arial" font-size="10.00" fill="#000000">FOREIGN KEY (user_id) REFERENCES users (id)</text>
</g>
<!-- mutes -->
<g id="node7" class="node">
<title>mutes</title>
<polygon fill="#efefef" stroke="transparent" points="1595.5,-730 1595.5,-764 1757.5,-764 1757.5,-730 1595.5,-730"/>
<polygon fill="none" stroke="#000000" points="1595.5,-730 1595.5,-764 1757.5,-764 1757.5,-730 1595.5,-730"/>
<text text-anchor="start" x="1602.0073" y="-743.6" font-family="Arial Bold" font-size="18.00" fill="#000000">mutes</text>
<text text-anchor="start" x="1655.0229" y="-743.6" font-family="Arial" font-size="14.00" fill="#000000"> </text>
<text text-anchor="start" x="1658.9126" y="-743.6" font-family="Arial" font-size="14.00" fill="#666666">[BASE TABLE]</text>
<polygon fill="none" stroke="#000000" points="1595.5,-700 1595.5,-730 1757.5,-730 1757.5,-700 1595.5,-700"/>
<text text-anchor="start" x="1602.5" y="-712.8" font-family="Arial" font-size="14.00" fill="#000000">user_id </text>
<text text-anchor="start" x="1652.3066" y="-712.8" font-family="Arial" font-size="14.00" fill="#666666">[char(36)]</text>
<polygon fill="none" stroke="#000000" points="1595.5,-670 1595.5,-700 1757.5,-700 1757.5,-670 1595.5,-670"/>
<text text-anchor="start" x="1602.5" y="-682.8" font-family="Arial" font-size="14.00" fill="#000000">channel_id </text>
<text text-anchor="start" x="1674.1133" y="-682.8" font-family="Arial" font-size="14.00" fill="#666666">[char(36)]</text>
</g>
<!-- mutes&#45;&gt;users -->
<g id="edge6" class="edge">
<title>mutes:user_id&#45;&gt;users:id</title>
<path fill="none" stroke="#000000" d="M1767.6691,-714.306C1872.5294,-698.5835 1592.5323,-421 1720.5,-421"/>
<polygon fill="#000000" stroke="#000000" points="1767.4768,-714.319 1757.1935,-710.5104 1762.4884,-714.6595 1757.5,-715 1757.5,-715 1757.5,-715 1762.4884,-714.6595 1757.8065,-719.4896 1767.4768,-714.319 1767.4768,-714.319"/>
<text text-anchor="start" x="1525.5117" y="-699.5" font-family="Arial" font-size="10.00" fill="#000000">FOREIGN KEY (user_id) REFERENCES users (id)</text>
</g>
<!-- pins -->
<g id="node8" class="node">
<title>pins</title>
<polygon fill="#efefef" stroke="transparent" points="1862.5,-760 1862.5,-794 2035.5,-794 2035.5,-760 1862.5,-760"/>
<polygon fill="none" stroke="#000000" points="1862.5,-760 1862.5,-794 2035.5,-794 2035.5,-760 1862.5,-760"/>
<text text-anchor="start" x="1882.5142" y="-773.6" font-family="Arial Bold" font-size="18.00" fill="#000000">pins</text>
<text text-anchor="start" x="1919.5161" y="-773.6" font-family="Arial" font-size="14.00" fill="#000000"> </text>
<text text-anchor="start" x="1923.4058" y="-773.6" font-family="Arial" font-size="14.00" fill="#666666">[BASE TABLE]</text>
<polygon fill="none" stroke="#000000" points="1862.5,-730 1862.5,-760 2035.5,-760 2035.5,-730 1862.5,-730"/>
<text text-anchor="start" x="1869.5" y="-742.8" font-family="Arial" font-size="14.00" fill="#000000">id </text>
<text text-anchor="start" x="1884.2861" y="-742.8" font-family="Arial" font-size="14.00" fill="#666666">[char(36)]</text>
<polygon fill="none" stroke="#000000" points="1862.5,-700 1862.5,-730 2035.5,-730 2035.5,-700 1862.5,-700"/>
<text text-anchor="start" x="1869.5" y="-712.8" font-family="Arial" font-size="14.00" fill="#000000">message_id </text>
<text text-anchor="start" x="1948.8789" y="-712.8" font-family="Arial" font-size="14.00" fill="#666666">[char(36)]</text>
<polygon fill="none" stroke="#000000" points="1862.5,-670 1862.5,-700 2035.5,-700 2035.5,-670 1862.5,-670"/>
<text text-anchor="start" x="1869.5" y="-682.8" font-family="Arial" font-size="14.00" fill="#000000">user_id </text>
<text text-anchor="start" x="1919.3066" y="-682.8" font-family="Arial" font-size="14.00" fill="#666666">[char(36)]</text>
<polygon fill="none" stroke="#000000" points="1862.5,-640 1862.5,-670 2035.5,-670 2035.5,-640 1862.5,-640"/>
<text text-anchor="start" x="1869.2451" y="-652.8" font-family="Arial" font-size="14.00" fill="#000000">created_at </text>
<text text-anchor="start" x="1939.293" y="-652.8" font-family="Arial" font-size="14.00" fill="#666666">[timestamp(6)]</text>
</g>
<!-- pins&#45;&gt;users -->
<g id="edge7" class="edge">
<title>pins:user_id&#45;&gt;users:id</title>
<path fill="none" stroke="#000000" d="M1852.5076,-684.2427C1760.7772,-668.7578 2018.5293,-421 1903.5,-421"/>
<polygon fill="#000000" stroke="#000000" points="1852.5286,-684.2442 1862.1599,-689.4871 1857.5143,-684.6221 1862.5,-685 1862.5,-685 1862.5,-685 1857.5143,-684.6221 1862.8401,-680.5129 1852.5286,-684.2442 1852.5286,-684.2442"/>
<text text-anchor="start" x="1809.7617" y="-669.5" font-family="Arial" font-size="10.00" fill="#000000">FOREIGN KEY (user_id) REFERENCES users (id)</text>
</g>
<!-- stars -->
<g id="node9" class="node">
<title>stars</title>
<polygon fill="#efefef" stroke="transparent" points="2139.5,-730 2139.5,-764 2292.5,-764 2292.5,-730 2139.5,-730"/>
<polygon fill="none" stroke="#000000" points="2139.5,-730 2139.5,-764 2292.5,-764 2292.5,-730 2139.5,-730"/>
<text text-anchor="start" x="2146.4995" y="-743.6" font-family="Arial Bold" font-size="18.00" fill="#000000">stars</text>
<text text-anchor="start" x="2189.5308" y="-743.6" font-family="Arial" font-size="14.00" fill="#000000"> </text>
<text text-anchor="start" x="2193.4204" y="-743.6" font-family="Arial" font-size="14.00" fill="#666666">[BASE TABLE]</text>
<polygon fill="none" stroke="#000000" points="2139.5,-700 2139.5,-730 2292.5,-730 2292.5,-700 2139.5,-700"/>
<text text-anchor="start" x="2146.5" y="-712.8" font-family="Arial" font-size="14.00" fill="#000000">user_id </text>
<text text-anchor="start" x="2196.3066" y="-712.8" font-family="Arial" font-size="14.00" fill="#666666">[char(36)]</text>
<polygon fill="none" stroke="#000000" points="2139.5,-670 2139.5,-700 2292.5,-700 2292.5,-670 2139.5,-670"/>
<text text-anchor="start" x="2146.5" y="-682.8" font-family="Arial" font-size="14.00" fill="#000000">channel_id </text>
<text text-anchor="start" x="2218.1133" y="-682.8" font-family="Arial" font-size="14.00" fill="#666666">[char(36)]</text>
</g>
<!-- stars&#45;&gt;users -->
<g id="edge8" class="edge">
<title>stars:user_id&#45;&gt;users:id</title>
<path fill="none" stroke="#000000" d="M2129.3675,-714.29C2069.9128,-705.1761 2130.1384,-610.4243 2087.5,-552 2028.3212,-470.9117 2003.8864,-421 1903.5,-421"/>
<polygon fill="#000000" stroke="#000000" points="2129.5245,-714.3009 2139.1854,-719.489 2134.5122,-714.6504 2139.5,-715 2139.5,-715 2139.5,-715 2134.5122,-714.6504 2139.8146,-710.511 2129.5245,-714.3009 2129.5245,-714.3009"/>
<text text-anchor="start" x="2086.7617" y="-699.5" font-family="Arial" font-size="10.00" fill="#000000">FOREIGN KEY (user_id) REFERENCES users (id)</text>
</g>
<!-- unreads -->
<g id="node10" class="node">
<title>unreads</title>
<polygon fill="#efefef" stroke="transparent" points="2396.5,-760 2396.5,-794 2575.5,-794 2575.5,-760 2396.5,-760"/>
<polygon fill="none" stroke="#000000" points="2396.5,-760 2396.5,-794 2575.5,-794 2575.5,-760 2396.5,-760"/>
<text text-anchor="start" x="2403.0039" y="-773.6" font-family="Arial Bold" font-size="18.00" fill="#000000">unreads</text>
<text text-anchor="start" x="2473.0264" y="-773.6" font-family="Arial" font-size="14.00" fill="#000000"> </text>
<text text-anchor="start" x="2476.916" y="-773.6" font-family="Arial" font-size="14.00" fill="#666666">[BASE TABLE]</text>
<polygon fill="none" stroke="#000000" points="2396.5,-730 2396.5,-760 2575.5,-760 2575.5,-730 2396.5,-730"/>
<text text-anchor="start" x="2403.5" y="-742.8" font-family="Arial" font-size="14.00" fill="#000000">user_id </text>
<text text-anchor="start" x="2453.3066" y="-742.8" font-family="Arial" font-size="14.00" fill="#666666">[char(36)]</text>
<polygon fill="none" stroke="#000000" points="2396.5,-700 2396.5,-730 2575.5,-730 2575.5,-700 2396.5,-700"/>
<text text-anchor="start" x="2403.5" y="-712.8" font-family="Arial" font-size="14.00" fill="#000000">message_id </text>
<text text-anchor="start" x="2482.8789" y="-712.8" font-family="Arial" font-size="14.00" fill="#666666">[char(36)]</text>
<polygon fill="none" stroke="#000000" points="2396.5,-670 2396.5,-700 2575.5,-700 2575.5,-670 2396.5,-670"/>
<text text-anchor="start" x="2403.5" y="-682.8" font-family="Arial" font-size="14.00" fill="#000000">noticeable </text>
<text text-anchor="start" x="2471.2168" y="-682.8" font-family="Arial" font-size="14.00" fill="#666666">[tinyint(1)]</text>
<polygon fill="none" stroke="#000000" points="2396.5,-640 2396.5,-670 2575.5,-670 2575.5,-640 2396.5,-640"/>
<text text-anchor="start" x="2403.5" y="-652.8" font-family="Arial" font-size="14.00" fill="#000000">created_at </text>
<text text-anchor="start" x="2473.5479" y="-652.8" font-family="Arial" font-size="14.00" fill="#666666">[timestamp(6)]</text>
</g>
<!-- unreads&#45;&gt;users -->
<g id="edge9" class="edge">
<title>unreads:user_id&#45;&gt;users:id</title>
<path fill="none" stroke="#000000" d="M2386.4921,-744.3605C2315.5012,-734.497 2403.9655,-613.0057 2344.5,-552 2273.1409,-478.7925 2005.7324,-421 1903.5,-421"/>
<polygon fill="#000000" stroke="#000000" points="2386.5204,-744.3622 2396.213,-749.4908 2391.5102,-744.6811 2396.5,-745 2396.5,-745 2396.5,-745 2391.5102,-744.6811 2396.787,-740.5092 2386.5204,-744.3622 2386.5204,-744.3622"/>
<text text-anchor="start" x="2403.5117" y="-754.5" font-family="Arial" font-size="10.00" fill="#000000">FOREIGN KEY (user_id) REFERENCES users (id)</text>
</g>
<!-- users_private_channels -->
<g id="node11" class="node">
<title>users_private_channels</title>
<polygon fill="#efefef" stroke="transparent" points="2679.5,-730 2679.5,-764 2994.5,-764 2994.5,-730 2679.5,-730"/>
<polygon fill="none" stroke="#000000" points="2679.5,-730 2679.5,-764 2994.5,-764 2994.5,-730 2679.5,-730"/>
<text text-anchor="start" x="2686.46" y="-743.6" font-family="Arial Bold" font-size="18.00" fill="#000000">users_private_channels</text>
<text text-anchor="start" x="2891.5703" y="-743.6" font-family="Arial" font-size="14.00" fill="#000000"> </text>
<text text-anchor="start" x="2895.46" y="-743.6" font-family="Arial" font-size="14.00" fill="#666666">[BASE TABLE]</text>
<polygon fill="none" stroke="#000000" points="2679.5,-700 2679.5,-730 2994.5,-730 2994.5,-700 2679.5,-700"/>
<text text-anchor="start" x="2686.5" y="-712.8" font-family="Arial" font-size="14.00" fill="#000000">user_id </text>
<text text-anchor="start" x="2736.3066" y="-712.8" font-family="Arial" font-size="14.00" fill="#666666">[char(36)]</text>
<polygon fill="none" stroke="#000000" points="2679.5,-670 2679.5,-700 2994.5,-700 2994.5,-670 2679.5,-670"/>
<text text-anchor="start" x="2686.5" y="-682.8" font-family="Arial" font-size="14.00" fill="#000000">channel_id </text>
<text text-anchor="start" x="2758.1133" y="-682.8" font-family="Arial" font-size="14.00" fill="#666666">[char(36)]</text>
</g>
<!-- users_private_channels&#45;&gt;users -->
<g id="edge10" class="edge">
<title>users_private_channels:user_id&#45;&gt;users:id</title>
<path fill="none" stroke="#000000" d="M2669.4513,-714.2134C2611.0569,-704.1307 2681.8535,-599.7192 2627.5,-552 2504.6319,-444.1291 2067.0013,-421 1903.5,-421"/>
<polygon fill="#000000" stroke="#000000" points="2669.5305,-714.2195 2679.1488,-719.4863 2674.5152,-714.6098 2679.5,-715 2679.5,-715 2679.5,-715 2674.5152,-714.6098 2679.8512,-710.5137 2669.5305,-714.2195 2669.5305,-714.2195"/>
<text text-anchor="start" x="2447.5117" y="-724.5" font-family="Arial" font-size="10.00" fill="#000000">FOREIGN KEY (user_id) REFERENCES users (id)</text>
</g>
<!-- users_subscribe_channels -->
<g id="node12" class="node">
<title>users_subscribe_channels</title>
<polygon fill="#efefef" stroke="transparent" points="3098.5,-730 3098.5,-764 3439.5,-764 3439.5,-730 3098.5,-730"/>
<polygon fill="none" stroke="#000000" points="3098.5,-730 3098.5,-764 3439.5,-764 3439.5,-730 3098.5,-730"/>
<text text-anchor="start" x="3105.4565" y="-743.6" font-family="Arial Bold" font-size="18.00" fill="#000000">users_subscribe_channels</text>
<text text-anchor="start" x="3336.5737" y="-743.6" font-family="Arial" font-size="14.00" fill="#000000"> </text>
<text text-anchor="start" x="3340.4634" y="-743.6" font-family="Arial" font-size="14.00" fill="#666666">[BASE TABLE]</text>
<polygon fill="none" stroke="#000000" points="3098.5,-700 3098.5,-730 3439.5,-730 3439.5,-700 3098.5,-700"/>
<text text-anchor="start" x="3105.5" y="-712.8" font-family="Arial" font-size="14.00" fill="#000000">user_id </text>
<text text-anchor="start" x="3155.3066" y="-712.8" font-family="Arial" font-size="14.00" fill="#666666">[char(36)]</text>
<polygon fill="none" stroke="#000000" points="3098.5,-670 3098.5,-700 3439.5,-700 3439.5,-670 3098.5,-670"/>
<text text-anchor="start" x="3105.5" y="-682.8" font-family="Arial" font-size="14.00" fill="#000000">channel_id </text>
<text text-anchor="start" x="3177.1133" y="-682.8" font-family="Arial" font-size="14.00" fill="#666666">[char(36)]</text>
</g>
<!-- users_subscribe_channels&#45;&gt;users -->
<g id="edge11" class="edge">
<title>users_subscribe_channels:user_id&#45;&gt;users:id</title>
<path fill="none" stroke="#000000" d="M3088.4621,-714.2006C3030.2053,-703.9561 3102.3729,-597.9309 3046.5,-552 2947.7519,-470.8231 2031.3314,-421 1903.5,-421"/>
<polygon fill="#000000" stroke="#000000" points="3088.5316,-714.206 3098.1427,-719.4858 3093.5158,-714.603 3098.5,-715 3098.5,-715 3098.5,-715 3093.5158,-714.603 3098.8573,-710.5142 3088.5316,-714.206 3088.5316,-714.206"/>
<text text-anchor="start" x="2866.5117" y="-724.5" font-family="Arial" font-size="10.00" fill="#000000">FOREIGN KEY (user_id) REFERENCES users (id)</text>
</g>
<!-- users_tags -->
<g id="node13" class="node">
<title>users_tags</title>
<polygon fill="#efefef" stroke="transparent" points="3543.5,-775 3543.5,-809 3748.5,-809 3748.5,-775 3543.5,-775"/>
<polygon fill="none" stroke="#000000" points="3543.5,-775 3543.5,-809 3748.5,-809 3748.5,-775 3543.5,-775"/>
<text text-anchor="start" x="3550.4883" y="-788.6" font-family="Arial Bold" font-size="18.00" fill="#000000">users_tags</text>
<text text-anchor="start" x="3645.542" y="-788.6" font-family="Arial" font-size="14.00" fill="#000000"> </text>
<text text-anchor="start" x="3649.4316" y="-788.6" font-family="Arial" font-size="14.00" fill="#666666">[BASE TABLE]</text>
<polygon fill="none" stroke="#000000" points="3543.5,-745 3543.5,-775 3748.5,-775 3748.5,-745 3543.5,-745"/>
<text text-anchor="start" x="3550.5" y="-757.8" font-family="Arial" font-size="14.00" fill="#000000">user_id </text>
<text text-anchor="start" x="3600.3066" y="-757.8" font-family="Arial" font-size="14.00" fill="#666666">[char(36)]</text>
<polygon fill="none" stroke="#000000" points="3543.5,-715 3543.5,-745 3748.5,-745 3748.5,-715 3543.5,-715"/>
<text text-anchor="start" x="3550.5" y="-727.8" font-family="Arial" font-size="14.00" fill="#000000">tag_id </text>
<text text-anchor="start" x="3592.5342" y="-727.8" font-family="Arial" font-size="14.00" fill="#666666">[char(36)]</text>
<polygon fill="none" stroke="#000000" points="3543.5,-685 3543.5,-715 3748.5,-715 3748.5,-685 3543.5,-685"/>
<text text-anchor="start" x="3550.5" y="-697.8" font-family="Arial" font-size="14.00" fill="#000000">is_locked </text>
<text text-anchor="start" x="3612.7549" y="-697.8" font-family="Arial" font-size="14.00" fill="#666666">[tinyint(1)]</text>
<polygon fill="none" stroke="#000000" points="3543.5,-655 3543.5,-685 3748.5,-685 3748.5,-655 3543.5,-655"/>
<text text-anchor="start" x="3550.5" y="-667.8" font-family="Arial" font-size="14.00" fill="#000000">created_at </text>
<text text-anchor="start" x="3620.5479" y="-667.8" font-family="Arial" font-size="14.00" fill="#666666">[timestamp(6)]</text>
<polygon fill="none" stroke="#000000" points="3543.5,-625 3543.5,-655 3748.5,-655 3748.5,-625 3543.5,-625"/>
<text text-anchor="start" x="3550.5" y="-637.8" font-family="Arial" font-size="14.00" fill="#000000">updated_at </text>
<text text-anchor="start" x="3624.458" y="-637.8" font-family="Arial" font-size="14.00" fill="#666666">[timestamp(6)]</text>
</g>
<!-- users_tags&#45;&gt;users -->
<g id="edge12" class="edge">
<title>users_tags:user_id&#45;&gt;users:id</title>
<path fill="none" stroke="#000000" d="M3533.2763,-759.344C3456.9791,-748.6981 3561.2943,-611.2733 3491.5,-552 3356.5539,-437.3961 2080.5438,-421 1903.5,-421"/>
<polygon fill="#000000" stroke="#000000" points="3533.5205,-759.3596 3543.2118,-764.4908 3538.5103,-759.6798 3543.5,-760 3543.5,-760 3543.5,-760 3538.5103,-759.6798 3543.7882,-755.5092 3533.5205,-759.3596 3533.5205,-759.3596"/>
<text text-anchor="start" x="3490.7617" y="-744.5" font-family="Arial" font-size="10.00" fill="#000000">FOREIGN KEY (user_id) REFERENCES users (id)</text>
</g>
</g>
</svg>
