<?xml version="1.0" encoding="UTF-8" standalone="no"?>
<!DOCTYPE svg PUBLIC "-//W3C//DTD SVG 1.1//EN"
 "http://www.w3.org/Graphics/SVG/1.1/DTD/svg11.dtd">
<!-- Generated by graphviz version 2.40.1 (20161225.0304)
 -->
<!-- Title: user_profiles Pages: 1 -->
<svg width="508pt" height="772pt"
 viewBox="0.00 0.00 508.00 772.00" xmlns="http://www.w3.org/2000/svg" xmlns:xlink="http://www.w3.org/1999/xlink">
<g id="graph0" class="graph" transform="scale(1 1) rotate(0) translate(4 768)">
<title>user_profiles</title>
<polygon fill="#ffffff" stroke="transparent" points="-4,4 -4,-768 504,-768 504,4 -4,4"/>
<!-- user_profiles -->
<g id="node1" class="node">
<title>user_profiles</title>
<polygon fill="#efefef" stroke="transparent" points="240,-682.5 240,-717.5 454,-717.5 454,-682.5 240,-682.5"/>
<polygon fill="none" stroke="#000000" points="240,-682.5 240,-717.5 454,-717.5 454,-682.5 240,-682.5"/>
<text text-anchor="start" x="246.867" y="-695.3" font-family="Arial Bold" font-size="18.00" fill="#000000">user_profiles</text>
<text text-anchor="start" x="349.8792" y="-695.3" font-family="Arial" font-size="14.00" fill="#000000"> </text>
<text text-anchor="start" x="353.7698" y="-695.3" font-family="Arial" font-size="14.00" fill="#666666">[BASE TABLE]</text>
<polygon fill="none" stroke="#000000" points="240,-652.5 240,-682.5 454,-682.5 454,-652.5 240,-652.5"/>
<text text-anchor="start" x="247" y="-663.9" font-family="Arial" font-size="14.00" fill="#000000">user_id </text>
<text text-anchor="start" x="296.7882" y="-663.9" font-family="Arial" font-size="14.00" fill="#666666">[char(36)]</text>
<polygon fill="none" stroke="#000000" points="240,-622.5 240,-652.5 454,-652.5 454,-622.5 240,-622.5"/>
<text text-anchor="start" x="247" y="-633.9" font-family="Arial" font-size="14.00" fill="#000000">bio </text>
<text text-anchor="start" x="269.5624" y="-633.9" font-family="Arial" font-size="14.00" fill="#666666">[text]</text>
<polygon fill="none" stroke="#000000" points="240,-592.5 240,-622.5 454,-622.5 454,-592.5 240,-592.5"/>
<text text-anchor="start" x="247" y="-603.9" font-family="Arial" font-size="14.00" fill="#000000">twitter_id </text>
<text text-anchor="start" x="306.8906" y="-603.9" font-family="Arial" font-size="14.00" fill="#666666">[varchar(15)]</text>
<polygon fill="none" stroke="#000000" points="240,-562.5 240,-592.5 454,-592.5 454,-562.5 240,-562.5"/>
<text text-anchor="start" x="247" y="-573.9" font-family="Arial" font-size="14.00" fill="#000000">last_online </text>
<text text-anchor="start" x="317.7966" y="-573.9" font-family="Arial" font-size="14.00" fill="#666666">[datetime(6)]</text>
<polygon fill="none" stroke="#000000" points="240,-532.5 240,-562.5 454,-562.5 454,-532.5 240,-532.5"/>
<text text-anchor="start" x="247" y="-543.9" font-family="Arial" font-size="14.00" fill="#000000">updated_at </text>
<text text-anchor="start" x="320.9326" y="-543.9" font-family="Arial" font-size="14.00" fill="#666666">[datetime(6)]</text>
<polygon fill="none" stroke="#000000" stroke-width="3" points="238.5,-531.5 238.5,-719.5 455.5,-719.5 455.5,-531.5 238.5,-531.5"/>
</g>
<!-- users -->
<g id="node2" class="node">
<title>users</title>
<polygon fill="#efefef" stroke="transparent" points="255,-372.5 255,-407.5 438,-407.5 438,-372.5 255,-372.5"/>
<polygon fill="none" stroke="#000000" points="255,-372.5 255,-407.5 438,-407.5 438,-372.5 255,-372.5"/>
<text text-anchor="start" x="275.8708" y="-385.3" font-family="Arial Bold" font-size="18.00" fill="#000000">users</text>
<text text-anchor="start" x="319.8754" y="-385.3" font-family="Arial" font-size="14.00" fill="#000000"> </text>
<text text-anchor="start" x="323.766" y="-385.3" font-family="Arial" font-size="14.00" fill="#666666">[BASE TABLE]</text>
<polygon fill="none" stroke="#000000" points="255,-342.5 255,-372.5 438,-372.5 438,-342.5 255,-342.5"/>
<text text-anchor="start" x="262" y="-353.9" font-family="Arial" font-size="14.00" fill="#000000">id </text>
<text text-anchor="start" x="276.7798" y="-353.9" font-family="Arial" font-size="14.00" fill="#666666">[char(36)]</text>
<polygon fill="none" stroke="#000000" points="255,-312.5 255,-342.5 438,-342.5 438,-312.5 255,-312.5"/>
<text text-anchor="start" x="262" y="-323.9" font-family="Arial" font-size="14.00" fill="#000000">name </text>
<text text-anchor="start" x="300.899" y="-323.9" font-family="Arial" font-size="14.00" fill="#666666">[varchar(32)]</text>
<polygon fill="none" stroke="#000000" points="255,-282.5 255,-312.5 438,-312.5 438,-282.5 255,-282.5"/>
<text text-anchor="start" x="261.7104" y="-293.9" font-family="Arial" font-size="14.00" fill="#000000">display_name </text>
<text text-anchor="start" x="351.953" y="-293.9" font-family="Arial" font-size="14.00" fill="#666666">[varchar(64)]</text>
<polygon fill="none" stroke="#000000" points="255,-252.5 255,-282.5 438,-282.5 438,-252.5 255,-252.5"/>
<text text-anchor="start" x="262" y="-263.9" font-family="Arial" font-size="14.00" fill="#000000">password </text>
<text text-anchor="start" x="325.7882" y="-263.9" font-family="Arial" font-size="14.00" fill="#666666">[char(128)]</text>
<polygon fill="none" stroke="#000000" points="255,-222.5 255,-252.5 438,-252.5 438,-222.5 255,-222.5"/>
<text text-anchor="start" x="262" y="-233.9" font-family="Arial" font-size="14.00" fill="#000000">salt </text>
<text text-anchor="start" x="287.6704" y="-233.9" font-family="Arial" font-size="14.00" fill="#666666">[char(128)]</text>
<polygon fill="none" stroke="#000000" points="255,-192.5 255,-222.5 438,-222.5 438,-192.5 255,-192.5"/>
<text text-anchor="start" x="262" y="-203.9" font-family="Arial" font-size="14.00" fill="#000000">icon </text>
<text text-anchor="start" x="291.5624" y="-203.9" font-family="Arial" font-size="14.00" fill="#666666">[char(36)]</text>
<polygon fill="none" stroke="#000000" points="255,-162.5 255,-192.5 438,-192.5 438,-162.5 255,-162.5"/>
<text text-anchor="start" x="262" y="-173.9" font-family="Arial" font-size="14.00" fill="#000000">status </text>
<text text-anchor="start" x="303.237" y="-173.9" font-family="Arial" font-size="14.00" fill="#666666">[tinyint(4)]</text>
<polygon fill="none" stroke="#000000" points="255,-132.5 255,-162.5 438,-162.5 438,-132.5 255,-132.5"/>
<text text-anchor="start" x="262" y="-143.9" font-family="Arial" font-size="14.00" fill="#000000">bot </text>
<text text-anchor="start" x="285.3464" y="-143.9" font-family="Arial" font-size="14.00" fill="#666666">[tinyint(1)]</text>
<polygon fill="none" stroke="#000000" points="255,-102.5 255,-132.5 438,-132.5 438,-102.5 255,-102.5"/>
<text text-anchor="start" x="262" y="-113.9" font-family="Arial" font-size="14.00" fill="#000000">role </text>
<text text-anchor="start" x="289.223" y="-113.9" font-family="Arial" font-size="14.00" fill="#666666">[varchar(30)]</text>
<polygon fill="none" stroke="#000000" points="255,-72.5 255,-102.5 438,-102.5 438,-72.5 255,-72.5"/>
<text text-anchor="start" x="262" y="-83.9" font-family="Arial" font-size="14.00" fill="#000000">created_at </text>
<text text-anchor="start" x="332.028" y="-83.9" font-family="Arial" font-size="14.00" fill="#666666">[datetime(6)]</text>
<polygon fill="none" stroke="#000000" points="255,-42.5 255,-72.5 438,-72.5 438,-42.5 255,-42.5"/>
<text text-anchor="start" x="262" y="-53.9" font-family="Arial" font-size="14.00" fill="#000000">updated_at </text>
<text text-anchor="start" x="335.9326" y="-53.9" font-family="Arial" font-size="14.00" fill="#666666">[datetime(6)]</text>
</g>
<!-- user_profiles&#45;&gt;users -->
<g id="edge1" class="edge">
<title>user_profiles:user_id&#45;&gt;users:id</title>
<path fill="none" stroke="#000000" d="M229.8411,-666.7961C162.4126,-656.9324 190.9069,-545.824 240,-487 297.3102,-418.3302 380.6898,-519.6698 438,-451 464.6266,-419.0957 479.5556,-357.5 438,-357.5"/>
<polygon fill="#000000" stroke="#000000" points="230.0239,-666.8087 239.6889,-671.9892 235.012,-667.1543 240,-667.5 240,-667.5 240,-667.5 235.012,-667.1543 240.3111,-663.0108 230.0239,-666.8087 230.0239,-666.8087"/>
<text text-anchor="start" x="6.945" y="-677.5" font-family="Arial" font-size="10.00" fill="#000000">FOREIGN KEY (user_id) REFERENCES users (id)</text>
</g>
</g>
</svg>
