<?xml version="1.0" encoding="UTF-8" standalone="no"?>
<!DOCTYPE svg PUBLIC "-//W3C//DTD SVG 1.1//EN"
 "http://www.w3.org/Graphics/SVG/1.1/DTD/svg11.dtd">
<!-- Generated by graphviz version 2.40.1 (20161225.0304)
 -->
<!-- Title: users_private_channels Pages: 1 -->
<svg width="833pt" height="740pt"
     viewBox="0.00 0.00 833.00 740.00" xmlns="http://www.w3.org/2000/svg">
<g id="graph0" class="graph" transform="scale(1 1) rotate(0) translate(4 736)">
<title>users_private_channels</title>
<polygon fill="#ffffff" stroke="transparent" points="-4,4 -4,-736 829,-736 829,4 -4,4"/>
<!-- users_private_channels -->
<g id="node1" class="node">
<title>users_private_channels</title>
<polygon fill="#efefef" stroke="transparent" points="239,-652 239,-686 554,-686 554,-652 239,-652"/>
<polygon fill="none" stroke="#000000" points="239,-652 239,-686 554,-686 554,-652 239,-652"/>
<text text-anchor="start" x="245.96" y="-665.6" font-family="Arial Bold" font-size="18.00" fill="#000000">users_private_channels</text>
<text text-anchor="start" x="451.0703" y="-665.6" font-family="Arial" font-size="14.00" fill="#000000"> </text>
<text text-anchor="start" x="454.96" y="-665.6" font-family="Arial" font-size="14.00" fill="#666666">[BASE TABLE]</text>
<polygon fill="none" stroke="#000000" points="239,-622 239,-652 554,-652 554,-622 239,-622"/>
<text text-anchor="start" x="246" y="-634.8" font-family="Arial" font-size="14.00" fill="#000000">user_id </text>
<text text-anchor="start" x="295.8066" y="-634.8" font-family="Arial" font-size="14.00" fill="#666666">[char(36)]</text>
<polygon fill="none" stroke="#000000" points="239,-592 239,-622 554,-622 554,-592 239,-592"/>
<text text-anchor="start" x="246" y="-604.8" font-family="Arial" font-size="14.00" fill="#000000">channel_id </text>
<text text-anchor="start" x="317.6133" y="-604.8" font-family="Arial" font-size="14.00" fill="#666666">[char(36)]</text>
<polygon fill="none" stroke="#000000" stroke-width="3" points="237,-590.5 237,-687.5 555,-687.5 555,-590.5 237,-590.5"/>
</g>
<!-- users -->
<g id="node2" class="node">
<title>users</title>
<polygon fill="#efefef" stroke="transparent" points="161,-433 161,-467 344,-467 344,-433 161,-433"/>
<polygon fill="none" stroke="#000000" points="161,-433 161,-467 344,-467 344,-433 161,-433"/>
<text text-anchor="start" x="180.499" y="-446.6" font-family="Arial Bold" font-size="18.00" fill="#000000">users</text>
<text text-anchor="start" x="228.5313" y="-446.6" font-family="Arial" font-size="14.00" fill="#000000"> </text>
<text text-anchor="start" x="232.4209" y="-446.6" font-family="Arial" font-size="14.00" fill="#666666">[BASE TABLE]</text>
<polygon fill="none" stroke="#000000" points="161,-403 161,-433 344,-433 344,-403 161,-403"/>
<text text-anchor="start" x="168" y="-415.8" font-family="Arial" font-size="14.00" fill="#000000">id </text>
<text text-anchor="start" x="182.7861" y="-415.8" font-family="Arial" font-size="14.00" fill="#666666">[char(36)]</text>
<polygon fill="none" stroke="#000000" points="161,-373 161,-403 344,-403 344,-373 161,-373"/>
<text text-anchor="start" x="168" y="-385.8" font-family="Arial" font-size="14.00" fill="#000000">name </text>
<text text-anchor="start" x="206.9102" y="-385.8" font-family="Arial" font-size="14.00" fill="#666666">[varchar(32)]</text>
<polygon fill="none" stroke="#000000" points="161,-343 161,-373 344,-373 344,-343 161,-343"/>
<text text-anchor="start" x="167.6831" y="-355.8" font-family="Arial" font-size="14.00" fill="#000000">display_name </text>
<text text-anchor="start" x="257.9585" y="-355.8" font-family="Arial" font-size="14.00" fill="#666666">[varchar(64)]</text>
<polygon fill="none" stroke="#000000" points="161,-313 161,-343 344,-343 344,-313 161,-313"/>
<text text-anchor="start" x="168" y="-325.8" font-family="Arial" font-size="14.00" fill="#000000">password </text>
<text text-anchor="start" x="231.8066" y="-325.8" font-family="Arial" font-size="14.00" fill="#666666">[char(128)]</text>
<polygon fill="none" stroke="#000000" points="161,-283 161,-313 344,-313 344,-283 161,-283"/>
<text text-anchor="start" x="168" y="-295.8" font-family="Arial" font-size="14.00" fill="#000000">salt </text>
<text text-anchor="start" x="193.6758" y="-295.8" font-family="Arial" font-size="14.00" fill="#666666">[char(128)]</text>
<polygon fill="none" stroke="#000000" points="161,-253 161,-283 344,-283 344,-253 161,-253"/>
<text text-anchor="start" x="168" y="-265.8" font-family="Arial" font-size="14.00" fill="#000000">icon </text>
<text text-anchor="start" x="197.5723" y="-265.8" font-family="Arial" font-size="14.00" fill="#666666">[char(36)]</text>
<polygon fill="none" stroke="#000000" points="161,-223 161,-253 344,-253 344,-223 161,-223"/>
<text text-anchor="start" x="168" y="-235.8" font-family="Arial" font-size="14.00" fill="#000000">status </text>
<text text-anchor="start" x="209.2412" y="-235.8" font-family="Arial" font-size="14.00" fill="#666666">[tinyint(4)]</text>
<polygon fill="none" stroke="#000000" points="161,-193 161,-223 344,-223 344,-193 161,-193"/>
<text text-anchor="start" x="168" y="-205.8" font-family="Arial" font-size="14.00" fill="#000000">bot </text>
<text text-anchor="start" x="191.3516" y="-205.8" font-family="Arial" font-size="14.00" fill="#666666">[tinyint(1)]</text>
<polygon fill="none" stroke="#000000" points="161,-163 161,-193 344,-193 344,-163 161,-163"/>
<text text-anchor="start" x="168" y="-175.8" font-family="Arial" font-size="14.00" fill="#000000">role </text>
<text text-anchor="start" x="195.2344" y="-175.8" font-family="Arial" font-size="14.00" fill="#666666">[varchar(30)]</text>
<polygon fill="none" stroke="#000000" points="161,-133 161,-163 344,-163 344,-133 161,-133"/>
<text text-anchor="start" x="168" y="-145.8" font-family="Arial" font-size="14.00" fill="#000000">twitter_id </text>
<text text-anchor="start" x="227.9102" y="-145.8" font-family="Arial" font-size="14.00" fill="#666666">[varchar(15)]</text>
<polygon fill="none" stroke="#000000" points="161,-103 161,-133 344,-133 344,-103 161,-103"/>
<text text-anchor="start" x="168" y="-115.8" font-family="Arial" font-size="14.00" fill="#000000">last_online </text>
<text text-anchor="start" x="238.8271" y="-115.8" font-family="Arial" font-size="14.00" fill="#666666">[timestamp(6)]</text>
<polygon fill="none" stroke="#000000" points="161,-73 161,-103 344,-103 344,-73 161,-73"/>
<text text-anchor="start" x="168" y="-85.8" font-family="Arial" font-size="14.00" fill="#000000">created_at </text>
<text text-anchor="start" x="238.0479" y="-85.8" font-family="Arial" font-size="14.00" fill="#666666">[timestamp(6)]</text>
<polygon fill="none" stroke="#000000" points="161,-43 161,-73 344,-73 344,-43 161,-43"/>
<text text-anchor="start" x="168" y="-55.8" font-family="Arial" font-size="14.00" fill="#000000">updated_at </text>
<text text-anchor="start" x="241.958" y="-55.8" font-family="Arial" font-size="14.00" fill="#666666">[timestamp(6)]</text>
</g>
<!-- users_private_channels&#45;&gt;users -->
<g id="edge1" class="edge">
<title>users_private_channels:user_id&#45;&gt;users:id</title>
<path fill="none" stroke="#000000" d="M229.0961,-635.537C201.7889,-626.3296 217.696,-575.8256 239,-546 267.6744,-505.8558 315.3256,-550.1442 344,-510 367.7662,-476.7273 384.8889,-418 344,-418"/>
<polygon fill="#000000" stroke="#000000" points="229.1074,-635.5385 238.3423,-641.4517 234.0537,-636.2693 239,-637 239,-637 239,-637 234.0537,-636.2693 239.6577,-632.5483 229.1074,-635.5385 229.1074,-635.5385"/>
<text text-anchor="start" x="7.0117" y="-646.5" font-family="Arial" font-size="10.00" fill="#000000">FOREIGN KEY (user_id) REFERENCES users (id)</text>
</g>
<!-- channels -->
<g id="node3" class="node">
<title>channels</title>
<polygon fill="#efefef" stroke="transparent" points="448,-418 448,-452 635,-452 635,-418 448,-418"/>
<polygon fill="none" stroke="#000000" points="448,-418 448,-452 635,-452 635,-418 448,-418"/>
<text text-anchor="start" x="454.5005" y="-431.6" font-family="Arial Bold" font-size="18.00" fill="#000000">channels</text>
<text text-anchor="start" x="532.5298" y="-431.6" font-family="Arial" font-size="14.00" fill="#000000"> </text>
<text text-anchor="start" x="536.4194" y="-431.6" font-family="Arial" font-size="14.00" fill="#666666">[BASE TABLE]</text>
<polygon fill="none" stroke="#000000" points="448,-388 448,-418 635,-418 635,-388 448,-388"/>
<text text-anchor="start" x="455" y="-400.8" font-family="Arial" font-size="14.00" fill="#000000">id </text>
<text text-anchor="start" x="469.7861" y="-400.8" font-family="Arial" font-size="14.00" fill="#666666">[char(36)]</text>
<polygon fill="none" stroke="#000000" points="448,-358 448,-388 635,-388 635,-358 448,-358"/>
<text text-anchor="start" x="455" y="-370.8" font-family="Arial" font-size="14.00" fill="#000000">name </text>
<text text-anchor="start" x="493.9102" y="-370.8" font-family="Arial" font-size="14.00" fill="#666666">[varchar(20)]</text>
<polygon fill="none" stroke="#000000" points="448,-328 448,-358 635,-358 635,-328 448,-328"/>
<text text-anchor="start" x="455" y="-340.8" font-family="Arial" font-size="14.00" fill="#000000">parent_id </text>
<text text-anchor="start" x="517.2686" y="-340.8" font-family="Arial" font-size="14.00" fill="#666666">[char(36)]</text>
<polygon fill="none" stroke="#000000" points="448,-298 448,-328 635,-328 635,-298 448,-298"/>
<text text-anchor="start" x="455" y="-310.8" font-family="Arial" font-size="14.00" fill="#000000">topic </text>
<text text-anchor="start" x="488.4619" y="-310.8" font-family="Arial" font-size="14.00" fill="#666666">[text]</text>
<polygon fill="none" stroke="#000000" points="448,-268 448,-298 635,-298 635,-268 448,-268"/>
<text text-anchor="start" x="455" y="-280.8" font-family="Arial" font-size="14.00" fill="#000000">is_forced </text>
<text text-anchor="start" x="515.6963" y="-280.8" font-family="Arial" font-size="14.00" fill="#666666">[tinyint(1)]</text>
<polygon fill="none" stroke="#000000" points="448,-238 448,-268 635,-268 635,-238 448,-238"/>
<text text-anchor="start" x="455" y="-250.8" font-family="Arial" font-size="14.00" fill="#000000">is_public </text>
<text text-anchor="start" x="513.3652" y="-250.8" font-family="Arial" font-size="14.00" fill="#666666">[tinyint(1)]</text>
<polygon fill="none" stroke="#000000" points="448,-208 448,-238 635,-238 635,-208 448,-208"/>
<text text-anchor="start" x="455" y="-220.8" font-family="Arial" font-size="14.00" fill="#000000">is_visible </text>
<text text-anchor="start" x="515.6895" y="-220.8" font-family="Arial" font-size="14.00" fill="#666666">[tinyint(1)]</text>
<polygon fill="none" stroke="#000000" points="448,-178 448,-208 635,-208 635,-178 448,-178"/>
<text text-anchor="start" x="455" y="-190.8" font-family="Arial" font-size="14.00" fill="#000000">creator_id </text>
<text text-anchor="start" x="521.1445" y="-190.8" font-family="Arial" font-size="14.00" fill="#666666">[char(36)]</text>
<polygon fill="none" stroke="#000000" points="448,-148 448,-178 635,-178 635,-148 448,-148"/>
<text text-anchor="start" x="455" y="-160.8" font-family="Arial" font-size="14.00" fill="#000000">updater_id </text>
<text text-anchor="start" x="525.0547" y="-160.8" font-family="Arial" font-size="14.00" fill="#666666">[char(36)]</text>
<polygon fill="none" stroke="#000000" points="448,-118 448,-148 635,-148 635,-118 448,-118"/>
<text text-anchor="start" x="455" y="-130.8" font-family="Arial" font-size="14.00" fill="#000000">created_at </text>
<text text-anchor="start" x="525.0479" y="-130.8" font-family="Arial" font-size="14.00" fill="#666666">[timestamp(6)]</text>
<polygon fill="none" stroke="#000000" points="448,-88 448,-118 635,-118 635,-88 448,-88"/>
<text text-anchor="start" x="455" y="-100.8" font-family="Arial" font-size="14.00" fill="#000000">updated_at </text>
<text text-anchor="start" x="528.958" y="-100.8" font-family="Arial" font-size="14.00" fill="#666666">[timestamp(6)]</text>
<polygon fill="none" stroke="#000000" points="448,-58 448,-88 635,-88 635,-58 448,-58"/>
<text text-anchor="start" x="455" y="-70.8" font-family="Arial" font-size="14.00" fill="#000000">deleted_at </text>
<text text-anchor="start" x="524.2822" y="-70.8" font-family="Arial" font-size="14.00" fill="#666666">[timestamp(6)]</text>
</g>
<!-- users_private_channels&#45;&gt;channels -->
<g id="edge2" class="edge">
<title>users_private_channels:channel_id&#45;&gt;channels:id</title>
<path fill="none" stroke="#000000" d="M563.9389,-604.4161C577.1051,-595.4788 566.1737,-565.3666 554,-546 526.1772,-501.738 475.8228,-539.262 448,-495 426.2396,-460.3823 407.1111,-403 448,-403"/>
<polygon fill="#000000" stroke="#000000" points="563.6783,-604.4838 552.8677,-602.6448 558.8391,-605.7419 554,-607 554,-607 554,-607 558.8391,-605.7419 555.1323,-611.3552 563.6783,-604.4838 563.6783,-604.4838"/>
<text text-anchor="start" x="561.4355" y="-616.5" font-family="Arial" font-size="10.00" fill="#000000">FOREIGN KEY (channel_id) REFERENCES channels (id)</text>
</g>
</g>
</svg>
