<?xml version="1.0" encoding="UTF-8" standalone="no"?>
<!DOCTYPE svg PUBLIC "-//W3C//DTD SVG 1.1//EN"
 "http://www.w3.org/Graphics/SVG/1.1/DTD/svg11.dtd">
<!-- Generated by graphviz version 2.40.1 (20161225.0304)
 -->
<!-- Title: user_profiles Pages: 1 -->
<svg width="750pt" height="832pt"
     viewBox="0.00 0.00 750.00 832.00" xmlns="http://www.w3.org/2000/svg">
<g id="graph0" class="graph" transform="scale(1 1) rotate(0) translate(4 828)">
<title>user_profiles</title>
<polygon fill="#ffffff" stroke="transparent" points="-4,4 -4,-828 746,-828 746,4 -4,4"/>
<!-- user_profiles -->
<g id="node1" class="node">
<title>user_profiles</title>
<polygon fill="#efefef" stroke="transparent" points="240,-742.5 240,-777.5 454,-777.5 454,-742.5 240,-742.5"/>
<polygon fill="none" stroke="#000000" points="240,-742.5 240,-777.5 454,-777.5 454,-742.5 240,-742.5"/>
<text text-anchor="start" x="246.867" y="-755.3" font-family="Arial Bold" font-size="18.00" fill="#000000">user_profiles</text>
<text text-anchor="start" x="349.8792" y="-755.3" font-family="Arial" font-size="14.00" fill="#000000"> </text>
<text text-anchor="start" x="353.7698" y="-755.3" font-family="Arial" font-size="14.00" fill="#666666">[BASE TABLE]</text>
<polygon fill="none" stroke="#000000" points="240,-712.5 240,-742.5 454,-742.5 454,-712.5 240,-712.5"/>
<text text-anchor="start" x="247" y="-723.9" font-family="Arial" font-size="14.00" fill="#000000">user_id </text>
<text text-anchor="start" x="296.7882" y="-723.9" font-family="Arial" font-size="14.00" fill="#666666">[char(36)]</text>
<polygon fill="none" stroke="#000000" points="240,-682.5 240,-712.5 454,-712.5 454,-682.5 240,-682.5"/>
<text text-anchor="start" x="247" y="-693.9" font-family="Arial" font-size="14.00" fill="#000000">bio </text>
<text text-anchor="start" x="269.5624" y="-693.9" font-family="Arial" font-size="14.00" fill="#666666">[text]</text>
<polygon fill="none" stroke="#000000" points="240,-652.5 240,-682.5 454,-682.5 454,-652.5 240,-652.5"/>
<text text-anchor="start" x="247" y="-663.9" font-family="Arial" font-size="14.00" fill="#000000">twitter_id </text>
<text text-anchor="start" x="306.8906" y="-663.9" font-family="Arial" font-size="14.00" fill="#666666">[varchar(15)]</text>
<polygon fill="none" stroke="#000000" points="240,-622.5 240,-652.5 454,-652.5 454,-622.5 240,-622.5"/>
<text text-anchor="start" x="247" y="-633.9" font-family="Arial" font-size="14.00" fill="#000000">last_online </text>
<text text-anchor="start" x="317.7966" y="-633.9" font-family="Arial" font-size="14.00" fill="#666666">[datetime(6)]</text>
<polygon fill="none" stroke="#000000" points="240,-592.5 240,-622.5 454,-622.5 454,-592.5 240,-592.5"/>
<text text-anchor="start" x="247" y="-603.9" font-family="Arial" font-size="14.00" fill="#000000">home_channel </text>
<text text-anchor="start" x="342.7012" y="-603.9" font-family="Arial" font-size="14.00" fill="#666666">[char(36)]</text>
<polygon fill="none" stroke="#000000" points="240,-562.5 240,-592.5 454,-592.5 454,-562.5 240,-562.5"/>
<text text-anchor="start" x="247" y="-573.9" font-family="Arial" font-size="14.00" fill="#000000">updated_at </text>
<text text-anchor="start" x="320.9326" y="-573.9" font-family="Arial" font-size="14.00" fill="#666666">[datetime(6)]</text>
<polygon fill="none" stroke="#000000" stroke-width="3" points="238.5,-561.5 238.5,-779.5 455.5,-779.5 455.5,-561.5 238.5,-561.5"/>
</g>
<!-- users -->
<g id="node2" class="node">
<title>users</title>
<polygon fill="#efefef" stroke="transparent" points="112,-387.5 112,-422.5 295,-422.5 295,-387.5 112,-387.5"/>
<polygon fill="none" stroke="#000000" points="112,-387.5 112,-422.5 295,-422.5 295,-387.5 112,-387.5"/>
<text text-anchor="start" x="132.8708" y="-400.3" font-family="Arial Bold" font-size="18.00" fill="#000000">users</text>
<text text-anchor="start" x="176.8754" y="-400.3" font-family="Arial" font-size="14.00" fill="#000000"> </text>
<text text-anchor="start" x="180.766" y="-400.3" font-family="Arial" font-size="14.00" fill="#666666">[BASE TABLE]</text>
<polygon fill="none" stroke="#000000" points="112,-357.5 112,-387.5 295,-387.5 295,-357.5 112,-357.5"/>
<text text-anchor="start" x="119" y="-368.9" font-family="Arial" font-size="14.00" fill="#000000">id </text>
<text text-anchor="start" x="133.7798" y="-368.9" font-family="Arial" font-size="14.00" fill="#666666">[char(36)]</text>
<polygon fill="none" stroke="#000000" points="112,-327.5 112,-357.5 295,-357.5 295,-327.5 112,-327.5"/>
<text text-anchor="start" x="119" y="-338.9" font-family="Arial" font-size="14.00" fill="#000000">name </text>
<text text-anchor="start" x="157.899" y="-338.9" font-family="Arial" font-size="14.00" fill="#666666">[varchar(32)]</text>
<polygon fill="none" stroke="#000000" points="112,-297.5 112,-327.5 295,-327.5 295,-297.5 112,-297.5"/>
<text text-anchor="start" x="118.7104" y="-308.9" font-family="Arial" font-size="14.00" fill="#000000">display_name </text>
<text text-anchor="start" x="208.953" y="-308.9" font-family="Arial" font-size="14.00" fill="#666666">[varchar(64)]</text>
<polygon fill="none" stroke="#000000" points="112,-267.5 112,-297.5 295,-297.5 295,-267.5 112,-267.5"/>
<text text-anchor="start" x="119" y="-278.9" font-family="Arial" font-size="14.00" fill="#000000">password </text>
<text text-anchor="start" x="182.7882" y="-278.9" font-family="Arial" font-size="14.00" fill="#666666">[char(128)]</text>
<polygon fill="none" stroke="#000000" points="112,-237.5 112,-267.5 295,-267.5 295,-237.5 112,-237.5"/>
<text text-anchor="start" x="119" y="-248.9" font-family="Arial" font-size="14.00" fill="#000000">salt </text>
<text text-anchor="start" x="144.6704" y="-248.9" font-family="Arial" font-size="14.00" fill="#666666">[char(128)]</text>
<polygon fill="none" stroke="#000000" points="112,-207.5 112,-237.5 295,-237.5 295,-207.5 112,-207.5"/>
<text text-anchor="start" x="119" y="-218.9" font-family="Arial" font-size="14.00" fill="#000000">icon </text>
<text text-anchor="start" x="148.5624" y="-218.9" font-family="Arial" font-size="14.00" fill="#666666">[char(36)]</text>
<polygon fill="none" stroke="#000000" points="112,-177.5 112,-207.5 295,-207.5 295,-177.5 112,-177.5"/>
<text text-anchor="start" x="119" y="-188.9" font-family="Arial" font-size="14.00" fill="#000000">status </text>
<text text-anchor="start" x="160.237" y="-188.9" font-family="Arial" font-size="14.00" fill="#666666">[tinyint(4)]</text>
<polygon fill="none" stroke="#000000" points="112,-147.5 112,-177.5 295,-177.5 295,-147.5 112,-147.5"/>
<text text-anchor="start" x="119" y="-158.9" font-family="Arial" font-size="14.00" fill="#000000">bot </text>
<text text-anchor="start" x="142.3464" y="-158.9" font-family="Arial" font-size="14.00" fill="#666666">[tinyint(1)]</text>
<polygon fill="none" stroke="#000000" points="112,-117.5 112,-147.5 295,-147.5 295,-117.5 112,-117.5"/>
<text text-anchor="start" x="119" y="-128.9" font-family="Arial" font-size="14.00" fill="#000000">role </text>
<text text-anchor="start" x="146.223" y="-128.9" font-family="Arial" font-size="14.00" fill="#666666">[varchar(30)]</text>
<polygon fill="none" stroke="#000000" points="112,-87.5 112,-117.5 295,-117.5 295,-87.5 112,-87.5"/>
<text text-anchor="start" x="119" y="-98.9" font-family="Arial" font-size="14.00" fill="#000000">created_at </text>
<text text-anchor="start" x="189.028" y="-98.9" font-family="Arial" font-size="14.00" fill="#666666">[datetime(6)]</text>
<polygon fill="none" stroke="#000000" points="112,-57.5 112,-87.5 295,-87.5 295,-57.5 112,-57.5"/>
<text text-anchor="start" x="119" y="-68.9" font-family="Arial" font-size="14.00" fill="#000000">updated_at </text>
<text text-anchor="start" x="192.9326" y="-68.9" font-family="Arial" font-size="14.00" fill="#666666">[datetime(6)]</text>
</g>
<!-- user_profiles&#45;&gt;users -->
<g id="edge1" class="edge">
<title>user_profiles:user_id&#45;&gt;users:id</title>
<path fill="none" stroke="#000000" d="M229.7116,-726.9387C150.801,-717.8129 204.0362,-599.3942 240,-517 253.3358,-486.4473 281.6642,-496.5527 295,-466 311.6238,-427.9144 336.5556,-372.5 295,-372.5"/>
<polygon fill="#000000" stroke="#000000" points="230.0149,-726.9551 239.7548,-731.9933 235.0074,-727.2276 240,-727.5 240,-727.5 240,-727.5 235.0074,-727.2276 240.2452,-723.0067 230.0149,-726.9551 230.0149,-726.9551"/>
<text text-anchor="start" x="6.945" y="-737.5" font-family="Arial" font-size="10.00" fill="#000000">FOREIGN KEY (user_id) REFERENCES users (id)</text>
</g>
<!-- channels -->
<g id="node3" class="node">
<title>channels</title>
<polygon fill="#efefef" stroke="transparent" points="399,-402.5 399,-437.5 582,-437.5 582,-402.5 399,-402.5"/>
<polygon fill="none" stroke="#000000" points="399,-402.5 399,-437.5 582,-437.5 582,-402.5 399,-402.5"/>
<text text-anchor="start" x="405.8605" y="-415.3" font-family="Arial Bold" font-size="18.00" fill="#000000">channels</text>
<text text-anchor="start" x="477.8857" y="-415.3" font-family="Arial" font-size="14.00" fill="#000000"> </text>
<text text-anchor="start" x="481.7763" y="-415.3" font-family="Arial" font-size="14.00" fill="#666666">[BASE TABLE]</text>
<polygon fill="none" stroke="#000000" points="399,-372.5 399,-402.5 582,-402.5 582,-372.5 399,-372.5"/>
<text text-anchor="start" x="406" y="-383.9" font-family="Arial" font-size="14.00" fill="#000000">id </text>
<text text-anchor="start" x="420.7798" y="-383.9" font-family="Arial" font-size="14.00" fill="#666666">[char(36)]</text>
<polygon fill="none" stroke="#000000" points="399,-342.5 399,-372.5 582,-372.5 582,-342.5 399,-342.5"/>
<text text-anchor="start" x="406" y="-353.9" font-family="Arial" font-size="14.00" fill="#000000">name </text>
<text text-anchor="start" x="444.899" y="-353.9" font-family="Arial" font-size="14.00" fill="#666666">[varchar(20)]</text>
<polygon fill="none" stroke="#000000" points="399,-312.5 399,-342.5 582,-342.5 582,-312.5 399,-312.5"/>
<text text-anchor="start" x="406" y="-323.9" font-family="Arial" font-size="14.00" fill="#000000">parent_id </text>
<text text-anchor="start" x="468.244" y="-323.9" font-family="Arial" font-size="14.00" fill="#666666">[char(36)]</text>
<polygon fill="none" stroke="#000000" points="399,-282.5 399,-312.5 582,-312.5 582,-282.5 399,-282.5"/>
<text text-anchor="start" x="406" y="-293.9" font-family="Arial" font-size="14.00" fill="#000000">topic </text>
<text text-anchor="start" x="439.453" y="-293.9" font-family="Arial" font-size="14.00" fill="#666666">[text]</text>
<polygon fill="none" stroke="#000000" points="399,-252.5 399,-282.5 582,-282.5 582,-252.5 399,-252.5"/>
<text text-anchor="start" x="406" y="-263.9" font-family="Arial" font-size="14.00" fill="#000000">is_forced </text>
<text text-anchor="start" x="466.6788" y="-263.9" font-family="Arial" font-size="14.00" fill="#666666">[tinyint(1)]</text>
<polygon fill="none" stroke="#000000" points="399,-222.5 399,-252.5 582,-252.5 582,-222.5 399,-222.5"/>
<text text-anchor="start" x="406" y="-233.9" font-family="Arial" font-size="14.00" fill="#000000">is_public </text>
<text text-anchor="start" x="464.3408" y="-233.9" font-family="Arial" font-size="14.00" fill="#666666">[tinyint(1)]</text>
<polygon fill="none" stroke="#000000" points="399,-192.5 399,-222.5 582,-222.5 582,-192.5 399,-192.5"/>
<text text-anchor="start" x="406" y="-203.9" font-family="Arial" font-size="14.00" fill="#000000">is_visible </text>
<text text-anchor="start" x="466.6648" y="-203.9" font-family="Arial" font-size="14.00" fill="#666666">[tinyint(1)]</text>
<polygon fill="none" stroke="#000000" points="399,-162.5 399,-192.5 582,-192.5 582,-162.5 399,-162.5"/>
<text text-anchor="start" x="406" y="-173.9" font-family="Arial" font-size="14.00" fill="#000000">creator_id </text>
<text text-anchor="start" x="472.122" y="-173.9" font-family="Arial" font-size="14.00" fill="#666666">[char(36)]</text>
<polygon fill="none" stroke="#000000" points="399,-132.5 399,-162.5 582,-162.5 582,-132.5 399,-132.5"/>
<text text-anchor="start" x="406" y="-143.9" font-family="Arial" font-size="14.00" fill="#000000">updater_id </text>
<text text-anchor="start" x="476.0266" y="-143.9" font-family="Arial" font-size="14.00" fill="#666666">[char(36)]</text>
<polygon fill="none" stroke="#000000" points="399,-102.5 399,-132.5 582,-132.5 582,-102.5 399,-102.5"/>
<text text-anchor="start" x="406" y="-113.9" font-family="Arial" font-size="14.00" fill="#000000">created_at </text>
<text text-anchor="start" x="476.028" y="-113.9" font-family="Arial" font-size="14.00" fill="#666666">[datetime(6)]</text>
<polygon fill="none" stroke="#000000" points="399,-72.5 399,-102.5 582,-102.5 582,-72.5 399,-72.5"/>
<text text-anchor="start" x="406" y="-83.9" font-family="Arial" font-size="14.00" fill="#000000">updated_at </text>
<text text-anchor="start" x="479.9326" y="-83.9" font-family="Arial" font-size="14.00" fill="#666666">[datetime(6)]</text>
<polygon fill="none" stroke="#000000" points="399,-42.5 399,-72.5 582,-72.5 582,-42.5 399,-42.5"/>
<text text-anchor="start" x="406" y="-53.9" font-family="Arial" font-size="14.00" fill="#000000">deleted_at </text>
<text text-anchor="start" x="475.2566" y="-53.9" font-family="Arial" font-size="14.00" fill="#666666">[datetime(6)]</text>
</g>
<!-- user_profiles&#45;&gt;channels -->
<g id="edge2" class="edge">
<title>user_profiles:home_channel&#45;&gt;channels:id</title>
<path fill="none" stroke="#000000" d="M464.0885,-605.9928C490.1211,-596.9231 471.2606,-548.9272 454,-517 440.106,-491.3 412.894,-506.7 399,-481 379.2373,-444.4446 357.4444,-387.5 399,-387.5"/>
<polygon fill="#000000" stroke="#000000" points="463.8902,-606.0223 453.335,-603.0494 458.9451,-606.7612 454,-607.5 454,-607.5 454,-607.5 458.9451,-606.7612 454.665,-611.9506 463.8902,-606.0223 463.8902,-606.0223"/>
<text text-anchor="start" x="460.764" y="-617.5" font-family="Arial" font-size="10.00" fill="#000000">FOREIGN KEY (home_channel) REFERENCES channels (id)</text>
</g>
</g>
</svg>
