<?xml version="1.0" encoding="UTF-8" standalone="no"?>
<!DOCTYPE svg PUBLIC "-//W3C//DTD SVG 1.1//EN"
 "http://www.w3.org/Graphics/SVG/1.1/DTD/svg11.dtd">
<!-- Generated by graphviz version 2.40.1 (20161225.0304)
 -->
<!-- Title: users_tags Pages: 1 -->
<svg width="676pt" height="832pt"
     viewBox="0.00 0.00 676.00 832.00" xmlns="http://www.w3.org/2000/svg">
<g id="graph0" class="graph" transform="scale(1 1) rotate(0) translate(4 828)">
<title>users_tags</title>
<polygon fill="#ffffff" stroke="transparent" points="-4,4 -4,-828 672,-828 672,4 -4,4"/>
<!-- users_tags -->
<g id="node1" class="node">
<title>users_tags</title>
<polygon fill="#efefef" stroke="transparent" points="240,-742.5 240,-777.5 439,-777.5 439,-742.5 240,-742.5"/>
<polygon fill="none" stroke="#000000" points="240,-742.5 240,-777.5 439,-777.5 439,-742.5 240,-742.5"/>
<text text-anchor="start" x="246.8604" y="-755.3" font-family="Arial Bold" font-size="18.00" fill="#000000">users_tags</text>
<text text-anchor="start" x="334.8858" y="-755.3" font-family="Arial" font-size="14.00" fill="#000000"> </text>
<text text-anchor="start" x="338.7764" y="-755.3" font-family="Arial" font-size="14.00" fill="#666666">[BASE TABLE]</text>
<polygon fill="none" stroke="#000000" points="240,-712.5 240,-742.5 439,-742.5 439,-712.5 240,-712.5"/>
<text text-anchor="start" x="247" y="-723.9" font-family="Arial" font-size="14.00" fill="#000000">user_id </text>
<text text-anchor="start" x="296.7882" y="-723.9" font-family="Arial" font-size="14.00" fill="#666666">[char(36)]</text>
<polygon fill="none" stroke="#000000" points="240,-682.5 240,-712.5 439,-712.5 439,-682.5 240,-682.5"/>
<text text-anchor="start" x="247" y="-693.9" font-family="Arial" font-size="14.00" fill="#000000">tag_id </text>
<text text-anchor="start" x="289.0182" y="-693.9" font-family="Arial" font-size="14.00" fill="#666666">[char(36)]</text>
<polygon fill="none" stroke="#000000" points="240,-652.5 240,-682.5 439,-682.5 439,-652.5 240,-652.5"/>
<text text-anchor="start" x="247" y="-663.9" font-family="Arial" font-size="14.00" fill="#000000">is_locked </text>
<text text-anchor="start" x="309.2342" y="-663.9" font-family="Arial" font-size="14.00" fill="#666666">[tinyint(1)]</text>
<polygon fill="none" stroke="#000000" points="240,-622.5 240,-652.5 439,-652.5 439,-622.5 240,-622.5"/>
<text text-anchor="start" x="247" y="-633.9" font-family="Arial" font-size="14.00" fill="#000000">created_at </text>
<text text-anchor="start" x="317.028" y="-633.9" font-family="Arial" font-size="14.00" fill="#666666">[datetime(6)]</text>
<polygon fill="none" stroke="#000000" points="240,-592.5 240,-622.5 439,-622.5 439,-592.5 240,-592.5"/>
<text text-anchor="start" x="247" y="-603.9" font-family="Arial" font-size="14.00" fill="#000000">updated_at </text>
<text text-anchor="start" x="320.9326" y="-603.9" font-family="Arial" font-size="14.00" fill="#666666">[datetime(6)]</text>
<polygon fill="none" stroke="#000000" stroke-width="3" points="238,-591.5 238,-779.5 440,-779.5 440,-591.5 238,-591.5"/>
</g>
<!-- users -->
<g id="node2" class="node">
<title>users</title>
<polygon fill="#efefef" stroke="transparent" points="109,-432.5 109,-467.5 292,-467.5 292,-432.5 109,-432.5"/>
<polygon fill="none" stroke="#000000" points="109,-432.5 109,-467.5 292,-467.5 292,-432.5 109,-432.5"/>
<text text-anchor="start" x="129.8708" y="-445.3" font-family="Arial Bold" font-size="18.00" fill="#000000">users</text>
<text text-anchor="start" x="173.8754" y="-445.3" font-family="Arial" font-size="14.00" fill="#000000"> </text>
<text text-anchor="start" x="177.766" y="-445.3" font-family="Arial" font-size="14.00" fill="#666666">[BASE TABLE]</text>
<polygon fill="none" stroke="#000000" points="109,-402.5 109,-432.5 292,-432.5 292,-402.5 109,-402.5"/>
<text text-anchor="start" x="116" y="-413.9" font-family="Arial" font-size="14.00" fill="#000000">id </text>
<text text-anchor="start" x="130.7798" y="-413.9" font-family="Arial" font-size="14.00" fill="#666666">[char(36)]</text>
<polygon fill="none" stroke="#000000" points="109,-372.5 109,-402.5 292,-402.5 292,-372.5 109,-372.5"/>
<text text-anchor="start" x="116" y="-383.9" font-family="Arial" font-size="14.00" fill="#000000">name </text>
<text text-anchor="start" x="154.899" y="-383.9" font-family="Arial" font-size="14.00" fill="#666666">[varchar(32)]</text>
<polygon fill="none" stroke="#000000" points="109,-342.5 109,-372.5 292,-372.5 292,-342.5 109,-342.5"/>
<text text-anchor="start" x="115.7104" y="-353.9" font-family="Arial" font-size="14.00" fill="#000000">display_name </text>
<text text-anchor="start" x="205.953" y="-353.9" font-family="Arial" font-size="14.00" fill="#666666">[varchar(64)]</text>
<polygon fill="none" stroke="#000000" points="109,-312.5 109,-342.5 292,-342.5 292,-312.5 109,-312.5"/>
<text text-anchor="start" x="116" y="-323.9" font-family="Arial" font-size="14.00" fill="#000000">password </text>
<text text-anchor="start" x="179.7882" y="-323.9" font-family="Arial" font-size="14.00" fill="#666666">[char(128)]</text>
<polygon fill="none" stroke="#000000" points="109,-282.5 109,-312.5 292,-312.5 292,-282.5 109,-282.5"/>
<text text-anchor="start" x="116" y="-293.9" font-family="Arial" font-size="14.00" fill="#000000">salt </text>
<text text-anchor="start" x="141.6704" y="-293.9" font-family="Arial" font-size="14.00" fill="#666666">[char(128)]</text>
<polygon fill="none" stroke="#000000" points="109,-252.5 109,-282.5 292,-282.5 292,-252.5 109,-252.5"/>
<text text-anchor="start" x="116" y="-263.9" font-family="Arial" font-size="14.00" fill="#000000">icon </text>
<text text-anchor="start" x="145.5624" y="-263.9" font-family="Arial" font-size="14.00" fill="#666666">[char(36)]</text>
<polygon fill="none" stroke="#000000" points="109,-222.5 109,-252.5 292,-252.5 292,-222.5 109,-222.5"/>
<text text-anchor="start" x="116" y="-233.9" font-family="Arial" font-size="14.00" fill="#000000">status </text>
<text text-anchor="start" x="157.237" y="-233.9" font-family="Arial" font-size="14.00" fill="#666666">[tinyint(4)]</text>
<polygon fill="none" stroke="#000000" points="109,-192.5 109,-222.5 292,-222.5 292,-192.5 109,-192.5"/>
<text text-anchor="start" x="116" y="-203.9" font-family="Arial" font-size="14.00" fill="#000000">bot </text>
<text text-anchor="start" x="139.3464" y="-203.9" font-family="Arial" font-size="14.00" fill="#666666">[tinyint(1)]</text>
<polygon fill="none" stroke="#000000" points="109,-162.5 109,-192.5 292,-192.5 292,-162.5 109,-162.5"/>
<text text-anchor="start" x="116" y="-173.9" font-family="Arial" font-size="14.00" fill="#000000">role </text>
<text text-anchor="start" x="143.223" y="-173.9" font-family="Arial" font-size="14.00" fill="#666666">[varchar(30)]</text>
<polygon fill="none" stroke="#000000" points="109,-132.5 109,-162.5 292,-162.5 292,-132.5 109,-132.5"/>
<text text-anchor="start" x="116" y="-143.9" font-family="Arial" font-size="14.00" fill="#000000">twitter_id </text>
<text text-anchor="start" x="175.8906" y="-143.9" font-family="Arial" font-size="14.00" fill="#666666">[varchar(15)]</text>
<polygon fill="none" stroke="#000000" points="109,-102.5 109,-132.5 292,-132.5 292,-102.5 109,-102.5"/>
<text text-anchor="start" x="116" y="-113.9" font-family="Arial" font-size="14.00" fill="#000000">last_online </text>
<text text-anchor="start" x="186.7966" y="-113.9" font-family="Arial" font-size="14.00" fill="#666666">[datetime(6)]</text>
<polygon fill="none" stroke="#000000" points="109,-72.5 109,-102.5 292,-102.5 292,-72.5 109,-72.5"/>
<text text-anchor="start" x="116" y="-83.9" font-family="Arial" font-size="14.00" fill="#000000">created_at </text>
<text text-anchor="start" x="186.028" y="-83.9" font-family="Arial" font-size="14.00" fill="#666666">[datetime(6)]</text>
<polygon fill="none" stroke="#000000" points="109,-42.5 109,-72.5 292,-72.5 292,-42.5 109,-42.5"/>
<text text-anchor="start" x="116" y="-53.9" font-family="Arial" font-size="14.00" fill="#000000">updated_at </text>
<text text-anchor="start" x="189.9326" y="-53.9" font-family="Arial" font-size="14.00" fill="#666666">[datetime(6)]</text>
</g>
<!-- users_tags&#45;&gt;users -->
<g id="edge1" class="edge">
<title>users_tags:user_id&#45;&gt;users:id</title>
<path fill="none" stroke="#000000" d="M229.9894,-727.4502C-139.2071,-723.72 291.7334,-511.5088 292,-511 311.2862,-474.1909 333.5556,-417.5 292,-417.5"/>
<polygon fill="#000000" stroke="#000000" points="230.0001,-727.4502 239.9776,-731.9999 235.0001,-727.4751 240,-727.5 240,-727.5 240,-727.5 235.0001,-727.4751 240.0224,-723.0001 230.0001,-727.4502 230.0001,-727.4502"/>
<text text-anchor="start" x="6.945" y="-737.5" font-family="Arial" font-size="10.00" fill="#000000">FOREIGN KEY (user_id) REFERENCES users (id)</text>
</g>
<!-- tags -->
<g id="node3" class="node">
<title>tags</title>
<polygon fill="#efefef" stroke="transparent" points="396,-297.5 396,-332.5 562,-332.5 562,-297.5 396,-297.5"/>
<polygon fill="none" stroke="#000000" points="396,-297.5 396,-332.5 562,-332.5 562,-297.5 396,-297.5"/>
<text text-anchor="start" x="413.3658" y="-310.3" font-family="Arial Bold" font-size="18.00" fill="#000000">tags</text>
<text text-anchor="start" x="447.3804" y="-310.3" font-family="Arial" font-size="14.00" fill="#000000"> </text>
<text text-anchor="start" x="451.271" y="-310.3" font-family="Arial" font-size="14.00" fill="#666666">[BASE TABLE]</text>
<polygon fill="none" stroke="#000000" points="396,-267.5 396,-297.5 562,-297.5 562,-267.5 396,-267.5"/>
<text text-anchor="start" x="403" y="-278.9" font-family="Arial" font-size="14.00" fill="#000000">id </text>
<text text-anchor="start" x="417.7798" y="-278.9" font-family="Arial" font-size="14.00" fill="#666666">[char(36)]</text>
<polygon fill="none" stroke="#000000" points="396,-237.5 396,-267.5 562,-267.5 562,-237.5 396,-237.5"/>
<text text-anchor="start" x="403" y="-248.9" font-family="Arial" font-size="14.00" fill="#000000">name </text>
<text text-anchor="start" x="441.899" y="-248.9" font-family="Arial" font-size="14.00" fill="#666666">[varchar(30)]</text>
<polygon fill="none" stroke="#000000" points="396,-207.5 396,-237.5 562,-237.5 562,-207.5 396,-207.5"/>
<text text-anchor="start" x="403" y="-218.9" font-family="Arial" font-size="14.00" fill="#000000">created_at </text>
<text text-anchor="start" x="473.028" y="-218.9" font-family="Arial" font-size="14.00" fill="#666666">[datetime(6)]</text>
<polygon fill="none" stroke="#000000" points="396,-177.5 396,-207.5 562,-207.5 562,-177.5 396,-177.5"/>
<text text-anchor="start" x="402.7518" y="-188.9" font-family="Arial" font-size="14.00" fill="#000000">updated_at </text>
<text text-anchor="start" x="476.6844" y="-188.9" font-family="Arial" font-size="14.00" fill="#666666">[datetime(6)]</text>
</g>
<!-- users_tags&#45;&gt;tags -->
<g id="edge2" class="edge">
<title>users_tags:tag_id&#45;&gt;tags:id</title>
<path fill="none" stroke="#000000" d="M449.1882,-697.0313C608.494,-681.4474 214.1898,-282.5 396,-282.5"/>
<polygon fill="#000000" stroke="#000000" points="448.9894,-697.0403 438.7931,-693.0048 443.9947,-697.2702 439,-697.5 439,-697.5 439,-697.5 443.9947,-697.2702 439.2069,-701.9952 448.9894,-697.0403 448.9894,-697.0403"/>
<text text-anchor="start" x="446.495" y="-707.5" font-family="Arial" font-size="10.00" fill="#000000">FOREIGN KEY (tag_id) REFERENCES tags (id)</text>
</g>
</g>
</svg>
