<?xml version="1.0" encoding="UTF-8" standalone="no"?>
<!DOCTYPE svg PUBLIC "-//W3C//DTD SVG 1.1//EN"
 "http://www.w3.org/Graphics/SVG/1.1/DTD/svg11.dtd">
<!-- Generated by graphviz version 2.40.1 (20161225.0304)
 -->
<!-- Title: user_settings Pages: 1 -->
<svg width="512pt" height="682pt"
 viewBox="0.00 0.00 512.00 682.00" xmlns="http://www.w3.org/2000/svg" xmlns:xlink="http://www.w3.org/1999/xlink">
<g id="graph0" class="graph" transform="scale(1 1) rotate(0) translate(4 678)">
<title>user_settings</title>
<polygon fill="#ffffff" stroke="transparent" points="-4,4 -4,-678 508,-678 508,4 -4,4"/>
<!-- user_settings -->
<g id="node1" class="node">
<title>user_settings</title>
<polygon fill="#efefef" stroke="transparent" points="240,-592.5 240,-627.5 458,-627.5 458,-592.5 240,-592.5"/>
<polygon fill="none" stroke="#000000" points="240,-592.5 240,-627.5 458,-627.5 458,-592.5 240,-592.5"/>
<text text-anchor="start" x="246.8591" y="-605.3" font-family="Arial Bold" font-size="18.00" fill="#000000">user_settings</text>
<text text-anchor="start" x="353.8871" y="-605.3" font-family="Arial" font-size="14.00" fill="#000000"> </text>
<text text-anchor="start" x="357.7777" y="-605.3" font-family="Arial" font-size="14.00" fill="#666666">[BASE TABLE]</text>
<polygon fill="none" stroke="#000000" points="240,-562.5 240,-592.5 458,-592.5 458,-562.5 240,-562.5"/>
<text text-anchor="start" x="247" y="-573.9" font-family="Arial" font-size="14.00" fill="#000000">user_id </text>
<text text-anchor="start" x="296.7882" y="-573.9" font-family="Arial" font-size="14.00" fill="#666666">[char(36)]</text>
<polygon fill="none" stroke="#000000" points="240,-532.5 240,-562.5 458,-562.5 458,-532.5 240,-532.5"/>
<text text-anchor="start" x="247" y="-543.9" font-family="Arial" font-size="14.00" fill="#000000">notify_citation </text>
<text text-anchor="start" x="336.4684" y="-543.9" font-family="Arial" font-size="14.00" fill="#666666">[tinyint(1)]</text>
<polygon fill="none" stroke="#000000" stroke-width="3" points="238.5,-531.5 238.5,-629.5 459.5,-629.5 459.5,-531.5 238.5,-531.5"/>
</g>
<!-- users -->
<g id="node2" class="node">
<title>users</title>
<polygon fill="#efefef" stroke="transparent" points="257,-372.5 257,-407.5 440,-407.5 440,-372.5 257,-372.5"/>
<polygon fill="none" stroke="#000000" points="257,-372.5 257,-407.5 440,-407.5 440,-372.5 257,-372.5"/>
<text text-anchor="start" x="277.8708" y="-385.3" font-family="Arial Bold" font-size="18.00" fill="#000000">users</text>
<text text-anchor="start" x="321.8754" y="-385.3" font-family="Arial" font-size="14.00" fill="#000000"> </text>
<text text-anchor="start" x="325.766" y="-385.3" font-family="Arial" font-size="14.00" fill="#666666">[BASE TABLE]</text>
<polygon fill="none" stroke="#000000" points="257,-342.5 257,-372.5 440,-372.5 440,-342.5 257,-342.5"/>
<text text-anchor="start" x="264" y="-353.9" font-family="Arial" font-size="14.00" fill="#000000">id </text>
<text text-anchor="start" x="278.7798" y="-353.9" font-family="Arial" font-size="14.00" fill="#666666">[char(36)]</text>
<polygon fill="none" stroke="#000000" points="257,-312.5 257,-342.5 440,-342.5 440,-312.5 257,-312.5"/>
<text text-anchor="start" x="264" y="-323.9" font-family="Arial" font-size="14.00" fill="#000000">name </text>
<text text-anchor="start" x="302.899" y="-323.9" font-family="Arial" font-size="14.00" fill="#666666">[varchar(32)]</text>
<polygon fill="none" stroke="#000000" points="257,-282.5 257,-312.5 440,-312.5 440,-282.5 257,-282.5"/>
<text text-anchor="start" x="263.7104" y="-293.9" font-family="Arial" font-size="14.00" fill="#000000">display_name </text>
<text text-anchor="start" x="353.953" y="-293.9" font-family="Arial" font-size="14.00" fill="#666666">[varchar(64)]</text>
<polygon fill="none" stroke="#000000" points="257,-252.5 257,-282.5 440,-282.5 440,-252.5 257,-252.5"/>
<text text-anchor="start" x="264" y="-263.9" font-family="Arial" font-size="14.00" fill="#000000">password </text>
<text text-anchor="start" x="327.7882" y="-263.9" font-family="Arial" font-size="14.00" fill="#666666">[char(128)]</text>
<polygon fill="none" stroke="#000000" points="257,-222.5 257,-252.5 440,-252.5 440,-222.5 257,-222.5"/>
<text text-anchor="start" x="264" y="-233.9" font-family="Arial" font-size="14.00" fill="#000000">salt </text>
<text text-anchor="start" x="289.6704" y="-233.9" font-family="Arial" font-size="14.00" fill="#666666">[char(128)]</text>
<polygon fill="none" stroke="#000000" points="257,-192.5 257,-222.5 440,-222.5 440,-192.5 257,-192.5"/>
<text text-anchor="start" x="264" y="-203.9" font-family="Arial" font-size="14.00" fill="#000000">icon </text>
<text text-anchor="start" x="293.5624" y="-203.9" font-family="Arial" font-size="14.00" fill="#666666">[char(36)]</text>
<polygon fill="none" stroke="#000000" points="257,-162.5 257,-192.5 440,-192.5 440,-162.5 257,-162.5"/>
<text text-anchor="start" x="264" y="-173.9" font-family="Arial" font-size="14.00" fill="#000000">status </text>
<text text-anchor="start" x="305.237" y="-173.9" font-family="Arial" font-size="14.00" fill="#666666">[tinyint(4)]</text>
<polygon fill="none" stroke="#000000" points="257,-132.5 257,-162.5 440,-162.5 440,-132.5 257,-132.5"/>
<text text-anchor="start" x="264" y="-143.9" font-family="Arial" font-size="14.00" fill="#000000">bot </text>
<text text-anchor="start" x="287.3464" y="-143.9" font-family="Arial" font-size="14.00" fill="#666666">[tinyint(1)]</text>
<polygon fill="none" stroke="#000000" points="257,-102.5 257,-132.5 440,-132.5 440,-102.5 257,-102.5"/>
<text text-anchor="start" x="264" y="-113.9" font-family="Arial" font-size="14.00" fill="#000000">role </text>
<text text-anchor="start" x="291.223" y="-113.9" font-family="Arial" font-size="14.00" fill="#666666">[varchar(30)]</text>
<polygon fill="none" stroke="#000000" points="257,-72.5 257,-102.5 440,-102.5 440,-72.5 257,-72.5"/>
<text text-anchor="start" x="264" y="-83.9" font-family="Arial" font-size="14.00" fill="#000000">created_at </text>
<text text-anchor="start" x="334.028" y="-83.9" font-family="Arial" font-size="14.00" fill="#666666">[datetime(6)]</text>
<polygon fill="none" stroke="#000000" points="257,-42.5 257,-72.5 440,-72.5 440,-42.5 257,-42.5"/>
<text text-anchor="start" x="264" y="-53.9" font-family="Arial" font-size="14.00" fill="#000000">updated_at </text>
<text text-anchor="start" x="337.9326" y="-53.9" font-family="Arial" font-size="14.00" fill="#666666">[datetime(6)]</text>
</g>
<!-- user_settings&#45;&gt;users -->
<g id="edge1" class="edge">
<title>user_settings:user_id&#45;&gt;users:id</title>
<path fill="none" stroke="#000000" d="M229.604,-576.4501C193.1008,-568.3566 207.2161,-515.4472 231,-487 288.9317,-417.7096 373.0683,-520.2904 431,-451 457.6547,-419.1191 472.5556,-357.5 440,-357.5"/>
<polygon fill="#000000" stroke="#000000" points="230.0506,-576.4951 239.5478,-581.9772 235.0253,-576.9976 240,-577.5 240,-577.5 240,-577.5 235.0253,-576.9976 240.4522,-573.0228 230.0506,-576.4951 230.0506,-576.4951"/>
<text text-anchor="start" x="6.945" y="-587.5" font-family="Arial" font-size="10.00" fill="#000000">FOREIGN KEY (user_id) REFERENCES users (id)</text>
</g>
<!-- user_settings&#45;&gt;users -->
<g id="edge2" class="edge">
<title>user_settings:user_id&#45;&gt;users:id</title>
<path fill="none" stroke="#000000" stroke-dasharray="5,2" d="M229.6962,-574.4043C212.9176,-561.7875 226.7144,-513.6551 249,-487 306.9317,-417.7096 391.0683,-520.2904 449,-451 475.6026,-419.1814 490.4973,-357.7406 440.2955,-357.5007"/>
<polygon fill="#000000" stroke="#000000" points="230.0878,-574.526 238.2991,-581.7941 234.862,-576.0117 239.6362,-577.4973 239.6362,-577.4973 239.6362,-577.4973 234.862,-576.0117 240.9733,-573.2005 230.0878,-574.526 230.0878,-574.526"/>
<text text-anchor="start" x="149.9607" y="-561.4973" font-family="Arial" font-size="10.00" fill="#000000">Additional Relation</text>
</g>
</g>
</svg>
