<?xml version="1.0" encoding="UTF-8" standalone="no"?>
<!DOCTYPE svg PUBLIC "-//W3C//DTD SVG 1.1//EN"
 "http://www.w3.org/Graphics/SVG/1.1/DTD/svg11.dtd">
<!-- Generated by graphviz version 2.40.1 (20161225.0304)
 -->
<!-- Title: users_tags Pages: 1 -->
<svg width="680pt" height="830pt"
 viewBox="0.00 0.00 680.00 830.00" xmlns="http://www.w3.org/2000/svg" xmlns:xlink="http://www.w3.org/1999/xlink">
<g id="graph0" class="graph" transform="scale(1 1) rotate(0) translate(4 826)">
<title>users_tags</title>
<polygon fill="#ffffff" stroke="transparent" points="-4,4 -4,-826 676,-826 676,4 -4,4"/>
<!-- users_tags -->
<g id="node1" class="node">
<title>users_tags</title>
<polygon fill="#efefef" stroke="transparent" points="239,-742 239,-776 444,-776 444,-742 239,-742"/>
<polygon fill="none" stroke="#000000" points="239,-742 239,-776 444,-776 444,-742 239,-742"/>
<text text-anchor="start" x="245.9883" y="-755.6" font-family="Arial Bold" font-size="18.00" fill="#000000">users_tags</text>
<text text-anchor="start" x="341.042" y="-755.6" font-family="Arial" font-size="14.00" fill="#000000"> </text>
<text text-anchor="start" x="344.9316" y="-755.6" font-family="Arial" font-size="14.00" fill="#666666">[BASE TABLE]</text>
<polygon fill="none" stroke="#000000" points="239,-712 239,-742 444,-742 444,-712 239,-712"/>
<text text-anchor="start" x="246" y="-724.8" font-family="Arial" font-size="14.00" fill="#000000">user_id </text>
<text text-anchor="start" x="295.8066" y="-724.8" font-family="Arial" font-size="14.00" fill="#666666">[char(36)]</text>
<polygon fill="none" stroke="#000000" points="239,-682 239,-712 444,-712 444,-682 239,-682"/>
<text text-anchor="start" x="246" y="-694.8" font-family="Arial" font-size="14.00" fill="#000000">tag_id </text>
<text text-anchor="start" x="288.0342" y="-694.8" font-family="Arial" font-size="14.00" fill="#666666">[char(36)]</text>
<polygon fill="none" stroke="#000000" points="239,-652 239,-682 444,-682 444,-652 239,-652"/>
<text text-anchor="start" x="246" y="-664.8" font-family="Arial" font-size="14.00" fill="#000000">is_locked </text>
<text text-anchor="start" x="308.2549" y="-664.8" font-family="Arial" font-size="14.00" fill="#666666">[tinyint(1)]</text>
<polygon fill="none" stroke="#000000" points="239,-622 239,-652 444,-652 444,-622 239,-622"/>
<text text-anchor="start" x="246" y="-634.8" font-family="Arial" font-size="14.00" fill="#000000">created_at </text>
<text text-anchor="start" x="316.0479" y="-634.8" font-family="Arial" font-size="14.00" fill="#666666">[timestamp(6)]</text>
<polygon fill="none" stroke="#000000" points="239,-592 239,-622 444,-622 444,-592 239,-592"/>
<text text-anchor="start" x="246" y="-604.8" font-family="Arial" font-size="14.00" fill="#000000">updated_at </text>
<text text-anchor="start" x="319.958" y="-604.8" font-family="Arial" font-size="14.00" fill="#666666">[timestamp(6)]</text>
<polygon fill="none" stroke="#000000" stroke-width="3" points="237,-590.5 237,-777.5 445,-777.5 445,-590.5 237,-590.5"/>
</g>
<!-- users -->
<g id="node2" class="node">
<title>users</title>
<polygon fill="#efefef" stroke="transparent" points="108,-433 108,-467 291,-467 291,-433 108,-433"/>
<polygon fill="none" stroke="#000000" points="108,-433 108,-467 291,-467 291,-433 108,-433"/>
<text text-anchor="start" x="127.499" y="-446.6" font-family="Arial Bold" font-size="18.00" fill="#000000">users</text>
<text text-anchor="start" x="175.5313" y="-446.6" font-family="Arial" font-size="14.00" fill="#000000"> </text>
<text text-anchor="start" x="179.4209" y="-446.6" font-family="Arial" font-size="14.00" fill="#666666">[BASE TABLE]</text>
<polygon fill="none" stroke="#000000" points="108,-403 108,-433 291,-433 291,-403 108,-403"/>
<text text-anchor="start" x="115" y="-415.8" font-family="Arial" font-size="14.00" fill="#000000">id </text>
<text text-anchor="start" x="129.7861" y="-415.8" font-family="Arial" font-size="14.00" fill="#666666">[char(36)]</text>
<polygon fill="none" stroke="#000000" points="108,-373 108,-403 291,-403 291,-373 108,-373"/>
<text text-anchor="start" x="115" y="-385.8" font-family="Arial" font-size="14.00" fill="#000000">name </text>
<text text-anchor="start" x="153.9102" y="-385.8" font-family="Arial" font-size="14.00" fill="#666666">[varchar(32)]</text>
<polygon fill="none" stroke="#000000" points="108,-343 108,-373 291,-373 291,-343 108,-343"/>
<text text-anchor="start" x="114.6831" y="-355.8" font-family="Arial" font-size="14.00" fill="#000000">display_name </text>
<text text-anchor="start" x="204.9585" y="-355.8" font-family="Arial" font-size="14.00" fill="#666666">[varchar(64)]</text>
<polygon fill="none" stroke="#000000" points="108,-313 108,-343 291,-343 291,-313 108,-313"/>
<text text-anchor="start" x="115" y="-325.8" font-family="Arial" font-size="14.00" fill="#000000">password </text>
<text text-anchor="start" x="178.8066" y="-325.8" font-family="Arial" font-size="14.00" fill="#666666">[char(128)]</text>
<polygon fill="none" stroke="#000000" points="108,-283 108,-313 291,-313 291,-283 108,-283"/>
<text text-anchor="start" x="115" y="-295.8" font-family="Arial" font-size="14.00" fill="#000000">salt </text>
<text text-anchor="start" x="140.6758" y="-295.8" font-family="Arial" font-size="14.00" fill="#666666">[char(128)]</text>
<polygon fill="none" stroke="#000000" points="108,-253 108,-283 291,-283 291,-253 108,-253"/>
<text text-anchor="start" x="115" y="-265.8" font-family="Arial" font-size="14.00" fill="#000000">icon </text>
<text text-anchor="start" x="144.5723" y="-265.8" font-family="Arial" font-size="14.00" fill="#666666">[char(36)]</text>
<polygon fill="none" stroke="#000000" points="108,-223 108,-253 291,-253 291,-223 108,-223"/>
<text text-anchor="start" x="115" y="-235.8" font-family="Arial" font-size="14.00" fill="#000000">status </text>
<text text-anchor="start" x="156.2412" y="-235.8" font-family="Arial" font-size="14.00" fill="#666666">[tinyint(4)]</text>
<polygon fill="none" stroke="#000000" points="108,-193 108,-223 291,-223 291,-193 108,-193"/>
<text text-anchor="start" x="115" y="-205.8" font-family="Arial" font-size="14.00" fill="#000000">bot </text>
<text text-anchor="start" x="138.3516" y="-205.8" font-family="Arial" font-size="14.00" fill="#666666">[tinyint(1)]</text>
<polygon fill="none" stroke="#000000" points="108,-163 108,-193 291,-193 291,-163 108,-163"/>
<text text-anchor="start" x="115" y="-175.8" font-family="Arial" font-size="14.00" fill="#000000">role </text>
<text text-anchor="start" x="142.2344" y="-175.8" font-family="Arial" font-size="14.00" fill="#666666">[varchar(30)]</text>
<polygon fill="none" stroke="#000000" points="108,-133 108,-163 291,-163 291,-133 108,-133"/>
<text text-anchor="start" x="115" y="-145.8" font-family="Arial" font-size="14.00" fill="#000000">twitter_id </text>
<text text-anchor="start" x="174.9102" y="-145.8" font-family="Arial" font-size="14.00" fill="#666666">[varchar(15)]</text>
<polygon fill="none" stroke="#000000" points="108,-103 108,-133 291,-133 291,-103 108,-103"/>
<text text-anchor="start" x="115" y="-115.8" font-family="Arial" font-size="14.00" fill="#000000">last_online </text>
<text text-anchor="start" x="185.8271" y="-115.8" font-family="Arial" font-size="14.00" fill="#666666">[timestamp(6)]</text>
<polygon fill="none" stroke="#000000" points="108,-73 108,-103 291,-103 291,-73 108,-73"/>
<text text-anchor="start" x="115" y="-85.8" font-family="Arial" font-size="14.00" fill="#000000">created_at </text>
<text text-anchor="start" x="185.0479" y="-85.8" font-family="Arial" font-size="14.00" fill="#666666">[timestamp(6)]</text>
<polygon fill="none" stroke="#000000" points="108,-43 108,-73 291,-73 291,-43 108,-43"/>
<text text-anchor="start" x="115" y="-55.8" font-family="Arial" font-size="14.00" fill="#000000">updated_at </text>
<text text-anchor="start" x="188.958" y="-55.8" font-family="Arial" font-size="14.00" fill="#666666">[timestamp(6)]</text>
</g>
<!-- users_tags&#45;&gt;users -->
<g id="edge1" class="edge">
<title>users_tags:user_id&#45;&gt;users:id</title>
<path fill="none" stroke="#000000" d="M228.9541,-726.9501C-141.5459,-723.2086 290.8132,-510.3564 291,-510 309.9768,-473.7815 331.8889,-418 291,-418"/>
<polygon fill="#000000" stroke="#000000" points="229.0001,-726.9502 238.9776,-731.4999 234.0001,-726.9751 239,-727 239,-727 239,-727 234.0001,-726.9751 239.0224,-722.5001 229.0001,-726.9502 229.0001,-726.9502"/>
<text text-anchor="start" x="7.0117" y="-736.5" font-family="Arial" font-size="10.00" fill="#000000">FOREIGN KEY (user_id) REFERENCES users (id)</text>
</g>
<!-- tags -->
<g id="node3" class="node">
<title>tags</title>
<polygon fill="#efefef" stroke="transparent" points="395,-298 395,-332 572,-332 572,-298 395,-298"/>
<polygon fill="none" stroke="#000000" points="395,-298 395,-332 572,-332 572,-298 395,-298"/>
<text text-anchor="start" x="417.0098" y="-311.6" font-family="Arial Bold" font-size="18.00" fill="#000000">tags</text>
<text text-anchor="start" x="454.0205" y="-311.6" font-family="Arial" font-size="14.00" fill="#000000"> </text>
<text text-anchor="start" x="457.9102" y="-311.6" font-family="Arial" font-size="14.00" fill="#666666">[BASE TABLE]</text>
<polygon fill="none" stroke="#000000" points="395,-268 395,-298 572,-298 572,-268 395,-268"/>
<text text-anchor="start" x="402" y="-280.8" font-family="Arial" font-size="14.00" fill="#000000">id </text>
<text text-anchor="start" x="416.7861" y="-280.8" font-family="Arial" font-size="14.00" fill="#666666">[char(36)]</text>
<polygon fill="none" stroke="#000000" points="395,-238 395,-268 572,-268 572,-238 395,-238"/>
<text text-anchor="start" x="402" y="-250.8" font-family="Arial" font-size="14.00" fill="#000000">name </text>
<text text-anchor="start" x="440.9102" y="-250.8" font-family="Arial" font-size="14.00" fill="#666666">[varchar(30)]</text>
<polygon fill="none" stroke="#000000" points="395,-208 395,-238 572,-238 572,-208 395,-208"/>
<text text-anchor="start" x="402" y="-220.8" font-family="Arial" font-size="14.00" fill="#000000">created_at </text>
<text text-anchor="start" x="472.0479" y="-220.8" font-family="Arial" font-size="14.00" fill="#666666">[timestamp(6)]</text>
<polygon fill="none" stroke="#000000" points="395,-178 395,-208 572,-208 572,-178 395,-178"/>
<text text-anchor="start" x="401.79" y="-190.8" font-family="Arial" font-size="14.00" fill="#000000">updated_at </text>
<text text-anchor="start" x="475.748" y="-190.8" font-family="Arial" font-size="14.00" fill="#666666">[timestamp(6)]</text>
</g>
<!-- users_tags&#45;&gt;tags -->
<g id="edge2" class="edge">
<title>users_tags:tag_id&#45;&gt;tags:id</title>
<path fill="none" stroke="#000000" d="M454.1733,-696.5324C613.1256,-680.9861 213.3345,-283 395,-283"/>
<polygon fill="#000000" stroke="#000000" points="453.9895,-696.5407 443.7933,-692.5047 448.9947,-696.7704 444,-697 444,-697 444,-697 448.9947,-696.7704 444.2067,-701.4953 453.9895,-696.5407 453.9895,-696.5407"/>
<text text-anchor="start" x="450.5635" y="-706.5" font-family="Arial" font-size="10.00" fill="#000000">FOREIGN KEY (tag_id) REFERENCES tags (id)</text>
</g>
</g>
</svg>
