<?xml version="1.0" encoding="UTF-8" standalone="no"?>
<!DOCTYPE svg PUBLIC "-//W3C//DTD SVG 1.1//EN"
 "http://www.w3.org/Graphics/SVG/1.1/DTD/svg11.dtd">
<!-- Generated by graphviz version 2.40.1 (20161225.0304)
 -->
<!-- Title: user_role_permissions Pages: 1 -->
<svg width="609pt" height="442pt"
     viewBox="0.00 0.00 609.00 442.00" xmlns="http://www.w3.org/2000/svg">
<g id="graph0" class="graph" transform="scale(1 1) rotate(0) translate(4 438)">
<title>user_role_permissions</title>
<polygon fill="#ffffff" stroke="transparent" points="-4,4 -4,-438 605,-438 605,4 -4,4"/>
<!-- user_role_permissions -->
<g id="node1" class="node">
<title>user_role_permissions</title>
<polygon fill="#efefef" stroke="transparent" points="263,-352.5 263,-387.5 555,-387.5 555,-352.5 263,-352.5"/>
<polygon fill="none" stroke="#000000" points="263,-352.5 263,-387.5 555,-387.5 555,-352.5 263,-352.5"/>
<text text-anchor="start" x="269.8664" y="-365.3" font-family="Arial Bold" font-size="18.00" fill="#000000">user_role_permissions</text>
<text text-anchor="start" x="450.8798" y="-365.3" font-family="Arial" font-size="14.00" fill="#000000"> </text>
<text text-anchor="start" x="454.7704" y="-365.3" font-family="Arial" font-size="14.00" fill="#666666">[BASE TABLE]</text>
<polygon fill="none" stroke="#000000" points="263,-322.5 263,-352.5 555,-352.5 555,-322.5 263,-322.5"/>
<text text-anchor="start" x="270" y="-333.9" font-family="Arial" font-size="14.00" fill="#000000">role </text>
<text text-anchor="start" x="297.223" y="-333.9" font-family="Arial" font-size="14.00" fill="#666666">[varchar(30)]</text>
<polygon fill="none" stroke="#000000" points="263,-292.5 263,-322.5 555,-322.5 555,-292.5 263,-292.5"/>
<text text-anchor="start" x="270" y="-303.9" font-family="Arial" font-size="14.00" fill="#000000">permission </text>
<text text-anchor="start" x="341.5554" y="-303.9" font-family="Arial" font-size="14.00" fill="#666666">[varchar(30)]</text>
<polygon fill="none" stroke="#000000" stroke-width="3" points="261.5,-291.5 261.5,-389.5 556.5,-389.5 556.5,-291.5 261.5,-291.5"/>
</g>
<!-- user_roles -->
<g id="node2" class="node">
<title>user_roles</title>
<polygon fill="#efefef" stroke="transparent" points="311,-132.5 311,-167.5 506,-167.5 506,-132.5 311,-132.5"/>
<polygon fill="none" stroke="#000000" points="311,-132.5 311,-167.5 506,-167.5 506,-132.5 311,-132.5"/>
<text text-anchor="start" x="317.8683" y="-145.3" font-family="Arial Bold" font-size="18.00" fill="#000000">user_roles</text>
<text text-anchor="start" x="401.8779" y="-145.3" font-family="Arial" font-size="14.00" fill="#000000"> </text>
<text text-anchor="start" x="405.7685" y="-145.3" font-family="Arial" font-size="14.00" fill="#666666">[BASE TABLE]</text>
<polygon fill="none" stroke="#000000" points="311,-102.5 311,-132.5 506,-132.5 506,-102.5 311,-102.5"/>
<text text-anchor="start" x="318" y="-113.9" font-family="Arial" font-size="14.00" fill="#000000">name </text>
<text text-anchor="start" x="356.899" y="-113.9" font-family="Arial" font-size="14.00" fill="#666666">[varchar(30)]</text>
<polygon fill="none" stroke="#000000" points="311,-72.5 311,-102.5 506,-102.5 506,-72.5 311,-72.5"/>
<text text-anchor="start" x="318" y="-83.9" font-family="Arial" font-size="14.00" fill="#000000">oauth2_scope </text>
<text text-anchor="start" x="409.8246" y="-83.9" font-family="Arial" font-size="14.00" fill="#666666">[tinyint(1)]</text>
<polygon fill="none" stroke="#000000" points="311,-42.5 311,-72.5 506,-72.5 506,-42.5 311,-42.5"/>
<text text-anchor="start" x="318" y="-53.9" font-family="Arial" font-size="14.00" fill="#000000">system </text>
<text text-anchor="start" x="366.2244" y="-53.9" font-family="Arial" font-size="14.00" fill="#666666">[tinyint(1)]</text>
</g>
<!-- user_role_permissions&#45;&gt;user_roles -->
<g id="edge1" class="edge">
<title>user_role_permissions:role&#45;&gt;user_roles:name</title>
<path fill="none" stroke="#000000" d="M253.0813,-335.9906C225.5013,-326.5015 239.1884,-274.5991 263,-247 334.3202,-164.3354 434.6798,-293.6646 506,-211 533.1459,-179.5363 547.5556,-117.5 506,-117.5"/>
<polygon fill="#000000" stroke="#000000" points="253.1138,-335.9955 262.323,-341.9488 258.0569,-336.7477 263,-337.5 263,-337.5 263,-337.5 258.0569,-336.7477 263.677,-333.0512 253.1138,-335.9955 253.1138,-335.9955"/>
<text text-anchor="start" x="7.2775" y="-347.5" font-family="Arial" font-size="10.00" fill="#000000">FOREIGN KEY (role) REFERENCES user_roles (name)</text>
</g>
</g>
</svg>
