<?xml version="1.0" encoding="UTF-8" standalone="no"?>
<!DOCTYPE svg PUBLIC "-//W3C//DTD SVG 1.1//EN"
 "http://www.w3.org/Graphics/SVG/1.1/DTD/svg11.dtd">
<!-- Generated by graphviz version 2.40.1 (20161225.0304)
 -->
<!-- Title: user_group_admins Pages: 1 -->
<svg width="601pt" height="532pt"
 viewBox="0.00 0.00 601.00 532.00" xmlns="http://www.w3.org/2000/svg" xmlns:xlink="http://www.w3.org/1999/xlink">
<g id="graph0" class="graph" transform="scale(1 1) rotate(0) translate(4 528)">
<title>user_group_admins</title>
<polygon fill="#ffffff" stroke="transparent" points="-4,4 -4,-528 597,-528 597,4 -4,4"/>
<!-- user_group_admins -->
<g id="node1" class="node">
<title>user_group_admins</title>
<polygon fill="#efefef" stroke="transparent" points="277,-442.5 277,-477.5 547,-477.5 547,-442.5 277,-442.5"/>
<polygon fill="none" stroke="#000000" points="277,-442.5 277,-477.5 547,-477.5 547,-442.5 277,-442.5"/>
<text text-anchor="start" x="283.8536" y="-455.3" font-family="Arial Bold" font-size="18.00" fill="#000000">user_group_admins</text>
<text text-anchor="start" x="442.8926" y="-455.3" font-family="Arial" font-size="14.00" fill="#000000"> </text>
<text text-anchor="start" x="446.7832" y="-455.3" font-family="Arial" font-size="14.00" fill="#666666">[BASE TABLE]</text>
<polygon fill="none" stroke="#000000" points="277,-412.5 277,-442.5 547,-442.5 547,-412.5 277,-412.5"/>
<text text-anchor="start" x="284" y="-423.9" font-family="Arial" font-size="14.00" fill="#000000">group_id </text>
<text text-anchor="start" x="342.3534" y="-423.9" font-family="Arial" font-size="14.00" fill="#666666">[char(36)]</text>
<polygon fill="none" stroke="#000000" points="277,-382.5 277,-412.5 547,-412.5 547,-382.5 277,-382.5"/>
<text text-anchor="start" x="284" y="-393.9" font-family="Arial" font-size="14.00" fill="#000000">user_id </text>
<text text-anchor="start" x="333.7882" y="-393.9" font-family="Arial" font-size="14.00" fill="#666666">[char(36)]</text>
<polygon fill="none" stroke="#000000" stroke-width="3" points="275.5,-381.5 275.5,-479.5 548.5,-479.5 548.5,-381.5 275.5,-381.5"/>
</g>
<!-- user_groups -->
<g id="node2" class="node">
<title>user_groups</title>
<polygon fill="#efefef" stroke="transparent" points="306,-222.5 306,-257.5 517,-257.5 517,-222.5 306,-222.5"/>
<polygon fill="none" stroke="#000000" points="306,-222.5 306,-257.5 517,-257.5 517,-222.5 306,-222.5"/>
<text text-anchor="start" x="312.8592" y="-235.3" font-family="Arial Bold" font-size="18.00" fill="#000000">user_groups</text>
<text text-anchor="start" x="412.887" y="-235.3" font-family="Arial" font-size="14.00" fill="#000000"> </text>
<text text-anchor="start" x="416.7776" y="-235.3" font-family="Arial" font-size="14.00" fill="#666666">[BASE TABLE]</text>
<polygon fill="none" stroke="#000000" points="306,-192.5 306,-222.5 517,-222.5 517,-192.5 306,-192.5"/>
<text text-anchor="start" x="313" y="-203.9" font-family="Arial" font-size="14.00" fill="#000000">id </text>
<text text-anchor="start" x="327.7798" y="-203.9" font-family="Arial" font-size="14.00" fill="#666666">[char(36)]</text>
<polygon fill="none" stroke="#000000" points="306,-162.5 306,-192.5 517,-192.5 517,-162.5 306,-162.5"/>
<text text-anchor="start" x="313" y="-173.9" font-family="Arial" font-size="14.00" fill="#000000">name </text>
<text text-anchor="start" x="351.899" y="-173.9" font-family="Arial" font-size="14.00" fill="#666666">[varchar(30)]</text>
<polygon fill="none" stroke="#000000" points="306,-132.5 306,-162.5 517,-162.5 517,-132.5 306,-132.5"/>
<text text-anchor="start" x="313" y="-143.9" font-family="Arial" font-size="14.00" fill="#000000">description </text>
<text text-anchor="start" x="384.568" y="-143.9" font-family="Arial" font-size="14.00" fill="#666666">[text]</text>
<polygon fill="none" stroke="#000000" points="306,-102.5 306,-132.5 517,-132.5 517,-102.5 306,-102.5"/>
<text text-anchor="start" x="313" y="-113.9" font-family="Arial" font-size="14.00" fill="#000000">type </text>
<text text-anchor="start" x="343.3464" y="-113.9" font-family="Arial" font-size="14.00" fill="#666666">[varchar(30)]</text>
<polygon fill="none" stroke="#000000" points="306,-72.5 306,-102.5 517,-102.5 517,-72.5 306,-72.5"/>
<text text-anchor="start" x="313" y="-83.9" font-family="Arial" font-size="14.00" fill="#000000">created_at </text>
<text text-anchor="start" x="383.028" y="-83.9" font-family="Arial" font-size="14.00" fill="#666666">[datetime(6)]</text>
<polygon fill="none" stroke="#000000" points="306,-42.5 306,-72.5 517,-72.5 517,-42.5 306,-42.5"/>
<text text-anchor="start" x="313" y="-53.9" font-family="Arial" font-size="14.00" fill="#000000">updated_at </text>
<text text-anchor="start" x="386.9326" y="-53.9" font-family="Arial" font-size="14.00" fill="#666666">[datetime(6)]</text>
</g>
<!-- user_group_admins&#45;&gt;user_groups -->
<g id="edge1" class="edge">
<title>user_group_admins:group_id&#45;&gt;user_groups:id</title>
<path fill="none" stroke="#000000" d="M267.082,-425.9912C239.5059,-416.5055 253.2134,-364.6207 277,-337 347.3847,-255.2701 446.6153,-382.7299 517,-301 544.1173,-269.5117 558.5556,-207.5 517,-207.5"/>
<polygon fill="#000000" stroke="#000000" points="267.1137,-425.9959 276.3232,-431.9488 272.0569,-426.748 277,-427.5 277,-427.5 277,-427.5 272.0569,-426.748 277.6768,-423.0512 267.1137,-425.9959 267.1137,-425.9959"/>
<text text-anchor="start" x="7.324" y="-437.5" font-family="Arial" font-size="10.00" fill="#000000">FOREIGN KEY (group_id) REFERENCES user_groups (id)</text>
</g>
</g>
</svg>
