<?xml version="1.0" encoding="UTF-8" standalone="no"?>
<!DOCTYPE svg PUBLIC "-//W3C//DTD SVG 1.1//EN"
 "http://www.w3.org/Graphics/SVG/1.1/DTD/svg11.dtd">
<!-- Generated by graphviz version 2.40.1 (20161225.0304)
 -->
<!-- Title: user_groups Pages: 1 -->
<svg width="318pt" height="344pt"
 viewBox="0.00 0.00 318.00 344.00" xmlns="http://www.w3.org/2000/svg" xmlns:xlink="http://www.w3.org/1999/xlink">
<g id="graph0" class="graph" transform="scale(1 1) rotate(0) translate(4 340)">
<title>user_groups</title>
<polygon fill="#ffffff" stroke="transparent" points="-4,4 -4,-340 314,-340 314,4 -4,4"/>
<!-- user_groups -->
<g id="node1" class="node">
<title>user_groups</title>
<polygon fill="#efefef" stroke="transparent" points="46,-256 46,-290 264,-290 264,-256 46,-256"/>
<polygon fill="none" stroke="#000000" points="46,-256 46,-290 264,-290 264,-256 46,-256"/>
<text text-anchor="start" x="52.501" y="-269.6" font-family="Arial Bold" font-size="18.00" fill="#000000">user_groups</text>
<text text-anchor="start" x="161.5293" y="-269.6" font-family="Arial" font-size="14.00" fill="#000000"> </text>
<text text-anchor="start" x="165.4189" y="-269.6" font-family="Arial" font-size="14.00" fill="#666666">[BASE TABLE]</text>
<polygon fill="none" stroke="#000000" points="46,-226 46,-256 264,-256 264,-226 46,-226"/>
<text text-anchor="start" x="53" y="-238.8" font-family="Arial" font-size="14.00" fill="#000000">id </text>
<text text-anchor="start" x="67.7861" y="-238.8" font-family="Arial" font-size="14.00" fill="#666666">[char(36)]</text>
<polygon fill="none" stroke="#000000" points="46,-196 46,-226 264,-226 264,-196 46,-196"/>
<text text-anchor="start" x="53" y="-208.8" font-family="Arial" font-size="14.00" fill="#000000">name </text>
<text text-anchor="start" x="91.9102" y="-208.8" font-family="Arial" font-size="14.00" fill="#666666">[varchar(30)]</text>
<polygon fill="none" stroke="#000000" points="46,-166 46,-196 264,-196 264,-166 46,-166"/>
<text text-anchor="start" x="53" y="-178.8" font-family="Arial" font-size="14.00" fill="#000000">description </text>
<text text-anchor="start" x="124.5928" y="-178.8" font-family="Arial" font-size="14.00" fill="#666666">[text]</text>
<polygon fill="none" stroke="#000000" points="46,-136 46,-166 264,-166 264,-136 46,-136"/>
<text text-anchor="start" x="53" y="-148.8" font-family="Arial" font-size="14.00" fill="#000000">type </text>
<text text-anchor="start" x="83.3516" y="-148.8" font-family="Arial" font-size="14.00" fill="#666666">[varchar(30)]</text>
<polygon fill="none" stroke="#000000" points="46,-106 46,-136 264,-136 264,-106 46,-106"/>
<text text-anchor="start" x="53" y="-118.8" font-family="Arial" font-size="14.00" fill="#000000">admin_user_id </text>
<text text-anchor="start" x="148.7236" y="-118.8" font-family="Arial" font-size="14.00" fill="#666666">[char(36)]</text>
<polygon fill="none" stroke="#000000" points="46,-76 46,-106 264,-106 264,-76 46,-76"/>
<text text-anchor="start" x="53" y="-88.8" font-family="Arial" font-size="14.00" fill="#000000">created_at </text>
<text text-anchor="start" x="123.0479" y="-88.8" font-family="Arial" font-size="14.00" fill="#666666">[timestamp(6)]</text>
<polygon fill="none" stroke="#000000" points="46,-46 46,-76 264,-76 264,-46 46,-46"/>
<text text-anchor="start" x="53" y="-58.8" font-family="Arial" font-size="14.00" fill="#000000">updated_at </text>
<text text-anchor="start" x="126.958" y="-58.8" font-family="Arial" font-size="14.00" fill="#666666">[timestamp(6)]</text>
<polygon fill="none" stroke="#000000" stroke-width="3" points="44.5,-44.5 44.5,-291.5 265.5,-291.5 265.5,-44.5 44.5,-44.5"/>
</g>
</g>
</svg>
