<?xml version="1.0" encoding="UTF-8" standalone="no"?>
<!DOCTYPE svg PUBLIC "-//W3C//DTD SVG 1.1//EN"
 "http://www.w3.org/Graphics/SVG/1.1/DTD/svg11.dtd">
<!-- Generated by graphviz version 2.40.1 (20161225.0304)
 -->
<!-- Title: users_tags Pages: 1 -->
<svg width="676pt" height="772pt"
     viewBox="0.00 0.00 676.00 772.00" xmlns="http://www.w3.org/2000/svg">
<g id="graph0" class="graph" transform="scale(1 1) rotate(0) translate(4 768)">
<title>users_tags</title>
<polygon fill="#ffffff" stroke="transparent" points="-4,4 -4,-768 672,-768 672,4 -4,4"/>
<!-- users_tags -->
<g id="node1" class="node">
<title>users_tags</title>
<polygon fill="#efefef" stroke="transparent" points="240,-682.5 240,-717.5 439,-717.5 439,-682.5 240,-682.5"/>
<polygon fill="none" stroke="#000000" points="240,-682.5 240,-717.5 439,-717.5 439,-682.5 240,-682.5"/>
<text text-anchor="start" x="246.8604" y="-695.3" font-family="Arial Bold" font-size="18.00" fill="#000000">users_tags</text>
<text text-anchor="start" x="334.8858" y="-695.3" font-family="Arial" font-size="14.00" fill="#000000"> </text>
<text text-anchor="start" x="338.7764" y="-695.3" font-family="Arial" font-size="14.00" fill="#666666">[BASE TABLE]</text>
<polygon fill="none" stroke="#000000" points="240,-652.5 240,-682.5 439,-682.5 439,-652.5 240,-652.5"/>
<text text-anchor="start" x="247" y="-663.9" font-family="Arial" font-size="14.00" fill="#000000">user_id </text>
<text text-anchor="start" x="296.7882" y="-663.9" font-family="Arial" font-size="14.00" fill="#666666">[char(36)]</text>
<polygon fill="none" stroke="#000000" points="240,-622.5 240,-652.5 439,-652.5 439,-622.5 240,-622.5"/>
<text text-anchor="start" x="247" y="-633.9" font-family="Arial" font-size="14.00" fill="#000000">tag_id </text>
<text text-anchor="start" x="289.0182" y="-633.9" font-family="Arial" font-size="14.00" fill="#666666">[char(36)]</text>
<polygon fill="none" stroke="#000000" points="240,-592.5 240,-622.5 439,-622.5 439,-592.5 240,-592.5"/>
<text text-anchor="start" x="247" y="-603.9" font-family="Arial" font-size="14.00" fill="#000000">is_locked </text>
<text text-anchor="start" x="309.2342" y="-603.9" font-family="Arial" font-size="14.00" fill="#666666">[tinyint(1)]</text>
<polygon fill="none" stroke="#000000" points="240,-562.5 240,-592.5 439,-592.5 439,-562.5 240,-562.5"/>
<text text-anchor="start" x="247" y="-573.9" font-family="Arial" font-size="14.00" fill="#000000">created_at </text>
<text text-anchor="start" x="317.028" y="-573.9" font-family="Arial" font-size="14.00" fill="#666666">[datetime(6)]</text>
<polygon fill="none" stroke="#000000" points="240,-532.5 240,-562.5 439,-562.5 439,-532.5 240,-532.5"/>
<text text-anchor="start" x="247" y="-543.9" font-family="Arial" font-size="14.00" fill="#000000">updated_at </text>
<text text-anchor="start" x="320.9326" y="-543.9" font-family="Arial" font-size="14.00" fill="#666666">[datetime(6)]</text>
<polygon fill="none" stroke="#000000" stroke-width="3" points="238,-531.5 238,-719.5 440,-719.5 440,-531.5 238,-531.5"/>
</g>
<!-- users -->
<g id="node2" class="node">
<title>users</title>
<polygon fill="#efefef" stroke="transparent" points="109,-372.5 109,-407.5 292,-407.5 292,-372.5 109,-372.5"/>
<polygon fill="none" stroke="#000000" points="109,-372.5 109,-407.5 292,-407.5 292,-372.5 109,-372.5"/>
<text text-anchor="start" x="129.8708" y="-385.3" font-family="Arial Bold" font-size="18.00" fill="#000000">users</text>
<text text-anchor="start" x="173.8754" y="-385.3" font-family="Arial" font-size="14.00" fill="#000000"> </text>
<text text-anchor="start" x="177.766" y="-385.3" font-family="Arial" font-size="14.00" fill="#666666">[BASE TABLE]</text>
<polygon fill="none" stroke="#000000" points="109,-342.5 109,-372.5 292,-372.5 292,-342.5 109,-342.5"/>
<text text-anchor="start" x="116" y="-353.9" font-family="Arial" font-size="14.00" fill="#000000">id </text>
<text text-anchor="start" x="130.7798" y="-353.9" font-family="Arial" font-size="14.00" fill="#666666">[char(36)]</text>
<polygon fill="none" stroke="#000000" points="109,-312.5 109,-342.5 292,-342.5 292,-312.5 109,-312.5"/>
<text text-anchor="start" x="116" y="-323.9" font-family="Arial" font-size="14.00" fill="#000000">name </text>
<text text-anchor="start" x="154.899" y="-323.9" font-family="Arial" font-size="14.00" fill="#666666">[varchar(32)]</text>
<polygon fill="none" stroke="#000000" points="109,-282.5 109,-312.5 292,-312.5 292,-282.5 109,-282.5"/>
<text text-anchor="start" x="115.7104" y="-293.9" font-family="Arial" font-size="14.00" fill="#000000">display_name </text>
<text text-anchor="start" x="205.953" y="-293.9" font-family="Arial" font-size="14.00" fill="#666666">[varchar(64)]</text>
<polygon fill="none" stroke="#000000" points="109,-252.5 109,-282.5 292,-282.5 292,-252.5 109,-252.5"/>
<text text-anchor="start" x="116" y="-263.9" font-family="Arial" font-size="14.00" fill="#000000">password </text>
<text text-anchor="start" x="179.7882" y="-263.9" font-family="Arial" font-size="14.00" fill="#666666">[char(128)]</text>
<polygon fill="none" stroke="#000000" points="109,-222.5 109,-252.5 292,-252.5 292,-222.5 109,-222.5"/>
<text text-anchor="start" x="116" y="-233.9" font-family="Arial" font-size="14.00" fill="#000000">salt </text>
<text text-anchor="start" x="141.6704" y="-233.9" font-family="Arial" font-size="14.00" fill="#666666">[char(128)]</text>
<polygon fill="none" stroke="#000000" points="109,-192.5 109,-222.5 292,-222.5 292,-192.5 109,-192.5"/>
<text text-anchor="start" x="116" y="-203.9" font-family="Arial" font-size="14.00" fill="#000000">icon </text>
<text text-anchor="start" x="145.5624" y="-203.9" font-family="Arial" font-size="14.00" fill="#666666">[char(36)]</text>
<polygon fill="none" stroke="#000000" points="109,-162.5 109,-192.5 292,-192.5 292,-162.5 109,-162.5"/>
<text text-anchor="start" x="116" y="-173.9" font-family="Arial" font-size="14.00" fill="#000000">status </text>
<text text-anchor="start" x="157.237" y="-173.9" font-family="Arial" font-size="14.00" fill="#666666">[tinyint(4)]</text>
<polygon fill="none" stroke="#000000" points="109,-132.5 109,-162.5 292,-162.5 292,-132.5 109,-132.5"/>
<text text-anchor="start" x="116" y="-143.9" font-family="Arial" font-size="14.00" fill="#000000">bot </text>
<text text-anchor="start" x="139.3464" y="-143.9" font-family="Arial" font-size="14.00" fill="#666666">[tinyint(1)]</text>
<polygon fill="none" stroke="#000000" points="109,-102.5 109,-132.5 292,-132.5 292,-102.5 109,-102.5"/>
<text text-anchor="start" x="116" y="-113.9" font-family="Arial" font-size="14.00" fill="#000000">role </text>
<text text-anchor="start" x="143.223" y="-113.9" font-family="Arial" font-size="14.00" fill="#666666">[varchar(30)]</text>
<polygon fill="none" stroke="#000000" points="109,-72.5 109,-102.5 292,-102.5 292,-72.5 109,-72.5"/>
<text text-anchor="start" x="116" y="-83.9" font-family="Arial" font-size="14.00" fill="#000000">created_at </text>
<text text-anchor="start" x="186.028" y="-83.9" font-family="Arial" font-size="14.00" fill="#666666">[datetime(6)]</text>
<polygon fill="none" stroke="#000000" points="109,-42.5 109,-72.5 292,-72.5 292,-42.5 109,-42.5"/>
<text text-anchor="start" x="116" y="-53.9" font-family="Arial" font-size="14.00" fill="#000000">updated_at </text>
<text text-anchor="start" x="189.9326" y="-53.9" font-family="Arial" font-size="14.00" fill="#666666">[datetime(6)]</text>
</g>
<!-- users_tags&#45;&gt;users -->
<g id="edge1" class="edge">
<title>users_tags:user_id&#45;&gt;users:id</title>
<path fill="none" stroke="#000000" d="M229.9894,-667.4502C-139.2071,-663.72 291.7334,-451.5088 292,-451 311.2862,-414.1909 333.5556,-357.5 292,-357.5"/>
<polygon fill="#000000" stroke="#000000" points="230.0001,-667.4502 239.9776,-671.9999 235.0001,-667.4751 240,-667.5 240,-667.5 240,-667.5 235.0001,-667.4751 240.0224,-663.0001 230.0001,-667.4502 230.0001,-667.4502"/>
<text text-anchor="start" x="6.945" y="-677.5" font-family="Arial" font-size="10.00" fill="#000000">FOREIGN KEY (user_id) REFERENCES users (id)</text>
</g>
<!-- tags -->
<g id="node3" class="node">
<title>tags</title>
<polygon fill="#efefef" stroke="transparent" points="396,-267.5 396,-302.5 562,-302.5 562,-267.5 396,-267.5"/>
<polygon fill="none" stroke="#000000" points="396,-267.5 396,-302.5 562,-302.5 562,-267.5 396,-267.5"/>
<text text-anchor="start" x="413.3658" y="-280.3" font-family="Arial Bold" font-size="18.00" fill="#000000">tags</text>
<text text-anchor="start" x="447.3804" y="-280.3" font-family="Arial" font-size="14.00" fill="#000000"> </text>
<text text-anchor="start" x="451.271" y="-280.3" font-family="Arial" font-size="14.00" fill="#666666">[BASE TABLE]</text>
<polygon fill="none" stroke="#000000" points="396,-237.5 396,-267.5 562,-267.5 562,-237.5 396,-237.5"/>
<text text-anchor="start" x="403" y="-248.9" font-family="Arial" font-size="14.00" fill="#000000">id </text>
<text text-anchor="start" x="417.7798" y="-248.9" font-family="Arial" font-size="14.00" fill="#666666">[char(36)]</text>
<polygon fill="none" stroke="#000000" points="396,-207.5 396,-237.5 562,-237.5 562,-207.5 396,-207.5"/>
<text text-anchor="start" x="403" y="-218.9" font-family="Arial" font-size="14.00" fill="#000000">name </text>
<text text-anchor="start" x="441.899" y="-218.9" font-family="Arial" font-size="14.00" fill="#666666">[varchar(30)]</text>
<polygon fill="none" stroke="#000000" points="396,-177.5 396,-207.5 562,-207.5 562,-177.5 396,-177.5"/>
<text text-anchor="start" x="403" y="-188.9" font-family="Arial" font-size="14.00" fill="#000000">created_at </text>
<text text-anchor="start" x="473.028" y="-188.9" font-family="Arial" font-size="14.00" fill="#666666">[datetime(6)]</text>
<polygon fill="none" stroke="#000000" points="396,-147.5 396,-177.5 562,-177.5 562,-147.5 396,-147.5"/>
<text text-anchor="start" x="402.7518" y="-158.9" font-family="Arial" font-size="14.00" fill="#000000">updated_at </text>
<text text-anchor="start" x="476.6844" y="-158.9" font-family="Arial" font-size="14.00" fill="#666666">[datetime(6)]</text>
</g>
<!-- users_tags&#45;&gt;tags -->
<g id="edge2" class="edge">
<title>users_tags:tag_id&#45;&gt;tags:id</title>
<path fill="none" stroke="#000000" d="M449.3335,-636.9745C594.7894,-621.1347 227.524,-252.5 396,-252.5"/>
<polygon fill="#000000" stroke="#000000" points="448.9871,-636.992 438.7714,-633.0058 443.9935,-637.246 439,-637.5 439,-637.5 439,-637.5 443.9935,-637.246 439.2286,-641.9942 448.9871,-636.992 448.9871,-636.992"/>
<text text-anchor="start" x="446.495" y="-647.5" font-family="Arial" font-size="10.00" fill="#000000">FOREIGN KEY (tag_id) REFERENCES tags (id)</text>
</g>
</g>
</svg>
