<?xml version="1.0" encoding="UTF-8" standalone="no"?>
<!DOCTYPE svg PUBLIC "-//W3C//DTD SVG 1.1//EN"
 "http://www.w3.org/Graphics/SVG/1.1/DTD/svg11.dtd">
<!-- Generated by graphviz version 2.40.1 (20161225.0304)
 -->
<!-- Title: webhook_bots Pages: 1 -->
<svg width="802pt" height="922pt"
 viewBox="0.00 0.00 801.50 922.00" xmlns="http://www.w3.org/2000/svg" xmlns:xlink="http://www.w3.org/1999/xlink">
<g id="graph0" class="graph" transform="scale(1 1) rotate(0) translate(4 918)">
<title>webhook_bots</title>
<polygon fill="#ffffff" stroke="transparent" points="-4,4 -4,-918 797.5,-918 797.5,4 -4,4"/>
<!-- webhook_bots -->
<g id="node1" class="node">
<title>webhook_bots</title>
<polygon fill="#efefef" stroke="transparent" points="259,-832.5 259,-867.5 486,-867.5 486,-832.5 259,-832.5"/>
<polygon fill="none" stroke="#000000" points="259,-832.5 259,-867.5 486,-867.5 486,-832.5 259,-832.5"/>
<text text-anchor="start" x="265.8501" y="-845.3" font-family="Arial Bold" font-size="18.00" fill="#000000">webhook_bots</text>
<text text-anchor="start" x="381.8961" y="-845.3" font-family="Arial" font-size="14.00" fill="#000000"> </text>
<text text-anchor="start" x="385.7867" y="-845.3" font-family="Arial" font-size="14.00" fill="#666666">[BASE TABLE]</text>
<polygon fill="none" stroke="#000000" points="259,-802.5 259,-832.5 486,-832.5 486,-802.5 259,-802.5"/>
<text text-anchor="start" x="266" y="-813.9" font-family="Arial" font-size="14.00" fill="#000000">id </text>
<text text-anchor="start" x="280.7798" y="-813.9" font-family="Arial" font-size="14.00" fill="#666666">[char(36)]</text>
<polygon fill="none" stroke="#000000" points="259,-772.5 259,-802.5 486,-802.5 486,-772.5 259,-772.5"/>
<text text-anchor="start" x="266" y="-783.9" font-family="Arial" font-size="14.00" fill="#000000">bot_user_id </text>
<text text-anchor="start" x="343.0266" y="-783.9" font-family="Arial" font-size="14.00" fill="#666666">[char(36)]</text>
<polygon fill="none" stroke="#000000" points="259,-742.5 259,-772.5 486,-772.5 486,-742.5 259,-742.5"/>
<text text-anchor="start" x="266" y="-753.9" font-family="Arial" font-size="14.00" fill="#000000">description </text>
<text text-anchor="start" x="337.568" y="-753.9" font-family="Arial" font-size="14.00" fill="#666666">[text]</text>
<polygon fill="none" stroke="#000000" points="259,-712.5 259,-742.5 486,-742.5 486,-712.5 259,-712.5"/>
<text text-anchor="start" x="266" y="-723.9" font-family="Arial" font-size="14.00" fill="#000000">secret </text>
<text text-anchor="start" x="308.007" y="-723.9" font-family="Arial" font-size="14.00" fill="#666666">[text]</text>
<polygon fill="none" stroke="#000000" points="259,-682.5 259,-712.5 486,-712.5 486,-682.5 259,-682.5"/>
<text text-anchor="start" x="266" y="-693.9" font-family="Arial" font-size="14.00" fill="#000000">channel_id </text>
<text text-anchor="start" x="337.582" y="-693.9" font-family="Arial" font-size="14.00" fill="#666666">[char(36)]</text>
<polygon fill="none" stroke="#000000" points="259,-652.5 259,-682.5 486,-682.5 486,-652.5 259,-652.5"/>
<text text-anchor="start" x="266" y="-663.9" font-family="Arial" font-size="14.00" fill="#000000">creator_id </text>
<text text-anchor="start" x="332.122" y="-663.9" font-family="Arial" font-size="14.00" fill="#666666">[char(36)]</text>
<polygon fill="none" stroke="#000000" points="259,-622.5 259,-652.5 486,-652.5 486,-622.5 259,-622.5"/>
<text text-anchor="start" x="266" y="-633.9" font-family="Arial" font-size="14.00" fill="#000000">created_at </text>
<text text-anchor="start" x="336.028" y="-633.9" font-family="Arial" font-size="14.00" fill="#666666">[datetime(6)]</text>
<polygon fill="none" stroke="#000000" points="259,-592.5 259,-622.5 486,-622.5 486,-592.5 259,-592.5"/>
<text text-anchor="start" x="266" y="-603.9" font-family="Arial" font-size="14.00" fill="#000000">updated_at </text>
<text text-anchor="start" x="339.9326" y="-603.9" font-family="Arial" font-size="14.00" fill="#666666">[datetime(6)]</text>
<polygon fill="none" stroke="#000000" points="259,-562.5 259,-592.5 486,-592.5 486,-562.5 259,-562.5"/>
<text text-anchor="start" x="266" y="-573.9" font-family="Arial" font-size="14.00" fill="#000000">deleted_at </text>
<text text-anchor="start" x="335.2566" y="-573.9" font-family="Arial" font-size="14.00" fill="#666666">[datetime(6)]</text>
<polygon fill="none" stroke="#000000" stroke-width="3" points="257,-561.5 257,-869.5 487,-869.5 487,-561.5 257,-561.5"/>
</g>
<!-- users -->
<g id="node2" class="node">
<title>users</title>
<polygon fill="#efefef" stroke="transparent" points="281,-387.5 281,-422.5 464,-422.5 464,-387.5 281,-387.5"/>
<polygon fill="none" stroke="#000000" points="281,-387.5 281,-422.5 464,-422.5 464,-387.5 281,-387.5"/>
<text text-anchor="start" x="301.8708" y="-400.3" font-family="Arial Bold" font-size="18.00" fill="#000000">users</text>
<text text-anchor="start" x="345.8754" y="-400.3" font-family="Arial" font-size="14.00" fill="#000000"> </text>
<text text-anchor="start" x="349.766" y="-400.3" font-family="Arial" font-size="14.00" fill="#666666">[BASE TABLE]</text>
<polygon fill="none" stroke="#000000" points="281,-357.5 281,-387.5 464,-387.5 464,-357.5 281,-357.5"/>
<text text-anchor="start" x="288" y="-368.9" font-family="Arial" font-size="14.00" fill="#000000">id </text>
<text text-anchor="start" x="302.7798" y="-368.9" font-family="Arial" font-size="14.00" fill="#666666">[char(36)]</text>
<polygon fill="none" stroke="#000000" points="281,-327.5 281,-357.5 464,-357.5 464,-327.5 281,-327.5"/>
<text text-anchor="start" x="288" y="-338.9" font-family="Arial" font-size="14.00" fill="#000000">name </text>
<text text-anchor="start" x="326.899" y="-338.9" font-family="Arial" font-size="14.00" fill="#666666">[varchar(32)]</text>
<polygon fill="none" stroke="#000000" points="281,-297.5 281,-327.5 464,-327.5 464,-297.5 281,-297.5"/>
<text text-anchor="start" x="287.7104" y="-308.9" font-family="Arial" font-size="14.00" fill="#000000">display_name </text>
<text text-anchor="start" x="377.953" y="-308.9" font-family="Arial" font-size="14.00" fill="#666666">[varchar(64)]</text>
<polygon fill="none" stroke="#000000" points="281,-267.5 281,-297.5 464,-297.5 464,-267.5 281,-267.5"/>
<text text-anchor="start" x="288" y="-278.9" font-family="Arial" font-size="14.00" fill="#000000">password </text>
<text text-anchor="start" x="351.7882" y="-278.9" font-family="Arial" font-size="14.00" fill="#666666">[char(128)]</text>
<polygon fill="none" stroke="#000000" points="281,-237.5 281,-267.5 464,-267.5 464,-237.5 281,-237.5"/>
<text text-anchor="start" x="288" y="-248.9" font-family="Arial" font-size="14.00" fill="#000000">salt </text>
<text text-anchor="start" x="313.6704" y="-248.9" font-family="Arial" font-size="14.00" fill="#666666">[char(128)]</text>
<polygon fill="none" stroke="#000000" points="281,-207.5 281,-237.5 464,-237.5 464,-207.5 281,-207.5"/>
<text text-anchor="start" x="288" y="-218.9" font-family="Arial" font-size="14.00" fill="#000000">icon </text>
<text text-anchor="start" x="317.5624" y="-218.9" font-family="Arial" font-size="14.00" fill="#666666">[char(36)]</text>
<polygon fill="none" stroke="#000000" points="281,-177.5 281,-207.5 464,-207.5 464,-177.5 281,-177.5"/>
<text text-anchor="start" x="288" y="-188.9" font-family="Arial" font-size="14.00" fill="#000000">status </text>
<text text-anchor="start" x="329.237" y="-188.9" font-family="Arial" font-size="14.00" fill="#666666">[tinyint(4)]</text>
<polygon fill="none" stroke="#000000" points="281,-147.5 281,-177.5 464,-177.5 464,-147.5 281,-147.5"/>
<text text-anchor="start" x="288" y="-158.9" font-family="Arial" font-size="14.00" fill="#000000">bot </text>
<text text-anchor="start" x="311.3464" y="-158.9" font-family="Arial" font-size="14.00" fill="#666666">[tinyint(1)]</text>
<polygon fill="none" stroke="#000000" points="281,-117.5 281,-147.5 464,-147.5 464,-117.5 281,-117.5"/>
<text text-anchor="start" x="288" y="-128.9" font-family="Arial" font-size="14.00" fill="#000000">role </text>
<text text-anchor="start" x="315.223" y="-128.9" font-family="Arial" font-size="14.00" fill="#666666">[varchar(30)]</text>
<polygon fill="none" stroke="#000000" points="281,-87.5 281,-117.5 464,-117.5 464,-87.5 281,-87.5"/>
<text text-anchor="start" x="288" y="-98.9" font-family="Arial" font-size="14.00" fill="#000000">created_at </text>
<text text-anchor="start" x="358.028" y="-98.9" font-family="Arial" font-size="14.00" fill="#666666">[datetime(6)]</text>
<polygon fill="none" stroke="#000000" points="281,-57.5 281,-87.5 464,-87.5 464,-57.5 281,-57.5"/>
<text text-anchor="start" x="288" y="-68.9" font-family="Arial" font-size="14.00" fill="#000000">updated_at </text>
<text text-anchor="start" x="361.9326" y="-68.9" font-family="Arial" font-size="14.00" fill="#666666">[datetime(6)]</text>
</g>
<!-- webhook_bots&#45;&gt;users -->
<g id="edge1" class="edge">
<title>webhook_bots:bot_user_id&#45;&gt;users:id</title>
<path fill="none" stroke="#000000" d="M248.6984,-785.6498C168.4744,-755.7114 192.2558,-372.5 281,-372.5"/>
<polygon fill="#000000" stroke="#000000" points="249.1575,-785.7321 258.2045,-791.9291 254.0787,-786.6161 259,-787.5 259,-787.5 259,-787.5 254.0787,-786.6161 259.7955,-783.0709 249.1575,-785.7321 249.1575,-785.7321"/>
<text text-anchor="start" x="7.217" y="-797.5" font-family="Arial" font-size="10.00" fill="#000000">FOREIGN KEY (bot_user_id) REFERENCES users (id)</text>
</g>
<!-- webhook_bots&#45;&gt;users -->
<g id="edge3" class="edge">
<title>webhook_bots:creator_id&#45;&gt;users:id</title>
<path fill="none" stroke="#000000" d="M248.9949,-664.9497C195.7995,-636.1166 218.8574,-372.5 281,-372.5"/>
<polygon fill="#000000" stroke="#000000" points="249.3098,-665.0299 257.8885,-671.8606 254.1549,-666.265 259,-667.5 259,-667.5 259,-667.5 254.1549,-666.265 260.1115,-663.1394 249.3098,-665.0299 249.3098,-665.0299"/>
<text text-anchor="start" x="15.1115" y="-677.5" font-family="Arial" font-size="10.00" fill="#000000">FOREIGN KEY (creator_id) REFERENCES users (id)</text>
</g>
<!-- channels -->
<g id="node3" class="node">
<title>channels</title>
<polygon fill="#efefef" stroke="transparent" points="568,-402.5 568,-437.5 751,-437.5 751,-402.5 568,-402.5"/>
<polygon fill="none" stroke="#000000" points="568,-402.5 568,-437.5 751,-437.5 751,-402.5 568,-402.5"/>
<text text-anchor="start" x="574.8605" y="-415.3" font-family="Arial Bold" font-size="18.00" fill="#000000">channels</text>
<text text-anchor="start" x="646.8857" y="-415.3" font-family="Arial" font-size="14.00" fill="#000000"> </text>
<text text-anchor="start" x="650.7763" y="-415.3" font-family="Arial" font-size="14.00" fill="#666666">[BASE TABLE]</text>
<polygon fill="none" stroke="#000000" points="568,-372.5 568,-402.5 751,-402.5 751,-372.5 568,-372.5"/>
<text text-anchor="start" x="575" y="-383.9" font-family="Arial" font-size="14.00" fill="#000000">id </text>
<text text-anchor="start" x="589.7798" y="-383.9" font-family="Arial" font-size="14.00" fill="#666666">[char(36)]</text>
<polygon fill="none" stroke="#000000" points="568,-342.5 568,-372.5 751,-372.5 751,-342.5 568,-342.5"/>
<text text-anchor="start" x="575" y="-353.9" font-family="Arial" font-size="14.00" fill="#000000">name </text>
<text text-anchor="start" x="613.899" y="-353.9" font-family="Arial" font-size="14.00" fill="#666666">[varchar(20)]</text>
<polygon fill="none" stroke="#000000" points="568,-312.5 568,-342.5 751,-342.5 751,-312.5 568,-312.5"/>
<text text-anchor="start" x="575" y="-323.9" font-family="Arial" font-size="14.00" fill="#000000">parent_id </text>
<text text-anchor="start" x="637.244" y="-323.9" font-family="Arial" font-size="14.00" fill="#666666">[char(36)]</text>
<polygon fill="none" stroke="#000000" points="568,-282.5 568,-312.5 751,-312.5 751,-282.5 568,-282.5"/>
<text text-anchor="start" x="575" y="-293.9" font-family="Arial" font-size="14.00" fill="#000000">topic </text>
<text text-anchor="start" x="608.453" y="-293.9" font-family="Arial" font-size="14.00" fill="#666666">[text]</text>
<polygon fill="none" stroke="#000000" points="568,-252.5 568,-282.5 751,-282.5 751,-252.5 568,-252.5"/>
<text text-anchor="start" x="575" y="-263.9" font-family="Arial" font-size="14.00" fill="#000000">is_forced </text>
<text text-anchor="start" x="635.6788" y="-263.9" font-family="Arial" font-size="14.00" fill="#666666">[tinyint(1)]</text>
<polygon fill="none" stroke="#000000" points="568,-222.5 568,-252.5 751,-252.5 751,-222.5 568,-222.5"/>
<text text-anchor="start" x="575" y="-233.9" font-family="Arial" font-size="14.00" fill="#000000">is_public </text>
<text text-anchor="start" x="633.3408" y="-233.9" font-family="Arial" font-size="14.00" fill="#666666">[tinyint(1)]</text>
<polygon fill="none" stroke="#000000" points="568,-192.5 568,-222.5 751,-222.5 751,-192.5 568,-192.5"/>
<text text-anchor="start" x="575" y="-203.9" font-family="Arial" font-size="14.00" fill="#000000">is_visible </text>
<text text-anchor="start" x="635.6648" y="-203.9" font-family="Arial" font-size="14.00" fill="#666666">[tinyint(1)]</text>
<polygon fill="none" stroke="#000000" points="568,-162.5 568,-192.5 751,-192.5 751,-162.5 568,-162.5"/>
<text text-anchor="start" x="575" y="-173.9" font-family="Arial" font-size="14.00" fill="#000000">creator_id </text>
<text text-anchor="start" x="641.122" y="-173.9" font-family="Arial" font-size="14.00" fill="#666666">[char(36)]</text>
<polygon fill="none" stroke="#000000" points="568,-132.5 568,-162.5 751,-162.5 751,-132.5 568,-132.5"/>
<text text-anchor="start" x="575" y="-143.9" font-family="Arial" font-size="14.00" fill="#000000">updater_id </text>
<text text-anchor="start" x="645.0266" y="-143.9" font-family="Arial" font-size="14.00" fill="#666666">[char(36)]</text>
<polygon fill="none" stroke="#000000" points="568,-102.5 568,-132.5 751,-132.5 751,-102.5 568,-102.5"/>
<text text-anchor="start" x="575" y="-113.9" font-family="Arial" font-size="14.00" fill="#000000">created_at </text>
<text text-anchor="start" x="645.028" y="-113.9" font-family="Arial" font-size="14.00" fill="#666666">[datetime(6)]</text>
<polygon fill="none" stroke="#000000" points="568,-72.5 568,-102.5 751,-102.5 751,-72.5 568,-72.5"/>
<text text-anchor="start" x="575" y="-83.9" font-family="Arial" font-size="14.00" fill="#000000">updated_at </text>
<text text-anchor="start" x="648.9326" y="-83.9" font-family="Arial" font-size="14.00" fill="#666666">[datetime(6)]</text>
<polygon fill="none" stroke="#000000" points="568,-42.5 568,-72.5 751,-72.5 751,-42.5 568,-42.5"/>
<text text-anchor="start" x="575" y="-53.9" font-family="Arial" font-size="14.00" fill="#000000">deleted_at </text>
<text text-anchor="start" x="644.2566" y="-53.9" font-family="Arial" font-size="14.00" fill="#666666">[datetime(6)]</text>
</g>
<!-- webhook_bots&#45;&gt;channels -->
<g id="edge2" class="edge">
<title>webhook_bots:channel_id&#45;&gt;channels:id</title>
<path fill="none" stroke="#000000" d="M495.8708,-695.183C551.4518,-666.815 500.3604,-387.5 568,-387.5"/>
<polygon fill="#000000" stroke="#000000" points="495.7354,-695.2147 484.9716,-693.1191 490.8677,-696.3573 486,-697.5 486,-697.5 486,-697.5 490.8677,-696.3573 487.0284,-701.8809 495.7354,-695.2147 495.7354,-695.2147"/>
<text text-anchor="start" x="493.378" y="-707.5" font-family="Arial" font-size="10.00" fill="#000000">FOREIGN KEY (channel_id) REFERENCES channels (id)</text>
</g>
</g>
</svg>
