<?xml version="1.0" encoding="UTF-8" standalone="no"?>
<!DOCTYPE svg PUBLIC "-//W3C//DTD SVG 1.1//EN"
 "http://www.w3.org/Graphics/SVG/1.1/DTD/svg11.dtd">
<!-- Generated by graphviz version 2.40.1 (20161225.0304)
 -->
<!-- Title: webhook_bots Pages: 1 -->
<svg width="335pt" height="404pt"
 viewBox="0.00 0.00 335.00 404.00" xmlns="http://www.w3.org/2000/svg" xmlns:xlink="http://www.w3.org/1999/xlink">
<g id="graph0" class="graph" transform="scale(1 1) rotate(0) translate(4 400)">
<title>webhook_bots</title>
<polygon fill="#ffffff" stroke="transparent" points="-4,4 -4,-400 331,-400 331,4 -4,4"/>
<!-- webhook_bots -->
<g id="node1" class="node">
<title>webhook_bots</title>
<polygon fill="#efefef" stroke="transparent" points="46.5,-316 46.5,-350 281.5,-350 281.5,-316 46.5,-316"/>
<polygon fill="none" stroke="#000000" points="46.5,-316 46.5,-350 281.5,-350 281.5,-316 46.5,-316"/>
<text text-anchor="start" x="53.0107" y="-329.6" font-family="Arial Bold" font-size="18.00" fill="#000000">webhook_bots</text>
<text text-anchor="start" x="179.0195" y="-329.6" font-family="Arial" font-size="14.00" fill="#000000"> </text>
<text text-anchor="start" x="182.9092" y="-329.6" font-family="Arial" font-size="14.00" fill="#666666">[BASE TABLE]</text>
<polygon fill="none" stroke="#000000" points="46.5,-286 46.5,-316 281.5,-316 281.5,-286 46.5,-286"/>
<text text-anchor="start" x="53.5" y="-298.8" font-family="Arial" font-size="14.00" fill="#000000">id </text>
<text text-anchor="start" x="68.2861" y="-298.8" font-family="Arial" font-size="14.00" fill="#666666">[char(36)]</text>
<polygon fill="none" stroke="#000000" points="46.5,-256 46.5,-286 281.5,-286 281.5,-256 46.5,-256"/>
<text text-anchor="start" x="53.5" y="-268.8" font-family="Arial" font-size="14.00" fill="#000000">bot_user_id </text>
<text text-anchor="start" x="130.5547" y="-268.8" font-family="Arial" font-size="14.00" fill="#666666">[char(36)]</text>
<polygon fill="none" stroke="#000000" points="46.5,-226 46.5,-256 281.5,-256 281.5,-226 46.5,-226"/>
<text text-anchor="start" x="53.5" y="-238.8" font-family="Arial" font-size="14.00" fill="#000000">description </text>
<text text-anchor="start" x="125.0928" y="-238.8" font-family="Arial" font-size="14.00" fill="#666666">[text]</text>
<polygon fill="none" stroke="#000000" points="46.5,-196 46.5,-226 281.5,-226 281.5,-196 46.5,-196"/>
<text text-anchor="start" x="53.5" y="-208.8" font-family="Arial" font-size="14.00" fill="#000000">secret </text>
<text text-anchor="start" x="95.5137" y="-208.8" font-family="Arial" font-size="14.00" fill="#666666">[text]</text>
<polygon fill="none" stroke="#000000" points="46.5,-166 46.5,-196 281.5,-196 281.5,-166 46.5,-166"/>
<text text-anchor="start" x="53.5" y="-178.8" font-family="Arial" font-size="14.00" fill="#000000">channel_id </text>
<text text-anchor="start" x="125.1133" y="-178.8" font-family="Arial" font-size="14.00" fill="#666666">[char(36)]</text>
<polygon fill="none" stroke="#000000" points="46.5,-136 46.5,-166 281.5,-166 281.5,-136 46.5,-136"/>
<text text-anchor="start" x="53.5" y="-148.8" font-family="Arial" font-size="14.00" fill="#000000">creator_id </text>
<text text-anchor="start" x="119.6445" y="-148.8" font-family="Arial" font-size="14.00" fill="#666666">[char(36)]</text>
<polygon fill="none" stroke="#000000" points="46.5,-106 46.5,-136 281.5,-136 281.5,-106 46.5,-106"/>
<text text-anchor="start" x="53.5" y="-118.8" font-family="Arial" font-size="14.00" fill="#000000">created_at </text>
<text text-anchor="start" x="123.5479" y="-118.8" font-family="Arial" font-size="14.00" fill="#666666">[timestamp(6)]</text>
<polygon fill="none" stroke="#000000" points="46.5,-76 46.5,-106 281.5,-106 281.5,-76 46.5,-76"/>
<text text-anchor="start" x="53.5" y="-88.8" font-family="Arial" font-size="14.00" fill="#000000">updated_at </text>
<text text-anchor="start" x="127.458" y="-88.8" font-family="Arial" font-size="14.00" fill="#666666">[timestamp(6)]</text>
<polygon fill="none" stroke="#000000" points="46.5,-46 46.5,-76 281.5,-76 281.5,-46 46.5,-46"/>
<text text-anchor="start" x="53.5" y="-58.8" font-family="Arial" font-size="14.00" fill="#000000">deleted_at </text>
<text text-anchor="start" x="122.7822" y="-58.8" font-family="Arial" font-size="14.00" fill="#666666">[timestamp(6)]</text>
<polygon fill="none" stroke="#000000" stroke-width="3" points="44.5,-44.5 44.5,-351.5 282.5,-351.5 282.5,-44.5 44.5,-44.5"/>
</g>
</g>
</svg>
