<?xml version="1.0" encoding="UTF-8" standalone="no"?>
<!DOCTYPE svg PUBLIC "-//W3C//DTD SVG 1.1//EN"
 "http://www.w3.org/Graphics/SVG/1.1/DTD/svg11.dtd">
<!-- Generated by graphviz version 2.40.1 (20161225.0304)
 -->
<!-- Title: webhook_bots Pages: 1 -->
<svg width="802pt" height="952pt"
     viewBox="0.00 0.00 801.50 952.00" xmlns="http://www.w3.org/2000/svg">
<g id="graph0" class="graph" transform="scale(1 1) rotate(0) translate(4 948)">
<title>webhook_bots</title>
<polygon fill="#ffffff" stroke="transparent" points="-4,4 -4,-948 797.5,-948 797.5,4 -4,4"/>
<!-- webhook_bots -->
<g id="node1" class="node">
<title>webhook_bots</title>
<polygon fill="#efefef" stroke="transparent" points="259,-862.5 259,-897.5 486,-897.5 486,-862.5 259,-862.5"/>
<polygon fill="none" stroke="#000000" points="259,-862.5 259,-897.5 486,-897.5 486,-862.5 259,-862.5"/>
<text text-anchor="start" x="265.8501" y="-875.3" font-family="Arial Bold" font-size="18.00" fill="#000000">webhook_bots</text>
<text text-anchor="start" x="381.8961" y="-875.3" font-family="Arial" font-size="14.00" fill="#000000"> </text>
<text text-anchor="start" x="385.7867" y="-875.3" font-family="Arial" font-size="14.00" fill="#666666">[BASE TABLE]</text>
<polygon fill="none" stroke="#000000" points="259,-832.5 259,-862.5 486,-862.5 486,-832.5 259,-832.5"/>
<text text-anchor="start" x="266" y="-843.9" font-family="Arial" font-size="14.00" fill="#000000">id </text>
<text text-anchor="start" x="280.7798" y="-843.9" font-family="Arial" font-size="14.00" fill="#666666">[char(36)]</text>
<polygon fill="none" stroke="#000000" points="259,-802.5 259,-832.5 486,-832.5 486,-802.5 259,-802.5"/>
<text text-anchor="start" x="266" y="-813.9" font-family="Arial" font-size="14.00" fill="#000000">bot_user_id </text>
<text text-anchor="start" x="343.0266" y="-813.9" font-family="Arial" font-size="14.00" fill="#666666">[char(36)]</text>
<polygon fill="none" stroke="#000000" points="259,-772.5 259,-802.5 486,-802.5 486,-772.5 259,-772.5"/>
<text text-anchor="start" x="266" y="-783.9" font-family="Arial" font-size="14.00" fill="#000000">description </text>
<text text-anchor="start" x="337.568" y="-783.9" font-family="Arial" font-size="14.00" fill="#666666">[text]</text>
<polygon fill="none" stroke="#000000" points="259,-742.5 259,-772.5 486,-772.5 486,-742.5 259,-742.5"/>
<text text-anchor="start" x="266" y="-753.9" font-family="Arial" font-size="14.00" fill="#000000">secret </text>
<text text-anchor="start" x="308.007" y="-753.9" font-family="Arial" font-size="14.00" fill="#666666">[text]</text>
<polygon fill="none" stroke="#000000" points="259,-712.5 259,-742.5 486,-742.5 486,-712.5 259,-712.5"/>
<text text-anchor="start" x="266" y="-723.9" font-family="Arial" font-size="14.00" fill="#000000">channel_id </text>
<text text-anchor="start" x="337.582" y="-723.9" font-family="Arial" font-size="14.00" fill="#666666">[char(36)]</text>
<polygon fill="none" stroke="#000000" points="259,-682.5 259,-712.5 486,-712.5 486,-682.5 259,-682.5"/>
<text text-anchor="start" x="266" y="-693.9" font-family="Arial" font-size="14.00" fill="#000000">creator_id </text>
<text text-anchor="start" x="332.122" y="-693.9" font-family="Arial" font-size="14.00" fill="#666666">[char(36)]</text>
<polygon fill="none" stroke="#000000" points="259,-652.5 259,-682.5 486,-682.5 486,-652.5 259,-652.5"/>
<text text-anchor="start" x="266" y="-663.9" font-family="Arial" font-size="14.00" fill="#000000">created_at </text>
<text text-anchor="start" x="336.028" y="-663.9" font-family="Arial" font-size="14.00" fill="#666666">[datetime(6)]</text>
<polygon fill="none" stroke="#000000" points="259,-622.5 259,-652.5 486,-652.5 486,-622.5 259,-622.5"/>
<text text-anchor="start" x="266" y="-633.9" font-family="Arial" font-size="14.00" fill="#000000">updated_at </text>
<text text-anchor="start" x="339.9326" y="-633.9" font-family="Arial" font-size="14.00" fill="#666666">[datetime(6)]</text>
<polygon fill="none" stroke="#000000" points="259,-592.5 259,-622.5 486,-622.5 486,-592.5 259,-592.5"/>
<text text-anchor="start" x="266" y="-603.9" font-family="Arial" font-size="14.00" fill="#000000">deleted_at </text>
<text text-anchor="start" x="335.2566" y="-603.9" font-family="Arial" font-size="14.00" fill="#666666">[datetime(6)]</text>
<polygon fill="none" stroke="#000000" stroke-width="3" points="257,-591.5 257,-899.5 487,-899.5 487,-591.5 257,-591.5"/>
</g>
<!-- users -->
<g id="node2" class="node">
<title>users</title>
<polygon fill="#efefef" stroke="transparent" points="281,-432.5 281,-467.5 464,-467.5 464,-432.5 281,-432.5"/>
<polygon fill="none" stroke="#000000" points="281,-432.5 281,-467.5 464,-467.5 464,-432.5 281,-432.5"/>
<text text-anchor="start" x="301.8708" y="-445.3" font-family="Arial Bold" font-size="18.00" fill="#000000">users</text>
<text text-anchor="start" x="345.8754" y="-445.3" font-family="Arial" font-size="14.00" fill="#000000"> </text>
<text text-anchor="start" x="349.766" y="-445.3" font-family="Arial" font-size="14.00" fill="#666666">[BASE TABLE]</text>
<polygon fill="none" stroke="#000000" points="281,-402.5 281,-432.5 464,-432.5 464,-402.5 281,-402.5"/>
<text text-anchor="start" x="288" y="-413.9" font-family="Arial" font-size="14.00" fill="#000000">id </text>
<text text-anchor="start" x="302.7798" y="-413.9" font-family="Arial" font-size="14.00" fill="#666666">[char(36)]</text>
<polygon fill="none" stroke="#000000" points="281,-372.5 281,-402.5 464,-402.5 464,-372.5 281,-372.5"/>
<text text-anchor="start" x="288" y="-383.9" font-family="Arial" font-size="14.00" fill="#000000">name </text>
<text text-anchor="start" x="326.899" y="-383.9" font-family="Arial" font-size="14.00" fill="#666666">[varchar(32)]</text>
<polygon fill="none" stroke="#000000" points="281,-342.5 281,-372.5 464,-372.5 464,-342.5 281,-342.5"/>
<text text-anchor="start" x="287.7104" y="-353.9" font-family="Arial" font-size="14.00" fill="#000000">display_name </text>
<text text-anchor="start" x="377.953" y="-353.9" font-family="Arial" font-size="14.00" fill="#666666">[varchar(64)]</text>
<polygon fill="none" stroke="#000000" points="281,-312.5 281,-342.5 464,-342.5 464,-312.5 281,-312.5"/>
<text text-anchor="start" x="288" y="-323.9" font-family="Arial" font-size="14.00" fill="#000000">password </text>
<text text-anchor="start" x="351.7882" y="-323.9" font-family="Arial" font-size="14.00" fill="#666666">[char(128)]</text>
<polygon fill="none" stroke="#000000" points="281,-282.5 281,-312.5 464,-312.5 464,-282.5 281,-282.5"/>
<text text-anchor="start" x="288" y="-293.9" font-family="Arial" font-size="14.00" fill="#000000">salt </text>
<text text-anchor="start" x="313.6704" y="-293.9" font-family="Arial" font-size="14.00" fill="#666666">[char(128)]</text>
<polygon fill="none" stroke="#000000" points="281,-252.5 281,-282.5 464,-282.5 464,-252.5 281,-252.5"/>
<text text-anchor="start" x="288" y="-263.9" font-family="Arial" font-size="14.00" fill="#000000">icon </text>
<text text-anchor="start" x="317.5624" y="-263.9" font-family="Arial" font-size="14.00" fill="#666666">[char(36)]</text>
<polygon fill="none" stroke="#000000" points="281,-222.5 281,-252.5 464,-252.5 464,-222.5 281,-222.5"/>
<text text-anchor="start" x="288" y="-233.9" font-family="Arial" font-size="14.00" fill="#000000">status </text>
<text text-anchor="start" x="329.237" y="-233.9" font-family="Arial" font-size="14.00" fill="#666666">[tinyint(4)]</text>
<polygon fill="none" stroke="#000000" points="281,-192.5 281,-222.5 464,-222.5 464,-192.5 281,-192.5"/>
<text text-anchor="start" x="288" y="-203.9" font-family="Arial" font-size="14.00" fill="#000000">bot </text>
<text text-anchor="start" x="311.3464" y="-203.9" font-family="Arial" font-size="14.00" fill="#666666">[tinyint(1)]</text>
<polygon fill="none" stroke="#000000" points="281,-162.5 281,-192.5 464,-192.5 464,-162.5 281,-162.5"/>
<text text-anchor="start" x="288" y="-173.9" font-family="Arial" font-size="14.00" fill="#000000">role </text>
<text text-anchor="start" x="315.223" y="-173.9" font-family="Arial" font-size="14.00" fill="#666666">[varchar(30)]</text>
<polygon fill="none" stroke="#000000" points="281,-132.5 281,-162.5 464,-162.5 464,-132.5 281,-132.5"/>
<text text-anchor="start" x="288" y="-143.9" font-family="Arial" font-size="14.00" fill="#000000">twitter_id </text>
<text text-anchor="start" x="347.8906" y="-143.9" font-family="Arial" font-size="14.00" fill="#666666">[varchar(15)]</text>
<polygon fill="none" stroke="#000000" points="281,-102.5 281,-132.5 464,-132.5 464,-102.5 281,-102.5"/>
<text text-anchor="start" x="288" y="-113.9" font-family="Arial" font-size="14.00" fill="#000000">last_online </text>
<text text-anchor="start" x="358.7966" y="-113.9" font-family="Arial" font-size="14.00" fill="#666666">[datetime(6)]</text>
<polygon fill="none" stroke="#000000" points="281,-72.5 281,-102.5 464,-102.5 464,-72.5 281,-72.5"/>
<text text-anchor="start" x="288" y="-83.9" font-family="Arial" font-size="14.00" fill="#000000">created_at </text>
<text text-anchor="start" x="358.028" y="-83.9" font-family="Arial" font-size="14.00" fill="#666666">[datetime(6)]</text>
<polygon fill="none" stroke="#000000" points="281,-42.5 281,-72.5 464,-72.5 464,-42.5 281,-42.5"/>
<text text-anchor="start" x="288" y="-53.9" font-family="Arial" font-size="14.00" fill="#000000">updated_at </text>
<text text-anchor="start" x="361.9326" y="-53.9" font-family="Arial" font-size="14.00" fill="#666666">[datetime(6)]</text>
</g>
<!-- webhook_bots&#45;&gt;users -->
<g id="edge1" class="edge">
<title>webhook_bots:bot_user_id&#45;&gt;users:id</title>
<path fill="none" stroke="#000000" d="M249.0732,-815.7166C171.7978,-786.8604 195.4542,-417.5 281,-417.5"/>
<polygon fill="#000000" stroke="#000000" points="249.1576,-815.7317 258.2043,-821.9291 254.0788,-816.6159 259,-817.5 259,-817.5 259,-817.5 254.0788,-816.6159 259.7957,-813.0709 249.1576,-815.7317 249.1576,-815.7317"/>
<text text-anchor="start" x="7.217" y="-827.5" font-family="Arial" font-size="10.00" fill="#000000">FOREIGN KEY (bot_user_id) REFERENCES users (id)</text>
</g>
<!-- webhook_bots&#45;&gt;users -->
<g id="edge3" class="edge">
<title>webhook_bots:creator_id&#45;&gt;users:id</title>
<path fill="none" stroke="#000000" d="M249.1989,-694.9069C199.2079,-666.6795 222.1212,-417.5 281,-417.5"/>
<polygon fill="#000000" stroke="#000000" points="249.3326,-694.9422 257.849,-701.8503 254.1663,-696.2211 259,-697.5 259,-697.5 259,-697.5 254.1663,-696.2211 260.151,-693.1497 249.3326,-694.9422 249.3326,-694.9422"/>
<text text-anchor="start" x="15.1115" y="-707.5" font-family="Arial" font-size="10.00" fill="#000000">FOREIGN KEY (creator_id) REFERENCES users (id)</text>
</g>
<!-- channels -->
<g id="node3" class="node">
<title>channels</title>
<polygon fill="#efefef" stroke="transparent" points="568,-417.5 568,-452.5 751,-452.5 751,-417.5 568,-417.5"/>
<polygon fill="none" stroke="#000000" points="568,-417.5 568,-452.5 751,-452.5 751,-417.5 568,-417.5"/>
<text text-anchor="start" x="574.8605" y="-430.3" font-family="Arial Bold" font-size="18.00" fill="#000000">channels</text>
<text text-anchor="start" x="646.8857" y="-430.3" font-family="Arial" font-size="14.00" fill="#000000"> </text>
<text text-anchor="start" x="650.7763" y="-430.3" font-family="Arial" font-size="14.00" fill="#666666">[BASE TABLE]</text>
<polygon fill="none" stroke="#000000" points="568,-387.5 568,-417.5 751,-417.5 751,-387.5 568,-387.5"/>
<text text-anchor="start" x="575" y="-398.9" font-family="Arial" font-size="14.00" fill="#000000">id </text>
<text text-anchor="start" x="589.7798" y="-398.9" font-family="Arial" font-size="14.00" fill="#666666">[char(36)]</text>
<polygon fill="none" stroke="#000000" points="568,-357.5 568,-387.5 751,-387.5 751,-357.5 568,-357.5"/>
<text text-anchor="start" x="575" y="-368.9" font-family="Arial" font-size="14.00" fill="#000000">name </text>
<text text-anchor="start" x="613.899" y="-368.9" font-family="Arial" font-size="14.00" fill="#666666">[varchar(20)]</text>
<polygon fill="none" stroke="#000000" points="568,-327.5 568,-357.5 751,-357.5 751,-327.5 568,-327.5"/>
<text text-anchor="start" x="575" y="-338.9" font-family="Arial" font-size="14.00" fill="#000000">parent_id </text>
<text text-anchor="start" x="637.244" y="-338.9" font-family="Arial" font-size="14.00" fill="#666666">[char(36)]</text>
<polygon fill="none" stroke="#000000" points="568,-297.5 568,-327.5 751,-327.5 751,-297.5 568,-297.5"/>
<text text-anchor="start" x="575" y="-308.9" font-family="Arial" font-size="14.00" fill="#000000">topic </text>
<text text-anchor="start" x="608.453" y="-308.9" font-family="Arial" font-size="14.00" fill="#666666">[text]</text>
<polygon fill="none" stroke="#000000" points="568,-267.5 568,-297.5 751,-297.5 751,-267.5 568,-267.5"/>
<text text-anchor="start" x="575" y="-278.9" font-family="Arial" font-size="14.00" fill="#000000">is_forced </text>
<text text-anchor="start" x="635.6788" y="-278.9" font-family="Arial" font-size="14.00" fill="#666666">[tinyint(1)]</text>
<polygon fill="none" stroke="#000000" points="568,-237.5 568,-267.5 751,-267.5 751,-237.5 568,-237.5"/>
<text text-anchor="start" x="575" y="-248.9" font-family="Arial" font-size="14.00" fill="#000000">is_public </text>
<text text-anchor="start" x="633.3408" y="-248.9" font-family="Arial" font-size="14.00" fill="#666666">[tinyint(1)]</text>
<polygon fill="none" stroke="#000000" points="568,-207.5 568,-237.5 751,-237.5 751,-207.5 568,-207.5"/>
<text text-anchor="start" x="575" y="-218.9" font-family="Arial" font-size="14.00" fill="#000000">is_visible </text>
<text text-anchor="start" x="635.6648" y="-218.9" font-family="Arial" font-size="14.00" fill="#666666">[tinyint(1)]</text>
<polygon fill="none" stroke="#000000" points="568,-177.5 568,-207.5 751,-207.5 751,-177.5 568,-177.5"/>
<text text-anchor="start" x="575" y="-188.9" font-family="Arial" font-size="14.00" fill="#000000">creator_id </text>
<text text-anchor="start" x="641.122" y="-188.9" font-family="Arial" font-size="14.00" fill="#666666">[char(36)]</text>
<polygon fill="none" stroke="#000000" points="568,-147.5 568,-177.5 751,-177.5 751,-147.5 568,-147.5"/>
<text text-anchor="start" x="575" y="-158.9" font-family="Arial" font-size="14.00" fill="#000000">updater_id </text>
<text text-anchor="start" x="645.0266" y="-158.9" font-family="Arial" font-size="14.00" fill="#666666">[char(36)]</text>
<polygon fill="none" stroke="#000000" points="568,-117.5 568,-147.5 751,-147.5 751,-117.5 568,-117.5"/>
<text text-anchor="start" x="575" y="-128.9" font-family="Arial" font-size="14.00" fill="#000000">created_at </text>
<text text-anchor="start" x="645.028" y="-128.9" font-family="Arial" font-size="14.00" fill="#666666">[datetime(6)]</text>
<polygon fill="none" stroke="#000000" points="568,-87.5 568,-117.5 751,-117.5 751,-87.5 568,-87.5"/>
<text text-anchor="start" x="575" y="-98.9" font-family="Arial" font-size="14.00" fill="#000000">updated_at </text>
<text text-anchor="start" x="648.9326" y="-98.9" font-family="Arial" font-size="14.00" fill="#666666">[datetime(6)]</text>
<polygon fill="none" stroke="#000000" points="568,-57.5 568,-87.5 751,-87.5 751,-57.5 568,-57.5"/>
<text text-anchor="start" x="575" y="-68.9" font-family="Arial" font-size="14.00" fill="#000000">deleted_at </text>
<text text-anchor="start" x="644.2566" y="-68.9" font-family="Arial" font-size="14.00" fill="#666666">[datetime(6)]</text>
</g>
<!-- webhook_bots&#45;&gt;channels -->
<g id="edge2" class="edge">
<title>webhook_bots:channel_id&#45;&gt;channels:id</title>
<path fill="none" stroke="#000000" d="M495.9321,-725.2511C554.2827,-696.5366 497.1514,-402.5 568,-402.5"/>
<polygon fill="#000000" stroke="#000000" points="495.7531,-725.2915 485.0062,-723.1111 490.8766,-726.3958 486,-727.5 486,-727.5 486,-727.5 490.8766,-726.3958 486.9938,-731.8889 495.7531,-725.2915 495.7531,-725.2915"/>
<text text-anchor="start" x="493.378" y="-737.5" font-family="Arial" font-size="10.00" fill="#000000">FOREIGN KEY (channel_id) REFERENCES channels (id)</text>
</g>
</g>
</svg>
