<?xml version="1.0" encoding="UTF-8" standalone="no"?>
<!DOCTYPE svg PUBLIC "-//W3C//DTD SVG 1.1//EN"
 "http://www.w3.org/Graphics/SVG/1.1/DTD/svg11.dtd">
<!-- Generated by graphviz version 2.40.1 (20161225.0304)
 -->
<!-- Title: webhook_bots Pages: 1 -->
<svg width="765pt" height="950pt"
     viewBox="0.00 0.00 765.00 950.00" xmlns="http://www.w3.org/2000/svg">
<g id="graph0" class="graph" transform="scale(1 1) rotate(0) translate(4 946)">
<title>webhook_bots</title>
<polygon fill="#ffffff" stroke="transparent" points="-4,4 -4,-946 761,-946 761,4 -4,4"/>
<!-- webhook_bots -->
<g id="node1" class="node">
<title>webhook_bots</title>
<polygon fill="#efefef" stroke="transparent" points="271,-862 271,-896 506,-896 506,-862 271,-862"/>
<polygon fill="none" stroke="#000000" points="271,-862 271,-896 506,-896 506,-862 271,-862"/>
<text text-anchor="start" x="277.5107" y="-875.6" font-family="Arial Bold" font-size="18.00" fill="#000000">webhook_bots</text>
<text text-anchor="start" x="403.5195" y="-875.6" font-family="Arial" font-size="14.00" fill="#000000"> </text>
<text text-anchor="start" x="407.4092" y="-875.6" font-family="Arial" font-size="14.00" fill="#666666">[BASE TABLE]</text>
<polygon fill="none" stroke="#000000" points="271,-832 271,-862 506,-862 506,-832 271,-832"/>
<text text-anchor="start" x="278" y="-844.8" font-family="Arial" font-size="14.00" fill="#000000">id </text>
<text text-anchor="start" x="292.7861" y="-844.8" font-family="Arial" font-size="14.00" fill="#666666">[char(36)]</text>
<polygon fill="none" stroke="#000000" points="271,-802 271,-832 506,-832 506,-802 271,-802"/>
<text text-anchor="start" x="278" y="-814.8" font-family="Arial" font-size="14.00" fill="#000000">bot_user_id </text>
<text text-anchor="start" x="355.0547" y="-814.8" font-family="Arial" font-size="14.00" fill="#666666">[char(36)]</text>
<polygon fill="none" stroke="#000000" points="271,-772 271,-802 506,-802 506,-772 271,-772"/>
<text text-anchor="start" x="278" y="-784.8" font-family="Arial" font-size="14.00" fill="#000000">description </text>
<text text-anchor="start" x="349.5928" y="-784.8" font-family="Arial" font-size="14.00" fill="#666666">[text]</text>
<polygon fill="none" stroke="#000000" points="271,-742 271,-772 506,-772 506,-742 271,-742"/>
<text text-anchor="start" x="278" y="-754.8" font-family="Arial" font-size="14.00" fill="#000000">secret </text>
<text text-anchor="start" x="320.0137" y="-754.8" font-family="Arial" font-size="14.00" fill="#666666">[text]</text>
<polygon fill="none" stroke="#000000" points="271,-712 271,-742 506,-742 506,-712 271,-712"/>
<text text-anchor="start" x="278" y="-724.8" font-family="Arial" font-size="14.00" fill="#000000">channel_id </text>
<text text-anchor="start" x="349.6133" y="-724.8" font-family="Arial" font-size="14.00" fill="#666666">[char(36)]</text>
<polygon fill="none" stroke="#000000" points="271,-682 271,-712 506,-712 506,-682 271,-682"/>
<text text-anchor="start" x="278" y="-694.8" font-family="Arial" font-size="14.00" fill="#000000">creator_id </text>
<text text-anchor="start" x="344.1445" y="-694.8" font-family="Arial" font-size="14.00" fill="#666666">[char(36)]</text>
<polygon fill="none" stroke="#000000" points="271,-652 271,-682 506,-682 506,-652 271,-652"/>
<text text-anchor="start" x="278" y="-664.8" font-family="Arial" font-size="14.00" fill="#000000">created_at </text>
<text text-anchor="start" x="348.0479" y="-664.8" font-family="Arial" font-size="14.00" fill="#666666">[timestamp(6)]</text>
<polygon fill="none" stroke="#000000" points="271,-622 271,-652 506,-652 506,-622 271,-622"/>
<text text-anchor="start" x="278" y="-634.8" font-family="Arial" font-size="14.00" fill="#000000">updated_at </text>
<text text-anchor="start" x="351.958" y="-634.8" font-family="Arial" font-size="14.00" fill="#666666">[timestamp(6)]</text>
<polygon fill="none" stroke="#000000" points="271,-592 271,-622 506,-622 506,-592 271,-592"/>
<text text-anchor="start" x="278" y="-604.8" font-family="Arial" font-size="14.00" fill="#000000">deleted_at </text>
<text text-anchor="start" x="347.2822" y="-604.8" font-family="Arial" font-size="14.00" fill="#666666">[timestamp(6)]</text>
<polygon fill="none" stroke="#000000" stroke-width="3" points="269,-590.5 269,-897.5 507,-897.5 507,-590.5 269,-590.5"/>
</g>
<!-- channels -->
<g id="node2" class="node">
<title>channels</title>
<polygon fill="#efefef" stroke="transparent" points="151,-418 151,-452 338,-452 338,-418 151,-418"/>
<polygon fill="none" stroke="#000000" points="151,-418 151,-452 338,-452 338,-418 151,-418"/>
<text text-anchor="start" x="157.5005" y="-431.6" font-family="Arial Bold" font-size="18.00" fill="#000000">channels</text>
<text text-anchor="start" x="235.5298" y="-431.6" font-family="Arial" font-size="14.00" fill="#000000"> </text>
<text text-anchor="start" x="239.4194" y="-431.6" font-family="Arial" font-size="14.00" fill="#666666">[BASE TABLE]</text>
<polygon fill="none" stroke="#000000" points="151,-388 151,-418 338,-418 338,-388 151,-388"/>
<text text-anchor="start" x="158" y="-400.8" font-family="Arial" font-size="14.00" fill="#000000">id </text>
<text text-anchor="start" x="172.7861" y="-400.8" font-family="Arial" font-size="14.00" fill="#666666">[char(36)]</text>
<polygon fill="none" stroke="#000000" points="151,-358 151,-388 338,-388 338,-358 151,-358"/>
<text text-anchor="start" x="158" y="-370.8" font-family="Arial" font-size="14.00" fill="#000000">name </text>
<text text-anchor="start" x="196.9102" y="-370.8" font-family="Arial" font-size="14.00" fill="#666666">[varchar(20)]</text>
<polygon fill="none" stroke="#000000" points="151,-328 151,-358 338,-358 338,-328 151,-328"/>
<text text-anchor="start" x="158" y="-340.8" font-family="Arial" font-size="14.00" fill="#000000">parent_id </text>
<text text-anchor="start" x="220.2686" y="-340.8" font-family="Arial" font-size="14.00" fill="#666666">[char(36)]</text>
<polygon fill="none" stroke="#000000" points="151,-298 151,-328 338,-328 338,-298 151,-298"/>
<text text-anchor="start" x="158" y="-310.8" font-family="Arial" font-size="14.00" fill="#000000">topic </text>
<text text-anchor="start" x="191.4619" y="-310.8" font-family="Arial" font-size="14.00" fill="#666666">[text]</text>
<polygon fill="none" stroke="#000000" points="151,-268 151,-298 338,-298 338,-268 151,-268"/>
<text text-anchor="start" x="158" y="-280.8" font-family="Arial" font-size="14.00" fill="#000000">is_forced </text>
<text text-anchor="start" x="218.6963" y="-280.8" font-family="Arial" font-size="14.00" fill="#666666">[tinyint(1)]</text>
<polygon fill="none" stroke="#000000" points="151,-238 151,-268 338,-268 338,-238 151,-238"/>
<text text-anchor="start" x="158" y="-250.8" font-family="Arial" font-size="14.00" fill="#000000">is_public </text>
<text text-anchor="start" x="216.3652" y="-250.8" font-family="Arial" font-size="14.00" fill="#666666">[tinyint(1)]</text>
<polygon fill="none" stroke="#000000" points="151,-208 151,-238 338,-238 338,-208 151,-208"/>
<text text-anchor="start" x="158" y="-220.8" font-family="Arial" font-size="14.00" fill="#000000">is_visible </text>
<text text-anchor="start" x="218.6895" y="-220.8" font-family="Arial" font-size="14.00" fill="#666666">[tinyint(1)]</text>
<polygon fill="none" stroke="#000000" points="151,-178 151,-208 338,-208 338,-178 151,-178"/>
<text text-anchor="start" x="158" y="-190.8" font-family="Arial" font-size="14.00" fill="#000000">creator_id </text>
<text text-anchor="start" x="224.1445" y="-190.8" font-family="Arial" font-size="14.00" fill="#666666">[char(36)]</text>
<polygon fill="none" stroke="#000000" points="151,-148 151,-178 338,-178 338,-148 151,-148"/>
<text text-anchor="start" x="158" y="-160.8" font-family="Arial" font-size="14.00" fill="#000000">updater_id </text>
<text text-anchor="start" x="228.0547" y="-160.8" font-family="Arial" font-size="14.00" fill="#666666">[char(36)]</text>
<polygon fill="none" stroke="#000000" points="151,-118 151,-148 338,-148 338,-118 151,-118"/>
<text text-anchor="start" x="158" y="-130.8" font-family="Arial" font-size="14.00" fill="#000000">created_at </text>
<text text-anchor="start" x="228.0479" y="-130.8" font-family="Arial" font-size="14.00" fill="#666666">[timestamp(6)]</text>
<polygon fill="none" stroke="#000000" points="151,-88 151,-118 338,-118 338,-88 151,-88"/>
<text text-anchor="start" x="158" y="-100.8" font-family="Arial" font-size="14.00" fill="#000000">updated_at </text>
<text text-anchor="start" x="231.958" y="-100.8" font-family="Arial" font-size="14.00" fill="#666666">[timestamp(6)]</text>
<polygon fill="none" stroke="#000000" points="151,-58 151,-88 338,-88 338,-58 151,-58"/>
<text text-anchor="start" x="158" y="-70.8" font-family="Arial" font-size="14.00" fill="#000000">deleted_at </text>
<text text-anchor="start" x="227.2822" y="-70.8" font-family="Arial" font-size="14.00" fill="#666666">[timestamp(6)]</text>
</g>
<!-- webhook_bots&#45;&gt;channels -->
<g id="edge1" class="edge">
<title>webhook_bots:channel_id&#45;&gt;channels:id</title>
<path fill="none" stroke="#000000" d="M260.6702,-726.9314C-64.1818,-722.5295 331.6459,-507.8221 338,-495 356.1556,-458.3629 378.8889,-403 338,-403"/>
<polygon fill="#000000" stroke="#000000" points="261.0002,-726.9335 270.9701,-731.4999 266.0001,-726.9667 271,-727 271,-727 271,-727 266.0001,-726.9667 271.0299,-722.5001 261.0002,-726.9335 261.0002,-726.9335"/>
<text text-anchor="start" x="7.4355" y="-736.5" font-family="Arial" font-size="10.00" fill="#000000">FOREIGN KEY (channel_id) REFERENCES channels (id)</text>
</g>
<!-- users -->
<g id="node3" class="node">
<title>users</title>
<polygon fill="#efefef" stroke="transparent" points="442,-433 442,-467 625,-467 625,-433 442,-433"/>
<polygon fill="none" stroke="#000000" points="442,-433 442,-467 625,-467 625,-433 442,-433"/>
<text text-anchor="start" x="461.499" y="-446.6" font-family="Arial Bold" font-size="18.00" fill="#000000">users</text>
<text text-anchor="start" x="509.5313" y="-446.6" font-family="Arial" font-size="14.00" fill="#000000"> </text>
<text text-anchor="start" x="513.4209" y="-446.6" font-family="Arial" font-size="14.00" fill="#666666">[BASE TABLE]</text>
<polygon fill="none" stroke="#000000" points="442,-403 442,-433 625,-433 625,-403 442,-403"/>
<text text-anchor="start" x="449" y="-415.8" font-family="Arial" font-size="14.00" fill="#000000">id </text>
<text text-anchor="start" x="463.7861" y="-415.8" font-family="Arial" font-size="14.00" fill="#666666">[char(36)]</text>
<polygon fill="none" stroke="#000000" points="442,-373 442,-403 625,-403 625,-373 442,-373"/>
<text text-anchor="start" x="449" y="-385.8" font-family="Arial" font-size="14.00" fill="#000000">name </text>
<text text-anchor="start" x="487.9102" y="-385.8" font-family="Arial" font-size="14.00" fill="#666666">[varchar(32)]</text>
<polygon fill="none" stroke="#000000" points="442,-343 442,-373 625,-373 625,-343 442,-343"/>
<text text-anchor="start" x="448.6831" y="-355.8" font-family="Arial" font-size="14.00" fill="#000000">display_name </text>
<text text-anchor="start" x="538.9585" y="-355.8" font-family="Arial" font-size="14.00" fill="#666666">[varchar(64)]</text>
<polygon fill="none" stroke="#000000" points="442,-313 442,-343 625,-343 625,-313 442,-313"/>
<text text-anchor="start" x="449" y="-325.8" font-family="Arial" font-size="14.00" fill="#000000">password </text>
<text text-anchor="start" x="512.8066" y="-325.8" font-family="Arial" font-size="14.00" fill="#666666">[char(128)]</text>
<polygon fill="none" stroke="#000000" points="442,-283 442,-313 625,-313 625,-283 442,-283"/>
<text text-anchor="start" x="449" y="-295.8" font-family="Arial" font-size="14.00" fill="#000000">salt </text>
<text text-anchor="start" x="474.6758" y="-295.8" font-family="Arial" font-size="14.00" fill="#666666">[char(128)]</text>
<polygon fill="none" stroke="#000000" points="442,-253 442,-283 625,-283 625,-253 442,-253"/>
<text text-anchor="start" x="449" y="-265.8" font-family="Arial" font-size="14.00" fill="#000000">icon </text>
<text text-anchor="start" x="478.5723" y="-265.8" font-family="Arial" font-size="14.00" fill="#666666">[char(36)]</text>
<polygon fill="none" stroke="#000000" points="442,-223 442,-253 625,-253 625,-223 442,-223"/>
<text text-anchor="start" x="449" y="-235.8" font-family="Arial" font-size="14.00" fill="#000000">status </text>
<text text-anchor="start" x="490.2412" y="-235.8" font-family="Arial" font-size="14.00" fill="#666666">[tinyint(4)]</text>
<polygon fill="none" stroke="#000000" points="442,-193 442,-223 625,-223 625,-193 442,-193"/>
<text text-anchor="start" x="449" y="-205.8" font-family="Arial" font-size="14.00" fill="#000000">bot </text>
<text text-anchor="start" x="472.3516" y="-205.8" font-family="Arial" font-size="14.00" fill="#666666">[tinyint(1)]</text>
<polygon fill="none" stroke="#000000" points="442,-163 442,-193 625,-193 625,-163 442,-163"/>
<text text-anchor="start" x="449" y="-175.8" font-family="Arial" font-size="14.00" fill="#000000">role </text>
<text text-anchor="start" x="476.2344" y="-175.8" font-family="Arial" font-size="14.00" fill="#666666">[varchar(30)]</text>
<polygon fill="none" stroke="#000000" points="442,-133 442,-163 625,-163 625,-133 442,-133"/>
<text text-anchor="start" x="449" y="-145.8" font-family="Arial" font-size="14.00" fill="#000000">twitter_id </text>
<text text-anchor="start" x="508.9102" y="-145.8" font-family="Arial" font-size="14.00" fill="#666666">[varchar(15)]</text>
<polygon fill="none" stroke="#000000" points="442,-103 442,-133 625,-133 625,-103 442,-103"/>
<text text-anchor="start" x="449" y="-115.8" font-family="Arial" font-size="14.00" fill="#000000">last_online </text>
<text text-anchor="start" x="519.8271" y="-115.8" font-family="Arial" font-size="14.00" fill="#666666">[timestamp(6)]</text>
<polygon fill="none" stroke="#000000" points="442,-73 442,-103 625,-103 625,-73 442,-73"/>
<text text-anchor="start" x="449" y="-85.8" font-family="Arial" font-size="14.00" fill="#000000">created_at </text>
<text text-anchor="start" x="519.0479" y="-85.8" font-family="Arial" font-size="14.00" fill="#666666">[timestamp(6)]</text>
<polygon fill="none" stroke="#000000" points="442,-43 442,-73 625,-73 625,-43 442,-43"/>
<text text-anchor="start" x="449" y="-55.8" font-family="Arial" font-size="14.00" fill="#000000">updated_at </text>
<text text-anchor="start" x="522.958" y="-55.8" font-family="Arial" font-size="14.00" fill="#666666">[timestamp(6)]</text>
</g>
<!-- webhook_bots&#45;&gt;users -->
<g id="edge2" class="edge">
<title>webhook_bots:creator_id&#45;&gt;users:id</title>
<path fill="none" stroke="#000000" d="M516.1264,-696.1859C569.4746,-686.9257 538.0279,-600.7628 506,-546 489.524,-517.8286 458.476,-538.1714 442,-510 421.3574,-474.7043 401.1111,-418 442,-418"/>
<polygon fill="#000000" stroke="#000000" points="515.9678,-696.1986 505.6394,-692.5145 510.9839,-696.5993 506,-697 506,-697 506,-697 510.9839,-696.5993 506.3606,-701.4855 515.9678,-696.1986 515.9678,-696.1986"/>
<text text-anchor="start" x="513.1768" y="-706.5" font-family="Arial" font-size="10.00" fill="#000000">FOREIGN KEY (creator_id) REFERENCES users (id)</text>
</g>
</g>
</svg>
